<svg width="1000" height="1000" viewBox="0 0 1000 1000" fill="none" xmlns="http://www.w3.org/2000/svg">
<path d="M828.672 500.002C828.672 681.336 681.67 828.338 500.336 828.338C319.002 828.338 172 681.336 172 500.002C172 318.668 319.002 171.666 500.336 171.666C681.67 171.666 828.672 318.668 828.672 500.002Z" fill="#EEEDF3"/>
<path d="M577.48 578.087L391.126 614.588C373.189 618.101 355.794 606.405 352.281 588.468L278.698 212.795C275.184 194.855 286.882 177.463 304.819 173.95L491.172 137.449C509.112 133.935 526.503 145.629 530.017 163.569L603.6 539.242C607.113 557.179 595.42 574.573 577.48 578.087Z" fill="#FF5A23"/>
<path d="M599.221 514.527L347.902 563.753L284.372 239.406L535.691 190.181L599.221 514.527Z" fill="#FF985F"/>
<path d="M494.293 442.476L417.04 457.604C397.447 461.441 378.277 448.55 374.44 428.957L359.312 351.704C355.475 332.112 368.366 312.942 387.959 309.105L465.212 293.977C484.805 290.14 503.975 303.031 507.812 322.624L522.94 399.877C526.777 419.469 513.886 438.639 494.293 442.476Z" fill="white"/>
<path fill-rule="evenodd" clip-rule="evenodd" d="M470.655 402.731C472.957 404.279 476.079 403.668 477.627 401.366C479.175 399.064 478.564 395.942 476.261 394.394L448.194 375.52L467.069 347.453C468.617 345.151 468.006 342.029 465.703 340.481C463.401 338.933 460.28 339.544 458.732 341.846L439.857 369.913L411.789 351.038C409.487 349.49 406.366 350.101 404.818 352.403C403.27 354.705 403.881 357.827 406.183 359.375L434.251 378.25L415.376 406.318C413.827 408.621 414.439 411.742 416.741 413.29C419.043 414.838 422.164 414.227 423.713 411.925L442.588 383.857L470.655 402.731Z" fill="#48367D"/>
<path d="M777.683 656.068L779.136 647.522L796 515.111L716.169 455.386L603.784 487.318L614.218 660.656C667.088 673.353 719.498 671.48 777.683 656.068Z" fill="#FFD3BA"/>
<path d="M631.47 555.894C622.379 548.419 618.391 535.824 622.415 524.032C635.348 486.157 637.084 464.468 637.757 445.497C638.328 429.45 651.797 416.903 667.843 417.474C683.886 418.045 696.434 431.51 695.866 447.557C694.889 475.216 691.38 502.001 677.443 542.816C672.256 558.012 655.732 566.125 640.536 560.938C637.14 559.776 634.093 558.048 631.47 555.894Z" fill="#FFD3BA"/>
<path d="M687.865 547.809C678.508 540.119 674.618 527.051 679.125 515.089C686.898 494.471 690.343 475.438 689.361 458.508C688.439 442.478 700.685 428.736 716.712 427.809C732.74 426.882 746.487 439.122 747.413 455.153C748.863 480.251 744.193 507.321 733.531 535.6C727.869 550.625 711.1 558.213 696.075 552.552C693.016 551.397 690.26 549.776 687.865 547.809Z" fill="#FFD3BA"/>
<path d="M748.469 561.344C738.06 555.151 732.243 542.822 734.897 530.313C739.477 508.763 740.021 489.426 736.504 472.833C733.178 457.128 743.212 441.691 758.92 438.365C774.626 435.036 790.059 445.069 793.385 460.778C798.601 485.375 798.061 512.836 791.779 542.394C788.441 558.101 773.006 568.128 757.299 564.789C754.102 564.109 751.136 562.928 748.469 561.344Z" fill="#FFD3BA"/>
<path d="M608.924 739.84C601.08 681.659 581.549 662.543 578.683 658.701C575.963 655.06 550.502 626.382 541.111 609.31C529.476 588.155 515.765 557.981 527.649 533.314C539.294 509.157 568.392 514 590.993 495.953L639.419 478.261C658.657 474.964 676.926 487.884 680.229 507.122C683.526 526.363 670.602 544.632 651.365 547.932L641.819 558.19C638.326 559.616 641.299 569.471 642.207 573.599C647.737 583.466 628.261 601.841 637.285 613.939C648.96 629.581 645.74 651.726 630.095 663.401C618.292 672.209 610.775 753.581 608.924 739.84Z" fill="#FFD3BA"/>
<path fill-rule="evenodd" clip-rule="evenodd" d="M603.661 811.749C602.799 717.009 599.534 617.573 589.962 596.535C570.698 554.193 753.727 611.395 753.727 611.395C753.727 611.395 784.1 537.983 780.771 670.855C740.639 736.587 678.046 787.107 603.661 811.749Z" fill="#FFD3BA"/>
<path fill-rule="evenodd" clip-rule="evenodd" d="M496.777 355.55C503.051 335.234 524.606 323.85 544.923 330.124L533.563 366.91C544.923 330.124 544.929 330.126 544.936 330.128L544.983 330.143L545.061 330.167C545.119 330.185 545.189 330.207 545.271 330.233C545.434 330.284 545.644 330.351 545.899 330.433C546.407 330.596 547.093 330.82 547.936 331.104C549.622 331.67 551.951 332.478 554.762 333.517C560.344 335.582 568.033 338.638 576.458 342.625C591.508 349.746 615.847 362.955 630.832 383.474M599.739 406.179L630.832 383.474C650.771 410.779 656.272 443.372 654.16 473.099C652.044 502.873 642.205 532.466 627.976 557.47C617.46 575.95 593.953 582.406 575.473 571.89C556.993 561.373 550.537 537.867 561.054 519.387C570.231 503.26 576.14 484.716 577.354 467.642C578.57 450.522 574.98 437.556 568.647 428.885C565.874 425.087 557.125 418.661 543.526 412.227C537.626 409.435 532.101 407.234 528.049 405.735C526.044 404.993 524.452 404.443 523.419 404.096C522.905 403.923 522.533 403.802 522.323 403.735C522.22 403.702 522.156 403.682 522.134 403.675C501.861 397.374 490.51 375.844 496.777 355.55" fill="#FFD2BA"/>
<path d="M631 384L629.5 389.5L624.5 411L589.5 413L497 359.5V355.5L500 354L630.5 383L631 384Z" fill="#FFD2BA"/>
</svg>
