<svg width="141" height="150" viewBox="0 0 141 150" fill="none" xmlns="http://www.w3.org/2000/svg">
<path d="M140.313 79.3766C140.313 118.123 108.902 149.533 70.1564 149.533C31.4103 149.533 0 118.123 0 79.3766C0 40.6305 31.4103 9.22021 70.1564 9.22021C108.902 9.22021 140.313 40.6305 140.313 79.3766Z" fill="#EEEDF3"/>
<path d="M86.6398 96.0575L46.8212 103.857C42.9886 104.607 39.2718 102.108 38.5211 98.2755L22.7984 18.0046C22.0476 14.1713 24.547 10.4552 28.3796 9.7045L68.1982 1.90525C72.0316 1.15442 75.7475 3.65312 76.4984 7.48645L92.221 87.7573C92.9717 91.59 90.4731 95.3066 86.6398 96.0575Z" fill="#FF5A23"/>
<path d="M91.2852 82.4796L37.5853 92.9978L24.0107 23.6938L77.7107 13.1757L91.2852 82.4796Z" fill="#FF985F"/>
<path d="M68.865 67.0828L52.3582 70.3154C48.1717 71.1352 44.0757 68.3807 43.2558 64.1942L40.0233 47.6874C39.2035 43.501 41.958 39.4049 46.1444 38.5851L62.6513 35.3526C66.8377 34.5327 70.9338 37.2872 71.7536 41.4737L74.9861 57.9805C75.8059 62.1669 73.0514 66.263 68.865 67.0828Z" fill="white"/>
<path fill-rule="evenodd" clip-rule="evenodd" d="M64.9061 59.332C65.4803 59.7182 66.2588 59.5657 66.645 58.9915C67.0311 58.4173 66.8787 57.6388 66.3045 57.2527L59.3054 52.5459L64.0116 45.5476C64.3977 44.9734 64.2453 44.1949 63.6711 43.8087C63.0969 43.4226 62.3184 43.575 61.9322 44.1492L57.226 51.1476L50.2239 46.4388C49.6497 46.0527 48.8712 46.2051 48.485 46.7793C48.0989 47.3535 48.2514 48.1321 48.8256 48.5182L55.8276 53.227L51.1184 60.2298C50.7322 60.804 50.8847 61.5825 51.4589 61.9687C52.0331 62.3548 52.8116 62.2023 53.1978 61.6281L57.907 54.6253L64.9061 59.332Z" fill="#48367D"/>
<path d="M127.894 111.52L128.204 109.694L131.808 81.4013L114.75 68.6396L90.7364 75.4626L92.966 112.5C104.263 115.213 115.461 114.813 127.894 111.52Z" fill="#FFD3BA"/>
<path d="M96.6519 90.1157C94.7093 88.5185 93.857 85.8273 94.7169 83.3075C97.4803 75.2147 97.8514 70.5804 97.9952 66.5268C98.1172 63.0981 100.995 60.4171 104.424 60.5391C107.852 60.661 110.533 63.5381 110.411 66.9669C110.203 72.8769 109.453 78.6002 106.475 87.3212C105.367 90.5681 101.836 92.3016 98.589 91.1933C97.8633 90.9452 97.2122 90.5758 96.6519 90.1157Z" fill="#FFD3BA"/>
<path d="M108.702 88.3883C106.703 86.7453 105.872 83.953 106.835 81.397C108.496 76.9915 109.232 72.9248 109.022 69.3073C108.825 65.882 111.441 62.9457 114.866 62.7477C118.291 62.5497 121.228 65.165 121.426 68.5904C121.736 73.9531 120.738 79.7372 118.46 85.7797C117.25 88.9901 113.667 90.6116 110.456 89.4018C109.803 89.1551 109.214 88.8086 108.702 88.3883Z" fill="#FFD3BA"/>
<path d="M121.652 91.2777C119.427 89.9545 118.185 87.32 118.752 84.6473C119.73 80.0426 119.846 75.9108 119.095 72.3654C118.384 69.0096 120.528 65.7112 123.885 65.0005C127.24 64.2891 130.538 66.4329 131.249 69.7895C132.363 75.0451 132.248 80.9128 130.906 87.2287C130.192 90.5847 126.894 92.7272 123.538 92.0139C122.855 91.8684 122.221 91.6161 121.652 91.2777Z" fill="#FFD3BA"/>
<path d="M91.8342 129.421C90.1584 116.99 85.985 112.905 85.3727 112.084C84.7915 111.306 79.3512 105.179 77.3445 101.531C74.8584 97.0106 71.9287 90.5633 74.4681 85.2925C76.9563 80.1308 83.1736 81.1656 88.003 77.3095L98.3503 73.5292C102.461 72.8248 106.364 75.5854 107.07 79.696C107.775 83.8073 105.013 87.7109 100.903 88.416L98.8632 90.6078C98.1166 90.9126 98.752 93.0184 98.946 93.9003C100.128 96.0087 95.9662 99.9349 97.8943 102.52C100.389 105.862 99.7008 110.594 96.3579 113.088C93.8359 114.971 92.2298 132.358 91.8342 129.421Z" fill="#FFD3BA"/>
<path fill-rule="evenodd" clip-rule="evenodd" d="M90.7098 144.786C90.5255 124.543 89.8278 103.295 87.7827 98.7998C83.6663 89.7523 122.775 101.975 122.775 101.975C122.775 101.975 129.265 86.2882 128.553 114.681C119.978 128.726 106.604 139.521 90.7098 144.786Z" fill="#FFD3BA"/>
<path d="M77.2559 50.939C77.2559 50.939 87.6017 54.1339 91.396 59.3297C97.0096 67.0168 95.281 78.7991 90.2797 87.5877" stroke="#FFD2BA" stroke-width="16.4528" stroke-linecap="round" stroke-linejoin="round"/>
</svg>
