<svg width="1000" height="1000" viewBox="0 0 1000 1000" fill="none" xmlns="http://www.w3.org/2000/svg">
<path d="M828.672 500.002C828.672 681.336 681.67 828.338 500.336 828.338C319.002 828.338 172 681.336 172 500.002C172 318.668 319.002 171.666 500.336 171.666C681.67 171.666 828.672 318.668 828.672 500.002Z" fill="#EEEDF3"/>
<path d="M577.48 578.087L391.126 614.588C373.189 618.101 355.794 606.405 352.281 588.468L278.698 212.795C275.184 194.855 286.882 177.463 304.819 173.95L491.172 137.449C509.112 133.935 526.503 145.629 530.017 163.569L603.6 539.242C607.113 557.179 595.42 574.573 577.48 578.087Z" fill="#FF5A23"/>
<path d="M599.221 514.527L347.902 563.753L284.372 239.406L535.691 190.181L599.221 514.527Z" fill="#FF985F"/>
<path d="M494.293 442.476L417.04 457.604C397.447 461.441 378.277 448.55 374.44 428.957L359.312 351.704C355.475 332.112 368.366 312.942 387.959 309.105L465.212 293.977C484.805 290.14 503.975 303.031 507.812 322.624L522.94 399.877C526.777 419.469 513.886 438.639 494.293 442.476Z" fill="white"/>
<path fill-rule="evenodd" clip-rule="evenodd" d="M470.655 402.731C472.957 404.279 476.079 403.668 477.627 401.366C479.175 399.064 478.564 395.942 476.261 394.394L448.194 375.52L467.069 347.453C468.617 345.151 468.006 342.029 465.703 340.481C463.401 338.933 460.28 339.544 458.732 341.846L439.857 369.913L411.789 351.038C409.487 349.49 406.366 350.101 404.818 352.403C403.27 354.705 403.881 357.827 406.183 359.375L434.251 378.25L415.376 406.318C413.827 408.621 414.439 411.742 416.741 413.29C419.043 414.838 422.164 414.227 423.713 411.925L442.588 383.857L470.655 402.731Z" fill="#48367D"/>
<path d="M777.684 656.068L779.136 647.522L796.001 515.111L716.169 455.386L603.784 487.318L614.219 660.656C667.088 673.353 719.499 671.48 777.684 656.068Z" fill="#FFD3BA"/>
<path d="M631.471 555.894C622.379 548.419 618.391 535.824 622.415 524.032C635.348 486.157 637.084 464.468 637.757 445.497C638.328 429.45 651.797 416.903 667.843 417.474C683.886 418.045 696.434 431.51 695.866 447.557C694.889 475.216 691.38 502.001 677.443 542.816C672.256 558.012 655.732 566.125 640.536 560.938C637.14 559.776 634.093 558.048 631.471 555.894Z" fill="#FFD3BA"/>
<path d="M687.865 547.809C678.508 540.119 674.618 527.051 679.124 515.089C686.898 494.471 690.343 475.438 689.361 458.508C688.439 442.478 700.684 428.736 716.712 427.809C732.74 426.882 746.487 439.122 747.413 455.153C748.862 480.251 744.193 507.321 733.531 535.6C727.869 550.625 711.1 558.213 696.075 552.552C693.016 551.397 690.26 549.776 687.865 547.809Z" fill="#FFD3BA"/>
<path d="M748.469 561.344C738.06 555.151 732.243 542.822 734.897 530.313C739.477 508.763 740.021 489.426 736.504 472.833C733.178 457.128 743.211 441.691 758.92 438.365C774.626 435.036 790.059 445.069 793.385 460.778C798.601 485.375 798.061 512.836 791.779 542.394C788.441 558.101 773.006 568.128 757.299 564.789C754.102 564.109 751.136 562.928 748.469 561.344Z" fill="#FFD3BA"/>
<path d="M608.924 739.84C601.081 681.659 581.549 662.543 578.683 658.701C575.963 655.06 550.502 626.382 541.111 609.31C529.476 588.155 515.765 557.981 527.649 533.314C539.294 509.157 568.392 514 590.994 495.953L639.419 478.261C658.657 474.964 676.926 487.884 680.23 507.122C683.526 526.363 670.603 544.632 651.365 547.932L641.82 558.19C638.326 559.616 641.3 569.471 642.208 573.599C647.737 583.466 628.262 601.841 637.285 613.939C648.96 629.581 645.74 651.726 630.095 663.401C618.292 672.209 610.775 753.581 608.924 739.84Z" fill="#FFD3BA"/>
<path fill-rule="evenodd" clip-rule="evenodd" d="M603.661 811.749C602.799 717.009 599.534 617.573 589.962 596.535C570.697 554.193 753.727 611.395 753.727 611.395C753.727 611.395 784.1 537.983 780.771 670.855C740.639 736.587 678.046 787.107 603.661 811.749Z" fill="#FFD3BA"/>
<path d="M533.562 366.91C533.562 366.91 581.982 381.863 599.739 406.179C626.011 442.156 617.921 497.297 594.515 538.428" stroke="#FFD2BA" stroke-width="77" stroke-linecap="round" stroke-linejoin="round"/>
</svg>
