<svg width="145" height="144" viewBox="0 0 145 144" fill="none" xmlns="http://www.w3.org/2000/svg">
<path d="M143 72.0273C143 111.516 110.988 143.527 71.5 143.527C32.0118 143.527 0 111.516 0 72.0273C0 32.5392 32.0118 0.527344 71.5 0.527344C110.988 0.527344 143 32.5392 143 72.0273Z" fill="#EEEDF3"/>
<path d="M115.75 103.148H27.1413C24.5794 103.148 22.5029 101.072 22.5029 98.51V28.9743C22.5029 26.4124 24.5794 24.3359 27.1413 24.3359H115.75C118.311 24.3359 120.388 26.4124 120.388 28.9743V98.51C120.388 101.072 118.311 103.148 115.75 103.148Z" fill="#C8C5D6"/>
<path d="M115.584 24.3359H27.3075C24.6536 24.3359 22.5029 26.4866 22.5029 29.1398V35.9041H120.388V29.1398C120.388 26.4866 118.238 24.3359 115.584 24.3359Z" fill="#48367D"/>
<path d="M34.5226 30.1681C34.5226 31.4947 33.448 32.5701 32.1214 32.5701C30.7949 32.5701 29.7188 31.4947 29.7188 30.1681C29.7188 28.8416 30.7949 27.7662 32.1214 27.7662C33.448 27.7662 34.5226 28.8416 34.5226 30.1681Z" fill="white"/>
<path d="M42.4054 30.122C42.4054 31.4486 41.3301 32.5239 40.0042 32.5239C38.6769 32.5239 37.6016 31.4486 37.6016 30.122C37.6016 28.7954 38.6769 27.7201 40.0042 27.7201C41.3301 27.7201 42.4054 28.7954 42.4054 30.122Z" fill="white"/>
<path d="M50.4147 30.122C50.4147 31.4486 49.3393 32.5239 48.0135 32.5239C46.6869 32.5239 45.6108 31.4486 45.6108 30.122C45.6108 28.7954 46.6869 27.7201 48.0135 27.7201C49.3393 27.7201 50.4147 28.7954 50.4147 30.122Z" fill="white"/>
<path d="M76.296 55.8031C77.0421 56.4507 77.7902 57.0982 78.5363 57.7458C80.479 59.4314 82.4854 61.0474 84.3701 62.7987C87.3779 65.5938 89.2509 69.0403 89.9932 73.0822C90.7432 77.1763 90.2155 81.1138 88.3772 84.8484C86.6143 88.4283 83.9197 91.1171 80.3862 92.9631C77.8714 94.2775 75.1884 94.985 72.3527 95.0952C67.0331 95.302 62.3513 93.6938 58.4119 90.0906C55.6129 87.5294 53.8519 84.3458 53.0169 80.6499C52.5684 78.6666 52.4428 76.6602 52.6554 74.6402C53.0865 70.5345 54.6735 66.9372 57.4396 63.8637C58.4215 62.7735 59.562 61.8592 60.6658 60.9043C62.591 59.2439 64.5202 57.5892 66.4474 55.9326C66.4937 55.892 66.5324 55.8457 66.5749 55.8012C66.8378 55.7993 67.1007 55.8051 67.3636 55.7915C67.524 55.7838 67.5588 55.8534 67.555 55.9964C67.5472 56.267 67.553 56.5377 67.553 56.8083C67.553 59.499 67.553 62.1898 67.553 64.8805C67.553 65.3695 67.7328 65.7581 68.1697 65.9939C68.9661 66.425 69.8823 65.8509 69.8842 64.9191C69.8881 62.8006 69.8862 60.682 69.8862 58.5635C69.8862 57.7129 69.89 56.8624 69.8823 56.0119C69.8804 55.8379 69.9287 55.7838 70.1027 55.7896C70.4815 55.8031 70.8604 55.7935 71.2393 55.7935C72.9248 55.7993 74.6104 55.8012 76.296 55.8031ZM71.8269 83.8645C72.1748 83.8645 72.5228 83.8567 72.8707 83.8683C73.0273 83.8741 73.0621 83.82 73.0601 83.6731C73.0524 83.1705 73.0717 82.6679 73.0505 82.1654C73.0408 81.9295 73.1065 81.8367 73.3385 81.7768C74.1677 81.5681 74.912 81.1853 75.5344 80.59C76.5047 79.6583 76.8565 78.5043 76.7773 77.186C76.6903 75.7439 76.0408 74.6653 74.765 73.9675C73.8894 73.4881 72.9306 73.2484 71.9873 72.9624C71.4326 72.7942 70.8759 72.6318 70.3868 72.3071C69.9074 71.9901 69.6677 71.5493 69.7219 70.9714C69.776 70.3973 70.0833 69.9991 70.6072 69.7652C71.0266 69.5796 71.4712 69.5332 71.9216 69.5641C72.9422 69.6337 73.5009 70.0706 73.8179 71.0429C73.8778 71.2246 73.9203 71.414 73.9551 71.6035C73.9783 71.7368 74.0073 71.7929 74.1697 71.7678C74.9178 71.6518 75.6678 71.5571 76.4178 71.4488C76.9493 71.3715 76.9493 71.3657 76.8256 70.8322C76.3636 68.8354 75.2831 67.4224 73.1839 66.9701C73.0582 66.943 73.0543 66.8715 73.0563 66.771C73.0601 66.2606 73.0466 65.7503 73.0621 65.24C73.0679 65.039 73.0022 64.9984 72.8147 65.0023C72.1497 65.0139 71.4847 65.0119 70.8198 65.0023C70.6458 65.0003 70.5782 65.0371 70.584 65.2284C70.5975 65.7387 70.584 66.2491 70.5917 66.7594C70.5936 66.8947 70.5511 66.9507 70.4197 66.9778C70.2302 67.0165 70.0427 67.0628 69.861 67.1228C68.68 67.5113 67.7289 68.1782 67.2457 69.3689C66.8475 70.347 66.8359 71.356 67.1065 72.3689C67.4409 73.6157 68.3166 74.3773 69.4338 74.9147C70.2863 75.3245 71.1987 75.568 72.084 75.8831C72.5711 76.0571 73.0563 76.2388 73.4622 76.5751C73.7135 76.7839 73.8933 77.0371 73.9435 77.3677C74.0498 78.0539 73.7386 78.6608 73.0949 78.9914C72.3101 79.3934 71.4847 79.3664 70.6555 79.1808C69.7818 78.9856 69.2405 78.4385 69.0144 77.5726C68.939 77.2865 68.9081 76.9946 68.8984 76.7027C68.8926 76.5345 68.8269 76.5171 68.6877 76.5384C67.872 76.6621 67.0543 76.7858 66.2367 76.8979C66.0994 76.9173 66.0762 76.9695 66.0878 77.0912C66.1323 77.5629 66.2328 78.0229 66.4106 78.4598C67.1452 80.2691 68.5137 81.3496 70.3636 81.8619C70.5337 81.9102 70.5994 81.9643 70.5956 82.148C70.582 82.6505 70.5994 83.1531 70.5859 83.6557C70.5801 83.8355 70.64 83.8741 70.8082 83.8683C71.1465 83.8548 71.4867 83.8645 71.8269 83.8645Z" fill="#FF985F"/>
<path d="M66.921 53.4684C65.854 51.6165 64.7812 49.7667 63.7199 47.911C62.3417 45.4967 63.7006 42.5566 66.43 42.0385C66.6658 41.9941 66.9055 41.9767 67.1452 41.9767C70.0061 41.9786 72.865 41.9767 75.7258 41.9767C78.778 41.9767 80.6781 45.2087 79.1743 47.8665C78.1459 49.6874 77.0866 51.4909 76.0409 53.3021C76.01 53.3543 75.9848 53.4123 75.9578 53.4664C73.5009 53.4684 71.0441 53.4703 68.5892 53.4722C68.0325 53.4742 67.4777 53.4703 66.921 53.4684Z" fill="#FF985F"/>
<path d="M66.9211 53.4686C67.4778 53.4706 68.0325 53.4764 68.5892 53.4764C71.0461 53.4744 73.5029 53.4725 75.9578 53.4706C76.1047 53.4725 76.2517 53.4764 76.3986 53.4764C77.0751 53.4802 77.5893 53.9731 77.5951 54.6284C77.6028 55.2663 77.0944 55.7766 76.4334 55.796C76.387 55.7979 76.3406 55.7998 76.2942 55.8037C74.6086 55.8018 72.923 55.7979 71.2375 55.796C70.8586 55.796 70.4797 55.8056 70.1009 55.7921C69.9249 55.7863 69.8786 55.8404 69.8805 56.0144C69.8882 56.8649 69.8844 57.7154 69.8844 58.5659C69.8844 60.6845 69.8863 62.8031 69.8824 64.9216C69.8805 65.8533 68.9642 66.4274 68.1679 65.9964C67.731 65.7606 67.5512 65.3701 67.5512 64.883C67.5532 62.1922 67.5512 59.5015 67.5512 56.8108C67.5512 56.5402 67.5454 56.2695 67.5532 55.9989C67.557 55.8559 67.5222 55.7863 67.3618 55.794C67.0989 55.8076 66.836 55.8018 66.5731 55.8037C65.8347 55.7747 65.3727 55.4074 65.2896 54.7869C65.1988 54.1027 65.7187 53.4938 66.4088 53.4783C66.5809 53.4725 66.751 53.4706 66.9211 53.4686Z" fill="#FD5B24"/>
<path d="M71.8271 83.8624C71.4869 83.8624 71.1467 83.8528 70.8065 83.8663C70.6383 83.8721 70.5803 83.8335 70.5842 83.6537C70.5977 83.1511 70.5803 82.6485 70.5939 82.1459C70.5997 81.9623 70.5339 81.9063 70.3619 81.8599C68.512 81.3476 67.1435 80.2671 66.4089 78.4578C66.2311 78.019 66.1306 77.5609 66.0861 77.0892C66.0745 76.9674 66.0977 76.9153 66.2349 76.8959C67.0526 76.7819 67.8703 76.6601 68.686 76.5364C68.8252 76.5151 68.8909 76.5325 68.8967 76.7007C68.9063 76.9926 68.9373 77.2845 69.0127 77.5705C69.2388 78.4365 69.7801 78.9836 70.6538 79.1788C71.483 79.3644 72.3084 79.3914 73.0932 78.9894C73.7369 78.6588 74.0481 78.0499 73.9418 77.3656C73.8896 77.0351 73.7118 76.7819 73.4605 76.5731C73.0546 76.2368 72.5694 76.0551 72.0823 75.8811C71.197 75.566 70.2826 75.3225 69.4321 74.9127C68.3168 74.3753 67.4392 73.6137 67.1048 72.3669C66.8342 71.356 66.8458 70.345 67.244 69.3669C67.7292 68.1762 68.6802 67.5093 69.8593 67.1208C70.043 67.0608 70.2305 67.0125 70.418 66.9758C70.5475 66.9506 70.5919 66.8946 70.59 66.7573C70.5823 66.247 70.5958 65.7367 70.5823 65.2264C70.5765 65.035 70.6422 64.9964 70.8181 65.0003C71.483 65.0099 72.148 65.0099 72.8129 65.0003C73.0004 64.9964 73.0662 65.037 73.0604 65.238C73.0449 65.7483 73.0565 66.2586 73.0546 66.7689C73.0546 66.8695 73.0584 66.9429 73.1821 66.968C75.2794 67.4204 76.3619 68.8334 76.8239 70.8302C76.9476 71.3656 76.9476 71.3695 76.416 71.4468C75.668 71.5551 74.916 71.6498 74.168 71.7657C74.0056 71.7909 73.9766 71.7348 73.9534 71.6014C73.9186 71.412 73.8761 71.2226 73.8162 71.0409C73.4972 70.0686 72.9405 69.6317 71.9199 69.5621C71.4676 69.5312 71.0249 69.5776 70.6055 69.7632C70.0816 69.9951 69.7743 70.3953 69.7201 70.9694C69.666 71.5473 69.9057 71.988 70.3851 72.3051C70.8761 72.6298 71.4328 72.7922 71.9856 72.9603C72.9289 73.2464 73.8877 73.4881 74.7633 73.9655C76.0391 74.6633 76.6886 75.7419 76.7756 77.1839C76.8548 78.5022 76.503 79.6582 75.5327 80.588C74.9102 81.1852 74.166 81.566 73.3368 81.7748C73.1029 81.8328 73.0372 81.9275 73.0488 82.1633C73.07 82.6659 73.0507 83.1685 73.0584 83.6711C73.0604 83.818 73.0256 83.8721 72.869 83.8663C72.523 83.8528 72.175 83.8624 71.8271 83.8624Z" fill="#FF985F"/>
</svg>
