<svg width="1000" height="1000" viewBox="0 0 1000 1000" fill="none" xmlns="http://www.w3.org/2000/svg">
<path d="M828.336 500.336C828.336 681.67 681.334 828.672 500 828.672C318.666 828.672 171.664 681.67 171.664 500.336C171.664 319.002 318.666 172 500 172C681.334 172 828.336 319.002 828.336 500.336Z" fill="#EEEDF3"/>
<path d="M355.385 383.088C362.28 389.072 369.193 395.056 376.087 401.039C394.039 416.615 412.58 431.548 429.995 447.731C457.789 473.56 475.097 505.408 481.957 542.758C488.887 580.59 484.011 616.975 467.024 651.485C450.733 684.566 425.834 709.412 393.182 726.47C369.943 738.617 345.15 745.154 318.946 746.172C269.79 748.084 226.527 733.222 190.124 699.927C164.26 676.26 147.987 646.841 140.271 612.688C136.127 594.362 134.966 575.821 136.931 557.155C140.914 519.215 155.579 485.974 181.14 457.573C190.214 447.499 200.752 439.05 210.952 430.226C228.742 414.883 246.569 399.593 264.377 384.285C264.806 383.91 265.163 383.481 265.556 383.07C267.986 383.052 270.415 383.106 272.844 382.981C274.327 382.909 274.648 383.552 274.612 384.874C274.541 387.375 274.595 389.875 274.595 392.376C274.595 417.24 274.595 442.104 274.595 466.969C274.595 471.488 276.256 475.078 280.293 477.257C287.652 481.24 296.118 475.935 296.136 467.326C296.172 447.749 296.154 428.172 296.154 408.595C296.154 400.736 296.19 392.876 296.118 385.017C296.101 383.409 296.547 382.909 298.155 382.963C301.656 383.088 305.157 382.999 308.658 382.999C324.234 383.052 339.809 383.07 355.385 383.088ZM314.088 642.393C317.303 642.393 320.518 642.322 323.733 642.429C325.18 642.482 325.502 641.982 325.484 640.625C325.412 635.981 325.591 631.336 325.395 626.692C325.305 624.513 325.913 623.656 328.056 623.102C335.719 621.173 342.596 617.636 348.347 612.135C357.314 603.525 360.565 592.861 359.833 580.679C359.029 567.354 353.027 557.387 341.238 550.939C333.147 546.509 324.287 544.294 315.57 541.65C310.444 540.096 305.3 538.596 300.78 535.595C296.351 532.666 294.136 528.593 294.636 523.252C295.136 517.947 297.976 514.268 302.817 512.106C306.693 510.392 310.801 509.963 314.963 510.249C324.394 510.892 329.556 514.929 332.486 523.913C333.04 525.592 333.433 527.343 333.754 529.093C333.968 530.326 334.236 530.844 335.737 530.612C342.649 529.54 349.58 528.665 356.51 527.664C361.423 526.95 361.423 526.896 360.279 521.966C356.01 503.515 346.025 490.457 326.627 486.278C325.466 486.028 325.43 485.367 325.448 484.438C325.484 479.722 325.359 475.007 325.502 470.291C325.555 468.433 324.948 468.058 323.215 468.094C317.071 468.201 310.926 468.183 304.782 468.094C303.174 468.076 302.549 468.415 302.602 470.184C302.727 474.899 302.602 479.615 302.674 484.331C302.692 485.581 302.299 486.099 301.084 486.349C299.334 486.706 297.601 487.135 295.922 487.689C285.008 491.279 276.22 497.441 271.754 508.445C268.075 517.483 267.968 526.807 270.468 536.167C273.559 547.688 281.65 554.725 291.974 559.691C299.852 563.478 308.283 565.729 316.463 568.64C320.965 570.248 325.448 571.927 329.199 575.035C331.521 576.964 333.182 579.304 333.647 582.358C334.629 588.699 331.753 594.308 325.805 597.362C318.553 601.078 310.926 600.828 303.263 599.113C295.19 597.309 290.188 592.254 288.098 584.252C287.402 581.608 287.116 578.911 287.027 576.214C286.973 574.66 286.366 574.499 285.08 574.695C277.542 575.839 269.986 576.982 262.43 578.018C261.162 578.196 260.948 578.679 261.055 579.804C261.466 584.162 262.395 588.414 264.038 592.45C270.826 609.169 283.472 619.154 300.566 623.888C302.138 624.334 302.745 624.835 302.71 626.531C302.585 631.176 302.745 635.82 302.62 640.464C302.567 642.125 303.12 642.482 304.674 642.429C307.8 642.304 310.944 642.393 314.088 642.393Z" fill="#FF985F"/>
<path d="M268.754 361.526C258.894 344.414 248.98 327.32 239.174 310.172C226.438 287.862 238.995 260.694 264.217 255.907C266.396 255.496 268.611 255.335 270.826 255.335C297.262 255.353 323.68 255.335 350.116 255.335C378.32 255.335 395.879 285.201 381.982 309.761C372.479 326.587 362.691 343.253 353.028 359.989C352.742 360.472 352.51 361.008 352.259 361.508C329.557 361.526 306.854 361.543 284.169 361.561C279.025 361.579 273.898 361.543 268.754 361.526Z" fill="#FF985F"/>
<path d="M268.752 361.526C273.897 361.544 279.023 361.598 284.167 361.598C306.87 361.58 329.573 361.562 352.258 361.544C353.616 361.562 354.973 361.598 356.331 361.598C362.582 361.634 367.334 366.188 367.387 372.244C367.459 378.138 362.761 382.854 356.652 383.032C356.224 383.05 355.795 383.068 355.366 383.104C339.79 383.086 324.214 383.05 308.639 383.032C305.138 383.032 301.637 383.122 298.136 382.997C296.51 382.943 296.082 383.443 296.099 385.051C296.171 392.91 296.135 400.77 296.135 408.629C296.135 428.206 296.153 447.783 296.117 467.36C296.099 475.969 287.633 481.274 280.274 477.291C276.237 475.112 274.575 471.504 274.575 467.002C274.593 442.138 274.575 417.274 274.575 392.41C274.575 389.909 274.522 387.409 274.593 384.908C274.629 383.586 274.308 382.943 272.825 383.015C270.396 383.14 267.966 383.086 265.537 383.104C258.714 382.836 254.445 379.442 253.677 373.708C252.837 367.385 257.642 361.759 264.019 361.616C265.609 361.562 267.181 361.544 268.752 361.526Z" fill="#FD5B24"/>
<path d="M314.085 642.392C310.941 642.392 307.797 642.303 304.653 642.428C303.099 642.482 302.563 642.124 302.599 640.463C302.724 635.819 302.563 631.175 302.688 626.531C302.742 624.834 302.135 624.316 300.545 623.887C283.451 619.154 270.804 609.169 264.017 592.45C262.374 588.395 261.445 584.162 261.034 579.803C260.927 578.678 261.141 578.196 262.409 578.017C269.965 576.963 277.521 575.838 285.058 574.695C286.345 574.498 286.952 574.659 287.005 576.213C287.095 578.91 287.381 581.607 288.077 584.251C290.167 592.253 295.168 597.308 303.242 599.112C310.905 600.827 318.532 601.077 325.784 597.362C331.732 594.307 334.608 588.681 333.626 582.358C333.143 579.303 331.5 576.963 329.178 575.034C325.427 571.926 320.944 570.247 316.442 568.639C308.261 565.728 299.813 563.477 291.953 559.69C281.647 554.725 273.537 547.687 270.447 536.166C267.947 526.824 268.054 517.482 271.733 508.444C276.217 497.441 285.005 491.278 295.901 487.688C297.598 487.134 299.33 486.688 301.063 486.348C302.26 486.116 302.671 485.598 302.653 484.33C302.581 479.614 302.706 474.899 302.581 470.183C302.528 468.415 303.135 468.057 304.76 468.093C310.905 468.182 317.05 468.182 323.194 468.093C324.927 468.057 325.534 468.433 325.481 470.29C325.338 475.006 325.445 479.721 325.427 484.437C325.427 485.366 325.463 486.045 326.606 486.277C345.986 490.457 355.989 503.514 360.258 521.965C361.401 526.913 361.401 526.949 356.489 527.664C349.577 528.664 342.628 529.539 335.716 530.611C334.215 530.843 333.947 530.325 333.733 529.092C333.411 527.342 333.018 525.592 332.465 523.912C329.517 514.928 324.373 510.891 314.942 510.248C310.762 509.962 306.672 510.391 302.796 512.106C297.955 514.249 295.115 517.947 294.615 523.252C294.115 528.592 296.33 532.665 300.759 535.594C305.296 538.595 310.441 540.096 315.549 541.65C324.266 544.293 333.126 546.526 341.217 550.938C353.006 557.386 359.008 567.353 359.812 580.678C360.544 592.86 357.293 603.542 348.326 612.134C342.575 617.653 335.698 621.172 328.035 623.101C325.874 623.637 325.266 624.512 325.373 626.691C325.57 631.336 325.391 635.98 325.463 640.624C325.481 641.981 325.159 642.482 323.712 642.428C320.515 642.303 317.3 642.392 314.085 642.392Z" fill="#FF985F"/>
<path d="M272.01 598.896H284.513V586.216L291.568 577.732L305.677 598.896H319.609L299.069 568.802L316.84 547.458H302.73L284.513 571.213V529.687H272.01V598.896ZM348.726 560.05C350.512 560.05 352.655 560.496 354.62 561.211L355.424 546.744C354.263 546.297 352.834 546.029 351.494 546.029C346.583 546.029 340.51 548.53 336.492 558.353V547.458H323.9V598.896H336.492V573.713C336.492 562.729 342.743 560.05 348.726 560.05Z" fill="#FFF4EC"/>
<path fill-rule="evenodd" clip-rule="evenodd" d="M500 828.672C681.334 828.672 828.336 681.67 828.336 500.336C828.336 491.925 828.02 483.587 827.398 475.335H393.543C378.33 475.335 366 487.665 366 502.878L366 800.172C406.918 818.487 452.27 828.672 500 828.672Z" fill="#C8C5D6"/>
<path fill-rule="evenodd" clip-rule="evenodd" d="M825.454 544.028C827.355 529.734 828.336 515.15 828.336 500.336C828.336 491.925 828.02 483.587 827.398 475.335H394.53C378.771 475.335 366 488.106 366 503.861V544.028H825.454Z" fill="#48367D"/>
<path d="M437.376 509.952C437.376 517.83 430.995 524.215 423.117 524.215C415.24 524.215 408.85 517.83 408.85 509.952C408.85 502.075 415.24 495.689 423.117 495.689C430.995 495.689 437.376 502.075 437.376 509.952Z" fill="white"/>
<path d="M484.186 509.682C484.186 517.559 477.8 523.945 469.927 523.945C462.045 523.945 455.66 517.559 455.66 509.682C455.66 501.804 462.045 495.419 469.927 495.419C477.8 495.419 484.186 501.804 484.186 509.682Z" fill="white"/>
<path d="M531.743 509.682C531.743 517.559 525.358 523.945 517.485 523.945C509.607 523.945 503.217 517.559 503.217 509.682C503.217 501.804 509.607 495.419 517.485 495.419C525.358 495.419 531.743 501.804 531.743 509.682Z" fill="white"/>
</svg>
