<svg width="1000" height="1000" viewBox="0 0 1000 1000" fill="none" xmlns="http://www.w3.org/2000/svg">
<path d="M828.672 499.336C828.672 680.67 681.67 827.672 500.336 827.672C319.002 827.672 172 680.67 172 499.336C172 318.002 319.002 171 500.336 171C681.67 171 828.672 318.002 828.672 499.336Z" fill="#EEEDF3"/>
<path d="M653.227 650.335H285.581C274.951 650.335 266.336 641.72 266.336 631.09V342.58C266.336 331.95 274.951 323.335 285.581 323.335H653.227C663.853 323.335 672.472 331.95 672.472 342.58V631.09C672.472 641.72 663.853 650.335 653.227 650.335Z" fill="#C8C5D6"/>
<path d="M652.537 323.335H286.271C275.259 323.335 266.336 332.258 266.336 343.266V371.332H672.472V343.266C672.472 332.258 663.549 323.335 652.537 323.335Z" fill="#48367D"/>
<path d="M316.206 347.522C316.206 353.026 311.747 357.488 306.243 357.488C300.739 357.488 296.274 353.026 296.274 347.522C296.274 342.018 300.739 337.557 306.243 337.557C311.747 337.557 316.206 342.018 316.206 347.522Z" fill="white"/>
<path d="M348.913 347.334C348.913 352.838 344.452 357.3 338.951 357.3C333.443 357.3 328.982 352.838 328.982 347.334C328.982 341.83 333.443 337.368 338.951 337.368C344.452 337.368 348.913 341.83 348.913 347.334Z" fill="white"/>
<path d="M382.144 347.334C382.144 352.838 377.683 357.3 372.182 357.3C366.678 357.3 362.213 352.838 362.213 347.334C362.213 341.83 366.678 337.368 372.182 337.368C377.683 337.368 382.144 341.83 382.144 347.334Z" fill="white"/>
<path d="M509.442 553.737H438.316C420.277 553.737 405.518 538.978 405.518 520.939V449.813C405.518 431.774 420.277 417.015 438.316 417.015H509.442C527.481 417.015 542.24 431.774 542.24 449.813V520.939C542.24 538.978 527.481 553.737 509.442 553.737Z" fill="white"/>
<path d="M442.94 492.104L469.582 511.576L515.699 447.804" stroke="#48367D" stroke-width="2.71058" stroke-linecap="round" stroke-linejoin="round"/>
<path fill-rule="evenodd" clip-rule="evenodd" d="M579.926 524.335C573.525 524.335 568.336 529.524 568.336 535.925V727.397C568.336 733.798 573.525 738.987 579.926 738.987H784.379C784.564 738.987 784.748 738.983 784.93 738.974C785.197 738.983 785.466 738.987 785.735 738.987H887.336C901.143 738.987 912.336 727.794 912.336 713.987V685.944C912.336 681.774 911.293 677.671 909.302 674.007L874.62 610.185C870.245 602.134 861.816 597.122 852.654 597.122H795.969V535.925C795.969 529.524 790.78 524.335 784.379 524.335H579.926Z" fill="#FF985F"/>
<path d="M845.799 620.687L876.39 664.388C881.767 672.07 876.271 682.625 866.894 682.625H836.304C829.903 682.625 824.713 677.436 824.713 671.035V627.334C824.713 616.002 839.3 611.404 845.799 620.687Z" fill="#FFF4EC"/>
<circle cx="644.743" cy="738.898" r="37.4633" fill="#FF985F"/>
<circle cx="836.678" cy="738.898" r="37.4633" fill="#FF985F"/>
</svg>
