<svg width="1000" height="1000" viewBox="0 0 1000 1000" fill="none" xmlns="http://www.w3.org/2000/svg">
<path d="M828.672 499.336C828.672 680.67 681.67 827.672 500.336 827.672C319.002 827.672 172 680.67 172 499.336C172 318.002 319.002 171 500.336 171C681.67 171 828.672 318.002 828.672 499.336Z" fill="#EEEDF3"/>
<path d="M653.227 650.335H285.581C274.951 650.335 266.336 641.72 266.336 631.09V342.58C266.336 331.95 274.951 323.335 285.581 323.335H653.227C663.853 323.335 672.472 331.95 672.472 342.58V631.09C672.472 641.72 663.853 650.335 653.227 650.335Z" fill="#C8C5D6"/>
<path d="M652.537 323.335H286.271C275.259 323.335 266.336 332.258 266.336 343.266V371.332H672.472V343.266C672.472 332.258 663.549 323.335 652.537 323.335Z" fill="#48367D"/>
<path d="M316.206 347.522C316.206 353.026 311.747 357.488 306.243 357.488C300.739 357.488 296.274 353.026 296.274 347.522C296.274 342.018 300.739 337.557 306.243 337.557C311.747 337.557 316.206 342.018 316.206 347.522Z" fill="white"/>
<path d="M348.913 347.334C348.913 352.838 344.451 357.3 338.95 357.3C333.443 357.3 328.981 352.838 328.981 347.334C328.981 341.83 333.443 337.368 338.95 337.368C344.451 337.368 348.913 341.83 348.913 347.334Z" fill="white"/>
<path d="M382.144 347.334C382.144 352.838 377.683 357.3 372.182 357.3C366.678 357.3 362.213 352.838 362.213 347.334C362.213 341.83 366.678 337.368 372.182 337.368C377.683 337.368 382.144 341.83 382.144 347.334Z" fill="white"/>
<path d="M509.441 553.737H438.316C420.277 553.737 405.518 538.978 405.518 520.939V449.813C405.518 431.774 420.277 417.015 438.316 417.015H509.441C527.48 417.015 542.239 431.774 542.239 449.813V520.939C542.239 538.978 527.48 553.737 509.441 553.737Z" fill="white"/>
<path fill-rule="evenodd" clip-rule="evenodd" d="M518.581 443.817C520.783 445.409 521.277 448.485 519.685 450.686L473.568 514.459C472.801 515.519 471.643 516.231 470.349 516.435C469.056 516.64 467.735 516.32 466.678 515.548L440.037 496.075C437.843 494.472 437.364 491.394 438.968 489.201C440.571 487.007 443.649 486.528 445.843 488.132L468.492 504.686L511.712 444.92C513.304 442.719 516.38 442.225 518.581 443.817Z" fill="#48367D"/>
<path fill-rule="evenodd" clip-rule="evenodd" d="M579.926 524.335C573.525 524.335 568.336 529.524 568.336 535.925V727.397C568.336 733.798 573.525 738.987 579.926 738.987H784.379C784.564 738.987 784.748 738.983 784.93 738.974C785.197 738.983 785.466 738.987 785.735 738.987H887.336C901.143 738.987 912.336 727.794 912.336 713.987V685.944C912.336 681.774 911.293 677.671 909.302 674.007L874.62 610.185C870.245 602.134 861.816 597.122 852.654 597.122H795.969V535.925C795.969 529.524 790.78 524.335 784.379 524.335H579.926Z" fill="#FF985F"/>
<path d="M845.798 620.687L876.389 664.388C881.766 672.07 876.271 682.625 866.894 682.625H836.303C829.902 682.625 824.713 677.436 824.713 671.035V627.334C824.713 616.002 839.3 611.404 845.798 620.687Z" fill="#FFF4EC"/>
<path d="M682.206 738.898C682.206 759.588 665.433 776.361 644.743 776.361C624.052 776.361 607.279 759.588 607.279 738.898C607.279 718.207 624.052 701.435 644.743 701.435C665.433 701.435 682.206 718.207 682.206 738.898Z" fill="#FF985F"/>
<path d="M874.142 738.898C874.142 759.588 857.369 776.361 836.678 776.361C815.988 776.361 799.215 759.588 799.215 738.898C799.215 718.207 815.988 701.435 836.678 701.435C857.369 701.435 874.142 718.207 874.142 738.898Z" fill="#FF985F"/>
</svg>
