<svg width="141" height="153" viewBox="0 0 141 153" fill="none" xmlns="http://www.w3.org/2000/svg">
<path d="M141 70.5C141 109.436 109.436 141 70.5 141C31.5641 141 0 109.436 0 70.5C0 31.5641 31.5641 0 70.5 0C109.436 0 141 31.5641 141 70.5Z" fill="#EEEDF3"/>
<path d="M103.329 102.921H24.3882C22.1057 102.921 20.2559 101.071 20.2559 98.7883V36.8397C20.2559 34.5573 22.1057 32.7074 24.3882 32.7074H103.329C105.61 32.7074 107.461 34.5573 107.461 36.8397V98.7883C107.461 101.071 105.61 102.921 103.329 102.921Z" fill="#C8C5D6"/>
<path d="M103.181 32.7074H24.5362C22.1719 32.7074 20.2559 34.6234 20.2559 36.9871V43.0133H107.461V36.9871C107.461 34.6234 105.545 32.7074 103.181 32.7074Z" fill="#48367D"/>
<path d="M30.9638 37.8991C30.9638 39.081 30.0064 40.039 28.8246 40.039C27.6428 40.039 26.6841 39.081 26.6841 37.8991C26.6841 36.7173 27.6428 35.7593 28.8246 35.7593C30.0064 35.7593 30.9638 36.7173 30.9638 37.8991Z" fill="white"/>
<path d="M37.9867 37.8571C37.9867 39.039 37.0287 39.997 35.8476 39.997C34.665 39.997 33.707 39.039 33.707 37.8571C33.707 36.6753 34.665 35.7173 35.8476 35.7173C37.0287 35.7173 37.9867 36.6753 37.9867 37.8571Z" fill="white"/>
<path d="M45.122 37.8571C45.122 39.039 44.164 39.997 42.9828 39.997C41.801 39.997 40.8423 39.039 40.8423 37.8571C40.8423 36.6753 41.801 35.7173 42.9828 35.7173C44.164 35.7173 45.122 36.6753 45.122 37.8571Z" fill="white"/>
<path d="M72.4555 82.1778H57.1835C53.3102 82.1778 50.1411 79.0087 50.1411 75.1354V59.8634C50.1411 55.9901 53.3102 52.821 57.1835 52.821H72.4555C76.3288 52.821 79.4979 55.9901 79.4979 59.8634V75.1354C79.4979 79.0087 76.3288 82.1778 72.4555 82.1778Z" fill="white"/>
<path d="M58.1763 68.943L63.8968 73.1241L73.799 59.4309" stroke="#48367D" stroke-width="0.582013" stroke-linecap="round" stroke-linejoin="round"/>
<path fill-rule="evenodd" clip-rule="evenodd" d="M114.379 95.207C113.649 95.207 113.074 94.5891 113.093 93.8595C113.1 93.5772 113.104 93.2929 113.104 93.0068C113.104 87.3912 111.667 82.4855 109.544 79.1034C107.388 75.6703 104.888 74.2783 102.746 74.2783C100.604 74.2783 98.1037 75.6703 95.9481 79.1034C93.8244 82.4855 92.3877 87.3912 92.3877 93.0068C92.3877 93.2929 92.3914 93.5772 92.3988 93.8595C92.4178 94.5891 91.8428 95.207 91.1131 95.207H89.8736C89.2073 95.207 88.6538 94.6884 88.6352 94.0224C88.6258 93.6858 88.6211 93.3472 88.6211 93.0068C88.6211 80.5831 94.945 70.5117 102.746 70.5117C110.547 70.5117 116.871 80.5831 116.871 93.0068C116.871 93.3472 116.866 93.6858 116.857 94.0224C116.838 94.6884 116.285 95.207 115.618 95.207H114.379Z" fill="#FF5A23"/>
<path d="M69.6704 143.469L76.0754 99.4491C76.6416 95.5579 79.9779 92.6719 83.9102 92.6719H122.395C126.358 92.6719 129.711 95.6027 130.241 99.5305L136.18 143.55C136.821 148.301 133.127 152.526 128.334 152.526H77.5051C72.6788 152.526 68.9755 148.245 69.6704 143.469Z" fill="#FF985F"/>
</svg>
