<svg width="1000" height="1000" viewBox="0 0 1000 1000" fill="none" xmlns="http://www.w3.org/2000/svg">
<path d="M827.672 499.336C827.672 680.67 680.67 827.672 499.336 827.672C318.002 827.672 171 680.67 171 499.336C171 318.002 318.002 171 499.336 171C680.67 171 827.672 318.002 827.672 499.336Z" fill="#EEEDF3"/>
<path fill-rule="evenodd" clip-rule="evenodd" d="M537.054 825.529C536.991 705.971 537.049 574.123 537.562 544.157C539.611 424.325 657.767 449.856 657.767 449.856L801.078 544.157L801.029 629.109C755.467 734.888 655.9 811.936 537.054 825.529Z" fill="#FFD3BB"/>
<path d="M758.444 578.704L550.576 619.419C530.568 623.338 511.165 610.291 507.246 590.283L425.168 171.239C421.249 151.227 434.296 131.828 454.304 127.909L662.172 87.1939C682.184 83.2743 701.582 96.3185 705.502 116.33L787.58 535.374C791.499 555.382 778.455 574.784 758.444 578.704Z" fill="#FF5A23"/>
<path d="M782.694 507.805L502.36 562.714L431.496 200.921L711.83 146.013L782.694 507.805Z" fill="#FF985F"/>
<path d="M502.707 439.553L428.341 445.335C408.366 446.891 390.918 431.959 389.362 411.985C387.807 392.01 402.746 374.56 422.714 373.01L497.083 367.223C517.053 365.664 534.502 380.6 536.057 400.571C537.613 420.549 522.682 437.997 502.707 439.553Z" fill="#FFD3BB"/>
<path d="M508.902 507.513L434.536 513.296C414.562 514.852 397.113 499.92 395.558 479.945C394.001 459.967 408.934 442.523 428.908 440.967L503.275 435.184C523.248 433.625 540.698 448.561 542.252 468.531C543.808 488.506 528.877 505.958 508.902 507.513Z" fill="#FFD3BB"/>
<path d="M521.399 574.113L447.03 579.9C427.062 581.451 409.603 566.521 408.052 546.55C406.5 526.574 421.431 509.126 441.402 507.571L515.772 501.788C535.742 500.23 553.195 515.164 554.75 535.135C556.305 555.109 541.371 572.562 521.399 574.113Z" fill="#FFD3BB"/>
<path d="M657.294 395.476L580.041 410.604C560.448 414.441 541.278 401.55 537.441 381.957L522.313 304.704C518.476 285.111 531.367 265.941 550.96 262.104L628.213 246.976C647.806 243.139 666.976 256.03 670.813 275.623L685.941 352.876C689.778 372.469 676.887 391.639 657.294 395.476Z" fill="white"/>
<path d="M571.954 342.677L605.033 358.16L641.559 279.085" stroke="#48367D" stroke-width="3" stroke-linecap="round" stroke-linejoin="round"/>
<path fill-rule="evenodd" clip-rule="evenodd" d="M784.28 662.577C779.547 664.426 774.415 666.205 768.88 667.842C729.282 679.554 670.163 628.243 670.163 628.243C670.163 628.243 671.836 607.05 674.625 584.183C677.413 561.316 691.914 540.681 699.165 533.988C670.163 527.853 649.527 517.814 634.468 497.736C618.844 476.904 607.698 458.695 604.909 426.347C602.12 393.999 613.833 382.287 627.776 375.594C641.719 368.901 653.989 372.248 667.374 378.94C677.79 384.148 683.946 404.084 685.221 418.539C686.895 437.501 691.173 442.136 699.722 450.329C706.303 456.636 720.358 456.464 729.839 455.349C739.321 454.233 747.924 454.736 764.418 458.695C778.361 462.041 792.305 471.523 804.017 487.139C816.769 504.143 821.026 524.771 823.815 549.819C817.564 590.323 803.911 628.385 784.28 662.577Z" fill="#FFD3BB"/>
</svg>
