<svg width="170" height="170" viewBox="0 0 170 170" fill="none" xmlns="http://www.w3.org/2000/svg">
<path d="M140.704 84.885C140.704 115.712 115.714 140.702 84.8871 140.702C54.0603 140.702 29.07 115.712 29.07 84.885C29.07 54.0582 54.0603 29.0679 84.8871 29.0679C115.714 29.0679 140.704 54.0582 140.704 84.885Z" fill="#EEEDF3"/>
<path fill-rule="evenodd" clip-rule="evenodd" d="M91.2991 140.345C91.2885 120.02 91.2984 97.6057 91.3856 92.5114C91.7339 72.14 111.82 76.4803 111.82 76.4803L136.183 92.5114L136.175 106.954C128.429 124.936 111.503 138.034 91.2991 140.345Z" fill="#FFD3BB"/>
<path d="M128.935 98.3771L93.5979 105.299C90.1966 105.965 86.8981 103.747 86.2319 100.346L72.2786 29.1081C71.6123 25.7061 73.8304 22.4082 77.2317 21.742L112.569 14.8205C115.971 14.1541 119.269 16.3716 119.935 19.7736L133.889 91.0111C134.555 94.4124 132.337 97.7108 128.935 98.3771Z" fill="#FF5A23"/>
<path d="M133.058 86.3248L85.4012 95.6593L73.3543 34.1545L121.011 24.82L133.058 86.3248Z" fill="#FF985F"/>
<path d="M85.4579 74.7237L72.8156 75.7068C69.4199 75.9712 66.4537 73.4328 66.1892 70.0372C65.9248 66.6415 68.4644 63.675 71.859 63.4114L84.5018 62.4276C87.8967 62.1627 90.863 64.7017 91.1273 68.0968C91.3919 71.493 88.8535 74.4593 85.4579 74.7237Z" fill="#FFD3BB"/>
<path d="M86.5111 86.2769L73.8688 87.26C70.4731 87.5244 67.5069 84.986 67.2424 81.5904C66.9779 78.1941 69.5164 75.2285 72.912 74.964L85.5543 73.981C88.9499 73.7159 91.9162 76.2549 92.1805 79.65C92.445 83.0456 89.9067 86.0125 86.5111 86.2769Z" fill="#FFD3BB"/>
<path d="M88.6355 97.5999L75.9927 98.5837C72.5982 98.8472 69.6301 96.3092 69.3664 92.9141C69.1026 89.5183 71.641 86.552 75.036 86.2877L87.6789 85.3045C91.0738 85.0396 94.0408 87.5785 94.3051 90.9735C94.5696 94.3692 92.0307 97.3362 88.6355 97.5999Z" fill="#FFD3BB"/>
<path d="M115.355 73.4961L100.184 76.467C97.7433 76.9449 95.3773 75.3539 94.8995 72.9137L92.1661 58.9557C91.6882 56.5156 93.2794 54.1501 95.7201 53.6722L110.891 50.7013C113.331 50.2235 115.697 51.814 116.175 54.2541L118.908 68.2121C119.386 70.6523 117.795 73.0183 115.355 73.4961Z" fill="#FFF4EB"/>
<path d="M110.074 56.3506L107.831 44.896C107.096 41.142 103.457 38.6948 99.7024 39.43C95.949 40.1651 93.5018 43.8042 94.2369 47.5582L94.3159 48.0929" stroke="#FFF4EB" stroke-width="1.02" stroke-miterlimit="10" stroke-linecap="round"/>
<path fill-rule="evenodd" clip-rule="evenodd" d="M133.328 112.637C132.523 112.951 131.651 113.254 130.71 113.532C123.978 115.523 113.928 106.8 113.928 106.8C113.928 106.8 114.212 103.197 114.686 99.3098C115.16 95.4225 117.625 91.9144 118.858 90.7766C113.928 89.7337 110.42 88.0271 107.86 84.6138C105.204 81.0723 103.309 77.9768 102.835 72.4777C102.36 66.9785 104.352 64.9874 106.722 63.8497C109.092 62.7119 111.178 63.2808 113.454 64.4185C115.224 65.3039 116.271 68.6929 116.488 71.1503C116.772 74.3739 117.499 75.1618 118.953 76.5546C120.072 77.6268 122.461 77.5976 124.073 77.408C125.685 77.2183 127.147 77.3039 129.951 77.9768C132.321 78.5457 134.692 80.1576 136.683 82.8123C138.851 85.703 139.574 89.2097 140.049 93.4678C138.986 100.354 136.665 106.824 133.328 112.637Z" fill="#FFD3BB"/>
</svg>
