<svg width="170" height="170" viewBox="0 0 170 170" fill="none" xmlns="http://www.w3.org/2000/svg">
<path d="M140.704 84.8882C140.704 115.715 115.714 140.705 84.8871 140.705C54.0603 140.705 29.07 115.715 29.07 84.8882C29.07 54.0614 54.0603 29.071 84.8871 29.071C115.714 29.071 140.704 54.0614 140.704 84.8882Z" fill="#EEEDF3"/>
<path fill-rule="evenodd" clip-rule="evenodd" d="M91.2991 140.339C91.2885 120.014 91.2984 97.6005 91.3856 92.5063C91.7339 72.1348 111.82 76.4751 111.82 76.4751L136.183 92.5063L136.175 106.948C128.429 124.93 111.503 138.028 91.2991 140.339Z" fill="#FFD3BB"/>
<path d="M128.935 98.3796L93.5979 105.301C90.1965 105.967 86.898 103.749 86.2318 100.348L72.2785 29.1105C71.6122 25.7086 73.8303 22.4107 77.2317 21.7445L112.569 14.8229C115.971 14.1566 119.269 16.3741 119.935 19.776L133.889 91.0135C134.555 94.4148 132.337 97.7132 128.935 98.3796Z" fill="#FF5A23"/>
<path d="M133.058 86.3245L85.4012 95.659L73.3543 34.1543L121.011 24.8198L133.058 86.3245Z" fill="#FF985F"/>
<path d="M91.9192 72.002L87.1198 47.4678C87.0853 47.2919 87.1105 47.1117 87.1907 46.9668L91.2682 39.5526C91.3473 39.4079 91.4746 39.3105 91.6222 39.2816L109.192 35.8409C110.069 35.6691 110.946 36.3809 111.151 37.4291L116.961 67.098C117.167 68.1469 116.623 69.1368 115.746 69.3085L93.8786 73.5908C93.0019 73.7625 92.1241 73.051 91.9192 72.002Z" fill="#EEEDF3"/>
<path d="M87.3019 45.728L90.3695 40.1505C90.6034 39.7252 90.9711 39.4374 91.3951 39.3274L92.471 44.8212C92.6079 45.5203 92.2451 46.1798 91.6608 46.2943L87.0687 47.1936C86.9899 46.6759 87.0679 46.1533 87.3019 45.728Z" fill="#C8C5D6"/>
<path fill-rule="evenodd" clip-rule="evenodd" d="M108.74 47.4412C109.204 47.6556 109.406 48.2056 109.192 48.6697L102.983 62.1125C102.879 62.3361 102.691 62.5093 102.46 62.5938C102.229 62.6783 101.973 62.6671 101.75 62.5627L96.1266 59.9306C95.6636 59.7139 95.464 59.1629 95.6807 58.6998C95.8974 58.2368 96.4484 58.0372 96.9115 58.2539L101.692 60.4916L107.511 47.8934C107.726 47.4293 108.276 47.2268 108.74 47.4412Z" fill="#48367D"/>
<path d="M85.4543 74.7301L72.812 75.7131C69.4163 75.9776 66.4501 73.4392 66.1856 70.0435C65.9212 66.6478 68.4608 63.6813 71.8554 63.4178L84.4981 62.434C87.8931 62.1691 90.8594 64.7081 91.1237 68.1031C91.3883 71.4994 88.8499 74.4656 85.4543 74.7301Z" fill="#FFD3BB"/>
<path d="M86.5074 86.2838L73.8651 87.2668C70.4695 87.5313 67.5032 84.9929 67.2388 81.5972C66.9742 78.2009 69.5128 75.2353 72.9084 74.9709L85.5507 73.9878C88.9462 73.7228 91.9126 76.2618 92.1769 79.6568C92.4413 83.0525 89.9031 86.0193 86.5074 86.2838Z" fill="#FFD3BB"/>
<path d="M88.6319 97.607L75.9891 98.5908C72.5945 98.8543 69.6265 96.3163 69.3628 92.9211C69.0989 89.5253 71.6373 86.5591 75.0324 86.2948L87.6753 85.3116C91.0702 85.0467 94.0372 87.5856 94.3015 90.9806C94.5659 94.3763 92.027 97.3433 88.6319 97.607Z" fill="#FFD3BB"/>
<path fill-rule="evenodd" clip-rule="evenodd" d="M133.327 112.638C132.523 112.952 131.65 113.255 130.71 113.533C123.978 115.524 113.928 106.801 113.928 106.801C113.928 106.801 114.212 103.198 114.686 99.3111C115.16 95.4237 117.625 91.9156 118.858 90.7779C113.928 89.7349 110.42 88.0283 107.86 84.615C105.203 81.0735 103.309 77.9781 102.834 72.4789C102.36 66.9797 104.351 64.9886 106.722 63.8509C109.092 62.7131 111.178 63.282 113.454 64.4198C115.224 65.3051 116.271 68.6941 116.488 71.1515C116.772 74.3752 117.499 75.1631 118.953 76.5559C120.072 77.628 122.461 77.5988 124.073 77.4092C125.684 77.2196 127.147 77.3051 129.951 77.9781C132.321 78.5469 134.692 80.1588 136.683 82.8135C138.851 85.7041 139.574 89.2107 140.048 93.4687C138.986 100.355 136.665 106.825 133.327 112.638Z" fill="#FFD3BB"/>
</svg>
