<svg width="145" height="165" viewBox="0 0 145 165" fill="none" xmlns="http://www.w3.org/2000/svg">
<path d="M144.915 92.5393C144.915 132.556 112.474 164.997 72.4573 164.997C32.4404 164.997 0 132.556 0 92.5393C0 52.5225 32.4404 20.082 72.4573 20.082C112.474 20.082 144.915 52.5225 144.915 92.5393Z" fill="#EEEDF3"/>
<path fill-rule="evenodd" clip-rule="evenodd" d="M80.7808 164.52C80.7671 138.136 80.7799 109.04 80.8931 102.427C81.3453 75.9821 107.42 81.6163 107.42 81.6163L139.046 102.427L139.035 121.174C128.98 144.517 107.008 161.52 80.7808 164.52Z" fill="#FFD3BB"/>
<path d="M129.637 110.056L83.7651 119.041C79.3498 119.906 75.0679 117.027 74.2031 112.611L56.0901 20.1365C55.2251 15.7204 58.1045 11.4393 62.5198 10.5745L108.392 1.58947C112.808 0.724488 117.089 3.60308 117.954 8.0192L136.067 100.494C136.932 104.909 134.054 109.191 129.637 110.056Z" fill="#FF5A23"/>
<path d="M134.989 94.4116L73.1246 106.529L57.4863 26.6884L119.35 14.5711L134.989 94.4116Z" fill="#FF985F"/>
<path d="M73.205 79.341L56.7938 80.6171C52.3858 80.9604 48.5353 77.6652 48.192 73.2573C47.8487 68.8493 51.1454 64.9984 55.552 64.6563L71.9638 63.3792C76.3708 63.0353 80.2215 66.3312 80.5646 70.7384C80.9081 75.1472 77.6129 78.9977 73.205 79.341Z" fill="#FFD3BB"/>
<path d="M74.5718 94.335L58.1606 95.6111C53.7526 95.9544 49.9021 92.6593 49.5588 88.2513C49.2154 83.8425 52.5107 79.9928 56.9186 79.6495L73.3298 78.3734C77.7376 78.0293 81.5883 81.3253 81.9314 85.7324C82.2747 90.1404 78.9798 93.9917 74.5718 94.335Z" fill="#FFD3BB"/>
<path d="M77.3299 109.033L60.918 110.31C56.5115 110.652 52.6586 107.358 52.3163 102.95C51.9738 98.5421 55.2689 94.6916 59.6761 94.3484L76.0881 93.0722C80.4951 92.7283 84.3466 96.024 84.6897 100.431C85.033 104.839 81.7372 108.691 77.3299 109.033Z" fill="#FFD3BB"/>
<path d="M107.315 69.6234L90.2672 72.9619C85.9434 73.8086 81.713 70.9638 80.8663 66.64L77.5278 49.5918C76.6811 45.2681 79.5259 41.0377 83.8497 40.191L100.898 36.8524C105.222 36.0057 109.452 38.8506 110.299 43.1743L113.637 60.2225C114.484 64.5463 111.639 68.7766 107.315 69.6234Z" fill="white"/>
<path d="M88.4827 57.9722L95.7825 61.3889L103.843 43.9386" stroke="#48367D" stroke-width="0.662041" stroke-linecap="round" stroke-linejoin="round"/>
<path fill-rule="evenodd" clip-rule="evenodd" d="M135.34 128.558C134.295 128.966 133.162 129.359 131.941 129.72C123.202 132.305 110.156 120.982 110.156 120.982C110.156 120.982 110.525 116.305 111.14 111.258C111.756 106.212 114.956 101.658 116.556 100.181C110.156 98.8275 105.602 96.6121 102.279 92.1812C98.8306 87.584 96.3708 83.5657 95.7554 76.4271C95.14 69.2885 97.7247 66.7039 100.802 65.2269C103.879 63.75 106.586 64.4885 109.54 65.9654C111.839 67.1147 113.197 71.5141 113.479 74.704C113.848 78.8887 114.792 79.9115 116.679 81.7195C118.131 83.1113 121.233 83.0734 123.325 82.8272C125.417 82.5811 127.316 82.6921 130.956 83.5657C134.033 84.3042 137.11 86.3965 139.695 89.8427C142.509 93.5953 143.448 98.1477 144.064 103.676C142.684 112.614 139.672 121.013 135.34 128.558Z" fill="#FFD3BB"/>
</svg>
