<svg width="1000" height="1000" viewBox="0 0 1000 1000" fill="none" xmlns="http://www.w3.org/2000/svg">
<path d="M827.672 499.336C827.672 680.67 680.67 827.672 499.336 827.672C318.002 827.672 171 680.67 171 499.336C171 318.002 318.002 171 499.336 171C680.67 171 827.672 318.002 827.672 499.336Z" fill="#EEEDF3"/>
<path fill-rule="evenodd" clip-rule="evenodd" d="M537.053 825.529C536.991 705.971 537.049 574.123 537.562 544.157C539.611 424.325 657.767 449.856 657.767 449.856L801.078 544.157L801.029 629.109C755.467 734.888 655.9 811.936 537.053 825.529Z" fill="#FFD3BB"/>
<path d="M758.444 578.704L550.576 619.419C530.568 623.338 511.165 610.291 507.246 590.283L425.168 171.239C421.249 151.227 434.296 131.828 454.304 127.909L662.172 87.1939C682.184 83.2743 701.582 96.3185 705.502 116.33L787.58 535.374C791.499 555.382 778.455 574.784 758.444 578.704Z" fill="#FF5A23"/>
<path d="M782.694 507.805L502.36 562.714L431.496 200.921L711.83 146.013L782.694 507.805Z" fill="#FF985F"/>
<path d="M502.704 439.556L428.337 445.339C408.363 446.894 390.915 431.962 389.359 411.988C387.803 392.014 402.742 374.564 422.71 373.013L497.08 367.226C517.05 365.668 534.499 380.603 536.054 400.574C537.61 420.552 522.678 438.001 502.704 439.556Z" fill="#FFD3BB"/>
<path d="M508.899 507.517L434.532 513.3C414.558 514.855 397.109 499.923 395.554 479.949C393.998 459.971 408.93 442.526 428.905 440.97L503.271 435.188C523.245 433.629 540.694 448.564 542.249 468.535C543.804 488.509 528.873 505.961 508.899 507.517Z" fill="#FFD3BB"/>
<path d="M521.395 574.117L447.026 579.904C427.058 581.454 409.599 566.525 408.048 546.553C406.496 526.578 421.427 509.129 441.398 507.575L515.768 501.791C535.738 500.233 553.191 515.167 554.746 535.138C556.302 555.113 541.367 572.566 521.395 574.117Z" fill="#FFD3BB"/>
<path d="M657.294 395.476L580.041 410.604C560.448 414.441 541.278 401.55 537.441 381.957L522.313 304.704C518.476 285.111 531.367 265.941 550.96 262.104L628.213 246.976C647.806 243.139 666.976 256.03 670.813 275.623L685.941 352.876C689.778 372.469 676.887 391.639 657.294 395.476Z" fill="white"/>
<path fill-rule="evenodd" clip-rule="evenodd" d="M643.842 274.142C646.572 275.403 647.763 278.638 646.502 281.368L609.976 360.443C609.369 361.759 608.262 362.778 606.901 363.275C605.54 363.772 604.037 363.706 602.725 363.091L569.646 347.609C566.923 346.334 565.748 343.092 567.023 340.369C568.298 337.645 571.539 336.471 574.263 337.746L602.385 350.908L636.616 276.801C637.877 274.071 641.112 272.881 643.842 274.142Z" fill="#48367D"/>
<path fill-rule="evenodd" clip-rule="evenodd" d="M784.28 662.577C779.547 664.426 774.415 666.205 768.88 667.842C729.282 679.554 670.163 628.243 670.163 628.243C670.163 628.243 671.836 607.05 674.625 584.183C677.413 561.316 691.914 540.681 699.165 533.988C670.163 527.853 649.527 517.814 634.468 497.736C618.844 476.904 607.698 458.695 604.909 426.347C602.12 393.999 613.833 382.287 627.776 375.594C641.719 368.901 653.989 372.248 667.374 378.94C677.79 384.148 683.946 404.084 685.221 418.539C686.895 437.501 691.173 442.136 699.722 450.329C706.303 456.636 720.358 456.464 729.839 455.349C739.321 454.233 747.924 454.736 764.418 458.695C778.361 462.041 792.305 471.523 804.017 487.139C816.769 504.143 821.026 524.771 823.815 549.819C817.564 590.323 803.911 628.385 784.28 662.577Z" fill="#FFD3BB"/>
</svg>
