<svg width="224" height="618" viewBox="0 0 224 618" fill="none" xmlns="http://www.w3.org/2000/svg">
<path fill-rule="evenodd" clip-rule="evenodd" d="M41.0714 558L39 558L39 556.5L41.0714 556.5L41.0714 558ZM49.3571 558L45.2143 558L45.2143 556.5L49.3571 556.5L49.3571 558ZM57.6429 558L53.5 558L53.5 556.5L57.6429 556.5L57.6429 558ZM65.9286 558L61.7857 558L61.7857 556.5L65.9286 556.5L65.9286 558ZM74.2143 558L70.0714 558L70.0714 556.5L74.2143 556.5L74.2143 558ZM82.5 558L78.3571 558L78.3571 556.5L82.5 556.5L82.5 558ZM90.7857 558L86.6429 558L86.6429 556.5L90.7857 556.5L90.7857 558ZM97 558L94.9286 558L94.9286 556.5L97 556.5L97 558Z" fill="#49367E"/>
<path fill-rule="evenodd" clip-rule="evenodd" d="M39 494.062L39 492L40.5 492L40.5 494.062L39 494.062ZM39 502.312L39 498.187L40.5 498.188L40.5 502.312L39 502.312ZM39 510.562L39 506.437L40.5 506.438L40.5 510.562L39 510.562ZM39 518.812L39 514.687L40.5 514.688L40.5 518.812L39 518.812ZM39 527.062L39 522.937L40.5 522.938L40.5 527.062L39 527.062ZM39 535.312L39 531.187L40.5 531.188L40.5 535.312L39 535.312ZM39 543.562L39 539.437L40.5 539.438L40.5 543.562L39 543.562ZM39 551.812L39 547.687L40.5 547.688L40.5 551.812L39 551.812ZM39 558L39 555.937L40.5 555.938L40.5 558L39 558Z" fill="#49367E"/>
<path fill-rule="evenodd" clip-rule="evenodd" d="M41.0357 269L39 269L39 267.5L41.0357 267.5L41.0357 269ZM49.1786 269L45.1071 269L45.1071 267.5L49.1786 267.5L49.1786 269ZM57.3214 269L53.25 269L53.25 267.5L57.3214 267.5L57.3214 269ZM65.4643 269L61.3929 269L61.3929 267.5L65.4643 267.5L65.4643 269ZM73.6071 269L69.5357 269L69.5357 267.5L73.6071 267.5L73.6071 269ZM81.75 269L77.6786 269L77.6786 267.5L81.75 267.5L81.75 269ZM89.8929 269L85.8214 269L85.8214 267.5L89.8929 267.5L89.8929 269ZM96 269L93.9643 269L93.9643 267.5L96 267.5L96 269Z" fill="#49367E"/>
<path fill-rule="evenodd" clip-rule="evenodd" d="M39 492L39 40L40.5 40L40.5 492L39 492Z" fill="#FF5B24"/>
<path d="M65.804 192.028C65.804 206.534 54.0441 218.294 39.5371 218.294C25.0304 218.294 13.2703 206.534 13.2703 192.028C13.2703 177.521 25.0304 165.761 39.5371 165.761C54.0441 165.761 65.804 177.521 65.804 192.028Z" fill="#EEEDF3"/>
<path d="M41.696 198.665H9.14394C8.20277 198.665 7.43994 197.902 7.43994 196.961V171.415C7.43994 170.474 8.20277 169.711 9.14394 169.711H41.696C42.6369 169.711 43.4 170.474 43.4 171.415V196.961C43.4 197.902 42.6369 198.665 41.696 198.665Z" fill="#C8C5D6"/>
<path d="M41.635 169.711H9.205C8.23003 169.711 7.43994 170.502 7.43994 171.476V173.961H43.4V171.476C43.4 170.502 42.6099 169.711 41.635 169.711Z" fill="#48367D"/>
<path d="M11.8556 171.853C11.8556 172.34 11.4608 172.735 10.9735 172.735C10.4861 172.735 10.0908 172.34 10.0908 171.853C10.0908 171.366 10.4861 170.971 10.9735 170.971C11.4608 170.971 11.8556 171.366 11.8556 171.853Z" fill="white"/>
<path d="M14.7513 171.836C14.7513 172.324 14.3563 172.719 13.8692 172.719C13.3816 172.719 12.9866 172.324 12.9866 171.836C12.9866 171.349 13.3816 170.954 13.8692 170.954C14.3563 170.954 14.7513 171.349 14.7513 171.836Z" fill="white"/>
<path d="M17.6937 171.836C17.6937 172.324 17.2987 172.719 16.8116 172.719C16.3243 172.719 15.929 172.324 15.929 171.836C15.929 171.349 16.3243 170.954 16.8116 170.954C17.2987 170.954 17.6937 171.349 17.6937 171.836Z" fill="white"/>
<g filter="url(#filter0_d)">
<path d="M13.697 183.307C13.697 182.998 13.9477 182.747 14.257 182.747H36.657C36.9663 182.747 37.217 182.998 37.217 183.307V189.787C37.217 190.096 36.9663 190.347 36.657 190.347H14.257C13.9477 190.347 13.697 190.096 13.697 189.787V183.307Z" fill="#FF5B24"/>
</g>
<path d="M21.0347 185.267V187.667H21.8827C22.3883 187.667 22.7051 187.357 22.7051 186.963C22.7051 186.742 22.5899 186.509 22.2891 186.403C22.5003 186.288 22.6027 186.08 22.6027 185.913C22.6027 185.52 22.3307 185.267 21.8379 185.267H21.0347ZM21.4987 186.633H21.8667C22.1003 186.633 22.2539 186.768 22.2539 186.944C22.2539 187.158 22.0907 187.245 21.8699 187.245H21.4987V186.633ZM21.4987 185.689H21.8315C22.0459 185.689 22.1643 185.798 22.1643 185.984C22.1643 186.163 22.0267 186.275 21.8315 186.275H21.4987V185.689Z" fill="white"/>
<path d="M23.828 186.15C24.0424 186.15 24.2184 186.253 24.2568 186.518H23.396C23.4504 186.262 23.6072 186.15 23.828 186.15ZM24.6888 186.841V186.701C24.6888 186.157 24.3368 185.773 23.844 185.773C23.3192 185.773 22.9224 186.147 22.9224 186.739C22.9224 187.347 23.3448 187.715 23.8888 187.715C24.228 187.715 24.6376 187.52 24.708 187.094L24.2984 187.03C24.2632 187.206 24.1512 187.318 23.8728 187.318C23.5784 187.318 23.412 187.129 23.3832 186.841H24.6888Z" fill="white"/>
<path d="M25.1784 185.379V185.824H24.8616V186.198H25.1784V187.206C25.1784 187.481 25.2968 187.699 25.6776 187.699C25.8376 187.699 26.0104 187.654 26.1192 187.606L26.0552 187.257C25.9688 187.277 25.892 187.289 25.8088 187.289C25.6712 187.289 25.6296 187.222 25.6296 187.091V186.198H26.084V185.824H25.6296V185.315L25.1784 185.379Z" fill="white"/>
<path d="M27.0689 187.715C27.3569 187.715 27.5521 187.581 27.6801 187.408V187.667H28.1313V185.824H27.6801V186.061C27.5297 185.856 27.3409 185.773 27.1201 185.773C26.7073 185.773 26.2977 186.083 26.2977 186.726C26.2977 187.401 26.7105 187.715 27.0689 187.715ZM27.2193 186.169C27.4625 186.169 27.6801 186.358 27.6801 186.749C27.6801 187.152 27.4625 187.315 27.2161 187.315C26.9889 187.315 26.7521 187.142 26.7521 186.749C26.7521 186.349 26.9921 186.169 27.2193 186.169Z" fill="white"/>
<path d="M28.5658 185.187V187.667H29.0138V185.187H28.5658Z" fill="white"/>
<path d="M57.5036 210.881L57.6198 210.197L58.969 199.605L52.5824 194.827L43.5916 197.381L44.4264 211.248C48.6559 212.264 52.8487 212.114 57.5036 210.881Z" fill="#FFD3BA"/>
<path d="M45.8064 202.867C45.0791 202.269 44.76 201.262 45.0819 200.318C46.1166 197.288 46.2555 195.553 46.3093 194.035C46.355 192.752 47.4325 191.748 48.7162 191.794C49.9996 191.839 51.0035 192.916 50.9581 194.2C50.8798 196.413 50.5992 198.556 49.4842 201.821C49.0692 203.037 47.7473 203.686 46.5317 203.271C46.26 203.178 46.0162 203.039 45.8064 202.867Z" fill="#FFD3BA"/>
<path d="M50.318 202.22C49.5694 201.605 49.2582 200.56 49.6187 199.603C50.2406 197.953 50.5162 196.431 50.4377 195.076C50.3639 193.794 51.3435 192.694 52.6257 192.62C53.908 192.546 55.0077 193.525 55.0818 194.808C55.1978 196.816 54.8242 198.981 53.9712 201.244C53.5183 202.446 52.1767 203.053 50.9747 202.6C50.73 202.507 50.5096 202.378 50.318 202.22Z" fill="#FFD3BA"/>
<path d="M55.1665 203.303C54.3338 202.808 53.8684 201.821 54.0808 200.821C54.4472 199.097 54.4906 197.55 54.2093 196.222C53.9432 194.966 54.7459 193.731 56.0026 193.465C57.259 193.199 58.4937 194.001 58.7598 195.258C59.177 197.226 59.1339 199.423 58.6313 201.787C58.3642 203.044 57.1294 203.846 55.8729 203.579C55.6171 203.524 55.3799 203.43 55.1665 203.303Z" fill="#FFD3BA"/>
<path d="M44.003 217.583C43.3755 212.928 41.813 211.399 41.5837 211.092C41.3661 210.8 39.3292 208.506 38.5779 207.14C37.6471 205.448 36.5502 203.034 37.501 201.061C38.4326 199.128 40.7604 199.516 42.5685 198.072L46.4426 196.657C47.9816 196.393 49.4431 197.426 49.7074 198.965C49.9711 200.505 48.9373 201.966 47.3983 202.23L46.6346 203.051C46.3551 203.165 46.593 203.953 46.6657 204.284C47.108 205.073 45.55 206.543 46.2719 207.511C47.2058 208.762 46.9483 210.534 45.6966 211.468C44.7524 212.172 44.1511 218.682 44.003 217.583Z" fill="#FFD3BA"/>
<path fill-rule="evenodd" clip-rule="evenodd" d="M57.508 211.185C53.6592 214.796 48.7216 217.262 43.2404 218.035C43.106 212.355 42.8155 207.363 42.2274 206.07C40.6862 202.683 55.3286 207.259 55.3286 207.259C55.3286 207.259 57.6281 201.701 57.508 211.185Z" fill="#FFD3BA"/>
<path fill-rule="evenodd" clip-rule="evenodd" d="M34.7722 186.791C35.2741 185.166 36.9986 184.255 38.6239 184.757L37.7151 187.7C38.6239 184.757 38.6244 184.757 38.6249 184.758L38.6287 184.759L38.6349 184.761L38.6517 184.766L38.7019 184.782C38.7426 184.795 38.7975 184.813 38.865 184.836C38.9998 184.881 39.1861 184.945 39.4111 185.029C39.8576 185.194 40.4727 185.438 41.1467 185.757C42.3507 186.327 44.2978 187.384 45.4966 189.025C47.0918 191.21 47.5318 193.817 47.3628 196.195C47.1936 198.577 46.4065 200.945 45.2682 202.945C44.4268 204.423 42.5463 204.94 41.0679 204.098C39.5895 203.257 39.073 201.377 39.9144 199.898C40.6485 198.608 41.1213 197.125 41.2183 195.759C41.3156 194.389 41.0284 193.352 40.5218 192.658C40.3 192.354 39.6001 191.84 38.5121 191.325C38.0402 191.102 37.5981 190.926 37.274 190.806C37.1135 190.747 36.9862 190.703 36.9036 190.675C36.8624 190.661 36.8327 190.651 36.8159 190.646L36.8008 190.641L36.8044 190.642C36.8029 190.642 36.8023 190.642 36.8008 190.641M34.7722 186.791C34.2709 188.415 35.179 190.137 36.8008 190.641Z" fill="#FFD2BA"/>
<path d="M44 116.458C44 118.943 41.9853 120.958 39.5 120.958C37.0147 120.958 35 118.943 35 116.458C35 113.973 37.0147 111.958 39.5 111.958C41.9853 111.958 44 113.973 44 116.458Z" fill="white" stroke="#FF5B24" stroke-width="2"/>
<path d="M100.873 267.5C100.873 269.985 98.8586 272 96.3733 272C93.888 272 91.8733 269.985 91.8733 267.5C91.8733 265.015 93.888 263 96.3733 263C98.8586 263 100.873 265.015 100.873 267.5Z" fill="white" stroke="#49367E" stroke-width="2"/>
<path d="M44.5081 40.5C44.5081 42.9853 42.4933 45 40.0081 45C37.5228 45 35.5081 42.9853 35.5081 40.5C35.5081 38.0147 37.5228 36 40.0081 36C42.4933 36 44.5081 38.0147 44.5081 40.5Z" fill="white" stroke="#FF5B24" stroke-width="2"/>
<path d="M106.432 342.216C106.072 340.008 104.176 338.82 102.292 338.82C99.7241 338.82 97.6001 340.68 97.6001 343.44C97.6001 346.392 99.7481 348.18 102.328 348.18C104.068 348.18 106.24 347.016 106.504 344.544L104.884 344.304C104.752 346.092 103.528 346.644 102.328 346.644C100.624 346.644 99.2921 345.672 99.2921 343.44C99.2921 341.412 100.624 340.356 102.232 340.356C103.336 340.356 104.548 340.812 104.812 342.456L106.432 342.216Z" fill="#FF5B24"/>
<path d="M114.194 348L114.194 341.088L112.694 341.088L112.694 345.108C112.694 346.284 111.914 346.824 110.906 346.824C109.982 346.824 109.526 346.416 109.526 345.348L109.526 341.088L108.026 341.088L108.026 345.912C108.026 347.508 109.178 348.18 110.33 348.18C111.194 348.18 112.154 347.784 112.694 346.836L112.694 348L114.194 348Z" fill="#FF5B24"/>
<path d="M115.945 343.032C115.945 343.992 116.497 344.7 117.673 344.952L118.933 345.228C119.797 345.42 120.037 345.672 120.037 346.08C120.037 346.656 119.473 346.98 118.645 346.98C117.673 346.98 117.037 346.524 116.941 345.672L115.609 345.912C115.837 347.52 117.337 348.18 118.681 348.18C120.013 348.18 121.429 347.436 121.429 345.936C121.429 344.976 120.865 344.328 119.641 344.064L118.273 343.764C117.577 343.608 117.337 343.272 117.337 342.912C117.337 342.408 117.817 342.096 118.501 342.096C119.329 342.096 119.941 342.396 119.989 343.296L121.321 343.056C120.925 341.508 119.881 340.896 118.489 340.896C117.361 340.896 115.945 341.52 115.945 343.032Z" fill="#FF5B24"/>
<path d="M123.426 339.42L123.426 341.088L122.142 341.088L122.142 342.3L123.426 342.3L123.426 346.056C123.426 347.328 124.062 348.12 125.442 348.12C125.862 348.12 126.354 348.012 126.714 347.904L126.474 346.692C126.198 346.764 126.03 346.8 125.754 346.8C125.142 346.8 124.926 346.524 124.926 345.984L124.926 342.3L126.654 342.3L126.654 341.088L124.926 341.088L124.926 339.18L123.426 339.42Z" fill="#FF5B24"/>
<path d="M131.112 340.896C129.24 340.896 127.692 342.264 127.692 344.532C127.692 346.8 129.24 348.18 131.112 348.18C132.984 348.18 134.532 346.8 134.532 344.532C134.532 342.264 132.984 340.896 131.112 340.896ZM131.112 342.192C132.144 342.192 133.02 342.948 133.02 344.532C133.02 346.116 132.144 346.884 131.112 346.884C130.08 346.884 129.204 346.116 129.204 344.532C129.204 342.948 130.08 342.192 131.112 342.192Z" fill="#FF5B24"/>
<path d="M143.667 342.252C144.519 342.252 145.167 342.732 145.167 344.016L145.167 348L146.667 348L146.667 343.368C146.667 341.508 145.527 340.896 144.267 340.896C143.499 340.896 142.527 341.208 142.011 342.24C141.639 341.256 140.763 340.896 139.839 340.896C139.011 340.896 138.015 341.22 137.523 342.108L137.523 341.088L136.023 341.088L136.023 348L137.523 348L137.523 344.052C137.523 342.816 138.231 342.252 139.191 342.252C140.043 342.252 140.691 342.732 140.691 344.016L140.691 348L142.191 348L142.191 344.052C142.191 342.816 142.815 342.252 143.667 342.252Z" fill="#FF5B24"/>
<path d="M151.563 342.192C152.535 342.192 153.303 342.648 153.423 343.8L149.667 343.8C149.871 342.732 150.567 342.192 151.563 342.192ZM154.839 344.868L154.839 344.376C154.839 342.336 153.495 340.896 151.623 340.896C149.619 340.896 148.095 342.3 148.095 344.52C148.095 346.8 149.679 348.18 151.719 348.18C152.991 348.18 154.527 347.448 154.791 345.852L153.399 345.612C153.243 346.404 152.787 346.884 151.659 346.884C150.411 346.884 149.727 346.08 149.619 344.868L154.839 344.868Z" fill="#FF5B24"/>
<path d="M159.631 342.516C160.003 342.516 160.267 342.564 160.531 342.672L160.675 340.992C160.531 340.92 160.327 340.896 160.147 340.896C159.463 340.896 158.383 341.292 157.819 342.744L157.819 341.088L156.319 341.088L156.319 348L157.819 348L157.819 344.976C157.819 343.056 158.659 342.516 159.631 342.516Z" fill="#FF5B24"/>
<path d="M171.422 343.776C171.17 341.916 169.694 340.896 168.086 340.896C166.106 340.896 164.606 342.3 164.606 344.532C164.606 346.668 166.082 348.18 168.194 348.18C169.526 348.18 171.086 347.448 171.41 345.336L170.042 345.096C169.886 346.272 169.238 346.872 168.182 346.872C166.778 346.872 166.118 345.804 166.118 344.532C166.118 342.996 166.958 342.192 168.014 342.192C168.974 342.192 169.778 342.708 169.946 344.016L171.422 343.776Z" fill="#FF5B24"/>
<path d="M175.819 340.896C173.947 340.896 172.399 342.264 172.399 344.532C172.399 346.8 173.947 348.18 175.819 348.18C177.691 348.18 179.239 346.8 179.239 344.532C179.239 342.264 177.691 340.896 175.819 340.896ZM175.819 342.192C176.851 342.192 177.727 342.948 177.727 344.532C177.727 346.116 176.851 346.884 175.819 346.884C174.787 346.884 173.911 346.116 173.911 344.532C173.911 342.948 174.787 342.192 175.819 342.192Z" fill="#FF5B24"/>
<path d="M183.934 342.252C184.75 342.252 185.398 342.732 185.398 344.016L185.398 348L186.898 348L186.898 343.368C186.898 341.508 185.722 340.896 184.486 340.896C183.67 340.896 182.722 341.232 182.23 342.108L182.23 341.088L180.73 341.088L180.73 348L182.23 348L182.23 344.052C182.23 342.816 182.938 342.252 183.934 342.252Z" fill="#FF5B24"/>
<path d="M189.153 348L190.653 348L190.653 342.3L192.369 342.3L192.369 341.088L190.653 341.088L190.653 340.812C190.653 340.152 190.845 339.804 191.481 339.804C191.649 339.804 191.793 339.816 191.937 339.84L192.045 338.568C191.853 338.508 191.601 338.472 191.313 338.472C190.017 338.472 189.153 339.288 189.153 340.824L189.153 341.088L188.205 341.088L188.205 342.3L189.153 342.3L189.153 348Z" fill="#FF5B24"/>
<path d="M193.433 341.088L193.433 348L194.933 348L194.933 341.088L193.433 341.088ZM194.177 338.1C193.673 338.1 193.277 338.508 193.277 339C193.277 339.492 193.673 339.9 194.177 339.9C194.681 339.9 195.077 339.492 195.077 339C195.077 338.508 194.681 338.1 194.177 338.1Z" fill="#FF5B24"/>
<path d="M200.167 342.516C200.539 342.516 200.803 342.564 201.067 342.672L201.211 340.992C201.067 340.92 200.863 340.896 200.683 340.896C199.999 340.896 198.919 341.292 198.355 342.744L198.355 341.088L196.855 341.088L196.855 348L198.355 348L198.355 344.976C198.355 343.056 199.195 342.516 200.167 342.516Z" fill="#FF5B24"/>
<path d="M209.983 342.252C210.835 342.252 211.483 342.732 211.483 344.016L211.483 348L212.983 348L212.983 343.368C212.983 341.508 211.843 340.896 210.583 340.896C209.815 340.896 208.843 341.208 208.327 342.24C207.955 341.256 207.079 340.896 206.155 340.896C205.327 340.896 204.331 341.22 203.839 342.108L203.839 341.088L202.339 341.088L202.339 348L203.839 348L203.839 344.052C203.839 342.816 204.547 342.252 205.507 342.252C206.359 342.252 207.007 342.732 207.007 344.016L207.007 348L208.507 348L208.507 344.052C208.507 342.816 209.131 342.252 209.983 342.252Z" fill="#FF5B24"/>
<path d="M214.699 343.032C214.699 343.992 215.251 344.7 216.427 344.952L217.687 345.228C218.551 345.42 218.791 345.672 218.791 346.08C218.791 346.656 218.227 346.98 217.399 346.98C216.427 346.98 215.791 346.524 215.695 345.672L214.363 345.912C214.591 347.52 216.091 348.18 217.435 348.18C218.767 348.18 220.183 347.436 220.183 345.936C220.183 344.976 219.619 344.328 218.395 344.064L217.027 343.764C216.331 343.608 216.091 343.272 216.091 342.912C216.091 342.408 216.571 342.096 217.255 342.096C218.083 342.096 218.695 342.396 218.743 343.296L220.075 343.056C219.679 341.508 218.635 340.896 217.243 340.896C216.115 340.896 214.699 341.52 214.699 343.032Z" fill="#FF5B24"/>
<path d="M106.432 409.216C106.072 407.008 104.176 405.82 102.292 405.82C99.724 405.82 97.6 407.68 97.6 410.44C97.6 413.392 99.748 415.18 102.328 415.18C104.068 415.18 106.24 414.016 106.504 411.544L104.884 411.304C104.752 413.092 103.528 413.644 102.328 413.644C100.624 413.644 99.292 412.672 99.292 410.44C99.292 408.412 100.624 407.356 102.232 407.356C103.336 407.356 104.548 407.812 104.812 409.456L106.432 409.216Z" fill="#FF5B24"/>
<path d="M111.05 407.896C109.178 407.896 107.63 409.264 107.63 411.532C107.63 413.8 109.178 415.18 111.05 415.18C112.922 415.18 114.47 413.8 114.47 411.532C114.47 409.264 112.922 407.896 111.05 407.896ZM111.05 409.192C112.082 409.192 112.958 409.948 112.958 411.532C112.958 413.116 112.082 413.884 111.05 413.884C110.018 413.884 109.142 413.116 109.142 411.532C109.142 409.948 110.018 409.192 111.05 409.192Z" fill="#FF5B24"/>
<path d="M119.164 409.252C119.98 409.252 120.628 409.732 120.628 411.016L120.628 415L122.128 415L122.128 410.368C122.128 408.508 120.952 407.896 119.716 407.896C118.9 407.896 117.952 408.232 117.46 409.108L117.46 408.088L115.96 408.088L115.96 415L117.46 415L117.46 411.052C117.46 409.816 118.168 409.252 119.164 409.252Z" fill="#FF5B24"/>
<path d="M124.383 415L125.883 415L125.883 409.3L127.599 409.3L127.599 408.088L125.883 408.088L125.883 407.812C125.883 407.152 126.075 406.804 126.711 406.804C126.879 406.804 127.023 406.816 127.167 406.84L127.275 405.568C127.083 405.508 126.831 405.472 126.543 405.472C125.247 405.472 124.383 406.288 124.383 407.824L124.383 408.088L123.435 408.088L123.435 409.3L124.383 409.3L124.383 415Z" fill="#FF5B24"/>
<path d="M128.663 408.088L128.663 415L130.163 415L130.163 408.088L128.663 408.088ZM129.407 405.1C128.903 405.1 128.507 405.508 128.507 406C128.507 406.492 128.903 406.9 129.407 406.9C129.911 406.9 130.307 406.492 130.307 406C130.307 405.508 129.911 405.1 129.407 405.1Z" fill="#FF5B24"/>
<path d="M135.397 409.516C135.769 409.516 136.033 409.564 136.297 409.672L136.441 407.992C136.297 407.92 136.093 407.896 135.913 407.896C135.229 407.896 134.149 408.292 133.585 409.744L133.585 408.088L132.085 408.088L132.085 415L133.585 415L133.585 411.976C133.585 410.056 134.425 409.516 135.397 409.516Z" fill="#FF5B24"/>
<path d="M145.213 409.252C146.065 409.252 146.713 409.732 146.713 411.016L146.713 415L148.213 415L148.213 410.368C148.213 408.508 147.073 407.896 145.813 407.896C145.045 407.896 144.073 408.208 143.557 409.24C143.185 408.256 142.309 407.896 141.385 407.896C140.557 407.896 139.561 408.22 139.069 409.108L139.069 408.088L137.569 408.088L137.569 415L139.069 415L139.069 411.052C139.069 409.816 139.777 409.252 140.737 409.252C141.589 409.252 142.237 409.732 142.237 411.016L142.237 415L143.737 415L143.737 411.052C143.737 409.816 144.361 409.252 145.213 409.252Z" fill="#FF5B24"/>
<path d="M156.296 407.896C154.424 407.896 152.876 409.264 152.876 411.532C152.876 413.8 154.424 415.18 156.296 415.18C158.168 415.18 159.716 413.8 159.716 411.532C159.716 409.264 158.168 407.896 156.296 407.896ZM156.296 409.192C157.328 409.192 158.204 409.948 158.204 411.532C158.204 413.116 157.328 413.884 156.296 413.884C155.264 413.884 154.388 413.116 154.388 411.532C154.388 409.948 155.264 409.192 156.296 409.192Z" fill="#FF5B24"/>
<path d="M164.518 409.516C164.89 409.516 165.154 409.564 165.418 409.672L165.562 407.992C165.418 407.92 165.214 407.896 165.034 407.896C164.35 407.896 163.27 408.292 162.706 409.744L162.706 408.088L161.206 408.088L161.206 415L162.706 415L162.706 411.976C162.706 410.056 163.546 409.516 164.518 409.516Z" fill="#FF5B24"/>
<path d="M173.182 405.7L171.682 405.7L171.682 409.444C171.19 408.352 170.446 407.896 169.51 407.896C167.902 407.896 166.306 409.06 166.306 411.472C166.306 414.004 167.914 415.18 169.318 415.18C170.578 415.18 171.334 414.52 171.682 413.692L171.682 415L173.182 415L173.182 405.7ZM169.762 409.192C170.77 409.192 171.682 409.996 171.682 411.556C171.682 413.164 170.77 413.872 169.75 413.872C168.802 413.872 167.818 413.128 167.818 411.556C167.818 409.96 168.814 409.192 169.762 409.192Z" fill="#FF5B24"/>
<path d="M178.141 409.192C179.113 409.192 179.881 409.648 180.001 410.8L176.245 410.8C176.449 409.732 177.145 409.192 178.141 409.192ZM181.417 411.868L181.417 411.376C181.417 409.336 180.073 407.896 178.201 407.896C176.197 407.896 174.673 409.3 174.673 411.52C174.673 413.8 176.257 415.18 178.297 415.18C179.569 415.18 181.105 414.448 181.369 412.852L179.977 412.612C179.821 413.404 179.365 413.884 178.237 413.884C176.989 413.884 176.305 413.08 176.197 411.868L181.417 411.868Z" fill="#FF5B24"/>
<path d="M186.209 409.516C186.581 409.516 186.845 409.564 187.109 409.672L187.253 407.992C187.109 407.92 186.905 407.896 186.725 407.896C186.041 407.896 184.961 408.292 184.397 409.744L184.397 408.088L182.897 408.088L182.897 415L184.397 415L184.397 411.976C184.397 410.056 185.237 409.516 186.209 409.516Z" fill="#FF5B24"/>
<path d="M194.268 415.18C195.504 415.18 196.26 414.424 196.608 413.572L196.608 415L198.108 415L198.108 408.088L196.608 408.088L196.608 409.444C196.116 408.352 195.36 407.896 194.28 407.896C192.828 407.896 191.232 409.06 191.232 411.472C191.232 414.004 192.84 415.18 194.268 415.18ZM194.688 409.192C195.696 409.192 196.608 409.96 196.608 411.556C196.608 413.2 195.696 413.872 194.676 413.872C193.728 413.872 192.744 413.164 192.744 411.556C192.744 409.924 193.74 409.192 194.688 409.192Z" fill="#FF5B24"/>
<path d="M203.234 409.252C204.05 409.252 204.698 409.732 204.698 411.016L204.698 415L206.198 415L206.198 410.368C206.198 408.508 205.022 407.896 203.786 407.896C202.97 407.896 202.022 408.232 201.53 409.108L201.53 408.088L200.03 408.088L200.03 415L201.53 415L201.53 411.052C201.53 409.816 202.238 409.252 203.234 409.252Z" fill="#FF5B24"/>
<path d="M214.55 405.7L213.05 405.7L213.05 409.444C212.558 408.352 211.814 407.896 210.878 407.896C209.27 407.896 207.674 409.06 207.674 411.472C207.674 414.004 209.282 415.18 210.686 415.18C211.946 415.18 212.702 414.52 213.05 413.692L213.05 415L214.55 415L214.55 405.7ZM211.13 409.192C212.138 409.192 213.05 409.996 213.05 411.556C213.05 413.164 212.138 413.872 211.118 413.872C210.17 413.872 209.186 413.128 209.186 411.556C209.186 409.96 210.182 409.192 211.13 409.192Z" fill="#FF5B24"/>
<path d="M97.816 430.032C97.816 430.992 98.368 431.7 99.544 431.952L100.804 432.228C101.668 432.42 101.908 432.672 101.908 433.08C101.908 433.656 101.344 433.98 100.516 433.98C99.544 433.98 98.908 433.524 98.812 432.672L97.48 432.912C97.708 434.52 99.208 435.18 100.552 435.18C101.884 435.18 103.3 434.436 103.3 432.936C103.3 431.976 102.736 431.328 101.512 431.064L100.144 430.764C99.448 430.608 99.208 430.272 99.208 429.912C99.208 429.408 99.688 429.096 100.372 429.096C101.2 429.096 101.812 429.396 101.86 430.296L103.192 430.056C102.796 428.508 101.752 427.896 100.36 427.896C99.232 427.896 97.816 428.52 97.816 430.032Z" fill="#FF5B24"/>
<path d="M107.805 429.192C108.777 429.192 109.545 429.648 109.665 430.8L105.909 430.8C106.113 429.732 106.809 429.192 107.805 429.192ZM111.081 431.868L111.081 431.376C111.081 429.336 109.737 427.896 107.865 427.896C105.861 427.896 104.337 429.3 104.337 431.52C104.337 433.8 105.921 435.18 107.961 435.18C109.233 435.18 110.769 434.448 111.033 432.852L109.641 432.612C109.485 433.404 109.029 433.884 107.901 433.884C106.653 433.884 105.969 433.08 105.861 431.868L111.081 431.868Z" fill="#FF5B24"/>
<path d="M115.766 429.252C116.582 429.252 117.23 429.732 117.23 431.016L117.23 435L118.73 435L118.73 430.368C118.73 428.508 117.554 427.896 116.318 427.896C115.502 427.896 114.554 428.232 114.062 429.108L114.062 428.088L112.562 428.088L112.562 435L114.062 435L114.062 431.052C114.062 429.816 114.77 429.252 115.766 429.252Z" fill="#FF5B24"/>
<path d="M127.081 425.7L125.581 425.7L125.581 429.444C125.089 428.352 124.345 427.896 123.409 427.896C121.801 427.896 120.205 429.06 120.205 431.472C120.205 434.004 121.813 435.18 123.217 435.18C124.477 435.18 125.233 434.52 125.581 433.692L125.581 435L127.081 435L127.081 425.7ZM123.661 429.192C124.669 429.192 125.581 429.996 125.581 431.556C125.581 433.164 124.669 433.872 123.649 433.872C122.701 433.872 121.717 433.128 121.717 431.556C121.717 429.96 122.713 429.192 123.661 429.192Z" fill="#FF5B24"/>
<path d="M132.237 428.088L132.237 435L133.737 435L133.737 428.088L132.237 428.088ZM132.981 425.1C132.477 425.1 132.081 425.508 132.081 426C132.081 426.492 132.477 426.9 132.981 426.9C133.485 426.9 133.881 426.492 133.881 426C133.881 425.508 133.485 425.1 132.981 425.1Z" fill="#FF5B24"/>
<path d="M136.187 426.42L136.187 428.088L134.903 428.088L134.903 429.3L136.187 429.3L136.187 433.056C136.187 434.328 136.823 435.12 138.203 435.12C138.623 435.12 139.115 435.012 139.475 434.904L139.235 433.692C138.959 433.764 138.791 433.8 138.515 433.8C137.903 433.8 137.687 433.524 137.687 432.984L137.687 429.3L139.415 429.3L139.415 428.088L137.687 428.088L137.687 426.18L136.187 426.42Z" fill="#FF5B24"/>
<path d="M143.922 429.192C144.894 429.192 145.662 429.648 145.782 430.8L142.026 430.8C142.23 429.732 142.926 429.192 143.922 429.192ZM147.198 431.868L147.198 431.376C147.198 429.336 145.854 427.896 143.982 427.896C141.978 427.896 140.454 429.3 140.454 431.52C140.454 433.8 142.038 435.18 144.078 435.18C145.35 435.18 146.886 434.448 147.15 432.852L145.758 432.612C145.602 433.404 145.146 433.884 144.018 433.884C142.77 433.884 142.086 433.08 141.978 431.868L147.198 431.868Z" fill="#FF5B24"/>
<path d="M156.323 429.252C157.175 429.252 157.823 429.732 157.823 431.016L157.823 435L159.323 435L159.323 430.368C159.323 428.508 158.183 427.896 156.923 427.896C156.155 427.896 155.183 428.208 154.667 429.24C154.295 428.256 153.419 427.896 152.495 427.896C151.667 427.896 150.671 428.22 150.179 429.108L150.179 428.088L148.679 428.088L148.679 435L150.179 435L150.179 431.052C150.179 429.816 150.887 429.252 151.847 429.252C152.699 429.252 153.347 429.732 153.347 431.016L153.347 435L154.847 435L154.847 431.052C154.847 429.816 155.471 429.252 156.323 429.252Z" fill="#FF5B24"/>
<path d="M106.84 500L109.708 491L107.98 491L106.144 497.756L104.272 491L102.724 491L100.912 497.9L99.0161 491L97.2881 491L100.156 500L101.74 500L103.504 493.556L105.376 500L106.84 500Z" fill="#FF5B24"/>
<path d="M111.073 493.088L111.073 500L112.573 500L112.573 493.088L111.073 493.088ZM111.817 490.1C111.313 490.1 110.917 490.508 110.917 491C110.917 491.492 111.313 491.9 111.817 491.9C112.321 491.9 112.717 491.492 112.717 491C112.717 490.508 112.321 490.1 111.817 490.1Z" fill="#FF5B24"/>
<path d="M115.023 491.42L115.023 493.088L113.739 493.088L113.739 494.3L115.023 494.3L115.023 498.056C115.023 499.328 115.659 500.12 117.039 500.12C117.459 500.12 117.951 500.012 118.311 499.904L118.071 498.692C117.795 498.764 117.627 498.8 117.351 498.8C116.739 498.8 116.523 498.524 116.523 497.984L116.523 494.3L118.251 494.3L118.251 493.088L116.523 493.088L116.523 491.18L115.023 491.42Z" fill="#FF5B24"/>
<path d="M119.722 490.7L119.722 500L121.222 500L121.222 496.052C121.222 494.816 121.93 494.252 122.938 494.252C123.742 494.252 124.39 494.732 124.39 496.016L124.39 500L125.89 500L125.89 495.368C125.89 493.508 124.75 492.896 123.43 492.896C122.698 492.896 121.714 493.22 121.222 494.108L121.222 490.7L119.722 490.7Z" fill="#FF5B24"/>
<path d="M131.061 494.516C131.433 494.516 131.697 494.564 131.961 494.672L132.105 492.992C131.961 492.92 131.757 492.896 131.577 492.896C130.893 492.896 129.813 493.292 129.249 494.744L129.249 493.088L127.749 493.088L127.749 500L129.249 500L129.249 496.976C129.249 495.056 130.089 494.516 131.061 494.516Z" fill="#FF5B24"/>
<path d="M135.886 500.18C137.122 500.18 137.878 499.424 138.226 498.572L138.226 500L139.726 500L139.726 493.088L138.226 493.088L138.226 494.444C137.734 493.352 136.978 492.896 135.898 492.896C134.446 492.896 132.85 494.06 132.85 496.472C132.85 499.004 134.458 500.18 135.886 500.18ZM136.306 494.192C137.314 494.192 138.226 494.96 138.226 496.556C138.226 498.2 137.314 498.872 136.294 498.872C135.346 498.872 134.362 498.164 134.362 496.556C134.362 494.924 135.358 494.192 136.306 494.192Z" fill="#FF5B24"/>
<path d="M151.608 493.088L149.94 493.088L148.464 498.128L146.796 493.088L145.68 493.088L144.024 498.104L142.536 493.088L140.868 493.088L143.352 500L144.648 500L146.244 495.632L147.828 500L149.124 500L151.608 493.088Z" fill="#FF5B24"/>
<path d="M159.82 492.896C158.644 492.896 157.924 493.64 157.48 494.444L157.48 493.088L155.98 493.088L155.98 502.4L157.48 502.4L157.48 498.692C158.056 499.676 158.8 500.18 159.676 500.18C161.284 500.18 162.856 498.956 162.856 496.436C162.856 494.024 161.224 492.896 159.82 492.896ZM159.412 494.192C160.36 494.192 161.344 494.948 161.344 496.52C161.344 498.116 160.36 498.872 159.4 498.872C158.392 498.872 157.48 498.056 157.48 496.52C157.48 494.912 158.392 494.192 159.412 494.192Z" fill="#FF5B24"/>
<path d="M167.046 500.18C168.282 500.18 169.038 499.424 169.386 498.572L169.386 500L170.886 500L170.886 493.088L169.386 493.088L169.386 494.444C168.894 493.352 168.138 492.896 167.058 492.896C165.606 492.896 164.01 494.06 164.01 496.472C164.01 499.004 165.618 500.18 167.046 500.18ZM167.466 494.192C168.474 494.192 169.386 494.96 169.386 496.556C169.386 498.2 168.474 498.872 167.454 498.872C166.506 498.872 165.522 498.164 165.522 496.556C165.522 494.924 166.518 494.192 167.466 494.192Z" fill="#FF5B24"/>
<path d="M173.42 502.4C174.764 502.4 175.628 501.692 176.168 500.288L178.928 493.088L177.26 493.088L175.52 498.488L173.696 493.088L172.028 493.088L174.572 499.472C174.92 500.348 174.596 501.152 173.564 501.152C173.024 501.152 172.688 500.984 172.472 500.852L172.232 502.148C172.556 502.304 172.964 502.4 173.42 502.4Z" fill="#FF5B24"/>
<path d="M187.717 494.252C188.569 494.252 189.217 494.732 189.217 496.016L189.217 500L190.717 500L190.717 495.368C190.717 493.508 189.577 492.896 188.317 492.896C187.549 492.896 186.577 493.208 186.061 494.24C185.689 493.256 184.813 492.896 183.889 492.896C183.061 492.896 182.065 493.22 181.573 494.108L181.573 493.088L180.073 493.088L180.073 500L181.573 500L181.573 496.052C181.573 494.816 182.281 494.252 183.241 494.252C184.093 494.252 184.741 494.732 184.741 496.016L184.741 500L186.241 500L186.241 496.052C186.241 494.816 186.865 494.252 187.717 494.252Z" fill="#FF5B24"/>
<path d="M195.613 494.192C196.585 494.192 197.353 494.648 197.473 495.8L193.717 495.8C193.921 494.732 194.617 494.192 195.613 494.192ZM198.889 496.868L198.889 496.376C198.889 494.336 197.545 492.896 195.673 492.896C193.669 492.896 192.145 494.3 192.145 496.52C192.145 498.8 193.729 500.18 195.769 500.18C197.041 500.18 198.577 499.448 198.841 497.852L197.449 497.612C197.293 498.404 196.837 498.884 195.709 498.884C194.461 498.884 193.777 498.08 193.669 496.868L198.889 496.868Z" fill="#FF5B24"/>
<path d="M203.574 494.252C204.39 494.252 205.038 494.732 205.038 496.016L205.038 500L206.538 500L206.538 495.368C206.538 493.508 205.362 492.896 204.126 492.896C203.31 492.896 202.362 493.232 201.87 494.108L201.87 493.088L200.37 493.088L200.37 500L201.87 500L201.87 496.052C201.87 494.816 202.578 494.252 203.574 494.252Z" fill="#FF5B24"/>
<path d="M208.926 491.42L208.926 493.088L207.642 493.088L207.642 494.3L208.926 494.3L208.926 498.056C208.926 499.328 209.562 500.12 210.942 500.12C211.362 500.12 211.854 500.012 212.214 499.904L211.974 498.692C211.698 498.764 211.53 498.8 211.254 498.8C210.642 498.8 210.426 498.524 210.426 497.984L210.426 494.3L212.154 494.3L212.154 493.088L210.426 493.088L210.426 491.18L208.926 491.42Z" fill="#FF5B24"/>
<path d="M134.432 257.216C134.072 255.008 132.176 253.82 130.292 253.82C127.724 253.82 125.6 255.68 125.6 258.44C125.6 261.392 127.748 263.18 130.328 263.18C132.068 263.18 134.24 262.016 134.504 259.544L132.884 259.304C132.752 261.092 131.528 261.644 130.328 261.644C128.624 261.644 127.292 260.672 127.292 258.44C127.292 256.412 128.624 255.356 130.232 255.356C131.336 255.356 132.548 255.812 132.812 257.456L134.432 257.216Z" fill="#4D3280"/>
<path d="M138.714 263.18C139.95 263.18 140.706 262.424 141.054 261.572L141.054 263L142.554 263L142.554 256.088L141.054 256.088L141.054 257.444C140.562 256.352 139.806 255.896 138.726 255.896C137.274 255.896 135.678 257.06 135.678 259.472C135.678 262.004 137.286 263.18 138.714 263.18ZM139.134 257.192C140.142 257.192 141.054 257.96 141.054 259.556C141.054 261.2 140.142 261.872 139.122 261.872C138.174 261.872 137.19 261.164 137.19 259.556C137.19 257.924 138.186 257.192 139.134 257.192Z" fill="#4D3280"/>
<path d="M147.68 257.252C148.496 257.252 149.144 257.732 149.144 259.016L149.144 263L150.644 263L150.644 258.368C150.644 256.508 149.468 255.896 148.232 255.896C147.416 255.896 146.468 256.232 145.976 257.108L145.976 256.088L144.476 256.088L144.476 263L145.976 263L145.976 259.052C145.976 257.816 146.684 257.252 147.68 257.252Z" fill="#4D3280"/>
<path d="M158.887 258.776C158.635 256.916 157.159 255.896 155.551 255.896C153.571 255.896 152.071 257.3 152.071 259.532C152.071 261.668 153.547 263.18 155.659 263.18C156.991 263.18 158.551 262.448 158.875 260.336L157.507 260.096C157.351 261.272 156.703 261.872 155.647 261.872C154.243 261.872 153.583 260.804 153.583 259.532C153.583 257.996 154.423 257.192 155.479 257.192C156.439 257.192 157.243 257.708 157.411 259.016L158.887 258.776Z" fill="#4D3280"/>
<path d="M163.332 257.192C164.304 257.192 165.072 257.648 165.192 258.8L161.436 258.8C161.64 257.732 162.336 257.192 163.332 257.192ZM166.608 259.868L166.608 259.376C166.608 257.336 165.264 255.896 163.392 255.896C161.388 255.896 159.864 257.3 159.864 259.52C159.864 261.8 161.448 263.18 163.488 263.18C164.76 263.18 166.296 262.448 166.56 260.852L165.168 260.612C165.012 261.404 164.556 261.884 163.428 261.884C162.18 261.884 161.496 261.08 161.388 259.868L166.608 259.868Z" fill="#4D3280"/>
<path d="M168.089 253.7L168.089 263L169.589 263L169.589 253.7L168.089 253.7Z" fill="#4D3280"/>
<path d="M171.511 253.7L171.511 263L173.011 263L173.011 253.7L171.511 253.7Z" fill="#4D3280"/>
<path d="M177.585 263.18C178.821 263.18 179.577 262.424 179.925 261.572L179.925 263L181.425 263L181.425 256.088L179.925 256.088L179.925 257.444C179.433 256.352 178.677 255.896 177.597 255.896C176.145 255.896 174.549 257.06 174.549 259.472C174.549 262.004 176.157 263.18 177.585 263.18ZM178.005 257.192C179.013 257.192 179.925 257.96 179.925 259.556C179.925 261.2 179.013 261.872 177.993 261.872C177.045 261.872 176.061 261.164 176.061 259.556C176.061 257.924 177.057 257.192 178.005 257.192Z" fill="#4D3280"/>
<path d="M183.875 254.42L183.875 256.088L182.591 256.088L182.591 257.3L183.875 257.3L183.875 261.056C183.875 262.328 184.511 263.12 185.891 263.12C186.311 263.12 186.803 263.012 187.163 262.904L186.923 261.692C186.647 261.764 186.479 261.8 186.203 261.8C185.591 261.8 185.375 261.524 185.375 260.984L185.375 257.3L187.103 257.3L187.103 256.088L185.375 256.088L185.375 254.18L183.875 254.42Z" fill="#4D3280"/>
<path d="M188.573 256.088L188.573 263L190.073 263L190.073 256.088L188.573 256.088ZM189.317 253.1C188.813 253.1 188.417 253.508 188.417 254C188.417 254.492 188.813 254.9 189.317 254.9C189.821 254.9 190.217 254.492 190.217 254C190.217 253.508 189.821 253.1 189.317 253.1Z" fill="#4D3280"/>
<path d="M194.983 255.896C193.111 255.896 191.563 257.264 191.563 259.532C191.563 261.8 193.111 263.18 194.983 263.18C196.855 263.18 198.403 261.8 198.403 259.532C198.403 257.264 196.855 255.896 194.983 255.896ZM194.983 257.192C196.015 257.192 196.891 257.948 196.891 259.532C196.891 261.116 196.015 261.884 194.983 261.884C193.951 261.884 193.075 261.116 193.075 259.532C193.075 257.948 193.951 257.192 194.983 257.192Z" fill="#4D3280"/>
<path d="M203.098 257.252C203.914 257.252 204.562 257.732 204.562 259.016L204.562 263L206.062 263L206.062 258.368C206.062 256.508 204.886 255.896 203.65 255.896C202.834 255.896 201.886 256.232 201.394 257.108L201.394 256.088L199.894 256.088L199.894 263L201.394 263L201.394 259.052C201.394 257.816 202.102 257.252 203.098 257.252Z" fill="#4D3280"/>
<path d="M128.948 275.896C127.076 275.896 125.528 277.264 125.528 279.532C125.528 281.8 127.076 283.18 128.948 283.18C130.82 283.18 132.368 281.8 132.368 279.532C132.368 277.264 130.82 275.896 128.948 275.896ZM128.948 277.192C129.98 277.192 130.856 277.948 130.856 279.532C130.856 281.116 129.98 281.884 128.948 281.884C127.916 281.884 127.04 281.116 127.04 279.532C127.04 277.948 127.916 277.192 128.948 277.192Z" fill="#4D3280"/>
<path d="M134.255 283L135.755 283L135.755 277.3L137.471 277.3L137.471 276.088L135.755 276.088L135.755 275.812C135.755 275.104 136.091 274.732 136.703 274.732C137.027 274.732 137.303 274.78 137.591 274.864L137.795 273.7C137.459 273.58 137.051 273.472 136.547 273.472C135.167 273.472 134.255 274.36 134.255 275.824L134.255 276.088L133.307 276.088L133.307 277.3L134.255 277.3L134.255 283Z" fill="#4D3280"/>
<path d="M145.609 275.896C144.433 275.896 143.713 276.64 143.269 277.444L143.269 276.088L141.769 276.088L141.769 285.4L143.269 285.4L143.269 281.692C143.845 282.676 144.589 283.18 145.465 283.18C147.073 283.18 148.645 281.956 148.645 279.436C148.645 277.024 147.013 275.896 145.609 275.896ZM145.201 277.192C146.149 277.192 147.133 277.948 147.133 279.52C147.133 281.116 146.149 281.872 145.189 281.872C144.181 281.872 143.269 281.056 143.269 279.52C143.269 277.912 144.181 277.192 145.201 277.192Z" fill="#4D3280"/>
<path d="M152.835 283.18C154.071 283.18 154.827 282.424 155.175 281.572L155.175 283L156.675 283L156.675 276.088L155.175 276.088L155.175 277.444C154.683 276.352 153.927 275.896 152.847 275.896C151.395 275.896 149.799 277.06 149.799 279.472C149.799 282.004 151.407 283.18 152.835 283.18ZM153.255 277.192C154.263 277.192 155.175 277.96 155.175 279.556C155.175 281.2 154.263 281.872 153.243 281.872C152.295 281.872 151.311 281.164 151.311 279.556C151.311 277.924 152.307 277.192 153.255 277.192Z" fill="#4D3280"/>
<path d="M159.209 285.4C160.553 285.4 161.417 284.692 161.957 283.288L164.717 276.088L163.049 276.088L161.309 281.488L159.485 276.088L157.817 276.088L160.361 282.472C160.709 283.348 160.385 284.152 159.353 284.152C158.813 284.152 158.477 283.984 158.261 283.852L158.021 285.148C158.345 285.304 158.753 285.4 159.209 285.4Z" fill="#4D3280"/>
<path d="M173.506 277.252C174.358 277.252 175.006 277.732 175.006 279.016L175.006 283L176.506 283L176.506 278.368C176.506 276.508 175.366 275.896 174.106 275.896C173.338 275.896 172.366 276.208 171.85 277.24C171.478 276.256 170.602 275.896 169.678 275.896C168.85 275.896 167.854 276.22 167.362 277.108L167.362 276.088L165.862 276.088L165.862 283L167.362 283L167.362 279.052C167.362 277.816 168.07 277.252 169.03 277.252C169.882 277.252 170.53 277.732 170.53 279.016L170.53 283L172.03 283L172.03 279.052C172.03 277.816 172.654 277.252 173.506 277.252Z" fill="#4D3280"/>
<path d="M181.402 277.192C182.374 277.192 183.142 277.648 183.262 278.8L179.506 278.8C179.71 277.732 180.406 277.192 181.402 277.192ZM184.678 279.868L184.678 279.376C184.678 277.336 183.334 275.896 181.462 275.896C179.458 275.896 177.934 277.3 177.934 279.52C177.934 281.8 179.518 283.18 181.558 283.18C182.83 283.18 184.366 282.448 184.63 280.852L183.238 280.612C183.082 281.404 182.626 281.884 181.498 281.884C180.25 281.884 179.566 281.08 179.458 279.868L184.678 279.868Z" fill="#4D3280"/>
<path d="M189.363 277.252C190.179 277.252 190.827 277.732 190.827 279.016L190.827 283L192.327 283L192.327 278.368C192.327 276.508 191.151 275.896 189.915 275.896C189.099 275.896 188.151 276.232 187.659 277.108L187.659 276.088L186.159 276.088L186.159 283L187.659 283L187.659 279.052C187.659 277.816 188.367 277.252 189.363 277.252Z" fill="#4D3280"/>
<path d="M194.715 274.42L194.715 276.088L193.431 276.088L193.431 277.3L194.715 277.3L194.715 281.056C194.715 282.328 195.351 283.12 196.731 283.12C197.151 283.12 197.643 283.012 198.003 282.904L197.763 281.692C197.487 281.764 197.319 281.8 197.043 281.8C196.431 281.8 196.215 281.524 196.215 280.984L196.215 277.3L197.943 277.3L197.943 276.088L196.215 276.088L196.215 274.18L194.715 274.42Z" fill="#4D3280"/>
<path d="M106.432 181.216C106.072 179.008 104.176 177.82 102.292 177.82C99.7241 177.82 97.6001 179.68 97.6001 182.44C97.6001 185.392 99.7481 187.18 102.328 187.18C104.068 187.18 106.24 186.016 106.504 183.544L104.884 183.304C104.752 185.092 103.528 185.644 102.328 185.644C100.624 185.644 99.2921 184.672 99.2921 182.44C99.2921 180.412 100.624 179.356 102.232 179.356C103.336 179.356 104.548 179.812 104.812 181.456L106.432 181.216Z" fill="#FF5B24"/>
<path d="M114.194 187L114.194 180.088L112.694 180.088L112.694 184.108C112.694 185.284 111.914 185.824 110.906 185.824C109.982 185.824 109.526 185.416 109.526 184.348L109.526 180.088L108.026 180.088L108.026 184.912C108.026 186.508 109.178 187.18 110.33 187.18C111.194 187.18 112.154 186.784 112.694 185.836L112.694 187L114.194 187Z" fill="#FF5B24"/>
<path d="M115.945 182.032C115.945 182.992 116.497 183.7 117.673 183.952L118.933 184.228C119.797 184.42 120.037 184.672 120.037 185.08C120.037 185.656 119.473 185.98 118.645 185.98C117.673 185.98 117.037 185.524 116.941 184.672L115.609 184.912C115.837 186.52 117.337 187.18 118.681 187.18C120.013 187.18 121.429 186.436 121.429 184.936C121.429 183.976 120.865 183.328 119.641 183.064L118.273 182.764C117.577 182.608 117.337 182.272 117.337 181.912C117.337 181.408 117.817 181.096 118.501 181.096C119.329 181.096 119.941 181.396 119.989 182.296L121.321 182.056C120.925 180.508 119.881 179.896 118.489 179.896C117.361 179.896 115.945 180.52 115.945 182.032Z" fill="#FF5B24"/>
<path d="M123.426 178.42L123.426 180.088L122.142 180.088L122.142 181.3L123.426 181.3L123.426 185.056C123.426 186.328 124.062 187.12 125.442 187.12C125.862 187.12 126.354 187.012 126.714 186.904L126.474 185.692C126.198 185.764 126.03 185.8 125.754 185.8C125.142 185.8 124.926 185.524 124.926 184.984L124.926 181.3L126.654 181.3L126.654 180.088L124.926 180.088L124.926 178.18L123.426 178.42Z" fill="#FF5B24"/>
<path d="M131.112 179.896C129.24 179.896 127.692 181.264 127.692 183.532C127.692 185.8 129.24 187.18 131.112 187.18C132.984 187.18 134.532 185.8 134.532 183.532C134.532 181.264 132.984 179.896 131.112 179.896ZM131.112 181.192C132.144 181.192 133.02 181.948 133.02 183.532C133.02 185.116 132.144 185.884 131.112 185.884C130.08 185.884 129.204 185.116 129.204 183.532C129.204 181.948 130.08 181.192 131.112 181.192Z" fill="#FF5B24"/>
<path d="M143.667 181.252C144.519 181.252 145.167 181.732 145.167 183.016L145.167 187L146.667 187L146.667 182.368C146.667 180.508 145.527 179.896 144.267 179.896C143.499 179.896 142.527 180.208 142.011 181.24C141.639 180.256 140.763 179.896 139.839 179.896C139.011 179.896 138.015 180.22 137.523 181.108L137.523 180.088L136.023 180.088L136.023 187L137.523 187L137.523 183.052C137.523 181.816 138.231 181.252 139.191 181.252C140.043 181.252 140.691 181.732 140.691 183.016L140.691 187L142.191 187L142.191 183.052C142.191 181.816 142.815 181.252 143.667 181.252Z" fill="#FF5B24"/>
<path d="M151.563 181.192C152.535 181.192 153.303 181.648 153.423 182.8L149.667 182.8C149.871 181.732 150.567 181.192 151.563 181.192ZM154.839 183.868L154.839 183.376C154.839 181.336 153.495 179.896 151.623 179.896C149.619 179.896 148.095 181.3 148.095 183.52C148.095 185.8 149.679 187.18 151.719 187.18C152.991 187.18 154.527 186.448 154.791 184.852L153.399 184.612C153.243 185.404 152.787 185.884 151.659 185.884C150.411 185.884 149.727 185.08 149.619 183.868L154.839 183.868Z" fill="#FF5B24"/>
<path d="M159.631 181.516C160.003 181.516 160.267 181.564 160.531 181.672L160.675 179.992C160.531 179.92 160.327 179.896 160.147 179.896C159.463 179.896 158.383 180.292 157.819 181.744L157.819 180.088L156.319 180.088L156.319 187L157.819 187L157.819 183.976C157.819 182.056 158.659 181.516 159.631 181.516Z" fill="#FF5B24"/>
<path d="M171.422 182.776C171.17 180.916 169.694 179.896 168.086 179.896C166.106 179.896 164.606 181.3 164.606 183.532C164.606 185.668 166.082 187.18 168.194 187.18C169.526 187.18 171.086 186.448 171.41 184.336L170.042 184.096C169.886 185.272 169.238 185.872 168.182 185.872C166.778 185.872 166.118 184.804 166.118 183.532C166.118 181.996 166.958 181.192 168.014 181.192C168.974 181.192 169.778 181.708 169.946 183.016L171.422 182.776Z" fill="#FF5B24"/>
<path d="M172.831 177.7L172.831 187L174.331 187L174.331 183.052C174.331 181.816 175.039 181.252 176.047 181.252C176.851 181.252 177.499 181.732 177.499 183.016L177.499 187L178.999 187L178.999 182.368C178.999 180.508 177.859 179.896 176.539 179.896C175.807 179.896 174.823 180.22 174.331 181.108L174.331 177.7L172.831 177.7Z" fill="#FF5B24"/>
<path d="M183.847 179.896C181.975 179.896 180.427 181.264 180.427 183.532C180.427 185.8 181.975 187.18 183.847 187.18C185.719 187.18 187.267 185.8 187.267 183.532C187.267 181.264 185.719 179.896 183.847 179.896ZM183.847 181.192C184.879 181.192 185.755 181.948 185.755 183.532C185.755 185.116 184.879 185.884 183.847 185.884C182.815 185.884 181.939 185.116 181.939 183.532C181.939 181.948 182.815 181.192 183.847 181.192Z" fill="#FF5B24"/>
<path d="M191.745 179.896C189.873 179.896 188.325 181.264 188.325 183.532C188.325 185.8 189.873 187.18 191.745 187.18C193.617 187.18 195.165 185.8 195.165 183.532C195.165 181.264 193.617 179.896 191.745 179.896ZM191.745 181.192C192.777 181.192 193.653 181.948 193.653 183.532C193.653 185.116 192.777 185.884 191.745 185.884C190.713 185.884 189.837 185.116 189.837 183.532C189.837 181.948 190.713 181.192 191.745 181.192Z" fill="#FF5B24"/>
<path d="M196.511 182.032C196.511 182.992 197.063 183.7 198.239 183.952L199.499 184.228C200.363 184.42 200.603 184.672 200.603 185.08C200.603 185.656 200.039 185.98 199.211 185.98C198.239 185.98 197.603 185.524 197.507 184.672L196.175 184.912C196.403 186.52 197.903 187.18 199.247 187.18C200.579 187.18 201.995 186.436 201.995 184.936C201.995 183.976 201.431 183.328 200.207 183.064L198.839 182.764C198.143 182.608 197.903 182.272 197.903 181.912C197.903 181.408 198.383 181.096 199.067 181.096C199.895 181.096 200.507 181.396 200.555 182.296L201.887 182.056C201.491 180.508 200.447 179.896 199.055 179.896C197.927 179.896 196.511 180.52 196.511 182.032Z" fill="#FF5B24"/>
<path d="M206.5 181.192C207.472 181.192 208.24 181.648 208.36 182.8L204.604 182.8C204.808 181.732 205.504 181.192 206.5 181.192ZM209.776 183.868L209.776 183.376C209.776 181.336 208.432 179.896 206.56 179.896C204.556 179.896 203.032 181.3 203.032 183.52C203.032 185.8 204.616 187.18 206.656 187.18C207.928 187.18 209.464 186.448 209.728 184.852L208.336 184.612C208.18 185.404 207.724 185.884 206.596 185.884C205.348 185.884 204.664 185.08 204.556 183.868L209.776 183.868Z" fill="#FF5B24"/>
<path d="M211.113 182.032C211.113 182.992 211.665 183.7 212.841 183.952L214.101 184.228C214.965 184.42 215.205 184.672 215.205 185.08C215.205 185.656 214.641 185.98 213.813 185.98C212.841 185.98 212.205 185.524 212.109 184.672L210.777 184.912C211.005 186.52 212.505 187.18 213.849 187.18C215.181 187.18 216.597 186.436 216.597 184.936C216.597 183.976 216.033 183.328 214.809 183.064L213.441 182.764C212.745 182.608 212.505 182.272 212.505 181.912C212.505 181.408 212.985 181.096 213.669 181.096C214.497 181.096 215.109 181.396 215.157 182.296L216.489 182.056C216.093 180.508 215.049 179.896 213.657 179.896C212.529 179.896 211.113 180.52 211.113 182.032Z" fill="#FF5B24"/>
<path d="M98.4881 198.42L98.4881 200.088L97.2041 200.088L97.2041 201.3L98.4881 201.3L98.4881 205.056C98.4881 206.328 99.1241 207.12 100.504 207.12C100.924 207.12 101.416 207.012 101.776 206.904L101.536 205.692C101.26 205.764 101.092 205.8 100.816 205.8C100.204 205.8 99.9881 205.524 99.9881 204.984L99.9881 201.3L101.716 201.3L101.716 200.088L99.9881 200.088L99.9881 198.18L98.4881 198.42Z" fill="#FF5B24"/>
<path d="M106.175 199.896C104.303 199.896 102.755 201.264 102.755 203.532C102.755 205.8 104.303 207.18 106.175 207.18C108.047 207.18 109.595 205.8 109.595 203.532C109.595 201.264 108.047 199.896 106.175 199.896ZM106.175 201.192C107.207 201.192 108.083 201.948 108.083 203.532C108.083 205.116 107.207 205.884 106.175 205.884C105.143 205.884 104.267 205.116 104.267 203.532C104.267 201.948 105.143 201.192 106.175 201.192Z" fill="#FF5B24"/>
<path d="M118.159 199.896C116.983 199.896 116.263 200.64 115.819 201.444L115.819 200.088L114.319 200.088L114.319 209.4L115.819 209.4L115.819 205.692C116.395 206.676 117.139 207.18 118.015 207.18C119.623 207.18 121.195 205.956 121.195 203.436C121.195 201.024 119.563 199.896 118.159 199.896ZM117.751 201.192C118.699 201.192 119.683 201.948 119.683 203.52C119.683 205.116 118.699 205.872 117.739 205.872C116.731 205.872 115.819 205.056 115.819 203.52C115.819 201.912 116.731 201.192 117.751 201.192Z" fill="#FF5B24"/>
<path d="M125.386 207.18C126.622 207.18 127.378 206.424 127.726 205.572L127.726 207L129.226 207L129.226 200.088L127.726 200.088L127.726 201.444C127.234 200.352 126.478 199.896 125.398 199.896C123.946 199.896 122.35 201.06 122.35 203.472C122.35 206.004 123.958 207.18 125.386 207.18ZM125.806 201.192C126.814 201.192 127.726 201.96 127.726 203.556C127.726 205.2 126.814 205.872 125.794 205.872C124.846 205.872 123.862 205.164 123.862 203.556C123.862 201.924 124.858 201.192 125.806 201.192Z" fill="#FF5B24"/>
<path d="M131.76 209.4C133.104 209.4 133.968 208.692 134.508 207.288L137.268 200.088L135.6 200.088L133.86 205.488L132.036 200.088L130.368 200.088L132.912 206.472C133.26 207.348 132.936 208.152 131.904 208.152C131.364 208.152 131.028 207.984 130.812 207.852L130.572 209.148C130.896 209.304 131.304 209.4 131.76 209.4Z" fill="#FF5B24"/>
<path d="M151.608 200.088L149.94 200.088L148.464 205.128L146.796 200.088L145.68 200.088L144.024 205.104L142.536 200.088L140.868 200.088L143.352 207L144.648 207L146.244 202.632L147.828 207L149.124 207L151.608 200.088Z" fill="#FF5B24"/>
<path d="M152.745 200.088L152.745 207L154.245 207L154.245 200.088L152.745 200.088ZM153.489 197.1C152.985 197.1 152.589 197.508 152.589 198C152.589 198.492 152.985 198.9 153.489 198.9C153.993 198.9 154.389 198.492 154.389 198C154.389 197.508 153.993 197.1 153.489 197.1Z" fill="#FF5B24"/>
<path d="M156.695 198.42L156.695 200.088L155.411 200.088L155.411 201.3L156.695 201.3L156.695 205.056C156.695 206.328 157.331 207.12 158.711 207.12C159.131 207.12 159.623 207.012 159.983 206.904L159.743 205.692C159.467 205.764 159.299 205.8 159.023 205.8C158.411 205.8 158.195 205.524 158.195 204.984L158.195 201.3L159.923 201.3L159.923 200.088L158.195 200.088L158.195 198.18L156.695 198.42Z" fill="#FF5B24"/>
<path d="M161.394 197.7L161.394 207L162.894 207L162.894 203.052C162.894 201.816 163.602 201.252 164.61 201.252C165.414 201.252 166.062 201.732 166.062 203.016L166.062 207L167.562 207L167.562 202.368C167.562 200.508 166.422 199.896 165.102 199.896C164.37 199.896 163.386 200.22 162.894 201.108L162.894 197.7L161.394 197.7Z" fill="#FF5B24"/>
<path d="M178.775 200.088L177.107 200.088L175.331 205.308L173.543 200.088L171.875 200.088L174.635 207L176.015 207L178.775 200.088Z" fill="#FF5B24"/>
<path d="M179.921 200.088L179.921 207L181.421 207L181.421 200.088L179.921 200.088ZM180.665 197.1C180.161 197.1 179.765 197.508 179.765 198C179.765 198.492 180.161 198.9 180.665 198.9C181.169 198.9 181.565 198.492 181.565 198C181.565 197.508 181.169 197.1 180.665 197.1Z" fill="#FF5B24"/>
<path d="M187.183 199.896C186.007 199.896 185.287 200.64 184.843 201.444L184.843 200.088L183.343 200.088L183.343 209.4L184.843 209.4L184.843 205.692C185.419 206.676 186.163 207.18 187.039 207.18C188.647 207.18 190.219 205.956 190.219 203.436C190.219 201.024 188.587 199.896 187.183 199.896ZM186.775 201.192C187.723 201.192 188.707 201.948 188.707 203.52C188.707 205.116 187.723 205.872 186.763 205.872C185.755 205.872 184.843 205.056 184.843 203.52C184.843 201.912 185.755 201.192 186.775 201.192Z" fill="#FF5B24"/>
<path d="M195.597 199.896C194.421 199.896 193.701 200.64 193.257 201.444L193.257 200.088L191.757 200.088L191.757 209.4L193.257 209.4L193.257 205.692C193.833 206.676 194.577 207.18 195.453 207.18C197.061 207.18 198.633 205.956 198.633 203.436C198.633 201.024 197.001 199.896 195.597 199.896ZM195.189 201.192C196.137 201.192 197.121 201.948 197.121 203.52C197.121 205.116 196.137 205.872 195.177 205.872C194.169 205.872 193.257 205.056 193.257 203.52C193.257 201.912 194.169 201.192 195.189 201.192Z" fill="#FF5B24"/>
<path d="M200.027 202.032C200.027 202.992 200.579 203.7 201.755 203.952L203.015 204.228C203.879 204.42 204.119 204.672 204.119 205.08C204.119 205.656 203.555 205.98 202.727 205.98C201.755 205.98 201.119 205.524 201.023 204.672L199.691 204.912C199.919 206.52 201.419 207.18 202.763 207.18C204.095 207.18 205.511 206.436 205.511 204.936C205.511 203.976 204.947 203.328 203.723 203.064L202.355 202.764C201.659 202.608 201.419 202.272 201.419 201.912C201.419 201.408 201.899 201.096 202.583 201.096C203.411 201.096 204.023 201.396 204.071 202.296L205.403 202.056C205.007 200.508 203.963 199.896 202.571 199.896C201.443 199.896 200.027 200.52 200.027 202.032Z" fill="#FF5B24"/>
<path d="M104.764 41.616L104.752 41.712C104.608 42.852 103.684 43.644 102.268 43.644C100.78 43.644 99.2921 42.756 99.2921 40.536C99.2921 38.424 100.528 37.356 102.184 37.356C103.444 37.356 104.512 37.836 104.716 39.336L106.3 39.096C105.952 36.588 103.78 35.82 102.28 35.82C99.5921 35.82 97.6001 37.752 97.6001 40.536C97.6001 43.2 99.5561 45.18 101.836 45.18C103.288 45.18 104.32 44.28 104.8 43.32L104.812 43.32L105.088 45L106.42 45L106.42 40.2L102.4 40.2L102.4 41.616L104.764 41.616Z" fill="#FF5B24"/>
<path d="M111.391 39.192C112.363 39.192 113.131 39.648 113.251 40.8L109.495 40.8C109.699 39.732 110.395 39.192 111.391 39.192ZM114.667 41.868L114.667 41.376C114.667 39.336 113.323 37.896 111.451 37.896C109.447 37.896 107.923 39.3 107.923 41.52C107.923 43.8 109.507 45.18 111.547 45.18C112.819 45.18 114.355 44.448 114.619 42.852L113.227 42.612C113.071 43.404 112.615 43.884 111.487 43.884C110.239 43.884 109.555 43.08 109.447 41.868L114.667 41.868Z" fill="#FF5B24"/>
<path d="M116.676 36.42L116.676 38.088L115.392 38.088L115.392 39.3L116.676 39.3L116.676 43.056C116.676 44.328 117.312 45.12 118.692 45.12C119.112 45.12 119.604 45.012 119.964 44.904L119.724 43.692C119.448 43.764 119.28 43.8 119.004 43.8C118.392 43.8 118.176 43.524 118.176 42.984L118.176 39.3L119.904 39.3L119.904 38.088L118.176 38.088L118.176 36.18L116.676 36.42Z" fill="#FF5B24"/>
<path d="M127.261 45.18C128.497 45.18 129.253 44.424 129.601 43.572L129.601 45L131.101 45L131.101 38.088L129.601 38.088L129.601 39.444C129.109 38.352 128.353 37.896 127.273 37.896C125.821 37.896 124.225 39.06 124.225 41.472C124.225 44.004 125.833 45.18 127.261 45.18ZM127.681 39.192C128.689 39.192 129.601 39.96 129.601 41.556C129.601 43.2 128.689 43.872 127.669 43.872C126.721 43.872 125.737 43.164 125.737 41.556C125.737 39.924 126.733 39.192 127.681 39.192Z" fill="#FF5B24"/>
<path d="M139.407 40.776C139.155 38.916 137.679 37.896 136.071 37.896C134.091 37.896 132.591 39.3 132.591 41.532C132.591 43.668 134.067 45.18 136.179 45.18C137.511 45.18 139.071 44.448 139.395 42.336L138.027 42.096C137.871 43.272 137.223 43.872 136.167 43.872C134.763 43.872 134.103 42.804 134.103 41.532C134.103 39.996 134.943 39.192 135.999 39.192C136.959 39.192 137.763 39.708 137.931 41.016L139.407 40.776Z" fill="#FF5B24"/>
<path d="M147.2 40.776C146.948 38.916 145.472 37.896 143.864 37.896C141.884 37.896 140.384 39.3 140.384 41.532C140.384 43.668 141.86 45.18 143.972 45.18C145.304 45.18 146.864 44.448 147.188 42.336L145.82 42.096C145.664 43.272 145.016 43.872 143.96 43.872C142.556 43.872 141.896 42.804 141.896 41.532C141.896 39.996 142.736 39.192 143.792 39.192C144.752 39.192 145.556 39.708 145.724 41.016L147.2 40.776Z" fill="#FF5B24"/>
<path d="M151.645 39.192C152.617 39.192 153.385 39.648 153.505 40.8L149.749 40.8C149.953 39.732 150.649 39.192 151.645 39.192ZM154.921 41.868L154.921 41.376C154.921 39.336 153.577 37.896 151.705 37.896C149.701 37.896 148.177 39.3 148.177 41.52C148.177 43.8 149.761 45.18 151.801 45.18C153.073 45.18 154.609 44.448 154.873 42.852L153.481 42.612C153.325 43.404 152.869 43.884 151.741 43.884C150.493 43.884 149.809 43.08 149.701 41.868L154.921 41.868Z" fill="#FF5B24"/>
<path d="M156.258 40.032C156.258 40.992 156.81 41.7 157.986 41.952L159.246 42.228C160.11 42.42 160.35 42.672 160.35 43.08C160.35 43.656 159.786 43.98 158.958 43.98C157.986 43.98 157.35 43.524 157.254 42.672L155.922 42.912C156.15 44.52 157.65 45.18 158.994 45.18C160.326 45.18 161.742 44.436 161.742 42.936C161.742 41.976 161.178 41.328 159.954 41.064L158.586 40.764C157.89 40.608 157.65 40.272 157.65 39.912C157.65 39.408 158.13 39.096 158.814 39.096C159.642 39.096 160.254 39.396 160.302 40.296L161.634 40.056C161.238 38.508 160.194 37.896 158.802 37.896C157.674 37.896 156.258 38.52 156.258 40.032Z" fill="#FF5B24"/>
<path d="M163.066 40.032C163.066 40.992 163.618 41.7 164.794 41.952L166.054 42.228C166.918 42.42 167.158 42.672 167.158 43.08C167.158 43.656 166.594 43.98 165.766 43.98C164.794 43.98 164.158 43.524 164.062 42.672L162.73 42.912C162.958 44.52 164.458 45.18 165.802 45.18C167.134 45.18 168.55 44.436 168.55 42.936C168.55 41.976 167.986 41.328 166.762 41.064L165.394 40.764C164.698 40.608 164.458 40.272 164.458 39.912C164.458 39.408 164.938 39.096 165.622 39.096C166.45 39.096 167.062 39.396 167.11 40.296L168.442 40.056C168.046 38.508 167.002 37.896 165.61 37.896C164.482 37.896 163.066 38.52 163.066 40.032Z" fill="#FF5B24"/>
<path d="M173.781 36.42L173.781 38.088L172.497 38.088L172.497 39.3L173.781 39.3L173.781 43.056C173.781 44.328 174.417 45.12 175.797 45.12C176.217 45.12 176.709 45.012 177.069 44.904L176.829 43.692C176.553 43.764 176.385 43.8 176.109 43.8C175.497 43.8 175.281 43.524 175.281 42.984L175.281 39.3L177.009 39.3L177.009 38.088L175.281 38.088L175.281 36.18L173.781 36.42Z" fill="#FF5B24"/>
<path d="M181.468 37.896C179.596 37.896 178.048 39.264 178.048 41.532C178.048 43.8 179.596 45.18 181.468 45.18C183.34 45.18 184.888 43.8 184.888 41.532C184.888 39.264 183.34 37.896 181.468 37.896ZM181.468 39.192C182.5 39.192 183.376 39.948 183.376 41.532C183.376 43.116 182.5 43.884 181.468 43.884C180.436 43.884 179.56 43.116 179.56 41.532C179.56 39.948 180.436 39.192 181.468 39.192Z" fill="#FF5B24"/>
<path d="M186.378 45L187.878 45L187.878 43.344L189.15 41.916L191.214 45L192.774 45L190.002 40.944L192.546 38.088L190.914 38.088L187.878 41.664L187.878 35.7L186.378 35.7L186.378 45Z" fill="#FF5B24"/>
<path d="M196.773 39.192C197.745 39.192 198.513 39.648 198.633 40.8L194.877 40.8C195.081 39.732 195.777 39.192 196.773 39.192ZM200.049 41.868L200.049 41.376C200.049 39.336 198.705 37.896 196.833 37.896C194.829 37.896 193.305 39.3 193.305 41.52C193.305 43.8 194.889 45.18 196.929 45.18C198.201 45.18 199.737 44.448 200.001 42.852L198.609 42.612C198.453 43.404 197.997 43.884 196.869 43.884C195.621 43.884 194.937 43.08 194.829 41.868L200.049 41.868Z" fill="#FF5B24"/>
<path d="M204.734 39.252C205.55 39.252 206.198 39.732 206.198 41.016L206.198 45L207.698 45L207.698 40.368C207.698 38.508 206.522 37.896 205.286 37.896C204.47 37.896 203.522 38.232 203.03 39.108L203.03 38.088L201.53 38.088L201.53 45L203.03 45L203.03 41.052C203.03 39.816 203.738 39.252 204.734 39.252Z" fill="#FF5B24"/>
<path d="M96.8161 114.412C96.8161 117.88 101.796 116.74 101.796 118.648C101.796 119.332 101.268 119.788 100.248 119.788C99.2761 119.788 98.1601 119.464 98.0041 117.928L96.4561 118.288C96.6961 120.22 98.4001 121.18 100.2 121.18C101.796 121.18 103.368 120.268 103.368 118.552C103.368 115.192 98.4121 116.416 98.4121 114.352C98.4121 113.644 98.9521 113.212 99.8761 113.212C100.68 113.212 101.58 113.572 101.652 114.82L103.236 114.46C102.972 112.6 101.364 111.82 99.9481 111.82C98.3761 111.82 96.8161 112.684 96.8161 114.412Z" fill="#FF5B24"/>
<path d="M107.883 115.192C108.855 115.192 109.623 115.648 109.743 116.8L105.987 116.8C106.191 115.732 106.887 115.192 107.883 115.192ZM111.159 117.868L111.159 117.376C111.159 115.336 109.815 113.896 107.943 113.896C105.939 113.896 104.415 115.3 104.415 117.52C104.415 119.8 105.999 121.18 108.039 121.18C109.311 121.18 110.847 120.448 111.111 118.852L109.719 118.612C109.563 119.404 109.107 119.884 107.979 119.884C106.731 119.884 106.047 119.08 105.939 117.868L111.159 117.868Z" fill="#FF5B24"/>
<path d="M113.168 112.42L113.168 114.088L111.884 114.088L111.884 115.3L113.168 115.3L113.168 119.056C113.168 120.328 113.804 121.12 115.184 121.12C115.604 121.12 116.096 121.012 116.456 120.904L116.216 119.692C115.94 119.764 115.772 119.8 115.496 119.8C114.884 119.8 114.668 119.524 114.668 118.984L114.668 115.3L116.396 115.3L116.396 114.088L114.668 114.088L114.668 112.18L113.168 112.42Z" fill="#FF5B24"/>
<path d="M127.233 121L127.233 114.088L125.733 114.088L125.733 118.108C125.733 119.284 124.953 119.824 123.945 119.824C123.021 119.824 122.565 119.416 122.565 118.348L122.565 114.088L121.065 114.088L121.065 118.912C121.065 120.508 122.217 121.18 123.369 121.18C124.233 121.18 125.193 120.784 125.733 119.836L125.733 121L127.233 121Z" fill="#FF5B24"/>
<path d="M132.968 113.896C131.792 113.896 131.072 114.64 130.628 115.444L130.628 114.088L129.128 114.088L129.128 123.4L130.628 123.4L130.628 119.692C131.204 120.676 131.948 121.18 132.824 121.18C134.432 121.18 136.004 119.956 136.004 117.436C136.004 115.024 134.372 113.896 132.968 113.896ZM132.56 115.192C133.508 115.192 134.492 115.948 134.492 117.52C134.492 119.116 133.508 119.872 132.548 119.872C131.54 119.872 130.628 119.056 130.628 117.52C130.628 115.912 131.54 115.192 132.56 115.192Z" fill="#FF5B24"/>
<path d="M143.812 115.192C144.784 115.192 145.552 115.648 145.672 116.8L141.916 116.8C142.12 115.732 142.816 115.192 143.812 115.192ZM147.088 117.868L147.088 117.376C147.088 115.336 145.744 113.896 143.872 113.896C141.868 113.896 140.344 115.3 140.344 117.52C140.344 119.8 141.928 121.18 143.968 121.18C145.24 121.18 146.776 120.448 147.04 118.852L145.648 118.612C145.492 119.404 145.036 119.884 143.908 119.884C142.66 119.884 141.976 119.08 141.868 117.868L147.088 117.868Z" fill="#FF5B24"/>
<path d="M151.773 115.252C152.589 115.252 153.237 115.732 153.237 117.016L153.237 121L154.737 121L154.737 116.368C154.737 114.508 153.561 113.896 152.325 113.896C151.509 113.896 150.561 114.232 150.069 115.108L150.069 114.088L148.569 114.088L148.569 121L150.069 121L150.069 117.052C150.069 115.816 150.777 115.252 151.773 115.252Z" fill="#FF5B24"/>
<path d="M163.089 111.7L161.589 111.7L161.589 115.444C161.097 114.352 160.353 113.896 159.417 113.896C157.809 113.896 156.213 115.06 156.213 117.472C156.213 120.004 157.821 121.18 159.225 121.18C160.485 121.18 161.241 120.52 161.589 119.692L161.589 121L163.089 121L163.089 111.7ZM159.669 115.192C160.677 115.192 161.589 115.996 161.589 117.556C161.589 119.164 160.677 119.872 159.657 119.872C158.709 119.872 157.725 119.128 157.725 117.556C157.725 115.96 158.721 115.192 159.669 115.192Z" fill="#FF5B24"/>
<path d="M168.851 113.896C167.675 113.896 166.955 114.64 166.511 115.444L166.511 114.088L165.011 114.088L165.011 123.4L166.511 123.4L166.511 119.692C167.087 120.676 167.831 121.18 168.707 121.18C170.315 121.18 171.887 119.956 171.887 117.436C171.887 115.024 170.255 113.896 168.851 113.896ZM168.443 115.192C169.391 115.192 170.375 115.948 170.375 117.52C170.375 119.116 169.391 119.872 168.431 119.872C167.423 119.872 166.511 119.056 166.511 117.52C166.511 115.912 167.423 115.192 168.443 115.192Z" fill="#FF5B24"/>
<path d="M176.413 113.896C174.541 113.896 172.993 115.264 172.993 117.532C172.993 119.8 174.541 121.18 176.413 121.18C178.285 121.18 179.833 119.8 179.833 117.532C179.833 115.264 178.285 113.896 176.413 113.896ZM176.413 115.192C177.445 115.192 178.321 115.948 178.321 117.532C178.321 119.116 177.445 119.884 176.413 119.884C175.381 119.884 174.505 119.116 174.505 117.532C174.505 115.948 175.381 115.192 176.413 115.192Z" fill="#FF5B24"/>
<path d="M181.323 114.088L181.323 121L182.823 121L182.823 114.088L181.323 114.088ZM182.067 111.1C181.563 111.1 181.167 111.508 181.167 112C181.167 112.492 181.563 112.9 182.067 112.9C182.571 112.9 182.967 112.492 182.967 112C182.967 111.508 182.571 111.1 182.067 111.1Z" fill="#FF5B24"/>
<path d="M187.949 115.252C188.765 115.252 189.413 115.732 189.413 117.016L189.413 121L190.913 121L190.913 116.368C190.913 114.508 189.737 113.896 188.501 113.896C187.685 113.896 186.737 114.232 186.245 115.108L186.245 114.088L184.745 114.088L184.745 121L186.245 121L186.245 117.052C186.245 115.816 186.953 115.252 187.949 115.252Z" fill="#FF5B24"/>
<path d="M193.301 112.42L193.301 114.088L192.017 114.088L192.017 115.3L193.301 115.3L193.301 119.056C193.301 120.328 193.937 121.12 195.317 121.12C195.737 121.12 196.229 121.012 196.589 120.904L196.349 119.692C196.073 119.764 195.905 119.8 195.629 119.8C195.017 119.8 194.801 119.524 194.801 118.984L194.801 115.3L196.529 115.3L196.529 114.088L194.801 114.088L194.801 112.18L193.301 112.42Z" fill="#FF5B24"/>
<path d="M197.855 116.032C197.855 116.992 198.407 117.7 199.583 117.952L200.843 118.228C201.707 118.42 201.947 118.672 201.947 119.08C201.947 119.656 201.383 119.98 200.555 119.98C199.583 119.98 198.947 119.524 198.851 118.672L197.519 118.912C197.747 120.52 199.247 121.18 200.591 121.18C201.923 121.18 203.339 120.436 203.339 118.936C203.339 117.976 202.775 117.328 201.551 117.064L200.183 116.764C199.487 116.608 199.247 116.272 199.247 115.912C199.247 115.408 199.727 115.096 200.411 115.096C201.239 115.096 201.851 115.396 201.899 116.296L203.231 116.056C202.835 114.508 201.791 113.896 200.399 113.896C199.271 113.896 197.855 114.52 197.855 116.032Z" fill="#FF5B24"/>
<path d="M154.056 553L154.056 562L155.628 562L155.628 558.568L156.768 558.568C157.74 558.568 158.304 558.952 158.448 559.78L158.688 561.172C158.76 561.616 158.964 561.856 159.204 562L161.1 562C160.764 561.796 160.5 561.436 160.392 561.016L160.02 559.564C159.804 558.712 159.396 558.316 158.808 558.076C159.636 557.596 160.272 556.768 160.272 555.724C160.272 554.044 159.144 553 157.176 553L154.056 553ZM157.14 554.404C157.98 554.404 158.592 554.896 158.592 555.796C158.592 556.588 158.04 557.164 157.152 557.164L155.628 557.164L155.628 554.404L157.14 554.404Z" fill="#4D3280"/>
<path d="M164.883 556.192C165.855 556.192 166.623 556.648 166.743 557.8L162.987 557.8C163.191 556.732 163.887 556.192 164.883 556.192ZM168.159 558.868L168.159 558.376C168.159 556.336 166.815 554.896 164.943 554.896C162.939 554.896 161.415 556.3 161.415 558.52C161.415 560.8 162.999 562.18 165.039 562.18C166.311 562.18 167.847 561.448 168.111 559.852L166.719 559.612C166.563 560.404 166.107 560.884 164.979 560.884C163.731 560.884 163.047 560.08 162.939 558.868L168.159 558.868Z" fill="#4D3280"/>
<path d="M170.036 562L171.536 562L171.536 556.3L173.252 556.3L173.252 555.088L171.536 555.088L171.536 554.812C171.536 554.104 171.872 553.732 172.484 553.732C172.808 553.732 173.084 553.78 173.372 553.864L173.576 552.7C173.24 552.58 172.832 552.472 172.328 552.472C170.948 552.472 170.036 553.36 170.036 554.824L170.036 555.088L169.088 555.088L169.088 556.3L170.036 556.3L170.036 562Z" fill="#4D3280"/>
<path d="M180.447 562L180.447 555.088L178.947 555.088L178.947 559.108C178.947 560.284 178.167 560.824 177.159 560.824C176.235 560.824 175.779 560.416 175.779 559.348L175.779 555.088L174.279 555.088L174.279 559.912C174.279 561.508 175.431 562.18 176.583 562.18C177.447 562.18 178.407 561.784 178.947 560.836L178.947 562L180.447 562Z" fill="#4D3280"/>
<path d="M185.547 556.252C186.363 556.252 187.011 556.732 187.011 558.016L187.011 562L188.511 562L188.511 557.368C188.511 555.508 187.335 554.896 186.099 554.896C185.283 554.896 184.335 555.232 183.843 556.108L183.843 555.088L182.343 555.088L182.343 562L183.843 562L183.843 558.052C183.843 556.816 184.551 556.252 185.547 556.252Z" fill="#4D3280"/>
<path d="M196.862 552.7L195.362 552.7L195.362 556.444C194.87 555.352 194.126 554.896 193.19 554.896C191.582 554.896 189.986 556.06 189.986 558.472C189.986 561.004 191.594 562.18 192.998 562.18C194.258 562.18 195.014 561.52 195.362 560.692L195.362 562L196.862 562L196.862 552.7ZM193.442 556.192C194.45 556.192 195.362 556.996 195.362 558.556C195.362 560.164 194.45 560.872 193.43 560.872C192.482 560.872 191.498 560.128 191.498 558.556C191.498 556.96 192.494 556.192 193.442 556.192Z" fill="#4D3280"/>
<path d="M66.2137 343.947C66.2137 358.454 54.4535 370.214 39.9468 370.214C25.4401 370.214 13.6799 358.454 13.6799 343.947C13.6799 329.44 25.4401 317.68 39.9468 317.68C54.4535 317.68 66.2137 329.44 66.2137 343.947Z" fill="#EEEDF3"/>
<path fill-rule="evenodd" clip-rule="evenodd" d="M42.9643 370.042C42.9593 360.477 42.9639 349.93 43.005 347.532C43.1689 337.946 52.6214 339.988 52.6214 339.988L64.0862 347.532L64.0823 354.329C60.4373 362.791 52.472 368.955 42.9643 370.042Z" fill="#FFD3BB"/>
<path d="M60.6756 350.296L44.0462 353.553C42.4456 353.867 40.8933 352.823 40.5798 351.222L34.0136 317.699C33.7 316.098 34.7438 314.546 36.3444 314.233L52.9739 310.975C54.5748 310.662 56.1267 311.705 56.4403 313.306L63.0065 346.83C63.32 348.43 62.2765 349.983 60.6756 350.296Z" fill="#FF5A23"/>
<path d="M62.6156 344.624L40.1889 349.017L34.5198 320.073L56.9465 315.681L62.6156 344.624Z" fill="#FF985F"/>
<path d="M40.2157 339.165L34.2664 339.627C32.6684 339.752 31.2725 338.557 31.1481 336.959C31.0236 335.361 32.2188 333.965 33.8162 333.841L39.7657 333.378C41.3633 333.254 42.7593 334.449 42.8837 336.046C43.0082 337.644 41.8136 339.04 40.2157 339.165Z" fill="#FFD3BB"/>
<path d="M40.7113 344.602L34.762 345.065C33.1641 345.189 31.7682 343.995 31.6437 342.397C31.5192 340.798 32.7138 339.403 34.3118 339.278L40.2611 338.816C41.859 338.691 43.2549 339.886 43.3793 341.483C43.5038 343.081 42.3093 344.478 40.7113 344.602Z" fill="#FFD3BB"/>
<path d="M41.7109 349.93L35.7613 350.393C34.1639 350.517 32.7671 349.322 32.6431 347.725C32.5189 346.127 33.7134 344.731 35.3111 344.606L41.2607 344.144C42.8583 344.019 44.2545 345.214 44.3789 346.812C44.5034 348.409 43.3086 349.806 41.7109 349.93Z" fill="#FFD3BB"/>
<path d="M52.5836 335.638L46.4034 336.848C44.8359 337.155 43.3024 336.124 42.9954 334.556L41.7851 328.376C41.4782 326.809 42.5095 325.275 44.0769 324.968L50.2571 323.758C51.8246 323.451 53.3582 324.482 53.6651 326.05L54.8754 332.23C55.1823 333.797 54.151 335.331 52.5836 335.638Z" fill="white"/>
<path fill-rule="evenodd" clip-rule="evenodd" d="M51.5075 325.931C51.7259 326.032 51.8212 326.291 51.7203 326.509L48.7982 332.835C48.7496 332.941 48.6611 333.022 48.5522 333.062C48.4433 333.102 48.3231 333.096 48.2181 333.047L45.5718 331.809C45.3539 331.707 45.26 331.447 45.362 331.229C45.464 331.012 45.7233 330.918 45.9412 331.02L48.1909 332.073L50.9294 326.144C51.0303 325.926 51.2891 325.83 51.5075 325.931Z" fill="#48367D"/>
<path fill-rule="evenodd" clip-rule="evenodd" d="M62.7423 357.006C62.3637 357.154 61.9532 357.296 61.5104 357.427C58.3425 358.364 53.613 354.259 53.613 354.259C53.613 354.259 53.7469 352.564 53.97 350.735C54.1931 348.905 55.3531 347.254 55.9332 346.719C53.613 346.228 51.9622 345.425 50.7575 343.819C49.5076 342.152 48.6158 340.696 48.3927 338.108C48.1696 335.52 49.1066 334.583 50.2221 334.047C51.3375 333.512 52.3191 333.78 53.3899 334.315C54.2232 334.732 54.7157 336.327 54.8177 337.483C54.9516 339 55.2939 339.371 55.9778 340.026C56.5043 340.531 57.6287 340.517 58.3872 340.428C59.1457 340.339 59.8339 340.379 61.1535 340.696C62.2689 340.963 63.3844 341.722 64.3214 342.971C65.3415 344.331 65.6821 345.982 65.9052 347.985C65.4051 351.226 64.3128 354.271 62.7423 357.006Z" fill="#FFD3BB"/>
<path d="M66.2669 496.027C66.2669 510.534 54.5067 522.294 40 522.294C25.4933 522.294 13.7332 510.534 13.7332 496.027C13.7332 481.52 25.4933 469.76 40 469.76C54.5067 469.76 66.2669 481.52 66.2669 496.027Z" fill="#EEEDF3"/>
<path d="M21.5112 484.785C20.7174 483.407 19.9193 482.031 19.1298 480.65C18.1045 478.854 19.1154 476.667 21.146 476.281C21.3214 476.248 21.4997 476.235 21.678 476.235C23.8064 476.237 25.9332 476.235 28.0616 476.235C30.3322 476.235 31.7458 478.64 30.627 480.617C29.862 481.972 29.0739 483.313 28.296 484.661C28.2729 484.7 28.2543 484.743 28.2341 484.783C26.4064 484.785 24.5786 484.786 22.7523 484.787C22.3381 484.789 21.9254 484.786 21.5112 484.785Z" fill="#FF985F"/>
<path d="M21.5127 484.787C21.9268 484.789 22.3395 484.793 22.7537 484.793C24.5815 484.792 26.4092 484.79 28.2356 484.789C28.3448 484.79 28.4541 484.793 28.5634 484.793C29.0667 484.796 29.4493 485.163 29.4536 485.65C29.4593 486.125 29.0811 486.504 28.5893 486.519C28.5548 486.52 28.5203 486.522 28.4858 486.525C27.2318 486.523 25.9778 486.52 24.7238 486.519C24.442 486.519 24.1601 486.526 23.8783 486.516C23.7474 486.512 23.7129 486.552 23.7143 486.681C23.7201 487.314 23.7172 487.947 23.7172 488.579C23.7172 490.156 23.7186 491.732 23.7158 493.308C23.7143 494.001 23.0327 494.428 22.4402 494.107C22.1152 493.932 21.9815 493.641 21.9815 493.279C21.9829 491.277 21.9815 489.276 21.9815 487.274C21.9815 487.072 21.9771 486.871 21.9829 486.67C21.9858 486.563 21.9599 486.512 21.8405 486.517C21.645 486.527 21.4494 486.523 21.2538 486.525C20.7045 486.503 20.3608 486.23 20.2989 485.768C20.2314 485.259 20.6182 484.806 21.1316 484.795C21.2596 484.79 21.3861 484.789 21.5127 484.787Z" fill="#FD5B24"/>
<path d="M38.6758 499.375C38.1236 496.368 36.7302 493.804 34.4925 491.725C33.0904 490.422 31.5978 489.22 30.1525 487.966C29.5974 487.484 29.0409 487.002 28.4858 486.52C27.2318 486.519 25.9778 486.518 24.7239 486.513C24.442 486.513 24.1601 486.52 23.8783 486.51C23.7489 486.506 23.7129 486.546 23.7143 486.676C23.7201 487.308 23.7172 487.941 23.7172 488.574C23.7172 490.15 23.7187 491.726 23.7158 493.302C23.7143 493.995 23.0327 494.422 22.4402 494.102C22.1152 493.926 21.9815 493.637 21.9815 493.273C21.9815 491.272 21.9815 489.27 21.9815 487.268C21.9815 487.067 21.9772 486.866 21.9829 486.664C21.9858 486.558 21.9599 486.506 21.8406 486.512C21.645 486.522 21.4494 486.518 21.2538 486.519C21.2222 486.552 21.1934 486.587 21.1589 486.617C19.7252 487.849 18.29 489.08 16.8577 490.315C16.0366 491.026 15.1881 491.706 14.4576 492.517C12.3997 494.804 11.2191 497.48 10.8984 500.534C10.7402 502.037 10.8337 503.53 11.1673 505.005C11.7886 507.755 13.0986 510.123 15.1809 512.029C18.1117 514.709 21.5947 515.906 25.5522 515.752C27.6618 515.67 29.6578 515.143 31.5287 514.166C34.1575 512.792 36.1621 510.792 37.4736 508.129C38.8412 505.35 39.2338 502.421 38.6758 499.375Z" fill="#FF985F"/>
<path d="M21.7607 503.912H22.7609V502.897L23.3253 502.219L24.4541 503.912H25.5686L23.9254 501.504L25.3471 499.797H24.2183L22.7609 501.697V498.375H21.7607V503.912Z" fill="#FFF4EC"/>
<path d="M27.898 500.804C28.0409 500.804 28.2123 500.84 28.3695 500.897L28.4338 499.74C28.3409 499.704 28.2266 499.682 28.1195 499.682C27.7265 499.682 27.2407 499.882 26.9192 500.668V499.797H25.9119V503.912H26.9192V501.897C26.9192 501.018 27.4193 500.804 27.898 500.804Z" fill="#FFF4EC"/>
<path fill-rule="evenodd" clip-rule="evenodd" d="M40 522.294C54.5067 522.294 66.2669 510.534 66.2669 496.028C66.2669 495.355 66.2415 494.687 66.1918 494.027H31.4835C30.2665 494.027 29.28 495.014 29.28 496.231V520.014C32.5535 521.48 36.1816 522.294 40 522.294Z" fill="#C8C5D6"/>
<path fill-rule="evenodd" clip-rule="evenodd" d="M66.0364 499.523C66.1884 498.379 66.2669 497.213 66.2669 496.028C66.2669 495.355 66.2415 494.687 66.1918 494.027H31.5625C30.3017 494.027 29.28 495.049 29.28 496.309V499.523H66.0364Z" fill="#48367D"/>
<path d="M34.9901 496.797C34.9901 497.427 34.4796 497.938 33.8494 497.938C33.2192 497.938 32.708 497.427 32.708 496.797C32.708 496.166 33.2192 495.656 33.8494 495.656C34.4796 495.656 34.9901 496.166 34.9901 496.797Z" fill="white"/>
<path d="M38.7349 496.775C38.7349 497.405 38.2241 497.916 37.5943 497.916C36.9637 497.916 36.4529 497.405 36.4529 496.775C36.4529 496.145 36.9637 495.634 37.5943 495.634C38.2241 495.634 38.7349 496.145 38.7349 496.775Z" fill="white"/>
<path d="M42.5394 496.775C42.5394 497.405 42.0286 497.916 41.3987 497.916C40.7685 497.916 40.2573 497.405 40.2573 496.775C40.2573 496.145 40.7685 495.634 41.3987 495.634C42.0286 495.634 42.5394 496.145 42.5394 496.775Z" fill="white"/>
<path d="M70.76 558.027C70.76 572.533 82.5198 584.293 97.0268 584.293C111.534 584.293 123.294 572.533 123.294 558.027C123.294 543.52 111.534 531.76 97.0268 531.76C82.5198 531.76 70.76 543.52 70.76 558.027Z" fill="#EEEDF3"/>
<path d="M106.208 566.068C106.208 566.068 103.103 574.168 91.389 574.678L85.3102 564.602" fill="#FFD3BA"/>
<path d="M88.6313 558.526C88.6313 558.526 95.7344 563.231 93.1949 574.678L88.6247 575.863" fill="#FFD3BA"/>
<path fill-rule="evenodd" clip-rule="evenodd" d="M82.6741 580.334L94.8281 573.843L86.7639 562.923L73.5126 570.051C75.6037 574.238 78.7804 577.789 82.6741 580.334Z" fill="#FFD3BA"/>
<path d="M83.7314 570.278C83.0065 570.276 82.2824 569.997 81.7308 569.442C80.628 568.332 80.6331 566.538 81.743 565.435C86.9141 560.296 83.675 551.468 83.6413 551.379C83.0813 549.919 83.8128 548.284 85.274 547.724C86.7345 547.163 88.3746 547.898 88.935 549.359C89.1267 549.859 93.5419 561.697 85.7374 569.454C85.1824 570.006 84.4566 570.28 83.7314 570.278Z" fill="#FFD3BA"/>
<path d="M93.4029 548.627C92.8312 547.635 92.2564 546.644 91.6878 545.65C90.9494 544.356 91.6775 542.781 93.1398 542.504C93.2662 542.48 93.3946 542.47 93.523 542.47C95.0558 542.471 96.5875 542.47 98.1203 542.47C99.7556 542.47 100.774 544.202 99.9679 545.626C99.417 546.602 98.8494 547.568 98.2891 548.538C98.2726 548.566 98.2591 548.597 98.2446 548.626C96.9283 548.627 95.6119 548.629 94.2966 548.63C93.9984 548.631 93.7011 548.629 93.4029 548.627Z" fill="#FF985F"/>
<path d="M93.404 548.63C93.7023 548.631 93.9996 548.634 94.2978 548.634C95.6141 548.633 96.9305 548.632 98.2458 548.631C98.3245 548.632 98.4032 548.634 98.4819 548.634C98.8444 548.636 99.1199 548.9 99.123 549.251C99.1271 549.593 98.8547 549.866 98.5005 549.877C98.4757 549.878 98.4508 549.879 98.426 549.881C97.5229 549.88 96.6198 549.878 95.7167 549.877C95.5137 549.877 95.3107 549.882 95.1077 549.875C95.0135 549.871 94.9886 549.9 94.9896 549.994C94.9938 550.449 94.9917 550.905 94.9917 551.361C94.9917 552.496 94.9928 553.631 94.9907 554.766C94.9896 555.265 94.4987 555.573 94.072 555.342C93.838 555.215 93.7417 555.006 93.7417 554.745C93.7427 553.304 93.7417 551.862 93.7417 550.42C93.7417 550.275 93.7386 550.13 93.7427 549.985C93.7448 549.909 93.7261 549.871 93.6402 549.876C93.4993 549.883 93.3585 549.88 93.2176 549.881C92.822 549.865 92.5745 549.668 92.5299 549.336C92.4813 548.969 92.7599 548.643 93.1296 548.635C93.2218 548.632 93.3129 548.631 93.404 548.63Z" fill="#FD5B24"/>
<path d="M105.765 559.135C105.367 556.97 104.363 555.123 102.752 553.626C101.742 552.687 100.667 551.822 99.6263 550.918C99.2265 550.571 98.8257 550.225 98.4259 549.878C97.5228 549.877 96.6197 549.876 95.7166 549.872C95.5136 549.872 95.3107 549.878 95.1077 549.87C95.0145 549.867 94.9886 549.896 94.9896 549.989C94.9937 550.445 94.9917 550.901 94.9917 551.357C94.9917 552.492 94.9927 553.627 94.9906 554.762C94.9896 555.261 94.4987 555.569 94.072 555.338C93.8379 555.211 93.7416 555.003 93.7416 554.741C93.7416 553.299 93.7416 551.858 93.7416 550.416C93.7416 550.271 93.7385 550.126 93.7427 549.981C93.7447 549.905 93.7261 549.867 93.6401 549.871C93.4993 549.879 93.3584 549.876 93.2176 549.877C93.1948 549.9 93.1741 549.925 93.1492 549.947C92.1167 550.835 91.0831 551.721 90.0516 552.611C89.4602 553.122 88.8492 553.612 88.323 554.196C86.841 555.843 85.9907 557.77 85.7598 559.97C85.6459 561.052 85.7132 562.127 85.9534 563.19C86.4009 565.17 87.3443 566.876 88.844 568.248C90.9547 570.179 93.463 571.04 96.3132 570.93C97.8325 570.87 99.27 570.491 100.617 569.787C102.511 568.798 103.954 567.358 104.899 565.439C105.884 563.439 106.166 561.329 105.765 559.135Z" fill="#FF985F"/>
<path d="M93.3477 561.906H94.0645V561.179L94.4689 560.693L95.2779 561.906H96.0766L94.899 560.181L95.9179 558.957H95.1089L94.0645 560.319V557.938H93.3477V561.906Z" fill="#FFF4EC"/>
<path d="M97.746 559.679C97.8484 559.679 97.9713 559.704 98.0839 559.745L98.13 558.916C98.0635 558.89 97.9815 558.875 97.9047 558.875C97.6231 558.875 97.275 559.018 97.0446 559.582V558.957H96.3227V561.906H97.0446V560.462C97.0446 559.832 97.403 559.679 97.746 559.679Z" fill="#FFF4EC"/>
<path d="M109.561 560.492L105.62 560.893C104.2 561.011 102.953 559.955 102.836 558.535C102.718 557.115 103.773 555.868 105.193 555.75L109.135 555.35C110.555 555.232 111.802 556.288 111.92 557.708C112.037 559.128 110.981 560.374 109.561 560.492Z" fill="#FFD3BA"/>
<path d="M108.781 566.365L104.82 566.439C103.395 566.44 102.24 565.285 102.239 563.86C102.239 562.435 103.393 561.28 104.819 561.279L108.78 561.205C110.204 561.204 111.36 562.359 111.361 563.784C111.361 565.209 110.206 566.364 108.781 566.365Z" fill="#FFD3BA"/>
<path d="M107.89 571.634L103.94 571.339C102.521 571.207 101.478 569.949 101.611 568.531C101.743 567.112 103 566.069 104.419 566.202L108.37 566.497C109.788 566.629 110.832 567.886 110.699 569.305C110.567 570.724 109.309 571.767 107.89 571.634Z" fill="#FFD3BA"/>
<path d="M66.2938 419.947C66.2938 434.454 54.5336 446.214 40.0269 446.214C25.5202 446.214 13.76 434.454 13.76 419.947C13.76 405.44 25.5202 393.68 40.0269 393.68C54.5336 393.68 66.2938 405.44 66.2938 419.947Z" fill="#EEEDF3"/>
<path d="M52.2581 432.027H22.8465C21.9961 432.027 21.3069 431.338 21.3069 430.487V407.407C21.3069 406.556 21.9961 405.867 22.8465 405.867H52.2581C53.1083 405.867 53.7978 406.556 53.7978 407.407V430.487C53.7978 431.338 53.1083 432.027 52.2581 432.027Z" fill="#C8C5D6"/>
<path d="M52.203 405.867H22.9017C22.0208 405.867 21.3069 406.581 21.3069 407.461V409.707H53.7978V407.461C53.7978 406.581 53.0839 405.867 52.203 405.867Z" fill="#48367D"/>
<path d="M25.2964 407.802C25.2964 408.242 24.9397 408.599 24.4994 408.599C24.0591 408.599 23.7019 408.242 23.7019 407.802C23.7019 407.362 24.0591 407.005 24.4994 407.005C24.9397 407.005 25.2964 407.362 25.2964 407.802Z" fill="white"/>
<path d="M27.9131 407.787C27.9131 408.227 27.5562 408.584 27.1161 408.584C26.6755 408.584 26.3186 408.227 26.3186 407.787C26.3186 407.346 26.6755 406.99 27.1161 406.99C27.5562 406.99 27.9131 407.346 27.9131 407.787Z" fill="white"/>
<path d="M30.5716 407.787C30.5716 408.227 30.2146 408.584 29.7746 408.584C29.3342 408.584 28.9771 408.227 28.9771 407.787C28.9771 407.346 29.3342 406.99 29.7746 406.99C30.2146 406.99 30.5716 407.346 30.5716 407.787Z" fill="white"/>
<path d="M40.7553 424.299H35.0652C33.6221 424.299 32.4414 423.118 32.4414 421.675V415.985C32.4414 414.542 33.6221 413.361 35.0652 413.361H40.7553C42.1984 413.361 43.3791 414.542 43.3791 415.985V421.675C43.3791 423.118 42.1984 424.299 40.7553 424.299Z" fill="white"/>
<path fill-rule="evenodd" clip-rule="evenodd" d="M41.4865 415.505C41.6626 415.633 41.7021 415.879 41.5748 416.055L37.8854 421.157C37.824 421.242 37.7313 421.298 37.6279 421.315C37.5245 421.331 37.4188 421.306 37.3342 421.244L35.2029 419.686C35.0274 419.558 34.9891 419.312 35.1174 419.136C35.2456 418.961 35.4919 418.922 35.6673 419.051L37.4793 420.375L40.9369 415.594C41.0643 415.418 41.3103 415.378 41.4865 415.505Z" fill="#48367D"/>
<path fill-rule="evenodd" clip-rule="evenodd" d="M46.394 421.947C45.8819 421.947 45.4668 422.362 45.4668 422.874V438.192C45.4668 438.704 45.8819 439.119 46.394 439.119H62.7502C62.7659 439.119 62.7815 439.119 62.7969 439.118C62.8175 439.118 62.8381 439.119 62.8587 439.119H70.9868C72.0914 439.119 72.9868 438.223 72.9868 437.119V434.875C72.9868 434.542 72.9034 434.214 72.7441 433.921L69.9694 428.815C69.6194 428.171 68.9451 427.77 68.2121 427.77H63.6775V422.874C63.6775 422.362 63.2623 421.947 62.7502 421.947H46.394Z" fill="#FF985F"/>
<path d="M67.6639 429.655L70.1111 433.151C70.5413 433.765 70.1017 434.61 69.3515 434.61H66.9043C66.3922 434.61 65.9771 434.195 65.9771 433.683V430.187C65.9771 429.28 67.144 428.912 67.6639 429.655Z" fill="#FFF4EC"/>
<path d="M54.5764 439.112C54.5764 440.767 53.2346 442.109 51.5793 442.109C49.9241 442.109 48.5823 440.767 48.5823 439.112C48.5823 437.457 49.9241 436.115 51.5793 436.115C53.2346 436.115 54.5764 437.457 54.5764 439.112Z" fill="#FF985F"/>
<path d="M69.9314 439.112C69.9314 440.767 68.5896 442.109 66.9343 442.109C65.2791 442.109 63.9373 440.767 63.9373 439.112C63.9373 437.457 65.2791 436.115 66.9343 436.115C68.5896 436.115 69.9314 437.457 69.9314 439.112Z" fill="#FF985F"/>
<defs>
<filter id="filter0_d" x="13.473" y="182.635" width="23.968" height="8.048" filterUnits="userSpaceOnUse" color-interpolation-filters="sRGB">
<feFlood flood-opacity="0" result="BackgroundImageFix"/>
<feColorMatrix in="SourceAlpha" type="matrix" values="0 0 0 0 0 0 0 0 0 0 0 0 0 0 0 0 0 0 127 0"/>
<feOffset dy="0.112"/>
<feGaussianBlur stdDeviation="0.112"/>
<feColorMatrix type="matrix" values="0 0 0 0 0.0862745 0 0 0 0 0.0705882 0 0 0 0 0.145098 0 0 0 0.07 0"/>
<feBlend mode="normal" in2="BackgroundImageFix" result="effect1_dropShadow"/>
<feBlend mode="normal" in="SourceGraphic" in2="effect1_dropShadow" result="shape"/>
</filter>
</defs>
</svg>
