<svg width="224" height="618" viewBox="0 0 224 618" fill="none" xmlns="http://www.w3.org/2000/svg">
<g clip-path="url(#clip0)">
<line x1="39" y1="557.25" x2="97" y2="557.25" stroke="#49367E" stroke-width="1.5" stroke-dasharray="4 4"/>
<line x1="39.75" y1="492" x2="39.75" y2="558" stroke="#49367E" stroke-width="1.5" stroke-dasharray="4 4"/>
<line x1="39" y1="268.25" x2="96" y2="268.25" stroke="#49367E" stroke-width="1.5" stroke-dasharray="4 4"/>
<line x1="39.75" y1="40" x2="39.75" y2="492" stroke="#FF5B24" stroke-width="1.5"/>
<path d="M65.8039 192.027C65.8039 206.534 54.044 218.294 39.537 218.294C25.0303 218.294 13.2702 206.534 13.2702 192.027C13.2702 177.52 25.0303 165.76 39.537 165.76C54.044 165.76 65.8039 177.52 65.8039 192.027Z" fill="#EEEDF3"/>
<path d="M41.6961 198.664H9.144C8.20283 198.664 7.44 197.901 7.44 196.96V171.415C7.44 170.474 8.20283 169.711 9.144 169.711H41.6961C42.637 169.711 43.4001 170.474 43.4001 171.415V196.96C43.4001 197.901 42.637 198.664 41.6961 198.664Z" fill="#C8C5D6"/>
<path d="M41.635 169.711H9.20506C8.23009 169.711 7.44 170.501 7.44 171.476V173.961H43.4001V171.476C43.4001 170.501 42.61 169.711 41.635 169.711Z" fill="#48367D"/>
<path d="M11.8557 171.853C11.8557 172.34 11.4609 172.735 10.9736 172.735C10.4862 172.735 10.0909 172.34 10.0909 171.853C10.0909 171.365 10.4862 170.97 10.9736 170.97C11.4609 170.97 11.8557 171.365 11.8557 171.853Z" fill="white"/>
<path d="M14.7515 171.836C14.7515 172.323 14.3564 172.718 13.8694 172.718C13.3817 172.718 12.9867 172.323 12.9867 171.836C12.9867 171.349 13.3817 170.953 13.8694 170.953C14.3564 170.953 14.7515 171.349 14.7515 171.836Z" fill="white"/>
<path d="M17.6938 171.836C17.6938 172.323 17.2987 172.718 16.8117 172.718C16.3243 172.718 15.929 172.323 15.929 171.836C15.929 171.349 16.3243 170.953 16.8117 170.953C17.2987 170.953 17.6938 171.349 17.6938 171.836Z" fill="white"/>
<g filter="url(#filter0_d)">
<rect x="13.6971" y="182.747" width="23.52" height="7.6" rx="0.56" fill="#FF5B24"/>
</g>
<path d="M21.0348 185.267V187.667H21.8828C22.3884 187.667 22.7052 187.356 22.7052 186.963C22.7052 186.742 22.59 186.508 22.2892 186.403C22.5004 186.288 22.6028 186.08 22.6028 185.913C22.6028 185.52 22.3308 185.267 21.838 185.267H21.0348ZM21.4988 186.633H21.8668C22.1004 186.633 22.254 186.768 22.254 186.944C22.254 187.158 22.0908 187.244 21.87 187.244H21.4988V186.633ZM21.4988 185.689H21.8316C22.046 185.689 22.1644 185.798 22.1644 185.984C22.1644 186.163 22.0268 186.275 21.8316 186.275H21.4988V185.689ZM23.8282 186.15C24.0426 186.15 24.2186 186.252 24.257 186.518H23.3962C23.4506 186.262 23.6074 186.15 23.8282 186.15ZM24.689 186.841V186.7C24.689 186.156 24.337 185.772 23.8442 185.772C23.3194 185.772 22.9226 186.147 22.9226 186.739C22.9226 187.347 23.345 187.715 23.889 187.715C24.2282 187.715 24.6378 187.52 24.7082 187.094L24.2986 187.03C24.2634 187.206 24.1514 187.318 23.873 187.318C23.5786 187.318 23.4122 187.129 23.3834 186.841H24.689ZM25.1786 185.379V185.824H24.8618V186.198H25.1786V187.206C25.1786 187.481 25.297 187.699 25.6778 187.699C25.8378 187.699 26.0106 187.654 26.1194 187.606L26.0554 187.257C25.969 187.276 25.8922 187.289 25.809 187.289C25.6714 187.289 25.6298 187.222 25.6298 187.091V186.198H26.0842V185.824H25.6298V185.315L25.1786 185.379ZM27.0691 187.715C27.3571 187.715 27.5523 187.58 27.6803 187.408V187.667H28.1315V185.824H27.6803V186.06C27.5299 185.856 27.3411 185.772 27.1203 185.772C26.7075 185.772 26.2979 186.083 26.2979 186.726C26.2979 187.401 26.7107 187.715 27.0691 187.715ZM27.2195 186.169C27.4627 186.169 27.6803 186.358 27.6803 186.748C27.6803 187.152 27.4627 187.315 27.2163 187.315C26.9891 187.315 26.7523 187.142 26.7523 186.748C26.7523 186.348 26.9923 186.169 27.2195 186.169ZM28.5659 185.187V187.667H29.0139V185.187H28.5659Z" fill="white"/>
<path d="M57.2456 210.832L57.3618 210.148L58.711 199.556L52.3244 194.778L43.3336 197.332L44.1684 211.199C48.3979 212.215 52.5908 212.065 57.2456 210.832Z" fill="#FFD3BA"/>
<path d="M45.5485 202.818C44.8211 202.22 44.5021 201.213 44.824 200.269C45.8586 197.239 45.9976 195.504 46.0514 193.986C46.0971 192.703 47.1745 191.699 48.4583 191.745C49.7417 191.79 50.7455 192.868 50.7001 194.151C50.6219 196.364 50.3412 198.507 49.2262 201.772C48.8113 202.988 47.4894 203.637 46.2737 203.222C46.002 203.129 45.7582 202.991 45.5485 202.818Z" fill="#FFD3BA"/>
<path d="M50.06 202.171C49.3115 201.556 49.0002 200.511 49.3608 199.554C49.9827 197.904 50.2583 196.382 50.1797 195.027C50.1059 193.745 51.0856 192.646 52.3678 192.571C53.65 192.497 54.7498 193.476 54.8238 194.759C54.9398 196.767 54.5663 198.932 53.7133 201.195C53.2603 202.397 51.9188 203.004 50.7168 202.551C50.4721 202.458 50.2516 202.329 50.06 202.171Z" fill="#FFD3BA"/>
<path d="M54.9084 203.254C54.0757 202.759 53.6104 201.772 53.8227 200.772C54.1891 199.048 54.2325 197.501 53.9512 196.173C53.6851 194.917 54.4878 193.682 55.7445 193.416C57.0009 193.15 58.2356 193.952 58.5017 195.209C58.919 197.177 58.8758 199.374 58.3732 201.738C58.1062 202.995 56.8713 203.797 55.6148 203.53C55.359 203.475 55.1218 203.381 54.9084 203.254Z" fill="#FFD3BA"/>
<path d="M43.7448 217.534C43.1174 212.88 41.5549 211.35 41.3256 211.043C41.108 210.752 39.0711 208.457 38.3198 207.092C37.389 205.399 36.2921 202.985 37.2429 201.012C38.1745 199.079 40.5023 199.467 42.3104 198.023L46.1845 196.608C47.7235 196.344 49.185 197.378 49.4493 198.917C49.713 200.456 48.6791 201.917 47.1401 202.181L46.3765 203.002C46.097 203.116 46.3349 203.905 46.4075 204.235C46.8499 205.024 45.2919 206.494 46.0138 207.462C46.9477 208.713 46.6901 210.485 45.4385 211.419C44.4943 212.124 43.893 218.633 43.7448 217.534Z" fill="#FFD3BA"/>
<path fill-rule="evenodd" clip-rule="evenodd" d="M57.508 211.184C53.6592 214.796 48.7216 217.261 43.2404 218.035C43.106 212.354 42.8155 207.362 42.2274 206.07C40.6862 202.682 55.3286 207.258 55.3286 207.258C55.3286 207.258 57.6281 201.701 57.508 211.184Z" fill="#FFD3BA"/>
<path d="M37.7151 187.7C37.7151 187.7 41.5887 188.896 43.0093 190.841C45.1111 193.719 44.4638 198.131 42.5913 201.421" stroke="#FFD2BA" stroke-width="6.16" stroke-linecap="round" stroke-linejoin="round"/>
<circle cx="39.5" cy="116.458" r="4.5" fill="white" stroke="#FF5B24" stroke-width="2"/>
<circle cx="96.3733" cy="267.5" r="4.5" fill="white" stroke="#49367E" stroke-width="2"/>
<circle cx="40.0081" cy="40.5" r="4.5" fill="white" stroke="#FF5B24" stroke-width="2"/>
<path d="M106.432 342.216C106.072 340.008 104.176 338.82 102.292 338.82C99.724 338.82 97.6 340.68 97.6 343.44C97.6 346.392 99.748 348.18 102.328 348.18C104.068 348.18 106.24 347.016 106.504 344.544L104.884 344.304C104.752 346.092 103.528 346.644 102.328 346.644C100.624 346.644 99.292 345.672 99.292 343.44C99.292 341.412 100.624 340.356 102.232 340.356C103.336 340.356 104.548 340.812 104.812 342.456L106.432 342.216ZM114.194 348L114.194 341.088L112.694 341.088L112.694 345.108C112.694 346.284 111.914 346.824 110.906 346.824C109.982 346.824 109.526 346.416 109.526 345.348L109.526 341.088L108.026 341.088L108.026 345.912C108.026 347.508 109.178 348.18 110.33 348.18C111.194 348.18 112.154 347.784 112.694 346.836L112.694 348L114.194 348ZM115.945 343.032C115.945 343.992 116.497 344.7 117.673 344.952L118.933 345.228C119.797 345.42 120.037 345.672 120.037 346.08C120.037 346.656 119.473 346.98 118.645 346.98C117.673 346.98 117.037 346.524 116.941 345.672L115.609 345.912C115.837 347.52 117.337 348.18 118.681 348.18C120.013 348.18 121.429 347.436 121.429 345.936C121.429 344.976 120.865 344.328 119.641 344.064L118.273 343.764C117.577 343.608 117.337 343.272 117.337 342.912C117.337 342.408 117.817 342.096 118.501 342.096C119.329 342.096 119.941 342.396 119.989 343.296L121.321 343.056C120.925 341.508 119.881 340.896 118.489 340.896C117.361 340.896 115.945 341.52 115.945 343.032ZM123.425 339.42L123.425 341.088L122.141 341.088L122.141 342.3L123.425 342.3L123.425 346.056C123.425 347.328 124.061 348.12 125.441 348.12C125.861 348.12 126.353 348.012 126.713 347.904L126.473 346.692C126.197 346.764 126.029 346.8 125.753 346.8C125.141 346.8 124.925 346.524 124.925 345.984L124.925 342.3L126.653 342.3L126.653 341.088L124.925 341.088L124.925 339.18L123.425 339.42ZM131.112 340.896C129.24 340.896 127.692 342.264 127.692 344.532C127.692 346.8 129.24 348.18 131.112 348.18C132.984 348.18 134.532 346.8 134.532 344.532C134.532 342.264 132.984 340.896 131.112 340.896ZM131.112 342.192C132.144 342.192 133.02 342.948 133.02 344.532C133.02 346.116 132.144 346.884 131.112 346.884C130.08 346.884 129.204 346.116 129.204 344.532C129.204 342.948 130.08 342.192 131.112 342.192ZM143.666 342.252C144.518 342.252 145.166 342.732 145.166 344.016L145.166 348L146.666 348L146.666 343.368C146.666 341.508 145.526 340.896 144.266 340.896C143.498 340.896 142.526 341.208 142.01 342.24C141.638 341.256 140.762 340.896 139.838 340.896C139.01 340.896 138.014 341.22 137.522 342.108L137.522 341.088L136.022 341.088L136.022 348L137.522 348L137.522 344.052C137.522 342.816 138.23 342.252 139.19 342.252C140.042 342.252 140.69 342.732 140.69 344.016L140.69 348L142.19 348L142.19 344.052C142.19 342.816 142.814 342.252 143.666 342.252ZM151.562 342.192C152.534 342.192 153.302 342.648 153.422 343.8L149.666 343.8C149.87 342.732 150.566 342.192 151.562 342.192ZM154.838 344.868L154.838 344.376C154.838 342.336 153.494 340.896 151.622 340.896C149.618 340.896 148.094 342.3 148.094 344.52C148.094 346.8 149.678 348.18 151.718 348.18C152.99 348.18 154.526 347.448 154.79 345.852L153.398 345.612C153.242 346.404 152.786 346.884 151.658 346.884C150.41 346.884 149.726 346.08 149.618 344.868L154.838 344.868ZM159.631 342.516C160.003 342.516 160.267 342.564 160.531 342.672L160.675 340.992C160.531 340.92 160.327 340.896 160.147 340.896C159.463 340.896 158.383 341.292 157.819 342.744L157.819 341.088L156.319 341.088L156.319 348L157.819 348L157.819 344.976C157.819 343.056 158.659 342.516 159.631 342.516ZM171.422 343.776C171.17 341.916 169.694 340.896 168.086 340.896C166.106 340.896 164.606 342.3 164.606 344.532C164.606 346.668 166.082 348.18 168.194 348.18C169.526 348.18 171.086 347.448 171.41 345.336L170.042 345.096C169.886 346.272 169.238 346.872 168.182 346.872C166.778 346.872 166.118 345.804 166.118 344.532C166.118 342.996 166.958 342.192 168.014 342.192C168.974 342.192 169.778 342.708 169.946 344.016L171.422 343.776ZM175.819 340.896C173.947 340.896 172.399 342.264 172.399 344.532C172.399 346.8 173.947 348.18 175.819 348.18C177.691 348.18 179.239 346.8 179.239 344.532C179.239 342.264 177.691 340.896 175.819 340.896ZM175.819 342.192C176.851 342.192 177.727 342.948 177.727 344.532C177.727 346.116 176.851 346.884 175.819 346.884C174.787 346.884 173.911 346.116 173.911 344.532C173.911 342.948 174.787 342.192 175.819 342.192ZM183.934 342.252C184.75 342.252 185.398 342.732 185.398 344.016L185.398 348L186.898 348L186.898 343.368C186.898 341.508 185.722 340.896 184.486 340.896C183.67 340.896 182.722 341.232 182.23 342.108L182.23 341.088L180.73 341.088L180.73 348L182.23 348L182.23 344.052C182.23 342.816 182.938 342.252 183.934 342.252ZM189.153 348L190.653 348L190.653 342.3L192.369 342.3L192.369 341.088L190.653 341.088L190.653 340.812C190.653 340.152 190.845 339.804 191.481 339.804C191.649 339.804 191.793 339.816 191.937 339.84L192.045 338.568C191.853 338.508 191.601 338.472 191.313 338.472C190.017 338.472 189.153 339.288 189.153 340.824L189.153 341.088L188.205 341.088L188.205 342.3L189.153 342.3L189.153 348ZM193.433 341.088L193.433 348L194.933 348L194.933 341.088L193.433 341.088ZM194.177 338.1C193.673 338.1 193.277 338.508 193.277 339C193.277 339.492 193.673 339.9 194.177 339.9C194.681 339.9 195.077 339.492 195.077 339C195.077 338.508 194.681 338.1 194.177 338.1ZM200.167 342.516C200.539 342.516 200.803 342.564 201.067 342.672L201.211 340.992C201.067 340.92 200.863 340.896 200.683 340.896C199.999 340.896 198.919 341.292 198.355 342.744L198.355 341.088L196.855 341.088L196.855 348L198.355 348L198.355 344.976C198.355 343.056 199.195 342.516 200.167 342.516ZM209.983 342.252C210.835 342.252 211.483 342.732 211.483 344.016L211.483 348L212.983 348L212.983 343.368C212.983 341.508 211.843 340.896 210.583 340.896C209.815 340.896 208.843 341.208 208.327 342.24C207.955 341.256 207.079 340.896 206.155 340.896C205.327 340.896 204.331 341.22 203.839 342.108L203.839 341.088L202.339 341.088L202.339 348L203.839 348L203.839 344.052C203.839 342.816 204.547 342.252 205.507 342.252C206.359 342.252 207.007 342.732 207.007 344.016L207.007 348L208.507 348L208.507 344.052C208.507 342.816 209.131 342.252 209.983 342.252ZM214.699 343.032C214.699 343.992 215.251 344.7 216.427 344.952L217.687 345.228C218.551 345.42 218.791 345.672 218.791 346.08C218.791 346.656 218.227 346.98 217.399 346.98C216.427 346.98 215.791 346.524 215.695 345.672L214.363 345.912C214.591 347.52 216.091 348.18 217.435 348.18C218.767 348.18 220.183 347.436 220.183 345.936C220.183 344.976 219.619 344.328 218.395 344.064L217.027 343.764C216.331 343.608 216.091 343.272 216.091 342.912C216.091 342.408 216.571 342.096 217.255 342.096C218.083 342.096 218.695 342.396 218.743 343.296L220.075 343.056C219.679 341.508 218.635 340.896 217.243 340.896C216.115 340.896 214.699 341.52 214.699 343.032Z" fill="#FF5B24"/>
<path d="M106.432 409.216C106.072 407.008 104.176 405.82 102.292 405.82C99.724 405.82 97.6 407.68 97.6 410.44C97.6 413.392 99.748 415.18 102.328 415.18C104.068 415.18 106.24 414.016 106.504 411.544L104.884 411.304C104.752 413.092 103.528 413.644 102.328 413.644C100.624 413.644 99.292 412.672 99.292 410.44C99.292 408.412 100.624 407.356 102.232 407.356C103.336 407.356 104.548 407.812 104.812 409.456L106.432 409.216ZM111.05 407.896C109.178 407.896 107.63 409.264 107.63 411.532C107.63 413.8 109.178 415.18 111.05 415.18C112.922 415.18 114.47 413.8 114.47 411.532C114.47 409.264 112.922 407.896 111.05 407.896ZM111.05 409.192C112.082 409.192 112.958 409.948 112.958 411.532C112.958 413.116 112.082 413.884 111.05 413.884C110.018 413.884 109.142 413.116 109.142 411.532C109.142 409.948 110.018 409.192 111.05 409.192ZM119.164 409.252C119.98 409.252 120.628 409.732 120.628 411.016L120.628 415L122.128 415L122.128 410.368C122.128 408.508 120.952 407.896 119.716 407.896C118.9 407.896 117.952 408.232 117.46 409.108L117.46 408.088L115.96 408.088L115.96 415L117.46 415L117.46 411.052C117.46 409.816 118.168 409.252 119.164 409.252ZM124.383 415L125.883 415L125.883 409.3L127.599 409.3L127.599 408.088L125.883 408.088L125.883 407.812C125.883 407.152 126.075 406.804 126.711 406.804C126.879 406.804 127.023 406.816 127.167 406.84L127.275 405.568C127.083 405.508 126.831 405.472 126.543 405.472C125.247 405.472 124.383 406.288 124.383 407.824L124.383 408.088L123.435 408.088L123.435 409.3L124.383 409.3L124.383 415ZM128.663 408.088L128.663 415L130.163 415L130.163 408.088L128.663 408.088ZM129.407 405.1C128.903 405.1 128.507 405.508 128.507 406C128.507 406.492 128.903 406.9 129.407 406.9C129.911 406.9 130.307 406.492 130.307 406C130.307 405.508 129.911 405.1 129.407 405.1ZM135.397 409.516C135.769 409.516 136.033 409.564 136.297 409.672L136.441 407.992C136.297 407.92 136.093 407.896 135.913 407.896C135.229 407.896 134.149 408.292 133.585 409.744L133.585 408.088L132.085 408.088L132.085 415L133.585 415L133.585 411.976C133.585 410.056 134.425 409.516 135.397 409.516ZM145.213 409.252C146.065 409.252 146.713 409.732 146.713 411.016L146.713 415L148.213 415L148.213 410.368C148.213 408.508 147.073 407.896 145.813 407.896C145.045 407.896 144.073 408.208 143.557 409.24C143.185 408.256 142.309 407.896 141.385 407.896C140.557 407.896 139.561 408.22 139.069 409.108L139.069 408.088L137.569 408.088L137.569 415L139.069 415L139.069 411.052C139.069 409.816 139.777 409.252 140.737 409.252C141.589 409.252 142.237 409.732 142.237 411.016L142.237 415L143.737 415L143.737 411.052C143.737 409.816 144.361 409.252 145.213 409.252ZM156.296 407.896C154.424 407.896 152.876 409.264 152.876 411.532C152.876 413.8 154.424 415.18 156.296 415.18C158.168 415.18 159.716 413.8 159.716 411.532C159.716 409.264 158.168 407.896 156.296 407.896ZM156.296 409.192C157.328 409.192 158.204 409.948 158.204 411.532C158.204 413.116 157.328 413.884 156.296 413.884C155.264 413.884 154.388 413.116 154.388 411.532C154.388 409.948 155.264 409.192 156.296 409.192ZM164.518 409.516C164.89 409.516 165.154 409.564 165.418 409.672L165.562 407.992C165.418 407.92 165.214 407.896 165.034 407.896C164.35 407.896 163.27 408.292 162.706 409.744L162.706 408.088L161.206 408.088L161.206 415L162.706 415L162.706 411.976C162.706 410.056 163.546 409.516 164.518 409.516ZM173.182 405.7L171.682 405.7L171.682 409.444C171.19 408.352 170.446 407.896 169.51 407.896C167.902 407.896 166.306 409.06 166.306 411.472C166.306 414.004 167.914 415.18 169.318 415.18C170.578 415.18 171.334 414.52 171.682 413.692L171.682 415L173.182 415L173.182 405.7ZM169.762 409.192C170.77 409.192 171.682 409.996 171.682 411.556C171.682 413.164 170.77 413.872 169.75 413.872C168.802 413.872 167.818 413.128 167.818 411.556C167.818 409.96 168.814 409.192 169.762 409.192ZM178.141 409.192C179.113 409.192 179.881 409.648 180.001 410.8L176.245 410.8C176.449 409.732 177.145 409.192 178.141 409.192ZM181.417 411.868L181.417 411.376C181.417 409.336 180.073 407.896 178.201 407.896C176.197 407.896 174.673 409.3 174.673 411.52C174.673 413.8 176.257 415.18 178.297 415.18C179.569 415.18 181.105 414.448 181.369 412.852L179.977 412.612C179.821 413.404 179.365 413.884 178.237 413.884C176.989 413.884 176.305 413.08 176.197 411.868L181.417 411.868ZM186.209 409.516C186.582 409.516 186.845 409.564 187.11 409.672L187.254 407.992C187.11 407.92 186.906 407.896 186.726 407.896C186.042 407.896 184.962 408.292 184.397 409.744L184.398 408.088L182.898 408.088L182.897 415L184.397 415L184.397 411.976C184.397 410.056 185.237 409.516 186.209 409.516ZM194.268 415.18C195.504 415.18 196.26 414.424 196.608 413.572L196.608 415L198.108 415L198.108 408.088L196.608 408.088L196.608 409.444C196.116 408.352 195.36 407.896 194.28 407.896C192.828 407.896 191.232 409.06 191.232 411.472C191.232 414.004 192.84 415.18 194.268 415.18ZM194.688 409.192C195.696 409.192 196.608 409.96 196.608 411.556C196.608 413.2 195.696 413.872 194.676 413.872C193.728 413.872 192.744 413.164 192.744 411.556C192.744 409.924 193.74 409.192 194.688 409.192ZM203.234 409.252C204.05 409.252 204.698 409.732 204.698 411.016L204.698 415L206.198 415L206.198 410.368C206.198 408.508 205.022 407.896 203.786 407.896C202.97 407.896 202.022 408.232 201.53 409.108L201.53 408.088L200.03 408.088L200.03 415L201.53 415L201.53 411.052C201.53 409.816 202.238 409.252 203.234 409.252ZM214.55 405.7L213.05 405.7L213.05 409.444C212.558 408.352 211.814 407.896 210.878 407.896C209.27 407.896 207.674 409.06 207.674 411.472C207.674 414.004 209.282 415.18 210.686 415.18C211.946 415.18 212.702 414.52 213.05 413.692L213.05 415L214.55 415L214.55 405.7ZM211.13 409.192C212.138 409.192 213.05 409.996 213.05 411.556C213.05 413.164 212.138 413.872 211.118 413.872C210.17 413.872 209.186 413.128 209.186 411.556C209.186 409.96 210.182 409.192 211.13 409.192ZM97.816 430.032C97.816 430.992 98.368 431.7 99.544 431.952L100.804 432.228C101.668 432.42 101.908 432.672 101.908 433.08C101.908 433.656 101.344 433.98 100.516 433.98C99.544 433.98 98.908 433.524 98.812 432.672L97.48 432.912C97.708 434.52 99.208 435.18 100.552 435.18C101.884 435.18 103.3 434.436 103.3 432.936C103.3 431.976 102.736 431.328 101.512 431.064L100.144 430.764C99.448 430.608 99.208 430.272 99.208 429.912C99.208 429.408 99.688 429.096 100.372 429.096C101.2 429.096 101.812 429.396 101.86 430.296L103.192 430.056C102.796 428.508 101.752 427.896 100.36 427.896C99.232 427.896 97.816 428.52 97.816 430.032ZM107.805 429.192C108.777 429.192 109.545 429.648 109.665 430.8L105.909 430.8C106.113 429.732 106.809 429.192 107.805 429.192ZM111.081 431.868L111.081 431.376C111.081 429.336 109.737 427.896 107.865 427.896C105.861 427.896 104.337 429.3 104.337 431.52C104.337 433.8 105.921 435.18 107.961 435.18C109.233 435.18 110.769 434.448 111.033 432.852L109.641 432.612C109.485 433.404 109.029 433.884 107.901 433.884C106.653 433.884 105.969 433.08 105.861 431.868L111.081 431.868ZM115.766 429.252C116.582 429.252 117.23 429.732 117.23 431.016L117.23 435L118.73 435L118.73 430.368C118.73 428.508 117.554 427.896 116.318 427.896C115.502 427.896 114.554 428.232 114.062 429.108L114.062 428.088L112.562 428.088L112.562 435L114.062 435L114.062 431.052C114.062 429.816 114.77 429.252 115.766 429.252ZM127.081 425.7L125.581 425.7L125.581 429.444C125.089 428.352 124.345 427.896 123.409 427.896C121.801 427.896 120.205 429.06 120.205 431.472C120.205 434.004 121.813 435.18 123.217 435.18C124.477 435.18 125.233 434.52 125.581 433.692L125.581 435L127.081 435L127.081 425.7ZM123.661 429.192C124.669 429.192 125.581 429.996 125.581 431.556C125.581 433.164 124.669 433.872 123.649 433.872C122.701 433.872 121.717 433.128 121.717 431.556C121.717 429.96 122.713 429.192 123.661 429.192ZM132.237 428.088L132.237 435L133.737 435L133.737 428.088L132.237 428.088ZM132.981 425.1C132.477 425.1 132.081 425.508 132.081 426C132.081 426.492 132.477 426.9 132.981 426.9C133.485 426.9 133.881 426.492 133.881 426C133.881 425.508 133.485 425.1 132.981 425.1ZM136.187 426.42L136.187 428.088L134.903 428.088L134.903 429.3L136.187 429.3L136.187 433.056C136.187 434.328 136.823 435.12 138.203 435.12C138.623 435.12 139.115 435.012 139.475 434.904L139.235 433.692C138.959 433.764 138.791 433.8 138.515 433.8C137.903 433.8 137.687 433.524 137.687 432.984L137.687 429.3L139.415 429.3L139.415 428.088L137.687 428.088L137.687 426.18L136.187 426.42ZM143.922 429.192C144.894 429.192 145.662 429.648 145.782 430.8L142.026 430.8C142.23 429.732 142.926 429.192 143.922 429.192ZM147.198 431.868L147.198 431.376C147.198 429.336 145.854 427.896 143.982 427.896C141.978 427.896 140.454 429.3 140.454 431.52C140.454 433.8 142.038 435.18 144.078 435.18C145.35 435.18 146.886 434.448 147.15 432.852L145.758 432.612C145.602 433.404 145.146 433.884 144.018 433.884C142.77 433.884 142.086 433.08 141.978 431.868L147.198 431.868ZM156.323 429.252C157.175 429.252 157.823 429.732 157.823 431.016L157.823 435L159.323 435L159.323 430.368C159.323 428.508 158.183 427.896 156.923 427.896C156.155 427.896 155.183 428.208 154.667 429.24C154.295 428.256 153.419 427.896 152.495 427.896C151.667 427.896 150.671 428.22 150.179 429.108L150.179 428.088L148.679 428.088L148.679 435L150.179 435L150.179 431.052C150.179 429.816 150.887 429.252 151.847 429.252C152.699 429.252 153.347 429.732 153.347 431.016L153.347 435L154.847 435L154.847 431.052C154.847 429.816 155.471 429.252 156.323 429.252Z" fill="#FF5B24"/>
<path d="M106.84 500L109.708 491L107.98 491L106.144 497.756L104.272 491L102.724 491L100.912 497.9L99.016 491L97.288 491L100.156 500L101.74 500L103.504 493.556L105.376 500L106.84 500ZM111.073 493.088L111.073 500L112.573 500L112.573 493.088L111.073 493.088ZM111.817 490.1C111.313 490.1 110.917 490.508 110.917 491C110.917 491.492 111.313 491.9 111.817 491.9C112.321 491.9 112.717 491.492 112.717 491C112.717 490.508 112.321 490.1 111.817 490.1ZM115.023 491.42L115.023 493.088L113.739 493.088L113.739 494.3L115.023 494.3L115.023 498.056C115.023 499.328 115.659 500.12 117.039 500.12C117.459 500.12 117.951 500.012 118.311 499.904L118.071 498.692C117.795 498.764 117.627 498.8 117.351 498.8C116.739 498.8 116.523 498.524 116.523 497.984L116.523 494.3L118.251 494.3L118.251 493.088L116.523 493.088L116.523 491.18L115.023 491.42ZM119.722 490.7L119.722 500L121.222 500L121.222 496.052C121.222 494.816 121.93 494.252 122.938 494.252C123.742 494.252 124.39 494.732 124.39 496.016L124.39 500L125.89 500L125.89 495.368C125.89 493.508 124.75 492.896 123.43 492.896C122.698 492.896 121.714 493.22 121.222 494.108L121.222 490.7L119.722 490.7ZM131.061 494.516C131.433 494.516 131.697 494.564 131.961 494.672L132.105 492.992C131.961 492.92 131.757 492.896 131.577 492.896C130.893 492.896 129.813 493.292 129.249 494.744L129.249 493.088L127.749 493.088L127.749 500L129.249 500L129.249 496.976C129.249 495.056 130.089 494.516 131.061 494.516ZM135.885 500.18C137.121 500.18 137.877 499.424 138.225 498.572L138.225 500L139.725 500L139.725 493.088L138.225 493.088L138.225 494.444C137.733 493.352 136.977 492.896 135.897 492.896C134.445 492.896 132.849 494.06 132.849 496.472C132.849 499.004 134.457 500.18 135.885 500.18ZM136.305 494.192C137.313 494.192 138.225 494.96 138.225 496.556C138.225 498.2 137.313 498.872 136.293 498.872C135.345 498.872 134.361 498.164 134.361 496.556C134.361 494.924 135.357 494.192 136.305 494.192ZM151.607 493.088L149.939 493.088L148.463 498.128L146.795 493.088L145.679 493.088L144.023 498.104L142.535 493.088L140.867 493.088L143.351 500L144.647 500L146.243 495.632L147.827 500L149.123 500L151.607 493.088ZM159.82 492.896C158.644 492.896 157.924 493.64 157.48 494.444L157.48 493.088L155.98 493.088L155.98 502.4L157.48 502.4L157.48 498.692C158.056 499.676 158.8 500.18 159.676 500.18C161.284 500.18 162.856 498.956 162.856 496.436C162.856 494.024 161.224 492.896 159.82 492.896ZM159.412 494.192C160.36 494.192 161.344 494.948 161.344 496.52C161.344 498.116 160.36 498.872 159.4 498.872C158.392 498.872 157.48 498.056 157.48 496.52C157.48 494.912 158.392 494.192 159.412 494.192ZM167.046 500.18C168.282 500.18 169.038 499.424 169.386 498.572L169.386 500L170.886 500L170.886 493.088L169.386 493.088L169.386 494.444C168.894 493.352 168.138 492.896 167.058 492.896C165.606 492.896 164.01 494.06 164.01 496.472C164.01 499.004 165.618 500.18 167.046 500.18ZM167.466 494.192C168.474 494.192 169.386 494.96 169.386 496.556C169.386 498.2 168.474 498.872 167.454 498.872C166.506 498.872 165.522 498.164 165.522 496.556C165.522 494.924 166.518 494.192 167.466 494.192ZM173.42 502.4C174.764 502.4 175.628 501.692 176.168 500.288L178.928 493.088L177.26 493.088L175.52 498.488L173.696 493.088L172.028 493.088L174.572 499.472C174.92 500.348 174.596 501.152 173.564 501.152C173.024 501.152 172.688 500.984 172.472 500.852L172.232 502.148C172.556 502.304 172.964 502.4 173.42 502.4ZM187.717 494.252C188.569 494.252 189.217 494.732 189.217 496.016L189.217 500L190.717 500L190.717 495.368C190.717 493.508 189.577 492.896 188.317 492.896C187.549 492.896 186.577 493.208 186.061 494.24C185.689 493.256 184.813 492.896 183.889 492.896C183.061 492.896 182.065 493.22 181.573 494.108L181.573 493.088L180.073 493.088L180.073 500L181.573 500L181.573 496.052C181.573 494.816 182.281 494.252 183.241 494.252C184.093 494.252 184.741 494.732 184.741 496.016L184.741 500L186.241 500L186.241 496.052C186.241 494.816 186.865 494.252 187.717 494.252ZM195.613 494.192C196.585 494.192 197.353 494.648 197.473 495.8L193.717 495.8C193.921 494.732 194.617 494.192 195.613 494.192ZM198.889 496.868L198.889 496.376C198.889 494.336 197.545 492.896 195.673 492.896C193.669 492.896 192.145 494.3 192.145 496.52C192.145 498.8 193.729 500.18 195.769 500.18C197.041 500.18 198.577 499.448 198.841 497.852L197.449 497.612C197.293 498.404 196.837 498.884 195.709 498.884C194.461 498.884 193.777 498.08 193.669 496.868L198.889 496.868ZM203.574 494.252C204.39 494.252 205.038 494.732 205.038 496.016L205.038 500L206.538 500L206.538 495.368C206.538 493.508 205.362 492.896 204.126 492.896C203.31 492.896 202.362 493.232 201.87 494.108L201.87 493.088L200.37 493.088L200.37 500L201.87 500L201.87 496.052C201.87 494.816 202.578 494.252 203.574 494.252ZM208.925 491.42L208.925 493.088L207.641 493.088L207.641 494.3L208.925 494.3L208.925 498.056C208.925 499.328 209.561 500.12 210.941 500.12C211.361 500.12 211.853 500.012 212.213 499.904L211.973 498.692C211.697 498.764 211.529 498.8 211.253 498.8C210.641 498.8 210.425 498.524 210.425 497.984L210.425 494.3L212.153 494.3L212.153 493.088L210.425 493.088L210.425 491.18L208.925 491.42Z" fill="#FF5B24"/>
<path d="M134.432 257.216C134.072 255.008 132.176 253.82 130.292 253.82C127.724 253.82 125.6 255.68 125.6 258.44C125.6 261.392 127.748 263.18 130.328 263.18C132.068 263.18 134.24 262.016 134.504 259.544L132.884 259.304C132.752 261.092 131.528 261.644 130.328 261.644C128.624 261.644 127.292 260.672 127.292 258.44C127.292 256.412 128.624 255.356 130.232 255.356C131.336 255.356 132.548 255.812 132.812 257.456L134.432 257.216ZM138.714 263.18C139.95 263.18 140.706 262.424 141.054 261.572L141.054 263L142.554 263L142.554 256.088L141.054 256.088L141.054 257.444C140.562 256.352 139.806 255.896 138.726 255.896C137.274 255.896 135.678 257.06 135.678 259.472C135.678 262.004 137.286 263.18 138.714 263.18ZM139.134 257.192C140.142 257.192 141.054 257.96 141.054 259.556C141.054 261.2 140.142 261.872 139.122 261.872C138.174 261.872 137.19 261.164 137.19 259.556C137.19 257.924 138.186 257.192 139.134 257.192ZM147.68 257.252C148.496 257.252 149.144 257.732 149.144 259.016L149.144 263L150.644 263L150.644 258.368C150.644 256.508 149.468 255.896 148.232 255.896C147.416 255.896 146.468 256.232 145.976 257.108L145.976 256.088L144.476 256.088L144.476 263L145.976 263L145.976 259.052C145.976 257.816 146.684 257.252 147.68 257.252ZM158.887 258.776C158.635 256.916 157.159 255.896 155.551 255.896C153.571 255.896 152.071 257.3 152.071 259.532C152.071 261.668 153.547 263.18 155.659 263.18C156.991 263.18 158.551 262.448 158.875 260.336L157.507 260.096C157.351 261.272 156.703 261.872 155.647 261.872C154.243 261.872 153.583 260.804 153.583 259.532C153.583 257.996 154.423 257.192 155.479 257.192C156.439 257.192 157.243 257.708 157.411 259.016L158.887 258.776ZM163.332 257.192C164.304 257.192 165.072 257.648 165.192 258.8L161.436 258.8C161.64 257.732 162.336 257.192 163.332 257.192ZM166.608 259.868L166.608 259.376C166.608 257.336 165.264 255.896 163.392 255.896C161.388 255.896 159.864 257.3 159.864 259.52C159.864 261.8 161.448 263.18 163.488 263.18C164.76 263.18 166.296 262.448 166.56 260.852L165.168 260.612C165.012 261.404 164.556 261.884 163.428 261.884C162.18 261.884 161.496 261.08 161.388 259.868L166.608 259.868ZM168.089 253.7L168.089 263L169.589 263L169.589 253.7L168.089 253.7ZM171.511 253.7L171.511 263L173.011 263L173.011 253.7L171.511 253.7ZM177.585 263.18C178.821 263.18 179.577 262.424 179.925 261.572L179.925 263L181.425 263L181.425 256.088L179.925 256.088L179.925 257.444C179.433 256.352 178.677 255.896 177.597 255.896C176.145 255.896 174.549 257.06 174.549 259.472C174.549 262.004 176.157 263.18 177.585 263.18ZM178.005 257.192C179.013 257.192 179.925 257.96 179.925 259.556C179.925 261.2 179.013 261.872 177.993 261.872C177.045 261.872 176.061 261.164 176.061 259.556C176.061 257.924 177.057 257.192 178.005 257.192ZM183.875 254.42L183.875 256.088L182.591 256.088L182.591 257.3L183.875 257.3L183.875 261.056C183.875 262.328 184.511 263.12 185.891 263.12C186.311 263.12 186.803 263.012 187.163 262.904L186.923 261.692C186.647 261.764 186.479 261.8 186.203 261.8C185.591 261.8 185.375 261.524 185.375 260.984L185.375 257.3L187.103 257.3L187.103 256.088L185.375 256.088L185.375 254.18L183.875 254.42ZM188.573 256.088L188.573 263L190.073 263L190.073 256.088L188.573 256.088ZM189.317 253.1C188.813 253.1 188.417 253.508 188.417 254C188.417 254.492 188.813 254.9 189.317 254.9C189.821 254.9 190.217 254.492 190.217 254C190.217 253.508 189.821 253.1 189.317 253.1ZM194.983 255.896C193.111 255.896 191.563 257.264 191.563 259.532C191.563 261.8 193.111 263.18 194.983 263.18C196.855 263.18 198.403 261.8 198.403 259.532C198.403 257.264 196.855 255.896 194.983 255.896ZM194.983 257.192C196.015 257.192 196.891 257.948 196.891 259.532C196.891 261.116 196.015 261.884 194.983 261.884C193.951 261.884 193.075 261.116 193.075 259.532C193.075 257.948 193.951 257.192 194.983 257.192ZM203.098 257.252C203.914 257.252 204.562 257.732 204.562 259.016L204.562 263L206.062 263L206.062 258.368C206.062 256.508 204.886 255.896 203.65 255.896C202.834 255.896 201.886 256.232 201.394 257.108L201.394 256.088L199.894 256.088L199.894 263L201.394 263L201.394 259.052C201.394 257.816 202.102 257.252 203.098 257.252ZM128.948 275.896C127.076 275.896 125.528 277.264 125.528 279.532C125.528 281.8 127.076 283.18 128.948 283.18C130.82 283.18 132.368 281.8 132.368 279.532C132.368 277.264 130.82 275.896 128.948 275.896ZM128.948 277.192C129.98 277.192 130.856 277.948 130.856 279.532C130.856 281.116 129.98 281.884 128.948 281.884C127.916 281.884 127.04 281.116 127.04 279.532C127.04 277.948 127.916 277.192 128.948 277.192ZM134.254 283L135.754 283L135.754 277.3L137.47 277.3L137.47 276.088L135.754 276.088L135.754 275.812C135.754 275.104 136.09 274.732 136.702 274.732C137.026 274.732 137.302 274.78 137.59 274.864L137.794 273.7C137.458 273.58 137.05 273.472 136.546 273.472C135.166 273.472 134.254 274.36 134.254 275.824L134.254 276.088L133.306 276.088L133.306 277.3L134.254 277.3L134.254 283ZM145.609 275.896C144.433 275.896 143.713 276.64 143.269 277.444L143.269 276.088L141.769 276.088L141.769 285.4L143.269 285.4L143.269 281.692C143.845 282.676 144.589 283.18 145.465 283.18C147.073 283.18 148.645 281.956 148.645 279.436C148.645 277.024 147.013 275.896 145.609 275.896ZM145.201 277.192C146.149 277.192 147.133 277.948 147.133 279.52C147.133 281.116 146.149 281.872 145.189 281.872C144.181 281.872 143.269 281.056 143.269 279.52C143.269 277.912 144.181 277.192 145.201 277.192ZM152.835 283.18C154.071 283.18 154.827 282.424 155.175 281.572L155.175 283L156.675 283L156.675 276.088L155.175 276.088L155.175 277.444C154.683 276.352 153.927 275.896 152.847 275.896C151.395 275.896 149.799 277.06 149.799 279.472C149.799 282.004 151.407 283.18 152.835 283.18ZM153.255 277.192C154.263 277.192 155.175 277.96 155.175 279.556C155.175 281.2 154.263 281.872 153.243 281.872C152.295 281.872 151.311 281.164 151.311 279.556C151.311 277.924 152.307 277.192 153.255 277.192ZM159.209 285.4C160.553 285.4 161.417 284.692 161.957 283.288L164.717 276.088L163.049 276.088L161.309 281.488L159.485 276.088L157.817 276.088L160.361 282.472C160.709 283.348 160.385 284.152 159.353 284.152C158.813 284.152 158.477 283.984 158.261 283.852L158.021 285.148C158.345 285.304 158.753 285.4 159.209 285.4ZM173.506 277.252C174.358 277.252 175.006 277.732 175.006 279.016L175.006 283L176.506 283L176.506 278.368C176.506 276.508 175.366 275.896 174.106 275.896C173.338 275.896 172.366 276.208 171.85 277.24C171.478 276.256 170.602 275.896 169.678 275.896C168.85 275.896 167.854 276.22 167.362 277.108L167.362 276.088L165.862 276.088L165.862 283L167.362 283L167.362 279.052C167.362 277.816 168.07 277.252 169.03 277.252C169.882 277.252 170.53 277.732 170.53 279.016L170.53 283L172.03 283L172.03 279.052C172.03 277.816 172.654 277.252 173.506 277.252ZM181.402 277.192C182.374 277.192 183.142 277.648 183.262 278.8L179.506 278.8C179.71 277.732 180.406 277.192 181.402 277.192ZM184.678 279.868L184.678 279.376C184.678 277.336 183.334 275.896 181.462 275.896C179.458 275.896 177.934 277.3 177.934 279.52C177.934 281.8 179.518 283.18 181.558 283.18C182.83 283.18 184.366 282.448 184.63 280.852L183.238 280.612C183.082 281.404 182.626 281.884 181.498 281.884C180.25 281.884 179.566 281.08 179.458 279.868L184.678 279.868ZM189.363 277.252C190.179 277.252 190.827 277.732 190.827 279.016L190.827 283L192.327 283L192.327 278.368C192.327 276.508 191.151 275.896 189.915 275.896C189.099 275.896 188.151 276.232 187.659 277.108L187.659 276.088L186.159 276.088L186.159 283L187.659 283L187.659 279.052C187.659 277.816 188.367 277.252 189.363 277.252ZM194.715 274.42L194.715 276.088L193.431 276.088L193.431 277.3L194.715 277.3L194.715 281.056C194.715 282.328 195.351 283.12 196.731 283.12C197.151 283.12 197.643 283.012 198.003 282.904L197.763 281.692C197.487 281.764 197.319 281.8 197.043 281.8C196.431 281.8 196.215 281.524 196.215 280.984L196.215 277.3L197.943 277.3L197.943 276.088L196.215 276.088L196.215 274.18L194.715 274.42Z" fill="#4D3280"/>
<path d="M106.432 181.216C106.072 179.008 104.176 177.82 102.292 177.82C99.724 177.82 97.6 179.68 97.6 182.44C97.6 185.392 99.748 187.18 102.328 187.18C104.068 187.18 106.24 186.016 106.504 183.544L104.884 183.304C104.752 185.092 103.528 185.644 102.328 185.644C100.624 185.644 99.292 184.672 99.292 182.44C99.292 180.412 100.624 179.356 102.232 179.356C103.336 179.356 104.548 179.812 104.812 181.456L106.432 181.216ZM114.194 187L114.194 180.088L112.694 180.088L112.694 184.108C112.694 185.284 111.914 185.824 110.906 185.824C109.982 185.824 109.526 185.416 109.526 184.348L109.526 180.088L108.026 180.088L108.026 184.912C108.026 186.508 109.178 187.18 110.33 187.18C111.194 187.18 112.154 186.784 112.694 185.836L112.694 187L114.194 187ZM115.945 182.032C115.945 182.992 116.497 183.7 117.673 183.952L118.933 184.228C119.797 184.42 120.037 184.672 120.037 185.08C120.037 185.656 119.473 185.98 118.645 185.98C117.673 185.98 117.037 185.524 116.941 184.672L115.609 184.912C115.837 186.52 117.337 187.18 118.681 187.18C120.013 187.18 121.429 186.436 121.429 184.936C121.429 183.976 120.865 183.328 119.641 183.064L118.273 182.764C117.577 182.608 117.337 182.272 117.337 181.912C117.337 181.408 117.817 181.096 118.501 181.096C119.329 181.096 119.941 181.396 119.989 182.296L121.321 182.056C120.925 180.508 119.881 179.896 118.489 179.896C117.361 179.896 115.945 180.52 115.945 182.032ZM123.425 178.42L123.425 180.088L122.141 180.088L122.141 181.3L123.425 181.3L123.425 185.056C123.425 186.328 124.061 187.12 125.441 187.12C125.861 187.12 126.353 187.012 126.713 186.904L126.473 185.692C126.197 185.764 126.029 185.8 125.753 185.8C125.141 185.8 124.925 185.524 124.925 184.984L124.925 181.3L126.653 181.3L126.653 180.088L124.925 180.088L124.925 178.18L123.425 178.42ZM131.112 179.896C129.24 179.896 127.692 181.264 127.692 183.532C127.692 185.8 129.24 187.18 131.112 187.18C132.984 187.18 134.532 185.8 134.532 183.532C134.532 181.264 132.984 179.896 131.112 179.896ZM131.112 181.192C132.144 181.192 133.02 181.948 133.02 183.532C133.02 185.116 132.144 185.884 131.112 185.884C130.08 185.884 129.204 185.116 129.204 183.532C129.204 181.948 130.08 181.192 131.112 181.192ZM143.666 181.252C144.518 181.252 145.166 181.732 145.166 183.016L145.166 187L146.666 187L146.666 182.368C146.666 180.508 145.526 179.896 144.266 179.896C143.498 179.896 142.526 180.208 142.01 181.24C141.638 180.256 140.762 179.896 139.838 179.896C139.01 179.896 138.014 180.22 137.522 181.108L137.522 180.088L136.022 180.088L136.022 187L137.522 187L137.522 183.052C137.522 181.816 138.23 181.252 139.19 181.252C140.042 181.252 140.69 181.732 140.69 183.016L140.69 187L142.19 187L142.19 183.052C142.19 181.816 142.814 181.252 143.666 181.252ZM151.562 181.192C152.534 181.192 153.302 181.648 153.422 182.8L149.666 182.8C149.87 181.732 150.566 181.192 151.562 181.192ZM154.838 183.868L154.838 183.376C154.838 181.336 153.494 179.896 151.622 179.896C149.618 179.896 148.094 181.3 148.094 183.52C148.094 185.8 149.678 187.18 151.718 187.18C152.99 187.18 154.526 186.448 154.79 184.852L153.398 184.612C153.242 185.404 152.786 185.884 151.658 185.884C150.41 185.884 149.726 185.08 149.618 183.868L154.838 183.868ZM159.631 181.516C160.003 181.516 160.267 181.564 160.531 181.672L160.675 179.992C160.531 179.92 160.327 179.896 160.147 179.896C159.463 179.896 158.383 180.292 157.819 181.744L157.819 180.088L156.319 180.088L156.319 187L157.819 187L157.819 183.976C157.819 182.056 158.659 181.516 159.631 181.516ZM171.422 182.776C171.17 180.916 169.694 179.896 168.086 179.896C166.106 179.896 164.606 181.3 164.606 183.532C164.606 185.668 166.082 187.18 168.194 187.18C169.526 187.18 171.086 186.448 171.41 184.336L170.042 184.096C169.886 185.272 169.238 185.872 168.182 185.872C166.778 185.872 166.118 184.804 166.118 183.532C166.118 181.996 166.958 181.192 168.014 181.192C168.974 181.192 169.778 181.708 169.946 183.016L171.422 182.776ZM172.831 177.7L172.831 187L174.331 187L174.331 183.052C174.331 181.816 175.039 181.252 176.047 181.252C176.851 181.252 177.499 181.732 177.499 183.016L177.499 187L178.999 187L178.999 182.368C178.999 180.508 177.859 179.896 176.539 179.896C175.807 179.896 174.823 180.22 174.331 181.108L174.331 177.7L172.831 177.7ZM183.846 179.896C181.974 179.896 180.426 181.264 180.426 183.532C180.426 185.8 181.974 187.18 183.846 187.18C185.718 187.18 187.266 185.8 187.266 183.532C187.266 181.264 185.718 179.896 183.846 179.896ZM183.846 181.192C184.878 181.192 185.754 181.948 185.754 183.532C185.754 185.116 184.878 185.884 183.846 185.884C182.814 185.884 181.938 185.116 181.938 183.532C181.938 181.948 182.814 181.192 183.846 181.192ZM191.745 179.896C189.873 179.896 188.325 181.264 188.325 183.532C188.325 185.8 189.873 187.18 191.745 187.18C193.617 187.18 195.165 185.8 195.165 183.532C195.165 181.264 193.617 179.896 191.745 179.896ZM191.745 181.192C192.777 181.192 193.653 181.948 193.653 183.532C193.653 185.116 192.777 185.884 191.745 185.884C190.713 185.884 189.837 185.116 189.837 183.532C189.837 181.948 190.713 181.192 191.745 181.192ZM196.511 182.032C196.511 182.992 197.063 183.7 198.239 183.952L199.499 184.228C200.363 184.42 200.603 184.672 200.603 185.08C200.603 185.656 200.039 185.98 199.211 185.98C198.239 185.98 197.603 185.524 197.507 184.672L196.175 184.912C196.403 186.52 197.903 187.18 199.247 187.18C200.579 187.18 201.995 186.436 201.995 184.936C201.995 183.976 201.431 183.328 200.207 183.064L198.839 182.764C198.143 182.608 197.903 182.272 197.903 181.912C197.903 181.408 198.383 181.096 199.067 181.096C199.895 181.096 200.507 181.396 200.555 182.296L201.887 182.056C201.491 180.508 200.447 179.896 199.055 179.896C197.927 179.896 196.511 180.52 196.511 182.032ZM206.5 181.192C207.472 181.192 208.24 181.648 208.36 182.8L204.604 182.8C204.808 181.732 205.504 181.192 206.5 181.192ZM209.776 183.868L209.776 183.376C209.776 181.336 208.432 179.896 206.56 179.896C204.556 179.896 203.032 181.3 203.032 183.52C203.032 185.8 204.616 187.18 206.656 187.18C207.928 187.18 209.464 186.448 209.728 184.852L208.336 184.612C208.18 185.404 207.724 185.884 206.596 185.884C205.348 185.884 204.664 185.08 204.556 183.868L209.776 183.868ZM211.113 182.032C211.113 182.992 211.665 183.7 212.841 183.952L214.101 184.228C214.965 184.42 215.205 184.672 215.205 185.08C215.205 185.656 214.641 185.98 213.813 185.98C212.841 185.98 212.205 185.524 212.109 184.672L210.777 184.912C211.005 186.52 212.505 187.18 213.849 187.18C215.181 187.18 216.597 186.436 216.597 184.936C216.597 183.976 216.033 183.328 214.809 183.064L213.441 182.764C212.745 182.608 212.505 182.272 212.505 181.912C212.505 181.408 212.985 181.096 213.669 181.096C214.497 181.096 215.109 181.396 215.157 182.296L216.489 182.056C216.093 180.508 215.049 179.896 213.657 179.896C212.529 179.896 211.113 180.52 211.113 182.032ZM98.488 198.42L98.488 200.088L97.204 200.088L97.204 201.3L98.488 201.3L98.488 205.056C98.488 206.328 99.124 207.12 100.504 207.12C100.924 207.12 101.416 207.012 101.776 206.904L101.536 205.692C101.26 205.764 101.092 205.8 100.816 205.8C100.204 205.8 99.988 205.524 99.988 204.984L99.988 201.3L101.716 201.3L101.716 200.088L99.988 200.088L99.988 198.18L98.488 198.42ZM106.175 199.896C104.303 199.896 102.755 201.264 102.755 203.532C102.755 205.8 104.303 207.18 106.175 207.18C108.047 207.18 109.595 205.8 109.595 203.532C109.595 201.264 108.047 199.896 106.175 199.896ZM106.175 201.192C107.207 201.192 108.083 201.948 108.083 203.532C108.083 205.116 107.207 205.884 106.175 205.884C105.143 205.884 104.267 205.116 104.267 203.532C104.267 201.948 105.143 201.192 106.175 201.192ZM118.159 199.896C116.983 199.896 116.263 200.64 115.819 201.444L115.819 200.088L114.319 200.088L114.319 209.4L115.819 209.4L115.819 205.692C116.395 206.676 117.139 207.18 118.015 207.18C119.623 207.18 121.195 205.956 121.195 203.436C121.195 201.024 119.563 199.896 118.159 199.896ZM117.751 201.192C118.699 201.192 119.683 201.948 119.683 203.52C119.683 205.116 118.699 205.872 117.739 205.872C116.731 205.872 115.819 205.056 115.819 203.52C115.819 201.912 116.731 201.192 117.751 201.192ZM125.385 207.18C126.621 207.18 127.377 206.424 127.725 205.572L127.725 207L129.225 207L129.225 200.088L127.725 200.088L127.725 201.444C127.233 200.352 126.477 199.896 125.397 199.896C123.945 199.896 122.349 201.06 122.349 203.472C122.349 206.004 123.957 207.18 125.385 207.18ZM125.805 201.192C126.813 201.192 127.725 201.96 127.725 203.556C127.725 205.2 126.813 205.872 125.793 205.872C124.845 205.872 123.861 205.164 123.861 203.556C123.861 201.924 124.857 201.192 125.805 201.192ZM131.759 209.4C133.103 209.4 133.967 208.692 134.507 207.288L137.267 200.088L135.599 200.088L133.859 205.488L132.035 200.088L130.367 200.088L132.911 206.472C133.259 207.348 132.935 208.152 131.903 208.152C131.363 208.152 131.027 207.984 130.811 207.852L130.571 209.148C130.895 209.304 131.303 209.4 131.759 209.4ZM151.607 200.088L149.939 200.088L148.463 205.128L146.795 200.088L145.679 200.088L144.023 205.104L142.535 200.088L140.867 200.088L143.351 207L144.647 207L146.243 202.632L147.827 207L149.123 207L151.607 200.088ZM152.745 200.088L152.745 207L154.245 207L154.245 200.088L152.745 200.088ZM153.489 197.1C152.985 197.1 152.589 197.508 152.589 198C152.589 198.492 152.985 198.9 153.489 198.9C153.993 198.9 154.389 198.492 154.389 198C154.389 197.508 153.993 197.1 153.489 197.1ZM156.695 198.42L156.695 200.088L155.411 200.088L155.411 201.3L156.695 201.3L156.695 205.056C156.695 206.328 157.331 207.12 158.711 207.12C159.131 207.12 159.623 207.012 159.983 206.904L159.743 205.692C159.467 205.764 159.299 205.8 159.023 205.8C158.411 205.8 158.195 205.524 158.195 204.984L158.195 201.3L159.923 201.3L159.923 200.088L158.195 200.088L158.195 198.18L156.695 198.42ZM161.394 197.7L161.394 207L162.894 207L162.894 203.052C162.894 201.816 163.602 201.252 164.61 201.252C165.414 201.252 166.062 201.732 166.062 203.016L166.062 207L167.562 207L167.562 202.368C167.562 200.508 166.422 199.896 165.102 199.896C164.37 199.896 163.386 200.22 162.894 201.108L162.894 197.7L161.394 197.7ZM178.775 200.088L177.107 200.088L175.331 205.308L173.543 200.088L171.875 200.088L174.635 207L176.015 207L178.775 200.088ZM179.921 200.088L179.921 207L181.421 207L181.421 200.088L179.921 200.088ZM180.665 197.1C180.161 197.1 179.765 197.508 179.765 198C179.765 198.492 180.161 198.9 180.665 198.9C181.169 198.9 181.565 198.492 181.565 198C181.565 197.508 181.169 197.1 180.665 197.1ZM187.183 199.896C186.007 199.896 185.287 200.64 184.843 201.444L184.843 200.088L183.343 200.088L183.343 209.4L184.843 209.4L184.843 205.692C185.419 206.676 186.163 207.18 187.039 207.18C188.647 207.18 190.219 205.956 190.219 203.436C190.219 201.024 188.587 199.896 187.183 199.896ZM186.775 201.192C187.723 201.192 188.707 201.948 188.707 203.52C188.707 205.116 187.723 205.872 186.763 205.872C185.755 205.872 184.843 205.056 184.843 203.52C184.843 201.912 185.755 201.192 186.775 201.192ZM195.597 199.896C194.421 199.896 193.701 200.64 193.257 201.444L193.257 200.088L191.757 200.088L191.757 209.4L193.257 209.4L193.257 205.692C193.833 206.676 194.577 207.18 195.453 207.18C197.061 207.18 198.633 205.956 198.633 203.436C198.633 201.024 197.001 199.896 195.597 199.896ZM195.189 201.192C196.137 201.192 197.121 201.948 197.121 203.52C197.121 205.116 196.137 205.872 195.177 205.872C194.169 205.872 193.257 205.056 193.257 203.52C193.257 201.912 194.169 201.192 195.189 201.192ZM200.027 202.032C200.027 202.992 200.579 203.7 201.755 203.952L203.015 204.228C203.879 204.42 204.119 204.672 204.119 205.08C204.119 205.656 203.555 205.98 202.727 205.98C201.755 205.98 201.119 205.524 201.023 204.672L199.691 204.912C199.919 206.52 201.419 207.18 202.763 207.18C204.095 207.18 205.511 206.436 205.511 204.936C205.511 203.976 204.947 203.328 203.723 203.064L202.355 202.764C201.659 202.608 201.419 202.272 201.419 201.912C201.419 201.408 201.899 201.096 202.583 201.096C203.411 201.096 204.023 201.396 204.071 202.296L205.403 202.056C205.007 200.508 203.963 199.896 202.571 199.896C201.443 199.896 200.027 200.52 200.027 202.032Z" fill="#FF5B24"/>
<path d="M104.764 41.616L104.752 41.712C104.608 42.852 103.684 43.644 102.268 43.644C100.78 43.644 99.292 42.756 99.292 40.536C99.292 38.424 100.528 37.356 102.184 37.356C103.444 37.356 104.512 37.836 104.716 39.336L106.3 39.096C105.952 36.588 103.78 35.82 102.28 35.82C99.592 35.82 97.6 37.752 97.6 40.536C97.6 43.2 99.556 45.18 101.836 45.18C103.288 45.18 104.32 44.28 104.8 43.32L104.812 43.32L105.088 45L106.42 45L106.42 40.2L102.4 40.2L102.4 41.616L104.764 41.616ZM111.391 39.192C112.363 39.192 113.131 39.648 113.251 40.8L109.495 40.8C109.699 39.732 110.395 39.192 111.391 39.192ZM114.667 41.868L114.667 41.376C114.667 39.336 113.323 37.896 111.451 37.896C109.447 37.896 107.923 39.3 107.923 41.52C107.923 43.8 109.507 45.18 111.547 45.18C112.819 45.18 114.355 44.448 114.619 42.852L113.227 42.612C113.071 43.404 112.615 43.884 111.487 43.884C110.239 43.884 109.555 43.08 109.447 41.868L114.667 41.868ZM116.676 36.42L116.675 38.088L115.391 38.088L115.391 39.3L116.675 39.3L116.675 43.056C116.675 44.328 117.311 45.12 118.691 45.12C119.111 45.12 119.603 45.012 119.963 44.904L119.723 43.692C119.447 43.764 119.279 43.8 119.003 43.8C118.391 43.8 118.175 43.524 118.175 42.984L118.175 39.3L119.903 39.3L119.903 38.088L118.175 38.088L118.176 36.18L116.676 36.42ZM127.26 45.18C128.496 45.18 129.252 44.424 129.6 43.572L129.6 45L131.1 45L131.1 38.088L129.6 38.088L129.6 39.444C129.108 38.352 128.352 37.896 127.272 37.896C125.82 37.896 124.224 39.06 124.224 41.472C124.224 44.004 125.832 45.18 127.26 45.18ZM127.68 39.192C128.688 39.192 129.6 39.96 129.6 41.556C129.6 43.2 128.688 43.872 127.668 43.872C126.72 43.872 125.736 43.164 125.736 41.556C125.736 39.924 126.732 39.192 127.68 39.192ZM139.406 40.776C139.154 38.916 137.678 37.896 136.07 37.896C134.09 37.896 132.59 39.3 132.59 41.532C132.59 43.668 134.066 45.18 136.178 45.18C137.51 45.18 139.07 44.448 139.394 42.336L138.026 42.096C137.87 43.272 137.222 43.872 136.166 43.872C134.762 43.872 134.102 42.804 134.102 41.532C134.102 39.996 134.942 39.192 135.998 39.192C136.958 39.192 137.762 39.708 137.93 41.016L139.406 40.776ZM147.199 40.776C146.947 38.916 145.471 37.896 143.863 37.896C141.883 37.896 140.383 39.3 140.383 41.532C140.383 43.668 141.859 45.18 143.971 45.18C145.303 45.18 146.863 44.448 147.187 42.336L145.819 42.096C145.663 43.272 145.015 43.872 143.959 43.872C142.555 43.872 141.895 42.804 141.895 41.532C141.895 39.996 142.735 39.192 143.791 39.192C144.751 39.192 145.555 39.708 145.723 41.016L147.199 40.776ZM151.644 39.192C152.616 39.192 153.384 39.648 153.504 40.8L149.748 40.8C149.952 39.732 150.648 39.192 151.644 39.192ZM154.92 41.868L154.92 41.376C154.92 39.336 153.576 37.896 151.704 37.896C149.7 37.896 148.176 39.3 148.176 41.52C148.176 43.8 149.76 45.18 151.8 45.18C153.072 45.18 154.608 44.448 154.872 42.852L153.48 42.612C153.324 43.404 152.868 43.884 151.74 43.884C150.492 43.884 149.808 43.08 149.7 41.868L154.92 41.868ZM156.257 40.032C156.257 40.992 156.809 41.7 157.985 41.952L159.245 42.228C160.109 42.42 160.349 42.672 160.349 43.08C160.349 43.656 159.785 43.98 158.957 43.98C157.985 43.98 157.349 43.524 157.253 42.672L155.921 42.912C156.149 44.52 157.649 45.18 158.993 45.18C160.325 45.18 161.741 44.436 161.741 42.936C161.741 41.976 161.177 41.328 159.953 41.064L158.585 40.764C157.889 40.608 157.649 40.272 157.649 39.912C157.649 39.408 158.129 39.096 158.813 39.096C159.641 39.096 160.253 39.396 160.301 40.296L161.633 40.056C161.237 38.508 160.193 37.896 158.801 37.896C157.673 37.896 156.257 38.52 156.257 40.032ZM163.066 40.032C163.066 40.992 163.618 41.7 164.794 41.952L166.054 42.228C166.918 42.42 167.158 42.672 167.158 43.08C167.158 43.656 166.594 43.98 165.766 43.98C164.794 43.98 164.158 43.524 164.062 42.672L162.73 42.912C162.958 44.52 164.458 45.18 165.802 45.18C167.134 45.18 168.55 44.436 168.55 42.936C168.55 41.976 167.986 41.328 166.762 41.064L165.394 40.764C164.698 40.608 164.458 40.272 164.458 39.912C164.458 39.408 164.938 39.096 165.622 39.096C166.45 39.096 167.062 39.396 167.11 40.296L168.442 40.056C168.046 38.508 167.002 37.896 165.61 37.896C164.482 37.896 163.066 38.52 163.066 40.032ZM173.781 36.42L173.781 38.088L172.497 38.088L172.497 39.3L173.781 39.3L173.781 43.056C173.781 44.328 174.417 45.12 175.797 45.12C176.217 45.12 176.709 45.012 177.069 44.904L176.829 43.692C176.553 43.764 176.385 43.8 176.109 43.8C175.497 43.8 175.281 43.524 175.281 42.984L175.281 39.3L177.009 39.3L177.009 38.088L175.281 38.088L175.281 36.18L173.781 36.42ZM181.468 37.896C179.596 37.896 178.048 39.264 178.048 41.532C178.048 43.8 179.596 45.18 181.468 45.18C183.34 45.18 184.888 43.8 184.888 41.532C184.888 39.264 183.34 37.896 181.468 37.896ZM181.468 39.192C182.5 39.192 183.376 39.948 183.376 41.532C183.376 43.116 182.5 43.884 181.468 43.884C180.436 43.884 179.56 43.116 179.56 41.532C179.56 39.948 180.436 39.192 181.468 39.192ZM186.378 45L187.878 45L187.878 43.344L189.15 41.916L191.214 45L192.774 45L190.002 40.944L192.546 38.088L190.914 38.088L187.878 41.664L187.878 35.7L186.378 35.7L186.378 45ZM196.773 39.192C197.745 39.192 198.513 39.648 198.633 40.8L194.877 40.8C195.081 39.732 195.777 39.192 196.773 39.192ZM200.049 41.868L200.049 41.376C200.049 39.336 198.705 37.896 196.833 37.896C194.829 37.896 193.305 39.3 193.305 41.52C193.305 43.8 194.889 45.18 196.929 45.18C198.201 45.18 199.737 44.448 200.001 42.852L198.609 42.612C198.453 43.404 197.997 43.884 196.869 43.884C195.621 43.884 194.937 43.08 194.829 41.868L200.049 41.868ZM204.734 39.252C205.55 39.252 206.198 39.732 206.198 41.016L206.198 45L207.698 45L207.698 40.368C207.698 38.508 206.522 37.896 205.286 37.896C204.47 37.896 203.522 38.232 203.03 39.108L203.03 38.088L201.53 38.088L201.53 45L203.03 45L203.03 41.052C203.03 39.816 203.738 39.252 204.734 39.252Z" fill="#FF5B24"/>
<path d="M96.816 114.412C96.816 117.88 101.796 116.74 101.796 118.648C101.796 119.332 101.268 119.788 100.248 119.788C99.276 119.788 98.16 119.464 98.004 117.928L96.456 118.288C96.696 120.22 98.4 121.18 100.2 121.18C101.796 121.18 103.368 120.268 103.368 118.552C103.368 115.192 98.412 116.416 98.412 114.352C98.412 113.644 98.952 113.212 99.876 113.212C100.68 113.212 101.58 113.572 101.652 114.82L103.236 114.46C102.972 112.6 101.364 111.82 99.948 111.82C98.376 111.82 96.816 112.684 96.816 114.412ZM107.883 115.192C108.855 115.192 109.623 115.648 109.743 116.8L105.987 116.8C106.191 115.732 106.887 115.192 107.883 115.192ZM111.159 117.868L111.159 117.376C111.159 115.336 109.815 113.896 107.943 113.896C105.939 113.896 104.415 115.3 104.415 117.52C104.415 119.8 105.999 121.18 108.039 121.18C109.311 121.18 110.847 120.448 111.111 118.852L109.719 118.612C109.563 119.404 109.107 119.884 107.979 119.884C106.731 119.884 106.047 119.08 105.939 117.868L111.159 117.868ZM113.168 112.42L113.168 114.088L111.884 114.088L111.884 115.3L113.168 115.3L113.168 119.056C113.168 120.328 113.804 121.12 115.184 121.12C115.604 121.12 116.096 121.012 116.456 120.904L116.216 119.692C115.94 119.764 115.772 119.8 115.496 119.8C114.884 119.8 114.668 119.524 114.668 118.984L114.668 115.3L116.396 115.3L116.396 114.088L114.668 114.088L114.668 112.18L113.168 112.42ZM127.233 121L127.233 114.088L125.733 114.088L125.733 118.108C125.733 119.284 124.953 119.824 123.945 119.824C123.021 119.824 122.565 119.416 122.565 118.348L122.565 114.088L121.065 114.088L121.065 118.912C121.065 120.508 122.217 121.18 123.369 121.18C124.233 121.18 125.193 120.784 125.733 119.836L125.733 121L127.233 121ZM132.968 113.896C131.792 113.896 131.072 114.64 130.628 115.444L130.628 114.088L129.128 114.088L129.128 123.4L130.628 123.4L130.628 119.692C131.204 120.676 131.948 121.18 132.824 121.18C134.432 121.18 136.004 119.956 136.004 117.436C136.004 115.024 134.372 113.896 132.968 113.896ZM132.56 115.192C133.508 115.192 134.492 115.948 134.492 117.52C134.492 119.116 133.508 119.872 132.548 119.872C131.54 119.872 130.628 119.056 130.628 117.52C130.628 115.912 131.54 115.192 132.56 115.192ZM143.812 115.192C144.784 115.192 145.552 115.648 145.672 116.8L141.916 116.8C142.12 115.732 142.816 115.192 143.812 115.192ZM147.088 117.868L147.088 117.376C147.088 115.336 145.744 113.896 143.872 113.896C141.868 113.896 140.344 115.3 140.344 117.52C140.344 119.8 141.928 121.18 143.968 121.18C145.24 121.18 146.776 120.448 147.04 118.852L145.648 118.612C145.492 119.404 145.036 119.884 143.908 119.884C142.66 119.884 141.976 119.08 141.868 117.868L147.088 117.868ZM151.773 115.252C152.589 115.252 153.237 115.732 153.237 117.016L153.237 121L154.737 121L154.737 116.368C154.737 114.508 153.561 113.896 152.325 113.896C151.509 113.896 150.561 114.232 150.069 115.108L150.069 114.088L148.569 114.088L148.569 121L150.069 121L150.069 117.052C150.069 115.816 150.777 115.252 151.773 115.252ZM163.089 111.7L161.589 111.7L161.589 115.444C161.097 114.352 160.353 113.896 159.417 113.896C157.809 113.896 156.213 115.06 156.213 117.472C156.213 120.004 157.821 121.18 159.225 121.18C160.485 121.18 161.241 120.52 161.589 119.692L161.589 121L163.089 121L163.089 111.7ZM159.669 115.192C160.677 115.192 161.589 115.996 161.589 117.556C161.589 119.164 160.677 119.872 159.657 119.872C158.709 119.872 157.725 119.128 157.725 117.556C157.725 115.96 158.721 115.192 159.669 115.192ZM168.851 113.896C167.675 113.896 166.955 114.64 166.511 115.444L166.511 114.088L165.011 114.088L165.011 123.4L166.511 123.4L166.511 119.692C167.087 120.676 167.831 121.18 168.707 121.18C170.315 121.18 171.887 119.956 171.887 117.436C171.887 115.024 170.255 113.896 168.851 113.896ZM168.443 115.192C169.391 115.192 170.375 115.948 170.375 117.52C170.375 119.116 169.391 119.872 168.431 119.872C167.423 119.872 166.511 119.056 166.511 117.52C166.511 115.912 167.423 115.192 168.443 115.192ZM176.413 113.896C174.541 113.896 172.993 115.264 172.993 117.532C172.993 119.8 174.541 121.18 176.413 121.18C178.285 121.18 179.833 119.8 179.833 117.532C179.833 115.264 178.285 113.896 176.413 113.896ZM176.413 115.192C177.445 115.192 178.321 115.948 178.321 117.532C178.321 119.116 177.445 119.884 176.413 119.884C175.381 119.884 174.505 119.116 174.505 117.532C174.505 115.948 175.381 115.192 176.413 115.192ZM181.323 114.088L181.323 121L182.823 121L182.823 114.088L181.323 114.088ZM182.067 111.1C181.563 111.1 181.167 111.508 181.167 112C181.167 112.492 181.563 112.9 182.067 112.9C182.571 112.9 182.967 112.492 182.967 112C182.967 111.508 182.571 111.1 182.067 111.1ZM187.949 115.252C188.765 115.252 189.413 115.732 189.413 117.016L189.413 121L190.913 121L190.913 116.368C190.913 114.508 189.737 113.896 188.501 113.896C187.685 113.896 186.737 114.232 186.245 115.108L186.245 114.088L184.745 114.088L184.745 121L186.245 121L186.245 117.052C186.245 115.816 186.953 115.252 187.949 115.252ZM193.3 112.42L193.3 114.088L192.016 114.088L192.016 115.3L193.3 115.3L193.3 119.056C193.3 120.328 193.936 121.12 195.316 121.12C195.736 121.12 196.228 121.012 196.588 120.904L196.348 119.692C196.072 119.764 195.904 119.8 195.628 119.8C195.016 119.8 194.8 119.524 194.8 118.984L194.8 115.3L196.528 115.3L196.528 114.088L194.8 114.088L194.8 112.18L193.3 112.42ZM197.855 116.032C197.855 116.992 198.407 117.7 199.583 117.952L200.843 118.228C201.707 118.42 201.947 118.672 201.947 119.08C201.947 119.656 201.383 119.98 200.555 119.98C199.583 119.98 198.947 119.524 198.851 118.672L197.519 118.912C197.747 120.52 199.247 121.18 200.591 121.18C201.923 121.18 203.339 120.436 203.339 118.936C203.339 117.976 202.775 117.328 201.551 117.064L200.183 116.764C199.487 116.608 199.247 116.272 199.247 115.912C199.247 115.408 199.727 115.096 200.411 115.096C201.239 115.096 201.851 115.396 201.899 116.296L203.231 116.056C202.835 114.508 201.791 113.896 200.399 113.896C199.271 113.896 197.855 114.52 197.855 116.032Z" fill="#FF5B24"/>
<path d="M154.056 553L154.056 562L155.628 562L155.628 558.568L156.768 558.568C157.74 558.568 158.304 558.952 158.448 559.78L158.688 561.172C158.76 561.616 158.964 561.856 159.204 562L161.1 562C160.764 561.796 160.5 561.436 160.392 561.016L160.02 559.564C159.804 558.712 159.396 558.316 158.808 558.076C159.636 557.596 160.272 556.768 160.272 555.724C160.272 554.044 159.144 553 157.176 553L154.056 553ZM157.14 554.404C157.98 554.404 158.592 554.896 158.592 555.796C158.592 556.588 158.04 557.164 157.152 557.164L155.628 557.164L155.628 554.404L157.14 554.404ZM164.883 556.192C165.855 556.192 166.623 556.648 166.743 557.8L162.987 557.8C163.191 556.732 163.887 556.192 164.883 556.192ZM168.159 558.868L168.159 558.376C168.159 556.336 166.815 554.896 164.943 554.896C162.939 554.896 161.415 556.3 161.415 558.52C161.415 560.8 162.999 562.18 165.039 562.18C166.311 562.18 167.847 561.448 168.111 559.852L166.719 559.612C166.563 560.404 166.107 560.884 164.979 560.884C163.731 560.884 163.047 560.08 162.939 558.868L168.159 558.868ZM170.036 562L171.536 562L171.536 556.3L173.252 556.3L173.252 555.088L171.536 555.088L171.536 554.812C171.536 554.104 171.872 553.732 172.484 553.732C172.808 553.732 173.084 553.78 173.372 553.864L173.576 552.7C173.24 552.58 172.832 552.472 172.328 552.472C170.948 552.472 170.036 553.36 170.036 554.824L170.036 555.088L169.088 555.088L169.088 556.3L170.036 556.3L170.036 562ZM180.447 562L180.447 555.088L178.947 555.088L178.947 559.108C178.947 560.284 178.167 560.824 177.159 560.824C176.235 560.824 175.779 560.416 175.779 559.348L175.779 555.088L174.279 555.088L174.279 559.912C174.279 561.508 175.431 562.18 176.583 562.18C177.447 562.18 178.407 561.784 178.947 560.836L178.947 562L180.447 562ZM185.547 556.252C186.363 556.252 187.011 556.732 187.011 558.016L187.011 562L188.511 562L188.511 557.368C188.511 555.508 187.335 554.896 186.099 554.896C185.283 554.896 184.335 555.232 183.843 556.108L183.843 555.088L182.343 555.088L182.343 562L183.843 562L183.843 558.052C183.843 556.816 184.551 556.252 185.547 556.252ZM196.862 552.7L195.362 552.7L195.362 556.444C194.87 555.352 194.126 554.896 193.19 554.896C191.582 554.896 189.986 556.06 189.986 558.472C189.986 561.004 191.594 562.18 192.998 562.18C194.258 562.18 195.014 561.52 195.362 560.692L195.362 562L196.862 562L196.862 552.7ZM193.442 556.192C194.45 556.192 195.362 556.996 195.362 558.556C195.362 560.164 194.45 560.872 193.43 560.872C192.482 560.872 191.498 560.128 191.498 558.556C191.498 556.96 192.494 556.192 193.442 556.192Z" fill="#4D3280"/>
<path d="M66.2138 343.947C66.2138 358.454 54.4536 370.214 39.9469 370.214C25.4402 370.214 13.68 358.454 13.68 343.947C13.68 329.44 25.4402 317.68 39.9469 317.68C54.4536 317.68 66.2138 329.44 66.2138 343.947Z" fill="#EEEDF3"/>
<path fill-rule="evenodd" clip-rule="evenodd" d="M42.9643 370.042C42.9593 360.477 42.964 349.93 43.005 347.532C43.1689 337.946 52.6214 339.988 52.6214 339.988L64.0862 347.532L64.0823 354.329C60.4373 362.791 52.472 368.955 42.9643 370.042Z" fill="#FFD3BB"/>
<path d="M60.6756 350.296L44.0461 353.553C42.4455 353.867 40.8932 352.823 40.5797 351.222L34.0135 317.699C33.6999 316.098 34.7437 314.546 36.3444 314.233L52.9738 310.975C54.5747 310.662 56.1266 311.705 56.4402 313.306L63.0064 346.83C63.3199 348.43 62.2765 349.983 60.6756 350.296Z" fill="#FF5A23"/>
<path d="M62.6156 344.624L40.1889 349.017L34.5197 320.073L56.9464 315.681L62.6156 344.624Z" fill="#FF985F"/>
<path d="M40.2155 339.165L34.2661 339.628C32.6682 339.752 31.2723 338.558 31.1479 336.96C31.0234 335.362 32.2185 333.966 33.816 333.842L39.7655 333.379C41.3631 333.254 42.7591 334.449 42.8834 336.046C43.008 337.645 41.8134 339.041 40.2155 339.165Z" fill="#FFD3BB"/>
<path d="M40.7111 344.602L34.7618 345.065C33.1638 345.189 31.7679 343.995 31.6435 342.397C31.519 340.799 32.7136 339.403 34.3115 339.279L40.2609 338.816C41.8588 338.691 43.2547 339.886 43.3791 341.484C43.5035 343.082 42.309 344.478 40.7111 344.602Z" fill="#FFD3BB"/>
<path d="M41.7108 349.93L35.7613 350.393C34.1639 350.517 32.7671 349.323 32.643 347.725C32.5189 346.127 33.7134 344.731 35.3111 344.607L41.2607 344.144C42.8583 344.019 44.2545 345.214 44.3789 346.812C44.5033 348.41 43.3086 349.806 41.7108 349.93Z" fill="#FFD3BB"/>
<path d="M52.5835 335.638L46.4033 336.848C44.8359 337.155 43.3023 336.124 42.9954 334.556L41.7851 328.376C41.4781 326.809 42.5094 325.275 44.0769 324.968L50.2571 323.758C51.8245 323.451 53.3581 324.482 53.665 326.05L54.8753 332.23C55.1823 333.797 54.151 335.331 52.5835 335.638Z" fill="white"/>
<path d="M45.7564 331.414L48.4027 332.653L51.3247 326.327" stroke="#48367D" stroke-width="0.24" stroke-linecap="round" stroke-linejoin="round"/>
<path fill-rule="evenodd" clip-rule="evenodd" d="M62.7423 357.006C62.3637 357.154 61.9532 357.296 61.5104 357.427C58.3425 358.364 53.613 354.259 53.613 354.259C53.613 354.259 53.7469 352.564 53.97 350.735C54.1931 348.905 55.3531 347.254 55.9332 346.719C53.613 346.228 51.9622 345.425 50.7575 343.819C49.5076 342.152 48.6158 340.696 48.3927 338.108C48.1696 335.52 49.1066 334.583 50.2221 334.047C51.3375 333.512 52.3191 333.78 53.3899 334.315C54.2232 334.732 54.7157 336.327 54.8177 337.483C54.9516 339 55.2939 339.371 55.9778 340.026C56.5043 340.531 57.6287 340.517 58.3872 340.428C59.1457 340.339 59.8339 340.379 61.1535 340.696C62.2689 340.963 63.3844 341.722 64.3214 342.971C65.3415 344.331 65.6821 345.982 65.9052 347.985C65.4051 351.226 64.3128 354.271 62.7423 357.006Z" fill="#FFD3BB"/>
<path d="M70.76 558.027C70.76 572.533 82.5199 584.293 97.0269 584.293C111.534 584.293 123.294 572.533 123.294 558.027C123.294 543.52 111.534 531.76 97.0269 531.76C82.5199 531.76 70.76 543.52 70.76 558.027Z" fill="#EEEDF3"/>
<path d="M106.208 566.068C106.208 566.068 103.103 574.168 91.3891 574.678L85.3103 564.602" fill="#FFD3BA"/>
<path d="M88.6314 558.526C88.6314 558.526 95.7345 563.231 93.195 574.678L88.6248 575.863" fill="#FFD3BA"/>
<path fill-rule="evenodd" clip-rule="evenodd" d="M82.6743 580.334L94.8283 573.843L86.7641 562.923L73.5127 570.051C75.6038 574.238 78.7806 577.789 82.6743 580.334Z" fill="#FFD3BA"/>
<path d="M83.7316 570.278C83.0066 570.276 82.2826 569.997 81.7309 569.442C80.6282 568.332 80.6333 566.538 81.7432 565.435C86.9142 560.296 83.6752 551.468 83.6415 551.379C83.0815 549.919 83.813 548.284 85.2741 547.724C86.7347 547.163 88.3748 547.898 88.9351 549.359C89.1269 549.859 93.542 561.697 85.7375 569.454C85.1826 570.006 84.4568 570.28 83.7316 570.278Z" fill="#FFD3BA"/>
<path d="M93.0515 549.751C92.6562 550.094 92.2599 550.437 91.8646 550.78C90.8354 551.673 89.7724 552.529 88.7739 553.457C87.1804 554.938 86.188 556.764 85.7948 558.905C85.3974 561.074 85.677 563.16 86.6509 565.139C87.5849 567.035 89.0125 568.46 90.8845 569.438C92.2169 570.134 93.6383 570.509 95.1407 570.567C97.959 570.677 100.439 569.825 102.526 567.916C104.009 566.559 104.942 564.872 105.385 562.914C105.622 561.864 105.689 560.801 105.576 559.73C105.348 557.555 104.507 555.649 103.042 554.021C102.521 553.443 101.917 552.959 101.332 552.453C100.312 551.573 99.2903 550.697 98.2693 549.819C98.2447 549.798 98.2242 549.773 98.2017 549.75C98.0624 549.749 97.9231 549.752 97.7839 549.744C97.6989 549.74 97.6804 549.777 97.6825 549.853C97.6866 549.996 97.6835 550.14 97.6835 550.283C97.6835 551.709 97.6835 553.134 97.6835 554.56C97.6835 554.819 97.5883 555.025 97.3568 555.15C96.9349 555.378 96.4495 555.074 96.4484 554.58C96.4464 553.458 96.4474 552.335 96.4474 551.213C96.4474 550.762 96.4454 550.312 96.4495 549.861C96.4505 549.769 96.4249 549.74 96.3327 549.743C96.132 549.751 95.9313 549.745 95.7306 549.745C94.8375 549.749 93.9445 549.75 93.0515 549.751ZM95.4192 564.617C95.2349 564.617 95.0506 564.613 94.8662 564.619C94.7833 564.622 94.7648 564.594 94.7659 564.516C94.7699 564.25 94.7597 563.983 94.771 563.717C94.7761 563.592 94.7413 563.543 94.6184 563.511C94.179 563.401 93.7848 563.198 93.455 562.883C92.9409 562.389 92.7545 561.778 92.7965 561.079C92.8426 560.315 93.1867 559.744 93.8626 559.374C94.3265 559.12 94.8345 558.993 95.3342 558.841C95.6281 558.752 95.9231 558.666 96.1822 558.494C96.4362 558.326 96.5631 558.093 96.5345 557.787C96.5058 557.482 96.343 557.272 96.0654 557.148C95.8432 557.049 95.6077 557.025 95.369 557.041C94.8283 557.078 94.5324 557.309 94.3644 557.825C94.3327 557.921 94.3101 558.021 94.2917 558.122C94.2794 558.192 94.264 558.222 94.178 558.209C93.7817 558.147 93.3843 558.097 92.987 558.04C92.7054 557.999 92.7054 557.996 92.7709 557.713C93.0157 556.655 93.5881 555.906 94.7003 555.667C94.7669 555.652 94.7689 555.615 94.7679 555.561C94.7659 555.291 94.773 555.021 94.7648 554.75C94.7618 554.644 94.7966 554.622 94.8959 554.624C95.2482 554.63 95.6005 554.629 95.9528 554.624C96.0449 554.623 96.0808 554.643 96.0777 554.744C96.0706 555.014 96.0777 555.285 96.0736 555.555C96.0726 555.627 96.0951 555.657 96.1648 555.671C96.2651 555.691 96.3645 555.716 96.4607 555.748C97.0865 555.954 97.5903 556.307 97.8463 556.938C98.0573 557.456 98.0634 557.99 97.9201 558.527C97.7429 559.188 97.279 559.591 96.6871 559.876C96.2354 560.093 95.7521 560.222 95.283 560.389C95.0249 560.481 94.7679 560.577 94.5528 560.755C94.4197 560.866 94.3245 561 94.2978 561.175C94.2415 561.539 94.4064 561.86 94.7474 562.036C95.1632 562.249 95.6005 562.234 96.0398 562.136C96.5027 562.033 96.7895 561.743 96.9093 561.284C96.9492 561.132 96.9656 560.978 96.9707 560.823C96.9738 560.734 97.0086 560.725 97.0824 560.736C97.5145 560.802 97.9477 560.867 98.3809 560.927C98.4536 560.937 98.4659 560.964 98.4598 561.029C98.4362 561.279 98.383 561.523 98.2887 561.754C97.8996 562.713 97.1745 563.285 96.1945 563.556C96.1043 563.582 96.0695 563.611 96.0716 563.708C96.0787 563.974 96.0695 564.24 96.0767 564.507C96.0798 564.602 96.048 564.622 95.9589 564.619C95.7797 564.612 95.5995 564.617 95.4192 564.617Z" fill="#FF985F"/>
<path d="M98.0184 548.515C98.5837 547.533 99.1521 546.553 99.7143 545.57C100.444 544.291 99.7245 542.733 98.2785 542.459C98.1536 542.435 98.0266 542.426 97.8996 542.426C96.3839 542.427 94.8693 542.426 93.3536 542.426C91.7366 542.426 90.7299 544.139 91.5266 545.547C92.0715 546.511 92.6327 547.467 93.1867 548.426C93.2031 548.454 93.2164 548.485 93.2307 548.513C94.5324 548.515 95.834 548.516 97.1346 548.517C97.4295 548.518 97.7234 548.516 98.0184 548.515Z" fill="#FF985F"/>
<path d="M98.0184 548.514C97.7234 548.515 97.4295 548.519 97.1346 548.519C95.833 548.517 94.5313 548.516 93.2307 548.515C93.1529 548.516 93.0751 548.519 92.9972 548.519C92.6388 548.521 92.3664 548.782 92.3633 549.129C92.3592 549.467 92.6286 549.737 92.9788 549.747C93.0034 549.748 93.028 549.749 93.0525 549.752C93.9455 549.75 94.8386 549.748 95.7316 549.747C95.9323 549.747 96.133 549.753 96.3337 549.745C96.4269 549.742 96.4515 549.771 96.4505 549.863C96.4464 550.314 96.4484 550.764 96.4484 551.215C96.4484 552.337 96.4474 553.46 96.4495 554.582C96.4505 555.076 96.9359 555.38 97.3578 555.152C97.5893 555.027 97.6845 554.82 97.6845 554.562C97.6835 553.136 97.6845 551.711 97.6845 550.285C97.6845 550.142 97.6876 549.998 97.6835 549.855C97.6814 549.779 97.6999 549.742 97.7849 549.746C97.9242 549.754 98.0634 549.75 98.2027 549.752C98.5939 549.736 98.8387 549.542 98.8827 549.213C98.9308 548.85 98.6554 548.528 98.2898 548.52C98.1986 548.516 98.1085 548.515 98.0184 548.514Z" fill="#FD5B24"/>
<path d="M95.4192 564.618C95.5995 564.618 95.7797 564.613 95.9599 564.62C96.049 564.623 96.0798 564.602 96.0777 564.507C96.0705 564.241 96.0798 563.975 96.0726 563.708C96.0695 563.611 96.1043 563.581 96.1955 563.557C97.1755 563.285 97.9006 562.713 98.2898 561.754C98.384 561.522 98.4372 561.279 98.4608 561.029C98.4669 560.965 98.4546 560.937 98.3819 560.927C97.9487 560.867 97.5155 560.802 97.0834 560.736C97.0096 560.725 96.9748 560.734 96.9717 560.824C96.9666 560.978 96.9502 561.133 96.9103 561.284C96.7905 561.743 96.5037 562.033 96.0408 562.136C95.6015 562.235 95.1642 562.249 94.7484 562.036C94.4074 561.861 94.2425 561.538 94.2988 561.176C94.3265 561.001 94.4207 560.867 94.5538 560.756C94.7689 560.578 95.026 560.481 95.284 560.389C95.7531 560.222 96.2375 560.093 96.6881 559.876C97.279 559.592 97.7439 559.188 97.9211 558.527C98.0645 557.992 98.0583 557.456 97.8473 556.938C97.5903 556.307 97.0864 555.954 96.4617 555.748C96.3645 555.716 96.2651 555.691 96.1658 555.671C96.0972 555.658 96.0736 555.628 96.0746 555.556C96.0787 555.285 96.0716 555.015 96.0787 554.744C96.0818 554.643 96.047 554.623 95.9538 554.625C95.6015 554.63 95.2492 554.63 94.8969 554.625C94.7976 554.623 94.7628 554.644 94.7658 554.751C94.774 555.021 94.7679 555.291 94.7689 555.562C94.7689 555.615 94.7669 555.654 94.7013 555.667C93.5902 555.907 93.0167 556.655 92.7719 557.713C92.7064 557.997 92.7064 557.999 92.988 558.04C93.3843 558.097 93.7827 558.148 94.179 558.209C94.2651 558.222 94.2804 558.193 94.2927 558.122C94.3111 558.022 94.3337 557.921 94.3654 557.825C94.5344 557.31 94.8293 557.078 95.3701 557.042C95.6097 557.025 95.8442 557.05 96.0664 557.148C96.344 557.271 96.5068 557.483 96.5355 557.787C96.5641 558.093 96.4372 558.327 96.1832 558.495C95.9231 558.667 95.6281 558.753 95.3352 558.842C94.8355 558.993 94.3275 559.121 93.8636 559.374C93.1877 559.744 92.8436 560.316 92.7975 561.08C92.7555 561.778 92.9419 562.39 93.456 562.883C93.7858 563.199 94.1801 563.401 94.6194 563.512C94.7433 563.542 94.7781 563.593 94.772 563.718C94.7607 563.984 94.771 564.25 94.7669 564.516C94.7658 564.594 94.7843 564.623 94.8672 564.62C95.0505 564.613 95.2349 564.618 95.4192 564.618Z" fill="#FF985F"/>
<path d="M93.3477 561.906H94.0645V561.179L94.469 560.693L95.278 561.906H96.0767L94.8991 560.181L95.918 558.957H95.109L94.0645 560.319V557.938H93.3477V561.906ZM97.7461 559.679C97.8485 559.679 97.9714 559.705 98.084 559.746L98.1301 558.916C98.0635 558.891 97.9816 558.875 97.9048 558.875C97.6232 558.875 97.275 559.019 97.0446 559.582V558.957H96.3227V561.906H97.0446V560.462C97.0446 559.833 97.403 559.679 97.7461 559.679Z" fill="#FFF4EC"/>
<path d="M109.57 560.094L105.629 560.495C104.209 560.612 102.962 559.557 102.844 558.137C102.727 556.717 103.782 555.47 105.202 555.352L109.144 554.952C110.563 554.834 111.811 555.89 111.928 557.309C112.046 558.729 110.99 559.976 109.57 560.094Z" fill="#FFD3BA"/>
<path d="M108.79 565.967L104.829 566.041C103.404 566.042 102.249 564.887 102.248 563.462C102.248 562.037 103.402 560.882 104.827 560.881L108.788 560.807C110.213 560.806 111.369 561.961 111.37 563.386C111.37 564.81 110.215 565.966 108.79 565.967Z" fill="#FFD3BA"/>
<path d="M107.899 571.236L103.949 570.941C102.53 570.809 101.487 569.551 101.619 568.133C101.752 566.714 103.009 565.671 104.428 565.803L108.379 566.098C109.797 566.231 110.841 567.488 110.708 568.907C110.576 570.326 109.318 571.369 107.899 571.236Z" fill="#FFD3BA"/>
<path d="M66.2668 496.027C66.2668 510.534 54.5067 522.294 40 522.294C25.4932 522.294 13.7331 510.534 13.7331 496.027C13.7331 481.52 25.4932 469.76 40 469.76C54.5067 469.76 66.2668 481.52 66.2668 496.027Z" fill="#EEEDF3"/>
<path d="M28.4308 486.648C28.9824 487.126 29.5354 487.605 30.087 488.084C31.5231 489.33 33.0064 490.524 34.3996 491.819C36.6231 493.885 38.0078 496.433 38.5565 499.421C39.1109 502.448 38.7208 505.359 37.3619 508.119C36.0587 510.766 34.0667 512.753 31.4545 514.118C29.5954 515.09 27.612 515.613 25.5157 515.694C21.5831 515.847 18.1222 514.658 15.2099 511.995C13.1408 510.101 11.839 507.748 11.2217 505.016C10.8901 503.549 10.7972 502.066 10.9544 500.573C11.2731 497.538 12.4463 494.878 14.4911 492.606C15.2171 491.8 16.0602 491.124 16.8761 490.419C18.2994 489.191 19.7255 487.968 21.1502 486.743C21.1845 486.713 21.213 486.679 21.2445 486.646C21.4388 486.645 21.6332 486.649 21.8275 486.639C21.9461 486.633 21.9718 486.685 21.969 486.79C21.9633 486.99 21.9675 487.191 21.9675 487.391C21.9675 489.38 21.9675 491.369 21.9675 493.358C21.9675 493.72 22.1004 494.007 22.4234 494.181C23.0121 494.5 23.6895 494.075 23.6909 493.387C23.6937 491.82 23.6923 490.254 23.6923 488.688C23.6923 488.059 23.6952 487.431 23.6895 486.802C23.688 486.673 23.7237 486.633 23.8524 486.638C24.1324 486.648 24.4125 486.64 24.6926 486.64C25.9387 486.645 27.1847 486.646 28.4308 486.648ZM25.127 507.392C25.3842 507.392 25.6414 507.386 25.8986 507.395C26.0144 507.399 26.0401 507.359 26.0387 507.25C26.033 506.879 26.0473 506.507 26.0315 506.136C26.0244 505.962 26.073 505.893 26.2445 505.849C26.8575 505.694 27.4076 505.411 27.8678 504.971C28.5851 504.282 28.8452 503.429 28.7866 502.455C28.7223 501.389 28.2422 500.591 27.299 500.076C26.6517 499.721 25.9429 499.544 25.2456 499.333C24.8355 499.208 24.4239 499.088 24.0624 498.848C23.708 498.614 23.5308 498.288 23.5708 497.861C23.6109 497.436 23.8381 497.142 24.2253 496.969C24.5354 496.832 24.8641 496.798 25.197 496.82C25.9515 496.872 26.3645 497.195 26.5988 497.914C26.6431 498.048 26.6746 498.188 26.7003 498.328C26.7174 498.427 26.7389 498.468 26.8589 498.449C27.4119 498.364 27.9664 498.294 28.5208 498.214C28.9138 498.156 28.9138 498.152 28.8223 497.758C28.4808 496.282 27.682 495.237 26.1301 494.903C26.0373 494.883 26.0344 494.83 26.0358 494.756C26.0387 494.378 26.0287 494.001 26.0401 493.624C26.0444 493.475 25.9958 493.445 25.8572 493.448C25.3656 493.457 24.8741 493.455 24.3825 493.448C24.2539 493.447 24.2039 493.474 24.2082 493.615C24.2182 493.992 24.2082 494.37 24.2139 494.747C24.2153 494.847 24.1839 494.888 24.0867 494.908C23.9467 494.937 23.8081 494.971 23.6737 495.016C22.8006 495.303 22.0976 495.796 21.7403 496.676C21.446 497.399 21.4374 498.145 21.6374 498.894C21.8847 499.816 22.532 500.379 23.3579 500.776C23.9881 501.079 24.6626 501.259 25.3171 501.492C25.6772 501.62 26.0358 501.755 26.3359 502.003C26.5217 502.158 26.6546 502.345 26.6917 502.589C26.7703 503.096 26.5403 503.545 26.0644 503.789C25.4842 504.087 24.8741 504.067 24.261 503.93C23.6151 503.785 23.215 503.381 23.0478 502.741C22.9921 502.529 22.9692 502.313 22.9621 502.098C22.9578 501.973 22.9092 501.96 22.8063 501.976C22.2033 502.068 21.5989 502.159 20.9944 502.242C20.893 502.256 20.8758 502.295 20.8844 502.385C20.9172 502.733 20.9915 503.074 21.123 503.397C21.666 504.734 22.6777 505.533 24.0453 505.912C24.171 505.947 24.2196 505.987 24.2167 506.123C24.2067 506.495 24.2196 506.866 24.2096 507.238C24.2053 507.37 24.2496 507.399 24.3739 507.395C24.624 507.385 24.8755 507.392 25.127 507.392Z" fill="#FF985F"/>
<path d="M21.5003 484.922C20.7115 483.553 19.9184 482.186 19.1339 480.814C18.115 479.029 19.1196 476.856 21.1373 476.473C21.3117 476.44 21.4888 476.427 21.666 476.427C23.7809 476.428 25.8944 476.427 28.0093 476.427C30.2656 476.427 31.6703 478.816 30.5585 480.781C29.7983 482.127 29.0153 483.46 28.2422 484.799C28.2193 484.838 28.2007 484.881 28.1807 484.921C26.3645 484.922 24.5483 484.924 22.7335 484.925C22.3219 484.927 21.9118 484.924 21.5003 484.922Z" fill="#FF985F"/>
<path d="M21.5002 484.922C21.9117 484.924 22.3218 484.928 22.7334 484.928C24.5496 484.926 26.3658 484.925 28.1806 484.924C28.2892 484.925 28.3978 484.928 28.5064 484.928C29.0066 484.931 29.3867 485.295 29.3909 485.78C29.3967 486.251 29.0208 486.628 28.5321 486.643C28.4978 486.644 28.4635 486.645 28.4292 486.648C27.1832 486.647 25.9371 486.644 24.6911 486.643C24.411 486.643 24.1309 486.65 23.8508 486.64C23.7208 486.635 23.6865 486.675 23.6879 486.804C23.6936 487.433 23.6908 488.062 23.6908 488.69C23.6908 490.256 23.6922 491.823 23.6893 493.389C23.6879 494.078 23.0106 494.502 22.4218 494.183C22.0989 494.009 21.966 493.72 21.966 493.36C21.9674 491.371 21.966 489.382 21.966 487.393C21.966 487.193 21.9617 486.993 21.9674 486.793C21.9703 486.687 21.9446 486.635 21.826 486.641C21.6316 486.651 21.4373 486.647 21.2429 486.648C20.6971 486.627 20.3555 486.355 20.2941 485.897C20.2269 485.391 20.6113 484.941 21.1215 484.929C21.2487 484.925 21.3744 484.924 21.5002 484.922Z" fill="#FD5B24"/>
<path d="M25.1267 507.392C24.8752 507.392 24.6237 507.385 24.3722 507.395C24.2479 507.399 24.205 507.37 24.2079 507.238C24.2179 506.866 24.205 506.494 24.215 506.123C24.2193 505.987 24.1707 505.946 24.0436 505.911C22.676 505.533 21.6643 504.734 21.1213 503.396C20.9898 503.072 20.9155 502.733 20.8827 502.385C20.8741 502.295 20.8912 502.256 20.9927 502.242C21.5972 502.158 22.2016 502.068 22.8046 501.976C22.9075 501.96 22.9561 501.973 22.9604 502.098C22.9675 502.313 22.9904 502.529 23.0461 502.741C23.2133 503.381 23.6134 503.785 24.2593 503.929C24.8724 504.067 25.4825 504.087 26.0627 503.789C26.5385 503.545 26.7686 503.095 26.69 502.589C26.6514 502.345 26.52 502.158 26.3342 502.003C26.0341 501.755 25.6754 501.62 25.3153 501.492C24.6609 501.259 23.985 501.079 23.3562 500.776C22.5317 500.378 21.8829 499.815 21.6357 498.894C21.4357 498.146 21.4443 497.399 21.7386 496.676C22.0973 495.796 22.8003 495.303 23.672 495.016C23.8078 494.971 23.9464 494.936 24.085 494.908C24.1807 494.89 24.2136 494.848 24.2122 494.747C24.2065 494.37 24.2165 493.992 24.2065 493.615C24.2022 493.474 24.2508 493.445 24.3808 493.448C24.8724 493.455 25.3639 493.455 25.8555 493.448C25.9941 493.445 26.0427 493.475 26.0384 493.624C26.027 494.001 26.0355 494.378 26.0341 494.755C26.0341 494.83 26.037 494.884 26.1284 494.903C27.6789 495.237 28.4791 496.282 28.8206 497.758C28.9121 498.154 28.9121 498.156 28.5191 498.214C27.9661 498.294 27.4102 498.364 26.8572 498.449C26.7372 498.468 26.7157 498.426 26.6986 498.328C26.6729 498.188 26.6414 498.048 26.5971 497.913C26.3614 497.195 25.9498 496.872 25.1953 496.82C24.8609 496.797 24.5337 496.832 24.2236 496.969C23.8364 497.14 23.6091 497.436 23.5691 497.861C23.5291 498.288 23.7063 498.614 24.0607 498.848C24.4237 499.088 24.8352 499.208 25.2439 499.332C25.9412 499.544 26.65 499.723 27.2973 500.076C28.2405 500.591 28.7206 501.389 28.7849 502.455C28.8435 503.429 28.5834 504.284 27.8661 504.971C27.4059 505.413 26.8558 505.694 26.2427 505.849C26.0698 505.891 26.0213 505.961 26.0298 506.136C26.0455 506.507 26.0313 506.879 26.037 507.25C26.0384 507.359 26.0127 507.399 25.8969 507.395C25.6411 507.385 25.3839 507.392 25.1267 507.392Z" fill="#FF985F"/>
<path d="M21.7608 503.912H22.761V502.898L23.3254 502.219L24.4542 503.912H25.5687L23.9255 501.504L25.3472 499.797H24.2184L22.761 501.697V498.375H21.7608V503.912Z" fill="#FFF4EC"/>
<path d="M27.8981 500.804C28.0409 500.804 28.2124 500.84 28.3696 500.897L28.4339 499.74C28.341 499.704 28.2267 499.683 28.1195 499.683C27.7266 499.683 27.2408 499.883 26.9193 500.669V499.797H25.912V503.912H26.9193V501.897C26.9193 501.019 27.4194 500.804 27.8981 500.804Z" fill="#FFF4EC"/>
<path fill-rule="evenodd" clip-rule="evenodd" d="M40 522.295C54.5067 522.295 66.2668 510.535 66.2668 496.028C66.2668 495.355 66.2415 494.688 66.1918 494.027H31.4834C30.2664 494.027 29.28 495.014 29.28 496.231V520.015C32.5534 521.48 36.1816 522.295 40 522.295Z" fill="#C8C5D6"/>
<path fill-rule="evenodd" clip-rule="evenodd" d="M66.0364 499.523C66.1884 498.379 66.2668 497.213 66.2668 496.028C66.2668 495.355 66.2415 494.688 66.1918 494.027H31.5624C30.3016 494.027 29.28 495.049 29.28 496.309V499.523H66.0364Z" fill="#48367D"/>
<path d="M34.99 496.797C34.99 497.427 34.4795 497.938 33.8493 497.938C33.2192 497.938 32.7079 497.427 32.7079 496.797C32.7079 496.167 33.2192 495.656 33.8493 495.656C34.4795 495.656 34.99 496.167 34.99 496.797Z" fill="white"/>
<path d="M38.7348 496.775C38.7348 497.406 38.224 497.916 37.5942 497.916C36.9636 497.916 36.4528 497.406 36.4528 496.775C36.4528 496.145 36.9636 495.634 37.5942 495.634C38.224 495.634 38.7348 496.145 38.7348 496.775Z" fill="white"/>
<path d="M42.5394 496.775C42.5394 497.406 42.0286 497.916 41.3988 497.916C40.7686 497.916 40.2574 497.406 40.2574 496.775C40.2574 496.145 40.7686 495.634 41.3988 495.634C42.0286 495.634 42.5394 496.145 42.5394 496.775Z" fill="white"/>
<path d="M66.2938 419.947C66.2938 434.454 54.5336 446.214 40.0269 446.214C25.5202 446.214 13.76 434.454 13.76 419.947C13.76 405.44 25.5202 393.68 40.0269 393.68C54.5336 393.68 66.2938 405.44 66.2938 419.947Z" fill="#EEEDF3"/>
<path d="M52.2581 432.027H22.8465C21.9961 432.027 21.3069 431.338 21.3069 430.487V407.407C21.3069 406.556 21.9961 405.867 22.8465 405.867H52.2581C53.1082 405.867 53.7977 406.556 53.7977 407.407V430.487C53.7977 431.338 53.1082 432.027 52.2581 432.027Z" fill="#C8C5D6"/>
<path d="M52.2029 405.867H22.9016C22.0207 405.867 21.3069 406.581 21.3069 407.461V409.707H53.7977V407.461C53.7977 406.581 53.0839 405.867 52.2029 405.867Z" fill="#48367D"/>
<path d="M25.2964 407.802C25.2964 408.242 24.9397 408.599 24.4994 408.599C24.0591 408.599 23.7019 408.242 23.7019 407.802C23.7019 407.361 24.0591 407.004 24.4994 407.004C24.9397 407.004 25.2964 407.361 25.2964 407.802Z" fill="white"/>
<path d="M27.9131 407.787C27.9131 408.227 27.5561 408.584 27.1161 408.584C26.6755 408.584 26.3185 408.227 26.3185 407.787C26.3185 407.346 26.6755 406.989 27.1161 406.989C27.5561 406.989 27.9131 407.346 27.9131 407.787Z" fill="white"/>
<path d="M30.5715 407.787C30.5715 408.227 30.2146 408.584 29.7745 408.584C29.3342 408.584 28.977 408.227 28.977 407.787C28.977 407.346 29.3342 406.989 29.7745 406.989C30.2146 406.989 30.5715 407.346 30.5715 407.787Z" fill="white"/>
<path d="M40.7553 424.299H35.0653C33.6222 424.299 32.4414 423.118 32.4414 421.675V415.985C32.4414 414.542 33.6222 413.361 35.0653 413.361H40.7553C42.1984 413.361 43.3792 414.542 43.3792 415.985V421.675C43.3792 423.118 42.1984 424.299 40.7553 424.299Z" fill="white"/>
<path d="M35.4352 419.368L37.5665 420.926L41.2559 415.824" stroke="#48367D" stroke-width="0.216846" stroke-linecap="round" stroke-linejoin="round"/>
<path fill-rule="evenodd" clip-rule="evenodd" d="M46.3941 421.947C45.882 421.947 45.4669 422.362 45.4669 422.874V438.192C45.4669 438.704 45.882 439.119 46.3941 439.119H62.7503C62.7659 439.119 62.7815 439.119 62.7969 439.118C62.8175 439.118 62.8381 439.119 62.8588 439.119H70.9869C72.0914 439.119 72.9869 438.223 72.9869 437.119V434.875C72.9869 434.542 72.9034 434.214 72.7442 433.92L69.9695 428.815C69.6195 428.171 68.9452 427.77 68.2122 427.77H63.6775V422.874C63.6775 422.362 63.2624 421.947 62.7503 421.947H46.3941Z" fill="#FF985F"/>
<path d="M67.6639 429.655L70.1111 433.151C70.5413 433.765 70.1017 434.61 69.3515 434.61H66.9043C66.3922 434.61 65.9771 434.195 65.9771 433.682V430.186C65.9771 429.28 67.144 428.912 67.6639 429.655Z" fill="#FFF4EC"/>
<circle cx="51.5794" cy="439.112" r="2.99707" fill="#FF985F"/>
<circle cx="66.9342" cy="439.112" r="2.99707" fill="#FF985F"/>
</g>
<defs>
<filter id="filter0_d" x="13.4731" y="182.635" width="23.968" height="8.048" filterUnits="userSpaceOnUse" color-interpolation-filters="sRGB">
<feFlood flood-opacity="0" result="BackgroundImageFix"/>
<feColorMatrix in="SourceAlpha" type="matrix" values="0 0 0 0 0 0 0 0 0 0 0 0 0 0 0 0 0 0 127 0"/>
<feOffset dy="0.112"/>
<feGaussianBlur stdDeviation="0.112"/>
<feColorMatrix type="matrix" values="0 0 0 0 0.0862745 0 0 0 0 0.0705882 0 0 0 0 0.145098 0 0 0 0.07 0"/>
<feBlend mode="normal" in2="BackgroundImageFix" result="effect1_dropShadow"/>
<feBlend mode="normal" in="SourceGraphic" in2="effect1_dropShadow" result="shape"/>
</filter>
<clipPath id="clip0">
<rect width="224" height="618" fill="white"/>
</clipPath>
</defs>
</svg>
