<svg width="1515" height="506" viewBox="0 0 1515 506" fill="none" xmlns="http://www.w3.org/2000/svg">
<rect width="1515" height="506" fill="white"/>
<line x1="1074" y1="173.5" x2="1242" y2="173.5" stroke="#4D3280" stroke-dasharray="3 3"/>
<line x1="670" y1="173" x2="670" y2="297" stroke="#49367E" stroke-width="2" stroke-dasharray="8 8"/>
<line x1="1382" y1="172" x2="1382" y2="261" stroke="#49367E" stroke-width="2" stroke-dasharray="8 8"/>
<line x1="1203" y1="173" x2="1382" y2="173" stroke="#49367E" stroke-width="2" stroke-dasharray="8 8"/>
<line x1="136" y1="173" x2="1203" y2="173" stroke="#FF5B24" stroke-width="2"/>
<path d="M424.006 263.288C423.526 260.344 420.998 258.76 418.486 258.76C415.062 258.76 412.23 261.24 412.23 264.92C412.23 268.856 415.094 271.24 418.534 271.24C420.854 271.24 423.75 269.688 424.102 266.392L421.942 266.072C421.766 268.456 420.134 269.192 418.534 269.192C416.262 269.192 414.486 267.896 414.486 264.92C414.486 262.216 416.262 260.808 418.406 260.808C419.878 260.808 421.494 261.416 421.846 263.608L424.006 263.288ZM434.354 271L434.354 261.784L432.354 261.784L432.354 267.144C432.354 268.712 431.314 269.432 429.97 269.432C428.738 269.432 428.13 268.888 428.13 267.464L428.13 261.784L426.13 261.784L426.13 268.216C426.13 270.344 427.666 271.24 429.202 271.24C430.354 271.24 431.634 270.712 432.354 269.448L432.354 271L434.354 271ZM436.69 264.376C436.69 265.656 437.426 266.6 438.994 266.936L440.674 267.304C441.826 267.56 442.146 267.896 442.146 268.44C442.146 269.208 441.394 269.64 440.29 269.64C438.994 269.64 438.146 269.032 438.018 267.896L436.242 268.216C436.546 270.36 438.546 271.24 440.338 271.24C442.114 271.24 444.002 270.248 444.002 268.248C444.002 266.968 443.25 266.104 441.618 265.752L439.794 265.352C438.866 265.144 438.546 264.696 438.546 264.216C438.546 263.544 439.186 263.128 440.098 263.128C441.202 263.128 442.018 263.528 442.082 264.728L443.858 264.408C443.33 262.344 441.938 261.528 440.082 261.528C438.578 261.528 436.69 262.36 436.69 264.376ZM446.664 259.56L446.664 261.784L444.952 261.784L444.952 263.4L446.664 263.4L446.664 268.408C446.664 270.104 447.512 271.16 449.352 271.16C449.912 271.16 450.568 271.016 451.048 270.872L450.728 269.256C450.36 269.352 450.136 269.4 449.768 269.4C448.952 269.4 448.664 269.032 448.664 268.312L448.664 263.4L450.968 263.4L450.968 261.784L448.664 261.784L448.664 259.24L446.664 259.56ZM456.912 261.528C454.416 261.528 452.352 263.352 452.352 266.376C452.352 269.4 454.416 271.24 456.912 271.24C459.408 271.24 461.472 269.4 461.472 266.376C461.472 263.352 459.408 261.528 456.912 261.528ZM456.912 263.256C458.288 263.256 459.456 264.264 459.456 266.376C459.456 268.488 458.288 269.512 456.912 269.512C455.536 269.512 454.368 268.488 454.368 266.376C454.368 264.264 455.536 263.256 456.912 263.256ZM473.652 263.336C474.788 263.336 475.652 263.976 475.652 265.688L475.652 271L477.652 271L477.652 264.824C477.652 262.344 476.132 261.528 474.452 261.528C473.428 261.528 472.132 261.944 471.444 263.32C470.948 262.008 469.78 261.528 468.548 261.528C467.444 261.528 466.116 261.96 465.46 263.144L465.46 261.784L463.46 261.784L463.46 271L465.46 271L465.46 265.736C465.46 264.088 466.404 263.336 467.684 263.336C468.82 263.336 469.684 263.976 469.684 265.688L469.684 271L471.684 271L471.684 265.736C471.684 264.088 472.516 263.336 473.652 263.336ZM484.18 263.256C485.476 263.256 486.5 263.864 486.66 265.4L481.652 265.4C481.924 263.976 482.852 263.256 484.18 263.256ZM488.548 266.824L488.548 266.168C488.548 263.448 486.756 261.528 484.26 261.528C481.588 261.528 479.556 263.4 479.556 266.36C479.556 269.4 481.668 271.24 484.388 271.24C486.084 271.24 488.132 270.264 488.484 268.136L486.628 267.816C486.42 268.872 485.812 269.512 484.308 269.512C482.644 269.512 481.732 268.44 481.588 266.824L488.548 266.824ZM494.938 263.688C495.434 263.688 495.786 263.752 496.138 263.896L496.33 261.656C496.138 261.56 495.866 261.528 495.626 261.528C494.714 261.528 493.274 262.056 492.522 263.992L492.522 261.784L490.522 261.784L490.522 271L492.522 271L492.522 266.968C492.522 264.408 493.642 263.688 494.938 263.688ZM510.659 265.368C510.323 262.888 508.355 261.528 506.211 261.528C503.571 261.528 501.571 263.4 501.571 266.376C501.571 269.224 503.539 271.24 506.355 271.24C508.131 271.24 510.211 270.264 510.643 267.448L508.819 267.128C508.611 268.696 507.747 269.496 506.339 269.496C504.467 269.496 503.587 268.072 503.587 266.376C503.587 264.328 504.707 263.256 506.115 263.256C507.395 263.256 508.467 263.944 508.691 265.688L510.659 265.368ZM512.538 258.6L512.538 271L514.538 271L514.538 265.736C514.538 264.088 515.482 263.336 516.826 263.336C517.898 263.336 518.762 263.976 518.762 265.688L518.762 271L520.762 271L520.762 264.824C520.762 262.344 519.242 261.528 517.482 261.528C516.506 261.528 515.194 261.96 514.538 263.144L514.538 258.6L512.538 258.6ZM527.225 261.528C524.729 261.528 522.665 263.352 522.665 266.376C522.665 269.4 524.729 271.24 527.225 271.24C529.721 271.24 531.785 269.4 531.785 266.376C531.785 263.352 529.721 261.528 527.225 261.528ZM527.225 263.256C528.601 263.256 529.769 264.264 529.769 266.376C529.769 268.488 528.601 269.512 527.225 269.512C525.849 269.512 524.681 268.488 524.681 266.376C524.681 264.264 525.849 263.256 527.225 263.256ZM537.756 261.528C535.26 261.528 533.196 263.352 533.196 266.376C533.196 269.4 535.26 271.24 537.756 271.24C540.252 271.24 542.316 269.4 542.316 266.376C542.316 263.352 540.252 261.528 537.756 261.528ZM537.756 263.256C539.132 263.256 540.3 264.264 540.3 266.376C540.3 268.488 539.132 269.512 537.756 269.512C536.38 269.512 535.212 268.488 535.212 266.376C535.212 264.264 536.38 263.256 537.756 263.256ZM544.111 264.376C544.111 265.656 544.847 266.6 546.415 266.936L548.095 267.304C549.247 267.56 549.567 267.896 549.567 268.44C549.567 269.208 548.815 269.64 547.711 269.64C546.415 269.64 545.567 269.032 545.439 267.896L543.663 268.216C543.967 270.36 545.967 271.24 547.759 271.24C549.535 271.24 551.423 270.248 551.423 268.248C551.423 266.968 550.671 266.104 549.039 265.752L547.215 265.352C546.287 265.144 545.967 264.696 545.967 264.216C545.967 263.544 546.607 263.128 547.519 263.128C548.623 263.128 549.439 263.528 549.503 264.728L551.279 264.408C550.751 262.344 549.359 261.528 547.503 261.528C545.999 261.528 544.111 262.36 544.111 264.376ZM557.43 263.256C558.726 263.256 559.75 263.864 559.91 265.4L554.902 265.4C555.174 263.976 556.102 263.256 557.43 263.256ZM561.798 266.824L561.798 266.168C561.798 263.448 560.006 261.528 557.51 261.528C554.838 261.528 552.806 263.4 552.806 266.36C552.806 269.4 554.918 271.24 557.638 271.24C559.334 271.24 561.382 270.264 561.734 268.136L559.878 267.816C559.67 268.872 559.062 269.512 557.558 269.512C555.894 269.512 554.982 268.44 554.838 266.824L561.798 266.824ZM563.58 264.376C563.58 265.656 564.316 266.6 565.884 266.936L567.564 267.304C568.716 267.56 569.036 267.896 569.036 268.44C569.036 269.208 568.284 269.64 567.18 269.64C565.884 269.64 565.036 269.032 564.908 267.896L563.132 268.216C563.436 270.36 565.436 271.24 567.228 271.24C569.004 271.24 570.892 270.248 570.892 268.248C570.892 266.968 570.14 266.104 568.508 265.752L566.684 265.352C565.756 265.144 565.436 264.696 565.436 264.216C565.436 263.544 566.076 263.128 566.988 263.128C568.092 263.128 568.908 263.528 568.972 264.728L570.748 264.408C570.22 262.344 568.828 261.528 566.972 261.528C565.468 261.528 563.58 262.36 563.58 264.376ZM420.804 286.56L420.804 288.784L419.092 288.784L419.092 290.4L420.804 290.4L420.804 295.408C420.804 297.104 421.652 298.16 423.492 298.16C424.052 298.16 424.708 298.016 425.188 297.872L424.868 296.256C424.5 296.352 424.276 296.4 423.908 296.4C423.092 296.4 422.804 296.032 422.804 295.312L422.804 290.4L425.108 290.4L425.108 288.784L422.804 288.784L422.804 286.24L420.804 286.56ZM431.053 288.528C428.557 288.528 426.493 290.352 426.493 293.376C426.493 296.4 428.557 298.24 431.053 298.24C433.549 298.24 435.613 296.4 435.613 293.376C435.613 290.352 433.549 288.528 431.053 288.528ZM431.053 290.256C432.429 290.256 433.597 291.264 433.597 293.376C433.597 295.488 432.429 296.512 431.053 296.512C429.677 296.512 428.509 295.488 428.509 293.376C428.509 291.264 429.677 290.256 431.053 290.256ZM447.033 288.528C445.465 288.528 444.505 289.52 443.913 290.592L443.913 288.784L441.913 288.784L441.913 301.2L443.913 301.2L443.913 296.256C444.681 297.568 445.673 298.24 446.841 298.24C448.985 298.24 451.081 296.608 451.081 293.248C451.081 290.032 448.905 288.528 447.033 288.528ZM446.489 290.256C447.753 290.256 449.065 291.264 449.065 293.36C449.065 295.488 447.753 296.496 446.473 296.496C445.129 296.496 443.913 295.408 443.913 293.36C443.913 291.216 445.129 290.256 446.489 290.256ZM456.668 298.24C458.316 298.24 459.324 297.232 459.788 296.096L459.788 298L461.788 298L461.788 288.784L459.788 288.784L459.788 290.592C459.132 289.136 458.124 288.528 456.684 288.528C454.748 288.528 452.62 290.08 452.62 293.296C452.62 296.672 454.764 298.24 456.668 298.24ZM457.228 290.256C458.572 290.256 459.788 291.28 459.788 293.408C459.788 295.6 458.572 296.496 457.212 296.496C455.948 296.496 454.636 295.552 454.636 293.408C454.636 291.232 455.964 290.256 457.228 290.256ZM465.166 301.2C466.958 301.2 468.11 300.256 468.83 298.384L472.51 288.784L470.286 288.784L467.966 295.984L465.534 288.784L463.31 288.784L466.702 297.296C467.166 298.464 466.734 299.536 465.358 299.536C464.638 299.536 464.19 299.312 463.902 299.136L463.582 300.864C464.014 301.072 464.558 301.2 465.166 301.2ZM491.63 288.784L489.406 288.784L487.438 295.504L485.214 288.784L483.726 288.784L481.518 295.472L479.534 288.784L477.31 288.784L480.622 298L482.35 298L484.478 292.176L486.59 298L488.318 298L491.63 288.784ZM493.147 288.784L493.147 298L495.147 298L495.147 288.784L493.147 288.784ZM494.139 284.8C493.467 284.8 492.939 285.344 492.939 286C492.939 286.656 493.467 287.2 494.139 287.2C494.811 287.2 495.339 286.656 495.339 286C495.339 285.344 494.811 284.8 494.139 284.8ZM498.414 286.56L498.414 288.784L496.702 288.784L496.702 290.4L498.414 290.4L498.414 295.408C498.414 297.104 499.262 298.16 501.102 298.16C501.662 298.16 502.318 298.016 502.798 297.872L502.478 296.256C502.11 296.352 501.886 296.4 501.518 296.4C500.702 296.4 500.414 296.032 500.414 295.312L500.414 290.4L502.718 290.4L502.718 288.784L500.414 288.784L500.414 286.24L498.414 286.56ZM504.678 285.6L504.678 298L506.678 298L506.678 292.736C506.678 291.088 507.622 290.336 508.966 290.336C510.038 290.336 510.902 290.976 510.902 292.688L510.902 298L512.902 298L512.902 291.824C512.902 289.344 511.382 288.528 509.622 288.528C508.646 288.528 507.334 288.96 506.678 290.144L506.678 285.6L504.678 285.6ZM527.854 288.784L525.63 288.784L523.262 295.744L520.878 288.784L518.654 288.784L522.334 298L524.174 298L527.854 288.784ZM529.382 288.784L529.382 298L531.382 298L531.382 288.784L529.382 288.784ZM530.374 284.8C529.702 284.8 529.174 285.344 529.174 286C529.174 286.656 529.702 287.2 530.374 287.2C531.046 287.2 531.574 286.656 531.574 286C531.574 285.344 531.046 284.8 530.374 284.8ZM539.064 288.528C537.496 288.528 536.536 289.52 535.944 290.592L535.944 288.784L533.944 288.784L533.944 301.2L535.944 301.2L535.944 296.256C536.712 297.568 537.704 298.24 538.872 298.24C541.016 298.24 543.112 296.608 543.112 293.248C543.112 290.032 540.936 288.528 539.064 288.528ZM538.52 290.256C539.784 290.256 541.096 291.264 541.096 293.36C541.096 295.488 539.784 296.496 538.504 296.496C537.16 296.496 535.944 295.408 535.944 293.36C535.944 291.216 537.16 290.256 538.52 290.256ZM550.283 288.528C548.715 288.528 547.755 289.52 547.163 290.592L547.163 288.784L545.163 288.784L545.163 301.2L547.163 301.2L547.163 296.256C547.931 297.568 548.923 298.24 550.091 298.24C552.235 298.24 554.331 296.608 554.331 293.248C554.331 290.032 552.155 288.528 550.283 288.528ZM549.739 290.256C551.003 290.256 552.315 291.264 552.315 293.36C552.315 295.488 551.003 296.496 549.723 296.496C548.379 296.496 547.163 295.408 547.163 293.36C547.163 291.216 548.379 290.256 549.739 290.256ZM556.19 291.376C556.19 292.656 556.926 293.6 558.494 293.936L560.174 294.304C561.326 294.56 561.646 294.896 561.646 295.44C561.646 296.208 560.894 296.64 559.79 296.64C558.494 296.64 557.646 296.032 557.518 294.896L555.742 295.216C556.046 297.36 558.046 298.24 559.838 298.24C561.614 298.24 563.502 297.248 563.502 295.248C563.502 293.968 562.75 293.104 561.118 292.752L559.294 292.352C558.366 292.144 558.046 291.696 558.046 291.216C558.046 290.544 558.686 290.128 559.598 290.128C560.702 290.128 561.518 290.528 561.582 291.728L563.358 291.408C562.83 289.344 561.438 288.528 559.582 288.528C558.078 288.528 556.19 289.36 556.19 291.376Z" fill="#FF5B24"/>
<path d="M777.615 267.288C777.135 264.344 774.607 262.76 772.095 262.76C768.671 262.76 765.839 265.24 765.839 268.92C765.839 272.856 768.703 275.24 772.143 275.24C774.463 275.24 777.359 273.688 777.711 270.392L775.551 270.072C775.375 272.456 773.743 273.192 772.143 273.192C769.871 273.192 768.095 271.896 768.095 268.92C768.095 266.216 769.871 264.808 772.015 264.808C773.487 264.808 775.103 265.416 775.455 267.608L777.615 267.288ZM787.964 275L787.964 265.784L785.964 265.784L785.964 271.144C785.964 272.712 784.924 273.432 783.58 273.432C782.348 273.432 781.74 272.888 781.74 271.464L781.74 265.784L779.74 265.784L779.74 272.216C779.74 274.344 781.276 275.24 782.812 275.24C783.964 275.24 785.244 274.712 785.964 273.448L785.964 275L787.964 275ZM790.299 268.376C790.299 269.656 791.035 270.6 792.603 270.936L794.283 271.304C795.435 271.56 795.755 271.896 795.755 272.44C795.755 273.208 795.003 273.64 793.899 273.64C792.603 273.64 791.755 273.032 791.627 271.896L789.851 272.216C790.155 274.36 792.155 275.24 793.947 275.24C795.723 275.24 797.611 274.248 797.611 272.248C797.611 270.968 796.859 270.104 795.227 269.752L793.403 269.352C792.475 269.144 792.155 268.696 792.155 268.216C792.155 267.544 792.795 267.128 793.707 267.128C794.811 267.128 795.627 267.528 795.691 268.728L797.467 268.408C796.939 266.344 795.547 265.528 793.691 265.528C792.187 265.528 790.299 266.36 790.299 268.376ZM800.273 263.56L800.273 265.784L798.561 265.784L798.561 267.4L800.273 267.4L800.273 272.408C800.273 274.104 801.121 275.16 802.961 275.16C803.521 275.16 804.177 275.016 804.657 274.872L804.337 273.256C803.969 273.352 803.745 273.4 803.377 273.4C802.561 273.4 802.273 273.032 802.273 272.312L802.273 267.4L804.577 267.4L804.577 265.784L802.273 265.784L802.273 263.24L800.273 263.56ZM810.522 265.528C808.026 265.528 805.962 267.352 805.962 270.376C805.962 273.4 808.026 275.24 810.522 275.24C813.018 275.24 815.082 273.4 815.082 270.376C815.082 267.352 813.018 265.528 810.522 265.528ZM810.522 267.256C811.898 267.256 813.066 268.264 813.066 270.376C813.066 272.488 811.898 273.512 810.522 273.512C809.146 273.512 807.978 272.488 807.978 270.376C807.978 268.264 809.146 267.256 810.522 267.256ZM827.261 267.336C828.397 267.336 829.261 267.976 829.261 269.688L829.261 275L831.261 275L831.261 268.824C831.261 266.344 829.741 265.528 828.061 265.528C827.037 265.528 825.741 265.944 825.053 267.32C824.557 266.008 823.389 265.528 822.157 265.528C821.053 265.528 819.725 265.96 819.069 267.144L819.069 265.784L817.069 265.784L817.069 275L819.069 275L819.069 269.736C819.069 268.088 820.013 267.336 821.293 267.336C822.429 267.336 823.293 267.976 823.293 269.688L823.293 275L825.293 275L825.293 269.736C825.293 268.088 826.125 267.336 827.261 267.336ZM837.789 267.256C839.085 267.256 840.109 267.864 840.269 269.4L835.261 269.4C835.533 267.976 836.461 267.256 837.789 267.256ZM842.157 270.824L842.157 270.168C842.157 267.448 840.365 265.528 837.869 265.528C835.197 265.528 833.165 267.4 833.165 270.36C833.165 273.4 835.277 275.24 837.997 275.24C839.693 275.24 841.741 274.264 842.093 272.136L840.237 271.816C840.029 272.872 839.421 273.512 837.917 273.512C836.253 273.512 835.341 272.44 835.197 270.824L842.157 270.824ZM848.548 267.688C849.044 267.688 849.396 267.752 849.748 267.896L849.94 265.656C849.748 265.56 849.476 265.528 849.236 265.528C848.324 265.528 846.884 266.056 846.132 267.992L846.132 265.784L844.132 265.784L844.132 275L846.132 275L846.132 270.968C846.132 268.408 847.252 267.688 848.548 267.688ZM864.269 269.368C863.933 266.888 861.965 265.528 859.821 265.528C857.181 265.528 855.181 267.4 855.181 270.376C855.181 273.224 857.149 275.24 859.965 275.24C861.741 275.24 863.821 274.264 864.253 271.448L862.429 271.128C862.221 272.696 861.357 273.496 859.949 273.496C858.077 273.496 857.197 272.072 857.197 270.376C857.197 268.328 858.317 267.256 859.725 267.256C861.005 267.256 862.077 267.944 862.301 269.688L864.269 269.368ZM870.131 265.528C867.635 265.528 865.571 267.352 865.571 270.376C865.571 273.4 867.635 275.24 870.131 275.24C872.627 275.24 874.691 273.4 874.691 270.376C874.691 267.352 872.627 265.528 870.131 265.528ZM870.131 267.256C871.507 267.256 872.675 268.264 872.675 270.376C872.675 272.488 871.507 273.512 870.131 273.512C868.755 273.512 867.587 272.488 867.587 270.376C867.587 268.264 868.755 267.256 870.131 267.256ZM880.95 267.336C882.038 267.336 882.902 267.976 882.902 269.688L882.902 275L884.902 275L884.902 268.824C884.902 266.344 883.334 265.528 881.686 265.528C880.598 265.528 879.334 265.976 878.678 267.144L878.678 265.784L876.678 265.784L876.678 275L878.678 275L878.678 269.736C878.678 268.088 879.622 267.336 880.95 267.336ZM887.91 275L889.91 275L889.91 267.4L892.198 267.4L892.198 265.784L889.91 265.784L889.91 265.416C889.91 264.536 890.166 264.072 891.014 264.072C891.238 264.072 891.43 264.088 891.622 264.12L891.766 262.424C891.51 262.344 891.174 262.296 890.79 262.296C889.062 262.296 887.91 263.384 887.91 265.432L887.91 265.784L886.646 265.784L886.646 267.4L887.91 267.4L887.91 275ZM893.616 265.784L893.616 275L895.616 275L895.616 265.784L893.616 265.784ZM894.608 261.8C893.936 261.8 893.408 262.344 893.408 263C893.408 263.656 893.936 264.2 894.608 264.2C895.28 264.2 895.808 263.656 895.808 263C895.808 262.344 895.28 261.8 894.608 261.8ZM902.594 267.688C903.09 267.688 903.442 267.752 903.794 267.896L903.986 265.656C903.794 265.56 903.522 265.528 903.282 265.528C902.37 265.528 900.93 266.056 900.178 267.992L900.178 265.784L898.178 265.784L898.178 275L900.178 275L900.178 270.968C900.178 268.408 901.298 267.688 902.594 267.688ZM915.683 267.336C916.819 267.336 917.683 267.976 917.683 269.688L917.683 275L919.683 275L919.683 268.824C919.683 266.344 918.163 265.528 916.483 265.528C915.459 265.528 914.163 265.944 913.475 267.32C912.979 266.008 911.811 265.528 910.579 265.528C909.475 265.528 908.147 265.96 907.491 267.144L907.491 265.784L905.491 265.784L905.491 275L907.491 275L907.491 269.736C907.491 268.088 908.435 267.336 909.715 267.336C910.851 267.336 911.715 267.976 911.715 269.688L911.715 275L913.715 275L913.715 269.736C913.715 268.088 914.547 267.336 915.683 267.336ZM921.971 268.376C921.971 269.656 922.707 270.6 924.275 270.936L925.955 271.304C927.107 271.56 927.427 271.896 927.427 272.44C927.427 273.208 926.675 273.64 925.571 273.64C924.275 273.64 923.427 273.032 923.299 271.896L921.523 272.216C921.827 274.36 923.827 275.24 925.619 275.24C927.395 275.24 929.283 274.248 929.283 272.248C929.283 270.968 928.531 270.104 926.899 269.752L925.075 269.352C924.147 269.144 923.827 268.696 923.827 268.216C923.827 267.544 924.467 267.128 925.379 267.128C926.483 267.128 927.299 267.528 927.363 268.728L929.139 268.408C928.611 266.344 927.219 265.528 925.363 265.528C923.859 265.528 921.971 266.36 921.971 268.376Z" fill="#FF5B24"/>
<path d="M74.1098 270.488L74.0938 270.616C73.9018 272.136 72.6698 273.192 70.7818 273.192C68.7978 273.192 66.8138 272.008 66.8138 269.048C66.8138 266.232 68.4618 264.808 70.6698 264.808C72.3498 264.808 73.7738 265.448 74.0458 267.448L76.1578 267.128C75.6938 263.784 72.7978 262.76 70.7978 262.76C67.2138 262.76 64.5578 265.336 64.5578 269.048C64.5578 272.6 67.1658 275.24 70.2058 275.24C72.1418 275.24 73.5178 274.04 74.1578 272.76L74.1738 272.76L74.5418 275L76.3178 275L76.3178 268.6L70.9578 268.6L70.9578 270.488L74.1098 270.488ZM82.9452 267.256C84.2412 267.256 85.2652 267.864 85.4252 269.4L80.4172 269.4C80.6892 267.976 81.6172 267.256 82.9452 267.256ZM87.3132 270.824L87.3132 270.168C87.3132 267.448 85.5212 265.528 83.0252 265.528C80.3532 265.528 78.3212 267.4 78.3212 270.36C78.3212 273.4 80.4332 275.24 83.1532 275.24C84.8492 275.24 86.8972 274.264 87.2492 272.136L85.3932 271.816C85.1852 272.872 84.5772 273.512 83.0732 273.512C81.4092 273.512 80.4972 272.44 80.3532 270.824L87.3132 270.824ZM89.9918 263.56L89.9918 265.784L88.2798 265.784L88.2798 267.4L89.9918 267.4L89.9918 272.408C89.9918 274.104 90.8398 275.16 92.6798 275.16C93.2398 275.16 93.8958 275.016 94.3758 274.872L94.0558 273.256C93.6878 273.352 93.4638 273.4 93.0958 273.4C92.2798 273.4 91.9918 273.032 91.9918 272.312L91.9918 267.4L94.2958 267.4L94.2958 265.784L91.9918 265.784L91.9918 263.24L89.9918 263.56ZM104.105 275.24C105.753 275.24 106.761 274.232 107.225 273.096L107.225 275L109.225 275L109.225 265.784L107.225 265.784L107.225 267.592C106.569 266.136 105.561 265.528 104.121 265.528C102.185 265.528 100.057 267.08 100.057 270.296C100.057 273.672 102.201 275.24 104.105 275.24ZM104.665 267.256C106.009 267.256 107.225 268.28 107.225 270.408C107.225 272.6 106.009 273.496 104.649 273.496C103.385 273.496 102.073 272.552 102.073 270.408C102.073 268.232 103.401 267.256 104.665 267.256ZM120.3 269.368C119.964 266.888 117.996 265.528 115.852 265.528C113.212 265.528 111.212 267.4 111.212 270.376C111.212 273.224 113.18 275.24 115.996 275.24C117.772 275.24 119.852 274.264 120.284 271.448L118.46 271.128C118.252 272.696 117.388 273.496 115.98 273.496C114.108 273.496 113.228 272.072 113.228 270.376C113.228 268.328 114.348 267.256 115.756 267.256C117.036 267.256 118.108 267.944 118.332 269.688L120.3 269.368ZM130.69 269.368C130.354 266.888 128.386 265.528 126.242 265.528C123.602 265.528 121.602 267.4 121.602 270.376C121.602 273.224 123.57 275.24 126.386 275.24C128.162 275.24 130.242 274.264 130.674 271.448L128.85 271.128C128.642 272.696 127.778 273.496 126.37 273.496C124.498 273.496 123.618 272.072 123.618 270.376C123.618 268.328 124.738 267.256 126.146 267.256C127.426 267.256 128.498 267.944 128.722 269.688L130.69 269.368ZM136.617 267.256C137.913 267.256 138.937 267.864 139.097 269.4L134.089 269.4C134.361 267.976 135.289 267.256 136.617 267.256ZM140.985 270.824L140.985 270.168C140.985 267.448 139.193 265.528 136.697 265.528C134.025 265.528 131.993 267.4 131.993 270.36C131.993 273.4 134.105 275.24 136.825 275.24C138.521 275.24 140.569 274.264 140.921 272.136L139.065 271.816C138.857 272.872 138.249 273.512 136.745 273.512C135.081 273.512 134.169 272.44 134.025 270.824L140.985 270.824ZM142.768 268.376C142.768 269.656 143.504 270.6 145.072 270.936L146.752 271.304C147.904 271.56 148.224 271.896 148.224 272.44C148.224 273.208 147.472 273.64 146.368 273.64C145.072 273.64 144.224 273.032 144.096 271.896L142.32 272.216C142.624 274.36 144.624 275.24 146.416 275.24C148.192 275.24 150.08 274.248 150.08 272.248C150.08 270.968 149.328 270.104 147.696 269.752L145.872 269.352C144.944 269.144 144.624 268.696 144.624 268.216C144.624 267.544 145.264 267.128 146.176 267.128C147.28 267.128 148.096 267.528 148.16 268.728L149.936 268.408C149.408 266.344 148.016 265.528 146.16 265.528C144.656 265.528 142.768 266.36 142.768 268.376ZM151.846 268.376C151.846 269.656 152.582 270.6 154.15 270.936L155.83 271.304C156.982 271.56 157.302 271.896 157.302 272.44C157.302 273.208 156.55 273.64 155.446 273.64C154.15 273.64 153.302 273.032 153.174 271.896L151.398 272.216C151.702 274.36 153.702 275.24 155.494 275.24C157.27 275.24 159.158 274.248 159.158 272.248C159.158 270.968 158.406 270.104 156.774 269.752L154.95 269.352C154.022 269.144 153.702 268.696 153.702 268.216C153.702 267.544 154.342 267.128 155.254 267.128C156.358 267.128 157.174 267.528 157.238 268.728L159.014 268.408C158.486 266.344 157.094 265.528 155.238 265.528C153.734 265.528 151.846 266.36 151.846 268.376ZM166.132 263.56L166.132 265.784L164.42 265.784L164.42 267.4L166.132 267.4L166.132 272.408C166.132 274.104 166.98 275.16 168.82 275.16C169.38 275.16 170.036 275.016 170.516 274.872L170.196 273.256C169.828 273.352 169.604 273.4 169.236 273.4C168.42 273.4 168.132 273.032 168.132 272.312L168.132 267.4L170.436 267.4L170.436 265.784L168.132 265.784L168.132 263.24L166.132 263.56ZM176.381 265.528C173.885 265.528 171.821 267.352 171.821 270.376C171.821 273.4 173.885 275.24 176.381 275.24C178.877 275.24 180.941 273.4 180.941 270.376C180.941 267.352 178.877 265.528 176.381 265.528ZM176.381 267.256C177.757 267.256 178.925 268.264 178.925 270.376C178.925 272.488 177.757 273.512 176.381 273.512C175.005 273.512 173.837 272.488 173.837 270.376C173.837 268.264 175.005 267.256 176.381 267.256ZM182.928 275L184.928 275L184.928 272.792L186.624 270.888L189.376 275L191.456 275L187.76 269.592L191.152 265.784L188.976 265.784L184.928 270.552L184.928 262.6L182.928 262.6L182.928 275ZM196.789 267.256C198.085 267.256 199.109 267.864 199.269 269.4L194.261 269.4C194.533 267.976 195.461 267.256 196.789 267.256ZM201.157 270.824L201.157 270.168C201.157 267.448 199.365 265.528 196.869 265.528C194.197 265.528 192.165 267.4 192.165 270.36C192.165 273.4 194.277 275.24 196.997 275.24C198.693 275.24 200.741 274.264 201.093 272.136L199.237 271.816C199.029 272.872 198.421 273.512 196.917 273.512C195.253 273.512 194.341 272.44 194.197 270.824L201.157 270.824ZM207.404 267.336C208.492 267.336 209.356 267.976 209.356 269.688L209.356 275L211.356 275L211.356 268.824C211.356 266.344 209.788 265.528 208.14 265.528C207.052 265.528 205.788 265.976 205.132 267.144L205.132 265.784L203.132 265.784L203.132 275L205.132 275L205.132 269.736C205.132 268.088 206.076 267.336 207.404 267.336Z" fill="#FF5B24"/>
<path d="M243.19 266.216C243.19 270.84 249.83 269.32 249.83 271.864C249.83 272.776 249.126 273.384 247.766 273.384C246.47 273.384 244.982 272.952 244.774 270.904L242.71 271.384C243.03 273.96 245.302 275.24 247.702 275.24C249.83 275.24 251.926 274.024 251.926 271.736C251.926 267.256 245.318 268.888 245.318 266.136C245.318 265.192 246.038 264.616 247.27 264.616C248.342 264.616 249.542 265.096 249.638 266.76L251.75 266.28C251.398 263.8 249.254 262.76 247.366 262.76C245.27 262.76 243.19 263.912 243.19 266.216ZM257.945 267.256C259.241 267.256 260.265 267.864 260.425 269.4L255.417 269.4C255.689 267.976 256.617 267.256 257.945 267.256ZM262.313 270.824L262.313 270.168C262.313 267.448 260.521 265.528 258.025 265.528C255.353 265.528 253.321 267.4 253.321 270.36C253.321 273.4 255.433 275.24 258.153 275.24C259.849 275.24 261.897 274.264 262.249 272.136L260.393 271.816C260.185 272.872 259.577 273.512 258.073 273.512C256.409 273.512 255.497 272.44 255.353 270.824L262.313 270.824ZM264.992 263.56L264.992 265.784L263.28 265.784L263.28 267.4L264.992 267.4L264.992 272.408C264.992 274.104 265.84 275.16 267.68 275.16C268.24 275.16 268.896 275.016 269.376 274.872L269.056 273.256C268.688 273.352 268.464 273.4 268.096 273.4C267.28 273.4 266.992 273.032 266.992 272.312L266.992 267.4L269.296 267.4L269.296 265.784L266.992 265.784L266.992 263.24L264.992 263.56ZM283.745 275L283.745 265.784L281.745 265.784L281.745 271.144C281.745 272.712 280.705 273.432 279.361 273.432C278.129 273.432 277.521 272.888 277.521 271.464L277.521 265.784L275.521 265.784L275.521 272.216C275.521 274.344 277.057 275.24 278.593 275.24C279.745 275.24 281.025 274.712 281.745 273.448L281.745 275L283.745 275ZM291.392 265.528C289.824 265.528 288.864 266.52 288.272 267.592L288.272 265.784L286.272 265.784L286.272 278.2L288.272 278.2L288.272 273.256C289.04 274.568 290.032 275.24 291.2 275.24C293.344 275.24 295.44 273.608 295.44 270.248C295.44 267.032 293.264 265.528 291.392 265.528ZM290.848 267.256C292.112 267.256 293.424 268.264 293.424 270.36C293.424 272.488 292.112 273.496 290.832 273.496C289.488 273.496 288.272 272.408 288.272 270.36C288.272 268.216 289.488 267.256 290.848 267.256ZM305.851 267.256C307.147 267.256 308.171 267.864 308.331 269.4L303.323 269.4C303.595 267.976 304.523 267.256 305.851 267.256ZM310.219 270.824L310.219 270.168C310.219 267.448 308.427 265.528 305.931 265.528C303.259 265.528 301.227 267.4 301.227 270.36C301.227 273.4 303.339 275.24 306.059 275.24C307.755 275.24 309.803 274.264 310.155 272.136L308.299 271.816C308.091 272.872 307.483 273.512 305.979 273.512C304.315 273.512 303.403 272.44 303.259 270.824L310.219 270.824ZM316.466 267.336C317.554 267.336 318.418 267.976 318.418 269.688L318.418 275L320.418 275L320.418 268.824C320.418 266.344 318.85 265.528 317.202 265.528C316.114 265.528 314.85 265.976 314.194 267.144L314.194 265.784L312.194 265.784L312.194 275L314.194 275L314.194 269.736C314.194 268.088 315.138 267.336 316.466 267.336ZM331.553 262.6L329.553 262.6L329.553 267.592C328.897 266.136 327.905 265.528 326.657 265.528C324.513 265.528 322.385 267.08 322.385 270.296C322.385 273.672 324.529 275.24 326.401 275.24C328.081 275.24 329.089 274.36 329.553 273.256L329.553 275L331.553 275L331.553 262.6ZM326.993 267.256C328.337 267.256 329.553 268.328 329.553 270.408C329.553 272.552 328.337 273.496 326.977 273.496C325.713 273.496 324.401 272.504 324.401 270.408C324.401 268.28 325.729 267.256 326.993 267.256ZM339.236 265.528C337.668 265.528 336.708 266.52 336.116 267.592L336.116 265.784L334.116 265.784L334.116 278.2L336.116 278.2L336.116 273.256C336.884 274.568 337.876 275.24 339.044 275.24C341.188 275.24 343.284 273.608 343.284 270.248C343.284 267.032 341.108 265.528 339.236 265.528ZM338.692 267.256C339.956 267.256 341.268 268.264 341.268 270.36C341.268 272.488 339.956 273.496 338.676 273.496C337.332 273.496 336.116 272.408 336.116 270.36C336.116 268.216 337.332 267.256 338.692 267.256ZM349.319 265.528C346.823 265.528 344.759 267.352 344.759 270.376C344.759 273.4 346.823 275.24 349.319 275.24C351.815 275.24 353.879 273.4 353.879 270.376C353.879 267.352 351.815 265.528 349.319 265.528ZM349.319 267.256C350.695 267.256 351.863 268.264 351.863 270.376C351.863 272.488 350.695 273.512 349.319 273.512C347.943 273.512 346.775 272.488 346.775 270.376C346.775 268.264 347.943 267.256 349.319 267.256ZM355.866 265.784L355.866 275L357.866 275L357.866 265.784L355.866 265.784ZM356.858 261.8C356.186 261.8 355.658 262.344 355.658 263C355.658 263.656 356.186 264.2 356.858 264.2C357.53 264.2 358.058 263.656 358.058 263C358.058 262.344 357.53 261.8 356.858 261.8ZM364.7 267.336C365.788 267.336 366.652 267.976 366.652 269.688L366.652 275L368.652 275L368.652 268.824C368.652 266.344 367.084 265.528 365.436 265.528C364.348 265.528 363.084 265.976 362.428 267.144L362.428 265.784L360.428 265.784L360.428 275L362.428 275L362.428 269.736C362.428 268.088 363.372 267.336 364.7 267.336ZM371.836 263.56L371.836 265.784L370.124 265.784L370.124 267.4L371.836 267.4L371.836 272.408C371.836 274.104 372.684 275.16 374.524 275.16C375.084 275.16 375.74 275.016 376.22 274.872L375.9 273.256C375.532 273.352 375.308 273.4 374.94 273.4C374.124 273.4 373.836 273.032 373.836 272.312L373.836 267.4L376.14 267.4L376.14 265.784L373.836 265.784L373.836 263.24L371.836 263.56ZM377.908 268.376C377.908 269.656 378.644 270.6 380.212 270.936L381.892 271.304C383.044 271.56 383.364 271.896 383.364 272.44C383.364 273.208 382.612 273.64 381.508 273.64C380.212 273.64 379.364 273.032 379.236 271.896L377.46 272.216C377.764 274.36 379.764 275.24 381.556 275.24C383.332 275.24 385.22 274.248 385.22 272.248C385.22 270.968 384.468 270.104 382.836 269.752L381.012 269.352C380.084 269.144 379.764 268.696 379.764 268.216C379.764 267.544 380.404 267.128 381.316 267.128C382.42 267.128 383.236 267.528 383.3 268.728L385.076 268.408C384.548 266.344 383.156 265.528 381.3 265.528C379.796 265.528 377.908 266.36 377.908 268.376Z" fill="#FF5B24"/>
<path d="M974.638 263.288C974.159 260.344 971.631 258.76 969.118 258.76C965.694 258.76 962.862 261.24 962.862 264.92C962.862 268.856 965.726 271.24 969.166 271.24C971.486 271.24 974.382 269.688 974.735 266.392L972.574 266.072C972.398 268.456 970.766 269.192 969.166 269.192C966.894 269.192 965.118 267.896 965.118 264.92C965.118 262.216 966.894 260.808 969.038 260.808C970.51 260.808 972.126 261.416 972.478 263.608L974.638 263.288ZM980.795 261.528C978.299 261.528 976.235 263.352 976.235 266.376C976.235 269.4 978.299 271.24 980.795 271.24C983.291 271.24 985.355 269.4 985.355 266.376C985.355 263.352 983.291 261.528 980.795 261.528ZM980.795 263.256C982.171 263.256 983.339 264.264 983.339 266.376C983.339 268.488 982.171 269.512 980.795 269.512C979.419 269.512 978.251 268.488 978.251 266.376C978.251 264.264 979.419 263.256 980.795 263.256ZM991.614 263.336C992.702 263.336 993.566 263.976 993.566 265.688L993.566 271L995.566 271L995.566 264.824C995.567 262.344 993.998 261.528 992.35 261.528C991.262 261.528 989.998 261.976 989.342 263.144L989.342 261.784L987.342 261.784L987.342 271L989.342 271L989.342 265.736C989.342 264.088 990.286 263.336 991.614 263.336ZM998.574 271L1000.57 271L1000.57 263.4L1002.86 263.4L1002.86 261.784L1000.57 261.784L1000.57 261.416C1000.57 260.536 1000.83 260.072 1001.68 260.072C1001.9 260.072 1002.09 260.088 1002.29 260.12L1002.43 258.424C1002.17 258.344 1001.84 258.296 1001.45 258.296C999.726 258.296 998.574 259.384 998.574 261.432L998.574 261.784L997.31 261.784L997.31 263.4L998.574 263.4L998.574 271ZM1004.28 261.784L1004.28 271L1006.28 271L1006.28 261.784L1004.28 261.784ZM1005.27 257.8C1004.6 257.8 1004.07 258.344 1004.07 259C1004.07 259.656 1004.6 260.2 1005.27 260.2C1005.94 260.2 1006.47 259.656 1006.47 259C1006.47 258.344 1005.94 257.8 1005.27 257.8ZM1013.26 263.688C1013.75 263.688 1014.11 263.752 1014.46 263.896L1014.65 261.656C1014.46 261.56 1014.19 261.528 1013.95 261.528C1013.03 261.528 1011.59 262.056 1010.84 263.992L1010.84 261.784L1008.84 261.784L1008.84 271L1010.84 271L1010.84 266.968C1010.84 264.408 1011.96 263.688 1013.26 263.688ZM1026.35 263.336C1027.48 263.336 1028.35 263.976 1028.35 265.688L1028.35 271L1030.35 271L1030.35 264.824C1030.35 262.344 1028.83 261.528 1027.15 261.528C1026.12 261.528 1024.83 261.944 1024.14 263.32C1023.64 262.008 1022.47 261.528 1021.24 261.528C1020.14 261.528 1018.81 261.96 1018.15 263.144L1018.15 261.784L1016.15 261.784L1016.15 271L1018.15 271L1018.15 265.736C1018.15 264.088 1019.1 263.336 1020.38 263.336C1021.51 263.336 1022.38 263.976 1022.38 265.688L1022.38 271L1024.38 271L1024.38 265.736C1024.38 264.088 1025.21 263.336 1026.35 263.336ZM1041.12 261.528C1038.63 261.528 1036.56 263.352 1036.56 266.376C1036.56 269.4 1038.63 271.24 1041.12 271.24C1043.62 271.24 1045.68 269.4 1045.68 266.376C1045.68 263.352 1043.62 261.528 1041.12 261.528ZM1041.12 263.256C1042.5 263.256 1043.67 264.264 1043.67 266.376C1043.67 268.488 1042.5 269.512 1041.12 269.512C1039.75 269.512 1038.58 268.488 1038.58 266.376C1038.58 264.264 1039.75 263.256 1041.12 263.256ZM1052.09 263.688C1052.58 263.688 1052.93 263.752 1053.29 263.896L1053.48 261.656C1053.29 261.56 1053.01 261.528 1052.77 261.528C1051.86 261.528 1050.42 262.056 1049.67 263.992L1049.67 261.784L1047.67 261.784L1047.67 271L1049.67 271L1049.67 266.968C1049.67 264.408 1050.79 263.688 1052.09 263.688ZM1063.64 258.6L1061.64 258.6L1061.64 263.592C1060.98 262.136 1059.99 261.528 1058.74 261.528C1056.6 261.528 1054.47 263.08 1054.47 266.296C1054.47 269.672 1056.62 271.24 1058.49 271.24C1060.17 271.24 1061.18 270.36 1061.64 269.256L1061.64 271L1063.64 271L1063.64 258.6ZM1059.08 263.256C1060.42 263.256 1061.64 264.328 1061.64 266.408C1061.64 268.552 1060.42 269.496 1059.06 269.496C1057.8 269.496 1056.49 268.504 1056.49 266.408C1056.49 264.28 1057.82 263.256 1059.08 263.256ZM1070.25 263.256C1071.55 263.256 1072.57 263.864 1072.73 265.4L1067.72 265.4C1067.99 263.976 1068.92 263.256 1070.25 263.256ZM1074.62 266.824L1074.62 266.168C1074.62 263.448 1072.83 261.528 1070.33 261.528C1067.66 261.528 1065.63 263.4 1065.63 266.36C1065.63 269.4 1067.74 271.24 1070.46 271.24C1072.15 271.24 1074.2 270.264 1074.55 268.136L1072.7 267.816C1072.49 268.872 1071.88 269.512 1070.38 269.512C1068.71 269.512 1067.8 268.44 1067.66 266.824L1074.62 266.824ZM1081.01 263.688C1081.5 263.688 1081.86 263.752 1082.21 263.896L1082.4 261.656C1082.21 261.56 1081.94 261.528 1081.7 261.528C1080.78 261.528 1079.34 262.056 1078.59 263.992L1078.59 261.784L1076.59 261.784L1076.59 271L1078.59 271L1078.59 266.968C1078.59 264.408 1079.71 263.688 1081.01 263.688ZM968.441 298.24C970.089 298.24 971.097 297.232 971.561 296.096L971.561 298L973.561 298L973.561 288.784L971.561 288.784L971.561 290.592C970.905 289.136 969.897 288.528 968.457 288.528C966.521 288.528 964.393 290.08 964.393 293.296C964.393 296.672 966.537 298.24 968.441 298.24ZM969.001 290.256C970.345 290.256 971.561 291.28 971.561 293.408C971.561 295.6 970.345 296.496 968.985 296.496C967.721 296.496 966.409 295.552 966.409 293.408C966.409 291.232 967.737 290.256 969.001 290.256ZM980.396 290.336C981.484 290.336 982.348 290.976 982.348 292.688L982.348 298L984.348 298L984.348 291.824C984.348 289.344 982.78 288.528 981.132 288.528C980.044 288.528 978.78 288.976 978.124 290.144L978.124 288.784L976.124 288.784L976.124 298L978.124 298L978.124 292.736C978.124 291.088 979.068 290.336 980.396 290.336ZM995.483 285.6L993.483 285.6L993.483 290.592C992.827 289.136 991.835 288.528 990.587 288.528C988.443 288.528 986.315 290.08 986.315 293.296C986.315 296.672 988.459 298.24 990.331 298.24C992.011 298.24 993.019 297.36 993.483 296.256L993.483 298L995.483 298L995.483 285.6ZM990.923 290.256C992.267 290.256 993.483 291.328 993.483 293.408C993.483 295.552 992.267 296.496 990.907 296.496C989.643 296.496 988.331 295.504 988.331 293.408C988.331 291.28 989.659 290.256 990.923 290.256ZM1002.17 291.376C1002.17 292.656 1002.9 293.6 1004.47 293.936L1006.15 294.304C1007.3 294.56 1007.62 294.896 1007.62 295.44C1007.62 296.208 1006.87 296.64 1005.77 296.64C1004.47 296.64 1003.62 296.032 1003.49 294.896L1001.72 295.216C1002.02 297.36 1004.02 298.24 1005.81 298.24C1007.59 298.24 1009.48 297.248 1009.48 295.248C1009.48 293.968 1008.73 293.104 1007.09 292.752L1005.27 292.352C1004.34 292.144 1004.02 291.696 1004.02 291.216C1004.02 290.544 1004.66 290.128 1005.57 290.128C1006.68 290.128 1007.49 290.528 1007.56 291.728L1009.33 291.408C1008.81 289.344 1007.41 288.528 1005.56 288.528C1004.05 288.528 1002.17 289.36 1002.17 291.376ZM1015.48 290.256C1016.78 290.256 1017.8 290.864 1017.96 292.4L1012.96 292.4C1013.23 290.976 1014.16 290.256 1015.48 290.256ZM1019.85 293.824L1019.85 293.168C1019.85 290.448 1018.06 288.528 1015.56 288.528C1012.89 288.528 1010.86 290.4 1010.86 293.36C1010.86 296.4 1012.97 298.24 1015.69 298.24C1017.39 298.24 1019.44 297.264 1019.79 295.136L1017.93 294.816C1017.72 295.872 1017.12 296.512 1015.61 296.512C1013.95 296.512 1013.04 295.44 1012.89 293.824L1019.85 293.824ZM1026.1 290.336C1027.19 290.336 1028.05 290.976 1028.05 292.688L1028.05 298L1030.05 298L1030.05 291.824C1030.05 289.344 1028.48 288.528 1026.83 288.528C1025.75 288.528 1024.48 288.976 1023.83 290.144L1023.83 288.784L1021.83 288.784L1021.83 298L1023.83 298L1023.83 292.736C1023.83 291.088 1024.77 290.336 1026.1 290.336ZM1041.19 285.6L1039.19 285.6L1039.19 290.592C1038.53 289.136 1037.54 288.528 1036.29 288.528C1034.15 288.528 1032.02 290.08 1032.02 293.296C1032.02 296.672 1034.16 298.24 1036.03 298.24C1037.71 298.24 1038.72 297.36 1039.19 296.256L1039.19 298L1041.19 298L1041.19 285.6ZM1036.63 290.256C1037.97 290.256 1039.19 291.328 1039.19 293.408C1039.19 295.552 1037.97 296.496 1036.61 296.496C1035.35 296.496 1034.03 295.504 1034.03 293.408C1034.03 291.28 1035.36 290.256 1036.63 290.256ZM1048.06 288.784L1048.06 298L1050.06 298L1050.06 288.784L1048.06 288.784ZM1049.05 284.8C1048.38 284.8 1047.85 285.344 1047.85 286C1047.85 286.656 1048.38 287.2 1049.05 287.2C1049.73 287.2 1050.25 286.656 1050.25 286C1050.25 285.344 1049.73 284.8 1049.05 284.8ZM1053.33 286.56L1053.33 288.784L1051.62 288.784L1051.62 290.4L1053.33 290.4L1053.33 295.408C1053.33 297.104 1054.18 298.16 1056.02 298.16C1056.58 298.16 1057.23 298.016 1057.71 297.872L1057.39 296.256C1057.02 296.352 1056.8 296.4 1056.43 296.4C1055.62 296.4 1055.33 296.032 1055.33 295.312L1055.33 290.4L1057.63 290.4L1057.63 288.784L1055.33 288.784L1055.33 286.24L1053.33 286.56ZM1063.64 290.256C1064.94 290.256 1065.96 290.864 1066.12 292.4L1061.11 292.4C1061.38 290.976 1062.31 290.256 1063.64 290.256ZM1068.01 293.824L1068.01 293.168C1068.01 290.448 1066.22 288.528 1063.72 288.528C1061.05 288.528 1059.02 290.4 1059.02 293.36C1059.02 296.4 1061.13 298.24 1063.85 298.24C1065.54 298.24 1067.59 297.264 1067.94 295.136L1066.09 294.816C1065.88 295.872 1065.27 296.512 1063.77 296.512C1062.1 296.512 1061.19 295.44 1061.05 293.824L1068.01 293.824ZM1080.18 290.336C1081.31 290.336 1082.18 290.976 1082.18 292.688L1082.18 298L1084.18 298L1084.18 291.824C1084.18 289.344 1082.66 288.528 1080.98 288.528C1079.95 288.528 1078.66 288.944 1077.97 290.32C1077.47 289.008 1076.3 288.528 1075.07 288.528C1073.97 288.528 1072.64 288.96 1071.98 290.144L1071.98 288.784L1069.98 288.784L1069.98 298L1071.98 298L1071.98 292.736C1071.98 291.088 1072.93 290.336 1074.21 290.336C1075.34 290.336 1076.21 290.976 1076.21 292.688L1076.21 298L1078.21 298L1078.21 292.736C1078.21 291.088 1079.04 290.336 1080.18 290.336Z" fill="#FF5B24"/>
<path d="M1134.4 275L1138.23 263L1135.92 263L1133.47 272.008L1130.98 263L1128.91 263L1126.5 272.2L1123.97 263L1121.67 263L1125.49 275L1127.6 275L1129.95 266.408L1132.45 275L1134.4 275ZM1140.05 265.784L1140.05 275L1142.05 275L1142.05 265.784L1140.05 265.784ZM1141.04 261.8C1140.37 261.8 1139.84 262.344 1139.84 263C1139.84 263.656 1140.37 264.2 1141.04 264.2C1141.71 264.2 1142.24 263.656 1142.24 263C1142.24 262.344 1141.71 261.8 1141.04 261.8ZM1145.31 263.56L1145.31 265.784L1143.6 265.784L1143.6 267.4L1145.31 267.4L1145.31 272.408C1145.31 274.104 1146.16 275.16 1148 275.16C1148.56 275.16 1149.22 275.016 1149.7 274.872L1149.38 273.256C1149.01 273.352 1148.78 273.4 1148.42 273.4C1147.6 273.4 1147.31 273.032 1147.31 272.312L1147.31 267.4L1149.62 267.4L1149.62 265.784L1147.31 265.784L1147.31 263.24L1145.31 263.56ZM1151.58 262.6L1151.58 275L1153.58 275L1153.58 269.736C1153.58 268.088 1154.52 267.336 1155.86 267.336C1156.94 267.336 1157.8 267.976 1157.8 269.688L1157.8 275L1159.8 275L1159.8 268.824C1159.8 266.344 1158.28 265.528 1156.52 265.528C1155.54 265.528 1154.23 265.96 1153.58 267.144L1153.58 262.6L1151.58 262.6ZM1170.94 262.6L1168.94 262.6L1168.94 267.592C1168.28 266.136 1167.29 265.528 1166.04 265.528C1163.9 265.528 1161.77 267.08 1161.77 270.296C1161.77 273.672 1163.91 275.24 1165.78 275.24C1167.46 275.24 1168.47 274.36 1168.94 273.256L1168.94 275L1170.94 275L1170.94 262.6ZM1166.38 267.256C1167.72 267.256 1168.94 268.328 1168.94 270.408C1168.94 272.552 1167.72 273.496 1166.36 273.496C1165.1 273.496 1163.78 272.504 1163.78 270.408C1163.78 268.28 1165.11 267.256 1166.38 267.256ZM1177.91 267.688C1178.41 267.688 1178.76 267.752 1179.11 267.896L1179.31 265.656C1179.11 265.56 1178.84 265.528 1178.6 265.528C1177.69 265.528 1176.25 266.056 1175.5 267.992L1175.5 265.784L1173.5 265.784L1173.5 275L1175.5 275L1175.5 270.968C1175.5 268.408 1176.62 267.688 1177.91 267.688ZM1184.35 275.24C1186 275.24 1187 274.232 1187.47 273.096L1187.47 275L1189.47 275L1189.47 265.784L1187.47 265.784L1187.47 267.592C1186.81 266.136 1185.8 265.528 1184.36 265.528C1182.43 265.528 1180.3 267.08 1180.3 270.296C1180.3 273.672 1182.44 275.24 1184.35 275.24ZM1184.91 267.256C1186.25 267.256 1187.47 268.28 1187.47 270.408C1187.47 272.6 1186.25 273.496 1184.89 273.496C1183.63 273.496 1182.32 272.552 1182.32 270.408C1182.32 268.232 1183.64 267.256 1184.91 267.256ZM1205.31 265.784L1203.09 265.784L1201.12 272.504L1198.89 265.784L1197.41 265.784L1195.2 272.472L1193.21 265.784L1190.99 265.784L1194.3 275L1196.03 275L1198.16 269.176L1200.27 275L1202 275L1205.31 265.784ZM1216.26 265.528C1214.69 265.528 1213.73 266.52 1213.14 267.592L1213.14 265.784L1211.14 265.784L1211.14 278.2L1213.14 278.2L1213.14 273.256C1213.91 274.568 1214.9 275.24 1216.07 275.24C1218.21 275.24 1220.31 273.608 1220.31 270.248C1220.31 267.032 1218.13 265.528 1216.26 265.528ZM1215.72 267.256C1216.98 267.256 1218.29 268.264 1218.29 270.36C1218.29 272.488 1216.98 273.496 1215.7 273.496C1214.36 273.496 1213.14 272.408 1213.14 270.36C1213.14 268.216 1214.36 267.256 1215.72 267.256ZM1225.89 275.24C1227.54 275.24 1228.55 274.232 1229.01 273.096L1229.01 275L1231.01 275L1231.01 265.784L1229.01 265.784L1229.01 267.592C1228.36 266.136 1227.35 265.528 1225.91 265.528C1223.97 265.528 1221.85 267.08 1221.85 270.296C1221.85 273.672 1223.99 275.24 1225.89 275.24ZM1226.45 267.256C1227.8 267.256 1229.01 268.28 1229.01 270.408C1229.01 272.6 1227.8 273.496 1226.44 273.496C1225.17 273.496 1223.86 272.552 1223.86 270.408C1223.86 268.232 1225.19 267.256 1226.45 267.256ZM1234.39 278.2C1236.18 278.2 1237.34 277.256 1238.06 275.384L1241.74 265.784L1239.51 265.784L1237.19 272.984L1234.76 265.784L1232.54 265.784L1235.93 274.296C1236.39 275.464 1235.96 276.536 1234.58 276.536C1233.86 276.536 1233.42 276.312 1233.13 276.136L1232.81 277.864C1233.24 278.072 1233.78 278.2 1234.39 278.2ZM1253.46 267.336C1254.59 267.336 1255.46 267.976 1255.46 269.688L1255.46 275L1257.46 275L1257.46 268.824C1257.46 266.344 1255.94 265.528 1254.26 265.528C1253.23 265.528 1251.94 265.944 1251.25 267.32C1250.75 266.008 1249.58 265.528 1248.35 265.528C1247.25 265.528 1245.92 265.96 1245.26 267.144L1245.26 265.784L1243.26 265.784L1243.26 275L1245.26 275L1245.26 269.736C1245.26 268.088 1246.21 267.336 1247.49 267.336C1248.62 267.336 1249.49 267.976 1249.49 269.688L1249.49 275L1251.49 275L1251.49 269.736C1251.49 268.088 1252.32 267.336 1253.46 267.336ZM1263.98 267.256C1265.28 267.256 1266.3 267.864 1266.46 269.4L1261.46 269.4C1261.73 267.976 1262.66 267.256 1263.98 267.256ZM1268.35 270.824L1268.35 270.168C1268.35 267.448 1266.56 265.528 1264.06 265.528C1261.39 265.528 1259.36 267.4 1259.36 270.36C1259.36 273.4 1261.47 275.24 1264.19 275.24C1265.89 275.24 1267.94 274.264 1268.29 272.136L1266.43 271.816C1266.22 272.872 1265.62 273.512 1264.11 273.512C1262.45 273.512 1261.54 272.44 1261.39 270.824L1268.35 270.824ZM1274.6 267.336C1275.69 267.336 1276.55 267.976 1276.55 269.688L1276.55 275L1278.55 275L1278.55 268.824C1278.55 266.344 1276.98 265.528 1275.33 265.528C1274.25 265.528 1272.98 265.976 1272.33 267.144L1272.33 265.784L1270.33 265.784L1270.33 275L1272.33 275L1272.33 269.736C1272.33 268.088 1273.27 267.336 1274.6 267.336ZM1281.73 263.56L1281.73 265.784L1280.02 265.784L1280.02 267.4L1281.73 267.4L1281.73 272.408C1281.73 274.104 1282.58 275.16 1284.42 275.16C1284.98 275.16 1285.64 275.016 1286.12 274.872L1285.8 273.256C1285.43 273.352 1285.21 273.4 1284.84 273.4C1284.02 273.4 1283.73 273.032 1283.73 272.312L1283.73 267.4L1286.04 267.4L1286.04 265.784L1283.73 265.784L1283.73 263.24L1281.73 263.56Z" fill="#FF5B24"/>
<path d="M627.935 367.288C627.455 364.344 624.927 362.76 622.415 362.76C618.991 362.76 616.159 365.24 616.159 368.92C616.159 372.856 619.023 375.24 622.463 375.24C624.783 375.24 627.679 373.688 628.031 370.392L625.871 370.072C625.695 372.456 624.063 373.192 622.463 373.192C620.191 373.192 618.415 371.896 618.415 368.92C618.415 366.216 620.191 364.808 622.335 364.808C623.807 364.808 625.423 365.416 625.775 367.608L627.935 367.288ZM633.644 375.24C635.292 375.24 636.3 374.232 636.764 373.096L636.764 375L638.764 375L638.764 365.784L636.764 365.784L636.764 367.592C636.108 366.136 635.1 365.528 633.66 365.528C631.724 365.528 629.596 367.08 629.596 370.296C629.596 373.672 631.74 375.24 633.644 375.24ZM634.204 367.256C635.548 367.256 636.764 368.28 636.764 370.408C636.764 372.6 635.548 373.496 634.188 373.496C632.924 373.496 631.612 372.552 631.612 370.408C631.612 368.232 632.94 367.256 634.204 367.256ZM645.599 367.336C646.687 367.336 647.551 367.976 647.551 369.688L647.551 375L649.551 375L649.551 368.824C649.551 366.344 647.983 365.528 646.335 365.528C645.247 365.528 643.983 365.976 643.327 367.144L643.327 365.784L641.327 365.784L641.327 375L643.327 375L643.327 369.736C643.327 368.088 644.271 367.336 645.599 367.336ZM660.542 369.368C660.206 366.888 658.238 365.528 656.094 365.528C653.454 365.528 651.454 367.4 651.454 370.376C651.454 373.224 653.422 375.24 656.238 375.24C658.014 375.24 660.094 374.264 660.526 371.448L658.702 371.128C658.494 372.696 657.63 373.496 656.222 373.496C654.35 373.496 653.47 372.072 653.47 370.376C653.47 368.328 654.59 367.256 655.998 367.256C657.278 367.256 658.35 367.944 658.574 369.688L660.542 369.368ZM666.469 367.256C667.765 367.256 668.789 367.864 668.949 369.4L663.941 369.4C664.213 367.976 665.141 367.256 666.469 367.256ZM670.837 370.824L670.837 370.168C670.837 367.448 669.045 365.528 666.549 365.528C663.877 365.528 661.845 367.4 661.845 370.36C661.845 373.4 663.957 375.24 666.677 375.24C668.373 375.24 670.421 374.264 670.773 372.136L668.917 371.816C668.709 372.872 668.101 373.512 666.597 373.512C664.933 373.512 664.021 372.44 663.877 370.824L670.837 370.824ZM672.811 362.6L672.811 375L674.811 375L674.811 362.6L672.811 362.6ZM677.374 362.6L677.374 375L679.374 375L679.374 362.6L677.374 362.6ZM685.472 375.24C687.12 375.24 688.128 374.232 688.592 373.096L688.592 375L690.592 375L690.592 365.784L688.592 365.784L688.592 367.592C687.936 366.136 686.928 365.528 685.488 365.528C683.552 365.528 681.424 367.08 681.424 370.296C681.424 373.672 683.568 375.24 685.472 375.24ZM686.032 367.256C687.376 367.256 688.592 368.28 688.592 370.408C688.592 372.6 687.376 373.496 686.016 373.496C684.752 373.496 683.44 372.552 683.44 370.408C683.44 368.232 684.768 367.256 686.032 367.256ZM693.859 363.56L693.859 365.784L692.147 365.784L692.147 367.4L693.859 367.4L693.859 372.408C693.859 374.104 694.707 375.16 696.547 375.16C697.107 375.16 697.763 375.016 698.243 374.872L697.923 373.256C697.555 373.352 697.331 373.4 696.963 373.4C696.147 373.4 695.859 373.032 695.859 372.312L695.859 367.4L698.163 367.4L698.163 365.784L695.859 365.784L695.859 363.24L693.859 363.56ZM700.124 365.784L700.124 375L702.124 375L702.124 365.784L700.124 365.784ZM701.116 361.8C700.444 361.8 699.916 362.344 699.916 363C699.916 363.656 700.444 364.2 701.116 364.2C701.788 364.2 702.316 363.656 702.316 363C702.316 362.344 701.788 361.8 701.116 361.8ZM708.67 365.528C706.174 365.528 704.11 367.352 704.11 370.376C704.11 373.4 706.174 375.24 708.67 375.24C711.166 375.24 713.23 373.4 713.23 370.376C713.23 367.352 711.166 365.528 708.67 365.528ZM708.67 367.256C710.046 367.256 711.214 368.264 711.214 370.376C711.214 372.488 710.046 373.512 708.67 373.512C707.294 373.512 706.126 372.488 706.126 370.376C706.126 368.264 707.294 367.256 708.67 367.256ZM719.489 367.336C720.577 367.336 721.441 367.976 721.441 369.688L721.441 375L723.441 375L723.441 368.824C723.442 366.344 721.873 365.528 720.225 365.528C719.137 365.528 717.873 365.976 717.217 367.144L717.217 365.784L715.217 365.784L715.217 375L717.217 375L717.217 369.736C717.217 368.088 718.161 367.336 719.489 367.336ZM626.295 392.528C623.799 392.528 621.735 394.352 621.735 397.376C621.735 400.4 623.799 402.24 626.295 402.24C628.791 402.24 630.855 400.4 630.855 397.376C630.855 394.352 628.791 392.528 626.295 392.528ZM626.295 394.256C627.671 394.256 628.839 395.264 628.839 397.376C628.839 399.488 627.671 400.512 626.295 400.512C624.919 400.512 623.751 399.488 623.751 397.376C623.751 395.264 624.919 394.256 626.295 394.256ZM633.37 402L635.37 402L635.37 394.4L637.658 394.4L637.658 392.784L635.37 392.784L635.37 392.416C635.37 391.472 635.818 390.976 636.634 390.976C637.066 390.976 637.434 391.04 637.818 391.152L638.09 389.6C637.642 389.44 637.098 389.296 636.426 389.296C634.586 389.296 633.37 390.48 633.37 392.432L633.37 392.784L632.106 392.784L632.106 394.4L633.37 394.4L633.37 402ZM648.509 392.528C646.941 392.528 645.981 393.52 645.389 394.592L645.389 392.784L643.389 392.784L643.389 405.2L645.389 405.2L645.389 400.256C646.157 401.568 647.149 402.24 648.317 402.24C650.461 402.24 652.557 400.608 652.557 397.248C652.557 394.032 650.381 392.528 648.509 392.528ZM647.965 394.256C649.229 394.256 650.541 395.264 650.541 397.36C650.541 399.488 649.229 400.496 647.949 400.496C646.605 400.496 645.389 399.408 645.389 397.36C645.389 395.216 646.605 394.256 647.965 394.256ZM658.144 402.24C659.792 402.24 660.8 401.232 661.264 400.096L661.264 402L663.264 402L663.264 392.784L661.264 392.784L661.264 394.592C660.608 393.136 659.6 392.528 658.16 392.528C656.224 392.528 654.096 394.08 654.096 397.296C654.096 400.672 656.24 402.24 658.144 402.24ZM658.704 394.256C660.048 394.256 661.264 395.28 661.264 397.408C661.264 399.6 660.048 400.496 658.688 400.496C657.424 400.496 656.112 399.552 656.112 397.408C656.112 395.232 657.44 394.256 658.704 394.256ZM666.643 405.2C668.435 405.2 669.587 404.256 670.307 402.384L673.987 392.784L671.763 392.784L669.443 399.984L667.011 392.784L664.787 392.784L668.179 401.296C668.643 402.464 668.211 403.536 666.835 403.536C666.115 403.536 665.667 403.312 665.379 403.136L665.059 404.864C665.491 405.072 666.035 405.2 666.643 405.2ZM685.706 394.336C686.842 394.336 687.706 394.976 687.706 396.688L687.706 402L689.706 402L689.706 395.824C689.706 393.344 688.186 392.528 686.506 392.528C685.482 392.528 684.186 392.944 683.498 394.32C683.002 393.008 681.834 392.528 680.602 392.528C679.498 392.528 678.17 392.96 677.514 394.144L677.514 392.784L675.514 392.784L675.514 402L677.514 402L677.514 396.736C677.514 395.088 678.458 394.336 679.738 394.336C680.874 394.336 681.738 394.976 681.738 396.688L681.738 402L683.738 402L683.738 396.736C683.738 395.088 684.57 394.336 685.706 394.336ZM696.234 394.256C697.53 394.256 698.554 394.864 698.714 396.4L693.706 396.4C693.978 394.976 694.906 394.256 696.234 394.256ZM700.602 397.824L700.602 397.168C700.602 394.448 698.81 392.528 696.314 392.528C693.642 392.528 691.61 394.4 691.61 397.36C691.61 400.4 693.722 402.24 696.442 402.24C698.138 402.24 700.186 401.264 700.538 399.136L698.682 398.816C698.474 399.872 697.866 400.512 696.362 400.512C694.698 400.512 693.786 399.44 693.642 397.824L700.602 397.824ZM706.849 394.336C707.937 394.336 708.801 394.976 708.801 396.688L708.801 402L710.801 402L710.801 395.824C710.801 393.344 709.233 392.528 707.585 392.528C706.497 392.528 705.233 392.976 704.577 394.144L704.577 392.784L702.577 392.784L702.577 402L704.577 402L704.577 396.736C704.577 395.088 705.521 394.336 706.849 394.336ZM713.984 390.56L713.984 392.784L712.272 392.784L712.272 394.4L713.984 394.4L713.984 399.408C713.984 401.104 714.832 402.16 716.672 402.16C717.232 402.16 717.888 402.016 718.368 401.872L718.048 400.256C717.68 400.352 717.456 400.4 717.088 400.4C716.272 400.4 715.984 400.032 715.984 399.312L715.984 394.4L718.288 394.4L718.288 392.784L715.984 392.784L715.984 390.24L713.984 390.56Z" fill="#4D3280"/>
<path d="M1352.53 387L1352.53 399L1354.62 399L1354.62 394.424L1356.14 394.424C1357.44 394.424 1358.19 394.936 1358.38 396.04L1358.7 397.896C1358.8 398.488 1359.07 398.808 1359.39 399L1361.92 399C1361.47 398.728 1361.12 398.248 1360.97 397.688L1360.48 395.752C1360.19 394.616 1359.65 394.088 1358.86 393.768C1359.97 393.128 1360.81 392.024 1360.81 390.632C1360.81 388.392 1359.31 387 1356.69 387L1352.53 387ZM1356.64 388.872C1357.76 388.872 1358.57 389.528 1358.57 390.728C1358.57 391.784 1357.84 392.552 1356.65 392.552L1354.62 392.552L1354.62 388.872L1356.64 388.872ZM1366.96 391.256C1368.26 391.256 1369.28 391.864 1369.44 393.4L1364.43 393.4C1364.7 391.976 1365.63 391.256 1366.96 391.256ZM1371.33 394.824L1371.33 394.168C1371.33 391.448 1369.54 389.528 1367.04 389.528C1364.37 389.528 1362.34 391.4 1362.34 394.36C1362.34 397.4 1364.45 399.24 1367.17 399.24C1368.86 399.24 1370.91 398.264 1371.26 396.136L1369.41 395.816C1369.2 396.872 1368.59 397.512 1367.09 397.512C1365.42 397.512 1364.51 396.44 1364.37 394.824L1371.33 394.824ZM1373.83 399L1375.83 399L1375.83 391.4L1378.12 391.4L1378.12 389.784L1375.83 389.784L1375.83 389.416C1375.83 388.472 1376.28 387.976 1377.1 387.976C1377.53 387.976 1377.9 388.04 1378.28 388.152L1378.55 386.6C1378.1 386.44 1377.56 386.296 1376.89 386.296C1375.05 386.296 1373.83 387.48 1373.83 389.432L1373.83 389.784L1372.57 389.784L1372.57 391.4L1373.83 391.4L1373.83 399ZM1387.71 399L1387.71 389.784L1385.71 389.784L1385.71 395.144C1385.71 396.712 1384.67 397.432 1383.33 397.432C1382.1 397.432 1381.49 396.888 1381.49 395.464L1381.49 389.784L1379.49 389.784L1379.49 396.216C1379.49 398.344 1381.03 399.24 1382.56 399.24C1383.71 399.24 1384.99 398.712 1385.71 397.448L1385.71 399L1387.71 399ZM1394.51 391.336C1395.6 391.336 1396.46 391.976 1396.46 393.688L1396.46 399L1398.46 399L1398.46 392.824C1398.46 390.344 1396.9 389.528 1395.25 389.528C1394.16 389.528 1392.9 389.976 1392.24 391.144L1392.24 389.784L1390.24 389.784L1390.24 399L1392.24 399L1392.24 393.736C1392.24 392.088 1393.18 391.336 1394.51 391.336ZM1409.6 386.6L1407.6 386.6L1407.6 391.592C1406.94 390.136 1405.95 389.528 1404.7 389.528C1402.56 389.528 1400.43 391.08 1400.43 394.296C1400.43 397.672 1402.58 399.24 1404.45 399.24C1406.13 399.24 1407.14 398.36 1407.6 397.256L1407.6 399L1409.6 399L1409.6 386.6ZM1405.04 391.256C1406.38 391.256 1407.6 392.328 1407.6 394.408C1407.6 396.552 1406.38 397.496 1405.02 397.496C1403.76 397.496 1402.45 396.504 1402.45 394.408C1402.45 392.28 1403.78 391.256 1405.04 391.256Z" fill="#4D3280"/>
<circle cx="314" cy="172" r="10" transform="rotate(-90 314 172)" fill="white" stroke="#FF5B24" stroke-width="4"/>
<circle cx="670" cy="297" r="10" transform="rotate(-90 670 297)" fill="white" stroke="#49367E" stroke-width="4"/>
<circle cx="136" cy="173" r="10" transform="rotate(-90 136 173)" fill="white" stroke="#FF5B24" stroke-width="4"/>
<path d="M546.833 173.057C546.833 203.884 521.844 228.873 491.016 228.873C460.189 228.873 435.199 203.884 435.199 173.057C435.199 142.23 460.189 117.24 491.016 117.24C521.844 117.24 546.833 142.23 546.833 173.057Z" fill="#EEEDF3"/>
<path d="M495.604 187.161H426.431C424.431 187.161 422.81 185.54 422.81 183.54V129.256C422.81 127.256 424.431 125.635 426.431 125.635H495.604C497.604 125.635 499.225 127.256 499.225 129.256V183.54C499.225 185.54 497.604 187.161 495.604 187.161Z" fill="#C8C5D6"/>
<path d="M495.474 125.635H426.561C424.489 125.635 422.81 127.314 422.81 129.386V134.666H499.225V129.386C499.225 127.314 497.546 125.635 495.474 125.635Z" fill="#48367D"/>
<path d="M432.193 130.186C432.193 131.222 431.355 132.061 430.319 132.061C429.283 132.061 428.443 131.222 428.443 130.186C428.443 129.151 429.283 128.311 430.319 128.311C431.355 128.311 432.193 129.151 432.193 130.186Z" fill="white"/>
<path d="M438.347 130.151C438.347 131.186 437.507 132.026 436.472 132.026C435.436 132.026 434.597 131.186 434.597 130.151C434.597 129.115 435.436 128.276 436.472 128.276C437.507 128.276 438.347 129.115 438.347 130.151Z" fill="white"/>
<path d="M444.599 130.151C444.599 131.186 443.76 132.026 442.725 132.026C441.689 132.026 440.849 131.186 440.849 130.151C440.849 129.115 441.689 128.276 442.725 128.276C443.76 128.276 444.599 129.115 444.599 130.151Z" fill="white"/>
<g filter="url(#filter0_d)">
<rect x="436.106" y="153.336" width="49.98" height="16.15" rx="1.19" fill="#FF5B24"/>
</g>
<path d="M451.699 159.316V164.416H453.501C454.576 164.416 455.249 163.757 455.249 162.92C455.249 162.451 455.004 161.955 454.365 161.73C454.814 161.485 455.031 161.043 455.031 160.69C455.031 159.853 454.453 159.316 453.406 159.316H451.699ZM452.685 162.22H453.467C453.964 162.22 454.29 162.505 454.29 162.879C454.29 163.335 453.943 163.519 453.474 163.519H452.685V162.22ZM452.685 160.214H453.392C453.848 160.214 454.1 160.445 454.1 160.839C454.1 161.22 453.807 161.458 453.392 161.458H452.685V160.214ZM457.635 161.193C458.091 161.193 458.465 161.411 458.546 161.975H456.717C456.833 161.431 457.166 161.193 457.635 161.193ZM459.464 162.662V162.363C459.464 161.207 458.716 160.391 457.669 160.391C456.554 160.391 455.711 161.186 455.711 162.444C455.711 163.736 456.608 164.518 457.764 164.518C458.485 164.518 459.355 164.103 459.505 163.199L458.635 163.063C458.56 163.437 458.322 163.675 457.73 163.675C457.105 163.675 456.751 163.274 456.69 162.662H459.464ZM460.505 159.554V160.499H459.831V161.295H460.505V163.437C460.505 164.022 460.756 164.484 461.565 164.484C461.905 164.484 462.273 164.389 462.504 164.287L462.368 163.546C462.184 163.587 462.021 163.614 461.844 163.614C461.552 163.614 461.463 163.471 461.463 163.192V161.295H462.429V160.499H461.463V159.418L460.505 159.554ZM464.522 164.518C465.134 164.518 465.549 164.233 465.821 163.865V164.416H466.78V160.499H465.821V161.003C465.501 160.567 465.1 160.391 464.631 160.391C463.754 160.391 462.883 161.05 462.883 162.417C462.883 163.852 463.76 164.518 464.522 164.518ZM464.842 161.234C465.358 161.234 465.821 161.635 465.821 162.465C465.821 163.321 465.358 163.668 464.835 163.668C464.352 163.668 463.849 163.301 463.849 162.465C463.849 161.615 464.359 161.234 464.842 161.234ZM467.703 159.146V164.416H468.655V159.146H467.703Z" fill="white"/>
<path d="M528.646 213.018L528.893 211.565L531.76 189.055L518.189 178.902L499.083 184.33L500.857 213.798C509.845 215.956 518.755 215.638 528.646 213.018Z" fill="#FFD3BA"/>
<path d="M503.79 195.988C502.244 194.718 501.566 192.577 502.25 190.572C504.449 184.133 504.744 180.446 504.858 177.221C504.956 174.493 507.245 172.36 509.973 172.457C512.7 172.554 514.834 174.843 514.737 177.571C514.571 182.273 513.974 186.827 511.605 193.765C510.723 196.348 507.914 197.728 505.331 196.846C504.754 196.648 504.236 196.354 503.79 195.988Z" fill="#FFD3BA"/>
<path d="M513.377 194.614C511.786 193.306 511.125 191.085 511.891 189.051C513.212 185.546 513.798 182.311 513.631 179.433C513.474 176.707 515.556 174.371 518.281 174.214C521.006 174.056 523.343 176.137 523.5 178.862C523.746 183.129 522.953 187.731 521.14 192.538C520.178 195.092 517.327 196.382 514.773 195.42C514.253 195.224 513.784 194.948 513.377 194.614Z" fill="#FFD3BA"/>
<path d="M523.68 196.915C521.91 195.862 520.921 193.766 521.372 191.64C522.151 187.976 522.243 184.689 521.646 181.868C521.08 179.198 522.786 176.574 525.456 176.008C528.126 175.442 530.75 177.148 531.315 179.819C532.202 184 532.11 188.668 531.042 193.693C530.475 196.363 527.851 198.068 525.181 197.501C524.637 197.385 524.133 197.184 523.68 196.915Z" fill="#FFD3BA"/>
<path d="M499.957 227.259C498.624 217.368 495.303 214.119 494.816 213.466C494.354 212.847 490.025 207.971 488.429 205.069C486.451 201.473 484.12 196.343 486.14 192.15C488.12 188.043 493.067 188.866 496.909 185.798L505.141 182.791C508.412 182.23 511.517 184.427 512.079 187.697C512.639 190.968 510.442 194.074 507.172 194.635L505.549 196.379C504.955 196.621 505.461 198.297 505.615 198.998C506.555 200.676 503.244 203.799 504.779 205.856C506.763 208.515 506.216 212.28 503.556 214.265C501.55 215.762 500.272 229.595 499.957 227.259Z" fill="#FFD3BA"/>
<path fill-rule="evenodd" clip-rule="evenodd" d="M529.205 213.766C521.026 221.441 510.534 226.68 498.886 228.323C498.601 216.253 497.983 205.644 496.734 202.897C493.459 195.699 524.574 205.423 524.574 205.423C524.574 205.423 529.46 193.613 529.205 213.766Z" fill="#FFD3BA"/>
<path d="M487.145 163.861C487.145 163.861 495.376 166.403 498.395 170.537C502.861 176.653 501.486 186.027 497.507 193.019" stroke="#FFD2BA" stroke-width="13.09" stroke-linecap="round" stroke-linejoin="round"/>
<path d="M903.704 172.887C903.704 203.714 878.714 228.704 847.887 228.704C817.06 228.704 792.07 203.714 792.07 172.887C792.07 142.06 817.06 117.07 847.887 117.07C878.714 117.07 903.704 142.06 903.704 172.887Z" fill="#EEEDF3"/>
<path fill-rule="evenodd" clip-rule="evenodd" d="M854.299 228.34C854.289 208.015 854.298 185.601 854.386 180.506C854.734 160.135 874.82 164.475 874.82 164.475L899.183 180.506L899.175 194.948C891.429 212.931 874.503 226.029 854.299 228.34Z" fill="#FFD3BB"/>
<path d="M891.935 186.379L856.598 193.301C853.196 193.967 849.898 191.749 849.232 188.348L835.278 117.11C834.612 113.708 836.83 110.411 840.232 109.744L875.569 102.823C878.971 102.156 882.269 104.374 882.935 107.776L896.888 179.013C897.555 182.415 895.337 185.713 891.935 186.379Z" fill="#FF5A23"/>
<path d="M896.058 174.327L848.401 183.661L836.354 122.156L884.011 112.822L896.058 174.327Z" fill="#FF985F"/>
<path d="M848.458 162.726L835.816 163.709C832.42 163.973 829.454 161.435 829.189 158.039C828.925 154.644 831.464 151.677 834.859 151.414L847.502 150.43C850.897 150.165 853.863 152.704 854.127 156.099C854.392 159.495 851.854 162.461 848.458 162.726Z" fill="#FFD3BB"/>
<path d="M849.511 174.279L836.869 175.262C833.473 175.527 830.507 172.988 830.242 169.593C829.978 166.197 832.516 163.231 835.912 162.966L848.554 161.983C851.95 161.718 854.916 164.257 855.181 167.652C855.445 171.048 852.907 174.015 849.511 174.279Z" fill="#FFD3BB"/>
<path d="M851.635 185.601L838.993 186.585C835.598 186.849 832.63 184.311 832.366 180.916C832.102 177.52 834.641 174.553 838.036 174.289L850.679 173.306C854.074 173.041 857.041 175.58 857.305 178.975C857.569 182.371 855.031 185.338 851.635 185.601Z" fill="#FFD3BB"/>
<path d="M874.74 155.231L861.607 157.803C858.276 158.455 855.017 156.263 854.365 152.933L851.793 139.8C851.141 136.469 853.332 133.21 856.663 132.558L869.796 129.986C873.127 129.334 876.386 131.525 877.038 134.856L879.61 147.989C880.262 151.32 878.071 154.579 874.74 155.231Z" fill="white"/>
<path d="M860.232 146.255L865.855 148.887L872.065 135.444" stroke="#48367D" stroke-width="0.51" stroke-linecap="round" stroke-linejoin="round"/>
<path fill-rule="evenodd" clip-rule="evenodd" d="M896.328 200.638C895.523 200.952 894.651 201.255 893.71 201.533C886.978 203.524 876.928 194.801 876.928 194.801C876.928 194.801 877.212 191.198 877.686 187.311C878.16 183.424 880.625 179.916 881.858 178.778C876.928 177.735 873.42 176.028 870.86 172.615C868.204 169.074 866.309 165.978 865.835 160.479C865.36 154.98 867.352 152.989 869.722 151.851C872.092 150.713 874.178 151.282 876.454 152.42C878.224 153.305 879.271 156.694 879.488 159.152C879.772 162.375 880.499 163.163 881.953 164.556C883.072 165.628 885.461 165.599 887.073 165.409C888.685 165.22 890.147 165.305 892.951 165.978C895.321 166.547 897.692 168.159 899.683 170.814C901.851 173.704 902.574 177.211 903.049 181.469C901.986 188.355 899.665 194.825 896.328 200.638Z" fill="#FFD3BB"/>
<path d="M1081.87 172.887C1081.87 203.714 1056.88 228.704 1026.06 228.704C995.23 228.704 970.24 203.714 970.24 172.887C970.24 142.06 995.23 117.07 1026.06 117.07C1056.88 117.07 1081.87 142.06 1081.87 172.887Z" fill="#EEEDF3"/>
<path d="M1052.05 198.557H989.549C987.742 198.557 986.277 197.093 986.277 195.286V146.239C986.277 144.432 987.742 142.967 989.549 142.967H1052.05C1053.86 142.967 1055.32 144.432 1055.32 146.239V195.286C1055.32 197.093 1053.86 198.557 1052.05 198.557Z" fill="#C8C5D6"/>
<path d="M1051.93 142.967H989.666C987.794 142.967 986.277 144.484 986.277 146.356V151.127H1055.32V146.356C1055.32 144.484 1053.8 142.967 1051.93 142.967Z" fill="#48367D"/>
<path d="M994.755 147.079C994.755 148.015 993.997 148.773 993.061 148.773C992.126 148.773 991.367 148.015 991.367 147.079C991.367 146.143 992.126 145.385 993.061 145.385C993.997 145.385 994.755 146.143 994.755 147.079Z" fill="white"/>
<path d="M1000.32 147.047C1000.32 147.982 999.557 148.741 998.622 148.741C997.685 148.741 996.927 147.982 996.927 147.047C996.927 146.111 997.685 145.353 998.622 145.353C999.557 145.353 1000.32 146.111 1000.32 147.047Z" fill="white"/>
<path d="M1005.96 147.047C1005.96 147.982 1005.21 148.741 1004.27 148.741C1003.34 148.741 1002.58 147.982 1002.58 147.047C1002.58 146.111 1003.34 145.353 1004.27 145.353C1005.21 145.353 1005.96 146.111 1005.96 147.047Z" fill="white"/>
<path d="M1027.61 182.135H1015.51C1012.45 182.135 1009.94 179.626 1009.94 176.559V164.468C1009.94 161.402 1012.45 158.892 1015.51 158.892H1027.61C1030.67 158.892 1033.18 161.402 1033.18 164.468V176.559C1033.18 179.626 1030.67 182.135 1027.61 182.135Z" fill="white"/>
<path d="M1016.3 171.658L1020.83 174.968L1028.67 164.126" stroke="#48367D" stroke-width="0.460798" stroke-linecap="round" stroke-linejoin="round"/>
<path fill-rule="evenodd" clip-rule="evenodd" d="M1039.59 177.137C1038.5 177.137 1037.62 178.019 1037.62 179.107V211.658C1037.62 212.746 1038.5 213.628 1039.59 213.628H1074.34C1074.38 213.628 1074.41 213.627 1074.44 213.626C1074.49 213.627 1074.53 213.628 1074.57 213.628H1091.85C1094.19 213.628 1096.1 211.725 1096.1 209.378V204.61C1096.1 203.902 1095.92 203.204 1095.58 202.581L1089.69 191.731C1088.94 190.363 1087.51 189.51 1085.95 189.51H1076.31V179.107C1076.31 178.019 1075.43 177.137 1074.34 177.137H1039.59Z" fill="#FF985F"/>
<path d="M1084.79 193.517L1089.99 200.946C1090.9 202.252 1089.97 204.046 1088.37 204.046H1083.17C1082.08 204.046 1081.2 203.164 1081.2 202.076V194.646C1081.2 192.72 1083.68 191.938 1084.79 193.517Z" fill="#FFF4EC"/>
<circle cx="1050.61" cy="213.613" r="6.36877" fill="#FF985F"/>
<circle cx="1083.24" cy="213.613" r="6.36877" fill="#FF985F"/>
<path d="M1259.82 173.057C1259.82 203.884 1234.83 228.874 1204 228.874C1173.17 228.874 1148.18 203.884 1148.18 173.057C1148.18 142.23 1173.17 117.24 1204 117.24C1234.83 117.24 1259.82 142.23 1259.82 173.057Z" fill="#EEEDF3"/>
<path d="M1179.42 153.125C1180.59 154.142 1181.76 155.16 1182.93 156.177C1185.99 158.825 1189.14 161.363 1192.1 164.115C1196.82 168.505 1199.77 173.92 1200.93 180.269C1202.11 186.701 1201.28 192.886 1198.39 198.753C1195.62 204.376 1191.39 208.6 1185.84 211.5C1181.89 213.565 1177.68 214.676 1173.22 214.85C1164.86 215.174 1157.51 212.648 1151.32 206.988C1146.92 202.964 1144.16 197.963 1142.85 192.157C1142.14 189.042 1141.94 185.89 1142.28 182.717C1142.96 176.267 1145.45 170.616 1149.79 165.788C1151.34 164.075 1153.13 162.639 1154.86 161.139C1157.89 158.53 1160.92 155.931 1163.94 153.329C1164.02 153.265 1164.08 153.192 1164.14 153.122C1164.56 153.119 1164.97 153.128 1165.38 153.107C1165.64 153.095 1165.69 153.204 1165.68 153.429C1165.67 153.854 1165.68 154.279 1165.68 154.704C1165.68 158.931 1165.68 163.158 1165.68 167.385C1165.68 168.153 1165.96 168.764 1166.65 169.134C1167.9 169.811 1169.34 168.909 1169.34 167.446C1169.35 164.118 1169.35 160.789 1169.35 157.461C1169.35 156.125 1169.35 154.789 1169.34 153.453C1169.34 153.18 1169.41 153.095 1169.69 153.104C1170.28 153.125 1170.88 153.11 1171.47 153.11C1174.12 153.119 1176.77 153.122 1179.42 153.125ZM1172.39 197.207C1172.94 197.207 1173.49 197.195 1174.03 197.213C1174.28 197.222 1174.34 197.137 1174.33 196.906C1174.32 196.117 1174.35 195.327 1174.32 194.538C1174.3 194.167 1174.41 194.022 1174.77 193.928C1176.07 193.6 1177.24 192.998 1178.22 192.063C1179.74 190.599 1180.3 188.787 1180.17 186.716C1180.03 184.45 1179.01 182.756 1177.01 181.66C1175.63 180.907 1174.13 180.53 1172.65 180.081C1171.78 179.817 1170.9 179.562 1170.13 179.051C1169.38 178.553 1169 177.861 1169.09 176.953C1169.17 176.051 1169.66 175.426 1170.48 175.058C1171.14 174.767 1171.84 174.694 1172.54 174.743C1174.15 174.852 1175.02 175.538 1175.52 177.065C1175.62 177.351 1175.68 177.649 1175.74 177.946C1175.77 178.156 1175.82 178.244 1176.08 178.204C1177.25 178.022 1178.43 177.873 1179.61 177.703C1180.44 177.582 1180.44 177.573 1180.25 176.735C1179.52 173.598 1177.82 171.378 1174.53 170.667C1174.33 170.625 1174.32 170.513 1174.33 170.355C1174.33 169.553 1174.31 168.751 1174.34 167.95C1174.34 167.634 1174.24 167.57 1173.95 167.576C1172.9 167.594 1171.86 167.591 1170.81 167.576C1170.54 167.573 1170.43 167.631 1170.44 167.931C1170.46 168.733 1170.44 169.535 1170.45 170.336C1170.46 170.549 1170.39 170.637 1170.18 170.68C1169.89 170.74 1169.59 170.813 1169.31 170.907C1167.45 171.518 1165.96 172.565 1165.2 174.436C1164.57 175.972 1164.55 177.557 1164.98 179.149C1165.5 181.107 1166.88 182.304 1168.64 183.148C1169.97 183.791 1171.41 184.174 1172.8 184.669C1173.56 184.942 1174.33 185.228 1174.96 185.756C1175.36 186.084 1175.64 186.482 1175.72 187.001C1175.89 188.079 1175.4 189.033 1174.39 189.552C1173.15 190.183 1171.86 190.141 1170.55 189.849C1169.18 189.543 1168.33 188.683 1167.98 187.323C1167.86 186.874 1167.81 186.415 1167.79 185.957C1167.79 185.692 1167.68 185.665 1167.46 185.698C1166.18 185.893 1164.9 186.087 1163.61 186.263C1163.4 186.294 1163.36 186.376 1163.38 186.567C1163.45 187.308 1163.61 188.031 1163.89 188.717C1165.04 191.559 1167.19 193.256 1170.1 194.061C1170.36 194.137 1170.47 194.222 1170.46 194.511C1170.44 195.3 1170.47 196.09 1170.45 196.879C1170.44 197.162 1170.53 197.222 1170.79 197.213C1171.33 197.192 1171.86 197.207 1172.39 197.207Z" fill="#FF985F"/>
<path d="M1164.69 149.459C1163.01 146.55 1161.33 143.644 1159.66 140.729C1157.49 136.936 1159.63 132.318 1163.92 131.504C1164.29 131.434 1164.66 131.407 1165.04 131.407C1169.53 131.41 1174.03 131.407 1178.52 131.407C1183.31 131.407 1186.3 136.484 1183.94 140.659C1182.32 143.52 1180.66 146.353 1179.01 149.198C1178.97 149.28 1178.93 149.371 1178.88 149.456C1175.02 149.459 1171.17 149.462 1167.31 149.465C1166.43 149.468 1165.56 149.462 1164.69 149.459Z" fill="#FF985F"/>
<path d="M1164.69 149.459C1165.56 149.462 1166.43 149.471 1167.31 149.471C1171.17 149.468 1175.03 149.465 1178.88 149.462C1179.11 149.465 1179.35 149.471 1179.58 149.471C1180.64 149.477 1181.45 150.252 1181.46 151.281C1181.47 152.283 1180.67 153.085 1179.63 153.115C1179.56 153.118 1179.49 153.121 1179.41 153.127C1176.76 153.124 1174.12 153.118 1171.47 153.115C1170.87 153.115 1170.28 153.13 1169.68 153.109C1169.41 153.1 1169.33 153.185 1169.34 153.458C1169.35 154.794 1169.34 156.131 1169.34 157.467C1169.34 160.795 1169.35 164.123 1169.34 167.451C1169.34 168.915 1167.9 169.816 1166.65 169.139C1165.96 168.769 1165.68 168.155 1165.68 167.39C1165.68 163.163 1165.68 158.936 1165.68 154.709C1165.68 154.284 1165.67 153.859 1165.68 153.434C1165.69 153.209 1165.63 153.1 1165.38 153.112C1164.97 153.133 1164.55 153.124 1164.14 153.127C1162.98 153.082 1162.26 152.505 1162.13 151.53C1161.98 150.455 1162.8 149.499 1163.88 149.474C1164.15 149.465 1164.42 149.462 1164.69 149.459Z" fill="#FD5B24"/>
<path d="M1172.39 197.207C1171.86 197.207 1171.33 197.192 1170.79 197.213C1170.53 197.222 1170.44 197.161 1170.44 196.879C1170.46 196.09 1170.44 195.3 1170.46 194.511C1170.47 194.222 1170.36 194.134 1170.09 194.061C1167.19 193.256 1165.04 191.559 1163.88 188.717C1163.6 188.027 1163.45 187.308 1163.38 186.567C1163.36 186.376 1163.39 186.294 1163.61 186.263C1164.89 186.084 1166.18 185.893 1167.46 185.698C1167.68 185.665 1167.78 185.692 1167.79 185.957C1167.81 186.415 1167.85 186.874 1167.97 187.323C1168.33 188.683 1169.18 189.543 1170.55 189.849C1171.85 190.141 1173.15 190.183 1174.38 189.552C1175.39 189.033 1175.88 188.076 1175.72 187.001C1175.63 186.482 1175.36 186.084 1174.96 185.756C1174.32 185.228 1173.56 184.942 1172.8 184.669C1171.4 184.174 1169.97 183.791 1168.63 183.148C1166.88 182.304 1165.5 181.107 1164.98 179.149C1164.55 177.56 1164.57 175.972 1165.19 174.436C1165.96 172.565 1167.45 171.518 1169.3 170.907C1169.59 170.813 1169.89 170.737 1170.18 170.68C1170.38 170.64 1170.45 170.552 1170.45 170.336C1170.44 169.535 1170.46 168.733 1170.44 167.931C1170.43 167.631 1170.53 167.57 1170.81 167.576C1171.85 167.591 1172.9 167.591 1173.94 167.576C1174.24 167.57 1174.34 167.634 1174.33 167.95C1174.31 168.751 1174.33 169.553 1174.32 170.355C1174.32 170.513 1174.33 170.628 1174.52 170.667C1177.82 171.378 1179.52 173.598 1180.24 176.734C1180.44 177.576 1180.44 177.582 1179.6 177.703C1178.43 177.873 1177.25 178.022 1176.07 178.204C1175.82 178.244 1175.77 178.156 1175.73 177.946C1175.68 177.649 1175.61 177.351 1175.52 177.065C1175.02 175.538 1174.14 174.852 1172.54 174.743C1171.83 174.694 1171.13 174.767 1170.48 175.058C1169.65 175.423 1169.17 176.051 1169.08 176.953C1169 177.861 1169.38 178.553 1170.13 179.051C1170.9 179.562 1171.77 179.817 1172.64 180.081C1174.13 180.53 1175.63 180.91 1177.01 181.66C1179.01 182.756 1180.03 184.45 1180.17 186.716C1180.29 188.787 1179.74 190.603 1178.22 192.063C1177.24 193.001 1176.07 193.6 1174.77 193.928C1174.4 194.019 1174.3 194.167 1174.31 194.538C1174.35 195.327 1174.32 196.117 1174.33 196.906C1174.33 197.137 1174.28 197.222 1174.03 197.213C1173.49 197.192 1172.94 197.207 1172.39 197.207Z" fill="#FF985F"/>
<path d="M1165.24 189.812H1167.37V187.657L1168.57 186.214L1170.97 189.812H1173.33L1169.84 184.696L1172.86 181.068H1170.46L1167.37 185.106V178.047H1165.24V189.812Z" fill="#FFF4EC"/>
<path d="M1178.28 183.208C1178.59 183.208 1178.95 183.284 1179.29 183.406L1179.42 180.946C1179.22 180.87 1178.98 180.825 1178.75 180.825C1177.92 180.825 1176.89 181.25 1176.2 182.92V181.068H1174.06V189.812H1176.2V185.531C1176.2 183.664 1177.27 183.208 1178.28 183.208Z" fill="#FFF4EC"/>
<path fill-rule="evenodd" clip-rule="evenodd" d="M1204 228.875C1234.83 228.875 1259.82 203.885 1259.82 173.058C1259.82 171.628 1259.76 170.211 1259.66 168.807H1185.9C1183.32 168.807 1181.22 170.904 1181.22 173.49V224.03C1188.18 227.144 1195.89 228.875 1204 228.875Z" fill="#C8C5D6"/>
<path fill-rule="evenodd" clip-rule="evenodd" d="M1259.33 180.485C1259.65 178.055 1259.82 175.576 1259.82 173.058C1259.82 171.628 1259.76 170.211 1259.66 168.807H1186.07C1183.39 168.807 1181.22 170.978 1181.22 173.657V180.485H1259.33Z" fill="#48367D"/>
<path d="M1193.35 174.693C1193.35 176.032 1192.27 177.117 1190.93 177.117C1189.59 177.117 1188.5 176.032 1188.5 174.693C1188.5 173.353 1189.59 172.268 1190.93 172.268C1192.27 172.268 1193.35 173.353 1193.35 174.693Z" fill="white"/>
<path d="M1201.31 174.647C1201.31 175.986 1200.23 177.072 1198.89 177.072C1197.55 177.072 1196.46 175.986 1196.46 174.647C1196.46 173.308 1197.55 172.222 1198.89 172.222C1200.23 172.222 1201.31 173.308 1201.31 174.647Z" fill="white"/>
<path d="M1209.4 174.647C1209.4 175.986 1208.31 177.072 1206.97 177.072C1205.63 177.072 1204.55 175.986 1204.55 174.647C1204.55 173.308 1205.63 172.222 1206.97 172.222C1208.31 172.222 1209.4 173.308 1209.4 174.647Z" fill="white"/>
<path d="M1326.24 297.057C1326.24 327.883 1351.23 352.873 1382.06 352.873C1412.88 352.873 1437.87 327.883 1437.87 297.057C1437.87 266.229 1412.88 241.24 1382.06 241.24C1351.23 241.24 1326.24 266.229 1326.24 297.057Z" fill="#EEEDF3"/>
<path d="M1401.57 314.144C1401.57 314.144 1394.97 331.357 1370.08 332.44L1357.16 311.028" fill="#FFD3BA"/>
<path d="M1364.22 298.118C1364.22 298.118 1379.31 308.116 1373.91 332.44L1364.2 334.957" fill="#FFD3BA"/>
<path fill-rule="evenodd" clip-rule="evenodd" d="M1351.56 344.46L1377.39 330.665L1360.25 307.46L1332.09 322.608C1336.53 331.506 1343.28 339.051 1351.56 344.46Z" fill="#FFD3BA"/>
<path d="M1353.8 323.091C1352.26 323.086 1350.73 322.493 1349.55 321.314C1347.21 318.956 1347.22 315.144 1349.58 312.8C1360.57 301.878 1353.68 283.119 1353.61 282.931C1352.42 279.827 1353.98 276.354 1357.08 275.164C1360.19 273.973 1363.67 275.534 1364.86 278.639C1365.27 279.702 1374.65 304.856 1358.07 321.34C1356.89 322.512 1355.35 323.095 1353.8 323.091Z" fill="#FFD3BA"/>
<path d="M1373.61 279.47C1372.77 280.199 1371.93 280.928 1371.09 281.657C1368.9 283.555 1366.64 285.374 1364.52 287.346C1361.13 290.493 1359.02 294.373 1358.19 298.923C1357.34 303.532 1357.94 307.965 1360.01 312.17C1361.99 316.2 1365.03 319.227 1369 321.305C1371.84 322.785 1374.86 323.582 1378.05 323.706C1384.04 323.939 1389.31 322.128 1393.74 318.072C1396.89 315.188 1398.88 311.604 1399.82 307.443C1400.32 305.21 1400.46 302.951 1400.22 300.677C1399.74 296.055 1397.95 292.005 1394.84 288.545C1393.73 287.317 1392.45 286.288 1391.21 285.213C1389.04 283.344 1386.87 281.481 1384.7 279.616C1384.64 279.57 1384.6 279.518 1384.55 279.468C1384.26 279.466 1383.96 279.472 1383.67 279.457C1383.49 279.448 1383.45 279.527 1383.45 279.688C1383.46 279.992 1383.45 280.297 1383.45 280.602C1383.45 283.631 1383.45 286.66 1383.45 289.69C1383.45 290.24 1383.25 290.678 1382.76 290.943C1381.86 291.428 1380.83 290.782 1380.83 289.733C1380.82 287.348 1380.83 284.963 1380.83 282.578C1380.83 281.62 1380.82 280.663 1380.83 279.705C1380.83 279.509 1380.78 279.448 1380.58 279.455C1380.16 279.47 1379.73 279.459 1379.3 279.459C1377.4 279.466 1375.51 279.468 1373.61 279.47ZM1378.64 311.062C1378.25 311.062 1377.86 311.053 1377.47 311.066C1377.29 311.073 1377.25 311.012 1377.25 310.847C1377.26 310.281 1377.24 309.715 1377.26 309.149C1377.27 308.884 1377.2 308.779 1376.94 308.712C1376.01 308.477 1375.17 308.046 1374.47 307.376C1373.37 306.327 1372.98 305.027 1373.07 303.543C1373.17 301.92 1373.9 300.705 1375.33 299.92C1376.32 299.38 1377.4 299.11 1378.46 298.788C1379.08 298.599 1379.71 298.416 1380.26 298.05C1380.8 297.694 1381.07 297.197 1381.01 296.547C1380.95 295.9 1380.6 295.452 1380.01 295.189C1379.54 294.98 1379.04 294.928 1378.53 294.962C1377.39 295.041 1376.76 295.533 1376.4 296.627C1376.33 296.832 1376.28 297.045 1376.24 297.258C1376.22 297.409 1376.19 297.472 1376 297.443C1375.16 297.313 1374.32 297.206 1373.47 297.084C1372.87 296.997 1372.87 296.991 1373.01 296.39C1373.53 294.142 1374.75 292.551 1377.11 292.042C1377.25 292.012 1377.26 291.931 1377.26 291.818C1377.25 291.243 1377.27 290.669 1377.25 290.094C1377.24 289.868 1377.32 289.822 1377.53 289.827C1378.28 289.84 1379.03 289.837 1379.77 289.827C1379.97 289.824 1380.05 289.866 1380.04 290.081C1380.02 290.656 1380.04 291.23 1380.03 291.805C1380.03 291.957 1380.08 292.02 1380.23 292.051C1380.44 292.094 1380.65 292.146 1380.85 292.214C1382.18 292.651 1383.25 293.402 1383.8 294.743C1384.25 295.844 1384.26 296.98 1383.96 298.12C1383.58 299.524 1382.59 300.381 1381.33 300.986C1380.38 301.448 1379.35 301.722 1378.35 302.076C1377.8 302.272 1377.26 302.477 1376.8 302.856C1376.52 303.091 1376.31 303.376 1376.26 303.748C1376.14 304.52 1376.49 305.204 1377.21 305.576C1378.1 306.028 1379.03 305.998 1379.96 305.789C1380.94 305.569 1381.55 304.953 1381.81 303.978C1381.89 303.656 1381.93 303.328 1381.94 302.999C1381.94 302.81 1382.02 302.79 1382.17 302.814C1383.09 302.953 1384.01 303.093 1384.93 303.219C1385.09 303.241 1385.12 303.299 1385.1 303.437C1385.05 303.968 1384.94 304.486 1384.74 304.977C1383.91 307.014 1382.37 308.231 1380.29 308.807C1380.1 308.862 1380.02 308.923 1380.03 309.13C1380.04 309.695 1380.02 310.261 1380.04 310.827C1380.04 311.029 1379.98 311.073 1379.79 311.066C1379.41 311.051 1379.02 311.062 1378.64 311.062Z" fill="#FF985F"/>
<path d="M1384.16 276.843C1385.37 274.758 1386.57 272.676 1387.77 270.587C1389.32 267.869 1387.79 264.559 1384.72 263.975C1384.45 263.925 1384.18 263.906 1383.91 263.906C1380.69 263.908 1377.47 263.906 1374.25 263.906C1370.82 263.906 1368.68 267.544 1370.37 270.537C1371.53 272.587 1372.72 274.617 1373.9 276.656C1373.93 276.715 1373.96 276.78 1373.99 276.841C1376.76 276.843 1379.52 276.845 1382.29 276.848C1382.91 276.85 1383.54 276.845 1384.16 276.843Z" fill="#FF985F"/>
<path d="M1384.16 276.843C1383.54 276.845 1382.91 276.852 1382.29 276.852C1379.52 276.85 1376.75 276.848 1373.99 276.845C1373.82 276.848 1373.66 276.852 1373.49 276.852C1372.73 276.856 1372.15 277.411 1372.15 278.149C1372.14 278.867 1372.71 279.442 1373.45 279.463C1373.51 279.466 1373.56 279.468 1373.61 279.472C1375.51 279.47 1377.41 279.466 1379.3 279.463C1379.73 279.463 1380.16 279.474 1380.58 279.459C1380.78 279.453 1380.83 279.513 1380.83 279.709C1380.82 280.667 1380.83 281.624 1380.83 282.582C1380.83 284.967 1380.83 287.352 1380.83 289.737C1380.83 290.786 1381.86 291.433 1382.76 290.947C1383.25 290.682 1383.45 290.242 1383.45 289.694C1383.45 286.664 1383.45 283.635 1383.45 280.606C1383.45 280.301 1383.46 279.997 1383.45 279.692C1383.45 279.531 1383.49 279.453 1383.67 279.461C1383.96 279.476 1384.26 279.47 1384.56 279.472C1385.39 279.439 1385.91 279.026 1386 278.327C1386.1 277.557 1385.52 276.872 1384.74 276.854C1384.55 276.848 1384.36 276.845 1384.16 276.843Z" fill="#FD5B24"/>
<path d="M1378.64 311.063C1379.02 311.063 1379.41 311.052 1379.79 311.067C1379.98 311.073 1380.04 311.03 1380.04 310.828C1380.02 310.262 1380.04 309.696 1380.03 309.13C1380.02 308.923 1380.1 308.86 1380.29 308.808C1382.37 308.231 1383.91 307.015 1384.74 304.978C1384.94 304.484 1385.05 303.968 1385.1 303.437C1385.12 303.3 1385.09 303.241 1384.94 303.22C1384.02 303.091 1383.1 302.954 1382.18 302.815C1382.02 302.791 1381.95 302.81 1381.94 303C1381.93 303.328 1381.89 303.657 1381.81 303.979C1381.55 304.954 1380.95 305.57 1379.96 305.79C1379.03 305.999 1378.1 306.029 1377.22 305.576C1376.49 305.204 1376.14 304.519 1376.26 303.748C1376.32 303.376 1376.52 303.091 1376.8 302.856C1377.26 302.477 1377.81 302.273 1378.35 302.077C1379.35 301.722 1380.38 301.448 1381.34 300.987C1382.59 300.382 1383.58 299.524 1383.96 298.121C1384.26 296.983 1384.25 295.844 1383.8 294.743C1383.25 293.403 1382.18 292.652 1380.86 292.214C1380.65 292.147 1380.44 292.093 1380.23 292.051C1380.08 292.023 1380.03 291.96 1380.03 291.805C1380.04 291.231 1380.03 290.656 1380.04 290.082C1380.05 289.866 1379.97 289.823 1379.78 289.827C1379.03 289.838 1378.28 289.838 1377.53 289.827C1377.32 289.823 1377.25 289.869 1377.25 290.095C1377.27 290.669 1377.26 291.244 1377.26 291.818C1377.26 291.932 1377.25 292.014 1377.12 292.043C1374.75 292.552 1373.54 294.143 1373.02 296.391C1372.88 296.993 1372.88 296.998 1373.47 297.085C1374.32 297.207 1375.16 297.313 1376.01 297.444C1376.19 297.472 1376.22 297.409 1376.25 297.259C1376.29 297.046 1376.33 296.832 1376.4 296.628C1376.76 295.533 1377.39 295.041 1378.54 294.963C1379.05 294.928 1379.54 294.98 1380.02 295.189C1380.61 295.451 1380.95 295.901 1381.01 296.547C1381.07 297.198 1380.8 297.694 1380.26 298.051C1379.71 298.417 1379.08 298.599 1378.46 298.789C1377.4 299.111 1376.32 299.383 1375.34 299.92C1373.9 300.706 1373.17 301.92 1373.07 303.544C1372.98 305.028 1373.38 306.329 1374.47 307.376C1375.17 308.049 1376.01 308.477 1376.94 308.712C1377.2 308.778 1377.28 308.884 1377.27 309.15C1377.24 309.716 1377.26 310.281 1377.25 310.847C1377.25 311.013 1377.29 311.073 1377.47 311.067C1377.86 311.052 1378.25 311.063 1378.64 311.063Z" fill="#FF985F"/>
<path d="M1374.24 305.676H1375.76V304.131L1376.62 303.097L1378.34 305.676H1380.04L1377.54 302.009L1379.7 299.409H1377.98L1375.76 302.303V297.244H1374.24V305.676ZM1383.59 300.943C1383.8 300.943 1384.06 300.997 1384.3 301.084L1384.4 299.322C1384.26 299.267 1384.09 299.235 1383.92 299.235C1383.32 299.235 1382.58 299.539 1382.09 300.736V299.409H1380.56V305.676H1382.09V302.607C1382.09 301.269 1382.86 300.943 1383.59 300.943Z" fill="#FFF4EC"/>
<path d="M1408.71 301.45L1400.34 302.301C1397.32 302.551 1394.67 300.308 1394.42 297.29C1394.17 294.273 1396.41 291.624 1399.43 291.373L1407.8 290.522C1410.82 290.272 1413.47 292.515 1413.72 295.532C1413.97 298.55 1411.73 301.199 1408.71 301.45Z" fill="#FFD3BA"/>
<path d="M1407.05 313.929L1398.64 314.088C1395.61 314.089 1393.15 311.634 1393.15 308.607C1393.15 305.579 1395.6 303.123 1398.63 303.122L1407.05 302.964C1410.08 302.963 1412.53 305.417 1412.54 308.444C1412.54 311.472 1410.08 313.928 1407.05 313.929Z" fill="#FFD3BA"/>
<path d="M1405.16 325.127L1396.77 324.5C1393.75 324.219 1391.53 321.546 1391.82 318.532C1392.1 315.516 1394.77 313.301 1397.78 313.582L1406.18 314.209C1409.19 314.49 1411.41 317.162 1411.13 320.177C1410.85 323.192 1408.18 325.408 1405.16 325.127Z" fill="#FFD3BA"/>
<defs>
<filter id="filter0_d" x="435.63" y="153.098" width="50.932" height="17.102" filterUnits="userSpaceOnUse" color-interpolation-filters="sRGB">
<feFlood flood-opacity="0" result="BackgroundImageFix"/>
<feColorMatrix in="SourceAlpha" type="matrix" values="0 0 0 0 0 0 0 0 0 0 0 0 0 0 0 0 0 0 127 0"/>
<feOffset dy="0.238"/>
<feGaussianBlur stdDeviation="0.238"/>
<feColorMatrix type="matrix" values="0 0 0 0 0.0862745 0 0 0 0 0.0705882 0 0 0 0 0.145098 0 0 0 0.07 0"/>
<feBlend mode="normal" in2="BackgroundImageFix" result="effect1_dropShadow"/>
<feBlend mode="normal" in="SourceGraphic" in2="effect1_dropShadow" result="shape"/>
</filter>
</defs>
</svg>
