<svg width="1467" height="506" viewBox="0 0 1467 506" fill="none" xmlns="http://www.w3.org/2000/svg">
<rect width="1467" height="506" fill="white"/>
<line x1="1026" y1="173.5" x2="1194" y2="173.5" stroke="#4D3280" stroke-dasharray="3 3"/>
<line x1="622" y1="173" x2="622" y2="297" stroke="#49367E" stroke-width="2" stroke-dasharray="8 8"/>
<line x1="1334" y1="172" x2="1334" y2="261" stroke="#49367E" stroke-width="2" stroke-dasharray="8 8"/>
<line x1="1155" y1="173" x2="1334" y2="173" stroke="#49367E" stroke-width="2" stroke-dasharray="8 8"/>
<line x1="133" y1="173" x2="1155" y2="173" stroke="#FF5B24" stroke-width="2"/>
<path d="M392.879 267.216C392.519 265.008 390.623 263.82 388.739 263.82C386.171 263.82 384.047 265.68 384.047 268.44C384.047 271.392 386.195 273.18 388.775 273.18C390.515 273.18 392.687 272.016 392.951 269.544L391.331 269.304C391.199 271.092 389.975 271.644 388.775 271.644C387.071 271.644 385.739 270.672 385.739 268.44C385.739 266.412 387.071 265.356 388.679 265.356C389.783 265.356 390.995 265.812 391.259 267.456L392.879 267.216ZM400.641 273L400.641 266.088L399.141 266.088L399.141 270.108C399.141 271.284 398.361 271.824 397.353 271.824C396.429 271.824 395.973 271.416 395.973 270.348L395.973 266.088L394.473 266.088L394.473 270.912C394.473 272.508 395.625 273.18 396.777 273.18C397.641 273.18 398.601 272.784 399.141 271.836L399.141 273L400.641 273ZM402.392 268.032C402.392 268.992 402.944 269.7 404.12 269.952L405.38 270.228C406.244 270.42 406.484 270.672 406.484 271.08C406.484 271.656 405.92 271.98 405.092 271.98C404.12 271.98 403.484 271.524 403.388 270.672L402.056 270.912C402.284 272.52 403.784 273.18 405.128 273.18C406.46 273.18 407.876 272.436 407.876 270.936C407.876 269.976 407.312 269.328 406.088 269.064L404.72 268.764C404.024 268.608 403.784 268.272 403.784 267.912C403.784 267.408 404.264 267.096 404.948 267.096C405.776 267.096 406.388 267.396 406.436 268.296L407.768 268.056C407.372 266.508 406.328 265.896 404.936 265.896C403.808 265.896 402.392 266.52 402.392 268.032ZM409.873 264.42L409.873 266.088L408.589 266.088L408.589 267.3L409.873 267.3L409.873 271.056C409.873 272.328 410.509 273.12 411.889 273.12C412.309 273.12 412.801 273.012 413.161 272.904L412.921 271.692C412.645 271.764 412.477 271.8 412.201 271.8C411.589 271.8 411.373 271.524 411.373 270.984L411.373 267.3L413.101 267.3L413.101 266.088L411.373 266.088L411.373 264.18L409.873 264.42ZM417.559 265.896C415.687 265.896 414.139 267.264 414.139 269.532C414.139 271.8 415.687 273.18 417.559 273.18C419.431 273.18 420.979 271.8 420.979 269.532C420.979 267.264 419.431 265.896 417.559 265.896ZM417.559 267.192C418.591 267.192 419.467 267.948 419.467 269.532C419.467 271.116 418.591 271.884 417.559 271.884C416.527 271.884 415.651 271.116 415.651 269.532C415.651 267.948 416.527 267.192 417.559 267.192ZM430.114 267.252C430.966 267.252 431.614 267.732 431.614 269.016L431.614 273L433.114 273L433.114 268.368C433.114 266.508 431.974 265.896 430.714 265.896C429.946 265.896 428.974 266.208 428.458 267.24C428.086 266.256 427.21 265.896 426.286 265.896C425.458 265.896 424.462 266.22 423.97 267.108L423.97 266.088L422.47 266.088L422.47 273L423.97 273L423.97 269.052C423.97 267.816 424.678 267.252 425.638 267.252C426.49 267.252 427.138 267.732 427.138 269.016L427.138 273L428.638 273L428.638 269.052C428.638 267.816 429.262 267.252 430.114 267.252ZM438.01 267.192C438.982 267.192 439.75 267.648 439.87 268.8L436.114 268.8C436.318 267.732 437.014 267.192 438.01 267.192ZM441.286 269.868L441.286 269.376C441.286 267.336 439.942 265.896 438.07 265.896C436.066 265.896 434.542 267.3 434.542 269.52C434.542 271.8 436.126 273.18 438.166 273.18C439.438 273.18 440.974 272.448 441.238 270.852L439.846 270.612C439.69 271.404 439.234 271.884 438.106 271.884C436.858 271.884 436.174 271.08 436.066 269.868L441.286 269.868ZM446.079 267.516C446.451 267.516 446.715 267.564 446.979 267.672L447.123 265.992C446.979 265.92 446.775 265.896 446.595 265.896C445.911 265.896 444.831 266.292 444.267 267.744L444.267 266.088L442.767 266.088L442.767 273L444.267 273L444.267 269.976C444.267 268.056 445.107 267.516 446.079 267.516ZM457.869 268.776C457.617 266.916 456.141 265.896 454.533 265.896C452.553 265.896 451.053 267.3 451.053 269.532C451.053 271.668 452.529 273.18 454.641 273.18C455.973 273.18 457.533 272.448 457.857 270.336L456.489 270.096C456.333 271.272 455.685 271.872 454.629 271.872C453.225 271.872 452.565 270.804 452.565 269.532C452.565 267.996 453.405 267.192 454.461 267.192C455.421 267.192 456.225 267.708 456.393 269.016L457.869 268.776ZM459.278 263.7L459.278 273L460.778 273L460.778 269.052C460.778 267.816 461.486 267.252 462.494 267.252C463.298 267.252 463.946 267.732 463.946 269.016L463.946 273L465.446 273L465.446 268.368C465.446 266.508 464.306 265.896 462.986 265.896C462.254 265.896 461.27 266.22 460.778 267.108L460.778 263.7L459.278 263.7ZM470.294 265.896C468.422 265.896 466.874 267.264 466.874 269.532C466.874 271.8 468.422 273.18 470.294 273.18C472.166 273.18 473.714 271.8 473.714 269.532C473.714 267.264 472.166 265.896 470.294 265.896ZM470.294 267.192C471.326 267.192 472.202 267.948 472.202 269.532C472.202 271.116 471.326 271.884 470.294 271.884C469.262 271.884 468.386 271.116 468.386 269.532C468.386 267.948 469.262 267.192 470.294 267.192ZM478.192 265.896C476.32 265.896 474.772 267.264 474.772 269.532C474.772 271.8 476.32 273.18 478.192 273.18C480.064 273.18 481.612 271.8 481.612 269.532C481.612 267.264 480.064 265.896 478.192 265.896ZM478.192 267.192C479.224 267.192 480.1 267.948 480.1 269.532C480.1 271.116 479.224 271.884 478.192 271.884C477.16 271.884 476.284 271.116 476.284 269.532C476.284 267.948 477.16 267.192 478.192 267.192ZM482.959 268.032C482.959 268.992 483.511 269.7 484.687 269.952L485.947 270.228C486.811 270.42 487.051 270.672 487.051 271.08C487.051 271.656 486.487 271.98 485.659 271.98C484.687 271.98 484.051 271.524 483.955 270.672L482.623 270.912C482.851 272.52 484.351 273.18 485.695 273.18C487.027 273.18 488.443 272.436 488.443 270.936C488.443 269.976 487.879 269.328 486.655 269.064L485.287 268.764C484.591 268.608 484.351 268.272 484.351 267.912C484.351 267.408 484.831 267.096 485.515 267.096C486.343 267.096 486.955 267.396 487.003 268.296L488.335 268.056C487.939 266.508 486.895 265.896 485.503 265.896C484.375 265.896 482.959 266.52 482.959 268.032ZM492.947 267.192C493.919 267.192 494.687 267.648 494.807 268.8L491.051 268.8C491.255 267.732 491.951 267.192 492.947 267.192ZM496.223 269.868L496.223 269.376C496.223 267.336 494.879 265.896 493.007 265.896C491.003 265.896 489.479 267.3 489.479 269.52C489.479 271.8 491.063 273.18 493.103 273.18C494.375 273.18 495.911 272.448 496.175 270.852L494.783 270.612C494.627 271.404 494.171 271.884 493.043 271.884C491.795 271.884 491.111 271.08 491.003 269.868L496.223 269.868ZM497.56 268.032C497.56 268.992 498.112 269.7 499.288 269.952L500.548 270.228C501.412 270.42 501.652 270.672 501.652 271.08C501.652 271.656 501.088 271.98 500.26 271.98C499.288 271.98 498.652 271.524 498.556 270.672L497.224 270.912C497.452 272.52 498.952 273.18 500.296 273.18C501.628 273.18 503.044 272.436 503.044 270.936C503.044 269.976 502.48 269.328 501.256 269.064L499.888 268.764C499.192 268.608 498.952 268.272 498.952 267.912C498.952 267.408 499.432 267.096 500.116 267.096C500.944 267.096 501.556 267.396 501.604 268.296L502.936 268.056C502.54 266.508 501.496 265.896 500.104 265.896C498.976 265.896 497.56 266.52 497.56 268.032ZM390.478 284.42L390.478 286.088L389.194 286.088L389.194 287.3L390.478 287.3L390.478 291.056C390.478 292.328 391.114 293.12 392.494 293.12C392.914 293.12 393.406 293.012 393.766 292.904L393.526 291.692C393.25 291.764 393.082 291.8 392.806 291.8C392.194 291.8 391.978 291.524 391.978 290.984L391.978 287.3L393.706 287.3L393.706 286.088L391.978 286.088L391.978 284.18L390.478 284.42ZM398.165 285.896C396.293 285.896 394.745 287.264 394.745 289.532C394.745 291.8 396.293 293.18 398.165 293.18C400.037 293.18 401.585 291.8 401.585 289.532C401.585 287.264 400.037 285.896 398.165 285.896ZM398.165 287.192C399.197 287.192 400.073 287.948 400.073 289.532C400.073 291.116 399.197 291.884 398.165 291.884C397.133 291.884 396.257 291.116 396.257 289.532C396.257 287.948 397.133 287.192 398.165 287.192ZM410.15 285.896C408.974 285.896 408.254 286.64 407.81 287.444L407.81 286.088L406.31 286.088L406.31 295.4L407.81 295.4L407.81 291.692C408.386 292.676 409.13 293.18 410.006 293.18C411.614 293.18 413.186 291.956 413.186 289.436C413.186 287.024 411.554 285.896 410.15 285.896ZM409.742 287.192C410.69 287.192 411.674 287.948 411.674 289.52C411.674 291.116 410.69 291.872 409.73 291.872C408.722 291.872 407.81 291.056 407.81 289.52C407.81 287.912 408.722 287.192 409.742 287.192ZM417.376 293.18C418.612 293.18 419.368 292.424 419.716 291.572L419.716 293L421.216 293L421.216 286.088L419.716 286.088L419.716 287.444C419.224 286.352 418.468 285.896 417.388 285.896C415.936 285.896 414.34 287.06 414.34 289.472C414.34 292.004 415.948 293.18 417.376 293.18ZM417.796 287.192C418.804 287.192 419.716 287.96 419.716 289.556C419.716 291.2 418.804 291.872 417.784 291.872C416.836 291.872 415.852 291.164 415.852 289.556C415.852 287.924 416.848 287.192 417.796 287.192ZM423.75 295.4C425.094 295.4 425.958 294.692 426.498 293.288L429.258 286.088L427.59 286.088L425.85 291.488L424.026 286.088L422.358 286.088L424.902 292.472C425.25 293.348 424.926 294.152 423.894 294.152C423.354 294.152 423.018 293.984 422.802 293.852L422.562 295.148C422.886 295.304 423.294 295.4 423.75 295.4ZM443.598 286.088L441.93 286.088L440.454 291.128L438.786 286.088L437.67 286.088L436.014 291.104L434.526 286.088L432.858 286.088L435.342 293L436.638 293L438.234 288.632L439.818 293L441.114 293L443.598 286.088ZM444.735 286.088L444.735 293L446.235 293L446.235 286.088L444.735 286.088ZM445.479 283.1C444.975 283.1 444.579 283.508 444.579 284C444.579 284.492 444.975 284.9 445.479 284.9C445.983 284.9 446.379 284.492 446.379 284C446.379 283.508 445.983 283.1 445.479 283.1ZM448.685 284.42L448.685 286.088L447.401 286.088L447.401 287.3L448.685 287.3L448.685 291.056C448.685 292.328 449.321 293.12 450.701 293.12C451.121 293.12 451.613 293.012 451.973 292.904L451.733 291.692C451.457 291.764 451.289 291.8 451.013 291.8C450.401 291.8 450.185 291.524 450.185 290.984L450.185 287.3L451.913 287.3L451.913 286.088L450.185 286.088L450.185 284.18L448.685 284.42ZM453.384 283.7L453.384 293L454.884 293L454.884 289.052C454.884 287.816 455.592 287.252 456.6 287.252C457.404 287.252 458.052 287.732 458.052 289.016L458.052 293L459.552 293L459.552 288.368C459.552 286.508 458.412 285.896 457.092 285.896C456.36 285.896 455.376 286.22 454.884 287.108L454.884 283.7L453.384 283.7ZM470.766 286.088L469.098 286.088L467.322 291.308L465.534 286.088L463.866 286.088L466.626 293L468.006 293L470.766 286.088ZM471.911 286.088L471.911 293L473.411 293L473.411 286.088L471.911 286.088ZM472.655 283.1C472.151 283.1 471.755 283.508 471.755 284C471.755 284.492 472.151 284.9 472.655 284.9C473.159 284.9 473.555 284.492 473.555 284C473.555 283.508 473.159 283.1 472.655 283.1ZM479.173 285.896C477.997 285.896 477.277 286.64 476.833 287.444L476.833 286.088L475.333 286.088L475.333 295.4L476.833 295.4L476.833 291.692C477.409 292.676 478.153 293.18 479.029 293.18C480.637 293.18 482.209 291.956 482.209 289.436C482.209 287.024 480.577 285.896 479.173 285.896ZM478.765 287.192C479.713 287.192 480.697 287.948 480.697 289.52C480.697 291.116 479.713 291.872 478.753 291.872C477.745 291.872 476.833 291.056 476.833 289.52C476.833 287.912 477.745 287.192 478.765 287.192ZM487.587 285.896C486.411 285.896 485.691 286.64 485.247 287.444L485.247 286.088L483.747 286.088L483.747 295.4L485.247 295.4L485.247 291.692C485.823 292.676 486.567 293.18 487.443 293.18C489.051 293.18 490.623 291.956 490.623 289.436C490.623 287.024 488.991 285.896 487.587 285.896ZM487.179 287.192C488.127 287.192 489.111 287.948 489.111 289.52C489.111 291.116 488.127 291.872 487.167 291.872C486.159 291.872 485.247 291.056 485.247 289.52C485.247 287.912 486.159 287.192 487.179 287.192ZM492.017 288.032C492.017 288.992 492.569 289.7 493.745 289.952L495.005 290.228C495.869 290.42 496.109 290.672 496.109 291.08C496.109 291.656 495.545 291.98 494.717 291.98C493.745 291.98 493.109 291.524 493.013 290.672L491.681 290.912C491.909 292.52 493.409 293.18 494.753 293.18C496.085 293.18 497.501 292.436 497.501 290.936C497.501 289.976 496.937 289.328 495.713 289.064L494.345 288.764C493.649 288.608 493.409 288.272 493.409 287.912C493.409 287.408 493.889 287.096 494.573 287.096C495.401 287.096 496.013 287.396 496.061 288.296L497.393 288.056C496.997 286.508 495.953 285.896 494.561 285.896C493.433 285.896 492.017 286.52 492.017 288.032Z" fill="#FF5B24"/>
<path d="M744.586 267.216C744.226 265.008 742.33 263.82 740.446 263.82C737.878 263.82 735.754 265.68 735.754 268.44C735.754 271.392 737.902 273.18 740.482 273.18C742.222 273.18 744.394 272.016 744.658 269.544L743.038 269.304C742.906 271.092 741.682 271.644 740.482 271.644C738.778 271.644 737.446 270.672 737.446 268.44C737.446 266.412 738.778 265.356 740.386 265.356C741.49 265.356 742.702 265.812 742.966 267.456L744.586 267.216ZM752.348 273L752.348 266.088L750.848 266.088L750.848 270.108C750.848 271.284 750.068 271.824 749.06 271.824C748.136 271.824 747.68 271.416 747.68 270.348L747.68 266.088L746.18 266.088L746.18 270.912C746.18 272.508 747.332 273.18 748.484 273.18C749.348 273.18 750.308 272.784 750.848 271.836L750.848 273L752.348 273ZM754.099 268.032C754.099 268.992 754.651 269.7 755.827 269.952L757.087 270.228C757.951 270.42 758.191 270.672 758.191 271.08C758.191 271.656 757.627 271.98 756.799 271.98C755.827 271.98 755.191 271.524 755.095 270.672L753.763 270.912C753.991 272.52 755.491 273.18 756.835 273.18C758.167 273.18 759.583 272.436 759.583 270.936C759.583 269.976 759.019 269.328 757.795 269.064L756.427 268.764C755.731 268.608 755.491 268.272 755.491 267.912C755.491 267.408 755.971 267.096 756.655 267.096C757.483 267.096 758.095 267.396 758.143 268.296L759.475 268.056C759.079 266.508 758.035 265.896 756.643 265.896C755.515 265.896 754.099 266.52 754.099 268.032ZM761.58 264.42L761.58 266.088L760.296 266.088L760.296 267.3L761.58 267.3L761.58 271.056C761.58 272.328 762.216 273.12 763.596 273.12C764.016 273.12 764.508 273.012 764.868 272.904L764.628 271.692C764.352 271.764 764.184 271.8 763.908 271.8C763.296 271.8 763.08 271.524 763.08 270.984L763.08 267.3L764.808 267.3L764.808 266.088L763.08 266.088L763.08 264.18L761.58 264.42ZM769.266 265.896C767.394 265.896 765.846 267.264 765.846 269.532C765.846 271.8 767.394 273.18 769.266 273.18C771.138 273.18 772.686 271.8 772.686 269.532C772.686 267.264 771.138 265.896 769.266 265.896ZM769.266 267.192C770.298 267.192 771.174 267.948 771.174 269.532C771.174 271.116 770.298 271.884 769.266 271.884C768.234 271.884 767.358 271.116 767.358 269.532C767.358 267.948 768.234 267.192 769.266 267.192ZM781.821 267.252C782.673 267.252 783.321 267.732 783.321 269.016L783.321 273L784.821 273L784.821 268.368C784.821 266.508 783.681 265.896 782.421 265.896C781.653 265.896 780.681 266.208 780.165 267.24C779.793 266.256 778.917 265.896 777.993 265.896C777.165 265.896 776.169 266.22 775.677 267.108L775.677 266.088L774.177 266.088L774.177 273L775.677 273L775.677 269.052C775.677 267.816 776.385 267.252 777.345 267.252C778.197 267.252 778.845 267.732 778.845 269.016L778.845 273L780.345 273L780.345 269.052C780.345 267.816 780.969 267.252 781.821 267.252ZM789.717 267.192C790.689 267.192 791.457 267.648 791.577 268.8L787.821 268.8C788.025 267.732 788.721 267.192 789.717 267.192ZM792.993 269.868L792.993 269.376C792.993 267.336 791.649 265.896 789.777 265.896C787.773 265.896 786.249 267.3 786.249 269.52C786.249 271.8 787.833 273.18 789.873 273.18C791.145 273.18 792.681 272.448 792.945 270.852L791.553 270.612C791.397 271.404 790.941 271.884 789.813 271.884C788.565 271.884 787.881 271.08 787.773 269.868L792.993 269.868ZM797.786 267.516C798.158 267.516 798.422 267.564 798.686 267.672L798.83 265.992C798.686 265.92 798.482 265.896 798.302 265.896C797.618 265.896 796.538 266.292 795.974 267.744L795.974 266.088L794.474 266.088L794.474 273L795.974 273L795.974 269.976C795.974 268.056 796.814 267.516 797.786 267.516ZM809.576 268.776C809.324 266.916 807.848 265.896 806.24 265.896C804.26 265.896 802.76 267.3 802.76 269.532C802.76 271.668 804.236 273.18 806.348 273.18C807.68 273.18 809.24 272.448 809.564 270.336L808.196 270.096C808.04 271.272 807.392 271.872 806.336 271.872C804.932 271.872 804.272 270.804 804.272 269.532C804.272 267.996 805.112 267.192 806.168 267.192C807.128 267.192 807.932 267.708 808.1 269.016L809.576 268.776ZM813.973 265.896C812.101 265.896 810.553 267.264 810.553 269.532C810.553 271.8 812.101 273.18 813.973 273.18C815.845 273.18 817.393 271.8 817.393 269.532C817.393 267.264 815.845 265.896 813.973 265.896ZM813.973 267.192C815.005 267.192 815.881 267.948 815.881 269.532C815.881 271.116 815.005 271.884 813.973 271.884C812.941 271.884 812.065 271.116 812.065 269.532C812.065 267.948 812.941 267.192 813.973 267.192ZM822.088 267.252C822.904 267.252 823.552 267.732 823.552 269.016L823.552 273L825.052 273L825.052 268.368C825.052 266.508 823.876 265.896 822.64 265.896C821.824 265.896 820.876 266.232 820.384 267.108L820.384 266.088L818.884 266.088L818.884 273L820.384 273L820.384 269.052C820.384 267.816 821.092 267.252 822.088 267.252ZM827.307 273L828.807 273L828.807 267.3L830.523 267.3L830.523 266.088L828.807 266.088L828.807 265.812C828.807 265.152 828.999 264.804 829.635 264.804C829.803 264.804 829.947 264.816 830.091 264.84L830.199 263.568C830.007 263.508 829.755 263.472 829.467 263.472C828.171 263.472 827.307 264.288 827.307 265.824L827.307 266.088L826.359 266.088L826.359 267.3L827.307 267.3L827.307 273ZM831.587 266.088L831.587 273L833.087 273L833.087 266.088L831.587 266.088ZM832.331 263.1C831.827 263.1 831.431 263.508 831.431 264C831.431 264.492 831.827 264.9 832.331 264.9C832.835 264.9 833.231 264.492 833.231 264C833.231 263.508 832.835 263.1 832.331 263.1ZM838.321 267.516C838.693 267.516 838.957 267.564 839.221 267.672L839.365 265.992C839.221 265.92 839.017 265.896 838.837 265.896C838.153 265.896 837.073 266.292 836.509 267.744L836.509 266.088L835.009 266.088L835.009 273L836.509 273L836.509 269.976C836.509 268.056 837.349 267.516 838.321 267.516ZM848.137 267.252C848.989 267.252 849.637 267.732 849.637 269.016L849.637 273L851.137 273L851.137 268.368C851.137 266.508 849.997 265.896 848.737 265.896C847.969 265.896 846.997 266.208 846.481 267.24C846.109 266.256 845.233 265.896 844.309 265.896C843.481 265.896 842.485 266.22 841.993 267.108L841.993 266.088L840.493 266.088L840.493 273L841.993 273L841.993 269.052C841.993 267.816 842.701 267.252 843.661 267.252C844.513 267.252 845.161 267.732 845.161 269.016L845.161 273L846.661 273L846.661 269.052C846.661 267.816 847.285 267.252 848.137 267.252ZM852.853 268.032C852.853 268.992 853.405 269.7 854.581 269.952L855.841 270.228C856.705 270.42 856.945 270.672 856.945 271.08C856.945 271.656 856.381 271.98 855.553 271.98C854.581 271.98 853.945 271.524 853.849 270.672L852.517 270.912C852.745 272.52 854.245 273.18 855.589 273.18C856.921 273.18 858.337 272.436 858.337 270.936C858.337 269.976 857.773 269.328 856.549 269.064L855.181 268.764C854.485 268.608 854.245 268.272 854.245 267.912C854.245 267.408 854.725 267.096 855.409 267.096C856.237 267.096 856.849 267.396 856.897 268.296L858.229 268.056C857.833 266.508 856.789 265.896 855.397 265.896C854.269 265.896 852.853 266.52 852.853 268.032Z" fill="#FF5B24"/>
<path d="M87.0824 269.616L87.0704 269.712C86.9264 270.852 86.0024 271.644 84.5864 271.644C83.0984 271.644 81.6104 270.756 81.6104 268.536C81.6104 266.424 82.8464 265.356 84.5024 265.356C85.7624 265.356 86.8304 265.836 87.0344 267.336L88.6184 267.096C88.2704 264.588 86.0984 263.82 84.5984 263.82C81.9104 263.82 79.9184 265.752 79.9184 268.536C79.9184 271.2 81.8744 273.18 84.1544 273.18C85.6064 273.18 86.6384 272.28 87.1184 271.32L87.1304 271.32L87.4064 273L88.7384 273L88.7384 268.2L84.7184 268.2L84.7184 269.616L87.0824 269.616ZM93.7089 267.192C94.6809 267.192 95.4489 267.648 95.5689 268.8L91.8129 268.8C92.0169 267.732 92.7129 267.192 93.7089 267.192ZM96.9849 269.868L96.9849 269.376C96.9849 267.336 95.6409 265.896 93.7689 265.896C91.7649 265.896 90.2409 267.3 90.2409 269.52C90.2409 271.8 91.8249 273.18 93.8649 273.18C95.1369 273.18 96.6729 272.448 96.9369 270.852L95.5449 270.612C95.3889 271.404 94.9329 271.884 93.8049 271.884C92.5569 271.884 91.8729 271.08 91.7649 269.868L96.9849 269.868ZM98.9939 264.42L98.9939 266.088L97.7099 266.088L97.7099 267.3L98.9939 267.3L98.9939 271.056C98.9939 272.328 99.6299 273.12 101.01 273.12C101.43 273.12 101.922 273.012 102.282 272.904L102.042 271.692C101.766 271.764 101.598 271.8 101.322 271.8C100.71 271.8 100.494 271.524 100.494 270.984L100.494 267.3L102.222 267.3L102.222 266.088L100.494 266.088L100.494 264.18L98.9939 264.42ZM109.579 273.18C110.815 273.18 111.571 272.424 111.919 271.572L111.919 273L113.419 273L113.419 266.088L111.919 266.088L111.919 267.444C111.427 266.352 110.671 265.896 109.591 265.896C108.139 265.896 106.543 267.06 106.543 269.472C106.543 272.004 108.151 273.18 109.579 273.18ZM109.999 267.192C111.007 267.192 111.919 267.96 111.919 269.556C111.919 271.2 111.007 271.872 109.987 271.872C109.039 271.872 108.055 271.164 108.055 269.556C108.055 267.924 109.051 267.192 109.999 267.192ZM121.725 268.776C121.473 266.916 119.997 265.896 118.389 265.896C116.409 265.896 114.909 267.3 114.909 269.532C114.909 271.668 116.385 273.18 118.497 273.18C119.829 273.18 121.389 272.448 121.713 270.336L120.345 270.096C120.189 271.272 119.541 271.872 118.485 271.872C117.081 271.872 116.421 270.804 116.421 269.532C116.421 267.996 117.261 267.192 118.317 267.192C119.277 267.192 120.081 267.708 120.249 269.016L121.725 268.776ZM129.518 268.776C129.266 266.916 127.79 265.896 126.182 265.896C124.202 265.896 122.702 267.3 122.702 269.532C122.702 271.668 124.178 273.18 126.29 273.18C127.622 273.18 129.182 272.448 129.506 270.336L128.138 270.096C127.982 271.272 127.334 271.872 126.278 271.872C124.874 271.872 124.214 270.804 124.214 269.532C124.214 267.996 125.054 267.192 126.11 267.192C127.07 267.192 127.874 267.708 128.042 269.016L129.518 268.776ZM133.963 267.192C134.935 267.192 135.703 267.648 135.823 268.8L132.067 268.8C132.271 267.732 132.967 267.192 133.963 267.192ZM137.239 269.868L137.239 269.376C137.239 267.336 135.895 265.896 134.023 265.896C132.019 265.896 130.495 267.3 130.495 269.52C130.495 271.8 132.079 273.18 134.119 273.18C135.391 273.18 136.927 272.448 137.191 270.852L135.799 270.612C135.643 271.404 135.187 271.884 134.059 271.884C132.811 271.884 132.127 271.08 132.019 269.868L137.239 269.868ZM138.576 268.032C138.576 268.992 139.128 269.7 140.304 269.952L141.564 270.228C142.428 270.42 142.668 270.672 142.668 271.08C142.668 271.656 142.104 271.98 141.276 271.98C140.304 271.98 139.668 271.524 139.572 270.672L138.24 270.912C138.468 272.52 139.968 273.18 141.312 273.18C142.644 273.18 144.06 272.436 144.06 270.936C144.06 269.976 143.496 269.328 142.272 269.064L140.904 268.764C140.208 268.608 139.968 268.272 139.968 267.912C139.968 267.408 140.448 267.096 141.132 267.096C141.96 267.096 142.572 267.396 142.62 268.296L143.952 268.056C143.556 266.508 142.512 265.896 141.12 265.896C139.992 265.896 138.576 266.52 138.576 268.032ZM145.384 268.032C145.384 268.992 145.936 269.7 147.112 269.952L148.372 270.228C149.236 270.42 149.476 270.672 149.476 271.08C149.476 271.656 148.912 271.98 148.084 271.98C147.112 271.98 146.476 271.524 146.38 270.672L145.048 270.912C145.276 272.52 146.776 273.18 148.12 273.18C149.452 273.18 150.868 272.436 150.868 270.936C150.868 269.976 150.304 269.328 149.08 269.064L147.712 268.764C147.016 268.608 146.776 268.272 146.776 267.912C146.776 267.408 147.256 267.096 147.94 267.096C148.768 267.096 149.38 267.396 149.428 268.296L150.76 268.056C150.364 266.508 149.32 265.896 147.928 265.896C146.8 265.896 145.384 266.52 145.384 268.032ZM156.099 264.42L156.099 266.088L154.815 266.088L154.815 267.3L156.099 267.3L156.099 271.056C156.099 272.328 156.735 273.12 158.115 273.12C158.535 273.12 159.027 273.012 159.387 272.904L159.147 271.692C158.871 271.764 158.703 271.8 158.427 271.8C157.815 271.8 157.599 271.524 157.599 270.984L157.599 267.3L159.327 267.3L159.327 266.088L157.599 266.088L157.599 264.18L156.099 264.42ZM163.786 265.896C161.914 265.896 160.366 267.264 160.366 269.532C160.366 271.8 161.914 273.18 163.786 273.18C165.658 273.18 167.206 271.8 167.206 269.532C167.206 267.264 165.658 265.896 163.786 265.896ZM163.786 267.192C164.818 267.192 165.694 267.948 165.694 269.532C165.694 271.116 164.818 271.884 163.786 271.884C162.754 271.884 161.878 271.116 161.878 269.532C161.878 267.948 162.754 267.192 163.786 267.192ZM168.696 273L170.196 273L170.196 271.344L171.468 269.916L173.532 273L175.092 273L172.32 268.944L174.864 266.088L173.232 266.088L170.196 269.664L170.196 263.7L168.696 263.7L168.696 273ZM179.092 267.192C180.064 267.192 180.832 267.648 180.952 268.8L177.196 268.8C177.4 267.732 178.096 267.192 179.092 267.192ZM182.368 269.868L182.368 269.376C182.368 267.336 181.024 265.896 179.152 265.896C177.148 265.896 175.624 267.3 175.624 269.52C175.624 271.8 177.208 273.18 179.248 273.18C180.52 273.18 182.056 272.448 182.32 270.852L180.928 270.612C180.772 271.404 180.316 271.884 179.188 271.884C177.94 271.884 177.256 271.08 177.148 269.868L182.368 269.868ZM187.053 267.252C187.869 267.252 188.517 267.732 188.517 269.016L188.517 273L190.017 273L190.017 268.368C190.017 266.508 188.841 265.896 187.605 265.896C186.789 265.896 185.841 266.232 185.349 267.108L185.349 266.088L183.849 266.088L183.849 273L185.349 273L185.349 269.052C185.349 267.816 186.057 267.252 187.053 267.252Z" fill="#FF5B24"/>
<path d="M244.408 266.412C244.408 269.88 249.388 268.74 249.388 270.648C249.388 271.332 248.86 271.788 247.84 271.788C246.868 271.788 245.752 271.464 245.596 269.928L244.048 270.288C244.288 272.22 245.992 273.18 247.792 273.18C249.388 273.18 250.96 272.268 250.96 270.552C250.96 267.192 246.004 268.416 246.004 266.352C246.004 265.644 246.544 265.212 247.468 265.212C248.272 265.212 249.172 265.572 249.244 266.82L250.828 266.46C250.564 264.6 248.956 263.82 247.54 263.82C245.968 263.82 244.408 264.684 244.408 266.412ZM255.475 267.192C256.447 267.192 257.215 267.648 257.335 268.8L253.579 268.8C253.783 267.732 254.479 267.192 255.475 267.192ZM258.751 269.868L258.751 269.376C258.751 267.336 257.407 265.896 255.535 265.896C253.531 265.896 252.007 267.3 252.007 269.52C252.007 271.8 253.591 273.18 255.631 273.18C256.903 273.18 258.439 272.448 258.703 270.852L257.311 270.612C257.155 271.404 256.699 271.884 255.571 271.884C254.323 271.884 253.639 271.08 253.531 269.868L258.751 269.868ZM260.759 264.42L260.759 266.088L259.475 266.088L259.475 267.3L260.759 267.3L260.759 271.056C260.759 272.328 261.395 273.12 262.775 273.12C263.195 273.12 263.687 273.012 264.047 272.904L263.807 271.692C263.531 271.764 263.363 271.8 263.087 271.8C262.475 271.8 262.259 271.524 262.259 270.984L262.259 267.3L263.987 267.3L263.987 266.088L262.259 266.088L262.259 264.18L260.759 264.42ZM274.824 273L274.824 266.088L273.324 266.088L273.324 270.108C273.324 271.284 272.544 271.824 271.536 271.824C270.612 271.824 270.156 271.416 270.156 270.348L270.156 266.088L268.656 266.088L268.656 270.912C268.656 272.508 269.808 273.18 270.96 273.18C271.824 273.18 272.784 272.784 273.324 271.836L273.324 273L274.824 273ZM280.56 265.896C279.384 265.896 278.664 266.64 278.22 267.444L278.22 266.088L276.72 266.088L276.72 275.4L278.22 275.4L278.22 271.692C278.796 272.676 279.54 273.18 280.416 273.18C282.024 273.18 283.596 271.956 283.596 269.436C283.596 267.024 281.964 265.896 280.56 265.896ZM280.152 267.192C281.1 267.192 282.084 267.948 282.084 269.52C282.084 271.116 281.1 271.872 280.14 271.872C279.132 271.872 278.22 271.056 278.22 269.52C278.22 267.912 279.132 267.192 280.152 267.192ZM237.48 287.192C238.452 287.192 239.22 287.648 239.34 288.8L235.584 288.8C235.788 287.732 236.484 287.192 237.48 287.192ZM240.756 289.868L240.756 289.376C240.756 287.336 239.412 285.896 237.54 285.896C235.536 285.896 234.012 287.3 234.012 289.52C234.012 291.8 235.596 293.18 237.636 293.18C238.908 293.18 240.444 292.448 240.708 290.852L239.316 290.612C239.16 291.404 238.704 291.884 237.576 291.884C236.328 291.884 235.644 291.08 235.536 289.868L240.756 289.868ZM245.441 287.252C246.257 287.252 246.905 287.732 246.905 289.016L246.905 293L248.405 293L248.405 288.368C248.405 286.508 247.229 285.896 245.993 285.896C245.177 285.896 244.229 286.232 243.737 287.108L243.737 286.088L242.237 286.088L242.237 293L243.737 293L243.737 289.052C243.737 287.816 244.445 287.252 245.441 287.252ZM256.757 283.7L255.257 283.7L255.257 287.444C254.765 286.352 254.021 285.896 253.085 285.896C251.477 285.896 249.881 287.06 249.881 289.472C249.881 292.004 251.489 293.18 252.893 293.18C254.153 293.18 254.909 292.52 255.257 291.692L255.257 293L256.757 293L256.757 283.7ZM253.337 287.192C254.345 287.192 255.257 287.996 255.257 289.556C255.257 291.164 254.345 291.872 253.325 291.872C252.377 291.872 251.393 291.128 251.393 289.556C251.393 287.96 252.389 287.192 253.337 287.192ZM262.519 285.896C261.343 285.896 260.623 286.64 260.179 287.444L260.179 286.088L258.679 286.088L258.679 295.4L260.179 295.4L260.179 291.692C260.755 292.676 261.499 293.18 262.375 293.18C263.983 293.18 265.555 291.956 265.555 289.436C265.555 287.024 263.923 285.896 262.519 285.896ZM262.111 287.192C263.059 287.192 264.043 287.948 264.043 289.52C264.043 291.116 263.059 291.872 262.099 291.872C261.091 291.872 260.179 291.056 260.179 289.52C260.179 287.912 261.091 287.192 262.111 287.192ZM270.081 285.896C268.209 285.896 266.661 287.264 266.661 289.532C266.661 291.8 268.209 293.18 270.081 293.18C271.953 293.18 273.501 291.8 273.501 289.532C273.501 287.264 271.953 285.896 270.081 285.896ZM270.081 287.192C271.113 287.192 271.989 287.948 271.989 289.532C271.989 291.116 271.113 291.884 270.081 291.884C269.049 291.884 268.173 291.116 268.173 289.532C268.173 287.948 269.049 287.192 270.081 287.192ZM274.991 286.088L274.991 293L276.491 293L276.491 286.088L274.991 286.088ZM275.735 283.1C275.231 283.1 274.835 283.508 274.835 284C274.835 284.492 275.231 284.9 275.735 284.9C276.239 284.9 276.635 284.492 276.635 284C276.635 283.508 276.239 283.1 275.735 283.1ZM281.617 287.252C282.433 287.252 283.081 287.732 283.081 289.016L283.081 293L284.581 293L284.581 288.368C284.581 286.508 283.405 285.896 282.169 285.896C281.353 285.896 280.405 286.232 279.913 287.108L279.913 286.088L278.413 286.088L278.413 293L279.913 293L279.913 289.052C279.913 287.816 280.621 287.252 281.617 287.252ZM286.968 284.42L286.968 286.088L285.684 286.088L285.684 287.3L286.968 287.3L286.968 291.056C286.968 292.328 287.604 293.12 288.984 293.12C289.404 293.12 289.896 293.012 290.256 292.904L290.016 291.692C289.74 291.764 289.572 291.8 289.296 291.8C288.684 291.8 288.468 291.524 288.468 290.984L288.468 287.3L290.196 287.3L290.196 286.088L288.468 286.088L288.468 284.18L286.968 284.42ZM291.523 288.032C291.523 288.992 292.075 289.7 293.251 289.952L294.511 290.228C295.375 290.42 295.615 290.672 295.615 291.08C295.615 291.656 295.051 291.98 294.223 291.98C293.251 291.98 292.615 291.524 292.519 290.672L291.187 290.912C291.415 292.52 292.915 293.18 294.259 293.18C295.591 293.18 297.007 292.436 297.007 290.936C297.007 289.976 296.443 289.328 295.219 289.064L293.851 288.764C293.155 288.608 292.915 288.272 292.915 287.912C292.915 287.408 293.395 287.096 294.079 287.096C294.907 287.096 295.519 287.396 295.567 288.296L296.899 288.056C296.503 286.508 295.459 285.896 294.067 285.896C292.939 285.896 291.523 286.52 291.523 288.032Z" fill="#FF5B24"/>
<path d="M938.604 267.216C938.244 265.008 936.348 263.82 934.464 263.82C931.896 263.82 929.772 265.68 929.772 268.44C929.772 271.392 931.92 273.18 934.5 273.18C936.24 273.18 938.412 272.016 938.676 269.544L937.056 269.304C936.924 271.092 935.7 271.644 934.5 271.644C932.796 271.644 931.464 270.672 931.464 268.44C931.464 266.412 932.796 265.356 934.404 265.356C935.508 265.356 936.72 265.812 936.984 267.456L938.604 267.216ZM943.221 265.896C941.349 265.896 939.801 267.264 939.801 269.532C939.801 271.8 941.349 273.18 943.221 273.18C945.093 273.18 946.641 271.8 946.641 269.532C946.641 267.264 945.093 265.896 943.221 265.896ZM943.221 267.192C944.253 267.192 945.129 267.948 945.129 269.532C945.129 271.116 944.253 271.884 943.221 271.884C942.189 271.884 941.313 271.116 941.313 269.532C941.313 267.948 942.189 267.192 943.221 267.192ZM951.336 267.252C952.152 267.252 952.8 267.732 952.8 269.016L952.8 273L954.3 273L954.3 268.368C954.3 266.508 953.124 265.896 951.888 265.896C951.072 265.896 950.124 266.232 949.632 267.108L949.632 266.088L948.132 266.088L948.132 273L949.632 273L949.632 269.052C949.632 267.816 950.34 267.252 951.336 267.252ZM956.555 273L958.055 273L958.055 267.3L959.771 267.3L959.771 266.088L958.055 266.088L958.055 265.812C958.055 265.152 958.247 264.804 958.883 264.804C959.051 264.804 959.195 264.816 959.339 264.84L959.447 263.568C959.255 263.508 959.003 263.472 958.715 263.472C957.419 263.472 956.555 264.288 956.555 265.824L956.555 266.088L955.607 266.088L955.607 267.3L956.555 267.3L956.555 273ZM960.835 266.088L960.835 273L962.335 273L962.335 266.088L960.835 266.088ZM961.579 263.1C961.075 263.1 960.679 263.508 960.679 264C960.679 264.492 961.075 264.9 961.579 264.9C962.083 264.9 962.479 264.492 962.479 264C962.479 263.508 962.083 263.1 961.579 263.1ZM967.569 267.516C967.941 267.516 968.205 267.564 968.469 267.672L968.613 265.992C968.469 265.92 968.265 265.896 968.085 265.896C967.401 265.896 966.321 266.292 965.757 267.744L965.757 266.088L964.257 266.088L964.257 273L965.757 273L965.757 269.976C965.757 268.056 966.597 267.516 967.569 267.516ZM977.385 267.252C978.237 267.252 978.885 267.732 978.885 269.016L978.885 273L980.385 273L980.385 268.368C980.385 266.508 979.245 265.896 977.985 265.896C977.217 265.896 976.245 266.208 975.729 267.24C975.357 266.256 974.481 265.896 973.557 265.896C972.729 265.896 971.733 266.22 971.241 267.108L971.241 266.088L969.741 266.088L969.741 273L971.241 273L971.241 269.052C971.241 267.816 971.949 267.252 972.909 267.252C973.761 267.252 974.409 267.732 974.409 269.016L974.409 273L975.909 273L975.909 269.052C975.909 267.816 976.533 267.252 977.385 267.252ZM988.468 265.896C986.596 265.896 985.048 267.264 985.048 269.532C985.048 271.8 986.596 273.18 988.468 273.18C990.34 273.18 991.888 271.8 991.888 269.532C991.888 267.264 990.34 265.896 988.468 265.896ZM988.468 267.192C989.5 267.192 990.376 267.948 990.376 269.532C990.376 271.116 989.5 271.884 988.468 271.884C987.436 271.884 986.56 271.116 986.56 269.532C986.56 267.948 987.436 267.192 988.468 267.192ZM996.69 267.516C997.062 267.516 997.326 267.564 997.59 267.672L997.734 265.992C997.59 265.92 997.386 265.896 997.206 265.896C996.522 265.896 995.442 266.292 994.878 267.744L994.878 266.088L993.378 266.088L993.378 273L994.878 273L994.878 269.976C994.878 268.056 995.718 267.516 996.69 267.516ZM1005.35 263.7L1003.85 263.7L1003.85 267.444C1003.36 266.352 1002.62 265.896 1001.68 265.896C1000.07 265.896 998.478 267.06 998.478 269.472C998.478 272.004 1000.09 273.18 1001.49 273.18C1002.75 273.18 1003.51 272.52 1003.85 271.692L1003.85 273L1005.35 273L1005.35 263.7ZM1001.93 267.192C1002.94 267.192 1003.85 267.996 1003.85 269.556C1003.85 271.164 1002.94 271.872 1001.92 271.872C1000.97 271.872 999.99 271.128 999.99 269.556C999.99 267.96 1000.99 267.192 1001.93 267.192ZM1010.31 267.192C1011.28 267.192 1012.05 267.648 1012.17 268.8L1008.42 268.8C1008.62 267.732 1009.32 267.192 1010.31 267.192ZM1013.59 269.868L1013.59 269.376C1013.59 267.336 1012.24 265.896 1010.37 265.896C1008.37 265.896 1006.84 267.3 1006.84 269.52C1006.84 271.8 1008.43 273.18 1010.47 273.18C1011.74 273.18 1013.28 272.448 1013.54 270.852L1012.15 270.612C1011.99 271.404 1011.54 271.884 1010.41 271.884C1009.16 271.884 1008.48 271.08 1008.37 269.868L1013.59 269.868ZM1018.38 267.516C1018.75 267.516 1019.02 267.564 1019.28 267.672L1019.43 265.992C1019.28 265.92 1019.08 265.896 1018.9 265.896C1018.21 265.896 1017.13 266.292 1016.57 267.744L1016.57 266.088L1015.07 266.088L1015.07 273L1016.57 273L1016.57 269.976C1016.57 268.056 1017.41 267.516 1018.38 267.516ZM933.956 293.18C935.192 293.18 935.948 292.424 936.296 291.572L936.296 293L937.796 293L937.796 286.088L936.296 286.088L936.296 287.444C935.804 286.352 935.048 285.896 933.968 285.896C932.516 285.896 930.92 287.06 930.92 289.472C930.92 292.004 932.528 293.18 933.956 293.18ZM934.376 287.192C935.384 287.192 936.296 287.96 936.296 289.556C936.296 291.2 935.384 291.872 934.364 291.872C933.416 291.872 932.432 291.164 932.432 289.556C932.432 287.924 933.428 287.192 934.376 287.192ZM942.922 287.252C943.738 287.252 944.386 287.732 944.386 289.016L944.386 293L945.886 293L945.886 288.368C945.886 286.508 944.71 285.896 943.474 285.896C942.658 285.896 941.71 286.232 941.218 287.108L941.218 286.088L939.718 286.088L939.718 293L941.218 293L941.218 289.052C941.218 287.816 941.926 287.252 942.922 287.252ZM954.237 283.7L952.737 283.7L952.737 287.444C952.245 286.352 951.501 285.896 950.565 285.896C948.957 285.896 947.361 287.06 947.361 289.472C947.361 292.004 948.969 293.18 950.373 293.18C951.633 293.18 952.389 292.52 952.737 291.692L952.737 293L954.237 293L954.237 283.7ZM950.817 287.192C951.825 287.192 952.737 287.996 952.737 289.556C952.737 291.164 951.825 291.872 950.805 291.872C949.857 291.872 948.873 291.128 948.873 289.556C948.873 287.96 949.869 287.192 950.817 287.192ZM959.25 288.032C959.25 288.992 959.802 289.7 960.978 289.952L962.238 290.228C963.102 290.42 963.342 290.672 963.342 291.08C963.342 291.656 962.778 291.98 961.95 291.98C960.978 291.98 960.342 291.524 960.246 290.672L958.914 290.912C959.142 292.52 960.642 293.18 961.986 293.18C963.318 293.18 964.734 292.436 964.734 290.936C964.734 289.976 964.17 289.328 962.946 289.064L961.578 288.764C960.882 288.608 960.642 288.272 960.642 287.912C960.642 287.408 961.122 287.096 961.806 287.096C962.634 287.096 963.246 287.396 963.294 288.296L964.626 288.056C964.23 286.508 963.186 285.896 961.794 285.896C960.666 285.896 959.25 286.52 959.25 288.032ZM969.238 287.192C970.21 287.192 970.978 287.648 971.098 288.8L967.342 288.8C967.546 287.732 968.242 287.192 969.238 287.192ZM972.514 289.868L972.514 289.376C972.514 287.336 971.17 285.896 969.298 285.896C967.294 285.896 965.77 287.3 965.77 289.52C965.77 291.8 967.354 293.18 969.394 293.18C970.666 293.18 972.202 292.448 972.466 290.852L971.074 290.612C970.918 291.404 970.462 291.884 969.334 291.884C968.086 291.884 967.402 291.08 967.294 289.868L972.514 289.868ZM977.199 287.252C978.015 287.252 978.663 287.732 978.663 289.016L978.663 293L980.163 293L980.163 288.368C980.163 286.508 978.987 285.896 977.751 285.896C976.935 285.896 975.987 286.232 975.495 287.108L975.495 286.088L973.995 286.088L973.995 293L975.495 293L975.495 289.052C975.495 287.816 976.203 287.252 977.199 287.252ZM988.514 283.7L987.014 283.7L987.014 287.444C986.522 286.352 985.778 285.896 984.842 285.896C983.234 285.896 981.638 287.06 981.638 289.472C981.638 292.004 983.246 293.18 984.65 293.18C985.91 293.18 986.666 292.52 987.014 291.692L987.014 293L988.514 293L988.514 283.7ZM985.094 287.192C986.102 287.192 987.014 287.996 987.014 289.556C987.014 291.164 986.102 291.872 985.082 291.872C984.134 291.872 983.15 291.128 983.15 289.556C983.15 287.96 984.146 287.192 985.094 287.192ZM993.671 286.088L993.671 293L995.171 293L995.171 286.088L993.671 286.088ZM994.415 283.1C993.911 283.1 993.515 283.508 993.515 284C993.515 284.492 993.911 284.9 994.415 284.9C994.919 284.9 995.315 284.492 995.315 284C995.315 283.508 994.919 283.1 994.415 283.1ZM997.621 284.42L997.621 286.088L996.337 286.088L996.337 287.3L997.621 287.3L997.621 291.056C997.621 292.328 998.257 293.12 999.637 293.12C1000.06 293.12 1000.55 293.012 1000.91 292.904L1000.67 291.692C1000.39 291.764 1000.22 291.8 999.949 291.8C999.337 291.8 999.121 291.524 999.121 290.984L999.121 287.3L1000.85 287.3L1000.85 286.088L999.121 286.088L999.121 284.18L997.621 284.42ZM1005.36 287.192C1006.33 287.192 1007.1 287.648 1007.22 288.8L1003.46 288.8C1003.66 287.732 1004.36 287.192 1005.36 287.192ZM1008.63 289.868L1008.63 289.376C1008.63 287.336 1007.29 285.896 1005.42 285.896C1003.41 285.896 1001.89 287.3 1001.89 289.52C1001.89 291.8 1003.47 293.18 1005.51 293.18C1006.78 293.18 1008.32 292.448 1008.58 290.852L1007.19 290.612C1007.04 291.404 1006.58 291.884 1005.45 291.884C1004.2 291.884 1003.52 291.08 1003.41 289.868L1008.63 289.868ZM1017.76 287.252C1018.61 287.252 1019.26 287.732 1019.26 289.016L1019.26 293L1020.76 293L1020.76 288.368C1020.76 286.508 1019.62 285.896 1018.36 285.896C1017.59 285.896 1016.62 286.208 1016.1 287.24C1015.73 286.256 1014.85 285.896 1013.93 285.896C1013.1 285.896 1012.1 286.22 1011.61 287.108L1011.61 286.088L1010.11 286.088L1010.11 293L1011.61 293L1011.61 289.052C1011.61 287.816 1012.32 287.252 1013.28 287.252C1014.13 287.252 1014.78 287.732 1014.78 289.016L1014.78 293L1016.28 293L1016.28 289.052C1016.28 287.816 1016.9 287.252 1017.76 287.252Z" fill="#FF5B24"/>
<path d="M1104.3 273L1107.17 264L1105.44 264L1103.6 270.756L1101.73 264L1100.18 264L1098.37 270.9L1096.48 264L1094.75 264L1097.62 273L1099.2 273L1100.96 266.556L1102.84 273L1104.3 273ZM1108.53 266.088L1108.53 273L1110.03 273L1110.03 266.088L1108.53 266.088ZM1109.28 263.1C1108.77 263.1 1108.38 263.508 1108.38 264C1108.38 264.492 1108.77 264.9 1109.28 264.9C1109.78 264.9 1110.18 264.492 1110.18 264C1110.18 263.508 1109.78 263.1 1109.28 263.1ZM1112.48 264.42L1112.48 266.088L1111.2 266.088L1111.2 267.3L1112.48 267.3L1112.48 271.056C1112.48 272.328 1113.12 273.12 1114.5 273.12C1114.92 273.12 1115.41 273.012 1115.77 272.904L1115.53 271.692C1115.26 271.764 1115.09 271.8 1114.81 271.8C1114.2 271.8 1113.98 271.524 1113.98 270.984L1113.98 267.3L1115.71 267.3L1115.71 266.088L1113.98 266.088L1113.98 264.18L1112.48 264.42ZM1117.18 263.7L1117.18 273L1118.68 273L1118.68 269.052C1118.68 267.816 1119.39 267.252 1120.4 267.252C1121.2 267.252 1121.85 267.732 1121.85 269.016L1121.85 273L1123.35 273L1123.35 268.368C1123.35 266.508 1122.21 265.896 1120.89 265.896C1120.16 265.896 1119.17 266.22 1118.68 267.108L1118.68 263.7L1117.18 263.7ZM1131.7 263.7L1130.2 263.7L1130.2 267.444C1129.71 266.352 1128.97 265.896 1128.03 265.896C1126.42 265.896 1124.83 267.06 1124.83 269.472C1124.83 272.004 1126.43 273.18 1127.84 273.18C1129.1 273.18 1129.85 272.52 1130.2 271.692L1130.2 273L1131.7 273L1131.7 263.7ZM1128.28 267.192C1129.29 267.192 1130.2 267.996 1130.2 269.556C1130.2 271.164 1129.29 271.872 1128.27 271.872C1127.32 271.872 1126.34 271.128 1126.34 269.556C1126.34 267.96 1127.33 267.192 1128.28 267.192ZM1136.94 267.516C1137.31 267.516 1137.57 267.564 1137.84 267.672L1137.98 265.992C1137.84 265.92 1137.63 265.896 1137.45 265.896C1136.77 265.896 1135.69 266.292 1135.12 267.744L1135.12 266.088L1133.62 266.088L1133.62 273L1135.12 273L1135.12 269.976C1135.12 268.056 1135.96 267.516 1136.94 267.516ZM1141.76 273.18C1143 273.18 1143.75 272.424 1144.1 271.572L1144.1 273L1145.6 273L1145.6 266.088L1144.1 266.088L1144.1 267.444C1143.61 266.352 1142.85 265.896 1141.77 265.896C1140.32 265.896 1138.72 267.06 1138.72 269.472C1138.72 272.004 1140.33 273.18 1141.76 273.18ZM1142.18 267.192C1143.19 267.192 1144.1 267.96 1144.1 269.556C1144.1 271.2 1143.19 271.872 1142.17 271.872C1141.22 271.872 1140.24 271.164 1140.24 269.556C1140.24 267.924 1141.23 267.192 1142.18 267.192ZM1157.48 266.088L1155.81 266.088L1154.34 271.128L1152.67 266.088L1151.55 266.088L1149.9 271.104L1148.41 266.088L1146.74 266.088L1149.23 273L1150.52 273L1152.12 268.632L1153.7 273L1155 273L1157.48 266.088ZM1165.69 265.896C1164.52 265.896 1163.8 266.64 1163.35 267.444L1163.35 266.088L1161.85 266.088L1161.85 275.4L1163.35 275.4L1163.35 271.692C1163.93 272.676 1164.67 273.18 1165.55 273.18C1167.16 273.18 1168.73 271.956 1168.73 269.436C1168.73 267.024 1167.1 265.896 1165.69 265.896ZM1165.29 267.192C1166.23 267.192 1167.22 267.948 1167.22 269.52C1167.22 271.116 1166.23 271.872 1165.27 271.872C1164.27 271.872 1163.35 271.056 1163.35 269.52C1163.35 267.912 1164.27 267.192 1165.29 267.192ZM1172.92 273.18C1174.16 273.18 1174.91 272.424 1175.26 271.572L1175.26 273L1176.76 273L1176.76 266.088L1175.26 266.088L1175.26 267.444C1174.77 266.352 1174.01 265.896 1172.93 265.896C1171.48 265.896 1169.88 267.06 1169.88 269.472C1169.88 272.004 1171.49 273.18 1172.92 273.18ZM1173.34 267.192C1174.35 267.192 1175.26 267.96 1175.26 269.556C1175.26 271.2 1174.35 271.872 1173.33 271.872C1172.38 271.872 1171.4 271.164 1171.4 269.556C1171.4 267.924 1172.39 267.192 1173.34 267.192ZM1179.29 275.4C1180.64 275.4 1181.5 274.692 1182.04 273.288L1184.8 266.088L1183.13 266.088L1181.39 271.488L1179.57 266.088L1177.9 266.088L1180.45 272.472C1180.79 273.348 1180.47 274.152 1179.44 274.152C1178.9 274.152 1178.56 273.984 1178.35 273.852L1178.11 275.148C1178.43 275.304 1178.84 275.4 1179.29 275.4ZM1193.59 267.252C1194.44 267.252 1195.09 267.732 1195.09 269.016L1195.09 273L1196.59 273L1196.59 268.368C1196.59 266.508 1195.45 265.896 1194.19 265.896C1193.42 265.896 1192.45 266.208 1191.94 267.24C1191.56 266.256 1190.69 265.896 1189.76 265.896C1188.94 265.896 1187.94 266.22 1187.45 267.108L1187.45 266.088L1185.95 266.088L1185.95 273L1187.45 273L1187.45 269.052C1187.45 267.816 1188.16 267.252 1189.12 267.252C1189.97 267.252 1190.62 267.732 1190.62 269.016L1190.62 273L1192.12 273L1192.12 269.052C1192.12 267.816 1192.74 267.252 1193.59 267.252ZM1201.49 267.192C1202.46 267.192 1203.23 267.648 1203.35 268.8L1199.59 268.8C1199.8 267.732 1200.49 267.192 1201.49 267.192ZM1204.76 269.868L1204.76 269.376C1204.76 267.336 1203.42 265.896 1201.55 265.896C1199.54 265.896 1198.02 267.3 1198.02 269.52C1198.02 271.8 1199.6 273.18 1201.64 273.18C1202.92 273.18 1204.45 272.448 1204.72 270.852L1203.32 270.612C1203.17 271.404 1202.71 271.884 1201.58 271.884C1200.34 271.884 1199.65 271.08 1199.54 269.868L1204.76 269.868ZM1209.45 267.252C1210.27 267.252 1210.91 267.732 1210.91 269.016L1210.91 273L1212.41 273L1212.41 268.368C1212.41 266.508 1211.24 265.896 1210 265.896C1209.19 265.896 1208.24 266.232 1207.75 267.108L1207.75 266.088L1206.25 266.088L1206.25 273L1207.75 273L1207.75 269.052C1207.75 267.816 1208.45 267.252 1209.45 267.252ZM1214.8 264.42L1214.8 266.088L1213.52 266.088L1213.52 267.3L1214.8 267.3L1214.8 271.056C1214.8 272.328 1215.44 273.12 1216.82 273.12C1217.24 273.12 1217.73 273.012 1218.09 272.904L1217.85 271.692C1217.57 271.764 1217.4 271.8 1217.13 271.8C1216.52 271.8 1216.3 271.524 1216.3 270.984L1216.3 267.3L1218.03 267.3L1218.03 266.088L1216.3 266.088L1216.3 264.18L1214.8 264.42Z" fill="#FF5B24"/>
<path d="M590.452 371.216C590.092 369.008 588.196 367.82 586.312 367.82C583.744 367.82 581.62 369.68 581.62 372.44C581.62 375.392 583.768 377.18 586.348 377.18C588.088 377.18 590.26 376.016 590.524 373.544L588.904 373.304C588.772 375.092 587.548 375.644 586.348 375.644C584.644 375.644 583.312 374.672 583.312 372.44C583.312 370.412 584.644 369.356 586.252 369.356C587.356 369.356 588.568 369.812 588.832 371.456L590.452 371.216ZM594.733 377.18C595.969 377.18 596.725 376.424 597.073 375.572L597.073 377L598.573 377L598.573 370.088L597.073 370.088L597.073 371.444C596.581 370.352 595.825 369.896 594.745 369.896C593.293 369.896 591.697 371.06 591.697 373.472C591.697 376.004 593.305 377.18 594.733 377.18ZM595.153 371.192C596.161 371.192 597.073 371.96 597.073 373.556C597.073 375.2 596.161 375.872 595.141 375.872C594.193 375.872 593.209 375.164 593.209 373.556C593.209 371.924 594.205 371.192 595.153 371.192ZM603.699 371.252C604.515 371.252 605.163 371.732 605.163 373.016L605.163 377L606.663 377L606.663 372.368C606.663 370.508 605.487 369.896 604.251 369.896C603.435 369.896 602.487 370.232 601.995 371.108L601.995 370.088L600.495 370.088L600.495 377L601.995 377L601.995 373.052C601.995 371.816 602.703 371.252 603.699 371.252ZM614.906 372.776C614.654 370.916 613.178 369.896 611.57 369.896C609.59 369.896 608.09 371.3 608.09 373.532C608.09 375.668 609.566 377.18 611.678 377.18C613.01 377.18 614.57 376.448 614.894 374.336L613.526 374.096C613.37 375.272 612.722 375.872 611.666 375.872C610.262 375.872 609.602 374.804 609.602 373.532C609.602 371.996 610.442 371.192 611.498 371.192C612.458 371.192 613.262 371.708 613.43 373.016L614.906 372.776ZM619.351 371.192C620.323 371.192 621.091 371.648 621.211 372.8L617.455 372.8C617.659 371.732 618.355 371.192 619.351 371.192ZM622.627 373.868L622.627 373.376C622.627 371.336 621.283 369.896 619.411 369.896C617.407 369.896 615.883 371.3 615.883 373.52C615.883 375.8 617.467 377.18 619.507 377.18C620.779 377.18 622.315 376.448 622.579 374.852L621.187 374.612C621.031 375.404 620.575 375.884 619.447 375.884C618.199 375.884 617.515 375.08 617.407 373.868L622.627 373.868ZM624.108 367.7L624.108 377L625.608 377L625.608 367.7L624.108 367.7ZM627.53 367.7L627.53 377L629.03 377L629.03 367.7L627.53 367.7ZM633.604 377.18C634.84 377.18 635.596 376.424 635.944 375.572L635.944 377L637.444 377L637.444 370.088L635.944 370.088L635.944 371.444C635.452 370.352 634.696 369.896 633.616 369.896C632.164 369.896 630.568 371.06 630.568 373.472C630.568 376.004 632.176 377.18 633.604 377.18ZM634.024 371.192C635.032 371.192 635.944 371.96 635.944 373.556C635.944 375.2 635.032 375.872 634.012 375.872C633.064 375.872 632.08 375.164 632.08 373.556C632.08 371.924 633.076 371.192 634.024 371.192ZM639.894 368.42L639.894 370.088L638.61 370.088L638.61 371.3L639.894 371.3L639.894 375.056C639.894 376.328 640.53 377.12 641.91 377.12C642.33 377.12 642.822 377.012 643.182 376.904L642.942 375.692C642.666 375.764 642.498 375.8 642.222 375.8C641.61 375.8 641.394 375.524 641.394 374.984L641.394 371.3L643.122 371.3L643.122 370.088L641.394 370.088L641.394 368.18L639.894 368.42ZM644.593 370.088L644.593 377L646.093 377L646.093 370.088L644.593 370.088ZM645.337 367.1C644.833 367.1 644.437 367.508 644.437 368C644.437 368.492 644.833 368.9 645.337 368.9C645.841 368.9 646.237 368.492 646.237 368C646.237 367.508 645.841 367.1 645.337 367.1ZM651.003 369.896C649.131 369.896 647.583 371.264 647.583 373.532C647.583 375.8 649.131 377.18 651.003 377.18C652.875 377.18 654.423 375.8 654.423 373.532C654.423 371.264 652.875 369.896 651.003 369.896ZM651.003 371.192C652.035 371.192 652.911 371.948 652.911 373.532C652.911 375.116 652.035 375.884 651.003 375.884C649.971 375.884 649.095 375.116 649.095 373.532C649.095 371.948 649.971 371.192 651.003 371.192ZM659.117 371.252C659.933 371.252 660.581 371.732 660.581 373.016L660.581 377L662.081 377L662.081 372.368C662.081 370.508 660.905 369.896 659.669 369.896C658.853 369.896 657.905 370.232 657.413 371.108L657.413 370.088L655.913 370.088L655.913 377L657.413 377L657.413 373.052C657.413 371.816 658.121 371.252 659.117 371.252ZM589.221 389.896C587.349 389.896 585.801 391.264 585.801 393.532C585.801 395.8 587.349 397.18 589.221 397.18C591.093 397.18 592.641 395.8 592.641 393.532C592.641 391.264 591.093 389.896 589.221 389.896ZM589.221 391.192C590.253 391.192 591.129 391.948 591.129 393.532C591.129 395.116 590.253 395.884 589.221 395.884C588.189 395.884 587.313 395.116 587.313 393.532C587.313 391.948 588.189 391.192 589.221 391.192ZM594.528 397L596.028 397L596.028 391.3L597.744 391.3L597.744 390.088L596.028 390.088L596.028 389.812C596.028 389.104 596.364 388.732 596.976 388.732C597.3 388.732 597.576 388.78 597.864 388.864L598.068 387.7C597.732 387.58 597.324 387.472 596.82 387.472C595.44 387.472 594.528 388.36 594.528 389.824L594.528 390.088L593.58 390.088L593.58 391.3L594.528 391.3L594.528 397ZM605.882 389.896C604.706 389.896 603.986 390.64 603.542 391.444L603.542 390.088L602.042 390.088L602.042 399.4L603.542 399.4L603.542 395.692C604.118 396.676 604.862 397.18 605.738 397.18C607.346 397.18 608.918 395.956 608.918 393.436C608.918 391.024 607.286 389.896 605.882 389.896ZM605.474 391.192C606.422 391.192 607.406 391.948 607.406 393.52C607.406 395.116 606.422 395.872 605.462 395.872C604.454 395.872 603.542 395.056 603.542 393.52C603.542 391.912 604.454 391.192 605.474 391.192ZM613.108 397.18C614.344 397.18 615.1 396.424 615.448 395.572L615.448 397L616.948 397L616.948 390.088L615.448 390.088L615.448 391.444C614.956 390.352 614.2 389.896 613.12 389.896C611.668 389.896 610.072 391.06 610.072 393.472C610.072 396.004 611.68 397.18 613.108 397.18ZM613.528 391.192C614.536 391.192 615.448 391.96 615.448 393.556C615.448 395.2 614.536 395.872 613.516 395.872C612.568 395.872 611.584 395.164 611.584 393.556C611.584 391.924 612.58 391.192 613.528 391.192ZM619.482 399.4C620.826 399.4 621.69 398.692 622.23 397.288L624.99 390.088L623.322 390.088L621.582 395.488L619.758 390.088L618.09 390.088L620.634 396.472C620.982 397.348 620.658 398.152 619.626 398.152C619.086 398.152 618.75 397.984 618.534 397.852L618.294 399.148C618.618 399.304 619.026 399.4 619.482 399.4ZM633.78 391.252C634.632 391.252 635.28 391.732 635.28 393.016L635.28 397L636.78 397L636.78 392.368C636.78 390.508 635.64 389.896 634.38 389.896C633.612 389.896 632.64 390.208 632.124 391.24C631.752 390.256 630.876 389.896 629.952 389.896C629.124 389.896 628.128 390.22 627.636 391.108L627.636 390.088L626.136 390.088L626.136 397L627.636 397L627.636 393.052C627.636 391.816 628.344 391.252 629.304 391.252C630.156 391.252 630.804 391.732 630.804 393.016L630.804 397L632.304 397L632.304 393.052C632.304 391.816 632.928 391.252 633.78 391.252ZM641.676 391.192C642.648 391.192 643.416 391.648 643.536 392.8L639.78 392.8C639.984 391.732 640.68 391.192 641.676 391.192ZM644.952 393.868L644.952 393.376C644.952 391.336 643.608 389.896 641.736 389.896C639.732 389.896 638.208 391.3 638.208 393.52C638.208 395.8 639.792 397.18 641.832 397.18C643.104 397.18 644.64 396.448 644.904 394.852L643.512 394.612C643.356 395.404 642.9 395.884 641.772 395.884C640.524 395.884 639.84 395.08 639.732 393.868L644.952 393.868ZM649.637 391.252C650.453 391.252 651.101 391.732 651.101 393.016L651.101 397L652.601 397L652.601 392.368C652.601 390.508 651.425 389.896 650.189 389.896C649.373 389.896 648.425 390.232 647.933 391.108L647.933 390.088L646.433 390.088L646.433 397L647.933 397L647.933 393.052C647.933 391.816 648.641 391.252 649.637 391.252ZM654.988 388.42L654.988 390.088L653.704 390.088L653.704 391.3L654.988 391.3L654.988 395.056C654.988 396.328 655.624 397.12 657.004 397.12C657.424 397.12 657.916 397.012 658.276 396.904L658.036 395.692C657.76 395.764 657.592 395.8 657.316 395.8C656.704 395.8 656.488 395.524 656.488 394.984L656.488 391.3L658.216 391.3L658.216 390.088L656.488 390.088L656.488 388.18L654.988 388.42Z" fill="#4D3280"/>
<path d="M1312.14 388L1312.14 397L1313.72 397L1313.72 393.568L1314.86 393.568C1315.83 393.568 1316.39 393.952 1316.54 394.78L1316.78 396.172C1316.85 396.616 1317.05 396.856 1317.29 397L1319.19 397C1318.85 396.796 1318.59 396.436 1318.48 396.016L1318.11 394.564C1317.89 393.712 1317.48 393.316 1316.9 393.076C1317.72 392.596 1318.36 391.768 1318.36 390.724C1318.36 389.044 1317.23 388 1315.26 388L1312.14 388ZM1315.23 389.404C1316.07 389.404 1316.68 389.896 1316.68 390.796C1316.68 391.588 1316.13 392.164 1315.24 392.164L1313.72 392.164L1313.72 389.404L1315.23 389.404ZM1322.97 391.192C1323.94 391.192 1324.71 391.648 1324.83 392.8L1321.07 392.8C1321.28 391.732 1321.97 391.192 1322.97 391.192ZM1326.25 393.868L1326.25 393.376C1326.25 391.336 1324.9 389.896 1323.03 389.896C1321.03 389.896 1319.5 391.3 1319.5 393.52C1319.5 395.8 1321.09 397.18 1323.13 397.18C1324.4 397.18 1325.93 396.448 1326.2 394.852L1324.81 394.612C1324.65 395.404 1324.19 395.884 1323.07 395.884C1321.82 395.884 1321.13 395.08 1321.03 393.868L1326.25 393.868ZM1328.12 397L1329.62 397L1329.62 391.3L1331.34 391.3L1331.34 390.088L1329.62 390.088L1329.62 389.812C1329.62 389.104 1329.96 388.732 1330.57 388.732C1330.9 388.732 1331.17 388.78 1331.46 388.864L1331.66 387.7C1331.33 387.58 1330.92 387.472 1330.42 387.472C1329.04 387.472 1328.12 388.36 1328.12 389.824L1328.12 390.088L1327.18 390.088L1327.18 391.3L1328.12 391.3L1328.12 397ZM1338.54 397L1338.54 390.088L1337.04 390.088L1337.04 394.108C1337.04 395.284 1336.26 395.824 1335.25 395.824C1334.32 395.824 1333.87 395.416 1333.87 394.348L1333.87 390.088L1332.37 390.088L1332.37 394.912C1332.37 396.508 1333.52 397.18 1334.67 397.18C1335.54 397.18 1336.5 396.784 1337.04 395.836L1337.04 397L1338.54 397ZM1343.63 391.252C1344.45 391.252 1345.1 391.732 1345.1 393.016L1345.1 397L1346.6 397L1346.6 392.368C1346.6 390.508 1345.42 389.896 1344.19 389.896C1343.37 389.896 1342.42 390.232 1341.93 391.108L1341.93 390.088L1340.43 390.088L1340.43 397L1341.93 397L1341.93 393.052C1341.93 391.816 1342.64 391.252 1343.63 391.252ZM1354.95 387.7L1353.45 387.7L1353.45 391.444C1352.96 390.352 1352.21 389.896 1351.28 389.896C1349.67 389.896 1348.07 391.06 1348.07 393.472C1348.07 396.004 1349.68 397.18 1351.09 397.18C1352.35 397.18 1353.1 396.52 1353.45 395.692L1353.45 397L1354.95 397L1354.95 387.7ZM1351.53 391.192C1352.54 391.192 1353.45 391.996 1353.45 393.556C1353.45 395.164 1352.54 395.872 1351.52 395.872C1350.57 395.872 1349.59 395.128 1349.59 393.556C1349.59 391.96 1350.58 391.192 1351.53 391.192Z" fill="#4D3280"/>
<circle cx="266" cy="172" r="10" transform="rotate(-90 266 172)" fill="white" stroke="#FF5B24" stroke-width="4"/>
<circle cx="622" cy="297" r="10" transform="rotate(-90 622 297)" fill="white" stroke="#49367E" stroke-width="4"/>
<path d="M133.5 163C139.377 163 144 167.553 144 173C144 178.447 139.377 183 133.5 183C127.623 183 123 178.447 123 173C123 167.553 127.623 163 133.5 163Z" fill="white" stroke="#FF5B24" stroke-width="4"/>
<path d="M498.833 173.057C498.833 203.884 473.844 228.873 443.016 228.873C412.189 228.873 387.199 203.884 387.199 173.057C387.199 142.23 412.189 117.24 443.016 117.24C473.844 117.24 498.833 142.23 498.833 173.057Z" fill="#EEEDF3"/>
<path d="M447.604 187.161H378.431C376.431 187.161 374.81 185.54 374.81 183.54V129.256C374.81 127.256 376.431 125.635 378.431 125.635H447.604C449.604 125.635 451.225 127.256 451.225 129.256V183.54C451.225 185.54 449.604 187.161 447.604 187.161Z" fill="#C8C5D6"/>
<path d="M447.474 125.635H378.561C376.489 125.635 374.81 127.314 374.81 129.386V134.666H451.225V129.386C451.225 127.314 449.546 125.635 447.474 125.635Z" fill="#48367D"/>
<path d="M384.193 130.186C384.193 131.222 383.355 132.061 382.319 132.061C381.283 132.061 380.443 131.222 380.443 130.186C380.443 129.151 381.283 128.311 382.319 128.311C383.355 128.311 384.193 129.151 384.193 130.186Z" fill="white"/>
<path d="M390.347 130.151C390.347 131.186 389.507 132.026 388.472 132.026C387.436 132.026 386.597 131.186 386.597 130.151C386.597 129.115 387.436 128.276 388.472 128.276C389.507 128.276 390.347 129.115 390.347 130.151Z" fill="white"/>
<path d="M396.599 130.151C396.599 131.186 395.76 132.026 394.725 132.026C393.689 132.026 392.849 131.186 392.849 130.151C392.849 129.115 393.689 128.276 394.725 128.276C395.76 128.276 396.599 129.115 396.599 130.151Z" fill="white"/>
<g filter="url(#filter0_d)">
<rect x="388.106" y="153.336" width="49.98" height="16.15" rx="1.19" fill="#FF5B24"/>
</g>
<path d="M403.699 159.316V164.416H405.501C406.576 164.416 407.249 163.757 407.249 162.92C407.249 162.451 407.004 161.955 406.365 161.73C406.814 161.485 407.031 161.043 407.031 160.69C407.031 159.853 406.453 159.316 405.406 159.316H403.699ZM404.685 162.22H405.467C405.964 162.22 406.29 162.505 406.29 162.879C406.29 163.335 405.943 163.519 405.474 163.519H404.685V162.22ZM404.685 160.214H405.392C405.848 160.214 406.1 160.445 406.1 160.839C406.1 161.22 405.807 161.458 405.392 161.458H404.685V160.214ZM409.635 161.193C410.091 161.193 410.465 161.411 410.546 161.975H408.717C408.833 161.431 409.166 161.193 409.635 161.193ZM411.464 162.662V162.363C411.464 161.207 410.716 160.391 409.669 160.391C408.554 160.391 407.711 161.186 407.711 162.444C407.711 163.736 408.608 164.518 409.764 164.518C410.485 164.518 411.355 164.103 411.505 163.199L410.635 163.063C410.56 163.437 410.322 163.675 409.73 163.675C409.105 163.675 408.751 163.274 408.69 162.662H411.464ZM412.505 159.554V160.499H411.831V161.295H412.505V163.437C412.505 164.022 412.756 164.484 413.565 164.484C413.905 164.484 414.273 164.389 414.504 164.287L414.368 163.546C414.184 163.587 414.021 163.614 413.844 163.614C413.552 163.614 413.463 163.471 413.463 163.192V161.295H414.429V160.499H413.463V159.418L412.505 159.554ZM416.522 164.518C417.134 164.518 417.549 164.233 417.821 163.865V164.416H418.78V160.499H417.821V161.003C417.501 160.567 417.1 160.391 416.631 160.391C415.754 160.391 414.883 161.05 414.883 162.417C414.883 163.852 415.76 164.518 416.522 164.518ZM416.842 161.234C417.358 161.234 417.821 161.635 417.821 162.465C417.821 163.321 417.358 163.668 416.835 163.668C416.352 163.668 415.849 163.301 415.849 162.465C415.849 161.615 416.359 161.234 416.842 161.234ZM419.703 159.146V164.416H420.655V159.146H419.703Z" fill="white"/>
<path d="M480.646 213.018L480.893 211.565L483.76 189.055L470.189 178.902L451.083 184.33L452.857 213.798C461.845 215.956 470.755 215.638 480.646 213.018Z" fill="#FFD3BA"/>
<path d="M455.79 195.988C454.244 194.718 453.566 192.577 454.25 190.572C456.449 184.133 456.744 180.446 456.858 177.221C456.956 174.493 459.245 172.36 461.973 172.457C464.7 172.554 466.834 174.843 466.737 177.571C466.571 182.273 465.974 186.827 463.605 193.765C462.723 196.348 459.914 197.728 457.331 196.846C456.754 196.648 456.236 196.354 455.79 195.988Z" fill="#FFD3BA"/>
<path d="M465.377 194.614C463.786 193.306 463.125 191.085 463.891 189.051C465.212 185.546 465.798 182.311 465.631 179.433C465.474 176.707 467.556 174.371 470.281 174.214C473.006 174.056 475.343 176.137 475.5 178.862C475.746 183.129 474.953 187.731 473.14 192.538C472.178 195.092 469.327 196.382 466.773 195.42C466.253 195.224 465.784 194.948 465.377 194.614Z" fill="#FFD3BA"/>
<path d="M475.68 196.915C473.91 195.862 472.921 193.766 473.372 191.64C474.151 187.976 474.243 184.689 473.646 181.868C473.08 179.198 474.786 176.574 477.456 176.008C480.126 175.442 482.75 177.148 483.315 179.819C484.202 184 484.11 188.668 483.042 193.693C482.475 196.363 479.851 198.068 477.181 197.501C476.637 197.385 476.133 197.184 475.68 196.915Z" fill="#FFD3BA"/>
<path d="M451.957 227.259C450.624 217.368 447.303 214.119 446.816 213.466C446.354 212.847 442.025 207.971 440.429 205.069C438.451 201.473 436.12 196.343 438.14 192.15C440.12 188.043 445.067 188.866 448.909 185.798L457.141 182.791C460.412 182.23 463.517 184.427 464.079 187.697C464.639 190.968 462.442 194.074 459.172 194.635L457.549 196.379C456.955 196.621 457.461 198.297 457.615 198.998C458.555 200.676 455.244 203.799 456.779 205.856C458.763 208.515 458.216 212.28 455.556 214.265C453.55 215.762 452.272 229.595 451.957 227.259Z" fill="#FFD3BA"/>
<path fill-rule="evenodd" clip-rule="evenodd" d="M481.205 213.766C473.026 221.441 462.534 226.68 450.886 228.323C450.601 216.253 449.983 205.644 448.734 202.897C445.459 195.699 476.574 205.423 476.574 205.423C476.574 205.423 481.46 193.613 481.205 213.766Z" fill="#FFD3BA"/>
<path d="M439.145 163.861C439.145 163.861 447.376 166.403 450.395 170.537C454.861 176.653 453.486 186.027 449.507 193.019" stroke="#FFD2BA" stroke-width="13.09" stroke-linecap="round" stroke-linejoin="round"/>
<path d="M855.704 172.887C855.704 203.714 830.714 228.704 799.887 228.704C769.06 228.704 744.07 203.714 744.07 172.887C744.07 142.06 769.06 117.07 799.887 117.07C830.714 117.07 855.704 142.06 855.704 172.887Z" fill="#EEEDF3"/>
<path fill-rule="evenodd" clip-rule="evenodd" d="M806.299 228.34C806.289 208.015 806.298 185.601 806.386 180.506C806.734 160.135 826.82 164.475 826.82 164.475L851.183 180.506L851.175 194.948C843.429 212.931 826.503 226.029 806.299 228.34Z" fill="#FFD3BB"/>
<path d="M843.935 186.379L808.598 193.301C805.196 193.967 801.898 191.749 801.232 188.348L787.278 117.11C786.612 113.708 788.83 110.411 792.232 109.744L827.569 102.823C830.971 102.156 834.269 104.374 834.935 107.776L848.888 179.013C849.555 182.415 847.337 185.713 843.935 186.379Z" fill="#FF5A23"/>
<path d="M848.058 174.327L800.401 183.661L788.354 122.156L836.011 112.822L848.058 174.327Z" fill="#FF985F"/>
<path d="M800.458 162.726L787.816 163.709C784.42 163.973 781.454 161.435 781.189 158.039C780.925 154.644 783.464 151.677 786.859 151.414L799.502 150.43C802.897 150.165 805.863 152.704 806.127 156.099C806.392 159.495 803.854 162.461 800.458 162.726Z" fill="#FFD3BB"/>
<path d="M801.511 174.279L788.869 175.262C785.473 175.527 782.507 172.988 782.242 169.593C781.978 166.197 784.516 163.231 787.912 162.966L800.554 161.983C803.95 161.718 806.916 164.257 807.181 167.652C807.445 171.048 804.907 174.015 801.511 174.279Z" fill="#FFD3BB"/>
<path d="M803.635 185.601L790.993 186.585C787.598 186.849 784.63 184.311 784.366 180.916C784.102 177.52 786.641 174.553 790.036 174.289L802.679 173.306C806.074 173.041 809.041 175.58 809.305 178.975C809.569 182.371 807.031 185.338 803.635 185.601Z" fill="#FFD3BB"/>
<path d="M826.74 155.231L813.607 157.803C810.276 158.455 807.017 156.263 806.365 152.933L803.793 139.8C803.141 136.469 805.332 133.21 808.663 132.558L821.796 129.986C825.127 129.334 828.386 131.525 829.038 134.856L831.61 147.989C832.262 151.32 830.071 154.579 826.74 155.231Z" fill="white"/>
<path d="M812.232 146.255L817.855 148.887L824.065 135.444" stroke="#48367D" stroke-width="0.51" stroke-linecap="round" stroke-linejoin="round"/>
<path fill-rule="evenodd" clip-rule="evenodd" d="M848.328 200.638C847.523 200.952 846.651 201.255 845.71 201.533C838.978 203.524 828.928 194.801 828.928 194.801C828.928 194.801 829.212 191.198 829.686 187.311C830.16 183.424 832.625 179.916 833.858 178.778C828.928 177.735 825.42 176.028 822.86 172.615C820.204 169.074 818.309 165.978 817.835 160.479C817.36 154.98 819.352 152.989 821.722 151.851C824.092 150.713 826.178 151.282 828.454 152.42C830.224 153.305 831.271 156.694 831.488 159.152C831.772 162.375 832.499 163.163 833.953 164.556C835.072 165.628 837.461 165.599 839.073 165.409C840.685 165.22 842.147 165.305 844.951 165.978C847.321 166.547 849.692 168.159 851.683 170.814C853.851 173.704 854.574 177.211 855.049 181.469C853.986 188.355 851.665 194.825 848.328 200.638Z" fill="#FFD3BB"/>
<path d="M1033.87 172.887C1033.87 203.714 1008.88 228.704 978.057 228.704C947.23 228.704 922.24 203.714 922.24 172.887C922.24 142.06 947.23 117.07 978.057 117.07C1008.88 117.07 1033.87 142.06 1033.87 172.887Z" fill="#EEEDF3"/>
<path d="M1004.05 198.557H941.549C939.742 198.557 938.277 197.093 938.277 195.286V146.239C938.277 144.432 939.742 142.967 941.549 142.967H1004.05C1005.86 142.967 1007.32 144.432 1007.32 146.239V195.286C1007.32 197.093 1005.86 198.557 1004.05 198.557Z" fill="#C8C5D6"/>
<path d="M1003.93 142.967H941.666C939.794 142.967 938.277 144.484 938.277 146.356V151.127H1007.32V146.356C1007.32 144.484 1005.8 142.967 1003.93 142.967Z" fill="#48367D"/>
<path d="M946.755 147.079C946.755 148.015 945.997 148.773 945.061 148.773C944.126 148.773 943.367 148.015 943.367 147.079C943.367 146.143 944.126 145.385 945.061 145.385C945.997 145.385 946.755 146.143 946.755 147.079Z" fill="white"/>
<path d="M952.315 147.047C952.315 147.982 951.557 148.741 950.622 148.741C949.685 148.741 948.927 147.982 948.927 147.047C948.927 146.111 949.685 145.353 950.622 145.353C951.557 145.353 952.315 146.111 952.315 147.047Z" fill="white"/>
<path d="M957.965 147.047C957.965 147.982 957.206 148.741 956.271 148.741C955.335 148.741 954.576 147.982 954.576 147.047C954.576 146.111 955.335 145.353 956.271 145.353C957.206 145.353 957.965 146.111 957.965 147.047Z" fill="white"/>
<path d="M979.605 182.135H967.514C964.447 182.135 961.938 179.626 961.938 176.559V164.468C961.938 161.402 964.447 158.892 967.514 158.892H979.605C982.672 158.892 985.181 161.402 985.181 164.468V176.559C985.181 179.626 982.672 182.135 979.605 182.135Z" fill="white"/>
<path d="M968.3 171.658L972.829 174.968L980.669 164.126" stroke="#48367D" stroke-width="0.460798" stroke-linecap="round" stroke-linejoin="round"/>
<path fill-rule="evenodd" clip-rule="evenodd" d="M991.587 177.137C990.499 177.137 989.617 178.019 989.617 179.107V211.658C989.617 212.746 990.499 213.628 991.587 213.628H1026.34C1026.38 213.628 1026.41 213.627 1026.44 213.626C1026.49 213.627 1026.53 213.628 1026.57 213.628H1043.85C1046.19 213.628 1048.1 211.725 1048.1 209.378V204.61C1048.1 203.902 1047.92 203.204 1047.58 202.581L1041.69 191.731C1040.94 190.363 1039.51 189.51 1037.95 189.51H1028.31V179.107C1028.31 178.019 1027.43 177.137 1026.34 177.137H991.587Z" fill="#FF985F"/>
<path d="M1036.79 193.517L1041.99 200.946C1042.9 202.252 1041.97 204.046 1040.37 204.046H1035.17C1034.08 204.046 1033.2 203.164 1033.2 202.076V194.646C1033.2 192.72 1035.68 191.938 1036.79 193.517Z" fill="#FFF4EC"/>
<circle cx="1002.61" cy="213.613" r="6.36877" fill="#FF985F"/>
<circle cx="1035.24" cy="213.613" r="6.36877" fill="#FF985F"/>
<path d="M1211.82 173.057C1211.82 203.884 1186.83 228.874 1156 228.874C1125.17 228.874 1100.18 203.884 1100.18 173.057C1100.18 142.23 1125.17 117.24 1156 117.24C1186.83 117.24 1211.82 142.23 1211.82 173.057Z" fill="#EEEDF3"/>
<path d="M1131.42 153.125C1132.59 154.142 1133.76 155.16 1134.93 156.177C1137.99 158.825 1141.14 161.363 1144.1 164.115C1148.82 168.505 1151.77 173.92 1152.93 180.269C1154.11 186.701 1153.28 192.886 1150.39 198.753C1147.62 204.376 1143.39 208.6 1137.84 211.5C1133.89 213.565 1129.68 214.676 1125.22 214.85C1116.86 215.174 1109.51 212.648 1103.32 206.988C1098.92 202.964 1096.16 197.963 1094.85 192.157C1094.14 189.042 1093.94 185.89 1094.28 182.717C1094.96 176.267 1097.45 170.616 1101.79 165.788C1103.34 164.075 1105.13 162.639 1106.86 161.139C1109.89 158.53 1112.92 155.931 1115.94 153.329C1116.02 153.265 1116.08 153.192 1116.14 153.122C1116.56 153.119 1116.97 153.128 1117.38 153.107C1117.64 153.095 1117.69 153.204 1117.68 153.429C1117.67 153.854 1117.68 154.279 1117.68 154.704C1117.68 158.931 1117.68 163.158 1117.68 167.385C1117.68 168.153 1117.96 168.764 1118.65 169.134C1119.9 169.811 1121.34 168.909 1121.34 167.446C1121.35 164.118 1121.35 160.789 1121.35 157.461C1121.35 156.125 1121.35 154.789 1121.34 153.453C1121.34 153.18 1121.41 153.095 1121.69 153.104C1122.28 153.125 1122.88 153.11 1123.47 153.11C1126.12 153.119 1128.77 153.122 1131.42 153.125ZM1124.39 197.207C1124.94 197.207 1125.49 197.195 1126.03 197.213C1126.28 197.222 1126.34 197.137 1126.33 196.906C1126.32 196.117 1126.35 195.327 1126.32 194.538C1126.3 194.167 1126.41 194.022 1126.77 193.928C1128.07 193.6 1129.24 192.998 1130.22 192.063C1131.74 190.599 1132.3 188.787 1132.17 186.716C1132.03 184.45 1131.01 182.756 1129.01 181.66C1127.63 180.907 1126.13 180.53 1124.65 180.081C1123.78 179.817 1122.9 179.562 1122.13 179.051C1121.38 178.553 1121 177.861 1121.09 176.953C1121.17 176.051 1121.66 175.426 1122.48 175.058C1123.14 174.767 1123.84 174.694 1124.54 174.743C1126.15 174.852 1127.02 175.538 1127.52 177.065C1127.62 177.351 1127.68 177.649 1127.74 177.946C1127.77 178.156 1127.82 178.244 1128.08 178.204C1129.25 178.022 1130.43 177.873 1131.61 177.703C1132.44 177.582 1132.44 177.573 1132.25 176.735C1131.52 173.598 1129.82 171.378 1126.53 170.667C1126.33 170.625 1126.32 170.513 1126.33 170.355C1126.33 169.553 1126.31 168.751 1126.34 167.95C1126.34 167.634 1126.24 167.57 1125.95 167.576C1124.9 167.594 1123.86 167.591 1122.81 167.576C1122.54 167.573 1122.43 167.631 1122.44 167.931C1122.46 168.733 1122.44 169.535 1122.45 170.336C1122.46 170.549 1122.39 170.637 1122.18 170.68C1121.89 170.74 1121.59 170.813 1121.31 170.907C1119.45 171.518 1117.96 172.565 1117.2 174.436C1116.57 175.972 1116.55 177.557 1116.98 179.149C1117.5 181.107 1118.88 182.304 1120.64 183.148C1121.97 183.791 1123.41 184.174 1124.8 184.669C1125.56 184.942 1126.33 185.228 1126.96 185.756C1127.36 186.084 1127.64 186.482 1127.72 187.001C1127.89 188.079 1127.4 189.033 1126.39 189.552C1125.15 190.183 1123.86 190.141 1122.55 189.849C1121.18 189.543 1120.33 188.683 1119.98 187.323C1119.86 186.874 1119.81 186.415 1119.79 185.957C1119.79 185.692 1119.68 185.665 1119.46 185.698C1118.18 185.893 1116.9 186.087 1115.61 186.263C1115.4 186.294 1115.36 186.376 1115.38 186.567C1115.45 187.308 1115.61 188.031 1115.89 188.717C1117.04 191.559 1119.19 193.256 1122.1 194.061C1122.36 194.137 1122.47 194.222 1122.46 194.511C1122.44 195.3 1122.47 196.09 1122.45 196.879C1122.44 197.162 1122.53 197.222 1122.79 197.213C1123.33 197.192 1123.86 197.207 1124.39 197.207Z" fill="#FF985F"/>
<path d="M1116.69 149.459C1115.01 146.55 1113.33 143.644 1111.66 140.729C1109.49 136.936 1111.63 132.318 1115.92 131.504C1116.29 131.434 1116.66 131.407 1117.04 131.407C1121.53 131.41 1126.03 131.407 1130.52 131.407C1135.31 131.407 1138.3 136.484 1135.94 140.659C1134.32 143.52 1132.66 146.353 1131.01 149.198C1130.97 149.28 1130.93 149.371 1130.88 149.456C1127.02 149.459 1123.17 149.462 1119.31 149.465C1118.43 149.468 1117.56 149.462 1116.69 149.459Z" fill="#FF985F"/>
<path d="M1116.69 149.459C1117.56 149.462 1118.43 149.471 1119.31 149.471C1123.17 149.468 1127.03 149.465 1130.88 149.462C1131.11 149.465 1131.35 149.471 1131.58 149.471C1132.64 149.477 1133.45 150.252 1133.46 151.281C1133.47 152.283 1132.67 153.085 1131.63 153.115C1131.56 153.118 1131.49 153.121 1131.41 153.127C1128.76 153.124 1126.12 153.118 1123.47 153.115C1122.87 153.115 1122.28 153.13 1121.68 153.109C1121.41 153.1 1121.33 153.185 1121.34 153.458C1121.35 154.794 1121.34 156.131 1121.34 157.467C1121.34 160.795 1121.35 164.123 1121.34 167.451C1121.34 168.915 1119.9 169.816 1118.65 169.139C1117.96 168.769 1117.68 168.155 1117.68 167.39C1117.68 163.163 1117.68 158.936 1117.68 154.709C1117.68 154.284 1117.67 153.859 1117.68 153.434C1117.69 153.209 1117.63 153.1 1117.38 153.112C1116.97 153.133 1116.55 153.124 1116.14 153.127C1114.98 153.082 1114.26 152.505 1114.13 151.53C1113.98 150.455 1114.8 149.499 1115.88 149.474C1116.15 149.465 1116.42 149.462 1116.69 149.459Z" fill="#FD5B24"/>
<path d="M1124.39 197.207C1123.86 197.207 1123.33 197.192 1122.79 197.213C1122.53 197.222 1122.44 197.161 1122.44 196.879C1122.46 196.09 1122.44 195.3 1122.46 194.511C1122.47 194.222 1122.36 194.134 1122.09 194.061C1119.19 193.256 1117.04 191.559 1115.88 188.717C1115.6 188.027 1115.45 187.308 1115.38 186.567C1115.36 186.376 1115.39 186.294 1115.61 186.263C1116.89 186.084 1118.18 185.893 1119.46 185.698C1119.68 185.665 1119.78 185.692 1119.79 185.957C1119.81 186.415 1119.85 186.874 1119.97 187.323C1120.33 188.683 1121.18 189.543 1122.55 189.849C1123.85 190.141 1125.15 190.183 1126.38 189.552C1127.39 189.033 1127.88 188.076 1127.72 187.001C1127.63 186.482 1127.36 186.084 1126.96 185.756C1126.32 185.228 1125.56 184.942 1124.8 184.669C1123.4 184.174 1121.97 183.791 1120.63 183.148C1118.88 182.304 1117.5 181.107 1116.98 179.149C1116.55 177.56 1116.57 175.972 1117.19 174.436C1117.96 172.565 1119.45 171.518 1121.3 170.907C1121.59 170.813 1121.89 170.737 1122.18 170.68C1122.38 170.64 1122.45 170.552 1122.45 170.336C1122.44 169.535 1122.46 168.733 1122.44 167.931C1122.43 167.631 1122.53 167.57 1122.81 167.576C1123.85 167.591 1124.9 167.591 1125.94 167.576C1126.24 167.57 1126.34 167.634 1126.33 167.95C1126.31 168.751 1126.33 169.553 1126.32 170.355C1126.32 170.513 1126.33 170.628 1126.52 170.667C1129.82 171.378 1131.52 173.598 1132.24 176.734C1132.44 177.576 1132.44 177.582 1131.6 177.703C1130.43 177.873 1129.25 178.022 1128.07 178.204C1127.82 178.244 1127.77 178.156 1127.73 177.946C1127.68 177.649 1127.61 177.351 1127.52 177.065C1127.02 175.538 1126.14 174.852 1124.54 174.743C1123.83 174.694 1123.13 174.767 1122.48 175.058C1121.65 175.423 1121.17 176.051 1121.08 176.953C1121 177.861 1121.38 178.553 1122.13 179.051C1122.9 179.562 1123.77 179.817 1124.64 180.081C1126.13 180.53 1127.63 180.91 1129.01 181.66C1131.01 182.756 1132.03 184.45 1132.17 186.716C1132.29 188.787 1131.74 190.603 1130.22 192.063C1129.24 193.001 1128.07 193.6 1126.77 193.928C1126.4 194.019 1126.3 194.167 1126.31 194.538C1126.35 195.327 1126.32 196.117 1126.33 196.906C1126.33 197.137 1126.28 197.222 1126.03 197.213C1125.49 197.192 1124.94 197.207 1124.39 197.207Z" fill="#FF985F"/>
<path d="M1117.24 189.812H1119.37V187.657L1120.57 186.214L1122.97 189.812H1125.33L1121.84 184.696L1124.86 181.068H1122.46L1119.37 185.106V178.047H1117.24V189.812Z" fill="#FFF4EC"/>
<path d="M1130.28 183.208C1130.59 183.208 1130.95 183.284 1131.29 183.406L1131.42 180.946C1131.22 180.87 1130.98 180.825 1130.75 180.825C1129.92 180.825 1128.89 181.25 1128.2 182.92V181.068H1126.06V189.812H1128.2V185.531C1128.2 183.664 1129.27 183.208 1130.28 183.208Z" fill="#FFF4EC"/>
<path fill-rule="evenodd" clip-rule="evenodd" d="M1156 228.875C1186.83 228.875 1211.82 203.885 1211.82 173.058C1211.82 171.628 1211.76 170.211 1211.66 168.807H1137.9C1135.32 168.807 1133.22 170.904 1133.22 173.49V224.03C1140.18 227.144 1147.89 228.875 1156 228.875Z" fill="#C8C5D6"/>
<path fill-rule="evenodd" clip-rule="evenodd" d="M1211.33 180.485C1211.65 178.055 1211.82 175.576 1211.82 173.058C1211.82 171.628 1211.76 170.211 1211.66 168.807H1138.07C1135.39 168.807 1133.22 170.978 1133.22 173.657V180.485H1211.33Z" fill="#48367D"/>
<path d="M1145.35 174.693C1145.35 176.032 1144.27 177.117 1142.93 177.117C1141.59 177.117 1140.5 176.032 1140.5 174.693C1140.5 173.353 1141.59 172.268 1142.93 172.268C1144.27 172.268 1145.35 173.353 1145.35 174.693Z" fill="white"/>
<path d="M1153.31 174.647C1153.31 175.986 1152.23 177.072 1150.89 177.072C1149.55 177.072 1148.46 175.986 1148.46 174.647C1148.46 173.308 1149.55 172.222 1150.89 172.222C1152.23 172.222 1153.31 173.308 1153.31 174.647Z" fill="white"/>
<path d="M1161.4 174.647C1161.4 175.986 1160.31 177.072 1158.97 177.072C1157.63 177.072 1156.55 175.986 1156.55 174.647C1156.55 173.308 1157.63 172.222 1158.97 172.222C1160.31 172.222 1161.4 173.308 1161.4 174.647Z" fill="white"/>
<path d="M1278.24 297.057C1278.24 327.883 1303.23 352.873 1334.06 352.873C1364.88 352.873 1389.87 327.883 1389.87 297.057C1389.87 266.229 1364.88 241.24 1334.06 241.24C1303.23 241.24 1278.24 266.229 1278.24 297.057Z" fill="#EEEDF3"/>
<path d="M1353.57 314.144C1353.57 314.144 1346.97 331.357 1322.08 332.44L1309.16 311.028" fill="#FFD3BA"/>
<path d="M1316.22 298.118C1316.22 298.118 1331.31 308.116 1325.91 332.44L1316.2 334.957" fill="#FFD3BA"/>
<path fill-rule="evenodd" clip-rule="evenodd" d="M1303.56 344.459L1329.39 330.665L1312.25 307.46L1284.09 322.608C1288.53 331.506 1295.28 339.051 1303.56 344.459Z" fill="#FFD3BA"/>
<path d="M1305.8 323.09C1304.26 323.086 1302.73 322.493 1301.55 321.314C1299.21 318.956 1299.22 315.144 1301.58 312.8C1312.57 301.878 1305.68 283.119 1305.61 282.931C1304.42 279.827 1305.98 276.354 1309.08 275.164C1312.19 273.972 1315.67 275.534 1316.86 278.639C1317.27 279.701 1326.65 304.856 1310.07 321.34C1308.89 322.512 1307.35 323.095 1305.8 323.09Z" fill="#FFD3BA"/>
<path d="M1325.61 279.47C1324.77 280.199 1323.93 280.928 1323.09 281.657C1320.9 283.555 1318.64 285.374 1316.52 287.346C1313.13 290.492 1311.02 294.373 1310.19 298.923C1309.34 303.532 1309.94 307.965 1312.01 312.17C1313.99 316.2 1317.03 319.227 1321 321.305C1323.84 322.785 1326.86 323.582 1330.05 323.706C1336.04 323.938 1341.31 322.128 1345.74 318.071C1348.89 315.188 1350.88 311.604 1351.82 307.443C1352.32 305.21 1352.46 302.951 1352.22 300.677C1351.74 296.055 1349.95 292.005 1346.84 288.545C1345.73 287.317 1344.45 286.288 1343.21 285.213C1341.04 283.344 1338.87 281.481 1336.7 279.616C1336.64 279.57 1336.6 279.518 1336.55 279.468C1336.26 279.466 1335.96 279.472 1335.67 279.457C1335.49 279.448 1335.45 279.527 1335.45 279.688C1335.46 279.992 1335.45 280.297 1335.45 280.602C1335.45 283.631 1335.45 286.66 1335.45 289.689C1335.45 290.24 1335.25 290.677 1334.76 290.943C1333.86 291.428 1332.83 290.782 1332.83 289.733C1332.82 287.348 1332.83 284.963 1332.83 282.578C1332.83 281.62 1332.82 280.662 1332.83 279.705C1332.83 279.509 1332.78 279.448 1332.58 279.455C1332.16 279.47 1331.73 279.459 1331.3 279.459C1329.4 279.466 1327.51 279.468 1325.61 279.47ZM1330.64 311.062C1330.25 311.062 1329.86 311.053 1329.47 311.066C1329.29 311.073 1329.25 311.012 1329.25 310.846C1329.26 310.281 1329.24 309.715 1329.26 309.149C1329.27 308.884 1329.2 308.779 1328.94 308.712C1328.01 308.477 1327.17 308.046 1326.47 307.375C1325.37 306.326 1324.98 305.027 1325.07 303.543C1325.17 301.92 1325.9 300.705 1327.33 299.92C1328.32 299.38 1329.4 299.11 1330.46 298.788C1331.08 298.599 1331.71 298.416 1332.26 298.05C1332.8 297.693 1333.07 297.197 1333.01 296.547C1332.95 295.9 1332.6 295.452 1332.01 295.189C1331.54 294.98 1331.04 294.928 1330.53 294.962C1329.39 295.041 1328.76 295.532 1328.4 296.627C1328.33 296.832 1328.28 297.045 1328.24 297.258C1328.22 297.408 1328.19 297.471 1328 297.443C1327.16 297.313 1326.32 297.206 1325.47 297.084C1324.87 296.997 1324.87 296.991 1325.01 296.39C1325.53 294.142 1326.75 292.551 1329.11 292.042C1329.25 292.011 1329.26 291.931 1329.26 291.818C1329.25 291.243 1329.27 290.669 1329.25 290.094C1329.24 289.868 1329.32 289.822 1329.53 289.826C1330.28 289.84 1331.03 289.837 1331.77 289.826C1331.97 289.824 1332.05 289.866 1332.04 290.081C1332.02 290.656 1332.04 291.23 1332.03 291.805C1332.03 291.957 1332.08 292.02 1332.23 292.051C1332.44 292.094 1332.65 292.146 1332.85 292.214C1334.18 292.651 1335.25 293.402 1335.8 294.743C1336.25 295.844 1336.26 296.98 1335.96 298.12C1335.58 299.524 1334.59 300.381 1333.33 300.986C1332.38 301.447 1331.35 301.722 1330.35 302.076C1329.8 302.272 1329.26 302.477 1328.8 302.855C1328.52 303.09 1328.31 303.376 1328.26 303.748C1328.14 304.52 1328.49 305.204 1329.21 305.576C1330.1 306.028 1331.03 305.998 1331.96 305.789C1332.94 305.569 1333.55 304.953 1333.81 303.978C1333.89 303.656 1333.93 303.328 1333.94 302.999C1333.94 302.81 1334.02 302.79 1334.17 302.814C1335.09 302.953 1336.01 303.093 1336.93 303.219C1337.09 303.241 1337.12 303.299 1337.1 303.436C1337.05 303.967 1336.94 304.485 1336.74 304.977C1335.91 307.014 1334.37 308.231 1332.29 308.807C1332.1 308.862 1332.02 308.923 1332.03 309.129C1332.04 309.695 1332.02 310.261 1332.04 310.827C1332.04 311.029 1331.98 311.073 1331.79 311.066C1331.41 311.051 1331.02 311.062 1330.64 311.062Z" fill="#FF985F"/>
<path d="M1336.16 276.843C1337.37 274.758 1338.57 272.676 1339.77 270.587C1341.32 267.869 1339.79 264.559 1336.72 263.975C1336.45 263.925 1336.18 263.906 1335.91 263.906C1332.69 263.908 1329.47 263.906 1326.25 263.906C1322.82 263.906 1320.68 267.544 1322.37 270.537C1323.53 272.587 1324.72 274.617 1325.9 276.656C1325.93 276.715 1325.96 276.78 1325.99 276.841C1328.76 276.843 1331.52 276.845 1334.29 276.848C1334.91 276.85 1335.54 276.845 1336.16 276.843Z" fill="#FF985F"/>
<path d="M1336.16 276.843C1335.54 276.845 1334.91 276.852 1334.29 276.852C1331.52 276.85 1328.75 276.847 1325.99 276.845C1325.82 276.847 1325.66 276.852 1325.49 276.852C1324.73 276.856 1324.15 277.411 1324.15 278.149C1324.14 278.867 1324.71 279.442 1325.46 279.463C1325.51 279.465 1325.56 279.468 1325.61 279.472C1327.51 279.47 1329.41 279.465 1331.3 279.463C1331.73 279.463 1332.16 279.474 1332.58 279.459C1332.78 279.452 1332.83 279.513 1332.83 279.709C1332.82 280.667 1332.83 281.624 1332.83 282.582C1332.83 284.967 1332.83 287.352 1332.83 289.737C1332.83 290.786 1333.86 291.432 1334.76 290.947C1335.25 290.682 1335.45 290.242 1335.45 289.694C1335.45 286.664 1335.45 283.635 1335.45 280.606C1335.45 280.301 1335.46 279.996 1335.45 279.692C1335.45 279.531 1335.49 279.452 1335.67 279.461C1335.96 279.476 1336.26 279.47 1336.56 279.472C1337.39 279.439 1337.91 279.026 1338 278.327C1338.1 277.557 1337.52 276.871 1336.74 276.854C1336.55 276.847 1336.36 276.845 1336.16 276.843Z" fill="#FD5B24"/>
<path d="M1330.64 311.062C1331.02 311.062 1331.41 311.052 1331.79 311.067C1331.98 311.073 1332.04 311.03 1332.04 310.827C1332.02 310.262 1332.04 309.696 1332.03 309.13C1332.02 308.923 1332.1 308.86 1332.29 308.808C1334.37 308.231 1335.91 307.015 1336.74 304.978C1336.94 304.484 1337.05 303.968 1337.1 303.437C1337.12 303.3 1337.09 303.241 1336.94 303.219C1336.02 303.091 1335.1 302.954 1334.18 302.815C1334.02 302.791 1333.95 302.81 1333.94 303C1333.93 303.328 1333.89 303.657 1333.81 303.979C1333.55 304.954 1332.95 305.57 1331.96 305.79C1331.03 305.998 1330.1 306.029 1329.22 305.576C1328.49 305.204 1328.14 304.519 1328.26 303.748C1328.32 303.376 1328.52 303.091 1328.8 302.856C1329.26 302.477 1329.81 302.273 1330.35 302.077C1331.35 301.722 1332.38 301.448 1333.34 300.987C1334.59 300.382 1335.58 299.524 1335.96 298.121C1336.26 296.982 1336.25 295.844 1335.8 294.743C1335.25 293.403 1334.18 292.652 1332.86 292.214C1332.65 292.147 1332.44 292.092 1332.23 292.051C1332.08 292.023 1332.03 291.96 1332.03 291.805C1332.04 291.231 1332.03 290.656 1332.04 290.082C1332.05 289.866 1331.97 289.823 1331.78 289.827C1331.03 289.838 1330.28 289.838 1329.53 289.827C1329.32 289.823 1329.25 289.868 1329.25 290.095C1329.27 290.669 1329.26 291.244 1329.26 291.818C1329.26 291.931 1329.25 292.014 1329.12 292.042C1326.75 292.552 1325.54 294.142 1325.02 296.391C1324.88 296.993 1324.88 296.998 1325.47 297.085C1326.32 297.207 1327.16 297.313 1328.01 297.444C1328.19 297.472 1328.22 297.409 1328.25 297.259C1328.29 297.046 1328.33 296.832 1328.4 296.628C1328.76 295.533 1329.39 295.041 1330.54 294.963C1331.05 294.928 1331.54 294.98 1332.02 295.189C1332.61 295.45 1332.95 295.901 1333.01 296.547C1333.07 297.198 1332.8 297.694 1332.26 298.051C1331.71 298.417 1331.08 298.599 1330.46 298.789C1329.4 299.111 1328.32 299.383 1327.34 299.92C1325.9 300.706 1325.17 301.92 1325.07 303.544C1324.98 305.028 1325.38 306.329 1326.47 307.376C1327.17 308.048 1328.01 308.477 1328.94 308.712C1329.2 308.777 1329.28 308.884 1329.27 309.15C1329.24 309.715 1329.26 310.281 1329.25 310.847C1329.25 311.012 1329.29 311.073 1329.47 311.067C1329.86 311.052 1330.25 311.062 1330.64 311.062Z" fill="#FF985F"/>
<path d="M1326.24 305.676H1327.76V304.131L1328.62 303.097L1330.34 305.676H1332.04L1329.54 302.009L1331.7 299.409H1329.98L1327.76 302.303V297.244H1326.24V305.676ZM1335.59 300.943C1335.8 300.943 1336.06 300.997 1336.3 301.084L1336.4 299.322C1336.26 299.267 1336.09 299.235 1335.92 299.235C1335.32 299.235 1334.58 299.539 1334.09 300.736V299.409H1332.56V305.676H1334.09V302.607C1334.09 301.269 1334.86 300.943 1335.59 300.943Z" fill="#FFF4EC"/>
<path d="M1360.71 301.45L1352.34 302.301C1349.32 302.551 1346.67 300.308 1346.42 297.29C1346.17 294.273 1348.41 291.624 1351.43 291.373L1359.8 290.522C1362.82 290.272 1365.47 292.515 1365.72 295.532C1365.97 298.55 1363.73 301.199 1360.71 301.45Z" fill="#FFD3BA"/>
<path d="M1359.05 313.929L1350.64 314.087C1347.61 314.088 1345.15 311.634 1345.15 308.607C1345.15 305.579 1347.6 303.123 1350.63 303.122L1359.05 302.964C1362.08 302.963 1364.53 305.417 1364.54 308.444C1364.54 311.472 1362.08 313.928 1359.05 313.929Z" fill="#FFD3BA"/>
<path d="M1357.16 325.127L1348.77 324.5C1345.75 324.219 1343.53 321.546 1343.82 318.532C1344.1 315.516 1346.77 313.301 1349.78 313.582L1358.18 314.209C1361.19 314.49 1363.41 317.162 1363.13 320.177C1362.85 323.192 1360.18 325.408 1357.16 325.127Z" fill="#FFD3BA"/>
<defs>
<filter id="filter0_d" x="387.63" y="153.098" width="50.932" height="17.102" filterUnits="userSpaceOnUse" color-interpolation-filters="sRGB">
<feFlood flood-opacity="0" result="BackgroundImageFix"/>
<feColorMatrix in="SourceAlpha" type="matrix" values="0 0 0 0 0 0 0 0 0 0 0 0 0 0 0 0 0 0 127 0"/>
<feOffset dy="0.238"/>
<feGaussianBlur stdDeviation="0.238"/>
<feColorMatrix type="matrix" values="0 0 0 0 0.0862745 0 0 0 0 0.0705882 0 0 0 0 0.145098 0 0 0 0.07 0"/>
<feBlend mode="normal" in2="BackgroundImageFix" result="effect1_dropShadow"/>
<feBlend mode="normal" in="SourceGraphic" in2="effect1_dropShadow" result="shape"/>
</filter>
</defs>
</svg>
