<svg width="320" height="617" viewBox="0 0 320 617" fill="none" xmlns="http://www.w3.org/2000/svg">
<rect width="320" height="617" fill="white"/>
<line x1="78" y1="541.25" x2="136" y2="541.25" stroke="#49367E" stroke-width="1.5" stroke-dasharray="4 4"/>
<line x1="78.75" y1="476" x2="78.75" y2="542" stroke="#49367E" stroke-width="1.5" stroke-dasharray="4 4"/>
<line x1="78" y1="252.25" x2="135" y2="252.25" stroke="#49367E" stroke-width="1.5" stroke-dasharray="4 4"/>
<line x1="78.75" y1="50" x2="78.75" y2="476" stroke="#FF5B24" stroke-width="1.5"/>
<path d="M104.804 176.027C104.804 190.534 93.044 202.293 78.537 202.293C64.0303 202.293 52.2701 190.534 52.2701 176.027C52.2701 161.52 64.0303 149.76 78.537 149.76C93.044 149.76 104.804 161.52 104.804 176.027Z" fill="#EEEDF3"/>
<path d="M80.6961 182.664H48.144C47.2028 182.664 46.44 181.901 46.44 180.96V155.415C46.44 154.473 47.2028 153.711 48.144 153.711H80.6961C81.637 153.711 82.4001 154.473 82.4001 155.415V180.96C82.4001 181.901 81.637 182.664 80.6961 182.664Z" fill="#C8C5D6"/>
<path d="M80.635 153.711H48.2051C47.2301 153.711 46.44 154.501 46.44 155.475V157.96H82.4001V155.475C82.4001 154.501 81.61 153.711 80.635 153.711Z" fill="#48367D"/>
<path d="M50.8557 155.852C50.8557 156.339 50.4609 156.734 49.9736 156.734C49.4862 156.734 49.0909 156.339 49.0909 155.852C49.0909 155.365 49.4862 154.969 49.9736 154.969C50.4609 154.969 50.8557 155.365 50.8557 155.852Z" fill="white"/>
<path d="M53.7514 155.835C53.7514 156.323 53.3564 156.718 52.8693 156.718C52.3817 156.718 51.9867 156.323 51.9867 155.835C51.9867 155.348 52.3817 154.953 52.8693 154.953C53.3564 154.953 53.7514 155.348 53.7514 155.835Z" fill="white"/>
<path d="M56.6938 155.835C56.6938 156.323 56.2987 156.718 55.8117 156.718C55.3243 156.718 54.929 156.323 54.929 155.835C54.929 155.348 55.3243 154.953 55.8117 154.953C56.2987 154.953 56.6938 155.348 56.6938 155.835Z" fill="white"/>
<g filter="url(#filter0_d)">
<rect x="52.697" y="166.746" width="23.52" height="7.6" rx="0.56" fill="#FF5B24"/>
</g>
<path d="M60.0347 169.266V171.666H60.8827C61.3883 171.666 61.7051 171.356 61.7051 170.962C61.7051 170.741 61.5899 170.508 61.2891 170.402C61.5003 170.287 61.6027 170.079 61.6027 169.912C61.6027 169.519 61.3307 169.266 60.8379 169.266H60.0347ZM60.4987 170.632H60.8667C61.1003 170.632 61.2539 170.767 61.2539 170.943C61.2539 171.157 61.0907 171.244 60.8699 171.244H60.4987V170.632ZM60.4987 169.688H60.8315C61.0459 169.688 61.1643 169.797 61.1643 169.983C61.1643 170.162 61.0267 170.274 60.8315 170.274H60.4987V169.688ZM62.8281 170.149C63.0425 170.149 63.2185 170.252 63.2569 170.517H62.3961C62.4505 170.261 62.6073 170.149 62.8281 170.149ZM63.6889 170.84V170.7C63.6889 170.156 63.3369 169.772 62.8441 169.772C62.3193 169.772 61.9225 170.146 61.9225 170.738C61.9225 171.346 62.3449 171.714 62.8889 171.714C63.2281 171.714 63.6377 171.519 63.7081 171.093L63.2985 171.029C63.2633 171.205 63.1513 171.317 62.8729 171.317C62.5785 171.317 62.4121 171.128 62.3833 170.84H63.6889ZM64.1785 169.378V169.823H63.8617V170.197H64.1785V171.205C64.1785 171.48 64.2969 171.698 64.6777 171.698C64.8377 171.698 65.0105 171.653 65.1193 171.605L65.0553 171.256C64.9689 171.276 64.8921 171.288 64.8089 171.288C64.6713 171.288 64.6297 171.221 64.6297 171.09V170.197H65.0841V169.823H64.6297V169.314L64.1785 169.378ZM66.069 171.714C66.357 171.714 66.5522 171.58 66.6802 171.407V171.666H67.1314V169.823H66.6802V170.06C66.5298 169.855 66.341 169.772 66.1202 169.772C65.7074 169.772 65.2978 170.082 65.2978 170.725C65.2978 171.4 65.7106 171.714 66.069 171.714ZM66.2194 170.168C66.4626 170.168 66.6802 170.357 66.6802 170.748C66.6802 171.151 66.4626 171.314 66.2162 171.314C65.989 171.314 65.7522 171.141 65.7522 170.748C65.7522 170.348 65.9922 170.168 66.2194 170.168ZM67.5658 169.186V171.666H68.0138V169.186H67.5658Z" fill="white"/>
<path d="M96.2455 194.832L96.3617 194.148L97.7109 183.555L91.3243 178.777L82.3335 181.332L83.1683 195.199C87.3978 196.215 91.5907 196.065 96.2455 194.832Z" fill="#FFD3BA"/>
<path d="M84.5484 186.818C83.821 186.22 83.502 185.213 83.8239 184.269C84.8585 181.239 84.9975 179.504 85.0513 177.986C85.097 176.703 86.1745 175.699 87.4582 175.745C88.7416 175.79 89.7454 176.867 89.7 178.151C89.6218 180.364 89.3412 182.507 88.2261 185.772C87.8112 186.988 86.4893 187.637 85.2736 187.222C85.0019 187.129 84.7581 186.99 84.5484 186.818Z" fill="#FFD3BA"/>
<path d="M89.0599 186.171C88.3114 185.556 88.0002 184.511 88.3607 183.554C88.9826 181.904 89.2582 180.382 89.1796 179.027C89.1058 177.745 90.0855 176.646 91.3677 176.571C92.6499 176.497 93.7497 177.476 93.8238 178.759C93.9397 180.767 93.5662 182.932 92.7132 185.195C92.2603 186.397 90.9187 187.004 89.7167 186.551C89.472 186.458 89.2515 186.329 89.0599 186.171Z" fill="#FFD3BA"/>
<path d="M93.9083 187.254C93.0756 186.759 92.6103 185.772 92.8226 184.772C93.189 183.048 93.2325 181.501 92.9511 180.173C92.685 178.917 93.4877 177.682 94.7444 177.416C96.0009 177.149 97.2355 177.952 97.5016 179.209C97.9189 181.177 97.8757 183.373 97.3731 185.738C97.1061 186.995 95.8712 187.797 94.6148 187.53C94.3589 187.475 94.1217 187.381 93.9083 187.254Z" fill="#FFD3BA"/>
<path d="M82.7447 201.534C82.1173 196.879 80.5548 195.35 80.3255 195.043C80.1079 194.751 78.071 192.457 77.3197 191.092C76.3889 189.399 75.292 186.985 76.2428 185.012C77.1744 183.079 79.5022 183.467 81.3103 182.023L85.1844 180.608C86.7234 180.344 88.1849 181.377 88.4492 182.916C88.7129 184.456 87.6791 185.917 86.14 186.181L85.3764 187.002C85.0969 187.116 85.3348 187.904 85.4074 188.235C85.8498 189.024 84.2918 190.494 85.0137 191.462C85.9476 192.713 85.69 194.485 84.4384 195.419C83.4942 196.123 82.8929 202.633 82.7447 201.534Z" fill="#FFD3BA"/>
<path fill-rule="evenodd" clip-rule="evenodd" d="M96.5084 195.184C92.6596 198.796 87.722 201.261 82.2408 202.035C82.1064 196.354 81.8159 191.362 81.2278 190.07C79.6866 186.682 94.329 191.258 94.329 191.258C94.329 191.258 96.6285 185.701 96.5084 195.184Z" fill="#FFD3BA"/>
<path d="M76.7151 171.699C76.7151 171.699 80.5887 172.896 82.0093 174.841C84.1111 177.719 83.4638 182.13 81.5913 185.421" stroke="#FFD2BA" stroke-width="6.16" stroke-linecap="round" stroke-linejoin="round"/>
<circle cx="78.5" cy="100.458" r="4.5" fill="white" stroke="#FF5B24" stroke-width="2"/>
<circle cx="135.373" cy="251.5" r="4.5" fill="white" stroke="#49367E" stroke-width="2"/>
<circle cx="79.0081" cy="49.5" r="4.5" fill="white" stroke="#FF5B24" stroke-width="2"/>
<path d="M142.288 327.144C142.048 325.672 140.784 324.88 139.528 324.88C137.816 324.88 136.4 326.12 136.4 327.96C136.4 329.928 137.832 331.12 139.552 331.12C140.712 331.12 142.16 330.344 142.336 328.696L141.256 328.536C141.168 329.728 140.352 330.096 139.552 330.096C138.416 330.096 137.528 329.448 137.528 327.96C137.528 326.608 138.416 325.904 139.488 325.904C140.224 325.904 141.032 326.208 141.208 327.304L142.288 327.144ZM147.462 331L147.462 326.392L146.462 326.392L146.462 329.072C146.462 329.856 145.942 330.216 145.27 330.216C144.654 330.216 144.35 329.944 144.35 329.232L144.35 326.392L143.35 326.392L143.35 329.608C143.35 330.672 144.118 331.12 144.886 331.12C145.462 331.12 146.102 330.856 146.462 330.224L146.462 331L147.462 331ZM148.63 327.688C148.63 328.328 148.998 328.8 149.782 328.968L150.622 329.152C151.198 329.28 151.358 329.448 151.358 329.72C151.358 330.104 150.982 330.32 150.43 330.32C149.782 330.32 149.358 330.016 149.294 329.448L148.406 329.608C148.558 330.68 149.558 331.12 150.454 331.12C151.342 331.12 152.286 330.624 152.286 329.624C152.286 328.984 151.91 328.552 151.094 328.376L150.182 328.176C149.718 328.072 149.558 327.848 149.558 327.608C149.558 327.272 149.878 327.064 150.334 327.064C150.886 327.064 151.294 327.264 151.326 327.864L152.214 327.704C151.95 326.672 151.254 326.264 150.326 326.264C149.574 326.264 148.63 326.68 148.63 327.688ZM153.617 325.28L153.617 326.392L152.761 326.392L152.761 327.2L153.617 327.2L153.617 329.704C153.617 330.552 154.041 331.08 154.961 331.08C155.241 331.08 155.569 331.008 155.809 330.936L155.649 330.128C155.465 330.176 155.353 330.2 155.169 330.2C154.761 330.2 154.617 330.016 154.617 329.656L154.617 327.2L155.769 327.2L155.769 326.392L154.617 326.392L154.617 325.12L153.617 325.28ZM158.741 326.264C157.493 326.264 156.461 327.176 156.461 328.688C156.461 330.2 157.493 331.12 158.741 331.12C159.989 331.12 161.021 330.2 161.021 328.688C161.021 327.176 159.989 326.264 158.741 326.264ZM158.741 327.128C159.429 327.128 160.013 327.632 160.013 328.688C160.013 329.744 159.429 330.256 158.741 330.256C158.053 330.256 157.469 329.744 157.469 328.688C157.469 327.632 158.053 327.128 158.741 327.128ZM167.111 327.168C167.679 327.168 168.111 327.488 168.111 328.344L168.111 331L169.111 331L169.111 327.912C169.111 326.672 168.351 326.264 167.511 326.264C166.999 326.264 166.351 326.472 166.007 327.16C165.759 326.504 165.175 326.264 164.559 326.264C164.007 326.264 163.343 326.48 163.015 327.072L163.015 326.392L162.015 326.392L162.015 331L163.015 331L163.015 328.368C163.015 327.544 163.487 327.168 164.127 327.168C164.695 327.168 165.127 327.488 165.127 328.344L165.127 331L166.127 331L166.127 328.368C166.127 327.544 166.543 327.168 167.111 327.168ZM172.375 327.128C173.023 327.128 173.535 327.432 173.615 328.2L171.111 328.2C171.247 327.488 171.711 327.128 172.375 327.128ZM174.559 328.912L174.559 328.584C174.559 327.224 173.663 326.264 172.415 326.264C171.079 326.264 170.063 327.2 170.063 328.68C170.063 330.2 171.119 331.12 172.479 331.12C173.327 331.12 174.351 330.632 174.527 329.568L173.599 329.408C173.495 329.936 173.191 330.256 172.439 330.256C171.607 330.256 171.151 329.72 171.079 328.912L174.559 328.912ZM177.754 327.344C178.002 327.344 178.178 327.376 178.354 327.448L178.45 326.328C178.354 326.28 178.218 326.264 178.098 326.264C177.642 326.264 176.922 326.528 176.546 327.496L176.546 326.392L175.546 326.392L175.546 331L176.546 331L176.546 328.984C176.546 327.704 177.106 327.344 177.754 327.344ZM185.615 328.184C185.447 326.944 184.463 326.264 183.391 326.264C182.071 326.264 181.071 327.2 181.071 328.688C181.071 330.112 182.055 331.12 183.463 331.12C184.351 331.12 185.391 330.632 185.607 329.224L184.695 329.064C184.591 329.848 184.159 330.248 183.455 330.248C182.519 330.248 182.079 329.536 182.079 328.688C182.079 327.664 182.639 327.128 183.343 327.128C183.983 327.128 184.519 327.472 184.631 328.344L185.615 328.184ZM188.546 326.264C187.298 326.264 186.266 327.176 186.266 328.688C186.266 330.2 187.298 331.12 188.546 331.12C189.794 331.12 190.826 330.2 190.826 328.688C190.826 327.176 189.794 326.264 188.546 326.264ZM188.546 327.128C189.234 327.128 189.818 327.632 189.818 328.688C189.818 329.744 189.234 330.256 188.546 330.256C187.858 330.256 187.274 329.744 187.274 328.688C187.274 327.632 187.858 327.128 188.546 327.128ZM193.956 327.168C194.5 327.168 194.932 327.488 194.932 328.344L194.932 331L195.932 331L195.932 327.912C195.932 326.672 195.148 326.264 194.324 326.264C193.78 326.264 193.148 326.488 192.82 327.072L192.82 326.392L191.82 326.392L191.82 331L192.82 331L192.82 328.368C192.82 327.544 193.292 327.168 193.956 327.168ZM197.435 331L198.435 331L198.435 327.2L199.579 327.2L199.579 326.392L198.435 326.392L198.435 326.208C198.435 325.768 198.563 325.536 198.987 325.536C199.099 325.536 199.195 325.544 199.291 325.56L199.363 324.712C199.235 324.672 199.067 324.648 198.875 324.648C198.011 324.648 197.435 325.192 197.435 326.216L197.435 326.392L196.803 326.392L196.803 327.2L197.435 327.2L197.435 331ZM200.288 326.392L200.288 331L201.288 331L201.288 326.392L200.288 326.392ZM200.784 324.4C200.448 324.4 200.184 324.672 200.184 325C200.184 325.328 200.448 325.6 200.784 325.6C201.12 325.6 201.384 325.328 201.384 325C201.384 324.672 201.12 324.4 200.784 324.4ZM204.778 327.344C205.026 327.344 205.202 327.376 205.378 327.448L205.474 326.328C205.378 326.28 205.242 326.264 205.122 326.264C204.666 326.264 203.946 326.528 203.57 327.496L203.57 326.392L202.57 326.392L202.57 331L203.57 331L203.57 328.984C203.57 327.704 204.13 327.344 204.778 327.344ZM211.322 327.168C211.89 327.168 212.322 327.488 212.322 328.344L212.322 331L213.322 331L213.322 327.912C213.322 326.672 212.562 326.264 211.722 326.264C211.21 326.264 210.562 326.472 210.218 327.16C209.97 326.504 209.386 326.264 208.77 326.264C208.218 326.264 207.554 326.48 207.226 327.072L207.226 326.392L206.226 326.392L206.226 331L207.226 331L207.226 328.368C207.226 327.544 207.698 327.168 208.338 327.168C208.906 327.168 209.338 327.488 209.338 328.344L209.338 331L210.338 331L210.338 328.368C210.338 327.544 210.754 327.168 211.322 327.168ZM214.466 327.688C214.466 328.328 214.834 328.8 215.618 328.968L216.458 329.152C217.034 329.28 217.194 329.448 217.194 329.72C217.194 330.104 216.818 330.32 216.266 330.32C215.618 330.32 215.194 330.016 215.13 329.448L214.242 329.608C214.394 330.68 215.394 331.12 216.29 331.12C217.178 331.12 218.122 330.624 218.122 329.624C218.122 328.984 217.746 328.552 216.93 328.376L216.018 328.176C215.554 328.072 215.394 327.848 215.394 327.608C215.394 327.272 215.714 327.064 216.17 327.064C216.722 327.064 217.13 327.264 217.162 327.864L218.05 327.704C217.786 326.672 217.09 326.264 216.162 326.264C215.41 326.264 214.466 326.68 214.466 327.688Z" fill="#FF5B24"/>
<path d="M142.288 403.144C142.048 401.672 140.784 400.88 139.528 400.88C137.816 400.88 136.4 402.12 136.4 403.96C136.4 405.928 137.832 407.12 139.552 407.12C140.712 407.12 142.16 406.344 142.336 404.696L141.256 404.536C141.168 405.728 140.352 406.096 139.552 406.096C138.416 406.096 137.528 405.448 137.528 403.96C137.528 402.608 138.416 401.904 139.488 401.904C140.224 401.904 141.032 402.208 141.208 403.304L142.288 403.144ZM145.366 402.264C144.118 402.264 143.086 403.176 143.086 404.688C143.086 406.2 144.118 407.12 145.366 407.12C146.614 407.12 147.646 406.2 147.646 404.688C147.646 403.176 146.614 402.264 145.366 402.264ZM145.366 403.128C146.054 403.128 146.638 403.632 146.638 404.688C146.638 405.744 146.054 406.256 145.366 406.256C144.678 406.256 144.094 405.744 144.094 404.688C144.094 403.632 144.678 403.128 145.366 403.128ZM150.776 403.168C151.32 403.168 151.752 403.488 151.752 404.344L151.752 407L152.752 407L152.752 403.912C152.752 402.672 151.968 402.264 151.144 402.264C150.6 402.264 149.968 402.488 149.64 403.072L149.64 402.392L148.64 402.392L148.64 407L149.64 407L149.64 404.368C149.64 403.544 150.112 403.168 150.776 403.168ZM154.256 407L155.256 407L155.256 403.2L156.4 403.2L156.4 402.392L155.256 402.392L155.256 402.208C155.256 401.768 155.384 401.536 155.808 401.536C155.92 401.536 156.016 401.544 156.112 401.56L156.184 400.712C156.056 400.672 155.888 400.648 155.696 400.648C154.832 400.648 154.256 401.192 154.256 402.216L154.256 402.392L153.624 402.392L153.624 403.2L154.256 403.2L154.256 407ZM157.109 402.392L157.109 407L158.109 407L158.109 402.392L157.109 402.392ZM157.605 400.4C157.269 400.4 157.005 400.672 157.005 401C157.005 401.328 157.269 401.6 157.605 401.6C157.941 401.6 158.205 401.328 158.205 401C158.205 400.672 157.941 400.4 157.605 400.4ZM161.598 403.344C161.846 403.344 162.022 403.376 162.198 403.448L162.294 402.328C162.198 402.28 162.062 402.264 161.942 402.264C161.486 402.264 160.766 402.528 160.39 403.496L160.39 402.392L159.39 402.392L159.39 407L160.39 407L160.39 404.984C160.39 403.704 160.95 403.344 161.598 403.344ZM168.142 403.168C168.71 403.168 169.142 403.488 169.142 404.344L169.142 407L170.142 407L170.142 403.912C170.142 402.672 169.382 402.264 168.542 402.264C168.03 402.264 167.382 402.472 167.038 403.16C166.79 402.504 166.206 402.264 165.59 402.264C165.038 402.264 164.374 402.48 164.046 403.072L164.046 402.392L163.046 402.392L163.046 407L164.046 407L164.046 404.368C164.046 403.544 164.518 403.168 165.158 403.168C165.726 403.168 166.158 403.488 166.158 404.344L166.158 407L167.158 407L167.158 404.368C167.158 403.544 167.574 403.168 168.142 403.168ZM175.53 402.264C174.282 402.264 173.25 403.176 173.25 404.688C173.25 406.2 174.282 407.12 175.53 407.12C176.778 407.12 177.81 406.2 177.81 404.688C177.81 403.176 176.778 402.264 175.53 402.264ZM175.53 403.128C176.218 403.128 176.802 403.632 176.802 404.688C176.802 405.744 176.218 406.256 175.53 406.256C174.842 406.256 174.258 405.744 174.258 404.688C174.258 403.632 174.842 403.128 175.53 403.128ZM181.012 403.344C181.26 403.344 181.436 403.376 181.612 403.448L181.708 402.328C181.612 402.28 181.476 402.264 181.356 402.264C180.9 402.264 180.18 402.528 179.804 403.496L179.804 402.392L178.804 402.392L178.804 407L179.804 407L179.804 404.984C179.804 403.704 180.364 403.344 181.012 403.344ZM186.788 400.8L185.788 400.8L185.788 403.296C185.46 402.568 184.964 402.264 184.34 402.264C183.268 402.264 182.204 403.04 182.204 404.648C182.204 406.336 183.276 407.12 184.212 407.12C185.052 407.12 185.556 406.68 185.788 406.128L185.788 407L186.788 407L186.788 400.8ZM184.508 403.128C185.18 403.128 185.788 403.664 185.788 404.704C185.788 405.776 185.18 406.248 184.5 406.248C183.868 406.248 183.212 405.752 183.212 404.704C183.212 403.64 183.876 403.128 184.508 403.128ZM190.094 403.128C190.742 403.128 191.254 403.432 191.334 404.2L188.83 404.2C188.966 403.488 189.43 403.128 190.094 403.128ZM192.278 404.912L192.278 404.584C192.278 403.224 191.382 402.264 190.134 402.264C188.798 402.264 187.782 403.2 187.782 404.68C187.782 406.2 188.838 407.12 190.198 407.12C191.046 407.12 192.07 406.632 192.246 405.568L191.318 405.408C191.214 405.936 190.91 406.256 190.158 406.256C189.326 406.256 188.87 405.72 188.798 404.912L192.278 404.912ZM195.473 403.344C195.721 403.344 195.897 403.376 196.073 403.448L196.169 402.328C196.073 402.28 195.937 402.264 195.817 402.264C195.361 402.264 194.641 402.528 194.265 403.496L194.265 402.392L193.265 402.392L193.265 407L194.265 407L194.265 404.984C194.265 403.704 194.825 403.344 195.473 403.344ZM200.845 407.12C201.669 407.12 202.173 406.616 202.405 406.048L202.405 407L203.405 407L203.405 402.392L202.405 402.392L202.405 403.296C202.077 402.568 201.573 402.264 200.853 402.264C199.885 402.264 198.821 403.04 198.821 404.648C198.821 406.336 199.893 407.12 200.845 407.12ZM201.125 403.128C201.797 403.128 202.405 403.64 202.405 404.704C202.405 405.8 201.797 406.248 201.117 406.248C200.485 406.248 199.829 405.776 199.829 404.704C199.829 403.616 200.493 403.128 201.125 403.128ZM206.823 403.168C207.367 403.168 207.799 403.488 207.799 404.344L207.799 407L208.799 407L208.799 403.912C208.799 402.672 208.015 402.264 207.191 402.264C206.647 402.264 206.015 402.488 205.687 403.072L205.687 402.392L204.687 402.392L204.687 407L205.687 407L205.687 404.368C205.687 403.544 206.159 403.168 206.823 403.168ZM214.366 400.8L213.366 400.8L213.366 403.296C213.038 402.568 212.542 402.264 211.918 402.264C210.846 402.264 209.782 403.04 209.782 404.648C209.782 406.336 210.854 407.12 211.79 407.12C212.63 407.12 213.134 406.68 213.366 406.128L213.366 407L214.366 407L214.366 400.8ZM212.086 403.128C212.758 403.128 213.366 403.664 213.366 404.704C213.366 405.776 212.758 406.248 212.078 406.248C211.446 406.248 210.79 405.752 210.79 404.704C210.79 403.64 211.454 403.128 212.086 403.128ZM217.708 403.688C217.708 404.328 218.076 404.8 218.86 404.968L219.7 405.152C220.276 405.28 220.436 405.448 220.436 405.72C220.436 406.104 220.06 406.32 219.508 406.32C218.86 406.32 218.436 406.016 218.372 405.448L217.484 405.608C217.636 406.68 218.636 407.12 219.532 407.12C220.42 407.12 221.364 406.624 221.364 405.624C221.364 404.984 220.988 404.552 220.172 404.376L219.26 404.176C218.796 404.072 218.636 403.848 218.636 403.608C218.636 403.272 218.956 403.064 219.412 403.064C219.964 403.064 220.372 403.264 220.404 403.864L221.292 403.704C221.028 402.672 220.332 402.264 219.404 402.264C218.652 402.264 217.708 402.68 217.708 403.688ZM224.367 403.128C225.015 403.128 225.527 403.432 225.607 404.2L223.103 404.2C223.239 403.488 223.703 403.128 224.367 403.128ZM226.551 404.912L226.551 404.584C226.551 403.224 225.655 402.264 224.407 402.264C223.071 402.264 222.055 403.2 222.055 404.68C222.055 406.2 223.111 407.12 224.471 407.12C225.319 407.12 226.343 406.632 226.519 405.568L225.591 405.408C225.487 405.936 225.183 406.256 224.431 406.256C223.599 406.256 223.143 405.72 223.071 404.912L226.551 404.912ZM229.674 403.168C230.218 403.168 230.65 403.488 230.65 404.344L230.65 407L231.65 407L231.65 403.912C231.65 402.672 230.866 402.264 230.042 402.264C229.498 402.264 228.866 402.488 228.538 403.072L228.538 402.392L227.538 402.392L227.538 407L228.538 407L228.538 404.368C228.538 403.544 229.01 403.168 229.674 403.168ZM237.218 400.8L236.218 400.8L236.218 403.296C235.89 402.568 235.394 402.264 234.77 402.264C233.698 402.264 232.634 403.04 232.634 404.648C232.634 406.336 233.706 407.12 234.642 407.12C235.482 407.12 235.986 406.68 236.218 406.128L236.218 407L237.218 407L237.218 400.8ZM234.938 403.128C235.61 403.128 236.218 403.664 236.218 404.704C236.218 405.776 235.61 406.248 234.93 406.248C234.298 406.248 233.642 405.752 233.642 404.704C233.642 403.64 234.306 403.128 234.938 403.128ZM240.656 402.392L240.656 407L241.656 407L241.656 402.392L240.656 402.392ZM241.152 400.4C240.816 400.4 240.552 400.672 240.552 401C240.552 401.328 240.816 401.6 241.152 401.6C241.488 401.6 241.752 401.328 241.752 401C241.752 400.672 241.488 400.4 241.152 400.4ZM243.289 401.28L243.289 402.392L242.433 402.392L242.433 403.2L243.289 403.2L243.289 405.704C243.289 406.552 243.713 407.08 244.633 407.08C244.913 407.08 245.241 407.008 245.481 406.936L245.321 406.128C245.137 406.176 245.025 406.2 244.841 406.2C244.433 406.2 244.289 406.016 244.289 405.656L244.289 403.2L245.441 403.2L245.441 402.392L244.289 402.392L244.289 401.12L243.289 401.28ZM248.445 403.128C249.093 403.128 249.605 403.432 249.685 404.2L247.181 404.2C247.317 403.488 247.781 403.128 248.445 403.128ZM250.629 404.912L250.629 404.584C250.629 403.224 249.733 402.264 248.485 402.264C247.149 402.264 246.133 403.2 246.133 404.68C246.133 406.2 247.189 407.12 248.549 407.12C249.397 407.12 250.421 406.632 250.597 405.568L249.669 405.408C249.565 405.936 249.261 406.256 248.509 406.256C247.677 406.256 247.221 405.72 247.149 404.912L250.629 404.912ZM256.713 403.168C257.281 403.168 257.713 403.488 257.713 404.344L257.713 407L258.713 407L258.713 403.912C258.713 402.672 257.953 402.264 257.113 402.264C256.601 402.264 255.953 402.472 255.609 403.16C255.361 402.504 254.777 402.264 254.161 402.264C253.609 402.264 252.945 402.48 252.617 403.072L252.617 402.392L251.617 402.392L251.617 407L252.617 407L252.617 404.368C252.617 403.544 253.089 403.168 253.729 403.168C254.297 403.168 254.729 403.488 254.729 404.344L254.729 407L255.729 407L255.729 404.368C255.729 403.544 256.145 403.168 256.713 403.168Z" fill="#FF5B24"/>
<path d="M142.56 486L144.472 480L143.32 480L142.096 484.504L140.848 480L139.816 480L138.608 484.6L137.344 480L136.192 480L138.104 486L139.16 486L140.336 481.704L141.584 486L142.56 486ZM145.382 481.392L145.382 486L146.382 486L146.382 481.392L145.382 481.392ZM145.878 479.4C145.542 479.4 145.278 479.672 145.278 480C145.278 480.328 145.542 480.6 145.878 480.6C146.214 480.6 146.478 480.328 146.478 480C146.478 479.672 146.214 479.4 145.878 479.4ZM148.015 480.28L148.015 481.392L147.159 481.392L147.159 482.2L148.015 482.2L148.015 484.704C148.015 485.552 148.439 486.08 149.359 486.08C149.639 486.08 149.967 486.008 150.207 485.936L150.047 485.128C149.863 485.176 149.751 485.2 149.567 485.2C149.159 485.2 149.015 485.016 149.015 484.656L149.015 482.2L150.167 482.2L150.167 481.392L149.015 481.392L149.015 480.12L148.015 480.28ZM151.148 479.8L151.148 486L152.148 486L152.148 483.368C152.148 482.544 152.62 482.168 153.292 482.168C153.828 482.168 154.26 482.488 154.26 483.344L154.26 486L155.26 486L155.26 482.912C155.26 481.672 154.5 481.264 153.62 481.264C153.132 481.264 152.476 481.48 152.148 482.072L152.148 479.8L151.148 479.8ZM158.707 482.344C158.955 482.344 159.131 482.376 159.307 482.448L159.403 481.328C159.307 481.28 159.171 481.264 159.051 481.264C158.595 481.264 157.875 481.528 157.499 482.496L157.499 481.392L156.499 481.392L156.499 486L157.499 486L157.499 483.984C157.499 482.704 158.059 482.344 158.707 482.344ZM161.924 486.12C162.748 486.12 163.252 485.616 163.484 485.048L163.484 486L164.484 486L164.484 481.392L163.484 481.392L163.484 482.296C163.156 481.568 162.652 481.264 161.932 481.264C160.964 481.264 159.9 482.04 159.9 483.648C159.9 485.336 160.972 486.12 161.924 486.12ZM162.204 482.128C162.876 482.128 163.484 482.64 163.484 483.704C163.484 484.8 162.876 485.248 162.196 485.248C161.564 485.248 160.908 484.776 160.908 483.704C160.908 482.616 161.572 482.128 162.204 482.128ZM172.405 481.392L171.293 481.392L170.309 484.752L169.197 481.392L168.453 481.392L167.349 484.736L166.357 481.392L165.245 481.392L166.901 486L167.765 486L168.829 483.088L169.885 486L170.749 486L172.405 481.392ZM177.88 481.264C177.096 481.264 176.616 481.76 176.32 482.296L176.32 481.392L175.32 481.392L175.32 487.6L176.32 487.6L176.32 485.128C176.704 485.784 177.2 486.12 177.784 486.12C178.856 486.12 179.904 485.304 179.904 483.624C179.904 482.016 178.816 481.264 177.88 481.264ZM177.608 482.128C178.24 482.128 178.896 482.632 178.896 483.68C178.896 484.744 178.24 485.248 177.6 485.248C176.928 485.248 176.32 484.704 176.32 483.68C176.32 482.608 176.928 482.128 177.608 482.128ZM182.697 486.12C183.521 486.12 184.025 485.616 184.257 485.048L184.257 486L185.257 486L185.257 481.392L184.257 481.392L184.257 482.296C183.929 481.568 183.425 481.264 182.705 481.264C181.737 481.264 180.673 482.04 180.673 483.648C180.673 485.336 181.745 486.12 182.697 486.12ZM182.977 482.128C183.649 482.128 184.257 482.64 184.257 483.704C184.257 484.8 183.649 485.248 182.969 485.248C182.337 485.248 181.681 484.776 181.681 483.704C181.681 482.616 182.345 482.128 182.977 482.128ZM186.946 487.6C187.842 487.6 188.418 487.128 188.778 486.192L190.618 481.392L189.506 481.392L188.346 484.992L187.13 481.392L186.018 481.392L187.714 485.648C187.946 486.232 187.73 486.768 187.042 486.768C186.682 486.768 186.458 486.656 186.314 486.568L186.154 487.432C186.37 487.536 186.642 487.6 186.946 487.6ZM196.478 482.168C197.046 482.168 197.478 482.488 197.478 483.344L197.478 486L198.478 486L198.478 482.912C198.478 481.672 197.718 481.264 196.878 481.264C196.366 481.264 195.718 481.472 195.374 482.16C195.126 481.504 194.542 481.264 193.926 481.264C193.374 481.264 192.71 481.48 192.382 482.072L192.382 481.392L191.382 481.392L191.382 486L192.382 486L192.382 483.368C192.382 482.544 192.854 482.168 193.494 482.168C194.062 482.168 194.494 482.488 194.494 483.344L194.494 486L195.494 486L195.494 483.368C195.494 482.544 195.91 482.168 196.478 482.168ZM201.742 482.128C202.39 482.128 202.902 482.432 202.982 483.2L200.478 483.2C200.614 482.488 201.078 482.128 201.742 482.128ZM203.926 483.912L203.926 483.584C203.926 482.224 203.03 481.264 201.782 481.264C200.446 481.264 199.43 482.2 199.43 483.68C199.43 485.2 200.486 486.12 201.846 486.12C202.694 486.12 203.718 485.632 203.894 484.568L202.966 484.408C202.862 484.936 202.558 485.256 201.806 485.256C200.974 485.256 200.518 484.72 200.446 483.912L203.926 483.912ZM207.049 482.168C207.593 482.168 208.025 482.488 208.025 483.344L208.025 486L209.025 486L209.025 482.912C209.025 481.672 208.241 481.264 207.417 481.264C206.873 481.264 206.241 481.488 205.913 482.072L205.913 481.392L204.913 481.392L204.913 486L205.913 486L205.913 483.368C205.913 482.544 206.385 482.168 207.049 482.168ZM210.617 480.28L210.617 481.392L209.761 481.392L209.761 482.2L210.617 482.2L210.617 484.704C210.617 485.552 211.041 486.08 211.961 486.08C212.241 486.08 212.569 486.008 212.809 485.936L212.649 485.128C212.465 485.176 212.353 485.2 212.169 485.2C211.761 485.2 211.617 485.016 211.617 484.656L211.617 482.2L212.769 482.2L212.769 481.392L211.617 481.392L211.617 480.12L210.617 480.28Z" fill="#FF5B24"/>
<path d="M170.288 245.144C170.048 243.672 168.784 242.88 167.528 242.88C165.816 242.88 164.4 244.12 164.4 245.96C164.4 247.928 165.832 249.12 167.552 249.12C168.712 249.12 170.16 248.344 170.336 246.696L169.256 246.536C169.168 247.728 168.352 248.096 167.552 248.096C166.416 248.096 165.528 247.448 165.528 245.96C165.528 244.608 166.416 243.904 167.488 243.904C168.224 243.904 169.032 244.208 169.208 245.304L170.288 245.144ZM173.142 249.12C173.966 249.12 174.47 248.616 174.702 248.048L174.702 249L175.702 249L175.702 244.392L174.702 244.392L174.702 245.296C174.374 244.568 173.87 244.264 173.15 244.264C172.182 244.264 171.118 245.04 171.118 246.648C171.118 248.336 172.19 249.12 173.142 249.12ZM173.422 245.128C174.094 245.128 174.702 245.64 174.702 246.704C174.702 247.8 174.094 248.248 173.414 248.248C172.782 248.248 172.126 247.776 172.126 246.704C172.126 245.616 172.79 245.128 173.422 245.128ZM179.12 245.168C179.664 245.168 180.096 245.488 180.096 246.344L180.096 249L181.096 249L181.096 245.912C181.096 244.672 180.312 244.264 179.488 244.264C178.944 244.264 178.312 244.488 177.984 245.072L177.984 244.392L176.984 244.392L176.984 249L177.984 249L177.984 246.368C177.984 245.544 178.456 245.168 179.12 245.168ZM186.591 246.184C186.423 244.944 185.439 244.264 184.367 244.264C183.047 244.264 182.047 245.2 182.047 246.688C182.047 248.112 183.031 249.12 184.439 249.12C185.327 249.12 186.367 248.632 186.583 247.224L185.671 247.064C185.567 247.848 185.135 248.248 184.431 248.248C183.495 248.248 183.055 247.536 183.055 246.688C183.055 245.664 183.615 245.128 184.319 245.128C184.959 245.128 185.495 245.472 185.607 246.344L186.591 246.184ZM189.555 245.128C190.203 245.128 190.715 245.432 190.795 246.2L188.291 246.2C188.427 245.488 188.891 245.128 189.555 245.128ZM191.739 246.912L191.739 246.584C191.739 245.224 190.843 244.264 189.595 244.264C188.259 244.264 187.243 245.2 187.243 246.68C187.243 248.2 188.299 249.12 189.659 249.12C190.507 249.12 191.531 248.632 191.707 247.568L190.779 247.408C190.675 247.936 190.371 248.256 189.619 248.256C188.787 248.256 188.331 247.72 188.259 246.912L191.739 246.912ZM192.726 242.8L192.726 249L193.726 249L193.726 242.8L192.726 242.8ZM195.007 242.8L195.007 249L196.007 249L196.007 242.8L195.007 242.8ZM199.056 249.12C199.88 249.12 200.384 248.616 200.616 248.048L200.616 249L201.616 249L201.616 244.392L200.616 244.392L200.616 245.296C200.288 244.568 199.784 244.264 199.064 244.264C198.096 244.264 197.032 245.04 197.032 246.648C197.032 248.336 198.104 249.12 199.056 249.12ZM199.336 245.128C200.008 245.128 200.616 245.64 200.616 246.704C200.616 247.8 200.008 248.248 199.328 248.248C198.696 248.248 198.04 247.776 198.04 246.704C198.04 245.616 198.704 245.128 199.336 245.128ZM203.25 243.28L203.25 244.392L202.394 244.392L202.394 245.2L203.25 245.2L203.25 247.704C203.25 248.552 203.674 249.08 204.594 249.08C204.874 249.08 205.202 249.008 205.442 248.936L205.282 248.128C205.098 248.176 204.986 248.2 204.802 248.2C204.394 248.2 204.25 248.016 204.25 247.656L204.25 245.2L205.402 245.2L205.402 244.392L204.25 244.392L204.25 243.12L203.25 243.28ZM206.382 244.392L206.382 249L207.382 249L207.382 244.392L206.382 244.392ZM206.878 242.4C206.542 242.4 206.278 242.672 206.278 243C206.278 243.328 206.542 243.6 206.878 243.6C207.214 243.6 207.478 243.328 207.478 243C207.478 242.672 207.214 242.4 206.878 242.4ZM210.655 244.264C209.407 244.264 208.375 245.176 208.375 246.688C208.375 248.2 209.407 249.12 210.655 249.12C211.903 249.12 212.935 248.2 212.935 246.688C212.935 245.176 211.903 244.264 210.655 244.264ZM210.655 245.128C211.343 245.128 211.927 245.632 211.927 246.688C211.927 247.744 211.343 248.256 210.655 248.256C209.967 248.256 209.383 247.744 209.383 246.688C209.383 245.632 209.967 245.128 210.655 245.128ZM216.065 245.168C216.609 245.168 217.041 245.488 217.041 246.344L217.041 249L218.041 249L218.041 245.912C218.041 244.672 217.257 244.264 216.433 244.264C215.889 244.264 215.257 244.488 214.929 245.072L214.929 244.392L213.929 244.392L213.929 249L214.929 249L214.929 246.368C214.929 245.544 215.401 245.168 216.065 245.168ZM166.632 257.264C165.384 257.264 164.352 258.176 164.352 259.688C164.352 261.2 165.384 262.12 166.632 262.12C167.88 262.12 168.912 261.2 168.912 259.688C168.912 258.176 167.88 257.264 166.632 257.264ZM166.632 258.128C167.32 258.128 167.904 258.632 167.904 259.688C167.904 260.744 167.32 261.256 166.632 261.256C165.944 261.256 165.36 260.744 165.36 259.688C165.36 258.632 165.944 258.128 166.632 258.128ZM170.17 262L171.17 262L171.17 258.2L172.314 258.2L172.314 257.392L171.17 257.392L171.17 257.208C171.17 256.736 171.394 256.488 171.802 256.488C172.018 256.488 172.202 256.52 172.394 256.576L172.53 255.8C172.306 255.72 172.034 255.648 171.698 255.648C170.778 255.648 170.17 256.24 170.17 257.216L170.17 257.392L169.538 257.392L169.538 258.2L170.17 258.2L170.17 262ZM177.739 257.264C176.955 257.264 176.475 257.76 176.179 258.296L176.179 257.392L175.179 257.392L175.179 263.6L176.179 263.6L176.179 261.128C176.563 261.784 177.059 262.12 177.643 262.12C178.715 262.12 179.763 261.304 179.763 259.624C179.763 258.016 178.675 257.264 177.739 257.264ZM177.467 258.128C178.099 258.128 178.755 258.632 178.755 259.68C178.755 260.744 178.099 261.248 177.459 261.248C176.787 261.248 176.179 260.704 176.179 259.68C176.179 258.608 176.787 258.128 177.467 258.128ZM182.556 262.12C183.38 262.12 183.884 261.616 184.116 261.048L184.116 262L185.116 262L185.116 257.392L184.116 257.392L184.116 258.296C183.788 257.568 183.284 257.264 182.564 257.264C181.596 257.264 180.532 258.04 180.532 259.648C180.532 261.336 181.604 262.12 182.556 262.12ZM182.836 258.128C183.508 258.128 184.116 258.64 184.116 259.704C184.116 260.8 183.508 261.248 182.828 261.248C182.196 261.248 181.54 260.776 181.54 259.704C181.54 258.616 182.204 258.128 182.836 258.128ZM186.806 263.6C187.702 263.6 188.278 263.128 188.638 262.192L190.478 257.392L189.366 257.392L188.206 260.992L186.99 257.392L185.878 257.392L187.574 261.648C187.806 262.232 187.59 262.768 186.902 262.768C186.542 262.768 186.318 262.656 186.174 262.568L186.014 263.432C186.23 263.536 186.502 263.6 186.806 263.6ZM196.338 258.168C196.906 258.168 197.338 258.488 197.338 259.344L197.338 262L198.338 262L198.338 258.912C198.338 257.672 197.578 257.264 196.738 257.264C196.226 257.264 195.578 257.472 195.234 258.16C194.986 257.504 194.402 257.264 193.786 257.264C193.234 257.264 192.57 257.48 192.242 258.072L192.242 257.392L191.242 257.392L191.242 262L192.242 262L192.242 259.368C192.242 258.544 192.714 258.168 193.354 258.168C193.922 258.168 194.354 258.488 194.354 259.344L194.354 262L195.354 262L195.354 259.368C195.354 258.544 195.77 258.168 196.338 258.168ZM201.601 258.128C202.249 258.128 202.761 258.432 202.841 259.2L200.337 259.2C200.473 258.488 200.937 258.128 201.601 258.128ZM203.785 259.912L203.785 259.584C203.785 258.224 202.889 257.264 201.641 257.264C200.305 257.264 199.289 258.2 199.289 259.68C199.289 261.2 200.345 262.12 201.705 262.12C202.553 262.12 203.577 261.632 203.753 260.568L202.825 260.408C202.721 260.936 202.417 261.256 201.665 261.256C200.833 261.256 200.377 260.72 200.305 259.912L203.785 259.912ZM206.909 258.168C207.453 258.168 207.885 258.488 207.885 259.344L207.885 262L208.885 262L208.885 258.912C208.885 257.672 208.101 257.264 207.277 257.264C206.733 257.264 206.101 257.488 205.773 258.072L205.773 257.392L204.773 257.392L204.773 262L205.773 262L205.773 259.368C205.773 258.544 206.245 258.168 206.909 258.168ZM210.476 256.28L210.476 257.392L209.62 257.392L209.62 258.2L210.476 258.2L210.476 260.704C210.476 261.552 210.9 262.08 211.82 262.08C212.1 262.08 212.428 262.008 212.668 261.936L212.508 261.128C212.324 261.176 212.212 261.2 212.028 261.2C211.62 261.2 211.476 261.016 211.476 260.656L211.476 258.2L212.628 258.2L212.628 257.392L211.476 257.392L211.476 256.12L210.476 256.28Z" fill="#4D3280"/>
<path d="M142.288 169.144C142.048 167.672 140.784 166.88 139.528 166.88C137.816 166.88 136.4 168.12 136.4 169.96C136.4 171.928 137.832 173.12 139.552 173.12C140.712 173.12 142.16 172.344 142.336 170.696L141.256 170.536C141.168 171.728 140.352 172.096 139.552 172.096C138.416 172.096 137.528 171.448 137.528 169.96C137.528 168.608 138.416 167.904 139.488 167.904C140.224 167.904 141.032 168.208 141.208 169.304L142.288 169.144ZM147.462 173L147.462 168.392L146.462 168.392L146.462 171.072C146.462 171.856 145.942 172.216 145.27 172.216C144.654 172.216 144.35 171.944 144.35 171.232L144.35 168.392L143.35 168.392L143.35 171.608C143.35 172.672 144.118 173.12 144.886 173.12C145.462 173.12 146.102 172.856 146.462 172.224L146.462 173L147.462 173ZM148.63 169.688C148.63 170.328 148.998 170.8 149.782 170.968L150.622 171.152C151.198 171.28 151.358 171.448 151.358 171.72C151.358 172.104 150.982 172.32 150.43 172.32C149.782 172.32 149.358 172.016 149.294 171.448L148.406 171.608C148.558 172.68 149.558 173.12 150.454 173.12C151.342 173.12 152.286 172.624 152.286 171.624C152.286 170.984 151.91 170.552 151.094 170.376L150.182 170.176C149.718 170.072 149.558 169.848 149.558 169.608C149.558 169.272 149.878 169.064 150.334 169.064C150.886 169.064 151.294 169.264 151.326 169.864L152.214 169.704C151.95 168.672 151.254 168.264 150.326 168.264C149.574 168.264 148.63 168.68 148.63 169.688ZM153.617 167.28L153.617 168.392L152.761 168.392L152.761 169.2L153.617 169.2L153.617 171.704C153.617 172.552 154.041 173.08 154.961 173.08C155.241 173.08 155.569 173.008 155.809 172.936L155.649 172.128C155.465 172.176 155.353 172.2 155.169 172.2C154.761 172.2 154.617 172.016 154.617 171.656L154.617 169.2L155.769 169.2L155.769 168.392L154.617 168.392L154.617 167.12L153.617 167.28ZM158.741 168.264C157.493 168.264 156.461 169.176 156.461 170.688C156.461 172.2 157.493 173.12 158.741 173.12C159.989 173.12 161.021 172.2 161.021 170.688C161.021 169.176 159.989 168.264 158.741 168.264ZM158.741 169.128C159.429 169.128 160.013 169.632 160.013 170.688C160.013 171.744 159.429 172.256 158.741 172.256C158.053 172.256 157.469 171.744 157.469 170.688C157.469 169.632 158.053 169.128 158.741 169.128ZM167.111 169.168C167.679 169.168 168.111 169.488 168.111 170.344L168.111 173L169.111 173L169.111 169.912C169.111 168.672 168.351 168.264 167.511 168.264C166.999 168.264 166.351 168.472 166.007 169.16C165.759 168.504 165.175 168.264 164.559 168.264C164.007 168.264 163.343 168.48 163.015 169.072L163.015 168.392L162.015 168.392L162.015 173L163.015 173L163.015 170.368C163.015 169.544 163.487 169.168 164.127 169.168C164.695 169.168 165.127 169.488 165.127 170.344L165.127 173L166.127 173L166.127 170.368C166.127 169.544 166.543 169.168 167.111 169.168ZM172.375 169.128C173.023 169.128 173.535 169.432 173.615 170.2L171.111 170.2C171.247 169.488 171.711 169.128 172.375 169.128ZM174.559 170.912L174.559 170.584C174.559 169.224 173.663 168.264 172.415 168.264C171.079 168.264 170.063 169.2 170.063 170.68C170.063 172.2 171.119 173.12 172.479 173.12C173.327 173.12 174.351 172.632 174.527 171.568L173.599 171.408C173.495 171.936 173.191 172.256 172.439 172.256C171.607 172.256 171.151 171.72 171.079 170.912L174.559 170.912ZM177.754 169.344C178.002 169.344 178.178 169.376 178.354 169.448L178.45 168.328C178.354 168.28 178.218 168.264 178.098 168.264C177.642 168.264 176.922 168.528 176.546 169.496L176.546 168.392L175.546 168.392L175.546 173L176.546 173L176.546 170.984C176.546 169.704 177.106 169.344 177.754 169.344ZM185.615 170.184C185.447 168.944 184.463 168.264 183.391 168.264C182.071 168.264 181.071 169.2 181.071 170.688C181.071 172.112 182.055 173.12 183.463 173.12C184.351 173.12 185.391 172.632 185.607 171.224L184.695 171.064C184.591 171.848 184.159 172.248 183.455 172.248C182.519 172.248 182.079 171.536 182.079 170.688C182.079 169.664 182.639 169.128 183.343 169.128C183.983 169.128 184.519 169.472 184.631 170.344L185.615 170.184ZM186.554 166.8L186.554 173L187.554 173L187.554 170.368C187.554 169.544 188.026 169.168 188.698 169.168C189.234 169.168 189.666 169.488 189.666 170.344L189.666 173L190.666 173L190.666 169.912C190.666 168.672 189.906 168.264 189.026 168.264C188.538 168.264 187.882 168.48 187.554 169.072L187.554 166.8L186.554 166.8ZM193.898 168.264C192.65 168.264 191.618 169.176 191.618 170.688C191.618 172.2 192.65 173.12 193.898 173.12C195.146 173.12 196.178 172.2 196.178 170.688C196.178 169.176 195.146 168.264 193.898 168.264ZM193.898 169.128C194.586 169.128 195.17 169.632 195.17 170.688C195.17 171.744 194.586 172.256 193.898 172.256C193.21 172.256 192.626 171.744 192.626 170.688C192.626 169.632 193.21 169.128 193.898 169.128ZM199.163 168.264C197.915 168.264 196.883 169.176 196.883 170.688C196.883 172.2 197.915 173.12 199.163 173.12C200.411 173.12 201.443 172.2 201.443 170.688C201.443 169.176 200.411 168.264 199.163 168.264ZM199.163 169.128C199.851 169.128 200.435 169.632 200.435 170.688C200.435 171.744 199.851 172.256 199.163 172.256C198.475 172.256 197.891 171.744 197.891 170.688C197.891 169.632 198.475 169.128 199.163 169.128ZM202.341 169.688C202.341 170.328 202.709 170.8 203.493 170.968L204.333 171.152C204.909 171.28 205.069 171.448 205.069 171.72C205.069 172.104 204.693 172.32 204.141 172.32C203.493 172.32 203.069 172.016 203.005 171.448L202.117 171.608C202.269 172.68 203.269 173.12 204.165 173.12C205.053 173.12 205.997 172.624 205.997 171.624C205.997 170.984 205.621 170.552 204.805 170.376L203.893 170.176C203.429 170.072 203.269 169.848 203.269 169.608C203.269 169.272 203.589 169.064 204.045 169.064C204.597 169.064 205.005 169.264 205.037 169.864L205.925 169.704C205.661 168.672 204.965 168.264 204.037 168.264C203.285 168.264 202.341 168.68 202.341 169.688ZM209 169.128C209.648 169.128 210.16 169.432 210.24 170.2L207.736 170.2C207.872 169.488 208.336 169.128 209 169.128ZM211.184 170.912L211.184 170.584C211.184 169.224 210.288 168.264 209.04 168.264C207.704 168.264 206.688 169.2 206.688 170.68C206.688 172.2 207.744 173.12 209.104 173.12C209.952 173.12 210.976 172.632 211.152 171.568L210.224 171.408C210.12 171.936 209.816 172.256 209.064 172.256C208.232 172.256 207.776 171.72 207.704 170.912L211.184 170.912ZM212.075 169.688C212.075 170.328 212.443 170.8 213.227 170.968L214.067 171.152C214.643 171.28 214.803 171.448 214.803 171.72C214.803 172.104 214.427 172.32 213.875 172.32C213.227 172.32 212.803 172.016 212.739 171.448L211.851 171.608C212.003 172.68 213.003 173.12 213.899 173.12C214.787 173.12 215.731 172.624 215.731 171.624C215.731 170.984 215.355 170.552 214.539 170.376L213.627 170.176C213.163 170.072 213.003 169.848 213.003 169.608C213.003 169.272 213.323 169.064 213.779 169.064C214.331 169.064 214.739 169.264 214.771 169.864L215.659 169.704C215.395 168.672 214.699 168.264 213.771 168.264C213.019 168.264 212.075 168.68 212.075 169.688ZM219.219 167.28L219.219 168.392L218.363 168.392L218.363 169.2L219.219 169.2L219.219 171.704C219.219 172.552 219.643 173.08 220.563 173.08C220.843 173.08 221.171 173.008 221.411 172.936L221.251 172.128C221.067 172.176 220.955 172.2 220.771 172.2C220.363 172.2 220.219 172.016 220.219 171.656L220.219 169.2L221.371 169.2L221.371 168.392L220.219 168.392L220.219 167.12L219.219 167.28ZM224.343 168.264C223.095 168.264 222.063 169.176 222.063 170.688C222.063 172.2 223.095 173.12 224.343 173.12C225.591 173.12 226.623 172.2 226.623 170.688C226.623 169.176 225.591 168.264 224.343 168.264ZM224.343 169.128C225.031 169.128 225.615 169.632 225.615 170.688C225.615 171.744 225.031 172.256 224.343 172.256C223.655 172.256 223.071 171.744 223.071 170.688C223.071 169.632 223.655 169.128 224.343 169.128ZM232.333 168.264C231.549 168.264 231.069 168.76 230.773 169.296L230.773 168.392L229.773 168.392L229.773 174.6L230.773 174.6L230.773 172.128C231.157 172.784 231.653 173.12 232.237 173.12C233.309 173.12 234.357 172.304 234.357 170.624C234.357 169.016 233.269 168.264 232.333 168.264ZM232.061 169.128C232.693 169.128 233.349 169.632 233.349 170.68C233.349 171.744 232.693 172.248 232.053 172.248C231.381 172.248 230.773 171.704 230.773 170.68C230.773 169.608 231.381 169.128 232.061 169.128ZM237.15 173.12C237.974 173.12 238.478 172.616 238.71 172.048L238.71 173L239.71 173L239.71 168.392L238.71 168.392L238.71 169.296C238.382 168.568 237.878 168.264 237.158 168.264C236.19 168.264 235.126 169.04 235.126 170.648C235.126 172.336 236.198 173.12 237.15 173.12ZM237.43 169.128C238.102 169.128 238.71 169.64 238.71 170.704C238.71 171.8 238.102 172.248 237.422 172.248C236.79 172.248 236.134 171.776 236.134 170.704C236.134 169.616 236.798 169.128 237.43 169.128ZM241.4 174.6C242.296 174.6 242.872 174.128 243.232 173.192L245.072 168.392L243.96 168.392L242.8 171.992L241.584 168.392L240.472 168.392L242.168 172.648C242.4 173.232 242.184 173.768 241.496 173.768C241.136 173.768 240.912 173.656 240.768 173.568L240.608 174.432C240.824 174.536 241.096 174.6 241.4 174.6ZM143.28 181.392L142.168 181.392L141.184 184.752L140.072 181.392L139.328 181.392L138.224 184.736L137.232 181.392L136.12 181.392L137.776 186L138.64 186L139.704 183.088L140.76 186L141.624 186L143.28 181.392ZM144.038 181.392L144.038 186L145.038 186L145.038 181.392L144.038 181.392ZM144.534 179.4C144.198 179.4 143.934 179.672 143.934 180C143.934 180.328 144.198 180.6 144.534 180.6C144.87 180.6 145.134 180.328 145.134 180C145.134 179.672 144.87 179.4 144.534 179.4ZM146.672 180.28L146.672 181.392L145.816 181.392L145.816 182.2L146.672 182.2L146.672 184.704C146.672 185.552 147.096 186.08 148.016 186.08C148.296 186.08 148.624 186.008 148.864 185.936L148.704 185.128C148.52 185.176 148.408 185.2 148.224 185.2C147.816 185.2 147.672 185.016 147.672 184.656L147.672 182.2L148.824 182.2L148.824 181.392L147.672 181.392L147.672 180.12L146.672 180.28ZM149.804 179.8L149.804 186L150.804 186L150.804 183.368C150.804 182.544 151.276 182.168 151.948 182.168C152.484 182.168 152.916 182.488 152.916 183.344L152.916 186L153.916 186L153.916 182.912C153.916 181.672 153.156 181.264 152.276 181.264C151.788 181.264 151.132 181.48 150.804 182.072L150.804 179.8L149.804 179.8ZM161.392 181.392L160.28 181.392L159.096 184.872L157.904 181.392L156.792 181.392L158.632 186L159.552 186L161.392 181.392ZM162.156 181.392L162.156 186L163.156 186L163.156 181.392L162.156 181.392ZM162.652 179.4C162.316 179.4 162.052 179.672 162.052 180C162.052 180.328 162.316 180.6 162.652 180.6C162.988 180.6 163.252 180.328 163.252 180C163.252 179.672 162.988 179.4 162.652 179.4ZM166.997 181.264C166.213 181.264 165.733 181.76 165.437 182.296L165.437 181.392L164.437 181.392L164.437 187.6L165.437 187.6L165.437 185.128C165.821 185.784 166.317 186.12 166.901 186.12C167.973 186.12 169.021 185.304 169.021 183.624C169.021 182.016 167.933 181.264 166.997 181.264ZM166.725 182.128C167.357 182.128 168.013 182.632 168.013 183.68C168.013 184.744 167.357 185.248 166.717 185.248C166.045 185.248 165.437 184.704 165.437 183.68C165.437 182.608 166.045 182.128 166.725 182.128ZM172.606 181.264C171.822 181.264 171.342 181.76 171.046 182.296L171.046 181.392L170.046 181.392L170.046 187.6L171.046 187.6L171.046 185.128C171.43 185.784 171.926 186.12 172.51 186.12C173.582 186.12 174.63 185.304 174.63 183.624C174.63 182.016 173.542 181.264 172.606 181.264ZM172.334 182.128C172.966 182.128 173.622 182.632 173.622 183.68C173.622 184.744 172.966 185.248 172.326 185.248C171.654 185.248 171.046 184.704 171.046 183.68C171.046 182.608 171.654 182.128 172.334 182.128ZM175.56 182.688C175.56 183.328 175.928 183.8 176.712 183.968L177.552 184.152C178.128 184.28 178.288 184.448 178.288 184.72C178.288 185.104 177.912 185.32 177.36 185.32C176.712 185.32 176.288 185.016 176.224 184.448L175.336 184.608C175.488 185.68 176.488 186.12 177.384 186.12C178.272 186.12 179.216 185.624 179.216 184.624C179.216 183.984 178.84 183.552 178.024 183.376L177.112 183.176C176.648 183.072 176.488 182.848 176.488 182.608C176.488 182.272 176.808 182.064 177.264 182.064C177.816 182.064 178.224 182.264 178.256 182.864L179.144 182.704C178.88 181.672 178.184 181.264 177.256 181.264C176.504 181.264 175.56 181.68 175.56 182.688Z" fill="#FF5B24"/>
<path d="M141.176 50.744L141.168 50.808C141.072 51.568 140.456 52.096 139.512 52.096C138.52 52.096 137.528 51.504 137.528 50.024C137.528 48.616 138.352 47.904 139.456 47.904C140.296 47.904 141.008 48.224 141.144 49.224L142.2 49.064C141.968 47.392 140.52 46.88 139.52 46.88C137.728 46.88 136.4 48.168 136.4 50.024C136.4 51.8 137.704 53.12 139.224 53.12C140.192 53.12 140.88 52.52 141.2 51.88L141.208 51.88L141.392 53L142.28 53L142.28 49.8L139.6 49.8L139.6 50.744L141.176 50.744ZM145.594 49.128C146.242 49.128 146.754 49.432 146.834 50.2L144.33 50.2C144.466 49.488 144.93 49.128 145.594 49.128ZM147.778 50.912L147.778 50.584C147.778 49.224 146.882 48.264 145.634 48.264C144.298 48.264 143.282 49.2 143.282 50.68C143.282 52.2 144.338 53.12 145.698 53.12C146.546 53.12 147.57 52.632 147.746 51.568L146.818 51.408C146.714 51.936 146.41 52.256 145.658 52.256C144.826 52.256 144.37 51.72 144.298 50.912L147.778 50.912ZM149.117 47.28L149.117 48.392L148.261 48.392L148.261 49.2L149.117 49.2L149.117 51.704C149.117 52.552 149.541 53.08 150.461 53.08C150.741 53.08 151.069 53.008 151.309 52.936L151.149 52.128C150.965 52.176 150.853 52.2 150.669 52.2C150.261 52.2 150.117 52.016 150.117 51.656L150.117 49.2L151.269 49.2L151.269 48.392L150.117 48.392L150.117 47.12L149.117 47.28ZM156.174 53.12C156.998 53.12 157.502 52.616 157.734 52.048L157.734 53L158.734 53L158.734 48.392L157.734 48.392L157.734 49.296C157.406 48.568 156.902 48.264 156.182 48.264C155.214 48.264 154.15 49.04 154.15 50.648C154.15 52.336 155.222 53.12 156.174 53.12ZM156.454 49.128C157.126 49.128 157.734 49.64 157.734 50.704C157.734 51.8 157.126 52.248 156.446 52.248C155.814 52.248 155.158 51.776 155.158 50.704C155.158 49.616 155.822 49.128 156.454 49.128ZM164.271 50.184C164.103 48.944 163.119 48.264 162.047 48.264C160.727 48.264 159.727 49.2 159.727 50.688C159.727 52.112 160.711 53.12 162.119 53.12C163.007 53.12 164.047 52.632 164.263 51.224L163.351 51.064C163.247 51.848 162.815 52.248 162.111 52.248C161.175 52.248 160.735 51.536 160.735 50.688C160.735 49.664 161.295 49.128 161.999 49.128C162.639 49.128 163.175 49.472 163.287 50.344L164.271 50.184ZM169.466 50.184C169.298 48.944 168.314 48.264 167.242 48.264C165.922 48.264 164.922 49.2 164.922 50.688C164.922 52.112 165.906 53.12 167.314 53.12C168.202 53.12 169.242 52.632 169.458 51.224L168.546 51.064C168.442 51.848 168.01 52.248 167.306 52.248C166.37 52.248 165.93 51.536 165.93 50.688C165.93 49.664 166.49 49.128 167.194 49.128C167.834 49.128 168.37 49.472 168.482 50.344L169.466 50.184ZM172.43 49.128C173.078 49.128 173.59 49.432 173.67 50.2L171.166 50.2C171.302 49.488 171.766 49.128 172.43 49.128ZM174.614 50.912L174.614 50.584C174.614 49.224 173.718 48.264 172.47 48.264C171.134 48.264 170.118 49.2 170.118 50.68C170.118 52.2 171.174 53.12 172.534 53.12C173.382 53.12 174.406 52.632 174.582 51.568L173.654 51.408C173.55 51.936 173.246 52.256 172.494 52.256C171.662 52.256 171.206 51.72 171.134 50.912L174.614 50.912ZM175.505 49.688C175.505 50.328 175.873 50.8 176.657 50.968L177.497 51.152C178.073 51.28 178.233 51.448 178.233 51.72C178.233 52.104 177.857 52.32 177.305 52.32C176.657 52.32 176.233 52.016 176.169 51.448L175.281 51.608C175.433 52.68 176.433 53.12 177.329 53.12C178.217 53.12 179.161 52.624 179.161 51.624C179.161 50.984 178.785 50.552 177.969 50.376L177.057 50.176C176.593 50.072 176.433 49.848 176.433 49.608C176.433 49.272 176.753 49.064 177.209 49.064C177.761 49.064 178.169 49.264 178.201 49.864L179.089 49.704C178.825 48.672 178.129 48.264 177.201 48.264C176.449 48.264 175.505 48.68 175.505 49.688ZM180.044 49.688C180.044 50.328 180.412 50.8 181.196 50.968L182.036 51.152C182.612 51.28 182.772 51.448 182.772 51.72C182.772 52.104 182.396 52.32 181.844 52.32C181.196 52.32 180.772 52.016 180.708 51.448L179.82 51.608C179.972 52.68 180.972 53.12 181.868 53.12C182.756 53.12 183.7 52.624 183.7 51.624C183.7 50.984 183.324 50.552 182.508 50.376L181.596 50.176C181.132 50.072 180.972 49.848 180.972 49.608C180.972 49.272 181.292 49.064 181.748 49.064C182.3 49.064 182.708 49.264 182.74 49.864L183.628 49.704C183.364 48.672 182.668 48.264 181.74 48.264C180.988 48.264 180.044 48.68 180.044 49.688ZM187.187 47.28L187.187 48.392L186.331 48.392L186.331 49.2L187.187 49.2L187.187 51.704C187.187 52.552 187.611 53.08 188.531 53.08C188.811 53.08 189.139 53.008 189.379 52.936L189.219 52.128C189.035 52.176 188.923 52.2 188.739 52.2C188.331 52.2 188.187 52.016 188.187 51.656L188.187 49.2L189.339 49.2L189.339 48.392L188.187 48.392L188.187 47.12L187.187 47.28ZM192.312 48.264C191.064 48.264 190.032 49.176 190.032 50.688C190.032 52.2 191.064 53.12 192.312 53.12C193.56 53.12 194.592 52.2 194.592 50.688C194.592 49.176 193.56 48.264 192.312 48.264ZM192.312 49.128C193 49.128 193.584 49.632 193.584 50.688C193.584 51.744 193 52.256 192.312 52.256C191.624 52.256 191.04 51.744 191.04 50.688C191.04 49.632 191.624 49.128 192.312 49.128ZM195.585 53L196.585 53L196.585 51.896L197.433 50.944L198.809 53L199.849 53L198.001 50.296L199.697 48.392L198.609 48.392L196.585 50.776L196.585 46.8L195.585 46.8L195.585 53ZM202.516 49.128C203.164 49.128 203.676 49.432 203.756 50.2L201.252 50.2C201.388 49.488 201.852 49.128 202.516 49.128ZM204.7 50.912L204.7 50.584C204.7 49.224 203.804 48.264 202.556 48.264C201.22 48.264 200.204 49.2 200.204 50.68C200.204 52.2 201.26 53.12 202.62 53.12C203.468 53.12 204.492 52.632 204.668 51.568L203.74 51.408C203.636 51.936 203.332 52.256 202.58 52.256C201.748 52.256 201.292 51.72 201.22 50.912L204.7 50.912ZM207.823 49.168C208.367 49.168 208.799 49.488 208.799 50.344L208.799 53L209.799 53L209.799 49.912C209.799 48.672 209.015 48.264 208.191 48.264C207.647 48.264 207.015 48.488 206.687 49.072L206.687 48.392L205.687 48.392L205.687 53L206.687 53L206.687 50.368C206.687 49.544 207.159 49.168 207.823 49.168Z" fill="#FF5B24"/>
<path d="M135.544 99.608C135.544 101.92 138.864 101.16 138.864 102.432C138.864 102.888 138.512 103.192 137.832 103.192C137.184 103.192 136.44 102.976 136.336 101.952L135.304 102.192C135.464 103.48 136.6 104.12 137.8 104.12C138.864 104.12 139.912 103.512 139.912 102.368C139.912 100.128 136.608 100.944 136.608 99.568C136.608 99.096 136.968 98.808 137.584 98.808C138.12 98.808 138.72 99.048 138.768 99.88L139.824 99.64C139.648 98.4 138.576 97.88 137.632 97.88C136.584 97.88 135.544 98.456 135.544 99.608ZM142.922 100.128C143.57 100.128 144.082 100.432 144.162 101.2L141.658 101.2C141.794 100.488 142.258 100.128 142.922 100.128ZM145.106 101.912L145.106 101.584C145.106 100.224 144.21 99.264 142.962 99.264C141.626 99.264 140.61 100.2 140.61 101.68C140.61 103.2 141.666 104.12 143.026 104.12C143.874 104.12 144.898 103.632 145.074 102.568L144.146 102.408C144.042 102.936 143.738 103.256 142.986 103.256C142.154 103.256 141.698 102.72 141.626 101.912L145.106 101.912ZM146.445 98.28L146.445 99.392L145.589 99.392L145.589 100.2L146.445 100.2L146.445 102.704C146.445 103.552 146.869 104.08 147.789 104.08C148.069 104.08 148.397 104.008 148.637 103.936L148.477 103.128C148.293 103.176 148.181 103.2 147.997 103.2C147.589 103.2 147.445 103.016 147.445 102.656L147.445 100.2L148.597 100.2L148.597 99.392L147.445 99.392L147.445 98.12L146.445 98.28ZM155.822 104L155.822 99.392L154.822 99.392L154.822 102.072C154.822 102.856 154.302 103.216 153.63 103.216C153.014 103.216 152.71 102.944 152.71 102.232L152.71 99.392L151.71 99.392L151.71 102.608C151.71 103.672 152.478 104.12 153.246 104.12C153.822 104.12 154.462 103.856 154.822 103.224L154.822 104L155.822 104ZM159.645 99.264C158.861 99.264 158.381 99.76 158.085 100.296L158.085 99.392L157.085 99.392L157.085 105.6L158.085 105.6L158.085 103.128C158.469 103.784 158.965 104.12 159.549 104.12C160.621 104.12 161.669 103.304 161.669 101.624C161.669 100.016 160.581 99.264 159.645 99.264ZM159.373 100.128C160.005 100.128 160.661 100.632 160.661 101.68C160.661 102.744 160.005 103.248 159.365 103.248C158.693 103.248 158.085 102.704 158.085 101.68C158.085 100.608 158.693 100.128 159.373 100.128ZM166.875 100.128C167.523 100.128 168.035 100.432 168.115 101.2L165.611 101.2C165.747 100.488 166.211 100.128 166.875 100.128ZM169.059 101.912L169.059 101.584C169.059 100.224 168.163 99.264 166.915 99.264C165.579 99.264 164.563 100.2 164.563 101.68C164.563 103.2 165.619 104.12 166.979 104.12C167.827 104.12 168.851 103.632 169.027 102.568L168.099 102.408C167.995 102.936 167.691 103.256 166.939 103.256C166.107 103.256 165.651 102.72 165.579 101.912L169.059 101.912ZM172.182 100.168C172.726 100.168 173.158 100.488 173.158 101.344L173.158 104L174.158 104L174.158 100.912C174.158 99.672 173.374 99.264 172.55 99.264C172.006 99.264 171.374 99.488 171.046 100.072L171.046 99.392L170.046 99.392L170.046 104L171.046 104L171.046 101.368C171.046 100.544 171.518 100.168 172.182 100.168ZM179.726 97.8L178.726 97.8L178.726 100.296C178.398 99.568 177.902 99.264 177.278 99.264C176.206 99.264 175.142 100.04 175.142 101.648C175.142 103.336 176.214 104.12 177.15 104.12C177.99 104.12 178.494 103.68 178.726 103.128L178.726 104L179.726 104L179.726 97.8ZM177.446 100.128C178.118 100.128 178.726 100.664 178.726 101.704C178.726 102.776 178.118 103.248 177.438 103.248C176.806 103.248 176.15 102.752 176.15 101.704C176.15 100.64 176.814 100.128 177.446 100.128ZM183.567 99.264C182.783 99.264 182.303 99.76 182.007 100.296L182.007 99.392L181.007 99.392L181.007 105.6L182.007 105.6L182.007 103.128C182.391 103.784 182.887 104.12 183.471 104.12C184.543 104.12 185.591 103.304 185.591 101.624C185.591 100.016 184.503 99.264 183.567 99.264ZM183.295 100.128C183.927 100.128 184.583 100.632 184.583 101.68C184.583 102.744 183.927 103.248 183.287 103.248C182.615 103.248 182.007 102.704 182.007 101.68C182.007 100.608 182.615 100.128 183.295 100.128ZM188.609 99.264C187.361 99.264 186.329 100.176 186.329 101.688C186.329 103.2 187.361 104.12 188.609 104.12C189.857 104.12 190.889 103.2 190.889 101.688C190.889 100.176 189.857 99.264 188.609 99.264ZM188.609 100.128C189.297 100.128 189.881 100.632 189.881 101.688C189.881 102.744 189.297 103.256 188.609 103.256C187.921 103.256 187.337 102.744 187.337 101.688C187.337 100.632 187.921 100.128 188.609 100.128ZM191.882 99.392L191.882 104L192.882 104L192.882 99.392L191.882 99.392ZM192.378 97.4C192.042 97.4 191.778 97.672 191.778 98C191.778 98.328 192.042 98.6 192.378 98.6C192.714 98.6 192.978 98.328 192.978 98C192.978 97.672 192.714 97.4 192.378 97.4ZM196.299 100.168C196.843 100.168 197.275 100.488 197.275 101.344L197.275 104L198.275 104L198.275 100.912C198.275 99.672 197.491 99.264 196.667 99.264C196.123 99.264 195.491 99.488 195.163 100.072L195.163 99.392L194.163 99.392L194.163 104L195.163 104L195.163 101.368C195.163 100.544 195.635 100.168 196.299 100.168ZM199.867 98.28L199.867 99.392L199.011 99.392L199.011 100.2L199.867 100.2L199.867 102.704C199.867 103.552 200.291 104.08 201.211 104.08C201.491 104.08 201.819 104.008 202.059 103.936L201.899 103.128C201.715 103.176 201.603 103.2 201.419 103.2C201.011 103.2 200.867 103.016 200.867 102.656L200.867 100.2L202.019 100.2L202.019 99.392L200.867 99.392L200.867 98.12L199.867 98.28ZM202.903 100.688C202.903 101.328 203.271 101.8 204.055 101.968L204.895 102.152C205.471 102.28 205.631 102.448 205.631 102.72C205.631 103.104 205.255 103.32 204.703 103.32C204.055 103.32 203.631 103.016 203.567 102.448L202.679 102.608C202.831 103.68 203.831 104.12 204.727 104.12C205.615 104.12 206.559 103.624 206.559 102.624C206.559 101.984 206.183 101.552 205.367 101.376L204.455 101.176C203.991 101.072 203.831 100.848 203.831 100.608C203.831 100.272 204.151 100.064 204.607 100.064C205.159 100.064 205.567 100.264 205.599 100.864L206.487 100.704C206.223 99.672 205.527 99.264 204.599 99.264C203.847 99.264 202.903 99.68 202.903 100.688Z" fill="#FF5B24"/>
<path d="M192.704 538L192.704 544L193.752 544L193.752 541.712L194.512 541.712C195.16 541.712 195.536 541.968 195.632 542.52L195.792 543.448C195.84 543.744 195.976 543.904 196.136 544L197.4 544C197.176 543.864 197 543.624 196.928 543.344L196.68 542.376C196.536 541.808 196.264 541.544 195.872 541.384C196.424 541.064 196.848 540.512 196.848 539.816C196.848 538.696 196.096 538 194.784 538L192.704 538ZM194.76 538.936C195.32 538.936 195.728 539.264 195.728 539.864C195.728 540.392 195.36 540.776 194.768 540.776L193.752 540.776L193.752 538.936L194.76 538.936ZM199.922 540.128C200.57 540.128 201.082 540.432 201.162 541.2L198.658 541.2C198.794 540.488 199.258 540.128 199.922 540.128ZM202.106 541.912L202.106 541.584C202.106 540.224 201.21 539.264 199.962 539.264C198.626 539.264 197.61 540.2 197.61 541.68C197.61 543.2 198.666 544.12 200.026 544.12C200.874 544.12 201.898 543.632 202.074 542.568L201.146 542.408C201.042 542.936 200.738 543.256 199.986 543.256C199.154 543.256 198.698 542.72 198.626 541.912L202.106 541.912ZM203.357 544L204.357 544L204.357 540.2L205.501 540.2L205.501 539.392L204.357 539.392L204.357 539.208C204.357 538.736 204.581 538.488 204.989 538.488C205.205 538.488 205.389 538.52 205.581 538.576L205.717 537.8C205.493 537.72 205.221 537.648 204.885 537.648C203.965 537.648 203.357 538.24 203.357 539.216L203.357 539.392L202.725 539.392L202.725 540.2L203.357 540.2L203.357 544ZM210.298 544L210.298 539.392L209.298 539.392L209.298 542.072C209.298 542.856 208.778 543.216 208.106 543.216C207.49 543.216 207.186 542.944 207.186 542.232L207.186 539.392L206.186 539.392L206.186 542.608C206.186 543.672 206.954 544.12 207.722 544.12C208.298 544.12 208.938 543.856 209.298 543.224L209.298 544L210.298 544ZM213.698 540.168C214.242 540.168 214.674 540.488 214.674 541.344L214.674 544L215.674 544L215.674 540.912C215.674 539.672 214.89 539.264 214.066 539.264C213.522 539.264 212.89 539.488 212.562 540.072L212.562 539.392L211.562 539.392L211.562 544L212.562 544L212.562 541.368C212.562 540.544 213.034 540.168 213.698 540.168ZM221.241 537.8L220.241 537.8L220.241 540.296C219.913 539.568 219.417 539.264 218.793 539.264C217.721 539.264 216.657 540.04 216.657 541.648C216.657 543.336 217.729 544.12 218.665 544.12C219.505 544.12 220.009 543.68 220.241 543.128L220.241 544L221.241 544L221.241 537.8ZM218.961 540.128C219.633 540.128 220.241 540.664 220.241 541.704C220.241 542.776 219.633 543.248 218.953 543.248C218.321 543.248 217.665 542.752 217.665 541.704C217.665 540.64 218.329 540.128 218.961 540.128Z" fill="#4D3280"/>
<path d="M105.214 327.947C105.214 342.454 93.4536 354.214 78.9469 354.214C64.4402 354.214 52.68 342.454 52.68 327.947C52.68 313.44 64.4402 301.68 78.9469 301.68C93.4536 301.68 105.214 313.44 105.214 327.947Z" fill="#EEEDF3"/>
<path fill-rule="evenodd" clip-rule="evenodd" d="M81.9643 354.042C81.9593 344.478 81.964 333.93 82.005 331.533C82.169 321.946 91.6214 323.989 91.6214 323.989L103.086 331.533L103.082 338.329C99.4374 346.791 91.4721 352.955 81.9643 354.042Z" fill="#FFD3BB"/>
<path d="M99.6755 334.297L83.0461 337.554C81.4455 337.867 79.8932 336.824 79.5797 335.223L73.0135 301.699C72.6999 300.098 73.7437 298.547 75.3443 298.233L91.9738 294.976C93.5747 294.662 95.1266 295.706 95.4402 297.307L102.006 330.83C102.32 332.431 101.276 333.983 99.6755 334.297Z" fill="#FF5A23"/>
<path d="M101.616 328.624L79.1888 333.017L73.5197 304.074L95.9464 299.681L101.616 328.624Z" fill="#FF985F"/>
<path d="M79.2154 323.166L73.2661 323.629C71.6681 323.753 70.2723 322.559 70.1478 320.961C70.0234 319.363 71.2185 317.967 72.8159 317.843L78.7655 317.38C80.3631 317.255 81.759 318.45 81.8834 320.048C82.0079 321.646 80.8134 323.042 79.2154 323.166Z" fill="#FFD3BB"/>
<path d="M79.711 328.603L73.7617 329.066C72.1638 329.19 70.7679 327.996 70.6434 326.398C70.5189 324.799 71.7135 323.404 73.3115 323.279L79.2608 322.817C80.8587 322.692 82.2546 323.887 82.379 325.484C82.5035 327.082 81.309 328.479 79.711 328.603Z" fill="#FFD3BB"/>
<path d="M80.7107 333.931L74.7612 334.394C73.1637 334.518 71.767 333.324 71.6429 331.726C71.5187 330.128 72.7133 328.732 74.311 328.608L80.2606 328.145C81.8582 328.02 83.2544 329.215 83.3788 330.813C83.5032 332.411 82.3084 333.807 80.7107 333.931Z" fill="#FFD3BB"/>
<path d="M91.5835 319.638L85.4033 320.848C83.8359 321.155 82.3023 320.124 81.9953 318.557L80.785 312.376C80.4781 310.809 81.5094 309.275 83.0768 308.969L89.2571 307.758C90.8245 307.451 92.3581 308.483 92.665 310.05L93.8753 316.23C94.1822 317.798 93.1509 319.331 91.5835 319.638Z" fill="white"/>
<path d="M84.7563 315.414L87.4026 316.653L90.3247 310.327" stroke="#48367D" stroke-width="0.24" stroke-linecap="round" stroke-linejoin="round"/>
<path fill-rule="evenodd" clip-rule="evenodd" d="M101.742 341.006C101.364 341.154 100.953 341.297 100.51 341.428C97.3426 342.365 92.6131 338.26 92.6131 338.26C92.6131 338.26 92.7469 336.564 92.97 334.735C93.1931 332.906 94.3532 331.255 94.9332 330.719C92.6131 330.228 90.9622 329.425 89.7575 327.819C88.5076 326.152 87.6158 324.696 87.3928 322.108C87.1697 319.52 88.1066 318.583 89.2221 318.048C90.3375 317.512 91.3191 317.78 92.39 318.315C93.2233 318.732 93.7158 320.327 93.8178 321.483C93.9516 323 94.2939 323.371 94.9778 324.027C95.5043 324.531 96.6287 324.517 97.3872 324.428C98.1457 324.339 98.834 324.379 100.154 324.696C101.269 324.963 102.384 325.722 103.321 326.971C104.342 328.332 104.682 329.982 104.905 331.986C104.405 335.226 103.313 338.271 101.742 341.006Z" fill="#FFD3BB"/>
<path d="M109.76 542.026C109.76 556.533 121.52 568.293 136.027 568.293C150.534 568.293 162.294 556.533 162.294 542.026C162.294 527.519 150.534 515.76 136.027 515.76C121.52 515.76 109.76 527.519 109.76 542.026Z" fill="#EEEDF3"/>
<path d="M145.208 550.068C145.208 550.068 142.103 558.168 130.389 558.677L124.31 548.601" fill="#FFD3BA"/>
<path d="M127.631 542.526C127.631 542.526 134.735 547.231 132.195 558.677L127.625 559.862" fill="#FFD3BA"/>
<path fill-rule="evenodd" clip-rule="evenodd" d="M121.674 564.334L133.828 557.842L125.764 546.922L112.513 554.051C114.604 558.238 117.781 561.789 121.674 564.334Z" fill="#FFD3BA"/>
<path d="M122.732 554.278C122.007 554.276 121.283 553.997 120.731 553.442C119.628 552.332 119.633 550.538 120.743 549.435C125.914 544.296 122.675 535.468 122.642 535.379C122.081 533.919 122.813 532.284 124.274 531.724C125.735 531.163 127.375 531.898 127.935 533.359C128.127 533.859 132.542 545.697 124.738 553.454C124.183 554.006 123.457 554.28 122.732 554.278Z" fill="#FFD3BA"/>
<path d="M132.051 533.75C131.656 534.093 131.26 534.436 130.865 534.78C129.835 535.673 128.772 536.529 127.774 537.457C126.18 538.937 125.188 540.763 124.795 542.905C124.397 545.074 124.677 547.16 125.651 549.138C126.585 551.035 128.012 552.46 129.884 553.438C131.217 554.134 132.638 554.509 134.141 554.567C136.959 554.677 139.439 553.825 141.526 551.916C143.009 550.559 143.942 548.872 144.385 546.914C144.622 545.863 144.689 544.8 144.576 543.73C144.348 541.555 143.507 539.649 142.042 538.021C141.521 537.443 140.917 536.959 140.332 536.453C139.312 535.573 138.29 534.697 137.269 533.819C137.245 533.797 137.224 533.773 137.202 533.749C137.062 533.748 136.923 533.751 136.784 533.744C136.699 533.74 136.68 533.777 136.682 533.853C136.687 533.996 136.683 534.139 136.683 534.283C136.683 535.708 136.683 537.134 136.683 538.559C136.683 538.819 136.588 539.024 136.357 539.149C135.935 539.378 135.449 539.074 135.448 538.58C135.446 537.458 135.447 536.335 135.447 535.213C135.447 534.762 135.445 534.312 135.449 533.861C135.45 533.769 135.425 533.74 135.333 533.743C135.132 533.75 134.931 533.745 134.731 533.745C133.838 533.748 132.944 533.749 132.051 533.75ZM134.419 548.617C134.235 548.617 134.051 548.613 133.866 548.619C133.783 548.622 133.765 548.594 133.766 548.516C133.77 548.249 133.76 547.983 133.771 547.717C133.776 547.592 133.741 547.543 133.618 547.511C133.179 547.4 132.785 547.198 132.455 546.882C131.941 546.389 131.754 545.777 131.796 545.079C131.843 544.315 132.187 543.743 132.863 543.374C133.326 543.12 133.834 542.993 134.334 542.841C134.628 542.752 134.923 542.666 135.182 542.494C135.436 542.326 135.563 542.093 135.534 541.786C135.506 541.482 135.343 541.271 135.065 541.147C134.843 541.049 134.608 541.024 134.369 541.041C133.828 541.078 133.532 541.309 133.364 541.824C133.333 541.921 133.31 542.021 133.292 542.121C133.279 542.192 133.264 542.222 133.178 542.208C132.782 542.147 132.384 542.097 131.987 542.039C131.705 541.998 131.705 541.995 131.771 541.713C132.016 540.655 132.588 539.906 133.7 539.667C133.767 539.652 133.769 539.614 133.768 539.561C133.766 539.291 133.773 539.02 133.765 538.75C133.762 538.643 133.797 538.622 133.896 538.624C134.248 538.63 134.6 538.629 134.953 538.624C135.045 538.623 135.081 538.642 135.078 538.744C135.071 539.014 135.078 539.285 135.074 539.555C135.073 539.627 135.095 539.656 135.165 539.671C135.265 539.691 135.364 539.716 135.461 539.747C136.086 539.953 136.59 540.307 136.846 540.937C137.057 541.456 137.063 541.99 136.92 542.527C136.743 543.187 136.279 543.591 135.687 543.876C135.235 544.093 134.752 544.222 134.283 544.389C134.025 544.481 133.768 544.577 133.553 544.755C133.42 544.866 133.324 545 133.298 545.175C133.241 545.539 133.406 545.86 133.747 546.035C134.163 546.248 134.6 546.234 135.04 546.136C135.503 546.032 135.789 545.742 135.909 545.284C135.949 545.132 135.966 544.977 135.971 544.823C135.974 544.734 136.009 544.725 136.082 544.736C136.514 544.801 136.948 544.867 137.381 544.926C137.454 544.937 137.466 544.964 137.46 545.029C137.436 545.279 137.383 545.522 137.289 545.754C136.9 546.712 136.174 547.285 135.194 547.556C135.104 547.582 135.069 547.61 135.072 547.708C135.079 547.974 135.069 548.24 135.077 548.507C135.08 548.602 135.048 548.622 134.959 548.619C134.78 548.612 134.599 548.617 134.419 548.617Z" fill="#FF985F"/>
<path d="M137.018 532.514C137.584 531.533 138.152 530.553 138.714 529.57C139.444 528.291 138.725 526.733 137.278 526.459C137.154 526.435 137.027 526.426 136.9 526.426C135.384 526.427 133.869 526.426 132.354 526.426C130.737 526.426 129.73 528.138 130.527 529.546C131.071 530.511 131.633 531.467 132.187 532.426C132.203 532.454 132.216 532.485 132.231 532.513C133.532 532.514 134.834 532.515 136.135 532.516C136.43 532.517 136.723 532.515 137.018 532.514Z" fill="#FF985F"/>
<path d="M137.018 532.514C136.723 532.515 136.429 532.518 136.135 532.518C134.833 532.517 133.531 532.516 132.231 532.515C132.153 532.516 132.075 532.518 131.997 532.518C131.639 532.52 131.366 532.781 131.363 533.129C131.359 533.467 131.629 533.737 131.979 533.747C132.003 533.748 132.028 533.749 132.053 533.751C132.946 533.75 133.839 533.748 134.732 533.747C134.932 533.747 135.133 533.752 135.334 533.745C135.427 533.742 135.451 533.771 135.45 533.863C135.446 534.313 135.448 534.764 135.448 535.215C135.448 536.337 135.447 537.46 135.449 538.582C135.45 539.076 135.936 539.38 136.358 539.151C136.589 539.026 136.684 538.82 136.684 538.561C136.683 537.136 136.684 535.71 136.684 534.285C136.684 534.141 136.688 533.998 136.683 533.855C136.681 533.779 136.7 533.742 136.785 533.746C136.924 533.753 137.063 533.75 137.203 533.751C137.594 533.736 137.839 533.541 137.883 533.213C137.931 532.85 137.655 532.527 137.29 532.519C137.199 532.516 137.108 532.515 137.018 532.514Z" fill="#FD5B24"/>
<path d="M134.419 548.617C134.599 548.617 134.78 548.612 134.96 548.619C135.049 548.622 135.08 548.602 135.078 548.507C135.071 548.24 135.08 547.974 135.073 547.708C135.07 547.611 135.104 547.581 135.195 547.556C136.176 547.285 136.901 546.712 137.29 545.754C137.384 545.521 137.437 545.279 137.461 545.029C137.467 544.964 137.455 544.937 137.382 544.926C136.949 544.866 136.516 544.802 136.083 544.736C136.01 544.725 135.975 544.734 135.972 544.823C135.967 544.978 135.95 545.132 135.91 545.284C135.79 545.743 135.504 546.032 135.041 546.136C134.601 546.234 134.164 546.249 133.748 546.036C133.407 545.86 133.243 545.538 133.299 545.175C133.326 545 133.421 544.866 133.554 544.755C133.769 544.577 134.026 544.481 134.284 544.389C134.753 544.222 135.237 544.093 135.688 543.876C136.279 543.591 136.744 543.188 136.921 542.527C137.064 541.991 137.058 541.456 136.847 540.938C136.59 540.307 136.086 539.953 135.462 539.748C135.364 539.716 135.265 539.69 135.166 539.671C135.097 539.657 135.074 539.628 135.075 539.555C135.079 539.285 135.072 539.014 135.079 538.744C135.082 538.643 135.047 538.622 134.954 538.624C134.601 538.629 134.249 538.629 133.897 538.624C133.798 538.622 133.763 538.644 133.766 538.75C133.774 539.02 133.768 539.291 133.769 539.561C133.769 539.614 133.767 539.653 133.701 539.667C132.59 539.906 132.017 540.655 131.772 541.713C131.706 541.997 131.706 541.999 131.988 542.04C132.384 542.097 132.783 542.147 133.179 542.208C133.265 542.222 133.28 542.192 133.293 542.121C133.311 542.021 133.334 541.921 133.365 541.824C133.534 541.309 133.829 541.078 134.37 541.041C134.61 541.025 134.844 541.049 135.066 541.148C135.344 541.27 135.507 541.482 135.535 541.787C135.564 542.093 135.437 542.326 135.183 542.494C134.923 542.666 134.628 542.752 134.335 542.841C133.835 542.993 133.328 543.121 132.864 543.374C132.188 543.744 131.844 544.315 131.798 545.079C131.756 545.777 131.942 546.39 132.456 546.882C132.786 547.199 133.18 547.401 133.619 547.511C133.743 547.542 133.778 547.592 133.772 547.717C133.761 547.983 133.771 548.25 133.767 548.516C133.766 548.594 133.784 548.622 133.867 548.619C134.051 548.612 134.235 548.617 134.419 548.617Z" fill="#FF985F"/>
<path d="M132.348 545.906H133.065V545.179L133.469 544.693L134.278 545.906H135.077L133.899 544.181L134.918 542.957H134.109L133.065 544.319V541.938H132.348V545.906ZM136.746 543.679C136.848 543.679 136.971 543.704 137.084 543.745L137.13 542.916C137.064 542.89 136.982 542.875 136.905 542.875C136.623 542.875 136.275 543.018 136.045 543.582V542.957H135.323V545.906H136.045V544.462C136.045 543.832 136.403 543.679 136.746 543.679Z" fill="#FFF4EC"/>
<path d="M148.57 544.094L144.629 544.495C143.209 544.613 141.962 543.557 141.844 542.137C141.726 540.717 142.782 539.47 144.202 539.353L148.143 538.952C149.563 538.834 150.81 539.89 150.928 541.31C151.046 542.73 149.99 543.976 148.57 544.094Z" fill="#FFD3BA"/>
<path d="M147.79 549.967L143.829 550.041C142.404 550.042 141.249 548.887 141.248 547.462C141.248 546.038 142.402 544.882 143.827 544.881L147.788 544.807C149.213 544.806 150.369 545.961 150.369 547.386C150.37 548.811 149.215 549.966 147.79 549.967Z" fill="#FFD3BA"/>
<path d="M146.899 555.236L142.949 554.941C141.53 554.809 140.487 553.551 140.619 552.133C140.752 550.714 142.009 549.671 143.428 549.804L147.379 550.099C148.797 550.231 149.84 551.488 149.708 552.907C149.576 554.326 148.318 555.369 146.899 555.236Z" fill="#FFD3BA"/>
<path d="M105.267 480.027C105.267 494.534 93.5067 506.294 79 506.294C64.4932 506.294 52.7331 494.534 52.7331 480.027C52.7331 465.52 64.4932 453.76 79 453.76C93.5067 453.76 105.267 465.52 105.267 480.027Z" fill="#EEEDF3"/>
<path d="M67.4308 470.647C67.9824 471.126 68.5354 471.605 69.087 472.083C70.5231 473.329 72.0064 474.524 73.3996 475.819C75.6231 477.885 77.0078 480.433 77.5565 483.421C78.1109 486.447 77.7208 489.358 76.3619 492.119C75.0587 494.765 73.0667 496.753 70.4545 498.118C68.5954 499.09 66.612 499.613 64.5157 499.694C60.5831 499.847 57.1222 498.658 54.2099 495.994C52.1408 494.101 50.839 491.748 50.2217 489.015C49.8901 487.549 49.7972 486.066 49.9544 484.573C50.2731 481.537 51.4463 478.878 53.4911 476.606C54.2171 475.8 55.0602 475.124 55.8761 474.418C57.2994 473.191 58.7255 471.968 60.1502 470.743C60.1845 470.713 60.213 470.679 60.2445 470.646C60.4388 470.644 60.6332 470.649 60.8275 470.639C60.9461 470.633 60.9718 470.684 60.969 470.79C60.9633 470.99 60.9675 471.19 60.9675 471.39C60.9675 473.379 60.9675 475.369 60.9675 477.358C60.9675 477.719 61.1004 478.006 61.4234 478.181C62.0121 478.499 62.6895 478.075 62.6909 477.386C62.6937 475.82 62.6923 474.254 62.6923 472.688C62.6923 472.059 62.6952 471.43 62.6895 470.802C62.688 470.673 62.7237 470.633 62.8524 470.637C63.1324 470.647 63.4125 470.64 63.6926 470.64C64.9387 470.644 66.1847 470.646 67.4308 470.647ZM64.127 491.392C64.3842 491.392 64.6414 491.386 64.8986 491.395C65.0144 491.399 65.0401 491.359 65.0387 491.25C65.033 490.879 65.0473 490.507 65.0315 490.136C65.0244 489.961 65.073 489.893 65.2445 489.848C65.8575 489.694 66.4076 489.411 66.8678 488.971C67.5851 488.282 67.8452 487.429 67.7866 486.455C67.7223 485.389 67.2422 484.591 66.299 484.075C65.6517 483.721 64.9429 483.544 64.2456 483.332C63.8355 483.208 63.4239 483.088 63.0624 482.848C62.708 482.613 62.5308 482.288 62.5708 481.86C62.6109 481.436 62.8381 481.142 63.2253 480.969C63.5354 480.832 63.8641 480.797 64.197 480.82C64.9515 480.872 65.3645 481.195 65.5988 481.913C65.6431 482.048 65.6746 482.188 65.7003 482.328C65.7174 482.426 65.7389 482.468 65.8589 482.449C66.4119 482.363 66.9664 482.293 67.5208 482.213C67.9138 482.156 67.9138 482.152 67.8223 481.758C67.4808 480.281 66.682 479.237 65.1301 478.902C65.0373 478.882 65.0344 478.83 65.0358 478.755C65.0387 478.378 65.0287 478.001 65.0401 477.624C65.0444 477.475 64.9958 477.445 64.8572 477.448C64.3656 477.456 63.8741 477.455 63.3825 477.448C63.2539 477.446 63.2039 477.473 63.2082 477.615C63.2182 477.992 63.2082 478.369 63.2139 478.747C63.2153 478.847 63.1839 478.888 63.0867 478.908C62.9467 478.937 62.8081 478.971 62.6737 479.015C61.8006 479.303 61.0976 479.796 60.7403 480.676C60.446 481.399 60.4374 482.145 60.6374 482.894C60.8847 483.815 61.532 484.378 62.3579 484.776C62.9881 485.078 63.6626 485.259 64.3171 485.491C64.6772 485.62 65.0358 485.754 65.3359 486.003C65.5217 486.157 65.6546 486.345 65.6917 486.589C65.7703 487.096 65.5403 487.545 65.0644 487.789C64.4842 488.086 63.8741 488.066 63.261 487.929C62.6151 487.785 62.215 487.381 62.0478 486.74C61.9921 486.529 61.9692 486.313 61.9621 486.097C61.9578 485.973 61.9092 485.96 61.8063 485.976C61.2033 486.067 60.5989 486.159 59.9944 486.242C59.8929 486.256 59.8758 486.295 59.8844 486.385C59.9172 486.733 59.9915 487.073 60.123 487.396C60.666 488.734 61.6777 489.533 63.0453 489.911C63.171 489.947 63.2196 489.987 63.2167 490.123C63.2067 490.494 63.2196 490.866 63.2096 491.237C63.2053 491.37 63.2496 491.399 63.3739 491.395C63.624 491.385 63.8755 491.392 64.127 491.392Z" fill="#FF985F"/>
<path d="M60.5003 468.922C59.7115 467.553 58.9184 466.186 58.1339 464.814C57.115 463.029 58.1196 460.856 60.1373 460.473C60.3117 460.44 60.4888 460.427 60.666 460.427C62.7809 460.428 64.8944 460.427 67.0093 460.427C69.2656 460.427 70.6703 462.816 69.5585 464.781C68.7983 466.127 68.0153 467.46 67.2422 468.799C67.2193 468.838 67.2007 468.881 67.1807 468.921C65.3645 468.922 63.5483 468.924 61.7335 468.925C61.3219 468.927 60.9118 468.924 60.5003 468.922Z" fill="#FF985F"/>
<path d="M60.5002 468.922C60.9117 468.924 61.3218 468.928 61.7334 468.928C63.5496 468.926 65.3658 468.925 67.1806 468.924C67.2892 468.925 67.3978 468.928 67.5064 468.928C68.0066 468.931 68.3867 469.295 68.391 469.78C68.3967 470.251 68.0209 470.628 67.5322 470.643C67.4979 470.644 67.4636 470.645 67.4293 470.648C66.1832 470.647 64.9371 470.644 63.6911 470.643C63.411 470.643 63.1309 470.65 62.8508 470.64C62.7208 470.635 62.6865 470.675 62.6879 470.804C62.6937 471.433 62.6908 472.062 62.6908 472.69C62.6908 474.256 62.6922 475.823 62.6894 477.389C62.6879 478.078 62.0106 478.502 61.4219 478.183C61.0989 478.009 60.966 477.72 60.966 477.36C60.9675 475.371 60.966 473.382 60.966 471.393C60.966 471.193 60.9617 470.993 60.9675 470.793C60.9703 470.687 60.9446 470.635 60.826 470.641C60.6317 470.651 60.4373 470.647 60.243 470.648C59.6971 470.627 59.3556 470.355 59.2941 469.897C59.227 469.391 59.6114 468.941 60.1215 468.929C60.2487 468.925 60.3744 468.924 60.5002 468.922Z" fill="#FD5B24"/>
<path d="M64.1267 491.392C63.8752 491.392 63.6238 491.385 63.3723 491.395C63.2479 491.399 63.2051 491.37 63.2079 491.238C63.2179 490.866 63.2051 490.494 63.2151 490.123C63.2194 489.987 63.1708 489.946 63.0436 489.911C61.6761 489.533 60.6643 488.734 60.1213 487.396C59.9899 487.072 59.9156 486.733 59.8827 486.385C59.8741 486.295 59.8913 486.256 59.9927 486.242C60.5972 486.158 61.2016 486.068 61.8047 485.976C61.9076 485.96 61.9561 485.973 61.9604 486.098C61.9676 486.313 61.9904 486.529 62.0462 486.741C62.2134 487.381 62.6135 487.785 63.2594 487.929C63.8724 488.067 64.4826 488.087 65.0627 487.789C65.5386 487.545 65.7686 487.095 65.69 486.589C65.6515 486.345 65.52 486.158 65.3342 486.003C65.0341 485.755 64.6755 485.62 64.3154 485.492C63.6609 485.259 62.985 485.079 62.3563 484.776C61.5317 484.378 60.883 483.815 60.6358 482.894C60.4357 482.146 60.4443 481.399 60.7387 480.676C61.0973 479.796 61.8004 479.303 62.6721 479.016C62.8078 478.971 62.9464 478.936 63.085 478.908C63.1808 478.89 63.2136 478.848 63.2122 478.747C63.2065 478.37 63.2165 477.992 63.2065 477.615C63.2022 477.474 63.2508 477.445 63.3808 477.448C63.8724 477.455 64.364 477.455 64.8555 477.448C64.9941 477.445 65.0427 477.475 65.0384 477.624C65.027 478.001 65.0356 478.378 65.0341 478.755C65.0341 478.83 65.037 478.884 65.1285 478.903C66.6789 479.237 67.4791 480.282 67.8206 481.758C67.9121 482.154 67.9121 482.156 67.5191 482.214C66.9661 482.294 66.4102 482.364 65.8572 482.449C65.7372 482.468 65.7158 482.426 65.6986 482.328C65.6729 482.188 65.6415 482.048 65.5972 481.913C65.3614 481.195 64.9498 480.872 64.1953 480.82C63.861 480.797 63.5337 480.832 63.2236 480.969C62.8364 481.14 62.6092 481.436 62.5692 481.861C62.5292 482.288 62.7063 482.614 63.0607 482.848C63.4237 483.088 63.8352 483.208 64.2439 483.332C64.9413 483.544 65.65 483.723 66.2974 484.076C67.2405 484.591 67.7206 485.389 67.7849 486.455C67.8435 487.429 67.5834 488.284 66.8661 488.971C66.406 489.413 65.8558 489.694 65.2428 489.849C65.0699 489.891 65.0213 489.961 65.0299 490.136C65.0456 490.507 65.0313 490.879 65.037 491.25C65.0384 491.359 65.0127 491.399 64.897 491.395C64.6412 491.385 64.384 491.392 64.1267 491.392Z" fill="#FF985F"/>
<path d="M60.7608 487.912H61.761V486.898L62.3254 486.219L63.4541 487.912H64.5686L62.9255 485.504L64.3472 483.797H63.2184L61.761 485.697V482.375H60.7608V487.912Z" fill="#FFF4EC"/>
<path d="M66.898 484.804C67.0409 484.804 67.2124 484.84 67.3695 484.897L67.4338 483.74C67.341 483.704 67.2267 483.683 67.1195 483.683C66.7266 483.683 66.2408 483.883 65.9193 484.669V483.797H64.9119V487.912H65.9193V485.897C65.9193 485.019 66.4194 484.804 66.898 484.804Z" fill="#FFF4EC"/>
<path fill-rule="evenodd" clip-rule="evenodd" d="M78.9999 506.294C93.5066 506.294 105.267 494.534 105.267 480.027C105.267 479.354 105.241 478.687 105.192 478.027H70.4834C69.2664 478.027 68.28 479.014 68.28 480.231V504.014C71.5534 505.479 75.1815 506.294 78.9999 506.294Z" fill="#C8C5D6"/>
<path fill-rule="evenodd" clip-rule="evenodd" d="M105.036 483.523C105.188 482.379 105.267 481.212 105.267 480.027C105.267 479.354 105.241 478.687 105.192 478.027H70.5624C69.3016 478.027 68.28 479.049 68.28 480.309V483.523H105.036Z" fill="#48367D"/>
<path d="M73.99 480.796C73.99 481.427 73.4795 481.937 72.8493 481.937C72.2191 481.937 71.7079 481.427 71.7079 480.796C71.7079 480.166 72.2191 479.655 72.8493 479.655C73.4795 479.655 73.99 480.166 73.99 480.796Z" fill="white"/>
<path d="M77.7348 480.775C77.7348 481.405 77.224 481.916 76.5941 481.916C75.9636 481.916 75.4527 481.405 75.4527 480.775C75.4527 480.145 75.9636 479.634 76.5941 479.634C77.224 479.634 77.7348 480.145 77.7348 480.775Z" fill="white"/>
<path d="M81.5394 480.775C81.5394 481.405 81.0285 481.916 80.3987 481.916C79.7685 481.916 79.2573 481.405 79.2573 480.775C79.2573 480.145 79.7685 479.634 80.3987 479.634C81.0285 479.634 81.5394 480.145 81.5394 480.775Z" fill="white"/>
<path d="M105.294 403.947C105.294 418.454 93.5336 430.214 79.0269 430.214C64.5202 430.214 52.76 418.454 52.76 403.947C52.76 389.44 64.5202 377.68 79.0269 377.68C93.5336 377.68 105.294 389.44 105.294 403.947Z" fill="#EEEDF3"/>
<path d="M91.2581 416.027H61.8465C60.9961 416.027 60.3069 415.338 60.3069 414.488V391.407C60.3069 390.556 60.9961 389.867 61.8465 389.867H91.2581C92.1082 389.867 92.7977 390.556 92.7977 391.407V414.488C92.7977 415.338 92.1082 416.027 91.2581 416.027Z" fill="#C8C5D6"/>
<path d="M91.2029 389.867H61.9016C61.0207 389.867 60.3069 390.581 60.3069 391.462V393.707H92.7977V391.462C92.7977 390.581 92.0839 389.867 91.2029 389.867Z" fill="#48367D"/>
<path d="M64.2964 391.802C64.2964 392.242 63.9397 392.599 63.4994 392.599C63.0591 392.599 62.7019 392.242 62.7019 391.802C62.7019 391.362 63.0591 391.005 63.4994 391.005C63.9397 391.005 64.2964 391.362 64.2964 391.802Z" fill="white"/>
<path d="M66.913 391.787C66.913 392.227 66.5561 392.584 66.116 392.584C65.6754 392.584 65.3185 392.227 65.3185 391.787C65.3185 391.346 65.6754 390.99 66.116 390.99C66.5561 390.99 66.913 391.346 66.913 391.787Z" fill="white"/>
<path d="M69.5715 391.787C69.5715 392.227 69.2146 392.584 68.7745 392.584C68.3342 392.584 67.977 392.227 67.977 391.787C67.977 391.346 68.3342 390.99 68.7745 390.99C69.2146 390.99 69.5715 391.346 69.5715 391.787Z" fill="white"/>
<path d="M79.7553 408.299H74.0653C72.6222 408.299 71.4414 407.118 71.4414 405.675V399.985C71.4414 398.542 72.6222 397.361 74.0653 397.361H79.7553C81.1984 397.361 82.3792 398.542 82.3792 399.985V405.675C82.3792 407.118 81.1984 408.299 79.7553 408.299Z" fill="white"/>
<path d="M74.4352 403.368L76.5666 404.926L80.256 399.824" stroke="#48367D" stroke-width="0.216846" stroke-linecap="round" stroke-linejoin="round"/>
<path fill-rule="evenodd" clip-rule="evenodd" d="M85.3941 405.947C84.882 405.947 84.4669 406.362 84.4669 406.874V422.192C84.4669 422.704 84.882 423.119 85.3941 423.119H101.75C101.765 423.119 101.78 423.119 101.794 423.118C101.816 423.119 101.837 423.119 101.859 423.119H109.987C111.091 423.119 111.987 422.224 111.987 421.119V418.877C111.987 418.543 111.903 418.215 111.744 417.922L108.969 412.815C108.619 412.171 107.945 411.77 107.212 411.77H102.678V406.874C102.678 406.362 102.262 405.947 101.75 405.947H85.3941Z" fill="#FF985F"/>
<path d="M106.664 413.655L109.111 417.151C109.541 417.766 109.102 418.61 108.352 418.61H105.904C105.392 418.61 104.977 418.195 104.977 417.683V414.187C104.977 413.281 106.144 412.913 106.664 413.655Z" fill="#FFF4EC"/>
<circle cx="90.5794" cy="423.113" r="2.99707" fill="#FF985F"/>
<circle cx="105.934" cy="423.113" r="2.99707" fill="#FF985F"/>
<defs>
<filter id="filter0_d" x="52.473" y="166.634" width="23.968" height="8.048" filterUnits="userSpaceOnUse" color-interpolation-filters="sRGB">
<feFlood flood-opacity="0" result="BackgroundImageFix"/>
<feColorMatrix in="SourceAlpha" type="matrix" values="0 0 0 0 0 0 0 0 0 0 0 0 0 0 0 0 0 0 127 0"/>
<feOffset dy="0.112"/>
<feGaussianBlur stdDeviation="0.112"/>
<feColorMatrix type="matrix" values="0 0 0 0 0.0862745 0 0 0 0 0.0705882 0 0 0 0 0.145098 0 0 0 0.07 0"/>
<feBlend mode="normal" in2="BackgroundImageFix" result="effect1_dropShadow"/>
<feBlend mode="normal" in="SourceGraphic" in2="effect1_dropShadow" result="shape"/>
</filter>
</defs>
</svg>
