<svg width="1379" height="307" viewBox="0 0 1379 307" fill="none" xmlns="http://www.w3.org/2000/svg">
<g clip-path="url(#clip0)">
<path fill-rule="evenodd" clip-rule="evenodd" d="M610 74.875L610 71L612 71L612 74.875L610 74.875ZM610 90.375L610 82.625L612 82.625L612 90.375L610 90.375ZM610 105.875L610 98.125L612 98.125L612 105.875L610 105.875ZM610 121.375L610 113.625L612 113.625L612 121.375L610 121.375ZM610 136.875L610 129.125L612 129.125L612 136.875L610 136.875ZM610 152.375L610 144.625L612 144.625L612 152.375L610 152.375ZM610 167.875L610 160.125L612 160.125L612 167.875L610 167.875ZM610 183.375L610 175.625L612 175.625L612 183.375L610 183.375ZM610 195L610 191.125L612 191.125L612 195L610 195Z" fill="#49367E" stroke="#49367E" stroke-width="2" stroke-dasharray="8 8"/>
<path fill-rule="evenodd" clip-rule="evenodd" d="M1322 73.7083L1322 70L1324 70L1324 73.7083L1322 73.7083ZM1322 88.5417L1322 81.125L1324 81.125L1324 88.5417L1322 88.5417ZM1322 103.375L1322 95.9583L1324 95.9583L1324 103.375L1322 103.375ZM1322 118.208L1322 110.792L1324 110.792L1324 118.208L1322 118.208ZM1322 133.042L1322 125.625L1324 125.625L1324 133.042L1322 133.042ZM1322 147.875L1322 140.458L1324 140.458L1324 147.875L1322 147.875ZM1322 159L1322 155.292L1324 155.292L1324 159L1322 159Z" fill="#49367E" stroke="#49367E" stroke-width="2" stroke-dasharray="8 8"/>
<path fill-rule="evenodd" clip-rule="evenodd" d="M1148.07 72L1144 72L1144 70L1148.07 70L1148.07 72ZM1164.34 72L1156.2 72L1156.2 70L1164.34 70L1164.34 72ZM1180.61 72L1172.48 72L1172.48 70L1180.61 70L1180.61 72ZM1196.89 72L1188.75 72L1188.75 70L1196.89 70L1196.89 72ZM1213.16 72L1205.02 72L1205.02 70L1213.16 70L1213.16 72ZM1229.43 72L1221.3 72L1221.3 70L1229.43 70L1229.43 72ZM1245.7 72L1237.57 72L1237.57 70L1245.7 70L1245.7 72ZM1261.98 72L1253.84 72L1253.84 70L1261.98 70L1261.98 72ZM1278.25 72L1270.11 72L1270.11 70L1278.25 70L1278.25 72ZM1294.52 72L1286.39 72L1286.39 70L1294.52 70L1294.52 72ZM1310.8 72L1302.66 72L1302.66 70L1310.8 70L1310.8 72ZM1323 72L1318.93 72L1318.93 70L1323 70L1323 72Z" fill="#49367E" stroke="#49367E" stroke-width="2" stroke-dasharray="8 8"/>
<path fill-rule="evenodd" clip-rule="evenodd" d="M1144 72.0001L77 72L77 70L1144 70.0001L1144 72.0001Z" fill="#FF5B24"/>
<path d="M365.006 161.288C364.526 158.344 361.998 156.76 359.486 156.76C356.062 156.76 353.23 159.24 353.23 162.92C353.23 166.856 356.094 169.24 359.534 169.24C361.854 169.24 364.75 167.688 365.102 164.392L362.942 164.072C362.766 166.456 361.134 167.192 359.534 167.192C357.262 167.192 355.486 165.896 355.486 162.92C355.486 160.216 357.262 158.808 359.406 158.808C360.878 158.808 362.494 159.416 362.846 161.608L365.006 161.288Z" fill="#FF5B24"/>
<path d="M375.354 169L375.354 159.784L373.354 159.784L373.354 165.144C373.354 166.712 372.314 167.432 370.97 167.432C369.738 167.432 369.13 166.888 369.13 165.464L369.13 159.784L367.13 159.784L367.13 166.216C367.13 168.344 368.666 169.24 370.202 169.24C371.354 169.24 372.634 168.712 373.354 167.448L373.354 169L375.354 169Z" fill="#FF5B24"/>
<path d="M377.69 162.376C377.69 163.656 378.426 164.6 379.994 164.936L381.674 165.304C382.826 165.56 383.146 165.896 383.146 166.44C383.146 167.208 382.394 167.64 381.29 167.64C379.994 167.64 379.146 167.032 379.018 165.896L377.242 166.216C377.546 168.36 379.546 169.24 381.338 169.24C383.114 169.24 385.002 168.248 385.002 166.248C385.002 164.968 384.25 164.104 382.618 163.752L380.794 163.352C379.866 163.144 379.546 162.696 379.546 162.216C379.546 161.544 380.186 161.128 381.098 161.128C382.202 161.128 383.018 161.528 383.082 162.728L384.858 162.408C384.33 160.344 382.938 159.528 381.082 159.528C379.578 159.528 377.69 160.36 377.69 162.376Z" fill="#FF5B24"/>
<path d="M387.664 157.56L387.664 159.784L385.952 159.784L385.952 161.4L387.664 161.4L387.664 166.408C387.664 168.104 388.512 169.16 390.352 169.16C390.912 169.16 391.568 169.016 392.048 168.872L391.728 167.256C391.36 167.352 391.136 167.4 390.768 167.4C389.952 167.4 389.664 167.032 389.664 166.312L389.664 161.4L391.968 161.4L391.968 159.784L389.664 159.784L389.664 157.24L387.664 157.56Z" fill="#FF5B24"/>
<path d="M397.912 159.528C395.416 159.528 393.352 161.352 393.352 164.376C393.352 167.4 395.416 169.24 397.912 169.24C400.408 169.24 402.472 167.4 402.472 164.376C402.472 161.352 400.408 159.528 397.912 159.528ZM397.912 161.256C399.288 161.256 400.456 162.264 400.456 164.376C400.456 166.488 399.288 167.512 397.912 167.512C396.536 167.512 395.368 166.488 395.368 164.376C395.368 162.264 396.536 161.256 397.912 161.256Z" fill="#FF5B24"/>
<path d="M414.652 161.336C415.788 161.336 416.652 161.976 416.652 163.688L416.652 169L418.652 169L418.652 162.824C418.652 160.344 417.132 159.528 415.452 159.528C414.428 159.528 413.132 159.944 412.444 161.32C411.948 160.008 410.78 159.528 409.548 159.528C408.444 159.528 407.116 159.96 406.46 161.144L406.46 159.784L404.46 159.784L404.46 169L406.46 169L406.46 163.736C406.46 162.088 407.404 161.336 408.684 161.336C409.82 161.336 410.684 161.976 410.684 163.688L410.684 169L412.684 169L412.684 163.736C412.684 162.088 413.516 161.336 414.652 161.336Z" fill="#FF5B24"/>
<path d="M425.18 161.256C426.476 161.256 427.5 161.864 427.66 163.4L422.652 163.4C422.924 161.976 423.852 161.256 425.18 161.256ZM429.548 164.824L429.548 164.168C429.548 161.448 427.756 159.528 425.26 159.528C422.588 159.528 420.556 161.4 420.556 164.36C420.556 167.4 422.668 169.24 425.388 169.24C427.084 169.24 429.132 168.264 429.484 166.136L427.628 165.816C427.42 166.872 426.812 167.512 425.308 167.512C423.644 167.512 422.732 166.44 422.588 164.824L429.548 164.824Z" fill="#FF5B24"/>
<path d="M435.938 161.688C436.434 161.688 436.786 161.752 437.138 161.896L437.33 159.656C437.138 159.56 436.866 159.528 436.626 159.528C435.714 159.528 434.274 160.056 433.522 161.992L433.522 159.784L431.522 159.784L431.522 169L433.522 169L433.522 164.968C433.522 162.408 434.642 161.688 435.938 161.688Z" fill="#FF5B24"/>
<path d="M451.659 163.368C451.323 160.888 449.355 159.528 447.211 159.528C444.571 159.528 442.571 161.4 442.571 164.376C442.571 167.224 444.539 169.24 447.355 169.24C449.131 169.24 451.211 168.264 451.643 165.448L449.819 165.128C449.611 166.696 448.747 167.496 447.339 167.496C445.467 167.496 444.587 166.072 444.587 164.376C444.587 162.328 445.707 161.256 447.115 161.256C448.395 161.256 449.467 161.944 449.691 163.688L451.659 163.368Z" fill="#FF5B24"/>
<path d="M453.538 156.6L453.538 169L455.538 169L455.538 163.736C455.538 162.088 456.482 161.336 457.826 161.336C458.898 161.336 459.762 161.976 459.762 163.688L459.762 169L461.762 169L461.762 162.824C461.762 160.344 460.242 159.528 458.482 159.528C457.506 159.528 456.194 159.96 455.538 161.144L455.538 156.6L453.538 156.6Z" fill="#FF5B24"/>
<path d="M468.225 159.528C465.729 159.528 463.665 161.352 463.665 164.376C463.665 167.4 465.729 169.24 468.225 169.24C470.721 169.24 472.785 167.4 472.785 164.376C472.785 161.352 470.721 159.528 468.225 159.528ZM468.225 161.256C469.601 161.256 470.769 162.264 470.769 164.376C470.769 166.488 469.601 167.512 468.225 167.512C466.849 167.512 465.681 166.488 465.681 164.376C465.681 162.264 466.849 161.256 468.225 161.256Z" fill="#FF5B24"/>
<path d="M478.756 159.528C476.26 159.528 474.196 161.352 474.196 164.376C474.196 167.4 476.26 169.24 478.756 169.24C481.252 169.24 483.316 167.4 483.316 164.376C483.316 161.352 481.252 159.528 478.756 159.528ZM478.756 161.256C480.132 161.256 481.3 162.264 481.3 164.376C481.3 166.488 480.132 167.512 478.756 167.512C477.38 167.512 476.212 166.488 476.212 164.376C476.212 162.264 477.38 161.256 478.756 161.256Z" fill="#FF5B24"/>
<path d="M485.111 162.376C485.111 163.656 485.847 164.6 487.415 164.936L489.095 165.304C490.247 165.56 490.567 165.896 490.567 166.44C490.567 167.208 489.815 167.64 488.711 167.64C487.415 167.64 486.567 167.032 486.439 165.896L484.663 166.216C484.967 168.36 486.967 169.24 488.759 169.24C490.535 169.24 492.423 168.248 492.423 166.248C492.423 164.968 491.671 164.104 490.039 163.752L488.215 163.352C487.287 163.144 486.967 162.696 486.967 162.216C486.967 161.544 487.607 161.128 488.519 161.128C489.623 161.128 490.439 161.528 490.503 162.728L492.279 162.408C491.751 160.344 490.359 159.528 488.503 159.528C486.999 159.528 485.111 160.36 485.111 162.376Z" fill="#FF5B24"/>
<path d="M498.43 161.256C499.726 161.256 500.75 161.864 500.91 163.4L495.902 163.4C496.174 161.976 497.102 161.256 498.43 161.256ZM502.798 164.824L502.798 164.168C502.798 161.448 501.006 159.528 498.51 159.528C495.838 159.528 493.806 161.4 493.806 164.36C493.806 167.4 495.918 169.24 498.638 169.24C500.334 169.24 502.382 168.264 502.734 166.136L500.878 165.816C500.67 166.872 500.062 167.512 498.558 167.512C496.894 167.512 495.982 166.44 495.838 164.824L502.798 164.824Z" fill="#FF5B24"/>
<path d="M504.58 162.376C504.58 163.656 505.316 164.6 506.884 164.936L508.564 165.304C509.716 165.56 510.036 165.896 510.036 166.44C510.036 167.208 509.284 167.64 508.18 167.64C506.884 167.64 506.036 167.032 505.908 165.896L504.132 166.216C504.436 168.36 506.436 169.24 508.228 169.24C510.004 169.24 511.892 168.248 511.892 166.248C511.892 164.968 511.14 164.104 509.508 163.752L507.684 163.352C506.756 163.144 506.436 162.696 506.436 162.216C506.436 161.544 507.076 161.128 507.988 161.128C509.092 161.128 509.908 161.528 509.972 162.728L511.748 162.408C511.22 160.344 509.828 159.528 507.972 159.528C506.468 159.528 504.58 160.36 504.58 162.376Z" fill="#FF5B24"/>
<path d="M361.804 184.56L361.804 186.784L360.092 186.784L360.092 188.4L361.804 188.4L361.804 193.408C361.804 195.104 362.652 196.16 364.492 196.16C365.052 196.16 365.708 196.016 366.188 195.872L365.868 194.256C365.5 194.352 365.276 194.4 364.908 194.4C364.092 194.4 363.804 194.032 363.804 193.312L363.804 188.4L366.108 188.4L366.108 186.784L363.804 186.784L363.804 184.24L361.804 184.56Z" fill="#FF5B24"/>
<path d="M372.053 186.528C369.557 186.528 367.493 188.352 367.493 191.376C367.493 194.4 369.557 196.24 372.053 196.24C374.549 196.24 376.613 194.4 376.613 191.376C376.613 188.352 374.549 186.528 372.053 186.528ZM372.053 188.256C373.429 188.256 374.597 189.264 374.597 191.376C374.597 193.488 373.429 194.512 372.053 194.512C370.677 194.512 369.509 193.488 369.509 191.376C369.509 189.264 370.677 188.256 372.053 188.256Z" fill="#FF5B24"/>
<path d="M388.033 186.528C386.465 186.528 385.505 187.52 384.913 188.592L384.913 186.784L382.913 186.784L382.913 199.2L384.913 199.2L384.913 194.256C385.681 195.568 386.673 196.24 387.841 196.24C389.985 196.24 392.081 194.608 392.081 191.248C392.081 188.032 389.905 186.528 388.033 186.528ZM387.489 188.256C388.753 188.256 390.065 189.264 390.065 191.36C390.065 193.488 388.753 194.496 387.473 194.496C386.129 194.496 384.913 193.408 384.913 191.36C384.913 189.216 386.129 188.256 387.489 188.256Z" fill="#FF5B24"/>
<path d="M397.668 196.24C399.316 196.24 400.324 195.232 400.788 194.096L400.788 196L402.788 196L402.788 186.784L400.788 186.784L400.788 188.592C400.132 187.136 399.124 186.528 397.684 186.528C395.748 186.528 393.62 188.08 393.62 191.296C393.62 194.672 395.764 196.24 397.668 196.24ZM398.228 188.256C399.572 188.256 400.788 189.28 400.788 191.408C400.788 193.6 399.572 194.496 398.212 194.496C396.948 194.496 395.636 193.552 395.636 191.408C395.636 189.232 396.964 188.256 398.228 188.256Z" fill="#FF5B24"/>
<path d="M406.166 199.2C407.958 199.2 409.11 198.256 409.83 196.384L413.51 186.784L411.286 186.784L408.966 193.984L406.534 186.784L404.31 186.784L407.702 195.296C408.166 196.464 407.734 197.536 406.358 197.536C405.638 197.536 405.19 197.312 404.902 197.136L404.582 198.864C405.014 199.072 405.558 199.2 406.166 199.2Z" fill="#FF5B24"/>
<path d="M432.63 186.784L430.406 186.784L428.438 193.504L426.214 186.784L424.726 186.784L422.518 193.472L420.534 186.784L418.31 186.784L421.622 196L423.35 196L425.478 190.176L427.59 196L429.318 196L432.63 186.784Z" fill="#FF5B24"/>
<path d="M434.147 186.784L434.147 196L436.147 196L436.147 186.784L434.147 186.784ZM435.139 182.8C434.467 182.8 433.939 183.344 433.939 184C433.939 184.656 434.467 185.2 435.139 185.2C435.811 185.2 436.339 184.656 436.339 184C436.339 183.344 435.811 182.8 435.139 182.8Z" fill="#FF5B24"/>
<path d="M439.414 184.56L439.414 186.784L437.702 186.784L437.702 188.4L439.414 188.4L439.414 193.408C439.414 195.104 440.262 196.16 442.102 196.16C442.662 196.16 443.318 196.016 443.798 195.872L443.478 194.256C443.11 194.352 442.886 194.4 442.518 194.4C441.702 194.4 441.414 194.032 441.414 193.312L441.414 188.4L443.718 188.4L443.718 186.784L441.414 186.784L441.414 184.24L439.414 184.56Z" fill="#FF5B24"/>
<path d="M445.678 183.6L445.678 196L447.678 196L447.678 190.736C447.678 189.088 448.622 188.336 449.966 188.336C451.038 188.336 451.902 188.976 451.902 190.688L451.902 196L453.902 196L453.902 189.824C453.902 187.344 452.382 186.528 450.622 186.528C449.646 186.528 448.334 186.96 447.678 188.144L447.678 183.6L445.678 183.6Z" fill="#FF5B24"/>
<path d="M468.854 186.784L466.63 186.784L464.262 193.744L461.878 186.784L459.654 186.784L463.334 196L465.174 196L468.854 186.784Z" fill="#FF5B24"/>
<path d="M470.382 186.784L470.382 196L472.382 196L472.382 186.784L470.382 186.784ZM471.374 182.8C470.702 182.8 470.174 183.344 470.174 184C470.174 184.656 470.702 185.2 471.374 185.2C472.046 185.2 472.574 184.656 472.574 184C472.574 183.344 472.046 182.8 471.374 182.8Z" fill="#FF5B24"/>
<path d="M480.064 186.528C478.496 186.528 477.536 187.52 476.944 188.592L476.944 186.784L474.944 186.784L474.944 199.2L476.944 199.2L476.944 194.256C477.712 195.568 478.704 196.24 479.872 196.24C482.016 196.24 484.112 194.608 484.112 191.248C484.112 188.032 481.936 186.528 480.064 186.528ZM479.52 188.256C480.784 188.256 482.096 189.264 482.096 191.36C482.096 193.488 480.784 194.496 479.504 194.496C478.16 194.496 476.944 193.408 476.944 191.36C476.944 189.216 478.16 188.256 479.52 188.256Z" fill="#FF5B24"/>
<path d="M491.283 186.528C489.715 186.528 488.755 187.52 488.163 188.592L488.163 186.784L486.163 186.784L486.163 199.2L488.163 199.2L488.163 194.256C488.931 195.568 489.923 196.24 491.091 196.24C493.235 196.24 495.331 194.608 495.331 191.248C495.331 188.032 493.155 186.528 491.283 186.528ZM490.739 188.256C492.003 188.256 493.315 189.264 493.315 191.36C493.315 193.488 492.003 194.496 490.723 194.496C489.379 194.496 488.163 193.408 488.163 191.36C488.163 189.216 489.379 188.256 490.739 188.256Z" fill="#FF5B24"/>
<path d="M497.19 189.376C497.19 190.656 497.926 191.6 499.494 191.936L501.174 192.304C502.326 192.56 502.646 192.896 502.646 193.44C502.646 194.208 501.894 194.64 500.79 194.64C499.494 194.64 498.646 194.032 498.518 192.896L496.742 193.216C497.046 195.36 499.046 196.24 500.838 196.24C502.614 196.24 504.502 195.248 504.502 193.248C504.502 191.968 503.75 191.104 502.118 190.752L500.294 190.352C499.366 190.144 499.046 189.696 499.046 189.216C499.046 188.544 499.686 188.128 500.598 188.128C501.702 188.128 502.518 188.528 502.582 189.728L504.358 189.408C503.83 187.344 502.438 186.528 500.582 186.528C499.078 186.528 497.19 187.36 497.19 189.376Z" fill="#FF5B24"/>
<path d="M718.615 165.288C718.135 162.344 715.607 160.76 713.095 160.76C709.671 160.76 706.839 163.24 706.839 166.92C706.839 170.856 709.703 173.24 713.143 173.24C715.463 173.24 718.359 171.688 718.711 168.392L716.551 168.072C716.375 170.456 714.743 171.192 713.143 171.192C710.871 171.192 709.095 169.896 709.095 166.92C709.095 164.216 710.871 162.808 713.015 162.808C714.487 162.808 716.103 163.416 716.455 165.608L718.615 165.288Z" fill="#FF5B24"/>
<path d="M728.964 173L728.964 163.784L726.964 163.784L726.964 169.144C726.964 170.712 725.924 171.432 724.58 171.432C723.348 171.432 722.74 170.888 722.74 169.464L722.74 163.784L720.74 163.784L720.74 170.216C720.74 172.344 722.276 173.24 723.812 173.24C724.964 173.24 726.244 172.712 726.964 171.448L726.964 173L728.964 173Z" fill="#FF5B24"/>
<path d="M731.299 166.376C731.299 167.656 732.035 168.6 733.603 168.936L735.283 169.304C736.435 169.56 736.755 169.896 736.755 170.44C736.755 171.208 736.003 171.64 734.899 171.64C733.603 171.64 732.755 171.032 732.627 169.896L730.851 170.216C731.155 172.36 733.155 173.24 734.947 173.24C736.723 173.24 738.611 172.248 738.611 170.248C738.611 168.968 737.859 168.104 736.227 167.752L734.403 167.352C733.475 167.144 733.155 166.696 733.155 166.216C733.155 165.544 733.795 165.128 734.707 165.128C735.811 165.128 736.627 165.528 736.691 166.728L738.467 166.408C737.939 164.344 736.547 163.528 734.691 163.528C733.187 163.528 731.299 164.36 731.299 166.376Z" fill="#FF5B24"/>
<path d="M741.273 161.56L741.273 163.784L739.561 163.784L739.561 165.4L741.273 165.4L741.273 170.408C741.273 172.104 742.121 173.16 743.961 173.16C744.521 173.16 745.177 173.016 745.657 172.872L745.337 171.256C744.969 171.352 744.745 171.4 744.377 171.4C743.561 171.4 743.273 171.032 743.273 170.312L743.273 165.4L745.577 165.4L745.577 163.784L743.273 163.784L743.273 161.24L741.273 161.56Z" fill="#FF5B24"/>
<path d="M751.522 163.528C749.026 163.528 746.962 165.352 746.962 168.376C746.962 171.4 749.026 173.24 751.522 173.24C754.018 173.24 756.082 171.4 756.082 168.376C756.082 165.352 754.018 163.528 751.522 163.528ZM751.522 165.256C752.898 165.256 754.066 166.264 754.066 168.376C754.066 170.488 752.898 171.512 751.522 171.512C750.146 171.512 748.978 170.488 748.978 168.376C748.978 166.264 750.146 165.256 751.522 165.256Z" fill="#FF5B24"/>
<path d="M768.261 165.336C769.397 165.336 770.261 165.976 770.261 167.688L770.261 173L772.261 173L772.261 166.824C772.261 164.344 770.741 163.528 769.061 163.528C768.037 163.528 766.741 163.944 766.053 165.32C765.557 164.008 764.389 163.528 763.157 163.528C762.053 163.528 760.725 163.96 760.069 165.144L760.069 163.784L758.069 163.784L758.069 173L760.069 173L760.069 167.736C760.069 166.088 761.013 165.336 762.293 165.336C763.429 165.336 764.293 165.976 764.293 167.688L764.293 173L766.293 173L766.293 167.736C766.293 166.088 767.125 165.336 768.261 165.336Z" fill="#FF5B24"/>
<path d="M778.789 165.256C780.085 165.256 781.109 165.864 781.269 167.4L776.261 167.4C776.533 165.976 777.461 165.256 778.789 165.256ZM783.157 168.824L783.157 168.168C783.157 165.448 781.365 163.528 778.869 163.528C776.197 163.528 774.165 165.4 774.165 168.36C774.165 171.4 776.277 173.24 778.997 173.24C780.693 173.24 782.741 172.264 783.093 170.136L781.237 169.816C781.029 170.872 780.421 171.512 778.917 171.512C777.253 171.512 776.341 170.44 776.197 168.824L783.157 168.824Z" fill="#FF5B24"/>
<path d="M789.548 165.688C790.044 165.688 790.396 165.752 790.748 165.896L790.94 163.656C790.748 163.56 790.476 163.528 790.236 163.528C789.324 163.528 787.884 164.056 787.132 165.992L787.132 163.784L785.132 163.784L785.132 173L787.132 173L787.132 168.968C787.132 166.408 788.252 165.688 789.548 165.688Z" fill="#FF5B24"/>
<path d="M805.269 167.368C804.933 164.888 802.965 163.528 800.821 163.528C798.181 163.528 796.181 165.4 796.181 168.376C796.181 171.224 798.149 173.24 800.965 173.24C802.741 173.24 804.821 172.264 805.253 169.448L803.429 169.128C803.221 170.696 802.357 171.496 800.949 171.496C799.077 171.496 798.197 170.072 798.197 168.376C798.197 166.328 799.317 165.256 800.725 165.256C802.005 165.256 803.077 165.944 803.301 167.688L805.269 167.368Z" fill="#FF5B24"/>
<path d="M811.131 163.528C808.635 163.528 806.571 165.352 806.571 168.376C806.571 171.4 808.635 173.24 811.131 173.24C813.627 173.24 815.691 171.4 815.691 168.376C815.691 165.352 813.627 163.528 811.131 163.528ZM811.131 165.256C812.507 165.256 813.675 166.264 813.675 168.376C813.675 170.488 812.507 171.512 811.131 171.512C809.755 171.512 808.587 170.488 808.587 168.376C808.587 166.264 809.755 165.256 811.131 165.256Z" fill="#FF5B24"/>
<path d="M821.95 165.336C823.038 165.336 823.902 165.976 823.902 167.688L823.902 173L825.902 173L825.902 166.824C825.902 164.344 824.334 163.528 822.686 163.528C821.598 163.528 820.334 163.976 819.678 165.144L819.678 163.784L817.678 163.784L817.678 173L819.678 173L819.678 167.736C819.678 166.088 820.622 165.336 821.95 165.336Z" fill="#FF5B24"/>
<path d="M828.91 173L830.91 173L830.91 165.4L833.198 165.4L833.198 163.784L830.91 163.784L830.91 163.416C830.91 162.536 831.166 162.072 832.014 162.072C832.238 162.072 832.43 162.088 832.622 162.12L832.766 160.424C832.51 160.344 832.174 160.296 831.79 160.296C830.062 160.296 828.91 161.384 828.91 163.432L828.91 163.784L827.646 163.784L827.646 165.4L828.91 165.4L828.91 173Z" fill="#FF5B24"/>
<path d="M834.616 163.784L834.616 173L836.616 173L836.616 163.784L834.616 163.784ZM835.608 159.8C834.936 159.8 834.408 160.344 834.408 161C834.408 161.656 834.936 162.2 835.608 162.2C836.28 162.2 836.808 161.656 836.808 161C836.808 160.344 836.28 159.8 835.608 159.8Z" fill="#FF5B24"/>
<path d="M843.594 165.688C844.09 165.688 844.442 165.752 844.794 165.896L844.986 163.656C844.794 163.56 844.522 163.528 844.282 163.528C843.37 163.528 841.93 164.056 841.178 165.992L841.178 163.784L839.178 163.784L839.178 173L841.178 173L841.178 168.968C841.178 166.408 842.298 165.688 843.594 165.688Z" fill="#FF5B24"/>
<path d="M856.683 165.336C857.819 165.336 858.683 165.976 858.683 167.688L858.683 173L860.683 173L860.683 166.824C860.683 164.344 859.163 163.528 857.483 163.528C856.459 163.528 855.163 163.944 854.475 165.32C853.979 164.008 852.811 163.528 851.579 163.528C850.475 163.528 849.147 163.96 848.491 165.144L848.491 163.784L846.491 163.784L846.491 173L848.491 173L848.491 167.736C848.491 166.088 849.435 165.336 850.715 165.336C851.851 165.336 852.715 165.976 852.715 167.688L852.715 173L854.715 173L854.715 167.736C854.715 166.088 855.547 165.336 856.683 165.336Z" fill="#FF5B24"/>
<path d="M862.971 166.376C862.971 167.656 863.707 168.6 865.275 168.936L866.955 169.304C868.107 169.56 868.427 169.896 868.427 170.44C868.427 171.208 867.675 171.64 866.571 171.64C865.275 171.64 864.427 171.032 864.299 169.896L862.523 170.216C862.827 172.36 864.827 173.24 866.619 173.24C868.395 173.24 870.283 172.248 870.283 170.248C870.283 168.968 869.531 168.104 867.899 167.752L866.075 167.352C865.147 167.144 864.827 166.696 864.827 166.216C864.827 165.544 865.467 165.128 866.379 165.128C867.483 165.128 868.299 165.528 868.363 166.728L870.139 166.408C869.611 164.344 868.219 163.528 866.363 163.528C864.859 163.528 862.971 164.36 862.971 166.376Z" fill="#FF5B24"/>
<path d="M15.1099 168.488L15.0939 168.616C14.9019 170.136 13.6699 171.192 11.7819 171.192C9.79786 171.192 7.81386 170.008 7.81386 167.048C7.81386 164.232 9.46186 162.808 11.6699 162.808C13.3499 162.808 14.7739 163.448 15.0459 165.448L17.1579 165.128C16.6939 161.784 13.7979 160.76 11.7979 160.76C8.21386 160.76 5.55786 163.336 5.55786 167.048C5.55786 170.6 8.16586 173.24 11.2059 173.24C13.1419 173.24 14.5179 172.04 15.1579 170.76L15.1739 170.76L15.5419 173L17.3179 173L17.3179 166.6L11.9579 166.6L11.9579 168.488L15.1099 168.488Z" fill="#FF5B24"/>
<path d="M23.9452 165.256C25.2412 165.256 26.2652 165.864 26.4252 167.4L21.4172 167.4C21.6892 165.976 22.6172 165.256 23.9452 165.256ZM28.3132 168.824L28.3132 168.168C28.3132 165.448 26.5212 163.528 24.0252 163.528C21.3532 163.528 19.3212 165.4 19.3212 168.36C19.3212 171.4 21.4332 173.24 24.1532 173.24C25.8492 173.24 27.8972 172.264 28.2492 170.136L26.3932 169.816C26.1852 170.872 25.5772 171.512 24.0732 171.512C22.4092 171.512 21.4972 170.44 21.3532 168.824L28.3132 168.824Z" fill="#FF5B24"/>
<path d="M30.9919 161.56L30.9919 163.784L29.2799 163.784L29.2799 165.4L30.9919 165.4L30.9919 170.408C30.9919 172.104 31.8399 173.16 33.6799 173.16C34.2399 173.16 34.8959 173.016 35.3759 172.872L35.0559 171.256C34.6879 171.352 34.4639 171.4 34.0959 171.4C33.2799 171.4 32.9919 171.032 32.9919 170.312L32.9919 165.4L35.2959 165.4L35.2959 163.784L32.9919 163.784L32.9919 161.24L30.9919 161.56Z" fill="#FF5B24"/>
<path d="M45.1051 173.24C46.7531 173.24 47.7611 172.232 48.2251 171.096L48.2251 173L50.2251 173L50.2251 163.784L48.2251 163.784L48.2251 165.592C47.5691 164.136 46.5611 163.528 45.1211 163.528C43.1851 163.528 41.0571 165.08 41.0571 168.296C41.0571 171.672 43.2011 173.24 45.1051 173.24ZM45.6651 165.256C47.0091 165.256 48.2251 166.28 48.2251 168.408C48.2251 170.6 47.0091 171.496 45.6491 171.496C44.3851 171.496 43.0731 170.552 43.0731 168.408C43.0731 166.232 44.4011 165.256 45.6651 165.256Z" fill="#FF5B24"/>
<path d="M61.2999 167.368C60.9639 164.888 58.9959 163.528 56.8519 163.528C54.2119 163.528 52.2119 165.4 52.2119 168.376C52.2119 171.224 54.1799 173.24 56.9959 173.24C58.7719 173.24 60.8519 172.264 61.2839 169.448L59.4599 169.128C59.2519 170.696 58.3879 171.496 56.9799 171.496C55.1079 171.496 54.2279 170.072 54.2279 168.376C54.2279 166.328 55.3479 165.256 56.7559 165.256C58.0359 165.256 59.1079 165.944 59.3319 167.688L61.2999 167.368Z" fill="#FF5B24"/>
<path d="M71.6905 167.368C71.3545 164.888 69.3865 163.528 67.2425 163.528C64.6025 163.528 62.6025 165.4 62.6025 168.376C62.6025 171.224 64.5705 173.24 67.3865 173.24C69.1625 173.24 71.2425 172.264 71.6745 169.448L69.8505 169.128C69.6425 170.696 68.7785 171.496 67.3705 171.496C65.4985 171.496 64.6185 170.072 64.6185 168.376C64.6185 166.328 65.7385 165.256 67.1465 165.256C68.4265 165.256 69.4985 165.944 69.7225 167.688L71.6905 167.368Z" fill="#FF5B24"/>
<path d="M77.6171 165.256C78.9131 165.256 79.9371 165.864 80.0971 167.4L75.0891 167.4C75.3611 165.976 76.2891 165.256 77.6171 165.256ZM81.9851 168.824L81.9851 168.168C81.9851 165.448 80.1931 163.528 77.6971 163.528C75.0251 163.528 72.9931 165.4 72.9931 168.36C72.9931 171.4 75.1051 173.24 77.8251 173.24C79.5211 173.24 81.5691 172.264 81.9211 170.136L80.0651 169.816C79.8571 170.872 79.2491 171.512 77.7451 171.512C76.0811 171.512 75.1691 170.44 75.0251 168.824L81.9851 168.824Z" fill="#FF5B24"/>
<path d="M83.7677 166.376C83.7677 167.656 84.5037 168.6 86.0717 168.936L87.7517 169.304C88.9037 169.56 89.2237 169.896 89.2237 170.44C89.2237 171.208 88.4717 171.64 87.3677 171.64C86.0717 171.64 85.2237 171.032 85.0957 169.896L83.3197 170.216C83.6237 172.36 85.6237 173.24 87.4157 173.24C89.1917 173.24 91.0797 172.248 91.0797 170.248C91.0797 168.968 90.3277 168.104 88.6957 167.752L86.8717 167.352C85.9437 167.144 85.6237 166.696 85.6237 166.216C85.6237 165.544 86.2637 165.128 87.1757 165.128C88.2797 165.128 89.0957 165.528 89.1597 166.728L90.9357 166.408C90.4077 164.344 89.0157 163.528 87.1597 163.528C85.6557 163.528 83.7677 164.36 83.7677 166.376Z" fill="#FF5B24"/>
<path d="M92.8459 166.376C92.8459 167.656 93.5819 168.6 95.1499 168.936L96.8299 169.304C97.9819 169.56 98.3019 169.896 98.3019 170.44C98.3019 171.208 97.5499 171.64 96.4459 171.64C95.1499 171.64 94.3019 171.032 94.1739 169.896L92.3979 170.216C92.7019 172.36 94.7019 173.24 96.4939 173.24C98.2699 173.24 100.158 172.248 100.158 170.248C100.158 168.968 99.4059 168.104 97.7739 167.752L95.9499 167.352C95.0219 167.144 94.7019 166.696 94.7019 166.216C94.7019 165.544 95.3419 165.128 96.2539 165.128C97.3579 165.128 98.1739 165.528 98.2379 166.728L100.014 166.408C99.4859 164.344 98.0939 163.528 96.2379 163.528C94.7339 163.528 92.8459 164.36 92.8459 166.376Z" fill="#FF5B24"/>
<path d="M107.132 161.56L107.132 163.784L105.42 163.784L105.42 165.4L107.132 165.4L107.132 170.408C107.132 172.104 107.98 173.16 109.82 173.16C110.38 173.16 111.036 173.016 111.516 172.872L111.196 171.256C110.828 171.352 110.604 171.4 110.236 171.4C109.42 171.4 109.132 171.032 109.132 170.312L109.132 165.4L111.436 165.4L111.436 163.784L109.132 163.784L109.132 161.24L107.132 161.56Z" fill="#FF5B24"/>
<path d="M117.381 163.528C114.885 163.528 112.821 165.352 112.821 168.376C112.821 171.4 114.885 173.24 117.381 173.24C119.877 173.24 121.941 171.4 121.941 168.376C121.941 165.352 119.877 163.528 117.381 163.528ZM117.381 165.256C118.757 165.256 119.925 166.264 119.925 168.376C119.925 170.488 118.757 171.512 117.381 171.512C116.005 171.512 114.837 170.488 114.837 168.376C114.837 166.264 116.005 165.256 117.381 165.256Z" fill="#FF5B24"/>
<path d="M123.928 173L125.928 173L125.928 170.792L127.624 168.888L130.376 173L132.456 173L128.76 167.592L132.152 163.784L129.976 163.784L125.928 168.552L125.928 160.6L123.928 160.6L123.928 173Z" fill="#FF5B24"/>
<path d="M137.789 165.256C139.085 165.256 140.109 165.864 140.269 167.4L135.261 167.4C135.533 165.976 136.461 165.256 137.789 165.256ZM142.157 168.824L142.157 168.168C142.157 165.448 140.365 163.528 137.869 163.528C135.197 163.528 133.165 165.4 133.165 168.36C133.165 171.4 135.277 173.24 137.997 173.24C139.693 173.24 141.741 172.264 142.093 170.136L140.237 169.816C140.029 170.872 139.421 171.512 137.917 171.512C136.253 171.512 135.341 170.44 135.197 168.824L142.157 168.824Z" fill="#FF5B24"/>
<path d="M148.404 165.336C149.492 165.336 150.356 165.976 150.356 167.688L150.356 173L152.356 173L152.356 166.824C152.356 164.344 150.788 163.528 149.14 163.528C148.052 163.528 146.788 163.976 146.132 165.144L146.132 163.784L144.132 163.784L144.132 173L146.132 173L146.132 167.736C146.132 166.088 147.076 165.336 148.404 165.336Z" fill="#FF5B24"/>
<path d="M184.189 164.216C184.189 168.84 190.829 167.32 190.829 169.864C190.829 170.776 190.125 171.384 188.765 171.384C187.469 171.384 185.981 170.952 185.773 168.904L183.709 169.384C184.029 171.96 186.301 173.24 188.701 173.24C190.829 173.24 192.925 172.024 192.925 169.736C192.925 165.256 186.317 166.888 186.317 164.136C186.317 163.192 187.037 162.616 188.269 162.616C189.341 162.616 190.541 163.096 190.637 164.76L192.749 164.28C192.397 161.8 190.253 160.76 188.365 160.76C186.269 160.76 184.189 161.912 184.189 164.216Z" fill="#FF5B24"/>
<path d="M198.945 165.256C200.241 165.256 201.265 165.864 201.425 167.4L196.417 167.4C196.689 165.976 197.617 165.256 198.945 165.256ZM203.313 168.824L203.313 168.168C203.313 165.448 201.521 163.528 199.025 163.528C196.353 163.528 194.321 165.4 194.321 168.36C194.321 171.4 196.433 173.24 199.153 173.24C200.849 173.24 202.897 172.264 203.249 170.136L201.393 169.816C201.185 170.872 200.577 171.512 199.073 171.512C197.409 171.512 196.497 170.44 196.353 168.824L203.313 168.824Z" fill="#FF5B24"/>
<path d="M205.992 161.56L205.992 163.784L204.28 163.784L204.28 165.4L205.992 165.4L205.992 170.408C205.992 172.104 206.84 173.16 208.68 173.16C209.24 173.16 209.896 173.016 210.376 172.872L210.056 171.256C209.688 171.352 209.464 171.4 209.096 171.4C208.28 171.4 207.992 171.032 207.992 170.312L207.992 165.4L210.296 165.4L210.296 163.784L207.992 163.784L207.992 161.24L205.992 161.56Z" fill="#FF5B24"/>
<path d="M224.745 173L224.745 163.784L222.745 163.784L222.745 169.144C222.745 170.712 221.705 171.432 220.361 171.432C219.129 171.432 218.521 170.888 218.521 169.464L218.521 163.784L216.521 163.784L216.521 170.216C216.521 172.344 218.057 173.24 219.593 173.24C220.745 173.24 222.025 172.712 222.745 171.448L222.745 173L224.745 173Z" fill="#FF5B24"/>
<path d="M232.392 163.528C230.824 163.528 229.864 164.52 229.272 165.592L229.272 163.784L227.272 163.784L227.272 176.2L229.272 176.2L229.272 171.256C230.04 172.568 231.032 173.24 232.2 173.24C234.344 173.24 236.44 171.608 236.44 168.248C236.44 165.032 234.264 163.528 232.392 163.528ZM231.848 165.256C233.112 165.256 234.424 166.264 234.424 168.36C234.424 170.488 233.112 171.496 231.832 171.496C230.488 171.496 229.272 170.408 229.272 168.36C229.272 166.216 230.488 165.256 231.848 165.256Z" fill="#FF5B24"/>
<path d="M246.851 165.256C248.147 165.256 249.171 165.864 249.331 167.4L244.323 167.4C244.595 165.976 245.523 165.256 246.851 165.256ZM251.219 168.824L251.219 168.168C251.219 165.448 249.427 163.528 246.931 163.528C244.259 163.528 242.227 165.4 242.227 168.36C242.227 171.4 244.339 173.24 247.059 173.24C248.755 173.24 250.803 172.264 251.155 170.136L249.299 169.816C249.091 170.872 248.483 171.512 246.979 171.512C245.315 171.512 244.403 170.44 244.259 168.824L251.219 168.824Z" fill="#FF5B24"/>
<path d="M257.466 165.336C258.554 165.336 259.418 165.976 259.418 167.688L259.418 173L261.418 173L261.418 166.824C261.418 164.344 259.85 163.528 258.202 163.528C257.114 163.528 255.85 163.976 255.194 165.144L255.194 163.784L253.194 163.784L253.194 173L255.194 173L255.194 167.736C255.194 166.088 256.138 165.336 257.466 165.336Z" fill="#FF5B24"/>
<path d="M272.553 160.6L270.553 160.6L270.553 165.592C269.897 164.136 268.905 163.528 267.657 163.528C265.513 163.528 263.385 165.08 263.385 168.296C263.385 171.672 265.529 173.24 267.401 173.24C269.081 173.24 270.089 172.36 270.553 171.256L270.553 173L272.553 173L272.553 160.6ZM267.993 165.256C269.337 165.256 270.553 166.328 270.553 168.408C270.553 170.552 269.337 171.496 267.977 171.496C266.713 171.496 265.401 170.504 265.401 168.408C265.401 166.28 266.729 165.256 267.993 165.256Z" fill="#FF5B24"/>
<path d="M280.236 163.528C278.668 163.528 277.708 164.52 277.116 165.592L277.116 163.784L275.116 163.784L275.116 176.2L277.116 176.2L277.116 171.256C277.884 172.568 278.876 173.24 280.044 173.24C282.188 173.24 284.284 171.608 284.284 168.248C284.284 165.032 282.108 163.528 280.236 163.528ZM279.692 165.256C280.956 165.256 282.268 166.264 282.268 168.36C282.268 170.488 280.956 171.496 279.676 171.496C278.332 171.496 277.116 170.408 277.116 168.36C277.116 166.216 278.332 165.256 279.692 165.256Z" fill="#FF5B24"/>
<path d="M290.319 163.528C287.823 163.528 285.759 165.352 285.759 168.376C285.759 171.4 287.823 173.24 290.319 173.24C292.815 173.24 294.879 171.4 294.879 168.376C294.879 165.352 292.815 163.528 290.319 163.528ZM290.319 165.256C291.695 165.256 292.863 166.264 292.863 168.376C292.863 170.488 291.695 171.512 290.319 171.512C288.943 171.512 287.775 170.488 287.775 168.376C287.775 166.264 288.943 165.256 290.319 165.256Z" fill="#FF5B24"/>
<path d="M296.866 163.784L296.866 173L298.866 173L298.866 163.784L296.866 163.784ZM297.858 159.8C297.186 159.8 296.658 160.344 296.658 161C296.658 161.656 297.186 162.2 297.858 162.2C298.53 162.2 299.058 161.656 299.058 161C299.058 160.344 298.53 159.8 297.858 159.8Z" fill="#FF5B24"/>
<path d="M305.7 165.336C306.788 165.336 307.652 165.976 307.652 167.688L307.652 173L309.652 173L309.652 166.824C309.652 164.344 308.084 163.528 306.436 163.528C305.348 163.528 304.084 163.976 303.428 165.144L303.428 163.784L301.428 163.784L301.428 173L303.428 173L303.428 167.736C303.428 166.088 304.372 165.336 305.7 165.336Z" fill="#FF5B24"/>
<path d="M312.835 161.56L312.835 163.784L311.123 163.784L311.123 165.4L312.835 165.4L312.835 170.408C312.835 172.104 313.683 173.16 315.523 173.16C316.083 173.16 316.739 173.016 317.219 172.872L316.899 171.256C316.531 171.352 316.307 171.4 315.939 171.4C315.123 171.4 314.835 171.032 314.835 170.312L314.835 165.4L317.139 165.4L317.139 163.784L314.835 163.784L314.835 161.24L312.835 161.56Z" fill="#FF5B24"/>
<path d="M318.908 166.376C318.908 167.656 319.644 168.6 321.212 168.936L322.892 169.304C324.044 169.56 324.364 169.896 324.364 170.44C324.364 171.208 323.612 171.64 322.508 171.64C321.212 171.64 320.364 171.032 320.236 169.896L318.46 170.216C318.764 172.36 320.764 173.24 322.556 173.24C324.332 173.24 326.22 172.248 326.22 170.248C326.22 168.968 325.468 168.104 323.836 167.752L322.012 167.352C321.084 167.144 320.764 166.696 320.764 166.216C320.764 165.544 321.404 165.128 322.316 165.128C323.42 165.128 324.236 165.528 324.3 166.728L326.076 166.408C325.548 164.344 324.156 163.528 322.3 163.528C320.796 163.528 318.908 164.36 318.908 166.376Z" fill="#FF5B24"/>
<path d="M915.639 161.288C915.159 158.344 912.631 156.76 910.119 156.76C906.695 156.76 903.863 159.24 903.863 162.92C903.863 166.856 906.727 169.24 910.167 169.24C912.487 169.24 915.383 167.688 915.735 164.392L913.575 164.072C913.399 166.456 911.767 167.192 910.167 167.192C907.895 167.192 906.119 165.896 906.119 162.92C906.119 160.216 907.895 158.808 910.039 158.808C911.511 158.808 913.127 159.416 913.479 161.608L915.639 161.288Z" fill="#FF5B24"/>
<path d="M921.795 159.528C919.299 159.528 917.235 161.352 917.235 164.376C917.235 167.4 919.299 169.24 921.795 169.24C924.291 169.24 926.355 167.4 926.355 164.376C926.355 161.352 924.291 159.528 921.795 159.528ZM921.795 161.256C923.171 161.256 924.339 162.264 924.339 164.376C924.339 166.488 923.171 167.512 921.795 167.512C920.419 167.512 919.251 166.488 919.251 164.376C919.251 162.264 920.419 161.256 921.795 161.256Z" fill="#FF5B24"/>
<path d="M932.615 161.336C933.703 161.336 934.567 161.976 934.567 163.688L934.567 169L936.567 169L936.567 162.824C936.567 160.344 934.999 159.528 933.351 159.528C932.263 159.528 930.999 159.976 930.343 161.144L930.343 159.784L928.343 159.784L928.343 169L930.343 169L930.343 163.736C930.343 162.088 931.287 161.336 932.615 161.336Z" fill="#FF5B24"/>
<path d="M939.574 169L941.574 169L941.574 161.4L943.862 161.4L943.862 159.784L941.574 159.784L941.574 159.416C941.574 158.536 941.83 158.072 942.678 158.072C942.902 158.072 943.094 158.088 943.286 158.12L943.43 156.424C943.174 156.344 942.838 156.296 942.454 156.296C940.726 156.296 939.574 157.384 939.574 159.432L939.574 159.784L938.31 159.784L938.31 161.4L939.574 161.4L939.574 169Z" fill="#FF5B24"/>
<path d="M945.28 159.784L945.28 169L947.28 169L947.28 159.784L945.28 159.784ZM946.272 155.8C945.6 155.8 945.072 156.344 945.072 157C945.072 157.656 945.6 158.2 946.272 158.2C946.944 158.2 947.472 157.656 947.472 157C947.472 156.344 946.944 155.8 946.272 155.8Z" fill="#FF5B24"/>
<path d="M954.259 161.688C954.755 161.688 955.107 161.752 955.459 161.896L955.651 159.656C955.459 159.56 955.187 159.528 954.947 159.528C954.035 159.528 952.595 160.056 951.843 161.992L951.843 159.784L949.843 159.784L949.843 169L951.843 169L951.843 164.968C951.843 162.408 952.963 161.688 954.259 161.688Z" fill="#FF5B24"/>
<path d="M967.347 161.336C968.483 161.336 969.347 161.976 969.347 163.688L969.347 169L971.347 169L971.347 162.824C971.347 160.344 969.827 159.528 968.147 159.528C967.123 159.528 965.827 159.944 965.139 161.32C964.643 160.008 963.475 159.528 962.243 159.528C961.139 159.528 959.811 159.96 959.155 161.144L959.155 159.784L957.155 159.784L957.155 169L959.155 169L959.155 163.736C959.155 162.088 960.099 161.336 961.379 161.336C962.515 161.336 963.379 161.976 963.379 163.688L963.379 169L965.379 169L965.379 163.736C965.379 162.088 966.211 161.336 967.347 161.336Z" fill="#FF5B24"/>
<path d="M982.123 159.528C979.627 159.528 977.563 161.352 977.563 164.376C977.563 167.4 979.627 169.24 982.123 169.24C984.619 169.24 986.683 167.4 986.683 164.376C986.683 161.352 984.619 159.528 982.123 159.528ZM982.123 161.256C983.499 161.256 984.667 162.264 984.667 164.376C984.667 166.488 983.499 167.512 982.123 167.512C980.747 167.512 979.579 166.488 979.579 164.376C979.579 162.264 980.747 161.256 982.123 161.256Z" fill="#FF5B24"/>
<path d="M993.087 161.688C993.583 161.688 993.935 161.752 994.287 161.896L994.479 159.656C994.287 159.56 994.015 159.528 993.775 159.528C992.863 159.528 991.423 160.056 990.671 161.992L990.671 159.784L988.671 159.784L988.671 169L990.671 169L990.671 164.968C990.671 162.408 991.791 161.688 993.087 161.688Z" fill="#FF5B24"/>
<path d="M1004.64 156.6L1002.64 156.6L1002.64 161.592C1001.98 160.136 1000.99 159.528 999.743 159.528C997.599 159.528 995.471 161.08 995.471 164.296C995.471 167.672 997.615 169.24 999.487 169.24C1001.17 169.24 1002.18 168.36 1002.64 167.256L1002.64 169L1004.64 169L1004.64 156.6ZM1000.08 161.256C1001.42 161.256 1002.64 162.328 1002.64 164.408C1002.64 166.552 1001.42 167.496 1000.06 167.496C998.799 167.496 997.487 166.504 997.487 164.408C997.487 162.28 998.815 161.256 1000.08 161.256Z" fill="#FF5B24"/>
<path d="M1011.25 161.256C1012.55 161.256 1013.57 161.864 1013.73 163.4L1008.72 163.4C1008.99 161.976 1009.92 161.256 1011.25 161.256ZM1015.62 164.824L1015.62 164.168C1015.62 161.448 1013.83 159.528 1011.33 159.528C1008.66 159.528 1006.63 161.4 1006.63 164.36C1006.63 167.4 1008.74 169.24 1011.46 169.24C1013.15 169.24 1015.2 168.264 1015.55 166.136L1013.7 165.816C1013.49 166.872 1012.88 167.512 1011.38 167.512C1009.71 167.512 1008.8 166.44 1008.66 164.824L1015.62 164.824Z" fill="#FF5B24"/>
<path d="M1022.01 161.688C1022.5 161.688 1022.86 161.752 1023.21 161.896L1023.4 159.656C1023.21 159.56 1022.94 159.528 1022.7 159.528C1021.78 159.528 1020.34 160.056 1019.59 161.992L1019.59 159.784L1017.59 159.784L1017.59 169L1019.59 169L1019.59 164.968C1019.59 162.408 1020.71 161.688 1022.01 161.688Z" fill="#FF5B24"/>
<path d="M909.441 196.24C911.089 196.24 912.097 195.232 912.561 194.096L912.561 196L914.561 196L914.561 186.784L912.561 186.784L912.561 188.592C911.905 187.136 910.897 186.528 909.457 186.528C907.521 186.528 905.393 188.08 905.393 191.296C905.393 194.672 907.537 196.24 909.441 196.24ZM910.001 188.256C911.345 188.256 912.561 189.28 912.561 191.408C912.561 193.6 911.345 194.496 909.985 194.496C908.721 194.496 907.409 193.552 907.409 191.408C907.409 189.232 908.737 188.256 910.001 188.256Z" fill="#FF5B24"/>
<path d="M921.396 188.336C922.484 188.336 923.348 188.976 923.348 190.688L923.348 196L925.348 196L925.348 189.824C925.348 187.344 923.78 186.528 922.132 186.528C921.044 186.528 919.78 186.976 919.124 188.144L919.124 186.784L917.124 186.784L917.124 196L919.124 196L919.124 190.736C919.124 189.088 920.068 188.336 921.396 188.336Z" fill="#FF5B24"/>
<path d="M936.483 183.6L934.483 183.6L934.483 188.592C933.827 187.136 932.835 186.528 931.587 186.528C929.443 186.528 927.315 188.08 927.315 191.296C927.315 194.672 929.459 196.24 931.331 196.24C933.011 196.24 934.019 195.36 934.483 194.256L934.483 196L936.483 196L936.483 183.6ZM931.923 188.256C933.267 188.256 934.483 189.328 934.483 191.408C934.483 193.552 933.267 194.496 931.907 194.496C930.643 194.496 929.331 193.504 929.331 191.408C929.331 189.28 930.659 188.256 931.923 188.256Z" fill="#FF5B24"/>
<path d="M943.166 189.376C943.166 190.656 943.902 191.6 945.47 191.936L947.15 192.304C948.302 192.56 948.622 192.896 948.622 193.44C948.622 194.208 947.87 194.64 946.766 194.64C945.47 194.64 944.622 194.032 944.494 192.896L942.718 193.216C943.022 195.36 945.022 196.24 946.814 196.24C948.59 196.24 950.478 195.248 950.478 193.248C950.478 191.968 949.726 191.104 948.094 190.752L946.27 190.352C945.342 190.144 945.022 189.696 945.022 189.216C945.022 188.544 945.662 188.128 946.574 188.128C947.678 188.128 948.494 188.528 948.558 189.728L950.334 189.408C949.806 187.344 948.414 186.528 946.558 186.528C945.054 186.528 943.166 187.36 943.166 189.376Z" fill="#FF5B24"/>
<path d="M956.484 188.256C957.78 188.256 958.804 188.864 958.964 190.4L953.956 190.4C954.228 188.976 955.156 188.256 956.484 188.256ZM960.852 191.824L960.852 191.168C960.852 188.448 959.06 186.528 956.564 186.528C953.892 186.528 951.86 188.4 951.86 191.36C951.86 194.4 953.972 196.24 956.692 196.24C958.388 196.24 960.436 195.264 960.788 193.136L958.932 192.816C958.724 193.872 958.116 194.512 956.612 194.512C954.948 194.512 954.036 193.44 953.892 191.824L960.852 191.824Z" fill="#FF5B24"/>
<path d="M967.099 188.336C968.187 188.336 969.051 188.976 969.051 190.688L969.051 196L971.051 196L971.051 189.824C971.051 187.344 969.483 186.528 967.835 186.528C966.747 186.528 965.483 186.976 964.827 188.144L964.827 186.784L962.827 186.784L962.827 196L964.827 196L964.827 190.736C964.827 189.088 965.771 188.336 967.099 188.336Z" fill="#FF5B24"/>
<path d="M982.186 183.6L980.186 183.6L980.186 188.592C979.53 187.136 978.538 186.528 977.29 186.528C975.146 186.528 973.018 188.08 973.018 191.296C973.018 194.672 975.162 196.24 977.034 196.24C978.714 196.24 979.722 195.36 980.186 194.256L980.186 196L982.186 196L982.186 183.6ZM977.626 188.256C978.97 188.256 980.186 189.328 980.186 191.408C980.186 193.552 978.97 194.496 977.61 194.496C976.346 194.496 975.034 193.504 975.034 191.408C975.034 189.28 976.362 188.256 977.626 188.256Z" fill="#FF5B24"/>
<path d="M989.061 186.784L989.061 196L991.061 196L991.061 186.784L989.061 186.784ZM990.053 182.8C989.381 182.8 988.853 183.344 988.853 184C988.853 184.656 989.381 185.2 990.053 185.2C990.725 185.2 991.253 184.656 991.253 184C991.253 183.344 990.725 182.8 990.053 182.8Z" fill="#FF5B24"/>
<path d="M994.328 184.56L994.328 186.784L992.616 186.784L992.616 188.4L994.328 188.4L994.328 193.408C994.328 195.104 995.176 196.16 997.016 196.16C997.576 196.16 998.232 196.016 998.712 195.872L998.392 194.256C998.024 194.352 997.8 194.4 997.432 194.4C996.616 194.4 996.328 194.032 996.328 193.312L996.328 188.4L998.632 188.4L998.632 186.784L996.328 186.784L996.328 184.24L994.328 184.56Z" fill="#FF5B24"/>
<path d="M1004.64 188.256C1005.94 188.256 1006.96 188.864 1007.12 190.4L1002.11 190.4C1002.38 188.976 1003.31 188.256 1004.64 188.256ZM1009.01 191.824L1009.01 191.168C1009.01 188.448 1007.22 186.528 1004.72 186.528C1002.05 186.528 1000.02 188.4 1000.02 191.36C1000.02 194.4 1002.13 196.24 1004.85 196.24C1006.54 196.24 1008.59 195.264 1008.94 193.136L1007.09 192.816C1006.88 193.872 1006.27 194.512 1004.77 194.512C1003.1 194.512 1002.19 193.44 1002.05 191.824L1009.01 191.824Z" fill="#FF5B24"/>
<path d="M1021.18 188.336C1022.31 188.336 1023.18 188.976 1023.18 190.688L1023.18 196L1025.18 196L1025.18 189.824C1025.18 187.344 1023.66 186.528 1021.98 186.528C1020.95 186.528 1019.66 186.944 1018.97 188.32C1018.47 187.008 1017.3 186.528 1016.07 186.528C1014.97 186.528 1013.64 186.96 1012.98 188.144L1012.98 186.784L1010.98 186.784L1010.98 196L1012.98 196L1012.98 190.736C1012.98 189.088 1013.93 188.336 1015.21 188.336C1016.34 188.336 1017.21 188.976 1017.21 190.688L1017.21 196L1019.21 196L1019.21 190.736C1019.21 189.088 1020.04 188.336 1021.18 188.336Z" fill="#FF5B24"/>
<path d="M1075.4 173L1079.23 161L1076.92 161L1074.47 170.008L1071.98 161L1069.91 161L1067.5 170.2L1064.97 161L1062.67 161L1066.49 173L1068.6 173L1070.95 164.408L1073.45 173L1075.4 173Z" fill="#FF5B24"/>
<path d="M1081.05 163.784L1081.05 173L1083.05 173L1083.05 163.784L1081.05 163.784ZM1082.04 159.8C1081.37 159.8 1080.84 160.344 1080.84 161C1080.84 161.656 1081.37 162.2 1082.04 162.2C1082.71 162.2 1083.24 161.656 1083.24 161C1083.24 160.344 1082.71 159.8 1082.04 159.8Z" fill="#FF5B24"/>
<path d="M1086.31 161.56L1086.31 163.784L1084.6 163.784L1084.6 165.4L1086.31 165.4L1086.31 170.408C1086.31 172.104 1087.16 173.16 1089 173.16C1089.56 173.16 1090.22 173.016 1090.7 172.872L1090.38 171.256C1090.01 171.352 1089.78 171.4 1089.42 171.4C1088.6 171.4 1088.31 171.032 1088.31 170.312L1088.31 165.4L1090.62 165.4L1090.62 163.784L1088.31 163.784L1088.31 161.24L1086.31 161.56Z" fill="#FF5B24"/>
<path d="M1092.58 160.6L1092.58 173L1094.58 173L1094.58 167.736C1094.58 166.088 1095.52 165.336 1096.86 165.336C1097.94 165.336 1098.8 165.976 1098.8 167.688L1098.8 173L1100.8 173L1100.8 166.824C1100.8 164.344 1099.28 163.528 1097.52 163.528C1096.54 163.528 1095.23 163.96 1094.58 165.144L1094.58 160.6L1092.58 160.6Z" fill="#FF5B24"/>
<path d="M1111.94 160.6L1109.94 160.6L1109.94 165.592C1109.28 164.136 1108.29 163.528 1107.04 163.528C1104.9 163.528 1102.77 165.08 1102.77 168.296C1102.77 171.672 1104.91 173.24 1106.78 173.24C1108.46 173.24 1109.47 172.36 1109.94 171.256L1109.94 173L1111.94 173L1111.94 160.6ZM1107.38 165.256C1108.72 165.256 1109.94 166.328 1109.94 168.408C1109.94 170.552 1108.72 171.496 1107.36 171.496C1106.1 171.496 1104.78 170.504 1104.78 168.408C1104.78 166.28 1106.11 165.256 1107.38 165.256Z" fill="#FF5B24"/>
<path d="M1118.91 165.688C1119.41 165.688 1119.76 165.752 1120.11 165.896L1120.31 163.656C1120.11 163.56 1119.84 163.528 1119.6 163.528C1118.69 163.528 1117.25 164.056 1116.5 165.992L1116.5 163.784L1114.5 163.784L1114.5 173L1116.5 173L1116.5 168.968C1116.5 166.408 1117.62 165.688 1118.91 165.688Z" fill="#FF5B24"/>
<path d="M1125.35 173.24C1127 173.24 1128 172.232 1128.47 171.096L1128.47 173L1130.47 173L1130.47 163.784L1128.47 163.784L1128.47 165.592C1127.81 164.136 1126.8 163.528 1125.36 163.528C1123.43 163.528 1121.3 165.08 1121.3 168.296C1121.3 171.672 1123.44 173.24 1125.35 173.24ZM1125.91 165.256C1127.25 165.256 1128.47 166.28 1128.47 168.408C1128.47 170.6 1127.25 171.496 1125.89 171.496C1124.63 171.496 1123.32 170.552 1123.32 168.408C1123.32 166.232 1124.64 165.256 1125.91 165.256Z" fill="#FF5B24"/>
<path d="M1146.31 163.784L1144.09 163.784L1142.12 170.504L1139.89 163.784L1138.41 163.784L1136.2 170.472L1134.21 163.784L1131.99 163.784L1135.3 173L1137.03 173L1139.16 167.176L1141.27 173L1143 173L1146.31 163.784Z" fill="#FF5B24"/>
<path d="M1157.26 163.528C1155.69 163.528 1154.73 164.52 1154.14 165.592L1154.14 163.784L1152.14 163.784L1152.14 176.2L1154.14 176.2L1154.14 171.256C1154.91 172.568 1155.9 173.24 1157.07 173.24C1159.21 173.24 1161.31 171.608 1161.31 168.248C1161.31 165.032 1159.13 163.528 1157.26 163.528ZM1156.72 165.256C1157.98 165.256 1159.29 166.264 1159.29 168.36C1159.29 170.488 1157.98 171.496 1156.7 171.496C1155.36 171.496 1154.14 170.408 1154.14 168.36C1154.14 166.216 1155.36 165.256 1156.72 165.256Z" fill="#FF5B24"/>
<path d="M1166.89 173.24C1168.54 173.24 1169.55 172.232 1170.01 171.096L1170.01 173L1172.01 173L1172.01 163.784L1170.01 163.784L1170.01 165.592C1169.36 164.136 1168.35 163.528 1166.91 163.528C1164.97 163.528 1162.85 165.08 1162.85 168.296C1162.85 171.672 1164.99 173.24 1166.89 173.24ZM1167.45 165.256C1168.8 165.256 1170.01 166.28 1170.01 168.408C1170.01 170.6 1168.8 171.496 1167.44 171.496C1166.17 171.496 1164.86 170.552 1164.86 168.408C1164.86 166.232 1166.19 165.256 1167.45 165.256Z" fill="#FF5B24"/>
<path d="M1175.39 176.2C1177.18 176.2 1178.34 175.256 1179.06 173.384L1182.74 163.784L1180.51 163.784L1178.19 170.984L1175.76 163.784L1173.54 163.784L1176.93 172.296C1177.39 173.464 1176.96 174.536 1175.58 174.536C1174.86 174.536 1174.42 174.312 1174.13 174.136L1173.81 175.864C1174.24 176.072 1174.78 176.2 1175.39 176.2Z" fill="#FF5B24"/>
<path d="M1194.46 165.336C1195.59 165.336 1196.46 165.976 1196.46 167.688L1196.46 173L1198.46 173L1198.46 166.824C1198.46 164.344 1196.94 163.528 1195.26 163.528C1194.23 163.528 1192.94 163.944 1192.25 165.32C1191.75 164.008 1190.58 163.528 1189.35 163.528C1188.25 163.528 1186.92 163.96 1186.26 165.144L1186.26 163.784L1184.26 163.784L1184.26 173L1186.26 173L1186.26 167.736C1186.26 166.088 1187.21 165.336 1188.49 165.336C1189.62 165.336 1190.49 165.976 1190.49 167.688L1190.49 173L1192.49 173L1192.49 167.736C1192.49 166.088 1193.32 165.336 1194.46 165.336Z" fill="#FF5B24"/>
<path d="M1204.98 165.256C1206.28 165.256 1207.3 165.864 1207.46 167.4L1202.46 167.4C1202.73 165.976 1203.66 165.256 1204.98 165.256ZM1209.35 168.824L1209.35 168.168C1209.35 165.448 1207.56 163.528 1205.06 163.528C1202.39 163.528 1200.36 165.4 1200.36 168.36C1200.36 171.4 1202.47 173.24 1205.19 173.24C1206.89 173.24 1208.94 172.264 1209.29 170.136L1207.43 169.816C1207.22 170.872 1206.62 171.512 1205.11 171.512C1203.45 171.512 1202.54 170.44 1202.39 168.824L1209.35 168.824Z" fill="#FF5B24"/>
<path d="M1215.6 165.336C1216.69 165.336 1217.55 165.976 1217.55 167.688L1217.55 173L1219.55 173L1219.55 166.824C1219.55 164.344 1217.98 163.528 1216.33 163.528C1215.25 163.528 1213.98 163.976 1213.33 165.144L1213.33 163.784L1211.33 163.784L1211.33 173L1213.33 173L1213.33 167.736C1213.33 166.088 1214.27 165.336 1215.6 165.336Z" fill="#FF5B24"/>
<path d="M1222.73 161.56L1222.73 163.784L1221.02 163.784L1221.02 165.4L1222.73 165.4L1222.73 170.408C1222.73 172.104 1223.58 173.16 1225.42 173.16C1225.98 173.16 1226.64 173.016 1227.12 172.872L1226.8 171.256C1226.43 171.352 1226.21 171.4 1225.84 171.4C1225.02 171.4 1224.73 171.032 1224.73 170.312L1224.73 165.4L1227.04 165.4L1227.04 163.784L1224.73 163.784L1224.73 161.24L1222.73 161.56Z" fill="#FF5B24"/>
<path d="M568.935 265.288C568.455 262.344 565.927 260.76 563.415 260.76C559.991 260.76 557.159 263.24 557.159 266.92C557.159 270.856 560.023 273.24 563.463 273.24C565.783 273.24 568.679 271.688 569.031 268.392L566.871 268.072C566.695 270.456 565.063 271.192 563.463 271.192C561.191 271.192 559.415 269.896 559.415 266.92C559.415 264.216 561.191 262.808 563.335 262.808C564.807 262.808 566.423 263.416 566.775 265.608L568.935 265.288Z" fill="#4D3280"/>
<path d="M574.644 273.24C576.292 273.24 577.3 272.232 577.764 271.096L577.764 273L579.764 273L579.764 263.784L577.764 263.784L577.764 265.592C577.108 264.136 576.1 263.528 574.66 263.528C572.724 263.528 570.596 265.08 570.596 268.296C570.596 271.672 572.74 273.24 574.644 273.24ZM575.204 265.256C576.548 265.256 577.764 266.28 577.764 268.408C577.764 270.6 576.548 271.496 575.188 271.496C573.924 271.496 572.612 270.552 572.612 268.408C572.612 266.232 573.94 265.256 575.204 265.256Z" fill="#4D3280"/>
<path d="M586.599 265.336C587.687 265.336 588.551 265.976 588.551 267.688L588.551 273L590.551 273L590.551 266.824C590.551 264.344 588.983 263.528 587.335 263.528C586.247 263.528 584.983 263.976 584.327 265.144L584.327 263.784L582.327 263.784L582.327 273L584.327 273L584.327 267.736C584.327 266.088 585.271 265.336 586.599 265.336Z" fill="#4D3280"/>
<path d="M601.542 267.368C601.206 264.888 599.238 263.528 597.094 263.528C594.454 263.528 592.454 265.4 592.454 268.376C592.454 271.224 594.422 273.24 597.238 273.24C599.014 273.24 601.094 272.264 601.526 269.448L599.702 269.128C599.494 270.696 598.63 271.496 597.222 271.496C595.35 271.496 594.47 270.072 594.47 268.376C594.47 266.328 595.59 265.256 596.998 265.256C598.278 265.256 599.35 265.944 599.574 267.688L601.542 267.368Z" fill="#4D3280"/>
<path d="M607.469 265.256C608.765 265.256 609.789 265.864 609.949 267.4L604.941 267.4C605.213 265.976 606.141 265.256 607.469 265.256ZM611.837 268.824L611.837 268.168C611.837 265.448 610.045 263.528 607.549 263.528C604.877 263.528 602.845 265.4 602.845 268.36C602.845 271.4 604.957 273.24 607.677 273.24C609.373 273.24 611.421 272.264 611.773 270.136L609.917 269.816C609.709 270.872 609.101 271.512 607.597 271.512C605.933 271.512 605.021 270.44 604.877 268.824L611.837 268.824Z" fill="#4D3280"/>
<path d="M613.811 260.6L613.811 273L615.811 273L615.811 260.6L613.811 260.6Z" fill="#4D3280"/>
<path d="M618.374 260.6L618.374 273L620.374 273L620.374 260.6L618.374 260.6Z" fill="#4D3280"/>
<path d="M626.472 273.24C628.12 273.24 629.128 272.232 629.592 271.096L629.592 273L631.592 273L631.592 263.784L629.592 263.784L629.592 265.592C628.936 264.136 627.928 263.528 626.488 263.528C624.552 263.528 622.424 265.08 622.424 268.296C622.424 271.672 624.568 273.24 626.472 273.24ZM627.032 265.256C628.376 265.256 629.592 266.28 629.592 268.408C629.592 270.6 628.376 271.496 627.016 271.496C625.752 271.496 624.44 270.552 624.44 268.408C624.44 266.232 625.768 265.256 627.032 265.256Z" fill="#4D3280"/>
<path d="M634.859 261.56L634.859 263.784L633.147 263.784L633.147 265.4L634.859 265.4L634.859 270.408C634.859 272.104 635.707 273.16 637.547 273.16C638.107 273.16 638.763 273.016 639.243 272.872L638.923 271.256C638.555 271.352 638.331 271.4 637.963 271.4C637.147 271.4 636.859 271.032 636.859 270.312L636.859 265.4L639.163 265.4L639.163 263.784L636.859 263.784L636.859 261.24L634.859 261.56Z" fill="#4D3280"/>
<path d="M641.124 263.784L641.124 273L643.124 273L643.124 263.784L641.124 263.784ZM642.116 259.8C641.444 259.8 640.916 260.344 640.916 261C640.916 261.656 641.444 262.2 642.116 262.2C642.788 262.2 643.316 261.656 643.316 261C643.316 260.344 642.788 259.8 642.116 259.8Z" fill="#4D3280"/>
<path d="M649.67 263.528C647.174 263.528 645.11 265.352 645.11 268.376C645.11 271.4 647.174 273.24 649.67 273.24C652.166 273.24 654.23 271.4 654.23 268.376C654.23 265.352 652.166 263.528 649.67 263.528ZM649.67 265.256C651.046 265.256 652.214 266.264 652.214 268.376C652.214 270.488 651.046 271.512 649.67 271.512C648.294 271.512 647.126 270.488 647.126 268.376C647.126 266.264 648.294 265.256 649.67 265.256Z" fill="#4D3280"/>
<path d="M660.49 265.336C661.578 265.336 662.442 265.976 662.442 267.688L662.442 273L664.442 273L664.442 266.824C664.442 264.344 662.874 263.528 661.226 263.528C660.138 263.528 658.874 263.976 658.218 265.144L658.218 263.784L656.218 263.784L656.218 273L658.218 273L658.218 267.736C658.218 266.088 659.162 265.336 660.49 265.336Z" fill="#4D3280"/>
<path d="M567.295 290.528C564.799 290.528 562.735 292.352 562.735 295.376C562.735 298.4 564.799 300.24 567.295 300.24C569.791 300.24 571.855 298.4 571.855 295.376C571.855 292.352 569.791 290.528 567.295 290.528ZM567.295 292.256C568.671 292.256 569.839 293.264 569.839 295.376C569.839 297.488 568.671 298.512 567.295 298.512C565.919 298.512 564.751 297.488 564.751 295.376C564.751 293.264 565.919 292.256 567.295 292.256Z" fill="#4D3280"/>
<path d="M574.371 300L576.371 300L576.371 292.4L578.659 292.4L578.659 290.784L576.371 290.784L576.371 290.416C576.371 289.472 576.819 288.976 577.635 288.976C578.067 288.976 578.435 289.04 578.819 289.152L579.091 287.6C578.643 287.44 578.099 287.296 577.427 287.296C575.587 287.296 574.371 288.48 574.371 290.432L574.371 290.784L573.107 290.784L573.107 292.4L574.371 292.4L574.371 300Z" fill="#4D3280"/>
<path d="M589.509 290.528C587.941 290.528 586.981 291.52 586.389 292.592L586.389 290.784L584.389 290.784L584.389 303.2L586.389 303.2L586.389 298.256C587.157 299.568 588.149 300.24 589.317 300.24C591.461 300.24 593.557 298.608 593.557 295.248C593.557 292.032 591.381 290.528 589.509 290.528ZM588.965 292.256C590.229 292.256 591.541 293.264 591.541 295.36C591.541 297.488 590.229 298.496 588.949 298.496C587.605 298.496 586.389 297.408 586.389 295.36C586.389 293.216 587.605 292.256 588.965 292.256Z" fill="#4D3280"/>
<path d="M599.144 300.24C600.792 300.24 601.8 299.232 602.264 298.096L602.264 300L604.264 300L604.264 290.784L602.264 290.784L602.264 292.592C601.608 291.136 600.6 290.528 599.16 290.528C597.224 290.528 595.096 292.08 595.096 295.296C595.096 298.672 597.24 300.24 599.144 300.24ZM599.704 292.256C601.048 292.256 602.264 293.28 602.264 295.408C602.264 297.6 601.048 298.496 599.688 298.496C598.424 298.496 597.112 297.552 597.112 295.408C597.112 293.232 598.44 292.256 599.704 292.256Z" fill="#4D3280"/>
<path d="M607.643 303.2C609.435 303.2 610.587 302.256 611.307 300.384L614.987 290.784L612.763 290.784L610.443 297.984L608.011 290.784L605.787 290.784L609.179 299.296C609.643 300.464 609.211 301.536 607.835 301.536C607.115 301.536 606.667 301.312 606.379 301.136L606.059 302.864C606.491 303.072 607.035 303.2 607.643 303.2Z" fill="#4D3280"/>
<path d="M626.706 292.336C627.842 292.336 628.706 292.976 628.706 294.688L628.706 300L630.706 300L630.706 293.824C630.706 291.344 629.186 290.528 627.506 290.528C626.482 290.528 625.186 290.944 624.498 292.32C624.002 291.008 622.834 290.528 621.602 290.528C620.498 290.528 619.17 290.96 618.514 292.144L618.514 290.784L616.514 290.784L616.514 300L618.514 300L618.514 294.736C618.514 293.088 619.458 292.336 620.738 292.336C621.874 292.336 622.738 292.976 622.738 294.688L622.738 300L624.738 300L624.738 294.736C624.738 293.088 625.57 292.336 626.706 292.336Z" fill="#4D3280"/>
<path d="M637.234 292.256C638.53 292.256 639.554 292.864 639.714 294.4L634.706 294.4C634.978 292.976 635.906 292.256 637.234 292.256ZM641.602 295.824L641.602 295.168C641.602 292.448 639.81 290.528 637.314 290.528C634.642 290.528 632.61 292.4 632.61 295.36C632.61 298.4 634.722 300.24 637.442 300.24C639.138 300.24 641.186 299.264 641.538 297.136L639.682 296.816C639.474 297.872 638.866 298.512 637.362 298.512C635.698 298.512 634.786 297.44 634.642 295.824L641.602 295.824Z" fill="#4D3280"/>
<path d="M647.849 292.336C648.937 292.336 649.801 292.976 649.801 294.688L649.801 300L651.801 300L651.801 293.824C651.801 291.344 650.233 290.528 648.585 290.528C647.497 290.528 646.233 290.976 645.577 292.144L645.577 290.784L643.577 290.784L643.577 300L645.577 300L645.577 294.736C645.577 293.088 646.521 292.336 647.849 292.336Z" fill="#4D3280"/>
<path d="M654.984 288.56L654.984 290.784L653.272 290.784L653.272 292.4L654.984 292.4L654.984 297.408C654.984 299.104 655.832 300.16 657.672 300.16C658.232 300.16 658.888 300.016 659.368 299.872L659.048 298.256C658.68 298.352 658.456 298.4 658.088 298.4C657.272 298.4 656.984 298.032 656.984 297.312L656.984 292.4L659.288 292.4L659.288 290.784L656.984 290.784L656.984 288.24L654.984 288.56Z" fill="#4D3280"/>
<path d="M1293.53 285L1293.53 297L1295.62 297L1295.62 292.424L1297.14 292.424C1298.44 292.424 1299.19 292.936 1299.38 294.04L1299.7 295.896C1299.8 296.488 1300.07 296.808 1300.39 297L1302.92 297C1302.47 296.728 1302.12 296.248 1301.97 295.688L1301.48 293.752C1301.19 292.616 1300.65 292.088 1299.86 291.768C1300.97 291.128 1301.81 290.024 1301.81 288.632C1301.81 286.392 1300.31 285 1297.69 285L1293.53 285ZM1297.64 286.872C1298.76 286.872 1299.57 287.528 1299.57 288.728C1299.57 289.784 1298.84 290.552 1297.65 290.552L1295.62 290.552L1295.62 286.872L1297.64 286.872Z" fill="#4D3280"/>
<path d="M1307.96 289.256C1309.26 289.256 1310.28 289.864 1310.44 291.4L1305.43 291.4C1305.7 289.976 1306.63 289.256 1307.96 289.256ZM1312.33 292.824L1312.33 292.168C1312.33 289.448 1310.54 287.528 1308.04 287.528C1305.37 287.528 1303.34 289.4 1303.34 292.36C1303.34 295.4 1305.45 297.24 1308.17 297.24C1309.86 297.24 1311.91 296.264 1312.26 294.136L1310.41 293.816C1310.2 294.872 1309.59 295.512 1308.09 295.512C1306.42 295.512 1305.51 294.44 1305.37 292.824L1312.33 292.824Z" fill="#4D3280"/>
<path d="M1314.83 297L1316.83 297L1316.83 289.4L1319.12 289.4L1319.12 287.784L1316.83 287.784L1316.83 287.416C1316.83 286.472 1317.28 285.976 1318.1 285.976C1318.53 285.976 1318.9 286.04 1319.28 286.152L1319.55 284.6C1319.1 284.44 1318.56 284.296 1317.89 284.296C1316.05 284.296 1314.83 285.48 1314.83 287.432L1314.83 287.784L1313.57 287.784L1313.57 289.4L1314.83 289.4L1314.83 297Z" fill="#4D3280"/>
<path d="M1328.71 297L1328.71 287.784L1326.71 287.784L1326.71 293.144C1326.71 294.712 1325.67 295.432 1324.33 295.432C1323.1 295.432 1322.49 294.888 1322.49 293.464L1322.49 287.784L1320.49 287.784L1320.49 294.216C1320.49 296.344 1322.03 297.24 1323.56 297.24C1324.71 297.24 1325.99 296.712 1326.71 295.448L1326.71 297L1328.71 297Z" fill="#4D3280"/>
<path d="M1335.51 289.336C1336.6 289.336 1337.46 289.976 1337.46 291.688L1337.46 297L1339.46 297L1339.46 290.824C1339.46 288.344 1337.9 287.528 1336.25 287.528C1335.16 287.528 1333.9 287.976 1333.24 289.144L1333.24 287.784L1331.24 287.784L1331.24 297L1333.24 297L1333.24 291.736C1333.24 290.088 1334.18 289.336 1335.51 289.336Z" fill="#4D3280"/>
<path d="M1350.6 284.6L1348.6 284.6L1348.6 289.592C1347.94 288.136 1346.95 287.528 1345.7 287.528C1343.56 287.528 1341.43 289.08 1341.43 292.296C1341.43 295.672 1343.58 297.24 1345.45 297.24C1347.13 297.24 1348.14 296.36 1348.6 295.256L1348.6 297L1350.6 297L1350.6 284.6ZM1346.04 289.256C1347.38 289.256 1348.6 290.328 1348.6 292.408C1348.6 294.552 1347.38 295.496 1346.02 295.496C1344.76 295.496 1343.45 294.504 1343.45 292.408C1343.45 290.28 1344.78 289.256 1346.04 289.256Z" fill="#4D3280"/>
<path d="M611 185C616.523 185 621 189.477 621 195C621 200.523 616.523 205 611 205C605.477 205 601 200.523 601 195C601 189.477 605.477 185 611 185Z" fill="white" stroke="#49367E" stroke-width="4"/>
<mask id="path-14-inside-1" fill="white">
<path fill-rule="evenodd" clip-rule="evenodd" d="M619 195C619 190.582 615.418 187 611 187C606.582 187 603 190.582 603 195C603 199.418 606.582 203 611 203C615.418 203 619 199.418 619 195ZM623 195C623 188.373 617.627 183 611 183C604.373 183 599 188.373 599 195C599 201.627 604.373 207 611 207C617.627 207 623 201.627 623 195Z"/>
</mask>
<path fill-rule="evenodd" clip-rule="evenodd" d="M619 195C619 190.582 615.418 187 611 187C606.582 187 603 190.582 603 195C603 199.418 606.582 203 611 203C615.418 203 619 199.418 619 195ZM623 195C623 188.373 617.627 183 611 183C604.373 183 599 188.373 599 195C599 201.627 604.373 207 611 207C617.627 207 623 201.627 623 195Z" fill="#49367E"/>
<path d="M611 191C613.209 191 615 192.791 615 195L623 195C623 188.373 617.627 183 611 183L611 191ZM607 195C607 192.791 608.791 191 611 191L611 183C604.373 183 599 188.373 599 195L607 195ZM611 199C608.791 199 607 197.209 607 195L599 195C599 201.627 604.373 207 611 207L611 199ZM615 195C615 197.209 613.209 199 611 199L611 207C617.627 207 623 201.627 623 195L615 195ZM611 187C615.418 187 619 190.582 619 195L627 195C627 186.163 619.837 179 611 179L611 187ZM603 195C603 190.582 606.582 187 611 187L611 179C602.163 179 595 186.163 595 195L603 195ZM611 203C606.582 203 603 199.418 603 195L595 195C595 203.837 602.163 211 611 211L611 203ZM619 195C619 199.418 615.418 203 611 203L611 211C619.837 211 627 203.837 627 195L619 195Z" fill="#49367E" mask="url(#path-14-inside-1)"/>
<path d="M255 60C260.523 60 265 64.4772 265 70C265 75.5228 260.523 80 255 80C249.477 80 245 75.5228 245 70C245 64.4772 249.477 60 255 60Z" fill="white" stroke="#FF5B24" stroke-width="4"/>
<mask id="path-17-inside-2" fill="white">
<path fill-rule="evenodd" clip-rule="evenodd" d="M263 70C263 65.5817 259.418 62 255 62C250.582 62 247 65.5817 247 70C247 74.4183 250.582 78 255 78C259.418 78 263 74.4183 263 70ZM267 70C267 63.3726 261.627 58 255 58C248.373 58 243 63.3726 243 70C243 76.6274 248.373 82 255 82C261.627 82 267 76.6274 267 70Z"/>
</mask>
<path fill-rule="evenodd" clip-rule="evenodd" d="M263 70C263 65.5817 259.418 62 255 62C250.582 62 247 65.5817 247 70C247 74.4183 250.582 78 255 78C259.418 78 263 74.4183 263 70ZM267 70C267 63.3726 261.627 58 255 58C248.373 58 243 63.3726 243 70C243 76.6274 248.373 82 255 82C261.627 82 267 76.6274 267 70Z" fill="#FF5B24"/>
<path d="M255 66C257.209 66 259 67.7909 259 70L267 70C267 63.3726 261.627 58 255 58L255 66ZM251 70C251 67.7909 252.791 66 255 66L255 58C248.373 58 243 63.3726 243 70L251 70ZM255 74C252.791 74 251 72.2091 251 70L243 70C243 76.6274 248.373 82 255 82L255 74ZM259 70C259 72.2091 257.209 74 255 74L255 82C261.627 82 267 76.6274 267 70L259 70ZM255 62C259.418 62 263 65.5817 263 70L271 70C271 61.1634 263.837 54 255 54L255 62ZM247 70C247 65.5817 250.582 62 255 62L255 54C246.163 54 239 61.1634 239 70L247 70ZM255 78C250.582 78 247 74.4183 247 70L239 70C239 78.8366 246.163 86 255 86L255 78ZM263 70C263 74.4183 259.418 78 255 78L255 86C263.837 86 271 78.8366 271 70L263 70Z" fill="#FF5B24" mask="url(#path-17-inside-2)"/>
<path d="M77 59C83.6274 59 89 64.3726 89 71C89 77.6274 83.6274 83 77 83C70.3726 83 65 77.6274 65 71C65 64.3726 70.3726 59 77 59Z" fill="white"/>
<path fill-rule="evenodd" clip-rule="evenodd" d="M85 71C85 66.5817 81.4183 63 77 63C72.5817 63 69 66.5817 69 71C69 75.4183 72.5817 79 77 79C81.4183 79 85 75.4183 85 71ZM89 71C89 64.3726 83.6274 59 77 59C70.3726 59 65 64.3726 65 71C65 77.6274 70.3726 83 77 83C83.6274 83 89 77.6274 89 71Z" fill="#FF5B24"/>
<path d="M1267.24 195.057C1267.24 225.883 1292.23 250.873 1323.06 250.873C1353.88 250.873 1378.87 225.883 1378.87 195.057C1378.87 164.229 1353.88 139.24 1323.06 139.24C1292.23 139.24 1267.24 164.229 1267.24 195.057Z" fill="#EEEDF3"/>
<path d="M1342.57 212.144C1342.57 212.144 1335.97 229.357 1311.08 230.44L1298.16 209.028" fill="#FFD3BA"/>
<path d="M1305.22 196.118C1305.22 196.118 1320.31 206.116 1314.91 230.44L1305.2 232.957" fill="#FFD3BA"/>
<path fill-rule="evenodd" clip-rule="evenodd" d="M1292.56 242.46L1318.39 228.665L1301.25 205.46L1273.09 220.608C1277.53 229.506 1284.28 237.051 1292.56 242.46Z" fill="#FFD3BA"/>
<path d="M1294.8 221.091C1293.26 221.086 1291.73 220.493 1290.55 219.314C1288.21 216.956 1288.22 213.144 1290.58 210.8C1301.57 199.878 1294.68 181.119 1294.61 180.931C1293.42 177.827 1294.98 174.354 1298.08 173.164C1301.19 171.973 1304.67 173.534 1305.86 176.639C1306.27 177.702 1315.65 202.856 1299.07 219.34C1297.89 220.512 1296.35 221.095 1294.8 221.091Z" fill="#FFD3BA"/>
<path d="M1314.61 177.47C1313.77 178.199 1312.93 178.928 1312.09 179.657C1309.9 181.555 1307.64 183.374 1305.52 185.346C1302.13 188.493 1300.02 192.373 1299.19 196.923C1298.34 201.532 1298.94 205.965 1301.01 210.17C1302.99 214.2 1306.03 217.227 1310 219.305C1312.84 220.785 1315.86 221.582 1319.05 221.706C1325.04 221.939 1330.31 220.128 1334.74 216.072C1337.89 213.188 1339.88 209.604 1340.82 205.443C1341.32 203.21 1341.46 200.951 1341.22 198.677C1340.74 194.055 1338.95 190.005 1335.84 186.545C1334.73 185.317 1333.45 184.288 1332.21 183.213C1330.04 181.344 1327.87 179.481 1325.7 177.616C1325.64 177.57 1325.6 177.518 1325.55 177.468C1325.26 177.466 1324.96 177.472 1324.67 177.457C1324.49 177.448 1324.45 177.527 1324.45 177.688C1324.46 177.992 1324.45 178.297 1324.45 178.602C1324.45 181.631 1324.45 184.66 1324.45 187.69C1324.45 188.24 1324.25 188.678 1323.76 188.943C1322.86 189.428 1321.83 188.782 1321.83 187.733C1321.82 185.348 1321.83 182.963 1321.83 180.578C1321.83 179.62 1321.82 178.663 1321.83 177.705C1321.83 177.509 1321.78 177.448 1321.58 177.455C1321.16 177.47 1320.73 177.459 1320.3 177.459C1318.4 177.466 1316.51 177.468 1314.61 177.47ZM1319.64 209.062C1319.25 209.062 1318.86 209.053 1318.47 209.066C1318.29 209.073 1318.25 209.012 1318.25 208.847C1318.26 208.281 1318.24 207.715 1318.26 207.149C1318.27 206.884 1318.2 206.779 1317.94 206.712C1317.01 206.477 1316.17 206.046 1315.47 205.376C1314.37 204.327 1313.98 203.027 1314.07 201.543C1314.17 199.92 1314.9 198.705 1316.33 197.92C1317.32 197.38 1318.4 197.11 1319.46 196.788C1320.08 196.599 1320.71 196.416 1321.26 196.05C1321.8 195.694 1322.07 195.197 1322.01 194.547C1321.95 193.9 1321.6 193.452 1321.01 193.189C1320.54 192.98 1320.04 192.928 1319.53 192.962C1318.39 193.041 1317.76 193.533 1317.4 194.627C1317.33 194.832 1317.28 195.045 1317.24 195.258C1317.22 195.409 1317.19 195.472 1317 195.443C1316.16 195.313 1315.32 195.206 1314.47 195.084C1313.87 194.997 1313.87 194.991 1314.01 194.39C1314.53 192.142 1315.75 190.551 1318.11 190.042C1318.25 190.012 1318.26 189.931 1318.26 189.818C1318.25 189.243 1318.27 188.669 1318.25 188.094C1318.24 187.868 1318.32 187.822 1318.53 187.827C1319.28 187.84 1320.03 187.837 1320.77 187.827C1320.97 187.824 1321.05 187.866 1321.04 188.081C1321.02 188.656 1321.04 189.23 1321.03 189.805C1321.03 189.957 1321.08 190.02 1321.23 190.051C1321.44 190.094 1321.65 190.146 1321.85 190.214C1323.18 190.651 1324.25 191.402 1324.8 192.743C1325.25 193.844 1325.26 194.98 1324.96 196.12C1324.58 197.524 1323.59 198.381 1322.33 198.986C1321.38 199.448 1320.35 199.722 1319.35 200.076C1318.8 200.272 1318.26 200.477 1317.8 200.856C1317.52 201.091 1317.31 201.376 1317.26 201.748C1317.14 202.52 1317.49 203.204 1318.21 203.576C1319.1 204.028 1320.03 203.998 1320.96 203.789C1321.94 203.569 1322.55 202.953 1322.81 201.978C1322.89 201.656 1322.93 201.328 1322.94 200.999C1322.94 200.81 1323.02 200.79 1323.17 200.814C1324.09 200.953 1325.01 201.093 1325.93 201.219C1326.09 201.241 1326.12 201.299 1326.1 201.437C1326.05 201.968 1325.94 202.486 1325.74 202.977C1324.91 205.014 1323.37 206.231 1321.29 206.807C1321.1 206.862 1321.02 206.923 1321.03 207.13C1321.04 207.695 1321.02 208.261 1321.04 208.827C1321.04 209.029 1320.98 209.073 1320.79 209.066C1320.41 209.051 1320.02 209.062 1319.64 209.062Z" fill="#FF985F"/>
<path d="M1325.16 174.843C1326.37 172.758 1327.57 170.676 1328.77 168.587C1330.32 165.869 1328.79 162.559 1325.72 161.975C1325.45 161.925 1325.18 161.906 1324.91 161.906C1321.69 161.908 1318.47 161.906 1315.25 161.906C1311.82 161.906 1309.68 165.544 1311.37 168.537C1312.53 170.587 1313.72 172.617 1314.9 174.656C1314.93 174.715 1314.96 174.78 1314.99 174.841C1317.76 174.843 1320.52 174.845 1323.29 174.848C1323.91 174.85 1324.54 174.845 1325.16 174.843Z" fill="#FF985F"/>
<path d="M1325.16 174.843C1324.54 174.845 1323.91 174.852 1323.29 174.852C1320.52 174.85 1317.75 174.848 1314.99 174.845C1314.82 174.848 1314.66 174.852 1314.49 174.852C1313.73 174.856 1313.15 175.411 1313.15 176.149C1313.14 176.867 1313.71 177.442 1314.45 177.463C1314.51 177.466 1314.56 177.468 1314.61 177.472C1316.51 177.47 1318.41 177.466 1320.3 177.463C1320.73 177.463 1321.16 177.474 1321.58 177.459C1321.78 177.453 1321.83 177.513 1321.83 177.709C1321.82 178.667 1321.83 179.624 1321.83 180.582C1321.83 182.967 1321.83 185.352 1321.83 187.737C1321.83 188.786 1322.86 189.433 1323.76 188.947C1324.25 188.682 1324.45 188.242 1324.45 187.694C1324.45 184.664 1324.45 181.635 1324.45 178.606C1324.45 178.301 1324.46 177.997 1324.45 177.692C1324.45 177.531 1324.49 177.453 1324.67 177.461C1324.96 177.476 1325.26 177.47 1325.56 177.472C1326.39 177.439 1326.91 177.026 1327 176.327C1327.1 175.557 1326.52 174.872 1325.74 174.854C1325.55 174.848 1325.36 174.845 1325.16 174.843Z" fill="#FD5B24"/>
<path d="M1319.64 209.063C1320.02 209.063 1320.41 209.052 1320.79 209.067C1320.98 209.073 1321.04 209.03 1321.04 208.828C1321.02 208.262 1321.04 207.696 1321.03 207.13C1321.02 206.923 1321.1 206.86 1321.29 206.808C1323.37 206.231 1324.91 205.015 1325.74 202.978C1325.94 202.484 1326.05 201.968 1326.1 201.437C1326.12 201.3 1326.09 201.241 1325.94 201.22C1325.02 201.091 1324.1 200.954 1323.18 200.815C1323.02 200.791 1322.95 200.81 1322.94 201C1322.93 201.328 1322.89 201.657 1322.81 201.979C1322.55 202.954 1321.95 203.57 1320.96 203.79C1320.03 203.999 1319.1 204.029 1318.22 203.576C1317.49 203.204 1317.14 202.519 1317.26 201.748C1317.32 201.376 1317.52 201.091 1317.8 200.856C1318.26 200.477 1318.81 200.273 1319.35 200.077C1320.35 199.722 1321.38 199.448 1322.34 198.987C1323.59 198.382 1324.58 197.524 1324.96 196.121C1325.26 194.983 1325.25 193.844 1324.8 192.743C1324.25 191.403 1323.18 190.652 1321.86 190.214C1321.65 190.147 1321.44 190.093 1321.23 190.051C1321.08 190.023 1321.03 189.96 1321.03 189.805C1321.04 189.231 1321.03 188.656 1321.04 188.082C1321.05 187.866 1320.97 187.823 1320.78 187.827C1320.03 187.838 1319.28 187.838 1318.53 187.827C1318.32 187.823 1318.25 187.869 1318.25 188.095C1318.27 188.669 1318.26 189.244 1318.26 189.818C1318.26 189.932 1318.25 190.014 1318.12 190.043C1315.75 190.552 1314.54 192.143 1314.02 194.391C1313.88 194.993 1313.88 194.998 1314.47 195.085C1315.32 195.207 1316.16 195.313 1317.01 195.444C1317.19 195.472 1317.22 195.409 1317.25 195.259C1317.29 195.046 1317.33 194.832 1317.4 194.628C1317.76 193.533 1318.39 193.041 1319.54 192.963C1320.05 192.928 1320.54 192.98 1321.02 193.189C1321.61 193.451 1321.95 193.901 1322.01 194.547C1322.07 195.198 1321.8 195.694 1321.26 196.051C1320.71 196.417 1320.08 196.599 1319.46 196.789C1318.4 197.111 1317.32 197.383 1316.34 197.92C1314.9 198.706 1314.17 199.92 1314.07 201.544C1313.98 203.028 1314.38 204.329 1315.47 205.376C1316.17 206.049 1317.01 206.477 1317.94 206.712C1318.2 206.778 1318.28 206.884 1318.27 207.15C1318.24 207.716 1318.26 208.281 1318.25 208.847C1318.25 209.013 1318.29 209.073 1318.47 209.067C1318.86 209.052 1319.25 209.063 1319.64 209.063Z" fill="#FF985F"/>
<path d="M1315.24 203.676H1316.76V202.131L1317.62 201.097L1319.34 203.676H1321.04L1318.54 200.009L1320.7 197.409H1318.98L1316.76 200.303V195.244H1315.24V203.676ZM1324.59 198.943C1324.8 198.943 1325.06 198.997 1325.3 199.084L1325.4 197.322C1325.26 197.267 1325.09 197.235 1324.92 197.235C1324.32 197.235 1323.58 197.539 1323.09 198.736V197.409H1321.56V203.676H1323.09V200.607C1323.09 199.269 1323.86 198.943 1324.59 198.943Z" fill="#FFF4EC"/>
<path d="M1349.71 199.45L1341.34 200.301C1338.32 200.551 1335.67 198.308 1335.42 195.29C1335.17 192.273 1337.41 189.624 1340.43 189.373L1348.8 188.522C1351.82 188.272 1354.47 190.515 1354.72 193.532C1354.97 196.55 1352.73 199.199 1349.71 199.45Z" fill="#FFD3BA"/>
<path d="M1348.05 211.929L1339.64 212.088C1336.61 212.089 1334.15 209.634 1334.15 206.607C1334.15 203.579 1336.6 201.123 1339.63 201.122L1348.05 200.964C1351.08 200.963 1353.53 203.417 1353.54 206.444C1353.54 209.472 1351.08 211.928 1348.05 211.929Z" fill="#FFD3BA"/>
<path d="M1346.16 223.127L1337.77 222.5C1334.75 222.219 1332.53 219.546 1332.82 216.532C1333.1 213.516 1335.77 211.301 1338.78 211.582L1347.18 212.209C1350.19 212.49 1352.41 215.162 1352.13 218.177C1351.85 221.192 1349.18 223.408 1346.16 223.127Z" fill="#FFD3BA"/>
<path d="M1200.82 71.0572C1200.82 101.884 1175.83 126.874 1145 126.874C1114.17 126.874 1089.18 101.884 1089.18 71.0572C1089.18 40.2304 1114.17 15.2401 1145 15.2401C1175.83 15.2401 1200.82 40.2304 1200.82 71.0572Z" fill="#EEEDF3"/>
<path d="M1120.42 51.1252C1121.59 52.1424 1122.76 53.1597 1123.93 54.1769C1126.99 56.8248 1130.14 59.3634 1133.1 62.1145C1137.82 66.5054 1140.77 71.9196 1141.93 78.2691C1143.11 84.7005 1142.28 90.886 1139.39 96.7527C1136.62 102.376 1132.39 106.6 1126.84 109.5C1122.89 111.565 1118.68 112.676 1114.22 112.85C1105.86 113.174 1098.51 110.648 1092.32 104.988C1087.92 100.964 1085.16 95.9632 1083.85 90.1572C1083.14 87.0417 1082.94 83.8898 1083.28 80.7166C1083.96 74.2669 1086.45 68.6158 1090.79 63.7877C1092.34 62.075 1094.13 60.6388 1095.86 59.1387C1098.89 56.5303 1101.92 53.931 1104.94 51.3286C1105.02 51.2649 1105.08 51.192 1105.14 51.1221C1105.56 51.1191 1105.97 51.1282 1106.38 51.107C1106.64 51.0948 1106.69 51.2041 1106.68 51.4288C1106.67 51.854 1106.68 52.2791 1106.68 52.7042C1106.68 56.9311 1106.68 61.158 1106.68 65.3849C1106.68 66.1532 1106.96 66.7635 1107.65 67.134C1108.9 67.8111 1110.34 66.9093 1110.34 65.4456C1110.35 62.1176 1110.35 58.7895 1110.35 55.4614C1110.35 54.1253 1110.35 52.7892 1110.34 51.4531C1110.34 51.1798 1110.41 51.0948 1110.69 51.1039C1111.28 51.1252 1111.88 51.11 1112.47 51.11C1115.12 51.1191 1117.77 51.1221 1120.42 51.1252ZM1113.39 95.2071C1113.94 95.2071 1114.49 95.1949 1115.03 95.2131C1115.28 95.2222 1115.34 95.1372 1115.33 94.9064C1115.32 94.1169 1115.35 93.3274 1115.32 92.5379C1115.3 92.1675 1115.41 92.0217 1115.77 91.9276C1117.07 91.5996 1118.24 90.9984 1119.22 90.0631C1120.74 88.5995 1121.3 86.7867 1121.17 84.7157C1121.03 82.4504 1120.01 80.756 1118.01 79.6598C1116.63 78.9068 1115.13 78.5302 1113.65 78.0808C1112.78 77.8166 1111.9 77.5616 1111.13 77.0514C1110.38 76.5534 1110 75.8611 1110.09 74.9531C1110.17 74.0513 1110.66 73.4257 1111.48 73.0583C1112.14 72.7668 1112.84 72.6939 1113.54 72.7425C1115.15 72.8518 1116.02 73.5381 1116.52 75.0655C1116.62 75.3509 1116.68 75.6485 1116.74 75.9461C1116.77 76.1556 1116.82 76.2437 1117.08 76.2042C1118.25 76.022 1119.43 75.8732 1120.61 75.7032C1121.44 75.5817 1121.44 75.5726 1121.25 74.7345C1120.52 71.5977 1118.82 69.378 1115.53 68.6674C1115.33 68.6249 1115.32 68.5126 1115.33 68.3547C1115.33 67.553 1115.31 66.7514 1115.34 65.9497C1115.34 65.6339 1115.24 65.5701 1114.95 65.5762C1113.9 65.5944 1112.86 65.5914 1111.81 65.5762C1111.54 65.5732 1111.43 65.6309 1111.44 65.9315C1111.46 66.7331 1111.44 67.5348 1111.45 68.3365C1111.46 68.549 1111.39 68.6371 1111.18 68.6796C1110.89 68.7403 1110.59 68.8132 1110.31 68.9073C1108.45 69.5177 1106.96 70.5653 1106.2 72.4358C1105.57 73.9723 1105.55 75.5574 1105.98 77.1486C1106.5 79.1072 1107.88 80.3036 1109.64 81.1477C1110.97 81.7915 1112.41 82.1741 1113.8 82.6691C1114.56 82.9424 1115.33 83.2278 1115.96 83.7562C1116.36 84.0841 1116.64 84.4819 1116.72 85.0012C1116.89 86.0791 1116.4 87.0326 1115.39 87.5519C1114.15 88.1835 1112.86 88.141 1111.55 87.8495C1110.18 87.5428 1109.33 86.6834 1108.98 85.323C1108.86 84.8736 1108.81 84.4151 1108.79 83.9566C1108.79 83.6924 1108.68 83.6651 1108.46 83.6985C1107.18 83.8928 1105.9 84.0871 1104.61 84.2633C1104.4 84.2936 1104.36 84.3756 1104.38 84.5669C1104.45 85.3078 1104.61 86.0305 1104.89 86.7168C1106.04 89.559 1108.19 91.2565 1111.1 92.0612C1111.36 92.1371 1111.47 92.2221 1111.46 92.5106C1111.44 93.3001 1111.47 94.0896 1111.45 94.8791C1111.44 95.1615 1111.53 95.2222 1111.79 95.2131C1112.33 95.1919 1112.86 95.2071 1113.39 95.2071Z" fill="#FF985F"/>
<path d="M1105.69 47.4593C1104.01 44.5502 1102.33 41.6442 1100.66 38.7291C1098.49 34.9365 1100.63 30.3178 1104.92 29.504C1105.29 29.4342 1105.66 29.4069 1106.04 29.4069C1110.53 29.4099 1115.03 29.4069 1119.52 29.4069C1124.31 29.4069 1127.3 34.484 1124.94 38.6593C1123.32 41.5197 1121.66 44.3529 1120.01 47.1981C1119.97 47.2801 1119.93 47.3712 1119.88 47.4562C1116.02 47.4593 1112.17 47.4623 1108.31 47.4653C1107.43 47.4684 1106.56 47.4623 1105.69 47.4593Z" fill="#FF985F"/>
<path d="M1105.69 47.4592C1106.56 47.4623 1107.43 47.4714 1108.31 47.4714C1112.17 47.4683 1116.03 47.4653 1119.88 47.4623C1120.11 47.4653 1120.35 47.4714 1120.58 47.4714C1121.64 47.4774 1122.45 48.2518 1122.46 49.2812C1122.47 50.2832 1121.67 51.0849 1120.63 51.1153C1120.56 51.1183 1120.49 51.1213 1120.41 51.1274C1117.76 51.1244 1115.12 51.1183 1112.47 51.1153C1111.87 51.1153 1111.28 51.1304 1110.68 51.1092C1110.41 51.1001 1110.33 51.1851 1110.34 51.4584C1110.35 52.7945 1110.34 54.1306 1110.34 55.4667C1110.34 58.7947 1110.35 62.1228 1110.34 65.4509C1110.34 66.9145 1108.9 67.8164 1107.65 67.1392C1106.96 66.7688 1106.68 66.1554 1106.68 65.3902C1106.68 61.1633 1106.68 56.9364 1106.68 52.7095C1106.68 52.2843 1106.67 51.8592 1106.68 51.4341C1106.69 51.2094 1106.63 51.1001 1106.38 51.1122C1105.97 51.1335 1105.55 51.1244 1105.14 51.1274C1103.98 51.0819 1103.26 50.5049 1103.13 49.5302C1102.98 48.4552 1103.8 47.4987 1104.88 47.4744C1105.15 47.4653 1105.42 47.4623 1105.69 47.4592Z" fill="#FD5B24"/>
<path d="M1113.39 95.207C1112.86 95.207 1112.33 95.1919 1111.79 95.2131C1111.53 95.2222 1111.44 95.1615 1111.44 94.8791C1111.46 94.0896 1111.44 93.3001 1111.46 92.5106C1111.47 92.2221 1111.36 92.134 1111.09 92.0612C1108.19 91.2565 1106.04 89.559 1104.88 86.7168C1104.6 86.0275 1104.45 85.3078 1104.38 84.5669C1104.36 84.3756 1104.39 84.2936 1104.61 84.2633C1105.89 84.0841 1107.18 83.8928 1108.46 83.6984C1108.68 83.665 1108.78 83.6924 1108.79 83.9566C1108.81 84.4151 1108.85 84.8736 1108.97 85.323C1109.33 86.6834 1110.18 87.5427 1111.55 87.8494C1112.85 88.141 1114.15 88.1835 1115.38 87.5519C1116.39 87.0326 1116.88 86.0761 1116.72 85.0011C1116.63 84.4819 1116.36 84.0841 1115.96 83.7561C1115.32 83.2278 1114.56 82.9423 1113.8 82.6691C1112.4 82.1741 1110.97 81.7915 1109.63 81.1477C1107.88 80.3036 1106.5 79.1072 1105.98 77.1486C1105.55 75.5604 1105.57 73.9723 1106.19 72.4358C1106.96 70.5653 1108.45 69.5177 1110.3 68.9073C1110.59 68.8132 1110.89 68.7373 1111.18 68.6796C1111.38 68.6401 1111.45 68.552 1111.45 68.3364C1111.44 67.5348 1111.46 66.7331 1111.44 65.9315C1111.43 65.6309 1111.53 65.5701 1111.81 65.5762C1112.85 65.5914 1113.9 65.5914 1114.94 65.5762C1115.24 65.5701 1115.34 65.6339 1115.33 65.9497C1115.31 66.7514 1115.33 67.553 1115.32 68.3547C1115.32 68.5126 1115.33 68.628 1115.52 68.6674C1118.82 69.378 1120.52 71.5977 1121.24 74.7345C1121.44 75.5756 1121.44 75.5817 1120.6 75.7032C1119.43 75.8732 1118.25 76.022 1117.07 76.2042C1116.82 76.2437 1116.77 76.1556 1116.73 75.9461C1116.68 75.6485 1116.61 75.3509 1116.52 75.0655C1116.02 73.5381 1115.14 72.8518 1113.54 72.7425C1112.83 72.6939 1112.13 72.7668 1111.48 73.0583C1110.65 73.4227 1110.17 74.0513 1110.08 74.9531C1110 75.8611 1110.38 76.5534 1111.13 77.0514C1111.9 77.5615 1112.77 77.8166 1113.64 78.0808C1115.13 78.5302 1116.63 78.9098 1118.01 79.6598C1120.01 80.756 1121.03 82.4504 1121.17 84.7157C1121.29 86.7866 1120.74 88.6025 1119.22 90.0631C1118.24 91.0014 1117.07 91.5996 1115.77 91.9276C1115.4 92.0186 1115.3 92.1674 1115.31 92.5379C1115.35 93.3274 1115.32 94.1169 1115.33 94.9064C1115.33 95.1372 1115.28 95.2222 1115.03 95.2131C1114.49 95.1919 1113.94 95.207 1113.39 95.207Z" fill="#FF985F"/>
<path d="M1106.24 87.8124H1108.37V85.6566L1109.57 84.2144L1111.97 87.8124H1114.33L1110.84 82.6962L1113.86 79.0679H1111.46L1108.37 83.1061V76.0468H1106.24V87.8124Z" fill="#FFF4EC"/>
<path d="M1119.28 81.2084C1119.59 81.2084 1119.95 81.2843 1120.29 81.4058L1120.42 78.9464C1120.22 78.8705 1119.98 78.825 1119.75 78.825C1118.92 78.825 1117.89 79.25 1117.2 80.92V79.0679H1115.06V87.8124H1117.2V83.5312C1117.2 81.6639 1118.27 81.2084 1119.28 81.2084Z" fill="#FFF4EC"/>
<path fill-rule="evenodd" clip-rule="evenodd" d="M1145 126.875C1175.83 126.875 1200.82 101.885 1200.82 71.0583C1200.82 69.6281 1200.76 68.2105 1200.66 66.8074H1126.9C1124.32 66.8074 1122.22 68.9035 1122.22 71.4898V122.03C1129.18 125.144 1136.89 126.875 1145 126.875Z" fill="#C8C5D6"/>
<path fill-rule="evenodd" clip-rule="evenodd" d="M1200.33 78.4852C1200.65 76.0555 1200.82 73.5764 1200.82 71.0583C1200.82 69.6281 1200.76 68.2105 1200.66 66.8074H1127.07C1124.39 66.8074 1122.22 68.9784 1122.22 71.6568V78.4852H1200.33Z" fill="#48367D"/>
<path d="M1134.35 72.6925C1134.35 74.0317 1133.27 75.1172 1131.93 75.1172C1130.59 75.1172 1129.5 74.0317 1129.5 72.6925C1129.5 71.3534 1130.59 70.2678 1131.93 70.2678C1133.27 70.2678 1134.35 71.3534 1134.35 72.6925Z" fill="white"/>
<path d="M1142.31 72.647C1142.31 73.9861 1141.23 75.0717 1139.89 75.0717C1138.55 75.0717 1137.46 73.9861 1137.46 72.647C1137.46 71.3078 1138.55 70.2223 1139.89 70.2223C1141.23 70.2223 1142.31 71.3078 1142.31 72.647Z" fill="white"/>
<path d="M1150.4 72.647C1150.4 73.9861 1149.31 75.0717 1147.97 75.0717C1146.63 75.0717 1145.55 73.9861 1145.55 72.647C1145.55 71.3078 1146.63 70.2223 1147.97 70.2223C1149.31 70.2223 1150.4 71.3078 1150.4 72.647Z" fill="white"/>
<path d="M1022.87 70.8871C1022.87 101.714 997.884 126.704 967.057 126.704C936.23 126.704 911.24 101.714 911.24 70.8871C911.24 40.0603 936.23 15.0699 967.057 15.0699C997.884 15.0699 1022.87 40.0603 1022.87 70.8871Z" fill="#EEEDF3"/>
<path d="M993.049 96.5573H930.549C928.742 96.5573 927.277 95.0927 927.277 93.2856V44.239C927.277 42.4319 928.742 40.9673 930.549 40.9673H993.049C994.855 40.9673 996.32 42.4319 996.32 44.239V93.2856C996.32 95.0927 994.855 96.5573 993.049 96.5573Z" fill="#C8C5D6"/>
<path d="M992.931 40.9673H930.666C928.794 40.9673 927.277 42.4842 927.277 44.3556V49.1268H996.32V44.3556C996.32 42.4842 994.803 40.9673 992.931 40.9673Z" fill="#48367D"/>
<path d="M935.755 45.0789C935.755 46.0146 934.997 46.7731 934.061 46.7731C933.126 46.7731 932.367 46.0146 932.367 45.0789C932.367 44.1432 933.126 43.3848 934.061 43.3848C934.997 43.3848 935.755 44.1432 935.755 45.0789Z" fill="white"/>
<path d="M941.315 45.0467C941.315 45.9824 940.557 46.7409 939.622 46.7409C938.685 46.7409 937.927 45.9824 937.927 45.0467C937.927 44.111 938.685 43.3525 939.622 43.3525C940.557 43.3525 941.315 44.111 941.315 45.0467Z" fill="white"/>
<path d="M946.965 45.0467C946.965 45.9824 946.206 46.7409 945.271 46.7409C944.335 46.7409 943.576 45.9824 943.576 45.0467C943.576 44.111 944.335 43.3525 945.271 43.3525C946.206 43.3525 946.965 44.111 946.965 45.0467Z" fill="white"/>
<path d="M968.605 80.1351H956.514C953.447 80.1351 950.938 77.6261 950.938 74.5595V62.4681C950.938 59.4015 953.447 56.8925 956.514 56.8925H968.605C971.672 56.8925 974.181 59.4015 974.181 62.4681V74.5595C974.181 77.6261 971.672 80.1351 968.605 80.1351Z" fill="white"/>
<path d="M957.3 69.6575L961.829 72.9678L969.669 62.1265" stroke="#48367D" stroke-width="0.460798" stroke-linecap="round" stroke-linejoin="round"/>
<path fill-rule="evenodd" clip-rule="evenodd" d="M980.587 75.1371C979.499 75.1371 978.617 76.0192 978.617 77.1074V109.658C978.617 110.746 979.499 111.628 980.587 111.628H1015.34C1015.38 111.628 1015.41 111.627 1015.44 111.626C1015.49 111.627 1015.53 111.628 1015.57 111.628H1032.85C1035.19 111.628 1037.1 109.725 1037.1 107.378V102.61C1037.1 101.902 1036.92 101.204 1036.58 100.581L1030.69 89.7312C1029.94 88.3626 1028.51 87.5105 1026.95 87.5105H1017.31V77.1074C1017.31 76.0192 1016.43 75.1371 1015.34 75.1371H980.587Z" fill="#FF985F"/>
<path d="M1025.79 91.5165L1030.99 98.9457C1031.9 100.252 1030.97 102.046 1029.37 102.046H1024.17C1023.08 102.046 1022.2 101.164 1022.2 100.076V92.6464C1022.2 90.72 1024.68 89.9383 1025.79 91.5165Z" fill="#FFF4EC"/>
<circle cx="991.606" cy="111.613" r="6.36877" fill="#FF985F"/>
<circle cx="1024.24" cy="111.613" r="6.36877" fill="#FF985F"/>
<path d="M844.704 70.8871C844.704 101.714 819.714 126.704 788.887 126.704C758.06 126.704 733.07 101.714 733.07 70.8871C733.07 40.0603 758.06 15.0699 788.887 15.0699C819.714 15.0699 844.704 40.0603 844.704 70.8871Z" fill="#EEEDF3"/>
<path fill-rule="evenodd" clip-rule="evenodd" d="M795.299 126.34C795.289 106.015 795.298 83.6007 795.386 78.5064C795.734 58.135 815.82 62.4753 815.82 62.4753L840.183 78.5064L840.175 92.9484C832.429 110.931 815.503 124.029 795.299 126.34Z" fill="#FFD3BB"/>
<path d="M832.935 84.3795L797.598 91.301C794.196 91.9672 790.898 89.7492 790.232 86.3479L776.278 15.1104C775.612 11.7085 777.83 8.41055 781.232 7.74433L816.569 0.822777C819.971 0.15644 823.269 2.37395 823.935 5.77589L837.888 77.0134C838.555 80.4147 836.337 83.7131 832.935 84.3795Z" fill="#FF5A23"/>
<path d="M837.058 72.3266L789.401 81.6611L777.354 20.1564L825.011 10.8219L837.058 72.3266Z" fill="#FF985F"/>
<path d="M789.458 60.7259L776.816 61.709C773.42 61.9734 770.454 59.435 770.189 56.0393C769.925 52.6437 772.464 49.6772 775.859 49.4136L788.502 48.4298C791.897 48.1649 794.863 50.7039 795.127 54.099C795.392 57.4952 792.854 60.4615 789.458 60.7259Z" fill="#FFD3BB"/>
<path d="M790.511 72.2794L777.869 73.2624C774.473 73.5269 771.507 70.9885 771.242 67.5928C770.978 64.1965 773.516 61.2309 776.912 60.9665L789.554 59.9834C792.95 59.7184 795.916 62.2574 796.181 65.6524C796.445 69.0481 793.907 72.0149 790.511 72.2794Z" fill="#FFD3BB"/>
<path d="M792.635 83.6013L779.993 84.5851C776.598 84.8487 773.63 82.3107 773.366 78.9155C773.102 75.5197 775.641 72.5535 779.036 72.2892L791.679 71.306C795.074 71.0411 798.041 73.58 798.305 76.975C798.569 80.3707 796.031 83.3377 792.635 83.6013Z" fill="#FFD3BB"/>
<path d="M815.74 53.2308L802.607 55.8026C799.276 56.4549 796.017 54.2634 795.365 50.9326L792.793 37.7996C792.141 34.4688 794.332 31.21 797.663 30.5577L810.796 27.9859C814.127 27.3336 817.386 29.5251 818.038 32.8559L820.61 45.9889C821.262 49.3197 819.071 52.5785 815.74 53.2308Z" fill="white"/>
<path fill-rule="evenodd" clip-rule="evenodd" d="M813.453 32.6039C813.917 32.8183 814.12 33.3683 813.905 33.8324L807.696 47.2752C807.593 47.4988 807.404 47.672 807.173 47.7565C806.942 47.841 806.686 47.8298 806.463 47.7254L800.84 45.0933C800.377 44.8766 800.177 44.3256 800.394 43.8626C800.611 43.3995 801.162 43.1999 801.625 43.4166L806.405 45.6543L812.225 33.0561C812.439 32.592 812.989 32.3896 813.453 32.6039Z" fill="#48367D"/>
<path fill-rule="evenodd" clip-rule="evenodd" d="M837.328 98.6381C836.523 98.9524 835.651 99.2547 834.71 99.533C827.978 101.524 817.928 92.8013 817.928 92.8013C817.928 92.8013 818.212 89.1984 818.686 85.3111C819.16 81.4237 821.625 77.9156 822.858 76.7779C817.928 75.7349 814.42 74.0283 811.86 70.615C809.204 67.0735 807.309 63.9781 806.835 58.4789C806.36 52.9797 808.352 50.9886 810.722 49.8509C813.092 48.7131 815.178 49.282 817.454 50.4198C819.224 51.3051 820.271 54.6941 820.488 57.1515C820.772 60.3752 821.499 61.1631 822.953 62.5559C824.072 63.628 826.461 63.5988 828.073 63.4092C829.685 63.2196 831.147 63.3051 833.951 63.9781C836.321 64.5469 838.692 66.1588 840.683 68.8135C842.851 71.7042 843.574 75.2109 844.049 79.469C842.986 86.3549 840.665 92.8254 837.328 98.6381Z" fill="#FFD3BB"/>
<path d="M487.833 71.0573C487.833 101.884 462.844 126.873 432.016 126.873C401.189 126.873 376.199 101.884 376.199 71.0573C376.199 40.23 401.189 15.2402 432.016 15.2402C462.844 15.2402 487.833 40.23 487.833 71.0573Z" fill="#EEEDF3"/>
<path d="M436.604 85.161H367.431C365.431 85.161 363.81 83.54 363.81 81.54V27.2564C363.81 25.2564 365.431 23.6354 367.431 23.6354H436.604C438.604 23.6354 440.225 25.2564 440.225 27.2564V81.54C440.225 83.54 438.604 85.161 436.604 85.161Z" fill="#C8C5D6"/>
<path d="M436.474 23.6354H367.561C365.489 23.6354 363.81 25.3143 363.81 27.3855V32.6661H440.225V27.3855C440.225 25.3143 438.546 23.6354 436.474 23.6354Z" fill="#48367D"/>
<path d="M373.193 28.1864C373.193 29.222 372.355 30.0614 371.319 30.0614C370.283 30.0614 369.443 29.222 369.443 28.1864C369.443 27.1507 370.283 26.3113 371.319 26.3113C372.355 26.3113 373.193 27.1507 373.193 28.1864Z" fill="white"/>
<path d="M379.347 28.1508C379.347 29.1864 378.507 30.0259 377.472 30.0259C376.436 30.0259 375.597 29.1864 375.597 28.1508C375.597 27.1152 376.436 26.2758 377.472 26.2758C378.507 26.2758 379.347 27.1152 379.347 28.1508Z" fill="white"/>
<path d="M385.599 28.1508C385.599 29.1864 384.76 30.0259 383.725 30.0259C382.689 30.0259 381.849 29.1864 381.849 28.1508C381.849 27.1152 382.689 26.2758 383.725 26.2758C384.76 26.2758 385.599 27.1152 385.599 28.1508Z" fill="white"/>
<g filter="url(#filter0_d)">
<rect x="377.106" y="51.3364" width="49.98" height="16.15" rx="1.19" fill="#FF5B24"/>
</g>
<path d="M392.699 57.3163V62.4163H394.501C395.576 62.4163 396.249 61.7567 396.249 60.9203C396.249 60.4511 396.004 59.9547 395.365 59.7303C395.814 59.4855 396.031 59.0435 396.031 58.6899C396.031 57.8535 395.453 57.3163 394.406 57.3163H392.699ZM393.685 60.2199H394.467C394.964 60.2199 395.29 60.5055 395.29 60.8795C395.29 61.3351 394.943 61.5187 394.474 61.5187H393.685V60.2199ZM393.685 58.2139H394.392C394.848 58.2139 395.1 58.4451 395.1 58.8395C395.1 59.2203 394.807 59.4583 394.392 59.4583H393.685V58.2139ZM398.635 59.1931C399.091 59.1931 399.465 59.4107 399.546 59.9751H397.717C397.833 59.4311 398.166 59.1931 398.635 59.1931ZM400.464 60.6619V60.3627C400.464 59.2067 399.716 58.3907 398.669 58.3907C397.554 58.3907 396.711 59.1863 396.711 60.4443C396.711 61.7363 397.608 62.5183 398.764 62.5183C399.485 62.5183 400.355 62.1035 400.505 61.1991L399.635 61.0631C399.56 61.4371 399.322 61.6751 398.73 61.6751C398.105 61.6751 397.751 61.2739 397.69 60.6619H400.464ZM401.505 57.5543V58.4995H400.831V59.2951H401.505V61.4371C401.505 62.0219 401.756 62.4843 402.565 62.4843C402.905 62.4843 403.273 62.3891 403.504 62.2871L403.368 61.5459C403.184 61.5867 403.021 61.6139 402.844 61.6139C402.552 61.6139 402.463 61.4711 402.463 61.1923V59.2951H403.429V58.4995H402.463V57.4183L401.505 57.5543ZM405.522 62.5183C406.134 62.5183 406.549 62.2327 406.821 61.8655V62.4163H407.78V58.4995H406.821V59.0027C406.501 58.5675 406.1 58.3907 405.631 58.3907C404.754 58.3907 403.883 59.0503 403.883 60.4171C403.883 61.8519 404.76 62.5183 405.522 62.5183ZM405.842 59.2339C406.358 59.2339 406.821 59.6351 406.821 60.4647C406.821 61.3215 406.358 61.6683 405.835 61.6683C405.352 61.6683 404.849 61.3011 404.849 60.4647C404.849 59.6147 405.359 59.2339 405.842 59.2339ZM408.703 57.1463V62.4163H409.655V57.1463H408.703Z" fill="white"/>
<path d="M469.647 111.018L469.894 109.565L472.761 87.0551L459.189 76.9018L440.084 82.3302L441.858 111.798C450.845 113.956 459.755 113.638 469.647 111.018Z" fill="#FFD3BA"/>
<path d="M444.79 93.9884C443.245 92.7177 442.567 90.5765 443.251 88.5718C445.449 82.1331 445.745 78.446 445.859 75.2209C445.956 72.493 448.246 70.3599 450.974 70.457C453.701 70.554 455.834 72.843 455.738 75.571C455.571 80.2731 454.975 84.8266 452.605 91.7651C451.724 94.3484 448.915 95.7276 446.331 94.8458C445.754 94.6484 445.236 94.3545 444.79 93.9884Z" fill="#FFD3BA"/>
<path d="M454.377 92.6137C452.787 91.3064 452.125 89.0849 452.891 87.0513C454.213 83.5462 454.799 80.3107 454.632 77.4326C454.475 74.7074 456.557 72.3713 459.281 72.2137C462.006 72.0562 464.343 74.1369 464.5 76.8622C464.747 81.1288 463.953 85.7308 462.141 90.5382C461.178 93.0924 458.327 94.3825 455.773 93.42C455.253 93.2237 454.784 92.948 454.377 92.6137Z" fill="#FFD3BA"/>
<path d="M464.68 94.9149C462.911 93.8621 461.922 91.7661 462.373 89.6396C463.152 85.9761 463.244 82.6888 462.646 79.868C462.081 77.1981 463.786 74.5739 466.457 74.0085C469.127 73.4424 471.75 75.1481 472.316 77.8186C473.203 82.0001 473.111 86.6685 472.043 91.6934C471.475 94.3635 468.851 96.0681 466.181 95.5006C465.638 95.3849 465.134 95.1841 464.68 94.9149Z" fill="#FFD3BA"/>
<path d="M440.958 125.259C439.624 115.368 436.304 112.119 435.817 111.466C435.354 110.847 431.026 105.971 429.429 103.069C427.451 99.4728 425.121 94.3432 427.141 90.1497C429.121 86.043 434.067 86.8664 437.909 83.7984L446.142 80.7907C449.412 80.2303 452.518 82.4267 453.08 85.6971C453.64 88.9681 451.443 92.0739 448.173 92.6348L446.55 94.3787C445.956 94.6212 446.461 96.2965 446.616 96.9982C447.556 98.6757 444.245 101.799 445.779 103.856C447.764 106.515 447.216 110.28 444.557 112.265C442.55 113.762 441.272 127.595 440.958 125.259Z" fill="#FFD3BA"/>
<path fill-rule="evenodd" clip-rule="evenodd" d="M470.205 111.766C462.026 119.441 451.533 124.68 439.886 126.323C439.6 114.253 438.983 103.644 437.733 100.897C434.458 93.6991 465.573 103.423 465.573 103.423C465.573 103.423 470.46 91.613 470.205 111.766Z" fill="#FFD3BA"/>
<path d="M428.145 61.8612C428.145 61.8612 436.376 64.4031 439.395 68.537C443.861 74.6529 442.486 84.027 438.507 91.0193" stroke="#FFD2BA" stroke-width="13.09" stroke-linecap="round" stroke-linejoin="round"/>
</g>
<defs>
<filter id="filter0_d" x="376.63" y="51.0984" width="50.932" height="17.102" filterUnits="userSpaceOnUse" color-interpolation-filters="sRGB">
<feFlood flood-opacity="0" result="BackgroundImageFix"/>
<feColorMatrix in="SourceAlpha" type="matrix" values="0 0 0 0 0 0 0 0 0 0 0 0 0 0 0 0 0 0 127 0"/>
<feOffset dy="0.238"/>
<feGaussianBlur stdDeviation="0.238"/>
<feColorMatrix type="matrix" values="0 0 0 0 0.0862745 0 0 0 0 0.0705882 0 0 0 0 0.145098 0 0 0 0.07 0"/>
<feBlend mode="normal" in2="BackgroundImageFix" result="effect1_dropShadow"/>
<feBlend mode="normal" in="SourceGraphic" in2="effect1_dropShadow" result="shape"/>
</filter>
<clipPath id="clip0">
<rect width="1379" height="307" fill="white"/>
</clipPath>
</defs>
</svg>
