<svg width="170" height="170" viewBox="0 0 170 170" fill="none" xmlns="http://www.w3.org/2000/svg">
<path d="M29.0211 85.0578C29.0211 115.885 54.0108 140.874 84.8382 140.874C115.665 140.874 140.655 115.885 140.655 85.0578C140.655 54.2304 115.665 29.2407 84.8382 29.2407C54.0108 29.2407 29.0211 54.2304 29.0211 85.0578Z" fill="#EEEDF3"/>
<path d="M49.4838 118.249L95.1924 105.616C96.7309 105.191 97.6323 103.6 97.2073 102.062L78.8884 35.7774C78.4634 34.2389 76.8721 33.3375 75.3337 33.7618L29.6258 46.395C28.088 46.8201 27.1859 48.4113 27.6102 49.949L45.9298 116.234C46.3548 117.772 47.9468 118.674 49.4838 118.249Z" fill="#C8C5D6"/>
<path d="M49.5714 116.264L96.5621 109.878C98.1426 109.663 99.2498 108.207 99.035 106.627L89.7747 38.4832C89.56 36.902 88.1044 35.7948 86.5231 36.0096L39.5332 42.3939C37.9519 42.6094 36.8448 44.065 37.0595 45.6463L46.3198 113.79C46.5345 115.371 47.9902 116.478 49.5714 116.264Z" fill="white"/>
<path d="M65.5122 60.0133C72.5334 59.0594 78.9566 62.7365 80.7843 68.43C81.1034 69.4229 80.3627 70.3843 79.3289 70.5243L55.0012 73.8307C53.9673 73.9714 52.9982 73.2428 53.0399 72.2006C53.2814 66.2258 58.491 60.9672 65.5122 60.0133Z" fill="#49367E"/>
<path d="M57.6911 51.5491C58.1125 54.6499 60.9674 56.8218 64.0682 56.4004C67.169 55.979 69.3409 53.1241 68.9195 50.0233C68.4981 46.9225 65.6432 44.7506 62.5424 45.172C59.4423 45.5934 57.2697 48.4484 57.6911 51.5491Z" fill="#49367E"/>
<path d="M86.6601 79.4797L54.7037 84.182" stroke="#C8C5D6" stroke-width="0.610363" stroke-miterlimit="10" stroke-linecap="round"/>
<path d="M87.7813 86.2136L55.8249 90.9159" stroke="#C8C5D6" stroke-width="0.610363" stroke-miterlimit="10" stroke-linecap="round"/>
<path d="M61.4625 103.186C61.4625 103.186 70.3556 93.6264 71.0408 97.496C71.7275 101.366 72.7589 103.448 77.98 100.21C83.2015 96.9714 83.4842 99.4103 83.4842 99.4103" stroke="#49367E" stroke-width="0.610363" stroke-miterlimit="10" stroke-linecap="round"/>
</svg>
