<svg width="170" height="170" viewBox="0 0 170 170" fill="none" xmlns="http://www.w3.org/2000/svg">
<path d="M140.979 85.0583C140.979 115.885 115.989 140.874 85.1618 140.874C54.3351 140.874 29.3447 115.885 29.3447 85.0583C29.3447 54.2309 54.3351 29.2412 85.1618 29.2412C115.989 29.2412 140.979 54.2309 140.979 85.0583Z" fill="#EEEDF3"/>
<path d="M118.686 118.249L72.9776 105.617C71.4392 105.192 70.5377 103.6 70.9628 102.063L89.2817 35.7776C89.7067 34.2392 91.2979 33.3377 92.8364 33.762L138.544 46.3953C140.082 46.8203 140.984 48.4115 140.56 49.9493L122.24 116.234C121.815 117.772 120.223 118.674 118.686 118.249Z" fill="#C8C5D6"/>
<path d="M119.064 116.863L72.3154 108.895C70.7431 108.627 69.6857 107.134 69.9536 105.562L81.5084 37.7698C81.7763 36.1967 83.2685 35.1393 84.8416 35.4072L131.589 43.3738C133.162 43.6425 134.22 45.1347 133.952 46.7078L122.397 114.5C122.129 116.073 120.637 117.131 119.064 116.863Z" fill="white"/>
<path d="M104.488 60.0147C97.4666 59.0609 91.0434 62.7379 89.2157 68.4314C88.8966 69.4243 89.6373 70.3858 90.6711 70.5257L114.999 73.8322C116.033 73.9729 117.002 73.2442 116.96 72.2021C116.719 66.2272 111.509 60.9686 104.488 60.0147Z" fill="#59CBE8"/>
<path d="M112.309 51.5484C111.888 54.6492 109.033 56.8211 105.932 56.3997C102.831 55.9783 100.659 53.1234 101.081 50.0226C101.502 46.9218 104.357 44.7499 107.458 45.1713C110.558 45.5927 112.73 48.4476 112.309 51.5484Z" fill="#59CBE8"/>
<path d="M83.3398 79.4841L115.296 84.1864" stroke="#C8C5D6" stroke-width="0.610363" stroke-miterlimit="10" stroke-linecap="round"/>
<path d="M82.2187 86.2163L114.175 90.9186" stroke="#C8C5D6" stroke-width="0.610363" stroke-miterlimit="10" stroke-linecap="round"/>
<path d="M87.0983 99.408C87.0983 99.408 98.7246 93.4667 98.0449 97.3373C97.3667 101.209 97.6239 103.518 103.637 102.261C109.652 101.003 109.083 103.392 109.083 103.392" stroke="#5E3DC2" stroke-width="0.610363" stroke-miterlimit="10" stroke-linecap="round"/>
</svg>
