<svg width="1000" height="1000" viewBox="0 0 1000 1000" fill="none" xmlns="http://www.w3.org/2000/svg">
<path d="M822.549 500.336C822.549 681.67 675.55 828.665 494.213 828.665C312.879 828.665 165.877 681.67 165.877 500.336C165.877 318.998 312.879 172 494.213 172C675.55 172 822.549 318.998 822.549 500.336Z" fill="#EEEDF3"/>
<path d="M521.201 583.299H114.3C102.535 583.299 93 573.764 93 561.999V242.684C93 230.919 102.535 221.384 114.3 221.384H521.201C532.962 221.384 542.501 230.919 542.501 242.684V561.999C542.501 573.764 532.962 583.299 521.201 583.299Z" fill="#C8C5D6"/>
<path d="M520.438 221.384H115.063C102.876 221.384 93 231.26 93 243.444V274.506H542.501V243.444C542.501 231.26 532.625 221.384 520.438 221.384Z" fill="#48367D"/>
<path d="M148.195 248.155C148.195 254.246 143.261 259.184 137.169 259.184C131.077 259.184 126.136 254.246 126.136 248.155C126.136 242.063 131.077 237.125 137.169 237.125C143.261 237.125 148.195 242.063 148.195 248.155Z" fill="white"/>
<path d="M184.395 247.945C184.395 254.037 179.457 258.975 173.368 258.975C167.273 258.975 162.335 254.037 162.335 247.945C162.335 241.853 167.273 236.915 173.368 236.915C179.457 236.915 184.395 241.853 184.395 247.945Z" fill="white"/>
<path d="M221.173 247.945C221.173 254.037 216.235 258.975 210.147 258.975C204.055 258.975 199.113 254.037 199.113 247.945C199.113 241.853 204.055 236.915 210.147 236.915C216.235 236.915 221.173 241.853 221.173 247.945Z" fill="white"/>
<g filter="url(#filter0_d)">
<path d="M171.215 391.331C171.215 387.465 174.349 384.331 178.215 384.331H458.215C462.081 384.331 465.215 387.465 465.215 391.331V472.331C465.215 476.197 462.081 479.331 458.215 479.331H178.215C174.349 479.331 171.215 476.197 171.215 472.331V391.331Z" fill="#FF5B24"/>
</g>
<path d="M262.937 419.331V449.331H273.537C279.857 449.331 283.817 445.451 283.817 440.531C283.817 437.771 282.377 434.851 278.617 433.531C281.257 432.091 282.537 429.491 282.537 427.411C282.537 422.491 279.137 419.331 272.977 419.331H262.937ZM268.737 436.411H273.337C276.257 436.411 278.177 438.091 278.177 440.291C278.177 442.971 276.137 444.051 273.377 444.051H268.737V436.411ZM268.737 424.611H272.897C275.577 424.611 277.057 425.971 277.057 428.291C277.057 430.531 275.337 431.931 272.897 431.931H268.737V424.611Z" fill="white"/>
<path d="M297.854 430.371C300.534 430.371 302.734 431.651 303.214 434.971H292.454C293.134 431.771 295.094 430.371 297.854 430.371ZM308.614 439.011V437.251C308.614 430.451 304.214 425.651 298.054 425.651C291.494 425.651 286.534 430.331 286.534 437.731C286.534 445.331 291.814 449.931 298.614 449.931C302.854 449.931 307.974 447.491 308.854 442.171L303.734 441.371C303.294 443.571 301.894 444.971 298.414 444.971C294.734 444.971 292.654 442.611 292.294 439.011H308.614Z" fill="white"/>
<path d="M314.734 420.731V426.291H310.774V430.971H314.734V443.571C314.734 447.011 316.214 449.731 320.974 449.731C322.974 449.731 325.134 449.171 326.494 448.571L325.694 444.211C324.614 444.451 323.654 444.611 322.614 444.611C320.894 444.611 320.374 443.771 320.374 442.131V430.971H326.054V426.291H320.374V419.931L314.734 420.731Z" fill="white"/>
<path d="M338.365 449.931C341.965 449.931 344.405 448.251 346.005 446.091V449.331H351.645V426.291H346.005V429.251C344.125 426.691 341.765 425.651 339.005 425.651C333.845 425.651 328.725 429.531 328.725 437.571C328.725 446.011 333.885 449.931 338.365 449.931ZM340.245 430.611C343.285 430.611 346.005 432.971 346.005 437.851C346.005 442.891 343.285 444.931 340.205 444.931C337.365 444.931 334.405 442.771 334.405 437.851C334.405 432.851 337.405 430.611 340.245 430.611Z" fill="white"/>
<path d="M357.075 418.331V449.331H362.675V418.331H357.075Z" fill="white"/>
<path d="M514.5 435H435.5L461.5 471L546 499L568.5 463L514.5 435Z" fill="#FFD2BA"/>
<path d="M715.562 735.398L717.014 726.852L733.879 594.442L654.048 534.716L541.662 566.648L552.097 739.987C604.967 752.683 657.377 750.811 715.562 735.398Z" fill="#FFD3BA"/>
<path d="M569.349 635.225C560.258 627.75 556.269 615.155 560.294 603.362C573.227 565.487 574.963 543.799 575.636 524.827C576.207 508.781 589.676 496.234 605.722 496.805C621.765 497.375 634.313 510.84 633.745 526.887C632.767 554.546 629.259 581.332 615.322 622.147C610.135 637.342 593.611 645.455 578.415 640.268C575.019 639.107 571.972 637.378 569.349 635.225Z" fill="#FFD3BA"/>
<path d="M625.744 627.139C616.387 619.449 612.497 606.381 617.004 594.419C624.777 573.801 628.222 554.768 627.24 537.838C626.318 521.808 638.564 508.066 654.591 507.139C670.619 506.212 684.366 518.452 685.292 534.483C686.741 559.581 682.072 586.651 671.41 614.93C665.748 629.955 648.979 637.543 633.954 631.882C630.895 630.727 628.139 629.106 625.744 627.139Z" fill="#FFD3BA"/>
<path d="M686.348 640.674C675.939 634.482 670.122 622.152 672.776 609.644C677.356 588.094 677.9 568.756 674.383 552.164C671.057 536.458 681.09 521.022 696.799 517.696C712.505 514.366 727.938 524.399 731.264 540.108C736.48 564.705 735.94 592.166 729.658 621.725C726.32 637.431 710.885 647.458 695.178 644.12C691.981 643.439 689.015 642.258 686.348 640.674Z" fill="#FFD3BA"/>
<path d="M546.802 819.17C538.959 760.989 519.428 741.873 516.562 738.031C513.842 734.39 488.381 705.712 478.99 688.641C467.354 667.486 453.644 637.312 465.528 612.644C477.173 588.487 506.27 593.33 528.872 575.283L577.298 557.591C596.535 554.295 614.805 567.215 618.108 586.452C621.405 605.693 608.481 623.963 589.244 627.262L579.698 637.52C576.204 638.947 579.178 648.802 580.086 652.929C585.616 662.797 566.14 681.172 575.164 693.27C586.839 708.911 583.619 731.057 567.974 742.731C556.17 751.54 548.654 832.911 546.802 819.17Z" fill="#FFD3BA"/>
<path fill-rule="evenodd" clip-rule="evenodd" d="M718.848 739.799C670.738 784.947 609.018 815.763 540.503 825.431C538.824 754.428 535.192 692.024 527.841 675.866C508.577 633.524 691.606 690.726 691.606 690.726C691.606 690.726 720.35 621.252 718.848 739.799Z" fill="#FFD3BA"/>
<path fill-rule="evenodd" clip-rule="evenodd" d="M434.655 434.882C440.929 414.565 462.484 403.182 482.801 409.456L471.441 446.242C482.801 409.456 482.807 409.458 482.814 409.46L482.861 409.474L482.939 409.499C482.997 409.517 483.067 409.539 483.149 409.564C483.312 409.616 483.522 409.683 483.776 409.764C484.285 409.928 484.971 410.152 485.814 410.435C487.499 411.001 489.829 411.809 492.64 412.849C498.222 414.914 505.911 417.97 514.336 421.956C529.386 429.077 553.725 442.286 568.71 462.806M537.617 485.511L568.71 462.806C588.649 490.111 594.15 522.703 592.038 552.431C589.922 582.205 580.083 611.798 565.854 636.802C555.338 655.282 531.831 661.738 513.351 651.221C494.871 640.705 488.415 617.198 498.932 598.718C508.109 582.591 514.018 564.047 515.231 546.974C516.448 529.854 512.858 516.887 506.525 508.216C503.752 504.419 495.003 497.993 481.404 491.558C475.504 488.767 469.979 486.565 465.927 485.067C463.922 484.325 462.33 483.775 461.297 483.428C460.783 483.255 460.411 483.134 460.201 483.066C460.098 483.033 460.034 483.013 460.012 483.006C439.739 476.705 428.388 455.175 434.655 434.882" fill="#FFD2BA"/>
<defs>
<filter id="filter0_d" x="168.415" y="382.931" width="299.6" height="100.6" filterUnits="userSpaceOnUse" color-interpolation-filters="sRGB">
<feFlood flood-opacity="0" result="BackgroundImageFix"/>
<feColorMatrix in="SourceAlpha" type="matrix" values="0 0 0 0 0 0 0 0 0 0 0 0 0 0 0 0 0 0 127 0"/>
<feOffset dy="1.4"/>
<feGaussianBlur stdDeviation="1.4"/>
<feColorMatrix type="matrix" values="0 0 0 0 0.0862745 0 0 0 0 0.0705882 0 0 0 0 0.145098 0 0 0 0.07 0"/>
<feBlend mode="normal" in2="BackgroundImageFix" result="effect1_dropShadow"/>
<feBlend mode="normal" in="SourceGraphic" in2="effect1_dropShadow" result="shape"/>
</filter>
</defs>
</svg>
