<svg width="156" height="140" viewBox="0 0 156 140" fill="none" xmlns="http://www.w3.org/2000/svg">
<path d="M154.408 69.4918C154.408 107.871 123.296 138.982 84.9161 138.982C46.5371 138.982 15.4243 107.871 15.4243 69.4918C15.4243 31.112 46.5371 0 84.9161 0C123.296 0 154.408 31.112 154.408 69.4918Z" fill="#EEEDF3"/>
<path d="M90.6281 87.0518H4.50811C2.01813 87.0518 0 85.0337 0 82.5437V14.9611C0 12.4711 2.01813 10.453 4.50811 10.453H90.6281C93.1173 10.453 95.1362 12.4711 95.1362 14.9611V82.5437C95.1362 85.0337 93.1173 87.0518 90.6281 87.0518Z" fill="#C8C5D6"/>
<path d="M90.4666 10.453H4.66965C2.09026 10.453 0 12.5432 0 15.1219V21.6962H95.1362V15.1219C95.1362 12.5432 93.0459 10.453 90.4666 10.453Z" fill="#48367D"/>
<path d="M11.6821 16.1201C11.6821 17.4094 10.6377 18.4545 9.34839 18.4545C8.05907 18.4545 7.01318 17.4094 7.01318 16.1201C7.01318 14.8308 8.05907 13.7856 9.34839 13.7856C10.6377 13.7856 11.6821 14.8308 11.6821 16.1201Z" fill="white"/>
<path d="M19.3437 16.0765C19.3437 17.3659 18.2986 18.411 17.01 18.411C15.7199 18.411 14.6748 17.3659 14.6748 16.0765C14.6748 14.7872 15.7199 13.7421 17.01 13.7421C18.2986 13.7421 19.3437 14.7872 19.3437 16.0765Z" fill="white"/>
<path d="M27.1274 16.0765C27.1274 17.3659 26.0823 18.411 24.7937 18.411C23.5044 18.411 22.4585 17.3659 22.4585 16.0765C22.4585 14.7872 23.5044 13.7421 24.7937 13.7421C26.0823 13.7421 27.1274 14.7872 27.1274 16.0765Z" fill="white"/>
<g filter="url(#filter0_d)">
<rect x="16.5537" y="44.9419" width="62.2247" height="20.1066" rx="1.48154" fill="#FF5B24"/>
</g>
<path d="M35.9664 52.6704V59.0198H38.2099C39.5475 59.0198 40.3857 58.1986 40.3857 57.1573C40.3857 56.5732 40.0809 55.9552 39.2851 55.6758C39.8438 55.371 40.1147 54.8207 40.1147 54.3805C40.1147 53.3392 39.3951 52.6704 38.0914 52.6704H35.9664ZM37.194 56.2853H38.1676C38.7856 56.2853 39.192 56.6409 39.192 57.1065C39.192 57.6738 38.7602 57.9023 38.176 57.9023H37.194V56.2853ZM37.194 53.7879H38.0745C38.6417 53.7879 38.9549 54.0757 38.9549 54.5668C38.9549 55.0409 38.5909 55.3372 38.0745 55.3372H37.194V53.7879ZM43.3566 55.007C43.9238 55.007 44.3895 55.2779 44.491 55.9806H42.2137C42.3576 55.3033 42.7725 55.007 43.3566 55.007ZM45.6339 56.8356V56.4631C45.6339 55.0239 44.7027 54.008 43.3989 54.008C42.0105 54.008 40.9607 54.9985 40.9607 56.5647C40.9607 58.1732 42.0783 59.1468 43.5175 59.1468C44.4149 59.1468 45.4985 58.6304 45.6847 57.5044L44.6011 57.3351C44.508 57.8007 44.2117 58.0971 43.4751 58.0971C42.6963 58.0971 42.256 57.5976 42.1798 56.8356H45.6339ZM46.9292 52.9667V54.1435H46.0911V55.134H46.9292V57.8007C46.9292 58.5288 47.2425 59.1045 48.2499 59.1045C48.6732 59.1045 49.1304 58.986 49.4182 58.859L49.2489 57.9362C49.0203 57.987 48.8171 58.0209 48.597 58.0209C48.233 58.0209 48.1229 57.8431 48.1229 57.496V55.134H49.3251V54.1435H48.1229V52.7974L46.9292 52.9667ZM51.9308 59.1468C52.6927 59.1468 53.2091 58.7913 53.5478 58.3341V59.0198H54.7414V54.1435H53.5478V54.7699C53.1499 54.2281 52.6504 54.008 52.0662 54.008C50.9741 54.008 49.8905 54.8292 49.8905 56.5309C49.8905 58.3172 50.9826 59.1468 51.9308 59.1468ZM52.3287 55.0578C52.9721 55.0578 53.5478 55.5573 53.5478 56.5901C53.5478 57.6568 52.9721 58.0886 52.3202 58.0886C51.7191 58.0886 51.0926 57.6314 51.0926 56.5901C51.0926 55.5319 51.7276 55.0578 52.3287 55.0578ZM55.8908 52.4587V59.0198H57.076V52.4587H55.8908Z" fill="white"/>
<path d="M131.764 119.241L132.072 117.432L135.641 89.4074L118.745 76.7666L94.9588 83.5249L97.1672 120.212C108.357 122.899 119.45 122.503 131.764 119.241Z" fill="#FFD3BA"/>
<path d="M100.819 98.0429C98.8944 96.4608 98.0502 93.7951 98.9019 91.2992C101.639 83.2831 102.007 78.6927 102.149 74.6775C102.27 71.2813 105.121 68.6257 108.517 68.7465C111.912 68.8672 114.568 71.7171 114.448 75.1134C114.241 80.9674 113.498 86.6365 110.549 95.2749C109.451 98.4911 105.954 100.208 102.737 99.1104C102.019 98.8645 101.374 98.4986 100.819 98.0429Z" fill="#FFD3BA"/>
<path d="M112.754 96.3314C110.774 94.704 109.95 91.9382 110.904 89.4063C112.549 85.0425 113.279 81.0144 113.071 77.4312C112.876 74.0383 115.467 71.1298 118.86 70.9337C122.252 70.7376 125.161 73.3281 125.357 76.721C125.664 82.0329 124.676 87.7623 122.419 93.7475C121.221 96.9275 117.672 98.5336 114.492 97.3353C113.844 97.0909 113.261 96.7477 112.754 96.3314Z" fill="#FFD3BA"/>
<path d="M125.581 99.1919C123.378 97.8812 122.147 95.2717 122.708 92.6243C123.678 88.0633 123.793 83.9706 123.048 80.4587C122.345 77.1347 124.468 73.8676 127.793 73.1637C131.117 72.4589 134.383 74.5825 135.087 77.9072C136.191 83.1131 136.077 88.9252 134.747 95.1813C134.041 98.5055 130.774 100.628 127.45 99.9212C126.773 99.7771 126.145 99.5272 125.581 99.1919Z" fill="#FFD3BA"/>
<path d="M96.0465 136.972C94.3866 124.658 90.2527 120.612 89.6462 119.799C89.0705 119.029 83.6817 112.959 81.694 109.346C79.2315 104.868 76.3296 98.482 78.8449 93.2611C81.3096 88.1483 87.468 89.1733 92.2516 85.3537L102.501 81.6092C106.572 80.9115 110.439 83.646 111.138 87.7176C111.836 91.79 109.101 95.6566 105.029 96.355L103.009 98.5261C102.269 98.828 102.899 100.914 103.091 101.787C104.261 103.876 100.139 107.765 102.049 110.325C104.52 113.636 103.839 118.323 100.527 120.794C98.0293 122.658 96.4384 139.88 96.0465 136.972Z" fill="#FFD3BA"/>
<path fill-rule="evenodd" clip-rule="evenodd" d="M132.46 120.176C122.278 129.732 109.215 136.254 94.7135 138.3C94.3579 123.273 93.5894 110.065 92.0336 106.646C87.9562 97.6838 126.694 109.791 126.694 109.791C126.694 109.791 132.778 95.0868 132.46 120.176Z" fill="#FFD3BA"/>
<path d="M80.0962 58.0434C80.0962 58.0434 90.3441 61.208 94.1024 66.3546C99.6629 73.969 97.9506 85.6397 92.9967 94.345" stroke="#FFD2BA" stroke-width="16.2969" stroke-linecap="round" stroke-linejoin="round"/>
<defs>
<filter id="filter0_d" x="15.9611" y="44.6456" width="63.4099" height="21.2918" filterUnits="userSpaceOnUse" color-interpolation-filters="sRGB">
<feFlood flood-opacity="0" result="BackgroundImageFix"/>
<feColorMatrix in="SourceAlpha" type="matrix" values="0 0 0 0 0 0 0 0 0 0 0 0 0 0 0 0 0 0 127 0"/>
<feOffset dy="0.296308"/>
<feGaussianBlur stdDeviation="0.296308"/>
<feColorMatrix type="matrix" values="0 0 0 0 0.0862745 0 0 0 0 0.0705882 0 0 0 0 0.145098 0 0 0 0.07 0"/>
<feBlend mode="normal" in2="BackgroundImageFix" result="effect1_dropShadow"/>
<feBlend mode="normal" in="SourceGraphic" in2="effect1_dropShadow" result="shape"/>
</filter>
</defs>
</svg>
