<svg width="170" height="170" viewBox="0 0 170 170" fill="none" xmlns="http://www.w3.org/2000/svg">
<path d="M139.833 85.06C139.833 115.887 114.844 140.876 84.0162 140.876C53.1895 140.876 28.1991 115.887 28.1991 85.06C28.1991 54.2326 53.1895 29.2429 84.0162 29.2429C114.844 29.2429 139.833 54.2326 139.833 85.06Z" fill="#EEEDF3"/>
<path d="M88.6042 99.1628H19.431C17.431 99.1628 15.81 97.5418 15.81 95.5418V41.2582C15.81 39.2582 17.431 37.6372 19.431 37.6372H88.6042C90.6036 37.6372 92.2252 39.2582 92.2252 41.2582V95.5418C92.2252 97.5418 90.6036 99.1628 88.6042 99.1628Z" fill="#C8C5D6"/>
<path d="M88.4744 37.6372H19.5608C17.4889 37.6372 15.81 39.3161 15.81 41.3874V46.668H92.2252V41.3874C92.2252 39.3161 90.5462 37.6372 88.4744 37.6372Z" fill="#48367D"/>
<path d="M25.1932 42.1886C25.1932 43.2242 24.3544 44.0636 23.3188 44.0636C22.2831 44.0636 21.4431 43.2242 21.4431 42.1886C21.4431 41.1529 22.2831 40.3135 23.3188 40.3135C24.3544 40.3135 25.1932 41.1529 25.1932 42.1886Z" fill="white"/>
<path d="M31.3471 42.1527C31.3471 43.1883 30.5076 44.0277 29.4726 44.0277C28.4364 44.0277 27.597 43.1883 27.597 42.1527C27.597 41.1171 28.4364 40.2776 29.4726 40.2776C30.5076 40.2776 31.3471 41.1171 31.3471 42.1527Z" fill="white"/>
<path d="M37.5994 42.1527C37.5994 43.1883 36.7599 44.0277 35.7249 44.0277C34.6893 44.0277 33.8492 43.1883 33.8492 42.1527C33.8492 41.1171 34.6893 40.2776 35.7249 40.2776C36.7599 40.2776 37.5994 41.1171 37.5994 42.1527Z" fill="white"/>
<g filter="url(#filter0_d)">
<rect x="29.1065" y="65.3386" width="49.98" height="16.15" rx="1.19" fill="#FF5B24"/>
</g>
<path d="M39.9705 70.8889V75.9889H42.9829V75.0981H40.9565V70.8889H39.9705Z" fill="white"/>
<path d="M45.1298 71.9633C44.069 71.9633 43.1918 72.7385 43.1918 74.0237C43.1918 75.3089 44.069 76.0909 45.1298 76.0909C46.1906 76.0909 47.0678 75.3089 47.0678 74.0237C47.0678 72.7385 46.1906 71.9633 45.1298 71.9633ZM45.1298 72.8065C45.6602 72.8065 46.1022 73.2009 46.1022 74.0237C46.1022 74.8465 45.6602 75.2477 45.1298 75.2477C44.5994 75.2477 44.1574 74.8465 44.1574 74.0237C44.1574 73.2009 44.5994 72.8065 45.1298 72.8065Z" fill="white"/>
<path d="M49.1199 75.7645C49.7387 75.7645 50.1059 75.4789 50.3371 75.1389V75.4721C50.3371 76.2269 50.0583 76.5329 49.3783 76.5329C48.9635 76.5329 48.6167 76.4037 48.4467 75.9413L47.5151 76.0773C47.7123 77.0701 48.6031 77.4033 49.3103 77.4033C50.5615 77.4033 51.2959 76.7505 51.2959 75.4381V72.0653H50.3371V72.5413C50.0379 72.1401 49.6367 71.9633 49.1879 71.9633C48.3379 71.9633 47.5355 72.5617 47.5355 73.8061C47.5355 75.1389 48.3515 75.7645 49.1199 75.7645ZM49.4055 72.8065C49.9155 72.8065 50.3371 73.1805 50.3371 73.8605C50.3371 74.5745 49.9155 74.9145 49.4055 74.9145C48.9159 74.9145 48.5011 74.5745 48.5011 73.8537C48.5011 73.1601 48.9295 72.8065 49.4055 72.8065Z" fill="white"/>
<path d="M53.5957 75.7645C54.2145 75.7645 54.5817 75.4789 54.8129 75.1389V75.4721C54.8129 76.2269 54.5341 76.5329 53.8541 76.5329C53.4393 76.5329 53.0925 76.4037 52.9225 75.9413L51.9909 76.0773C52.1881 77.0701 53.0789 77.4033 53.7861 77.4033C55.0373 77.4033 55.7717 76.7505 55.7717 75.4381V72.0653H54.8129V72.5413C54.5137 72.1401 54.1125 71.9633 53.6637 71.9633C52.8137 71.9633 52.0113 72.5617 52.0113 73.8061C52.0113 75.1389 52.8273 75.7645 53.5957 75.7645ZM53.8813 72.8065C54.3913 72.8065 54.8129 73.1805 54.8129 73.8605C54.8129 74.5745 54.3913 74.9145 53.8813 74.9145C53.3917 74.9145 52.9769 74.5745 52.9769 73.8537C52.9769 73.1601 53.4053 72.8065 53.8813 72.8065Z" fill="white"/>
<path d="M58.5307 72.0721V75.9889H59.4827V72.0721H58.5307ZM59.0067 70.3721C58.6871 70.3721 58.4695 70.5897 58.4695 70.9025C58.4695 71.2153 58.6871 71.4329 59.0067 71.4329C59.3263 71.4329 59.5439 71.2153 59.5439 70.9025C59.5439 70.5897 59.3263 70.3721 59.0067 70.3721Z" fill="white"/>
<path d="M62.172 72.8405C62.5936 72.8405 62.9132 73.0785 62.9132 73.7313V75.9889H63.872V73.3641C63.872 72.3101 63.226 71.9633 62.546 71.9633C62.1108 71.9633 61.6076 72.1537 61.3356 72.6501V72.0721H60.3768V75.9889H61.3356V73.7517C61.3356 73.1261 61.6892 72.8405 62.172 72.8405Z" fill="white"/>
<path d="M66.5548 72.8405C66.9764 72.8405 67.296 73.0785 67.296 73.7313V75.9889H68.2548V73.3641C68.2548 72.3101 67.6088 71.9633 66.9288 71.9633C66.4936 71.9633 65.9904 72.1537 65.7184 72.6501V72.0721H64.7596V75.9889H65.7184V73.7517C65.7184 73.1261 66.072 72.8405 66.5548 72.8405Z" fill="white"/>
<path d="M121.646 125.02L121.892 123.567L124.76 101.058L111.188 90.9042L92.0826 96.3326L93.8565 125.8C102.844 127.959 111.754 127.64 121.646 125.02Z" fill="#FFD3BA"/>
<path d="M96.7893 107.991C95.2438 106.72 94.5657 104.579 95.2498 102.574C97.4485 96.1356 97.7437 92.4485 97.8581 89.2234C97.9551 86.4955 100.245 84.3625 102.973 84.4596C105.7 84.5565 107.833 86.8456 107.737 89.5736C107.57 94.2756 106.974 98.8291 104.605 105.768C103.723 108.351 100.914 109.73 98.3305 108.848C97.7532 108.651 97.2351 108.357 96.7893 107.991Z" fill="#FFD3BA"/>
<path d="M106.376 106.619C104.786 105.312 104.124 103.09 104.89 101.057C106.212 97.5514 106.798 94.316 106.631 91.4378C106.474 88.7127 108.556 86.3765 111.28 86.219C114.005 86.0614 116.342 88.1422 116.499 90.8675C116.746 95.1341 115.952 99.736 114.14 104.543C113.177 107.098 110.326 108.388 107.772 107.425C107.252 107.229 106.783 106.953 106.376 106.619Z" fill="#FFD3BA"/>
<path d="M116.679 108.919C114.91 107.866 113.921 105.77 114.372 103.643C115.15 99.9798 115.243 96.6924 114.645 93.8717C114.08 91.2018 115.785 88.5776 118.456 88.0121C121.126 87.4461 123.749 89.1518 124.315 91.8223C125.201 96.0037 125.11 100.672 124.042 105.697C123.474 108.367 120.85 110.072 118.18 109.504C117.637 109.389 117.132 109.188 116.679 108.919Z" fill="#FFD3BA"/>
<path d="M92.9564 139.262C91.6231 129.371 88.3027 126.121 87.8155 125.468C87.3531 124.849 83.0247 119.974 81.4282 117.072C79.4502 113.475 77.1194 108.346 79.1397 104.152C81.1194 100.046 86.0659 100.869 89.9082 97.8011L98.1406 94.7934C101.411 94.233 104.517 96.4294 105.078 99.6998C105.639 102.971 103.442 106.077 100.171 106.638L98.5487 108.381C97.9547 108.624 98.4603 110.299 98.6146 111.001C99.5547 112.678 96.2438 115.802 97.7778 117.859C99.7625 120.518 99.2151 124.283 96.5555 126.267C94.5489 127.765 93.2711 141.598 92.9564 139.262Z" fill="#FFD3BA"/>
<path fill-rule="evenodd" clip-rule="evenodd" d="M122.204 125.766C114.025 133.441 103.533 138.68 91.8854 140.323C91.5998 128.254 90.9825 117.646 89.7329 114.9C86.4579 107.701 117.573 117.426 117.573 117.426C117.573 117.426 122.459 105.616 122.204 125.766Z" fill="#FFD3BA"/>
<path d="M80.1449 75.8608C80.1449 75.8608 88.3762 78.4027 91.395 82.5366C95.8612 88.6526 94.4859 98.0267 90.5068 105.019" stroke="#FFD2BA" stroke-width="13.09" stroke-linecap="round" stroke-linejoin="round"/>
<defs>
<filter id="filter0_d" x="28.6305" y="65.1006" width="50.932" height="17.102" filterUnits="userSpaceOnUse" color-interpolation-filters="sRGB">
<feFlood flood-opacity="0" result="BackgroundImageFix"/>
<feColorMatrix in="SourceAlpha" type="matrix" values="0 0 0 0 0 0 0 0 0 0 0 0 0 0 0 0 0 0 127 0"/>
<feOffset dy="0.238"/>
<feGaussianBlur stdDeviation="0.238"/>
<feColorMatrix type="matrix" values="0 0 0 0 0.0862745 0 0 0 0 0.0705882 0 0 0 0 0.145098 0 0 0 0.07 0"/>
<feBlend mode="normal" in2="BackgroundImageFix" result="effect1_dropShadow"/>
<feBlend mode="normal" in="SourceGraphic" in2="effect1_dropShadow" result="shape"/>
</filter>
</defs>
</svg>
