<svg width="1000" height="1000" viewBox="0 0 1000 1000" fill="none" xmlns="http://www.w3.org/2000/svg">
<path d="M822.549 500.336C822.549 681.67 675.551 828.665 494.213 828.665C312.879 828.665 165.877 681.67 165.877 500.336C165.877 318.998 312.879 172 494.213 172C675.551 172 822.549 318.998 822.549 500.336Z" fill="#EEEDF3"/>
<path d="M521.201 583.299H114.3C102.535 583.299 93 573.764 93 561.999V242.684C93 230.919 102.535 221.384 114.3 221.384H521.201C532.962 221.384 542.501 230.919 542.501 242.684V561.999C542.501 573.764 532.962 583.299 521.201 583.299Z" fill="#C8C5D6"/>
<path d="M520.438 221.384H115.063C102.876 221.384 93 231.26 93 243.444V274.506H542.501V243.444C542.501 231.26 532.625 221.384 520.438 221.384Z" fill="#48367D"/>
<path d="M148.195 248.155C148.195 254.246 143.261 259.184 137.169 259.184C131.077 259.184 126.136 254.246 126.136 248.155C126.136 242.063 131.077 237.125 137.169 237.125C143.261 237.125 148.195 242.063 148.195 248.155Z" fill="white"/>
<path d="M184.395 247.945C184.395 254.037 179.457 258.975 173.368 258.975C167.273 258.975 162.335 254.037 162.335 247.945C162.335 241.853 167.273 236.915 173.368 236.915C179.457 236.915 184.395 241.853 184.395 247.945Z" fill="white"/>
<path d="M221.173 247.945C221.173 254.037 216.235 258.975 210.146 258.975C204.055 258.975 199.113 254.037 199.113 247.945C199.113 241.853 204.055 236.915 210.146 236.915C216.235 236.915 221.173 241.853 221.173 247.945Z" fill="white"/>
<g filter="url(#filter0_d)">
<rect x="171.214" y="384.331" width="294" height="95" rx="7" fill="#FF5B24"/>
</g>
<path d="M262.936 419.331V449.331H273.536C279.856 449.331 283.816 445.451 283.816 440.531C283.816 437.771 282.376 434.851 278.616 433.531C281.256 432.091 282.536 429.491 282.536 427.411C282.536 422.491 279.136 419.331 272.976 419.331H262.936ZM268.736 436.411H273.336C276.256 436.411 278.176 438.091 278.176 440.291C278.176 442.971 276.136 444.051 273.376 444.051H268.736V436.411ZM268.736 424.611H272.896C275.576 424.611 277.056 425.971 277.056 428.291C277.056 430.531 275.336 431.931 272.896 431.931H268.736V424.611ZM297.853 430.371C300.533 430.371 302.733 431.651 303.213 434.971H292.453C293.133 431.771 295.093 430.371 297.853 430.371ZM308.613 439.011V437.251C308.613 430.451 304.213 425.651 298.053 425.651C291.493 425.651 286.533 430.331 286.533 437.731C286.533 445.331 291.813 449.931 298.613 449.931C302.853 449.931 307.973 447.491 308.853 442.171L303.733 441.371C303.293 443.571 301.893 444.971 298.413 444.971C294.733 444.971 292.653 442.611 292.293 439.011H308.613ZM314.733 420.731V426.291H310.773V430.971H314.733V443.571C314.733 447.011 316.213 449.731 320.973 449.731C322.973 449.731 325.133 449.171 326.493 448.571L325.693 444.211C324.613 444.451 323.653 444.611 322.613 444.611C320.893 444.611 320.373 443.771 320.373 442.131V430.971H326.053V426.291H320.373V419.931L314.733 420.731ZM338.365 449.931C341.965 449.931 344.405 448.251 346.005 446.091V449.331H351.645V426.291H346.005V429.251C344.125 426.691 341.765 425.651 339.005 425.651C333.845 425.651 328.725 429.531 328.725 437.571C328.725 446.011 333.885 449.931 338.365 449.931ZM340.245 430.611C343.285 430.611 346.005 432.971 346.005 437.851C346.005 442.891 343.285 444.931 340.205 444.931C337.365 444.931 334.405 442.771 334.405 437.851C334.405 432.851 337.405 430.611 340.245 430.611ZM357.075 418.331V449.331H362.675V418.331H357.075Z" fill="white"/>
<path d="M715.562 735.398L717.015 726.852L733.88 594.442L654.048 534.716L541.663 566.648L552.097 739.987C604.967 752.683 657.377 750.811 715.562 735.398Z" fill="#FFD3BA"/>
<path d="M569.349 635.225C560.258 627.75 556.269 615.155 560.293 603.362C573.226 565.487 574.963 543.799 575.636 524.827C576.207 508.781 589.675 496.234 605.722 496.805C621.765 497.375 634.312 510.84 633.745 526.887C632.767 554.546 629.259 581.332 615.321 622.147C610.134 637.342 593.611 645.455 578.415 640.268C575.019 639.107 571.971 637.378 569.349 635.225Z" fill="#FFD3BA"/>
<path d="M625.743 627.139C616.386 619.449 612.496 606.381 617.003 594.419C624.776 573.801 628.221 554.768 627.24 537.838C626.317 521.808 638.563 508.066 654.591 507.139C670.618 506.212 684.365 518.452 685.291 534.483C686.741 559.581 682.071 586.651 671.409 614.93C665.747 629.955 648.978 637.543 633.953 631.882C630.894 630.727 628.138 629.106 625.743 627.139Z" fill="#FFD3BA"/>
<path d="M686.347 640.674C675.939 634.482 670.122 622.152 672.776 609.644C677.356 588.094 677.899 568.756 674.383 552.164C671.056 536.458 681.09 521.022 696.799 517.696C712.504 514.366 727.937 524.399 731.263 540.108C736.479 564.705 735.939 592.166 729.657 621.725C726.319 637.431 710.884 647.458 695.178 644.12C691.98 643.439 689.015 642.258 686.347 640.674Z" fill="#FFD3BA"/>
<path d="M546.802 819.17C538.959 760.989 519.428 741.873 516.562 738.031C513.842 734.39 488.381 705.712 478.989 688.641C467.354 667.486 453.643 637.312 465.528 612.644C477.173 588.487 506.27 593.33 528.872 575.283L577.298 557.591C596.535 554.295 614.804 567.215 618.108 586.452C621.404 605.693 608.481 623.963 589.243 627.262L579.698 637.52C576.204 638.947 579.178 648.802 580.086 652.929C585.616 662.797 566.14 681.172 575.164 693.27C586.838 708.911 583.618 731.057 567.973 742.731C556.17 751.54 548.654 832.911 546.802 819.17Z" fill="#FFD3BA"/>
<path fill-rule="evenodd" clip-rule="evenodd" d="M718.848 739.799C670.738 784.947 609.018 815.763 540.503 825.431C538.823 754.428 535.192 692.024 527.841 675.866C508.576 633.524 691.606 690.726 691.606 690.726C691.606 690.726 720.349 621.252 718.848 739.799Z" fill="#FFD3BA"/>
<path d="M471.441 446.241C471.441 446.241 519.86 461.194 537.617 485.511C563.89 521.487 555.799 576.629 532.393 617.76" stroke="#FFD2BA" stroke-width="77" stroke-linecap="round" stroke-linejoin="round"/>
<defs>
<filter id="filter0_d" x="168.414" y="382.931" width="299.6" height="100.6" filterUnits="userSpaceOnUse" color-interpolation-filters="sRGB">
<feFlood flood-opacity="0" result="BackgroundImageFix"/>
<feColorMatrix in="SourceAlpha" type="matrix" values="0 0 0 0 0 0 0 0 0 0 0 0 0 0 0 0 0 0 127 0"/>
<feOffset dy="1.4"/>
<feGaussianBlur stdDeviation="1.4"/>
<feColorMatrix type="matrix" values="0 0 0 0 0.0862745 0 0 0 0 0.0705882 0 0 0 0 0.145098 0 0 0 0.07 0"/>
<feBlend mode="normal" in2="BackgroundImageFix" result="effect1_dropShadow"/>
<feBlend mode="normal" in="SourceGraphic" in2="effect1_dropShadow" result="shape"/>
</filter>
</defs>
</svg>
