<svg width="1728" height="671" viewBox="0 0 1728 671" fill="none" xmlns="http://www.w3.org/2000/svg">
<rect width="1728" height="671" fill="white"/>
<line x1="1106.5" y1="229" x2="1106.5" y2="376" stroke="#4D3280" stroke-dasharray="3 3"/>
<line x1="126" y1="228.5" x2="1474" y2="228.5" stroke="#FF5B24"/>
<circle cx="453" cy="228" r="10" transform="rotate(-90 453 228)" fill="white" stroke="#FF5B24" stroke-width="4"/>
<circle cx="285" cy="228" r="10" transform="rotate(-90 285 228)" fill="white" stroke="#FF5B24" stroke-width="4"/>
<circle cx="751" cy="228" r="10" transform="rotate(-90 751 228)" fill="white" stroke="#FF5B24" stroke-width="4"/>
<path d="M131.5 218C137.377 218 142 222.553 142 228C142 233.447 137.377 238 131.5 238C125.623 238 121 233.447 121 228C121 222.553 125.623 218 131.5 218Z" fill="white" stroke="#FF5B24" stroke-width="4"/>
<path d="M557.839 374.412C557.839 377.88 562.819 376.74 562.819 378.648C562.819 379.332 562.291 379.788 561.271 379.788C560.299 379.788 559.183 379.464 559.027 377.928L557.479 378.288C557.719 380.22 559.423 381.18 561.223 381.18C562.819 381.18 564.391 380.268 564.391 378.552C564.391 375.192 559.435 376.416 559.435 374.352C559.435 373.644 559.975 373.212 560.899 373.212C561.703 373.212 562.603 373.572 562.675 374.82L564.259 374.46C563.995 372.6 562.387 371.82 560.971 371.82C559.399 371.82 557.839 372.684 557.839 374.412ZM568.906 375.192C569.878 375.192 570.646 375.648 570.766 376.8L567.01 376.8C567.214 375.732 567.91 375.192 568.906 375.192ZM572.182 377.868L572.182 377.376C572.182 375.336 570.838 373.896 568.966 373.896C566.962 373.896 565.438 375.3 565.438 377.52C565.438 379.8 567.022 381.18 569.062 381.18C570.334 381.18 571.87 380.448 572.134 378.852L570.742 378.612C570.586 379.404 570.13 379.884 569.002 379.884C567.754 379.884 567.07 379.08 566.962 377.868L572.182 377.868ZM576.867 375.252C577.683 375.252 578.331 375.732 578.331 377.016L578.331 381L579.831 381L579.831 376.368C579.831 374.508 578.655 373.896 577.419 373.896C576.603 373.896 575.655 374.232 575.163 375.108L575.163 374.088L573.663 374.088L573.663 381L575.163 381L575.163 377.052C575.163 375.816 575.871 375.252 576.867 375.252ZM588.182 371.7L586.682 371.7L586.682 375.444C586.19 374.352 585.446 373.896 584.51 373.896C582.902 373.896 581.306 375.06 581.306 377.472C581.306 380.004 582.914 381.18 584.318 381.18C585.578 381.18 586.334 380.52 586.682 379.692L586.682 381L588.182 381L588.182 371.7ZM584.762 375.192C585.77 375.192 586.682 375.996 586.682 377.556C586.682 379.164 585.77 379.872 584.75 379.872C583.802 379.872 582.818 379.128 582.818 377.556C582.818 375.96 583.814 375.192 584.762 375.192ZM593.339 374.088L593.339 381L594.839 381L594.839 374.088L593.339 374.088ZM594.083 371.1C593.579 371.1 593.183 371.508 593.183 372C593.183 372.492 593.579 372.9 594.083 372.9C594.587 372.9 594.983 372.492 594.983 372C594.983 371.508 594.587 371.1 594.083 371.1ZM599.965 375.252C600.781 375.252 601.429 375.732 601.429 377.016L601.429 381L602.929 381L602.929 376.368C602.929 374.508 601.753 373.896 600.517 373.896C599.701 373.896 598.753 374.232 598.261 375.108L598.261 374.088L596.761 374.088L596.761 381L598.261 381L598.261 377.052C598.261 375.816 598.969 375.252 599.965 375.252ZM610.908 374.088L609.24 374.088L607.464 379.308L605.676 374.088L604.008 374.088L606.768 381L608.148 381L610.908 374.088ZM615.042 373.896C613.17 373.896 611.622 375.264 611.622 377.532C611.622 379.8 613.17 381.18 615.042 381.18C616.914 381.18 618.462 379.8 618.462 377.532C618.462 375.264 616.914 373.896 615.042 373.896ZM615.042 375.192C616.074 375.192 616.95 375.948 616.95 377.532C616.95 379.116 616.074 379.884 615.042 379.884C614.01 379.884 613.134 379.116 613.134 377.532C613.134 375.948 614.01 375.192 615.042 375.192ZM619.952 374.088L619.952 381L621.452 381L621.452 374.088L619.952 374.088ZM620.696 371.1C620.192 371.1 619.796 371.508 619.796 372C619.796 372.492 620.192 372.9 620.696 372.9C621.2 372.9 621.596 372.492 621.596 372C621.596 371.508 621.2 371.1 620.696 371.1ZM629.758 376.776C629.506 374.916 628.03 373.896 626.422 373.896C624.442 373.896 622.942 375.3 622.942 377.532C622.942 379.668 624.418 381.18 626.53 381.18C627.862 381.18 629.422 380.448 629.746 378.336L628.378 378.096C628.222 379.272 627.574 379.872 626.518 379.872C625.114 379.872 624.454 378.804 624.454 377.532C624.454 375.996 625.294 375.192 626.35 375.192C627.31 375.192 628.114 375.708 628.282 377.016L629.758 376.776ZM634.203 375.192C635.175 375.192 635.943 375.648 636.063 376.8L632.307 376.8C632.511 375.732 633.207 375.192 634.203 375.192ZM637.479 377.868L637.479 377.376C637.479 375.336 636.135 373.896 634.263 373.896C632.259 373.896 630.735 375.3 630.735 377.52C630.735 379.8 632.319 381.18 634.359 381.18C635.631 381.18 637.167 380.448 637.431 378.852L636.039 378.612C635.883 379.404 635.427 379.884 634.299 379.884C633.051 379.884 632.367 379.08 632.259 377.868L637.479 377.868Z" fill="#FF5B24"/>
<path d="M1243.84 375.216C1243.48 373.008 1241.59 371.82 1239.7 371.82C1237.14 371.82 1235.01 373.68 1235.01 376.44C1235.01 379.392 1237.16 381.18 1239.74 381.18C1241.48 381.18 1243.65 380.016 1243.92 377.544L1242.3 377.304C1242.16 379.092 1240.94 379.644 1239.74 379.644C1238.04 379.644 1236.7 378.672 1236.7 376.44C1236.7 374.412 1238.04 373.356 1239.64 373.356C1240.75 373.356 1241.96 373.812 1242.22 375.456L1243.84 375.216ZM1251.61 381L1251.61 374.088L1250.11 374.088L1250.11 378.108C1250.11 379.284 1249.33 379.824 1248.32 379.824C1247.39 379.824 1246.94 379.416 1246.94 378.348L1246.94 374.088L1245.44 374.088L1245.44 378.912C1245.44 380.508 1246.59 381.18 1247.74 381.18C1248.61 381.18 1249.57 380.784 1250.11 379.836L1250.11 381L1251.61 381ZM1253.36 376.032C1253.36 376.992 1253.91 377.7 1255.09 377.952L1256.35 378.228C1257.21 378.42 1257.45 378.672 1257.45 379.08C1257.45 379.656 1256.89 379.98 1256.06 379.98C1255.09 379.98 1254.45 379.524 1254.35 378.672L1253.02 378.912C1253.25 380.52 1254.75 381.18 1256.09 381.18C1257.43 381.18 1258.84 380.436 1258.84 378.936C1258.84 377.976 1258.28 377.328 1257.05 377.064L1255.69 376.764C1254.99 376.608 1254.75 376.272 1254.75 375.912C1254.75 375.408 1255.23 375.096 1255.91 375.096C1256.74 375.096 1257.35 375.396 1257.4 376.296L1258.73 376.056C1258.34 374.508 1257.29 373.896 1255.9 373.896C1254.77 373.896 1253.36 374.52 1253.36 376.032ZM1260.84 372.42L1260.84 374.088L1259.55 374.088L1259.55 375.3L1260.84 375.3L1260.84 379.056C1260.84 380.328 1261.47 381.12 1262.85 381.12C1263.27 381.12 1263.77 381.012 1264.13 380.904L1263.89 379.692C1263.61 379.764 1263.44 379.8 1263.17 379.8C1262.55 379.8 1262.34 379.524 1262.34 378.984L1262.34 375.3L1264.07 375.3L1264.07 374.088L1262.34 374.088L1262.34 372.18L1260.84 372.42ZM1268.52 373.896C1266.65 373.896 1265.1 375.264 1265.1 377.532C1265.1 379.8 1266.65 381.18 1268.52 381.18C1270.4 381.18 1271.94 379.8 1271.94 377.532C1271.94 375.264 1270.4 373.896 1268.52 373.896ZM1268.52 375.192C1269.56 375.192 1270.43 375.948 1270.43 377.532C1270.43 379.116 1269.56 379.884 1268.52 379.884C1267.49 379.884 1266.62 379.116 1266.62 377.532C1266.62 375.948 1267.49 375.192 1268.52 375.192ZM1281.08 375.252C1281.93 375.252 1282.58 375.732 1282.58 377.016L1282.58 381L1284.08 381L1284.08 376.368C1284.08 374.508 1282.94 373.896 1281.68 373.896C1280.91 373.896 1279.94 374.208 1279.42 375.24C1279.05 374.256 1278.17 373.896 1277.25 373.896C1276.42 373.896 1275.43 374.22 1274.93 375.108L1274.93 374.088L1273.43 374.088L1273.43 381L1274.93 381L1274.93 377.052C1274.93 375.816 1275.64 375.252 1276.6 375.252C1277.45 375.252 1278.1 375.732 1278.1 377.016L1278.1 381L1279.6 381L1279.6 377.052C1279.6 375.816 1280.23 375.252 1281.08 375.252ZM1288.97 375.192C1289.95 375.192 1290.71 375.648 1290.83 376.8L1287.08 376.8C1287.28 375.732 1287.98 375.192 1288.97 375.192ZM1292.25 377.868L1292.25 377.376C1292.25 375.336 1290.91 373.896 1289.03 373.896C1287.03 373.896 1285.51 375.3 1285.51 377.52C1285.51 379.8 1287.09 381.18 1289.13 381.18C1290.4 381.18 1291.94 380.448 1292.2 378.852L1290.81 378.612C1290.65 379.404 1290.2 379.884 1289.07 379.884C1287.82 379.884 1287.14 379.08 1287.03 377.868L1292.25 377.868ZM1297.04 375.516C1297.42 375.516 1297.68 375.564 1297.94 375.672L1298.09 373.992C1297.94 373.92 1297.74 373.896 1297.56 373.896C1296.88 373.896 1295.8 374.292 1295.23 375.744L1295.23 374.088L1293.73 374.088L1293.73 381L1295.23 381L1295.23 377.976C1295.23 376.056 1296.07 375.516 1297.04 375.516ZM1305.1 381.18C1306.34 381.18 1307.09 380.424 1307.44 379.572L1307.44 381L1308.94 381L1308.94 374.088L1307.44 374.088L1307.44 375.444C1306.95 374.352 1306.19 373.896 1305.11 373.896C1303.66 373.896 1302.07 375.06 1302.07 377.472C1302.07 380.004 1303.67 381.18 1305.1 381.18ZM1305.52 375.192C1306.53 375.192 1307.44 375.96 1307.44 377.556C1307.44 379.2 1306.53 379.872 1305.51 379.872C1304.56 379.872 1303.58 379.164 1303.58 377.556C1303.58 375.924 1304.57 375.192 1305.52 375.192ZM1314.7 373.896C1313.53 373.896 1312.81 374.64 1312.36 375.444L1312.36 374.088L1310.86 374.088L1310.86 383.4L1312.36 383.4L1312.36 379.692C1312.94 380.676 1313.68 381.18 1314.56 381.18C1316.17 381.18 1317.74 379.956 1317.74 377.436C1317.74 375.024 1316.11 373.896 1314.7 373.896ZM1314.3 375.192C1315.24 375.192 1316.23 375.948 1316.23 377.52C1316.23 379.116 1315.24 379.872 1314.28 379.872C1313.28 379.872 1312.36 379.056 1312.36 377.52C1312.36 375.912 1313.28 375.192 1314.3 375.192ZM1323.12 373.896C1321.94 373.896 1321.22 374.64 1320.78 375.444L1320.78 374.088L1319.28 374.088L1319.28 383.4L1320.78 383.4L1320.78 379.692C1321.35 380.676 1322.1 381.18 1322.97 381.18C1324.58 381.18 1326.15 379.956 1326.15 377.436C1326.15 375.024 1324.52 373.896 1323.12 373.896ZM1322.71 375.192C1323.66 375.192 1324.64 375.948 1324.64 377.52C1324.64 379.116 1323.66 379.872 1322.7 379.872C1321.69 379.872 1320.78 379.056 1320.78 377.52C1320.78 375.912 1321.69 375.192 1322.71 375.192ZM1331 375.516C1331.38 375.516 1331.64 375.564 1331.9 375.672L1332.05 373.992C1331.9 373.92 1331.7 373.896 1331.52 373.896C1330.84 373.896 1329.76 374.292 1329.19 375.744L1329.19 374.088L1327.69 374.088L1327.69 381L1329.19 381L1329.19 377.976C1329.19 376.056 1330.03 375.516 1331 375.516ZM1336.16 373.896C1334.29 373.896 1332.74 375.264 1332.74 377.532C1332.74 379.8 1334.29 381.18 1336.16 381.18C1338.04 381.18 1339.58 379.8 1339.58 377.532C1339.58 375.264 1338.04 373.896 1336.16 373.896ZM1336.16 375.192C1337.2 375.192 1338.07 375.948 1338.07 377.532C1338.07 379.116 1337.2 379.884 1336.16 379.884C1335.13 379.884 1334.26 379.116 1334.26 377.532C1334.26 375.948 1335.13 375.192 1336.16 375.192ZM1347.2 374.088L1345.53 374.088L1343.75 379.308L1341.96 374.088L1340.3 374.088L1343.06 381L1344.44 381L1347.2 374.088ZM1351.38 375.192C1352.35 375.192 1353.12 375.648 1353.24 376.8L1349.48 376.8C1349.68 375.732 1350.38 375.192 1351.38 375.192ZM1354.65 377.868L1354.65 377.376C1354.65 375.336 1353.31 373.896 1351.44 373.896C1349.43 373.896 1347.91 375.3 1347.91 377.52C1347.91 379.8 1349.49 381.18 1351.53 381.18C1352.8 381.18 1354.34 380.448 1354.6 378.852L1353.21 378.612C1353.06 379.404 1352.6 379.884 1351.47 379.884C1350.22 379.884 1349.54 379.08 1349.43 377.868L1354.65 377.868ZM1362.63 371.7L1361.13 371.7L1361.13 375.444C1360.63 374.352 1359.89 373.896 1358.95 373.896C1357.35 373.896 1355.75 375.06 1355.75 377.472C1355.75 380.004 1357.36 381.18 1358.76 381.18C1360.02 381.18 1360.78 380.52 1361.13 379.692L1361.13 381L1362.63 381L1362.63 371.7ZM1359.21 375.192C1360.21 375.192 1361.13 375.996 1361.13 377.556C1361.13 379.164 1360.21 379.872 1359.19 379.872C1358.25 379.872 1357.26 379.128 1357.26 377.556C1357.26 375.96 1358.26 375.192 1359.21 375.192Z" fill="#FF5B24"/>
<path d="M85.1663 377.616L85.1543 377.712C85.0103 378.852 84.0863 379.644 82.6703 379.644C81.1823 379.644 79.6943 378.756 79.6943 376.536C79.6943 374.424 80.9303 373.356 82.5863 373.356C83.8463 373.356 84.9143 373.836 85.1183 375.336L86.7023 375.096C86.3543 372.588 84.1823 371.82 82.6823 371.82C79.9943 371.82 78.0023 373.752 78.0023 376.536C78.0023 379.2 79.9583 381.18 82.2383 381.18C83.6903 381.18 84.7223 380.28 85.2023 379.32L85.2143 379.32L85.4903 381L86.8223 381L86.8223 376.2L82.8023 376.2L82.8023 377.616L85.1663 377.616ZM91.7929 375.192C92.7649 375.192 93.5329 375.648 93.6529 376.8L89.8969 376.8C90.1009 375.732 90.7969 375.192 91.7929 375.192ZM95.0689 377.868L95.0689 377.376C95.0689 375.336 93.7249 373.896 91.8529 373.896C89.8489 373.896 88.3249 375.3 88.3249 377.52C88.3249 379.8 89.9089 381.18 91.9489 381.18C93.2209 381.18 94.7569 380.448 95.0209 378.852L93.6289 378.612C93.4729 379.404 93.0169 379.884 91.8889 379.884C90.6409 379.884 89.9569 379.08 89.8489 377.868L95.0689 377.868ZM97.0778 372.42L97.0778 374.088L95.7938 374.088L95.7938 375.3L97.0778 375.3L97.0778 379.056C97.0778 380.328 97.7138 381.12 99.0938 381.12C99.5138 381.12 100.006 381.012 100.366 380.904L100.126 379.692C99.8498 379.764 99.6818 379.8 99.4058 379.8C98.7938 379.8 98.5778 379.524 98.5778 378.984L98.5778 375.3L100.306 375.3L100.306 374.088L98.5778 374.088L98.5778 372.18L97.0778 372.42ZM107.663 381.18C108.899 381.18 109.655 380.424 110.003 379.572L110.003 381L111.503 381L111.503 374.088L110.003 374.088L110.003 375.444C109.511 374.352 108.755 373.896 107.675 373.896C106.223 373.896 104.627 375.06 104.627 377.472C104.627 380.004 106.235 381.18 107.663 381.18ZM108.083 375.192C109.091 375.192 110.003 375.96 110.003 377.556C110.003 379.2 109.091 379.872 108.071 379.872C107.123 379.872 106.139 379.164 106.139 377.556C106.139 375.924 107.135 375.192 108.083 375.192ZM119.809 376.776C119.557 374.916 118.081 373.896 116.473 373.896C114.493 373.896 112.993 375.3 112.993 377.532C112.993 379.668 114.469 381.18 116.581 381.18C117.913 381.18 119.473 380.448 119.797 378.336L118.429 378.096C118.273 379.272 117.625 379.872 116.569 379.872C115.165 379.872 114.505 378.804 114.505 377.532C114.505 375.996 115.345 375.192 116.401 375.192C117.361 375.192 118.165 375.708 118.333 377.016L119.809 376.776ZM127.602 376.776C127.35 374.916 125.874 373.896 124.266 373.896C122.286 373.896 120.786 375.3 120.786 377.532C120.786 379.668 122.262 381.18 124.374 381.18C125.706 381.18 127.266 380.448 127.59 378.336L126.222 378.096C126.066 379.272 125.418 379.872 124.362 379.872C122.958 379.872 122.298 378.804 122.298 377.532C122.298 375.996 123.138 375.192 124.194 375.192C125.154 375.192 125.958 375.708 126.126 377.016L127.602 376.776ZM132.047 375.192C133.019 375.192 133.787 375.648 133.907 376.8L130.151 376.8C130.355 375.732 131.051 375.192 132.047 375.192ZM135.323 377.868L135.323 377.376C135.323 375.336 133.979 373.896 132.107 373.896C130.103 373.896 128.579 375.3 128.579 377.52C128.579 379.8 130.163 381.18 132.203 381.18C133.475 381.18 135.011 380.448 135.275 378.852L133.883 378.612C133.727 379.404 133.271 379.884 132.143 379.884C130.895 379.884 130.211 379.08 130.103 377.868L135.323 377.868ZM136.66 376.032C136.66 376.992 137.212 377.7 138.388 377.952L139.648 378.228C140.512 378.42 140.752 378.672 140.752 379.08C140.752 379.656 140.188 379.98 139.36 379.98C138.388 379.98 137.752 379.524 137.656 378.672L136.324 378.912C136.552 380.52 138.052 381.18 139.396 381.18C140.728 381.18 142.144 380.436 142.144 378.936C142.144 377.976 141.58 377.328 140.356 377.064L138.988 376.764C138.292 376.608 138.052 376.272 138.052 375.912C138.052 375.408 138.532 375.096 139.216 375.096C140.044 375.096 140.656 375.396 140.704 376.296L142.036 376.056C141.64 374.508 140.596 373.896 139.204 373.896C138.076 373.896 136.66 374.52 136.66 376.032ZM143.468 376.032C143.468 376.992 144.02 377.7 145.196 377.952L146.456 378.228C147.32 378.42 147.56 378.672 147.56 379.08C147.56 379.656 146.996 379.98 146.168 379.98C145.196 379.98 144.56 379.524 144.464 378.672L143.132 378.912C143.36 380.52 144.86 381.18 146.204 381.18C147.536 381.18 148.952 380.436 148.952 378.936C148.952 377.976 148.388 377.328 147.164 377.064L145.796 376.764C145.1 376.608 144.86 376.272 144.86 375.912C144.86 375.408 145.34 375.096 146.024 375.096C146.852 375.096 147.464 375.396 147.512 376.296L148.844 376.056C148.448 374.508 147.404 373.896 146.012 373.896C144.884 373.896 143.468 374.52 143.468 376.032ZM154.183 372.42L154.183 374.088L152.899 374.088L152.899 375.3L154.183 375.3L154.183 379.056C154.183 380.328 154.819 381.12 156.199 381.12C156.619 381.12 157.111 381.012 157.471 380.904L157.231 379.692C156.955 379.764 156.787 379.8 156.511 379.8C155.899 379.8 155.683 379.524 155.683 378.984L155.683 375.3L157.411 375.3L157.411 374.088L155.683 374.088L155.683 372.18L154.183 372.42ZM161.87 373.896C159.998 373.896 158.45 375.264 158.45 377.532C158.45 379.8 159.998 381.18 161.87 381.18C163.742 381.18 165.29 379.8 165.29 377.532C165.29 375.264 163.742 373.896 161.87 373.896ZM161.87 375.192C162.902 375.192 163.778 375.948 163.778 377.532C163.778 379.116 162.902 379.884 161.87 379.884C160.838 379.884 159.962 379.116 159.962 377.532C159.962 375.948 160.838 375.192 161.87 375.192ZM166.78 381L168.28 381L168.28 379.344L169.552 377.916L171.616 381L173.176 381L170.404 376.944L172.948 374.088L171.316 374.088L168.28 377.664L168.28 371.7L166.78 371.7L166.78 381ZM177.176 375.192C178.148 375.192 178.916 375.648 179.036 376.8L175.28 376.8C175.484 375.732 176.18 375.192 177.176 375.192ZM180.452 377.868L180.452 377.376C180.452 375.336 179.108 373.896 177.236 373.896C175.232 373.896 173.708 375.3 173.708 377.52C173.708 379.8 175.292 381.18 177.332 381.18C178.604 381.18 180.14 380.448 180.404 378.852L179.012 378.612C178.856 379.404 178.4 379.884 177.272 379.884C176.024 379.884 175.34 379.08 175.232 377.868L180.452 377.868ZM185.137 375.252C185.953 375.252 186.601 375.732 186.601 377.016L186.601 381L188.101 381L188.101 376.368C188.101 374.508 186.925 373.896 185.689 373.896C184.873 373.896 183.925 374.232 183.433 375.108L183.433 374.088L181.933 374.088L181.933 381L183.433 381L183.433 377.052C183.433 375.816 184.141 375.252 185.137 375.252Z" fill="#FF5B24"/>
<path d="M237.412 375.216C237.052 373.008 235.156 371.82 233.272 371.82C230.704 371.82 228.58 373.68 228.58 376.44C228.58 379.392 230.728 381.18 233.308 381.18C235.048 381.18 237.22 380.016 237.484 377.544L235.864 377.304C235.732 379.092 234.508 379.644 233.308 379.644C231.604 379.644 230.272 378.672 230.272 376.44C230.272 374.412 231.604 373.356 233.212 373.356C234.316 373.356 235.528 373.812 235.792 375.456L237.412 375.216ZM245.174 381L245.174 374.088L243.674 374.088L243.674 378.108C243.674 379.284 242.894 379.824 241.886 379.824C240.962 379.824 240.506 379.416 240.506 378.348L240.506 374.088L239.006 374.088L239.006 378.912C239.006 380.508 240.158 381.18 241.31 381.18C242.174 381.18 243.134 380.784 243.674 379.836L243.674 381L245.174 381ZM246.925 376.032C246.925 376.992 247.477 377.7 248.653 377.952L249.913 378.228C250.777 378.42 251.017 378.672 251.017 379.08C251.017 379.656 250.453 379.98 249.625 379.98C248.653 379.98 248.017 379.524 247.921 378.672L246.589 378.912C246.817 380.52 248.317 381.18 249.661 381.18C250.993 381.18 252.409 380.436 252.409 378.936C252.409 377.976 251.845 377.328 250.621 377.064L249.253 376.764C248.557 376.608 248.317 376.272 248.317 375.912C248.317 375.408 248.797 375.096 249.481 375.096C250.309 375.096 250.921 375.396 250.969 376.296L252.301 376.056C251.905 374.508 250.861 373.896 249.469 373.896C248.341 373.896 246.925 374.52 246.925 376.032ZM254.406 372.42L254.406 374.088L253.122 374.088L253.122 375.3L254.406 375.3L254.406 379.056C254.406 380.328 255.042 381.12 256.422 381.12C256.842 381.12 257.334 381.012 257.694 380.904L257.454 379.692C257.178 379.764 257.01 379.8 256.734 379.8C256.122 379.8 255.906 379.524 255.906 378.984L255.906 375.3L257.634 375.3L257.634 374.088L255.906 374.088L255.906 372.18L254.406 372.42ZM262.093 373.896C260.221 373.896 258.673 375.264 258.673 377.532C258.673 379.8 260.221 381.18 262.093 381.18C263.965 381.18 265.513 379.8 265.513 377.532C265.513 375.264 263.965 373.896 262.093 373.896ZM262.093 375.192C263.125 375.192 264.001 375.948 264.001 377.532C264.001 379.116 263.125 379.884 262.093 379.884C261.061 379.884 260.185 379.116 260.185 377.532C260.185 375.948 261.061 375.192 262.093 375.192ZM274.647 375.252C275.499 375.252 276.147 375.732 276.147 377.016L276.147 381L277.647 381L277.647 376.368C277.647 374.508 276.507 373.896 275.247 373.896C274.479 373.896 273.507 374.208 272.991 375.24C272.619 374.256 271.743 373.896 270.819 373.896C269.991 373.896 268.995 374.22 268.503 375.108L268.503 374.088L267.003 374.088L267.003 381L268.503 381L268.503 377.052C268.503 375.816 269.211 375.252 270.171 375.252C271.023 375.252 271.671 375.732 271.671 377.016L271.671 381L273.171 381L273.171 377.052C273.171 375.816 273.795 375.252 274.647 375.252ZM282.543 375.192C283.515 375.192 284.283 375.648 284.403 376.8L280.647 376.8C280.851 375.732 281.547 375.192 282.543 375.192ZM285.819 377.868L285.819 377.376C285.819 375.336 284.475 373.896 282.603 373.896C280.599 373.896 279.075 375.3 279.075 377.52C279.075 379.8 280.659 381.18 282.699 381.18C283.971 381.18 285.507 380.448 285.771 378.852L284.379 378.612C284.223 379.404 283.767 379.884 282.639 379.884C281.391 379.884 280.707 379.08 280.599 377.868L285.819 377.868ZM290.612 375.516C290.984 375.516 291.248 375.564 291.512 375.672L291.656 373.992C291.512 373.92 291.308 373.896 291.128 373.896C290.444 373.896 289.364 374.292 288.8 375.744L288.8 374.088L287.3 374.088L287.3 381L288.8 381L288.8 377.976C288.8 376.056 289.64 375.516 290.612 375.516ZM296.019 371.7L296.019 381L297.519 381L297.519 371.7L296.019 371.7ZM302.428 373.896C300.556 373.896 299.008 375.264 299.008 377.532C299.008 379.8 300.556 381.18 302.428 381.18C304.3 381.18 305.848 379.8 305.848 377.532C305.848 375.264 304.3 373.896 302.428 373.896ZM302.428 375.192C303.46 375.192 304.336 375.948 304.336 377.532C304.336 379.116 303.46 379.884 302.428 379.884C301.396 379.884 300.52 379.116 300.52 377.532C300.52 375.948 301.396 375.192 302.428 375.192ZM310.327 373.896C308.455 373.896 306.907 375.264 306.907 377.532C306.907 379.8 308.455 381.18 310.327 381.18C312.199 381.18 313.747 379.8 313.747 377.532C313.747 375.264 312.199 373.896 310.327 373.896ZM310.327 375.192C311.359 375.192 312.235 375.948 312.235 377.532C312.235 379.116 311.359 379.884 310.327 379.884C309.295 379.884 308.419 379.116 308.419 377.532C308.419 375.948 309.295 375.192 310.327 375.192ZM315.237 381L316.737 381L316.737 379.344L318.009 377.916L320.073 381L321.633 381L318.861 376.944L321.405 374.088L319.773 374.088L316.737 377.664L316.737 371.7L315.237 371.7L315.237 381ZM322.117 377.712L326.077 377.712L326.077 376.476L322.117 376.476L322.117 377.712ZM333.651 381L333.651 374.088L332.151 374.088L332.151 378.108C332.151 379.284 331.371 379.824 330.363 379.824C329.439 379.824 328.983 379.416 328.983 378.348L328.983 374.088L327.483 374.088L327.483 378.912C327.483 380.508 328.635 381.18 329.787 381.18C330.651 381.18 331.611 380.784 332.151 379.836L332.151 381L333.651 381ZM339.386 373.896C338.21 373.896 337.49 374.64 337.046 375.444L337.046 374.088L335.546 374.088L335.546 383.4L337.046 383.4L337.046 379.692C337.622 380.676 338.366 381.18 339.242 381.18C340.85 381.18 342.422 379.956 342.422 377.436C342.422 375.024 340.79 373.896 339.386 373.896ZM338.978 375.192C339.926 375.192 340.91 375.948 340.91 377.52C340.91 379.116 339.926 379.872 338.966 379.872C337.958 379.872 337.046 379.056 337.046 377.52C337.046 375.912 337.958 375.192 338.978 375.192Z" fill="#FF5B24"/>
<path d="M398.983 377.616L398.971 377.712C398.827 378.852 397.903 379.644 396.487 379.644C394.999 379.644 393.511 378.756 393.511 376.536C393.511 374.424 394.747 373.356 396.403 373.356C397.663 373.356 398.731 373.836 398.935 375.336L400.519 375.096C400.171 372.588 397.999 371.82 396.499 371.82C393.811 371.82 391.819 373.752 391.819 376.536C391.819 379.2 393.775 381.18 396.055 381.18C397.507 381.18 398.539 380.28 399.019 379.32L399.031 379.32L399.307 381L400.639 381L400.639 376.2L396.619 376.2L396.619 377.616L398.983 377.616ZM405.609 375.192C406.581 375.192 407.349 375.648 407.469 376.8L403.713 376.8C403.917 375.732 404.613 375.192 405.609 375.192ZM408.885 377.868L408.885 377.376C408.885 375.336 407.541 373.896 405.669 373.896C403.665 373.896 402.141 375.3 402.141 377.52C402.141 379.8 403.725 381.18 405.765 381.18C407.037 381.18 408.573 380.448 408.837 378.852L407.445 378.612C407.289 379.404 406.833 379.884 405.705 379.884C404.457 379.884 403.773 379.08 403.665 377.868L408.885 377.868ZM410.894 372.42L410.894 374.088L409.61 374.088L409.61 375.3L410.894 375.3L410.894 379.056C410.894 380.328 411.53 381.12 412.91 381.12C413.33 381.12 413.822 381.012 414.182 380.904L413.942 379.692C413.666 379.764 413.498 379.8 413.222 379.8C412.61 379.8 412.394 379.524 412.394 378.984L412.394 375.3L414.122 375.3L414.122 374.088L412.394 374.088L412.394 372.18L410.894 372.42ZM422.139 375.516C422.511 375.516 422.775 375.564 423.039 375.672L423.183 373.992C423.039 373.92 422.835 373.896 422.655 373.896C421.971 373.896 420.891 374.292 420.327 375.744L420.327 374.088L418.827 374.088L418.827 381L420.327 381L420.327 377.976C420.327 376.056 421.167 375.516 422.139 375.516ZM427.348 375.192C428.32 375.192 429.088 375.648 429.208 376.8L425.452 376.8C425.656 375.732 426.352 375.192 427.348 375.192ZM430.624 377.868L430.624 377.376C430.624 375.336 429.28 373.896 427.408 373.896C425.404 373.896 423.88 375.3 423.88 377.52C423.88 379.8 425.464 381.18 427.504 381.18C428.776 381.18 430.312 380.448 430.576 378.852L429.184 378.612C429.028 379.404 428.572 379.884 427.444 379.884C426.196 379.884 425.512 379.08 425.404 377.868L430.624 377.868ZM438.489 376.776C438.237 374.916 436.761 373.896 435.153 373.896C433.173 373.896 431.673 375.3 431.673 377.532C431.673 379.668 433.149 381.18 435.261 381.18C436.593 381.18 438.153 380.448 438.477 378.336L437.109 378.096C436.953 379.272 436.305 379.872 435.249 379.872C433.845 379.872 433.185 378.804 433.185 377.532C433.185 375.996 434.025 375.192 435.081 375.192C436.041 375.192 436.845 375.708 437.013 377.016L438.489 376.776ZM439.897 374.088L439.897 381L441.397 381L441.397 374.088L439.897 374.088ZM440.641 371.1C440.137 371.1 439.741 371.508 439.741 372C439.741 372.492 440.137 372.9 440.641 372.9C441.145 372.9 441.541 372.492 441.541 372C441.541 371.508 441.145 371.1 440.641 371.1ZM447.159 373.896C445.983 373.896 445.263 374.64 444.819 375.444L444.819 374.088L443.319 374.088L443.319 383.4L444.819 383.4L444.819 379.692C445.395 380.676 446.139 381.18 447.015 381.18C448.623 381.18 450.195 379.956 450.195 377.436C450.195 375.024 448.563 373.896 447.159 373.896ZM446.751 375.192C447.699 375.192 448.683 375.948 448.683 377.52C448.683 379.116 447.699 379.872 446.739 379.872C445.731 379.872 444.819 379.056 444.819 377.52C444.819 375.912 445.731 375.192 446.751 375.192ZM451.733 374.088L451.733 381L453.233 381L453.233 374.088L451.733 374.088ZM452.477 371.1C451.973 371.1 451.577 371.508 451.577 372C451.577 372.492 451.973 372.9 452.477 372.9C452.981 372.9 453.377 372.492 453.377 372C453.377 371.508 452.981 371.1 452.477 371.1ZM458.191 375.192C459.163 375.192 459.931 375.648 460.051 376.8L456.295 376.8C456.499 375.732 457.195 375.192 458.191 375.192ZM461.467 377.868L461.467 377.376C461.467 375.336 460.123 373.896 458.251 373.896C456.247 373.896 454.723 375.3 454.723 377.52C454.723 379.8 456.307 381.18 458.347 381.18C459.619 381.18 461.155 380.448 461.419 378.852L460.027 378.612C459.871 379.404 459.415 379.884 458.287 379.884C457.039 379.884 456.355 379.08 456.247 377.868L461.467 377.868ZM466.152 375.252C466.968 375.252 467.616 375.732 467.616 377.016L467.616 381L469.116 381L469.116 376.368C469.116 374.508 467.94 373.896 466.704 373.896C465.888 373.896 464.94 374.232 464.448 375.108L464.448 374.088L462.948 374.088L462.948 381L464.448 381L464.448 377.052C464.448 375.816 465.156 375.252 466.152 375.252ZM471.504 372.42L471.504 374.088L470.22 374.088L470.22 375.3L471.504 375.3L471.504 379.056C471.504 380.328 472.14 381.12 473.52 381.12C473.94 381.12 474.432 381.012 474.792 380.904L474.552 379.692C474.276 379.764 474.108 379.8 473.832 379.8C473.22 379.8 473.004 379.524 473.004 378.984L473.004 375.3L474.732 375.3L474.732 374.088L473.004 374.088L473.004 372.18L471.504 372.42ZM479.965 372.42L479.965 374.088L478.681 374.088L478.681 375.3L479.965 375.3L479.965 379.056C479.965 380.328 480.601 381.12 481.981 381.12C482.401 381.12 482.893 381.012 483.253 380.904L483.013 379.692C482.737 379.764 482.569 379.8 482.293 379.8C481.681 379.8 481.465 379.524 481.465 378.984L481.465 375.3L483.193 375.3L483.193 374.088L481.465 374.088L481.465 372.18L479.965 372.42ZM487.651 373.896C485.779 373.896 484.231 375.264 484.231 377.532C484.231 379.8 485.779 381.18 487.651 381.18C489.523 381.18 491.071 379.8 491.071 377.532C491.071 375.264 489.523 373.896 487.651 373.896ZM487.651 375.192C488.683 375.192 489.559 375.948 489.559 377.532C489.559 379.116 488.683 379.884 487.651 379.884C486.619 379.884 485.743 379.116 485.743 377.532C485.743 375.948 486.619 375.192 487.651 375.192ZM492.562 381L494.062 381L494.062 379.344L495.334 377.916L497.398 381L498.958 381L496.186 376.944L498.73 374.088L497.098 374.088L494.062 377.664L494.062 371.7L492.562 371.7L492.562 381ZM502.957 375.192C503.929 375.192 504.697 375.648 504.817 376.8L501.061 376.8C501.265 375.732 501.961 375.192 502.957 375.192ZM506.233 377.868L506.233 377.376C506.233 375.336 504.889 373.896 503.017 373.896C501.013 373.896 499.489 375.3 499.489 377.52C499.489 379.8 501.073 381.18 503.113 381.18C504.385 381.18 505.921 380.448 506.185 378.852L504.793 378.612C504.637 379.404 504.181 379.884 503.053 379.884C501.805 379.884 501.121 379.08 501.013 377.868L506.233 377.868ZM510.918 375.252C511.734 375.252 512.382 375.732 512.382 377.016L512.382 381L513.882 381L513.882 376.368C513.882 374.508 512.706 373.896 511.47 373.896C510.654 373.896 509.706 374.232 509.214 375.108L509.214 374.088L507.714 374.088L507.714 381L509.214 381L509.214 377.052C509.214 375.816 509.922 375.252 510.918 375.252Z" fill="#FF5B24"/>
<path d="M707.707 375.216C707.347 373.008 705.451 371.82 703.567 371.82C700.999 371.82 698.875 373.68 698.875 376.44C698.875 379.392 701.023 381.18 703.603 381.18C705.343 381.18 707.515 380.016 707.779 377.544L706.159 377.304C706.027 379.092 704.803 379.644 703.603 379.644C701.899 379.644 700.567 378.672 700.567 376.44C700.567 374.412 701.899 373.356 703.507 373.356C704.611 373.356 705.823 373.812 706.087 375.456L707.707 375.216ZM709.337 371.7L709.337 381L710.837 381L710.837 377.052C710.837 375.816 711.545 375.252 712.553 375.252C713.357 375.252 714.005 375.732 714.005 377.016L714.005 381L715.505 381L715.505 376.368C715.505 374.508 714.365 373.896 713.045 373.896C712.313 373.896 711.329 374.22 710.837 375.108L710.837 371.7L709.337 371.7ZM720.4 375.192C721.372 375.192 722.14 375.648 722.26 376.8L718.504 376.8C718.708 375.732 719.404 375.192 720.4 375.192ZM723.676 377.868L723.676 377.376C723.676 375.336 722.332 373.896 720.46 373.896C718.456 373.896 716.932 375.3 716.932 377.52C716.932 379.8 718.516 381.18 720.556 381.18C721.828 381.18 723.364 380.448 723.628 378.852L722.236 378.612C722.08 379.404 721.624 379.884 720.496 379.884C719.248 379.884 718.564 379.08 718.456 377.868L723.676 377.868ZM731.541 376.776C731.289 374.916 729.813 373.896 728.205 373.896C726.225 373.896 724.725 375.3 724.725 377.532C724.725 379.668 726.201 381.18 728.313 381.18C729.645 381.18 731.205 380.448 731.529 378.336L730.161 378.096C730.005 379.272 729.357 379.872 728.301 379.872C726.897 379.872 726.237 378.804 726.237 377.532C726.237 375.996 727.077 375.192 728.133 375.192C729.093 375.192 729.897 375.708 730.065 377.016L731.541 376.776ZM732.95 381L734.45 381L734.45 379.344L735.722 377.916L737.786 381L739.346 381L736.574 376.944L739.118 374.088L737.486 374.088L734.45 377.664L734.45 371.7L732.95 371.7L732.95 381ZM740.31 374.088L740.31 381L741.81 381L741.81 374.088L740.31 374.088ZM741.054 371.1C740.55 371.1 740.154 371.508 740.154 372C740.154 372.492 740.55 372.9 741.054 372.9C741.558 372.9 741.954 372.492 741.954 372C741.954 371.508 741.558 371.1 741.054 371.1ZM746.935 375.252C747.751 375.252 748.399 375.732 748.399 377.016L748.399 381L749.899 381L749.899 376.368C749.899 374.508 748.723 373.896 747.487 373.896C746.671 373.896 745.723 374.232 745.231 375.108L745.231 374.088L743.731 374.088L743.731 381L745.231 381L745.231 377.052C745.231 375.816 745.939 375.252 746.935 375.252ZM754.303 380.604C755.515 380.604 756.151 379.812 756.523 379.056L756.523 380.088C756.523 381.552 755.911 382.152 754.579 382.152C753.739 382.152 752.935 381.912 752.803 380.916L751.351 381.156C751.699 382.908 753.271 383.496 754.519 383.496C756.727 383.496 758.023 382.344 758.023 380.028L758.023 374.076L756.523 374.076L756.523 375.42C755.995 374.352 755.335 373.896 754.423 373.896C752.863 373.896 751.387 374.952 751.387 377.148C751.387 379.5 752.887 380.604 754.303 380.604ZM754.687 375.192C755.695 375.192 756.523 375.924 756.523 377.244C756.523 378.636 755.695 379.296 754.687 379.296C753.715 379.296 752.899 378.636 752.899 377.232C752.899 375.876 753.751 375.192 754.687 375.192ZM763.029 376.032C763.029 376.992 763.581 377.7 764.757 377.952L766.017 378.228C766.881 378.42 767.121 378.672 767.121 379.08C767.121 379.656 766.557 379.98 765.729 379.98C764.757 379.98 764.121 379.524 764.025 378.672L762.693 378.912C762.921 380.52 764.421 381.18 765.765 381.18C767.097 381.18 768.513 380.436 768.513 378.936C768.513 377.976 767.949 377.328 766.725 377.064L765.357 376.764C764.661 376.608 764.421 376.272 764.421 375.912C764.421 375.408 764.901 375.096 765.585 375.096C766.413 375.096 767.025 375.396 767.073 376.296L768.405 376.056C768.009 374.508 766.965 373.896 765.573 373.896C764.445 373.896 763.029 374.52 763.029 376.032ZM770.509 372.42L770.509 374.088L769.225 374.088L769.225 375.3L770.509 375.3L770.509 379.056C770.509 380.328 771.145 381.12 772.525 381.12C772.945 381.12 773.437 381.012 773.797 380.904L773.557 379.692C773.281 379.764 773.113 379.8 772.837 379.8C772.225 379.8 772.009 379.524 772.009 378.984L772.009 375.3L773.737 375.3L773.737 374.088L772.009 374.088L772.009 372.18L770.509 372.42ZM777.86 381.18C779.096 381.18 779.852 380.424 780.2 379.572L780.2 381L781.7 381L781.7 374.088L780.2 374.088L780.2 375.444C779.708 374.352 778.952 373.896 777.872 373.896C776.42 373.896 774.824 375.06 774.824 377.472C774.824 380.004 776.432 381.18 777.86 381.18ZM778.28 375.192C779.288 375.192 780.2 375.96 780.2 377.556C780.2 379.2 779.288 379.872 778.268 379.872C777.32 379.872 776.336 379.164 776.336 377.556C776.336 375.924 777.332 375.192 778.28 375.192ZM784.15 372.42L784.15 374.088L782.866 374.088L782.866 375.3L784.15 375.3L784.15 379.056C784.15 380.328 784.786 381.12 786.166 381.12C786.586 381.12 787.078 381.012 787.438 380.904L787.198 379.692C786.922 379.764 786.754 379.8 786.478 379.8C785.866 379.8 785.65 379.524 785.65 378.984L785.65 375.3L787.378 375.3L787.378 374.088L785.65 374.088L785.65 372.18L784.15 372.42ZM794.981 381L794.981 374.088L793.481 374.088L793.481 378.108C793.481 379.284 792.701 379.824 791.693 379.824C790.769 379.824 790.313 379.416 790.313 378.348L790.313 374.088L788.813 374.088L788.813 378.912C788.813 380.508 789.965 381.18 791.117 381.18C791.981 381.18 792.941 380.784 793.481 379.836L793.481 381L794.981 381ZM796.732 376.032C796.732 376.992 797.284 377.7 798.46 377.952L799.72 378.228C800.584 378.42 800.824 378.672 800.824 379.08C800.824 379.656 800.26 379.98 799.432 379.98C798.46 379.98 797.824 379.524 797.728 378.672L796.396 378.912C796.624 380.52 798.124 381.18 799.468 381.18C800.8 381.18 802.216 380.436 802.216 378.936C802.216 377.976 801.652 377.328 800.428 377.064L799.06 376.764C798.364 376.608 798.124 376.272 798.124 375.912C798.124 375.408 798.604 375.096 799.288 375.096C800.116 375.096 800.728 375.396 800.776 376.296L802.108 376.056C801.712 374.508 800.668 373.896 799.276 373.896C798.148 373.896 796.732 374.52 796.732 376.032Z" fill="#FF5B24"/>
<circle cx="924" cy="228" r="10" transform="rotate(-90 924 228)" fill="white" stroke="#FF5B24" stroke-width="4"/>
<path d="M877.208 372L877.208 381L882.764 381L882.764 379.596L878.78 379.596L878.78 372L877.208 372ZM886.909 373.896C885.037 373.896 883.489 375.264 883.489 377.532C883.489 379.8 885.037 381.18 886.909 381.18C888.781 381.18 890.329 379.8 890.329 377.532C890.329 375.264 888.781 373.896 886.909 373.896ZM886.909 375.192C887.941 375.192 888.817 375.948 888.817 377.532C888.817 379.116 887.941 379.884 886.909 379.884C885.877 379.884 885.001 379.116 885.001 377.532C885.001 375.948 885.877 375.192 886.909 375.192ZM894.807 373.896C892.935 373.896 891.387 375.264 891.387 377.532C891.387 379.8 892.935 381.18 894.807 381.18C896.679 381.18 898.227 379.8 898.227 377.532C898.227 375.264 896.679 373.896 894.807 373.896ZM894.807 375.192C895.839 375.192 896.715 375.948 896.715 377.532C896.715 379.116 895.839 379.884 894.807 379.884C893.775 379.884 892.899 379.116 892.899 377.532C892.899 375.948 893.775 375.192 894.807 375.192ZM899.718 381L901.218 381L901.218 379.344L902.49 377.916L904.554 381L906.114 381L903.342 376.944L905.886 374.088L904.254 374.088L901.218 377.664L901.218 371.7L899.718 371.7L899.718 381ZM912.964 381.18C914.2 381.18 914.956 380.424 915.304 379.572L915.304 381L916.804 381L916.804 374.088L915.304 374.088L915.304 375.444C914.812 374.352 914.056 373.896 912.976 373.896C911.524 373.896 909.928 375.06 909.928 377.472C909.928 380.004 911.536 381.18 912.964 381.18ZM913.384 375.192C914.392 375.192 915.304 375.96 915.304 377.556C915.304 379.2 914.392 379.872 913.372 379.872C912.424 379.872 911.44 379.164 911.44 377.556C911.44 375.924 912.436 375.192 913.384 375.192ZM919.254 372.42L919.254 374.088L917.97 374.088L917.97 375.3L919.254 375.3L919.254 379.056C919.254 380.328 919.89 381.12 921.27 381.12C921.69 381.12 922.182 381.012 922.542 380.904L922.302 379.692C922.026 379.764 921.858 379.8 921.582 379.8C920.97 379.8 920.754 379.524 920.754 378.984L920.754 375.3L922.482 375.3L922.482 374.088L920.754 374.088L920.754 372.18L919.254 372.42ZM927.187 374.088L927.187 381L928.687 381L928.687 374.088L927.187 374.088ZM927.931 371.1C927.427 371.1 927.031 371.508 927.031 372C927.031 372.492 927.427 372.9 927.931 372.9C928.435 372.9 928.831 372.492 928.831 372C928.831 371.508 928.435 371.1 927.931 371.1ZM933.812 375.252C934.628 375.252 935.276 375.732 935.276 377.016L935.276 381L936.776 381L936.776 376.368C936.776 374.508 935.6 373.896 934.364 373.896C933.548 373.896 932.6 374.232 932.108 375.108L932.108 374.088L930.608 374.088L930.608 381L932.108 381L932.108 377.052C932.108 375.816 932.816 375.252 933.812 375.252ZM944.756 374.088L943.088 374.088L941.312 379.308L939.524 374.088L937.856 374.088L940.616 381L941.996 381L944.756 374.088ZM948.889 373.896C947.017 373.896 945.469 375.264 945.469 377.532C945.469 379.8 947.017 381.18 948.889 381.18C950.761 381.18 952.309 379.8 952.309 377.532C952.309 375.264 950.761 373.896 948.889 373.896ZM948.889 375.192C949.921 375.192 950.797 375.948 950.797 377.532C950.797 379.116 949.921 379.884 948.889 379.884C947.857 379.884 946.981 379.116 946.981 377.532C946.981 375.948 947.857 375.192 948.889 375.192ZM953.8 374.088L953.8 381L955.3 381L955.3 374.088L953.8 374.088ZM954.544 371.1C954.04 371.1 953.644 371.508 953.644 372C953.644 372.492 954.04 372.9 954.544 372.9C955.048 372.9 955.444 372.492 955.444 372C955.444 371.508 955.048 371.1 954.544 371.1ZM963.606 376.776C963.354 374.916 961.878 373.896 960.27 373.896C958.29 373.896 956.79 375.3 956.79 377.532C956.79 379.668 958.266 381.18 960.378 381.18C961.71 381.18 963.27 380.448 963.594 378.336L962.226 378.096C962.07 379.272 961.422 379.872 960.366 379.872C958.962 379.872 958.302 378.804 958.302 377.532C958.302 375.996 959.142 375.192 960.198 375.192C961.158 375.192 961.962 375.708 962.13 377.016L963.606 376.776ZM968.051 375.192C969.023 375.192 969.791 375.648 969.911 376.8L966.155 376.8C966.359 375.732 967.055 375.192 968.051 375.192ZM971.327 377.868L971.327 377.376C971.327 375.336 969.983 373.896 968.111 373.896C966.107 373.896 964.583 375.3 964.583 377.52C964.583 379.8 966.167 381.18 968.207 381.18C969.479 381.18 971.015 380.448 971.279 378.852L969.887 378.612C969.731 379.404 969.275 379.884 968.147 379.884C966.899 379.884 966.215 379.08 966.107 377.868L971.327 377.868ZM874.402 397.076L874.402 397.544C874.402 400.208 875.614 402.308 876.178 402.92L877.474 402.92C876.994 402.248 875.806 400.292 875.806 397.664L875.806 396.956C875.806 394.328 877.018 392.348 877.474 391.7L876.178 391.7C875.65 392.288 874.402 394.436 874.402 397.076ZM882.134 392L882.134 398.66C882.134 399.356 881.786 399.752 880.946 399.752C880.106 399.752 879.53 399.284 879.53 398.168L878.03 398.648C878.186 400.292 879.518 401.18 880.874 401.18C882.482 401.18 883.706 400.304 883.706 398.54L883.706 392L882.134 392ZM894.606 401L897.474 392L895.746 392L893.91 398.756L892.038 392L890.49 392L888.678 398.9L886.782 392L885.054 392L887.922 401L889.506 401L891.27 394.556L893.142 401L894.606 401ZM898.158 393.404L900.858 393.404L900.858 401L902.43 401L902.43 393.404L905.13 393.404L905.13 392L898.158 392L898.158 393.404ZM905.05 397.712L909.01 397.712L909.01 396.476L905.05 396.476L905.05 397.712ZM916.572 394.088L914.904 394.088L913.128 399.308L911.34 394.088L909.672 394.088L912.432 401L913.812 401L916.572 394.088ZM920.37 401.18C921.606 401.18 922.362 400.424 922.71 399.572L922.71 401L924.21 401L924.21 394.088L922.71 394.088L922.71 395.444C922.218 394.352 921.462 393.896 920.382 393.896C918.93 393.896 917.334 395.06 917.334 397.472C917.334 400.004 918.942 401.18 920.37 401.18ZM920.79 395.192C921.798 395.192 922.71 395.96 922.71 397.556C922.71 399.2 921.798 399.872 920.778 399.872C919.83 399.872 918.846 399.164 918.846 397.556C918.846 395.924 919.842 395.192 920.79 395.192ZM926.132 391.7L926.132 401L927.632 401L927.632 391.7L926.132 391.7ZM929.554 394.088L929.554 401L931.054 401L931.054 394.088L929.554 394.088ZM930.298 391.1C929.794 391.1 929.398 391.508 929.398 392C929.398 392.492 929.794 392.9 930.298 392.9C930.802 392.9 931.198 392.492 931.198 392C931.198 391.508 930.802 391.1 930.298 391.1ZM939.468 391.7L937.968 391.7L937.968 395.444C937.476 394.352 936.732 393.896 935.796 393.896C934.188 393.896 932.592 395.06 932.592 397.472C932.592 400.004 934.2 401.18 935.604 401.18C936.864 401.18 937.62 400.52 937.968 399.692L937.968 401L939.468 401L939.468 391.7ZM936.048 395.192C937.056 395.192 937.968 395.996 937.968 397.556C937.968 399.164 937.056 399.872 936.036 399.872C935.088 399.872 934.104 399.128 934.104 397.556C934.104 395.96 935.1 395.192 936.048 395.192ZM944.426 395.192C945.398 395.192 946.166 395.648 946.286 396.8L942.53 396.8C942.734 395.732 943.43 395.192 944.426 395.192ZM947.702 397.868L947.702 397.376C947.702 395.336 946.358 393.896 944.486 393.896C942.482 393.896 940.958 395.3 940.958 397.52C940.958 399.8 942.542 401.18 944.582 401.18C945.854 401.18 947.39 400.448 947.654 398.852L946.262 398.612C946.106 399.404 945.65 399.884 944.522 399.884C943.274 399.884 942.59 399.08 942.482 397.868L947.702 397.868ZM952.495 395.516C952.867 395.516 953.131 395.564 953.395 395.672L953.539 393.992C953.395 393.92 953.191 393.896 953.011 393.896C952.327 393.896 951.247 394.292 950.683 395.744L950.683 394.088L949.183 394.088L949.183 401L950.683 401L950.683 397.976C950.683 396.056 951.523 395.516 952.495 395.516ZM954.667 394.088L954.667 401L956.167 401L956.167 394.088L954.667 394.088ZM955.411 391.1C954.907 391.1 954.511 391.508 954.511 392C954.511 392.492 954.907 392.9 955.411 392.9C955.915 392.9 956.311 392.492 956.311 392C956.311 391.508 955.915 391.1 955.411 391.1ZM961.293 395.252C962.109 395.252 962.757 395.732 962.757 397.016L962.757 401L964.257 401L964.257 396.368C964.257 394.508 963.081 393.896 961.845 393.896C961.029 393.896 960.081 394.232 959.589 395.108L959.589 394.088L958.089 394.088L958.089 401L959.589 401L959.589 397.052C959.589 395.816 960.297 395.252 961.293 395.252ZM968.66 400.604C969.872 400.604 970.508 399.812 970.88 399.056L970.88 400.088C970.88 401.552 970.268 402.152 968.936 402.152C968.096 402.152 967.292 401.912 967.16 400.916L965.708 401.156C966.056 402.908 967.628 403.496 968.876 403.496C971.084 403.496 972.38 402.344 972.38 400.028L972.38 394.076L970.88 394.076L970.88 395.42C970.352 394.352 969.692 393.896 968.78 393.896C967.22 393.896 965.744 394.952 965.744 397.148C965.744 399.5 967.244 400.604 968.66 400.604ZM969.044 395.192C970.052 395.192 970.88 395.924 970.88 397.244C970.88 398.636 970.052 399.296 969.044 399.296C968.072 399.296 967.256 398.636 967.256 397.232C967.256 395.876 968.108 395.192 969.044 395.192ZM976.828 397.556L976.828 397.088C976.828 394.424 975.616 392.324 975.052 391.712L973.756 391.712C974.236 392.384 975.424 394.34 975.424 396.968L975.424 397.676C975.424 400.304 974.212 402.284 973.756 402.932L975.052 402.932C975.58 402.344 976.828 400.196 976.828 397.556Z" fill="#FF5B24"/>
<path d="M1071.41 512L1069.66 512L1067.44 516.32L1065.23 512L1063.48 512L1066.66 517.736L1066.66 521L1068.23 521L1068.23 517.712L1071.41 512ZM1074.95 513.896C1073.08 513.896 1071.53 515.264 1071.53 517.532C1071.53 519.8 1073.08 521.18 1074.95 521.18C1076.83 521.18 1078.37 519.8 1078.37 517.532C1078.37 515.264 1076.83 513.896 1074.95 513.896ZM1074.95 515.192C1075.99 515.192 1076.86 515.948 1076.86 517.532C1076.86 519.116 1075.99 519.884 1074.95 519.884C1073.92 519.884 1073.05 519.116 1073.05 517.532C1073.05 515.948 1073.92 515.192 1074.95 515.192ZM1086 521L1086 514.088L1084.5 514.088L1084.5 518.108C1084.5 519.284 1083.72 519.824 1082.71 519.824C1081.78 519.824 1081.33 519.416 1081.33 518.348L1081.33 514.088L1079.83 514.088L1079.83 518.912C1079.83 520.508 1080.98 521.18 1082.13 521.18C1083 521.18 1083.96 520.784 1084.5 519.836L1084.5 521L1086 521ZM1091.52 521L1093.02 521L1093.02 515.3L1094.74 515.3L1094.74 514.088L1093.02 514.088L1093.02 513.812C1093.02 513.104 1093.36 512.732 1093.97 512.732C1094.29 512.732 1094.57 512.78 1094.86 512.864L1095.06 511.7C1094.73 511.58 1094.32 511.472 1093.81 511.472C1092.43 511.472 1091.52 512.36 1091.52 513.824L1091.52 514.088L1090.57 514.088L1090.57 515.3L1091.52 515.3L1091.52 521ZM1101.93 521L1101.93 514.088L1100.43 514.088L1100.43 518.108C1100.43 519.284 1099.65 519.824 1098.65 519.824C1097.72 519.824 1097.27 519.416 1097.27 518.348L1097.27 514.088L1095.77 514.088L1095.77 518.912C1095.77 520.508 1096.92 521.18 1098.07 521.18C1098.93 521.18 1099.89 520.784 1100.43 519.836L1100.43 521L1101.93 521ZM1110.21 516.776C1109.96 514.916 1108.49 513.896 1106.88 513.896C1104.9 513.896 1103.4 515.3 1103.4 517.532C1103.4 519.668 1104.87 521.18 1106.99 521.18C1108.32 521.18 1109.88 520.448 1110.2 518.336L1108.83 518.096C1108.68 519.272 1108.03 519.872 1106.97 519.872C1105.57 519.872 1104.91 518.804 1104.91 517.532C1104.91 515.996 1105.75 515.192 1106.81 515.192C1107.77 515.192 1108.57 515.708 1108.74 517.016L1110.21 516.776ZM1111.62 521L1113.12 521L1113.12 519.344L1114.39 517.916L1116.46 521L1118.02 521L1115.25 516.944L1117.79 514.088L1116.16 514.088L1113.12 517.664L1113.12 511.7L1111.62 511.7L1111.62 521ZM1122.02 515.192C1122.99 515.192 1123.76 515.648 1123.88 516.8L1120.12 516.8C1120.33 515.732 1121.02 515.192 1122.02 515.192ZM1125.29 517.868L1125.29 517.376C1125.29 515.336 1123.95 513.896 1122.08 513.896C1120.07 513.896 1118.55 515.3 1118.55 517.52C1118.55 519.8 1120.13 521.18 1122.17 521.18C1123.45 521.18 1124.98 520.448 1125.25 518.852L1123.85 518.612C1123.7 519.404 1123.24 519.884 1122.11 519.884C1120.87 519.884 1120.18 519.08 1120.07 517.868L1125.29 517.868ZM1133.27 511.7L1131.77 511.7L1131.77 515.444C1131.27 514.352 1130.53 513.896 1129.59 513.896C1127.99 513.896 1126.39 515.06 1126.39 517.472C1126.39 520.004 1128 521.18 1129.4 521.18C1130.66 521.18 1131.42 520.52 1131.77 519.692L1131.77 521L1133.27 521L1133.27 511.7ZM1129.85 515.192C1130.85 515.192 1131.77 515.996 1131.77 517.556C1131.77 519.164 1130.85 519.872 1129.83 519.872C1128.89 519.872 1127.9 519.128 1127.9 517.556C1127.9 515.96 1128.9 515.192 1129.85 515.192ZM1144.55 521L1144.55 514.088L1143.05 514.088L1143.05 518.108C1143.05 519.284 1142.27 519.824 1141.27 519.824C1140.34 519.824 1139.89 519.416 1139.89 518.348L1139.89 514.088L1138.39 514.088L1138.39 518.912C1138.39 520.508 1139.54 521.18 1140.69 521.18C1141.55 521.18 1142.51 520.784 1143.05 519.836L1143.05 521L1144.55 521ZM1150.29 513.896C1149.11 513.896 1148.39 514.64 1147.95 515.444L1147.95 514.088L1146.45 514.088L1146.45 523.4L1147.95 523.4L1147.95 519.692C1148.53 520.676 1149.27 521.18 1150.15 521.18C1151.75 521.18 1153.33 519.956 1153.33 517.436C1153.33 515.024 1151.69 513.896 1150.29 513.896ZM1149.88 515.192C1150.83 515.192 1151.81 515.948 1151.81 517.52C1151.81 519.116 1150.83 519.872 1149.87 519.872C1148.86 519.872 1147.95 519.056 1147.95 517.52C1147.95 515.912 1148.86 515.192 1149.88 515.192ZM1159.26 514.208C1159.26 512.444 1157.79 511.82 1156.63 511.82C1155.32 511.82 1154.11 512.444 1153.89 514.304L1155.22 514.604C1155.22 513.536 1155.85 513.164 1156.52 513.164C1157.13 513.164 1157.82 513.452 1157.82 514.34C1157.82 515.972 1155.68 515.876 1155.68 517.88L1155.68 518.42L1157.07 518.42L1157.07 517.916C1157.07 516.5 1159.26 516.62 1159.26 514.208ZM1156.4 519.188C1155.85 519.188 1155.4 519.632 1155.4 520.184C1155.4 520.736 1155.85 521.18 1156.4 521.18C1156.95 521.18 1157.4 520.736 1157.4 520.184C1157.4 519.632 1156.95 519.188 1156.4 519.188ZM1079.47 537.28L1079.8 535.42L1081.7 535.42L1081.38 537.28L1079.47 537.28ZM1079.23 531.7L1078.78 534.34L1077.07 534.34L1077.07 535.42L1078.6 535.42L1078.27 537.28L1076.56 537.28L1076.56 538.36L1078.09 538.36L1077.64 541L1078.84 541L1079.29 538.36L1081.2 538.36L1080.74 541L1081.94 541L1082.4 538.36L1084.1 538.36L1084.1 537.28L1082.58 537.28L1082.9 535.42L1084.62 535.42L1084.62 534.34L1083.08 534.34L1083.54 531.7L1082.34 531.7L1081.88 534.34L1079.98 534.34L1080.43 531.7L1079.23 531.7ZM1089.07 535.252C1089.88 535.252 1090.53 535.732 1090.53 537.016L1090.53 541L1092.03 541L1092.03 536.368C1092.03 534.508 1090.86 533.896 1089.62 533.896C1088.8 533.896 1087.86 534.232 1087.36 535.108L1087.36 534.088L1085.86 534.088L1085.86 541L1087.36 541L1087.36 537.052C1087.36 535.816 1088.07 535.252 1089.07 535.252ZM1100.02 541L1100.02 534.088L1098.52 534.088L1098.52 538.108C1098.52 539.284 1097.74 539.824 1096.74 539.824C1095.81 539.824 1095.36 539.416 1095.36 538.348L1095.36 534.088L1093.86 534.088L1093.86 538.912C1093.86 540.508 1095.01 541.18 1096.16 541.18C1097.02 541.18 1097.98 540.784 1098.52 539.836L1098.52 541L1100.02 541ZM1101.92 531.7L1101.92 541L1103.42 541L1103.42 531.7L1101.92 531.7ZM1105.34 531.7L1105.34 541L1106.84 541L1106.84 531.7L1105.34 531.7ZM1108.62 536.032C1108.62 536.992 1109.17 537.7 1110.35 537.952L1111.61 538.228C1112.47 538.42 1112.71 538.672 1112.71 539.08C1112.71 539.656 1112.15 539.98 1111.32 539.98C1110.35 539.98 1109.71 539.524 1109.61 538.672L1108.28 538.912C1108.51 540.52 1110.01 541.18 1111.35 541.18C1112.69 541.18 1114.1 540.436 1114.1 538.936C1114.1 537.976 1113.54 537.328 1112.31 537.064L1110.95 536.764C1110.25 536.608 1110.01 536.272 1110.01 535.912C1110.01 535.408 1110.49 535.096 1111.17 535.096C1112 535.096 1112.61 535.396 1112.66 536.296L1113.99 536.056C1113.6 534.508 1112.55 533.896 1111.16 533.896C1110.03 533.896 1108.62 534.52 1108.62 536.032ZM1116.1 532.42L1116.1 534.088L1114.82 534.088L1114.82 535.3L1116.1 535.3L1116.1 539.056C1116.1 540.328 1116.74 541.12 1118.12 541.12C1118.54 541.12 1119.03 541.012 1119.39 540.904L1119.15 539.692C1118.87 539.764 1118.7 539.8 1118.43 539.8C1117.82 539.8 1117.6 539.524 1117.6 538.984L1117.6 535.3L1119.33 535.3L1119.33 534.088L1117.6 534.088L1117.6 532.18L1116.1 532.42ZM1124.11 535.516C1124.48 535.516 1124.75 535.564 1125.01 535.672L1125.15 533.992C1125.01 533.92 1124.81 533.896 1124.63 533.896C1123.94 533.896 1122.86 534.292 1122.3 535.744L1122.3 534.088L1120.8 534.088L1120.8 541L1122.3 541L1122.3 537.976C1122.3 536.056 1123.14 535.516 1124.11 535.516ZM1129.32 535.192C1130.29 535.192 1131.06 535.648 1131.18 536.8L1127.42 536.8C1127.63 535.732 1128.32 535.192 1129.32 535.192ZM1132.59 537.868L1132.59 537.376C1132.59 535.336 1131.25 533.896 1129.38 533.896C1127.37 533.896 1125.85 535.3 1125.85 537.52C1125.85 539.8 1127.43 541.18 1129.47 541.18C1130.75 541.18 1132.28 540.448 1132.55 538.852L1131.15 538.612C1131 539.404 1130.54 539.884 1129.41 539.884C1128.17 539.884 1127.48 539.08 1127.37 537.868L1132.59 537.868ZM1133.93 536.032C1133.93 536.992 1134.48 537.7 1135.66 537.952L1136.92 538.228C1137.78 538.42 1138.02 538.672 1138.02 539.08C1138.02 539.656 1137.46 539.98 1136.63 539.98C1135.66 539.98 1135.02 539.524 1134.93 538.672L1133.6 538.912C1133.82 540.52 1135.32 541.18 1136.67 541.18C1138 541.18 1139.42 540.436 1139.42 538.936C1139.42 537.976 1138.85 537.328 1137.63 537.064L1136.26 536.764C1135.56 536.608 1135.32 536.272 1135.32 535.912C1135.32 535.408 1135.8 535.096 1136.49 535.096C1137.32 535.096 1137.93 535.396 1137.98 536.296L1139.31 536.056C1138.91 534.508 1137.87 533.896 1136.48 533.896C1135.35 533.896 1133.93 534.52 1133.93 536.032ZM1140.74 536.032C1140.74 536.992 1141.29 537.7 1142.47 537.952L1143.73 538.228C1144.59 538.42 1144.83 538.672 1144.83 539.08C1144.83 539.656 1144.27 539.98 1143.44 539.98C1142.47 539.98 1141.83 539.524 1141.74 538.672L1140.4 538.912C1140.63 540.52 1142.13 541.18 1143.48 541.18C1144.81 541.18 1146.22 540.436 1146.22 538.936C1146.22 537.976 1145.66 537.328 1144.44 537.064L1143.07 536.764C1142.37 536.608 1142.13 536.272 1142.13 535.912C1142.13 535.408 1142.61 535.096 1143.3 535.096C1144.12 535.096 1144.74 535.396 1144.78 536.296L1146.12 536.056C1145.72 534.508 1144.68 533.896 1143.28 533.896C1142.16 533.896 1140.74 534.52 1140.74 536.032ZM1049.37 552L1049.37 561L1050.95 561L1050.95 557.568L1052.09 557.568C1053.06 557.568 1053.62 557.952 1053.77 558.78L1054.01 560.172C1054.08 560.616 1054.28 560.856 1054.52 561L1056.42 561C1056.08 560.796 1055.82 560.436 1055.71 560.016L1055.34 558.564C1055.12 557.712 1054.71 557.316 1054.13 557.076C1054.95 556.596 1055.59 555.768 1055.59 554.724C1055.59 553.044 1054.46 552 1052.49 552L1049.37 552ZM1052.46 553.404C1053.3 553.404 1053.91 553.896 1053.91 554.796C1053.91 555.588 1053.36 556.164 1052.47 556.164L1050.95 556.164L1050.95 553.404L1052.46 553.404ZM1060.2 555.192C1061.17 555.192 1061.94 555.648 1062.06 556.8L1058.31 556.8C1058.51 555.732 1059.21 555.192 1060.2 555.192ZM1063.48 557.868L1063.48 557.376C1063.48 555.336 1062.13 553.896 1060.26 553.896C1058.26 553.896 1056.73 555.3 1056.73 557.52C1056.73 559.8 1058.32 561.18 1060.36 561.18C1061.63 561.18 1063.17 560.448 1063.43 558.852L1062.04 558.612C1061.88 559.404 1061.43 559.884 1060.3 559.884C1059.05 559.884 1058.37 559.08 1058.26 557.868L1063.48 557.868ZM1071.08 554.088L1069.41 554.088L1067.63 559.308L1065.85 554.088L1064.18 554.088L1066.94 561L1068.32 561L1071.08 554.088ZM1075.21 553.896C1073.34 553.896 1071.79 555.264 1071.79 557.532C1071.79 559.8 1073.34 561.18 1075.21 561.18C1077.08 561.18 1078.63 559.8 1078.63 557.532C1078.63 555.264 1077.08 553.896 1075.21 553.896ZM1075.21 555.192C1076.24 555.192 1077.12 555.948 1077.12 557.532C1077.12 559.116 1076.24 559.884 1075.21 559.884C1074.18 559.884 1073.3 559.116 1073.3 557.532C1073.3 555.948 1074.18 555.192 1075.21 555.192ZM1080.12 561L1081.62 561L1081.62 559.344L1082.89 557.916L1084.96 561L1086.52 561L1083.75 556.944L1086.29 554.088L1084.66 554.088L1081.62 557.664L1081.62 551.7L1080.12 551.7L1080.12 561ZM1087.48 554.088L1087.48 561L1088.98 561L1088.98 554.088L1087.48 554.088ZM1088.23 551.1C1087.72 551.1 1087.33 551.508 1087.33 552C1087.33 552.492 1087.72 552.9 1088.23 552.9C1088.73 552.9 1089.13 552.492 1089.13 552C1089.13 551.508 1088.73 551.1 1088.23 551.1ZM1094.11 555.252C1094.92 555.252 1095.57 555.732 1095.57 557.016L1095.57 561L1097.07 561L1097.07 556.368C1097.07 554.508 1095.9 553.896 1094.66 553.896C1093.84 553.896 1092.9 554.232 1092.4 555.108L1092.4 554.088L1090.9 554.088L1090.9 561L1092.4 561L1092.4 557.052C1092.4 555.816 1093.11 555.252 1094.11 555.252ZM1101.47 560.604C1102.69 560.604 1103.32 559.812 1103.69 559.056L1103.69 560.088C1103.69 561.552 1103.08 562.152 1101.75 562.152C1100.91 562.152 1100.11 561.912 1099.97 560.916L1098.52 561.156C1098.87 562.908 1100.44 563.496 1101.69 563.496C1103.9 563.496 1105.19 562.344 1105.19 560.028L1105.19 554.076L1103.69 554.076L1103.69 555.42C1103.17 554.352 1102.51 553.896 1101.59 553.896C1100.03 553.896 1098.56 554.952 1098.56 557.148C1098.56 559.5 1100.06 560.604 1101.47 560.604ZM1101.86 555.192C1102.87 555.192 1103.69 555.924 1103.69 557.244C1103.69 558.636 1102.87 559.296 1101.86 559.296C1100.89 559.296 1100.07 558.636 1100.07 557.232C1100.07 555.876 1100.92 555.192 1101.86 555.192ZM1113 561.18C1114.23 561.18 1114.99 560.424 1115.34 559.572L1115.34 561L1116.84 561L1116.84 554.088L1115.34 554.088L1115.34 555.444C1114.84 554.352 1114.09 553.896 1113.01 553.896C1111.56 553.896 1109.96 555.06 1109.96 557.472C1109.96 560.004 1111.57 561.18 1113 561.18ZM1113.42 555.192C1114.42 555.192 1115.34 555.96 1115.34 557.556C1115.34 559.2 1114.42 559.872 1113.4 559.872C1112.46 559.872 1111.47 559.164 1111.47 557.556C1111.47 555.924 1112.47 555.192 1113.42 555.192ZM1121.96 555.252C1122.78 555.252 1123.43 555.732 1123.43 557.016L1123.43 561L1124.93 561L1124.93 556.368C1124.93 554.508 1123.75 553.896 1122.51 553.896C1121.7 553.896 1120.75 554.232 1120.26 555.108L1120.26 554.088L1118.76 554.088L1118.76 561L1120.26 561L1120.26 557.052C1120.26 555.816 1120.97 555.252 1121.96 555.252ZM1130.02 554.088L1130.02 561L1131.52 561L1131.52 554.088L1130.02 554.088ZM1130.76 551.1C1130.26 551.1 1129.86 551.508 1129.86 552C1129.86 552.492 1130.26 552.9 1130.76 552.9C1131.27 552.9 1131.66 552.492 1131.66 552C1131.66 551.508 1131.27 551.1 1130.76 551.1ZM1136.65 555.252C1137.46 555.252 1138.11 555.732 1138.11 557.016L1138.11 561L1139.61 561L1139.61 556.368C1139.61 554.508 1138.43 553.896 1137.2 553.896C1136.38 553.896 1135.43 554.232 1134.94 555.108L1134.94 554.088L1133.44 554.088L1133.44 561L1134.94 561L1134.94 557.052C1134.94 555.816 1135.65 555.252 1136.65 555.252ZM1147.59 554.088L1145.92 554.088L1144.15 559.308L1142.36 554.088L1140.69 554.088L1143.45 561L1144.83 561L1147.59 554.088ZM1151.72 553.896C1149.85 553.896 1148.3 555.264 1148.3 557.532C1148.3 559.8 1149.85 561.18 1151.72 561.18C1153.6 561.18 1155.14 559.8 1155.14 557.532C1155.14 555.264 1153.6 553.896 1151.72 553.896ZM1151.72 555.192C1152.76 555.192 1153.63 555.948 1153.63 557.532C1153.63 559.116 1152.76 559.884 1151.72 559.884C1150.69 559.884 1149.82 559.116 1149.82 557.532C1149.82 555.948 1150.69 555.192 1151.72 555.192ZM1156.63 554.088L1156.63 561L1158.13 561L1158.13 554.088L1156.63 554.088ZM1157.38 551.1C1156.87 551.1 1156.48 551.508 1156.48 552C1156.48 552.492 1156.87 552.9 1157.38 552.9C1157.88 552.9 1158.28 552.492 1158.28 552C1158.28 551.508 1157.88 551.1 1157.38 551.1ZM1166.44 556.776C1166.19 554.916 1164.71 553.896 1163.1 553.896C1161.12 553.896 1159.62 555.3 1159.62 557.532C1159.62 559.668 1161.1 561.18 1163.21 561.18C1164.54 561.18 1166.1 560.448 1166.43 558.336L1165.06 558.096C1164.9 559.272 1164.26 559.872 1163.2 559.872C1161.8 559.872 1161.14 558.804 1161.14 557.532C1161.14 555.996 1161.98 555.192 1163.03 555.192C1163.99 555.192 1164.8 555.708 1164.96 557.016L1166.44 556.776ZM1170.88 555.192C1171.86 555.192 1172.62 555.648 1172.74 556.8L1168.99 556.8C1169.19 555.732 1169.89 555.192 1170.88 555.192ZM1174.16 557.868L1174.16 557.376C1174.16 555.336 1172.82 553.896 1170.94 553.896C1168.94 553.896 1167.42 555.3 1167.42 557.52C1167.42 559.8 1169 561.18 1171.04 561.18C1172.31 561.18 1173.85 560.448 1174.11 558.852L1172.72 558.612C1172.56 559.404 1172.11 559.884 1170.98 559.884C1169.73 559.884 1169.05 559.08 1168.94 557.868L1174.16 557.868Z" fill="#49367E"/>
<path d="M112.264 74.648C112.264 88.52 132.184 83.96 132.184 91.592C132.184 94.328 130.072 96.152 125.992 96.152C122.104 96.152 117.64 94.856 117.016 88.712L110.824 90.152C111.784 97.88 118.6 101.72 125.8 101.72C132.184 101.72 138.472 98.072 138.472 91.208C138.472 77.768 118.648 82.664 118.648 74.408C118.648 71.576 120.808 69.848 124.504 69.848C127.72 69.848 131.32 71.288 131.608 76.28L137.944 74.84C136.888 67.4 130.456 64.28 124.792 64.28C118.504 64.28 112.264 67.736 112.264 74.648ZM146.499 66.68V73.352H141.363V78.2H146.499V93.224C146.499 98.312 149.043 101.48 154.563 101.48C156.243 101.48 158.211 101.048 159.651 100.616L158.691 95.768C157.587 96.056 156.915 96.2 155.811 96.2C153.363 96.2 152.499 95.096 152.499 92.936V78.2H159.411V73.352H152.499V65.72L146.499 66.68ZM177.437 77.768C181.325 77.768 184.397 79.592 184.877 84.2H169.853C170.669 79.928 173.453 77.768 177.437 77.768ZM190.541 88.472V86.504C190.541 78.344 185.165 72.584 177.677 72.584C169.661 72.584 163.565 78.2 163.565 87.08C163.565 96.2 169.901 101.72 178.061 101.72C183.149 101.72 189.293 98.792 190.349 92.408L184.781 91.448C184.157 94.616 182.333 96.536 177.821 96.536C172.829 96.536 170.093 93.32 169.661 88.472H190.541ZM211.825 72.584C207.121 72.584 204.241 75.56 202.465 78.776V73.352H196.465V110.6H202.465V95.768C204.769 99.704 207.745 101.72 211.249 101.72C217.681 101.72 223.969 96.824 223.969 86.744C223.969 77.096 217.441 72.584 211.825 72.584ZM210.193 77.768C213.985 77.768 217.921 80.792 217.921 87.08C217.921 93.464 213.985 96.488 210.145 96.488C206.113 96.488 202.465 93.224 202.465 87.08C202.465 80.648 206.113 77.768 210.193 77.768ZM229.545 81.128C229.545 84.968 231.753 87.8 236.457 88.808L241.497 89.912C244.953 90.68 245.913 91.688 245.913 93.32C245.913 95.624 243.657 96.92 240.345 96.92C236.457 96.92 233.913 95.096 233.529 91.688L228.201 92.648C229.113 99.08 235.113 101.72 240.489 101.72C245.817 101.72 251.481 98.744 251.481 92.744C251.481 88.904 249.225 86.312 244.329 85.256L238.857 84.056C236.073 83.432 235.113 82.088 235.113 80.648C235.113 78.632 237.033 77.384 239.769 77.384C243.081 77.384 245.529 78.584 245.721 82.184L251.049 81.224C249.465 75.032 245.289 72.584 239.721 72.584C235.209 72.584 229.545 75.08 229.545 81.128ZM272.405 66.68V73.352H267.269V78.2H272.405V93.224C272.405 98.312 274.949 101.48 280.469 101.48C282.149 101.48 284.117 101.048 285.557 100.616L284.597 95.768C283.493 96.056 282.821 96.2 281.717 96.2C279.269 96.2 278.405 95.096 278.405 92.936V78.2H285.317V73.352H278.405V65.72L272.405 66.68ZM303.151 72.584C295.663 72.584 289.471 78.056 289.471 87.128C289.471 96.2 295.663 101.72 303.151 101.72C310.639 101.72 316.831 96.2 316.831 87.128C316.831 78.056 310.639 72.584 303.151 72.584ZM303.151 77.768C307.279 77.768 310.783 80.792 310.783 87.128C310.783 93.464 307.279 96.536 303.151 96.536C299.023 96.536 295.519 93.464 295.519 87.128C295.519 80.792 299.023 77.768 303.151 77.768ZM335.731 73.352V101H341.731V73.352H335.731ZM338.707 61.4C336.691 61.4 335.107 63.032 335.107 65C335.107 66.968 336.691 68.6 338.707 68.6C340.723 68.6 342.307 66.968 342.307 65C342.307 63.032 340.723 61.4 338.707 61.4ZM379.994 78.008C383.402 78.008 385.994 79.928 385.994 85.064V101H391.994V82.472C391.994 75.032 387.434 72.584 382.394 72.584C379.322 72.584 375.434 73.832 373.37 77.96C371.882 74.024 368.378 72.584 364.682 72.584C361.37 72.584 357.386 73.88 355.418 77.432V73.352H349.418V101H355.418V85.208C355.418 80.264 358.25 78.008 362.09 78.008C365.498 78.008 368.09 79.928 368.09 85.064V101H374.09V85.208C374.09 80.264 376.586 78.008 379.994 78.008ZM414.794 72.584C410.09 72.584 407.21 75.56 405.434 78.776V73.352H399.434V110.6H405.434V95.768C407.738 99.704 410.714 101.72 414.218 101.72C420.65 101.72 426.938 96.824 426.938 86.744C426.938 77.096 420.41 72.584 414.794 72.584ZM413.162 77.768C416.954 77.768 420.89 80.792 420.89 87.08C420.89 93.464 416.954 96.488 413.114 96.488C409.082 96.488 405.434 93.224 405.434 87.08C405.434 80.648 409.082 77.768 413.162 77.768ZM433.09 63.8V101H439.09V63.8H433.09ZM458.922 77.768C462.81 77.768 465.882 79.592 466.362 84.2H451.338C452.154 79.928 454.938 77.768 458.922 77.768ZM472.026 88.472V86.504C472.026 78.344 466.65 72.584 459.162 72.584C451.146 72.584 445.05 78.2 445.05 87.08C445.05 96.2 451.386 101.72 459.546 101.72C464.634 101.72 470.778 98.792 471.834 92.408L466.266 91.448C465.642 94.616 463.818 96.536 459.306 96.536C454.314 96.536 451.578 93.32 451.146 88.472H472.026ZM508.525 78.008C511.933 78.008 514.525 79.928 514.525 85.064V101H520.525V82.472C520.525 75.032 515.965 72.584 510.925 72.584C507.853 72.584 503.965 73.832 501.901 77.96C500.413 74.024 496.909 72.584 493.213 72.584C489.901 72.584 485.917 73.88 483.949 77.432V73.352H477.949V101H483.949V85.208C483.949 80.264 486.781 78.008 490.621 78.008C494.029 78.008 496.621 79.928 496.621 85.064V101H502.621V85.208C502.621 80.264 505.117 78.008 508.525 78.008ZM540.109 77.768C543.997 77.768 547.069 79.592 547.549 84.2H532.525C533.341 79.928 536.125 77.768 540.109 77.768ZM553.213 88.472V86.504C553.213 78.344 547.837 72.584 540.349 72.584C532.333 72.584 526.237 78.2 526.237 87.08C526.237 96.2 532.573 101.72 540.733 101.72C545.821 101.72 551.965 98.792 553.021 92.408L547.453 91.448C546.829 94.616 545.005 96.536 540.493 96.536C535.501 96.536 532.765 93.32 532.333 88.472H553.213ZM571.953 78.008C575.217 78.008 577.809 79.928 577.809 85.064V101H583.809V82.472C583.809 75.032 579.105 72.584 574.161 72.584C570.897 72.584 567.105 73.928 565.137 77.432V73.352H559.137V101H565.137V85.208C565.137 80.264 567.969 78.008 571.953 78.008ZM593.358 66.68V73.352H588.222V78.2H593.358V93.224C593.358 98.312 595.902 101.48 601.422 101.48C603.102 101.48 605.07 101.048 606.51 100.616L605.55 95.768C604.446 96.056 603.774 96.2 602.67 96.2C600.222 96.2 599.358 95.096 599.358 92.936V78.2H606.27V73.352H599.358V65.72L593.358 66.68ZM626.674 101H632.674V78.2H639.538V73.352H632.674V72.248C632.674 69.416 634.018 67.928 636.466 67.928C637.762 67.928 638.866 68.12 640.018 68.456L640.834 63.8C639.49 63.32 637.858 62.888 635.842 62.888C630.322 62.888 626.674 66.44 626.674 72.296V73.352H622.882V78.2H626.674V101ZM655.745 72.584C648.257 72.584 642.065 78.056 642.065 87.128C642.065 96.2 648.257 101.72 655.745 101.72C663.233 101.72 669.425 96.2 669.425 87.128C669.425 78.056 663.233 72.584 655.745 72.584ZM655.745 77.768C659.873 77.768 663.377 80.792 663.377 87.128C663.377 93.464 659.873 96.536 655.745 96.536C651.617 96.536 648.113 93.464 648.113 87.128C648.113 80.792 651.617 77.768 655.745 77.768ZM688.635 79.064C690.123 79.064 691.179 79.256 692.235 79.688L692.811 72.968C692.235 72.68 691.419 72.584 690.699 72.584C687.963 72.584 683.643 74.168 681.387 79.976V73.352H675.387V101H681.387V88.904C681.387 81.224 684.747 79.064 688.635 79.064ZM710.262 73.352V101H716.262V73.352H710.262ZM713.238 61.4C711.222 61.4 709.638 63.032 709.638 65C709.638 66.968 711.222 68.6 713.238 68.6C715.254 68.6 716.838 66.968 716.838 65C716.838 63.032 715.254 61.4 713.238 61.4ZM736.765 78.008C740.029 78.008 742.621 79.928 742.621 85.064V101H748.621V82.472C748.621 75.032 743.917 72.584 738.973 72.584C735.709 72.584 731.917 73.928 729.949 77.432V73.352H723.949V101H729.949V85.208C729.949 80.264 732.781 78.008 736.765 78.008ZM780.539 73.352H773.867L766.763 94.232L759.611 73.352H752.939L763.979 101H769.499L780.539 73.352ZM797.073 72.584C789.585 72.584 783.393 78.056 783.393 87.128C783.393 96.2 789.585 101.72 797.073 101.72C804.561 101.72 810.753 96.2 810.753 87.128C810.753 78.056 804.561 72.584 797.073 72.584ZM797.073 77.768C801.201 77.768 804.705 80.792 804.705 87.128C804.705 93.464 801.201 96.536 797.073 96.536C792.945 96.536 789.441 93.464 789.441 87.128C789.441 80.792 792.945 77.768 797.073 77.768ZM816.715 73.352V101H822.715V73.352H816.715ZM819.691 61.4C817.675 61.4 816.091 63.032 816.091 65C816.091 66.968 817.675 68.6 819.691 68.6C821.707 68.6 823.291 66.968 823.291 65C823.291 63.032 821.707 61.4 819.691 61.4ZM855.939 84.104C854.931 76.664 849.027 72.584 842.595 72.584C834.675 72.584 828.675 78.2 828.675 87.128C828.675 95.672 834.579 101.72 843.027 101.72C848.355 101.72 854.595 98.792 855.891 90.344L850.419 89.384C849.795 94.088 847.203 96.488 842.979 96.488C837.363 96.488 834.723 92.216 834.723 87.128C834.723 80.984 838.083 77.768 842.307 77.768C846.147 77.768 849.363 79.832 850.035 85.064L855.939 84.104ZM873.718 77.768C877.606 77.768 880.678 79.592 881.158 84.2H866.134C866.95 79.928 869.734 77.768 873.718 77.768ZM886.822 88.472V86.504C886.822 78.344 881.446 72.584 873.958 72.584C865.942 72.584 859.846 78.2 859.846 87.08C859.846 96.2 866.182 101.72 874.342 101.72C879.43 101.72 885.574 98.792 886.63 92.408L881.062 91.448C880.438 94.616 878.614 96.536 874.102 96.536C869.11 96.536 866.374 93.32 865.942 88.472H886.822Z" fill="#FF5B24"/>
<g clip-path="url(#clip0)">
<path d="M650.954 226.087C650.954 255.494 627.115 279.333 597.707 279.333C568.3 279.333 544.46 255.494 544.46 226.087C544.46 196.679 568.3 172.84 597.707 172.84C627.115 172.84 650.954 196.679 650.954 226.087Z" fill="#EEEDF3"/>
<path d="M623.21 253.936H598.214C595.034 253.936 592.457 251.358 592.457 248.179V195.679C592.457 192.499 595.034 189.922 598.214 189.922H623.21C626.389 189.922 628.967 192.499 628.967 195.679V248.179C628.967 251.358 626.389 253.936 623.21 253.936Z" fill="#FF5B23"/>
<path d="M628.967 245.517H592.457V198.397H628.967V245.517Z" fill="#FF975E"/>
<path d="M609.185 229.266L551.053 255.437L562.455 279.274L588.747 256.029C588.886 255.9 609.358 229.187 609.185 229.266Z" fill="#48367D"/>
<path d="M610.125 228.537L566.238 261.385L591.125 269.952C592.313 270.362 593.63 269.957 594.385 268.952L610.597 229.194C611.023 228.662 610.394 228.361 610.125 228.537Z" fill="#C8C5D6"/>
<path d="M566.237 261.385L562.455 279.274L580.878 266.426L566.237 261.385Z" fill="white"/>
<path d="M610.196 228.508L534.204 247.203C532.837 247.605 532.81 249.532 534.166 249.971L551.054 255.435L610.429 228.863C610.573 228.798 610.618 228.43 610.196 228.508Z" fill="#C8C5D6"/>
</g>
<path d="M1345.95 225.14C1345.95 254.548 1322.11 278.387 1292.71 278.387C1263.3 278.387 1239.46 254.548 1239.46 225.14C1239.46 195.733 1263.3 171.894 1292.71 171.894C1322.11 171.894 1345.95 195.733 1345.95 225.14Z" fill="#EEEDF3"/>
<path fill-rule="evenodd" clip-rule="evenodd" d="M1298.82 278.04C1298.81 258.651 1298.82 237.269 1298.91 232.409C1299.24 212.976 1318.4 217.116 1318.4 217.116L1341.64 232.409L1341.63 246.186C1334.24 263.34 1318.1 275.835 1298.82 278.04Z" fill="#FFD3BB"/>
<path d="M1334.73 238.012L1301.02 244.615C1297.77 245.25 1294.63 243.134 1293.99 239.89L1280.68 171.932C1280.04 168.687 1282.16 165.541 1285.4 164.905L1319.11 158.303C1322.36 157.667 1325.51 159.782 1326.14 163.028L1339.45 230.985C1340.09 234.23 1337.97 237.376 1334.73 238.012Z" fill="#FF5A23"/>
<path d="M1338.66 226.514L1293.2 235.418L1281.71 176.746L1327.17 167.841L1338.66 226.514Z" fill="#FF985F"/>
<path d="M1299.42 212.848L1294.84 189.444C1294.8 189.276 1294.83 189.104 1294.91 188.966L1298.79 181.893C1298.87 181.755 1298.99 181.662 1299.13 181.635L1315.89 178.352C1316.73 178.189 1317.57 178.868 1317.76 179.868L1323.3 208.17C1323.5 209.171 1322.98 210.115 1322.15 210.279L1301.28 214.364C1300.45 214.528 1299.61 213.849 1299.42 212.848Z" fill="#EEEDF3"/>
<path d="M1295.01 187.784L1297.94 182.463C1298.16 182.057 1298.51 181.783 1298.91 181.678L1299.94 186.919C1300.07 187.586 1299.72 188.215 1299.17 188.324L1294.79 189.182C1294.71 188.688 1294.79 188.189 1295.01 187.784Z" fill="#C8C5D6"/>
<path d="M1293.26 215.444L1281.2 216.381C1277.96 216.634 1275.13 214.212 1274.87 210.973C1274.62 207.733 1277.05 204.904 1280.28 204.652L1292.34 203.714C1295.58 203.461 1298.41 205.883 1298.66 209.122C1298.92 212.362 1296.5 215.191 1293.26 215.444Z" fill="#FFD3BB"/>
<path d="M1294.26 226.465L1282.2 227.402C1278.96 227.655 1276.13 225.233 1275.88 221.994C1275.63 218.754 1278.05 215.925 1281.29 215.673L1293.35 214.735C1296.59 214.482 1299.42 216.904 1299.67 220.143C1299.92 223.382 1297.5 226.212 1294.26 226.465Z" fill="#FFD3BB"/>
<path d="M1296.29 237.265L1284.23 238.204C1280.99 238.455 1278.16 236.034 1277.91 232.795C1277.65 229.556 1280.08 226.726 1283.31 226.474L1295.38 225.536C1298.61 225.283 1301.44 227.705 1301.7 230.944C1301.95 234.183 1299.53 237.014 1296.29 237.265Z" fill="#FFD3BB"/>
<path fill-rule="evenodd" clip-rule="evenodd" d="M1338.92 251.613C1338.15 251.913 1337.32 252.202 1336.42 252.467C1330 254.367 1320.41 246.045 1320.41 246.045C1320.41 246.045 1320.68 242.608 1321.13 238.9C1321.59 235.192 1323.94 231.845 1325.11 230.76C1320.41 229.765 1317.06 228.137 1314.62 224.881C1312.09 221.502 1310.28 218.549 1309.83 213.304C1309.38 208.058 1311.28 206.158 1313.54 205.073C1315.8 203.987 1317.79 204.53 1319.96 205.616C1321.65 206.46 1322.65 209.693 1322.85 212.037C1323.12 215.112 1323.82 215.864 1325.2 217.193C1326.27 218.216 1328.55 218.188 1330.09 218.007C1331.63 217.826 1333.02 217.907 1335.7 218.549C1337.96 219.092 1340.22 220.63 1342.12 223.162C1344.19 225.92 1344.88 229.265 1345.33 233.327C1344.32 239.896 1342.1 246.068 1338.92 251.613Z" fill="#FFD3BB"/>
<path d="M1303.8 200.532L1309.17 203.043L1315.09 190.219" stroke="#48367D" stroke-width="0.8" stroke-linecap="round" stroke-linejoin="round"/>
<path d="M967.954 225.14C967.954 254.548 944.115 278.387 914.708 278.387C885.3 278.387 861.461 254.548 861.461 225.14C861.461 195.733 885.3 171.894 914.708 171.894C944.115 171.894 967.954 195.733 967.954 225.14Z" fill="#EEEDF3"/>
<path d="M945.199 261.876L911.489 268.479C908.244 269.114 905.097 266.998 904.462 263.754L891.151 195.796C890.515 192.551 892.631 189.405 895.876 188.769L929.586 182.167C932.832 181.531 935.978 183.646 936.613 186.892L949.924 254.849C950.559 258.094 948.444 261.24 945.199 261.876Z" fill="#FF5A23"/>
<path d="M949.132 250.378L903.669 259.282L892.177 200.61L937.639 191.705L949.132 250.378Z" fill="#FF985F"/>
<path d="M909.887 236.712L905.309 213.308C905.276 213.14 905.3 212.968 905.376 212.83L909.266 205.757C909.342 205.619 909.463 205.526 909.604 205.499L926.365 202.217C927.201 202.053 928.038 202.732 928.234 203.732L933.776 232.034C933.972 233.035 933.454 233.979 932.617 234.143L911.756 238.228C910.92 238.392 910.083 237.713 909.887 236.712Z" fill="#EEEDF3"/>
<path d="M905.48 211.648L908.407 206.327C908.63 205.921 908.981 205.647 909.385 205.542L910.411 210.783C910.542 211.45 910.196 212.079 909.639 212.188L905.258 213.046C905.183 212.552 905.257 212.054 905.48 211.648Z" fill="#C8C5D6"/>
<path d="M1161.3 384.255C1161.3 415.9 1135.64 441.553 1104 441.553C1072.36 441.553 1046.7 415.9 1046.7 384.255C1046.7 352.611 1072.36 326.957 1104 326.957C1135.64 326.957 1161.3 352.611 1161.3 384.255Z" fill="#35F348"/>
<path d="M1161.3 384.255C1161.3 415.9 1135.64 441.553 1104 441.553C1072.36 441.553 1046.7 415.9 1046.7 384.255C1046.7 352.611 1072.36 326.957 1104 326.957C1135.64 326.957 1161.3 352.611 1161.3 384.255Z" fill="#EEEDF3"/>
<path fill-rule="evenodd" clip-rule="evenodd" d="M1107.95 441.481C1107.95 426.056 1107.97 411.503 1108.04 407.66C1108.36 388.912 1126.84 392.906 1126.84 392.906L1149.26 407.66L1149.25 419.536C1139.52 432.015 1124.72 440.356 1107.95 441.481Z" fill="#FFD3BB"/>
<path d="M1144.54 419.687L1111.4 419.543C1108.21 419.529 1105.64 416.931 1105.65 413.741L1105.94 346.938C1105.96 343.748 1108.56 341.173 1111.74 341.187L1144.88 341.331C1148.07 341.345 1150.65 343.943 1150.63 347.133L1150.34 413.936C1150.33 417.126 1147.73 419.701 1144.54 419.687Z" fill="#FF5A23"/>
<path d="M1150.44 409.557L1105.75 409.362L1106 351.686L1150.69 351.881L1150.44 409.557Z" fill="#FF985F"/>
<path d="M1112.37 388.379L1100.81 386.725C1097.71 386.281 1095.56 383.406 1096 380.303C1096.44 377.2 1099.32 375.045 1102.42 375.49L1113.97 377.143C1117.08 377.586 1119.23 380.462 1118.79 383.564C1118.34 386.668 1115.47 388.822 1112.37 388.379Z" fill="#FFD3BB"/>
<path d="M1110.99 398.966L1099.44 397.312C1096.34 396.869 1094.18 393.994 1094.63 390.891C1095.07 387.787 1097.95 385.633 1101.05 386.077L1112.6 387.731C1115.7 388.174 1117.86 391.05 1117.41 394.152C1116.97 397.255 1114.1 399.41 1110.99 398.966Z" fill="#FFD3BB"/>
<path d="M1110.63 409.561L1099.08 407.908C1095.97 407.463 1093.82 404.588 1094.26 401.486C1094.71 398.383 1097.58 396.229 1100.68 396.672L1112.24 398.326C1115.34 398.77 1117.49 401.645 1117.05 404.748C1116.61 407.85 1113.73 410.006 1110.63 409.561Z" fill="#FFD3BB"/>
<path fill-rule="evenodd" clip-rule="evenodd" d="M1157.28 405.385C1155.18 410.664 1152.32 415.558 1148.84 419.93L1140.44 424.652L1136.61 428.097C1136.21 427.48 1135.86 426.983 1135.56 426.553C1134.31 424.757 1133.87 424.137 1133.89 420.835C1133.93 409.632 1143.06 400.589 1154.26 400.638L1157.28 405.385Z" fill="#FFD3BB"/>
<path fill-rule="evenodd" clip-rule="evenodd" d="M1140.64 428.242C1138.96 427.011 1138.29 424.778 1139.25 421.339C1141.52 413.224 1144.31 410.17 1147.63 408.163C1150.94 406.157 1150.42 400.834 1150.42 400.834C1150.42 400.834 1146.49 395.599 1146.58 390.189C1146.59 389.401 1146.6 388.605 1146.6 387.812C1146.63 383.156 1146.65 378.606 1148.41 376.577C1150.16 374.57 1152.86 373.174 1155.74 373.96C1158.62 374.745 1160.13 377.531 1159.93 379.893C1159.85 380.856 1159.69 381.768 1159.52 382.687C1159.17 384.682 1158.81 386.716 1159.23 389.404C1159.53 391.291 1160.01 392.456 1160.59 393.556C1158.29 407.436 1151.01 419.632 1140.64 428.242Z" fill="#FFD3BB"/>
<line x1="1131.39" y1="372.237" x2="1133.31" y2="366.314" stroke="#FFF4EC" stroke-width="1.34055" stroke-linecap="round" stroke-linejoin="round"/>
<line x1="1125.48" y1="374.771" x2="1120.44" y2="371.11" stroke="#FFF4EC" stroke-width="1.34055" stroke-linecap="round" stroke-linejoin="round"/>
<line x1="0.670276" y1="-0.670276" x2="6.89874" y2="-0.670276" transform="matrix(0.707107 0.707107 0.707107 -0.707107 1133.69 379.825)" stroke="#FFF4EC" stroke-width="1.34055" stroke-linecap="round" stroke-linejoin="round"/>
<line x1="0.670276" y1="-0.670276" x2="6.89874" y2="-0.670276" transform="matrix(-0.809017 0.587785 0.587785 0.809017 1128.29 381.434)" stroke="#FFF4EC" stroke-width="1.34055" stroke-linecap="round" stroke-linejoin="round"/>
<line x1="0.670276" y1="-0.670276" x2="6.89874" y2="-0.670276" transform="matrix(1 0 0 -1 1134.5 375.804)" stroke="#FFF4EC" stroke-width="1.34055" stroke-linecap="round" stroke-linejoin="round"/>
<path d="M1408.1 373.404L1409.7 373.404C1410.72 373.404 1411.3 374.004 1411.3 375.12C1411.3 376.176 1410.72 376.776 1409.68 376.776L1408.1 376.776L1408.1 373.404ZM1406.52 372L1406.52 381L1408.1 381L1408.1 378.18L1409.84 378.18C1411.76 378.18 1412.98 376.836 1412.98 375.096C1412.98 373.08 1411.83 372 1409.82 372L1406.52 372ZM1416.93 381.18C1418.17 381.18 1418.92 380.424 1419.27 379.572L1419.27 381L1420.77 381L1420.77 374.088L1419.27 374.088L1419.27 375.444C1418.78 374.352 1418.02 373.896 1416.94 373.896C1415.49 373.896 1413.9 375.06 1413.9 377.472C1413.9 380.004 1415.5 381.18 1416.93 381.18ZM1417.35 375.192C1418.36 375.192 1419.27 375.96 1419.27 377.556C1419.27 379.2 1418.36 379.872 1417.34 379.872C1416.39 379.872 1415.41 379.164 1415.41 377.556C1415.41 375.924 1416.4 375.192 1417.35 375.192ZM1423.31 383.4C1424.65 383.4 1425.51 382.692 1426.05 381.288L1428.81 374.088L1427.15 374.088L1425.41 379.488L1423.58 374.088L1421.91 374.088L1424.46 380.472C1424.81 381.348 1424.48 382.152 1423.45 382.152C1422.91 382.152 1422.57 381.984 1422.36 381.852L1422.12 383.148C1422.44 383.304 1422.85 383.4 1423.31 383.4ZM1437.6 375.252C1438.46 375.252 1439.1 375.732 1439.1 377.016L1439.1 381L1440.6 381L1440.6 376.368C1440.6 374.508 1439.46 373.896 1438.2 373.896C1437.44 373.896 1436.46 374.208 1435.95 375.24C1435.58 374.256 1434.7 373.896 1433.78 373.896C1432.95 373.896 1431.95 374.22 1431.46 375.108L1431.46 374.088L1429.96 374.088L1429.96 381L1431.46 381L1431.46 377.052C1431.46 375.816 1432.17 375.252 1433.13 375.252C1433.98 375.252 1434.63 375.732 1434.63 377.016L1434.63 381L1436.13 381L1436.13 377.052C1436.13 375.816 1436.75 375.252 1437.6 375.252ZM1445.5 375.192C1446.47 375.192 1447.24 375.648 1447.36 376.8L1443.6 376.8C1443.81 375.732 1444.5 375.192 1445.5 375.192ZM1448.78 377.868L1448.78 377.376C1448.78 375.336 1447.43 373.896 1445.56 373.896C1443.56 373.896 1442.03 375.3 1442.03 377.52C1442.03 379.8 1443.62 381.18 1445.66 381.18C1446.93 381.18 1448.46 380.448 1448.73 378.852L1447.34 378.612C1447.18 379.404 1446.72 379.884 1445.6 379.884C1444.35 379.884 1443.66 379.08 1443.56 377.868L1448.78 377.868ZM1453.46 375.252C1454.28 375.252 1454.92 375.732 1454.92 377.016L1454.92 381L1456.42 381L1456.42 376.368C1456.42 374.508 1455.25 373.896 1454.01 373.896C1453.2 373.896 1452.25 374.232 1451.76 375.108L1451.76 374.088L1450.26 374.088L1450.26 381L1451.76 381L1451.76 377.052C1451.76 375.816 1452.46 375.252 1453.46 375.252ZM1458.81 372.42L1458.81 374.088L1457.53 374.088L1457.53 375.3L1458.81 375.3L1458.81 379.056C1458.81 380.328 1459.45 381.12 1460.83 381.12C1461.25 381.12 1461.74 381.012 1462.1 380.904L1461.86 379.692C1461.58 379.764 1461.42 379.8 1461.14 379.8C1460.53 379.8 1460.31 379.524 1460.31 378.984L1460.31 375.3L1462.04 375.3L1462.04 374.088L1460.31 374.088L1460.31 372.18L1458.81 372.42ZM1466.75 374.088L1466.75 381L1468.25 381L1468.25 374.088L1466.75 374.088ZM1467.49 371.1C1466.99 371.1 1466.59 371.508 1466.59 372C1466.59 372.492 1466.99 372.9 1467.49 372.9C1467.99 372.9 1468.39 372.492 1468.39 372C1468.39 371.508 1467.99 371.1 1467.49 371.1ZM1470.02 376.032C1470.02 376.992 1470.58 377.7 1471.75 377.952L1473.01 378.228C1473.88 378.42 1474.12 378.672 1474.12 379.08C1474.12 379.656 1473.55 379.98 1472.72 379.98C1471.75 379.98 1471.12 379.524 1471.02 378.672L1469.69 378.912C1469.92 380.52 1471.42 381.18 1472.76 381.18C1474.09 381.18 1475.51 380.436 1475.51 378.936C1475.51 377.976 1474.94 377.328 1473.72 377.064L1472.35 376.764C1471.66 376.608 1471.42 376.272 1471.42 375.912C1471.42 375.408 1471.9 375.096 1472.58 375.096C1473.41 375.096 1474.02 375.396 1474.07 376.296L1475.4 376.056C1475 374.508 1473.96 373.896 1472.57 373.896C1471.44 373.896 1470.02 374.52 1470.02 376.032ZM1480.74 372.42L1480.74 374.088L1479.45 374.088L1479.45 375.3L1480.74 375.3L1480.74 379.056C1480.74 380.328 1481.37 381.12 1482.75 381.12C1483.17 381.12 1483.67 381.012 1484.03 380.904L1483.79 379.692C1483.51 379.764 1483.34 379.8 1483.07 379.8C1482.45 379.8 1482.24 379.524 1482.24 378.984L1482.24 375.3L1483.97 375.3L1483.97 374.088L1482.24 374.088L1482.24 372.18L1480.74 372.42ZM1488.75 375.516C1489.12 375.516 1489.38 375.564 1489.65 375.672L1489.79 373.992C1489.65 373.92 1489.44 373.896 1489.26 373.896C1488.58 373.896 1487.5 374.292 1486.94 375.744L1486.94 374.088L1485.44 374.088L1485.44 381L1486.94 381L1486.94 377.976C1486.94 376.056 1487.78 375.516 1488.75 375.516ZM1493.57 381.18C1494.81 381.18 1495.56 380.424 1495.91 379.572L1495.91 381L1497.41 381L1497.41 374.088L1495.91 374.088L1495.91 375.444C1495.42 374.352 1494.66 373.896 1493.58 373.896C1492.13 373.896 1490.54 375.06 1490.54 377.472C1490.54 380.004 1492.14 381.18 1493.57 381.18ZM1493.99 375.192C1495 375.192 1495.91 375.96 1495.91 377.556C1495.91 379.2 1495 379.872 1493.98 379.872C1493.03 379.872 1492.05 379.164 1492.05 377.556C1492.05 375.924 1493.04 375.192 1493.99 375.192ZM1502.54 375.252C1503.35 375.252 1504 375.732 1504 377.016L1504 381L1505.5 381L1505.5 376.368C1505.5 374.508 1504.33 373.896 1503.09 373.896C1502.27 373.896 1501.33 374.232 1500.83 375.108L1500.83 374.088L1499.33 374.088L1499.33 381L1500.83 381L1500.83 377.052C1500.83 375.816 1501.54 375.252 1502.54 375.252ZM1507.22 376.032C1507.22 376.992 1507.77 377.7 1508.95 377.952L1510.21 378.228C1511.07 378.42 1511.31 378.672 1511.31 379.08C1511.31 379.656 1510.75 379.98 1509.92 379.98C1508.95 379.98 1508.31 379.524 1508.21 378.672L1506.88 378.912C1507.11 380.52 1508.61 381.18 1509.95 381.18C1511.29 381.18 1512.7 380.436 1512.7 378.936C1512.7 377.976 1512.14 377.328 1510.91 377.064L1509.55 376.764C1508.85 376.608 1508.61 376.272 1508.61 375.912C1508.61 375.408 1509.09 375.096 1509.77 375.096C1510.6 375.096 1511.21 375.396 1511.26 376.296L1512.59 376.056C1512.2 374.508 1511.15 373.896 1509.76 373.896C1508.63 373.896 1507.22 374.52 1507.22 376.032ZM1514.57 381L1516.07 381L1516.07 375.3L1517.78 375.3L1517.78 374.088L1516.07 374.088L1516.07 373.812C1516.07 373.152 1516.26 372.804 1516.89 372.804C1517.06 372.804 1517.21 372.816 1517.35 372.84L1517.46 371.568C1517.27 371.508 1517.01 371.472 1516.73 371.472C1515.43 371.472 1514.57 372.288 1514.57 373.824L1514.57 374.088L1513.62 374.088L1513.62 375.3L1514.57 375.3L1514.57 381ZM1518.85 374.088L1518.85 381L1520.35 381L1520.35 374.088L1518.85 374.088ZM1519.59 371.1C1519.09 371.1 1518.69 371.508 1518.69 372C1518.69 372.492 1519.09 372.9 1519.59 372.9C1520.09 372.9 1520.49 372.492 1520.49 372C1520.49 371.508 1520.09 371.1 1519.59 371.1ZM1525.58 375.516C1525.95 375.516 1526.22 375.564 1526.48 375.672L1526.62 373.992C1526.48 373.92 1526.28 373.896 1526.1 373.896C1525.41 373.896 1524.33 374.292 1523.77 375.744L1523.77 374.088L1522.27 374.088L1522.27 381L1523.77 381L1523.77 377.976C1523.77 376.056 1524.61 375.516 1525.58 375.516ZM1530.79 375.192C1531.76 375.192 1532.53 375.648 1532.65 376.8L1528.89 376.8C1529.1 375.732 1529.79 375.192 1530.79 375.192ZM1534.06 377.868L1534.06 377.376C1534.06 375.336 1532.72 373.896 1530.85 373.896C1528.84 373.896 1527.32 375.3 1527.32 377.52C1527.32 379.8 1528.9 381.18 1530.94 381.18C1532.22 381.18 1533.75 380.448 1534.02 378.852L1532.62 378.612C1532.47 379.404 1532.01 379.884 1530.88 379.884C1529.64 379.884 1528.95 379.08 1528.84 377.868L1534.06 377.868ZM1542.04 371.7L1540.54 371.7L1540.54 375.444C1540.05 374.352 1539.3 373.896 1538.37 373.896C1536.76 373.896 1535.16 375.06 1535.16 377.472C1535.16 380.004 1536.77 381.18 1538.17 381.18C1539.43 381.18 1540.19 380.52 1540.54 379.692L1540.54 381L1542.04 381L1542.04 371.7ZM1538.62 375.192C1539.63 375.192 1540.54 375.996 1540.54 377.556C1540.54 379.164 1539.63 379.872 1538.61 379.872C1537.66 379.872 1536.67 379.128 1536.67 377.556C1536.67 375.96 1537.67 375.192 1538.62 375.192Z" fill="#FF5B24"/>
<path d="M1527.57 225.857C1527.57 255.181 1503.8 278.953 1474.47 278.953C1445.15 278.953 1421.38 255.181 1421.38 225.857C1421.38 196.533 1445.15 172.76 1474.47 172.76C1503.8 172.76 1527.57 196.533 1527.57 225.857Z" fill="#EEEDF3"/>
<path d="M1451.09 206.897C1452.2 207.864 1453.32 208.832 1454.44 209.8C1457.34 212.318 1460.34 214.733 1463.15 217.35C1467.65 221.527 1470.45 226.677 1471.56 232.717C1472.68 238.835 1471.89 244.719 1469.14 250.3C1466.51 255.65 1462.48 259.668 1457.2 262.426C1453.44 264.39 1449.43 265.448 1445.19 265.612C1437.25 265.921 1430.25 263.518 1424.36 258.134C1420.18 254.306 1417.55 249.549 1416.3 244.026C1415.63 241.062 1415.44 238.064 1415.76 235.046C1416.4 228.91 1418.78 223.535 1422.91 218.942C1424.38 217.313 1426.08 215.946 1427.73 214.519C1430.61 212.038 1433.49 209.566 1436.37 207.09C1436.44 207.029 1436.5 206.96 1436.56 206.894C1436.95 206.891 1437.35 206.899 1437.74 206.879C1437.98 206.868 1438.03 206.972 1438.03 207.185C1438.01 207.59 1438.02 207.994 1438.02 208.399C1438.02 212.419 1438.02 216.44 1438.02 220.461C1438.02 221.192 1438.29 221.773 1438.94 222.125C1440.13 222.769 1441.5 221.911 1441.51 220.519C1441.51 217.353 1441.51 214.187 1441.51 211.021C1441.51 209.75 1441.51 208.479 1441.5 207.209C1441.5 206.949 1441.57 206.868 1441.83 206.876C1442.4 206.897 1442.96 206.882 1443.53 206.882C1446.05 206.891 1448.57 206.894 1451.09 206.897ZM1444.41 248.83C1444.93 248.83 1445.45 248.818 1445.97 248.835C1446.2 248.844 1446.25 248.763 1446.25 248.544C1446.24 247.793 1446.27 247.042 1446.24 246.291C1446.22 245.938 1446.32 245.8 1446.67 245.71C1447.91 245.398 1449.02 244.826 1449.95 243.936C1451.4 242.544 1451.93 240.82 1451.81 238.85C1451.68 236.695 1450.71 235.083 1448.8 234.04C1447.49 233.324 1446.06 232.966 1444.65 232.538C1443.82 232.287 1442.99 232.044 1442.26 231.559C1441.54 231.085 1441.18 230.427 1441.26 229.563C1441.34 228.705 1441.8 228.11 1442.59 227.761C1443.21 227.483 1443.88 227.414 1444.55 227.46C1446.08 227.564 1446.91 228.217 1447.38 229.67C1447.47 229.941 1447.54 230.225 1447.59 230.508C1447.62 230.707 1447.67 230.791 1447.91 230.753C1449.03 230.58 1450.15 230.438 1451.27 230.277C1452.06 230.161 1452.06 230.152 1451.88 229.355C1451.19 226.371 1449.57 224.26 1446.44 223.584C1446.25 223.543 1446.24 223.436 1446.25 223.286C1446.25 222.524 1446.23 221.761 1446.25 220.998C1446.26 220.698 1446.17 220.637 1445.89 220.643C1444.89 220.661 1443.9 220.658 1442.9 220.643C1442.64 220.64 1442.54 220.695 1442.55 220.981C1442.57 221.744 1442.55 222.506 1442.56 223.269C1442.57 223.471 1442.5 223.555 1442.31 223.595C1442.02 223.653 1441.74 223.722 1441.47 223.812C1439.71 224.393 1438.29 225.389 1437.56 227.168C1436.97 228.63 1436.95 230.138 1437.36 231.651C1437.85 233.515 1439.16 234.653 1440.83 235.456C1442.11 236.068 1443.47 236.432 1444.79 236.903C1445.52 237.163 1446.25 237.434 1446.85 237.937C1447.23 238.249 1447.5 238.627 1447.57 239.121C1447.73 240.147 1447.27 241.054 1446.3 241.548C1445.13 242.148 1443.9 242.108 1442.66 241.831C1441.35 241.539 1440.54 240.722 1440.21 239.427C1440.09 239 1440.05 238.564 1440.03 238.128C1440.02 237.876 1439.93 237.85 1439.72 237.882C1438.5 238.067 1437.28 238.252 1436.06 238.419C1435.85 238.448 1435.82 238.526 1435.83 238.708C1435.9 239.413 1436.05 240.1 1436.32 240.753C1437.41 243.457 1439.46 245.072 1442.22 245.837C1442.48 245.909 1442.57 245.99 1442.57 246.265C1442.55 247.016 1442.57 247.767 1442.55 248.518C1442.55 248.786 1442.64 248.844 1442.89 248.835C1443.39 248.815 1443.9 248.83 1444.41 248.83Z" fill="#FF985F"/>
<path d="M1437.08 203.409C1435.48 200.642 1433.88 197.878 1432.29 195.105C1430.23 191.497 1432.27 187.104 1436.34 186.329C1436.7 186.263 1437.05 186.237 1437.41 186.237C1441.69 186.24 1445.96 186.237 1450.24 186.237C1454.8 186.237 1457.64 191.067 1455.39 195.038C1453.85 197.759 1452.27 200.455 1450.71 203.161C1450.66 203.239 1450.62 203.326 1450.58 203.407C1446.91 203.409 1443.24 203.412 1439.57 203.415C1438.74 203.418 1437.91 203.412 1437.08 203.409Z" fill="#FF985F"/>
<path d="M1437.08 203.409C1437.91 203.412 1438.74 203.421 1439.57 203.421C1443.24 203.418 1446.91 203.415 1450.58 203.412C1450.8 203.415 1451.02 203.421 1451.24 203.421C1452.25 203.427 1453.02 204.163 1453.03 205.143C1453.04 206.096 1452.28 206.858 1451.29 206.887C1451.22 206.89 1451.15 206.893 1451.08 206.899C1448.57 206.896 1446.05 206.89 1443.53 206.887C1442.96 206.887 1442.4 206.902 1441.83 206.881C1441.57 206.873 1441.5 206.954 1441.5 207.214C1441.51 208.485 1441.51 209.756 1441.51 211.027C1441.51 214.192 1441.51 217.358 1441.5 220.524C1441.5 221.916 1440.13 222.774 1438.94 222.13C1438.29 221.778 1438.02 221.194 1438.02 220.466C1438.02 216.445 1438.02 212.425 1438.02 208.404C1438.02 207.999 1438.01 207.595 1438.02 207.191C1438.03 206.977 1437.98 206.873 1437.74 206.884C1437.34 206.905 1436.95 206.896 1436.56 206.899C1435.45 206.855 1434.76 206.307 1434.64 205.379C1434.5 204.357 1435.28 203.447 1436.31 203.424C1436.57 203.415 1436.82 203.412 1437.08 203.409Z" fill="#FD5B24"/>
<path d="M1444.41 248.829C1443.9 248.829 1443.39 248.815 1442.88 248.835C1442.63 248.844 1442.55 248.786 1442.55 248.517C1442.57 247.766 1442.55 247.015 1442.57 246.264C1442.57 245.99 1442.48 245.906 1442.22 245.837C1439.45 245.071 1437.41 243.456 1436.31 240.753C1436.05 240.097 1435.9 239.413 1435.83 238.708C1435.81 238.526 1435.85 238.448 1436.05 238.419C1437.27 238.248 1438.5 238.066 1439.71 237.882C1439.92 237.85 1440.02 237.876 1440.03 238.127C1440.04 238.563 1440.09 238.999 1440.2 239.427C1440.54 240.721 1441.35 241.538 1442.66 241.83C1443.89 242.108 1445.13 242.148 1446.3 241.547C1447.26 241.053 1447.73 240.143 1447.57 239.121C1447.49 238.627 1447.22 238.248 1446.85 237.936C1446.24 237.434 1445.52 237.162 1444.79 236.902C1443.47 236.432 1442.1 236.068 1440.83 235.455C1439.16 234.652 1437.85 233.514 1437.35 231.651C1436.95 230.14 1436.96 228.63 1437.56 227.168C1438.28 225.389 1439.71 224.392 1441.47 223.811C1441.74 223.722 1442.02 223.65 1442.3 223.595C1442.5 223.557 1442.56 223.473 1442.56 223.268C1442.55 222.506 1442.57 221.743 1442.55 220.981C1442.54 220.695 1442.64 220.637 1442.9 220.643C1443.89 220.657 1444.89 220.657 1445.88 220.643C1446.16 220.637 1446.26 220.698 1446.25 220.998C1446.23 221.761 1446.25 222.523 1446.24 223.286C1446.24 223.436 1446.25 223.546 1446.43 223.583C1449.57 224.259 1451.19 226.371 1451.88 229.355C1452.06 230.155 1452.06 230.16 1451.27 230.276C1450.15 230.438 1449.02 230.579 1447.91 230.753C1447.66 230.79 1447.62 230.706 1447.59 230.507C1447.53 230.224 1447.47 229.941 1447.38 229.669C1446.9 228.216 1446.07 227.564 1444.55 227.46C1443.87 227.413 1443.21 227.483 1442.58 227.76C1441.8 228.107 1441.34 228.705 1441.26 229.563C1441.18 230.426 1441.54 231.085 1442.25 231.559C1442.99 232.044 1443.82 232.286 1444.65 232.538C1446.05 232.965 1447.49 233.326 1448.8 234.04C1450.7 235.083 1451.67 236.694 1451.8 238.849C1451.92 240.819 1451.4 242.547 1449.95 243.936C1449.02 244.829 1447.9 245.398 1446.66 245.71C1446.31 245.796 1446.22 245.938 1446.23 246.29C1446.27 247.041 1446.24 247.792 1446.25 248.543C1446.25 248.763 1446.2 248.844 1445.97 248.835C1445.45 248.815 1444.93 248.829 1444.41 248.829Z" fill="#FF985F"/>
<path d="M1437.6 241.079H1439.63V239.029L1440.77 237.657L1443.05 241.079H1445.3L1441.98 236.213L1444.85 232.761H1442.57L1439.63 236.603V229.887H1437.6V241.079ZM1450.01 234.797C1450.3 234.797 1450.65 234.87 1450.96 234.985L1451.09 232.646C1450.91 232.573 1450.67 232.53 1450.46 232.53C1449.66 232.53 1448.68 232.934 1448.03 234.523V232.761H1446V241.079H1448.03V237.007C1448.03 235.231 1449.04 234.797 1450.01 234.797Z" fill="#FFF4EC"/>
<path fill-rule="evenodd" clip-rule="evenodd" d="M1474.47 278.953C1503.8 278.953 1527.57 255.181 1527.57 225.857C1527.57 224.496 1527.52 223.148 1527.42 221.813H1457.26C1454.8 221.813 1452.8 223.807 1452.8 226.268V274.344C1459.42 277.306 1466.76 278.953 1474.47 278.953Z" fill="#C8C5D6"/>
<path fill-rule="evenodd" clip-rule="evenodd" d="M1527.1 232.922C1527.41 230.611 1527.57 228.252 1527.57 225.857C1527.57 224.496 1527.52 223.148 1527.42 221.813H1457.42C1454.87 221.813 1452.8 223.879 1452.8 226.426V232.922H1527.1Z" fill="#48367D"/>
<path d="M1464.35 227.412C1464.35 228.686 1463.31 229.718 1462.04 229.718C1460.77 229.718 1459.73 228.686 1459.73 227.412C1459.73 226.138 1460.77 225.105 1462.04 225.105C1463.31 225.105 1464.35 226.138 1464.35 227.412Z" fill="white"/>
<path d="M1471.92 227.368C1471.92 228.642 1470.88 229.675 1469.61 229.675C1468.34 229.675 1467.3 228.642 1467.3 227.368C1467.3 226.094 1468.34 225.062 1469.61 225.062C1470.88 225.062 1471.92 226.094 1471.92 227.368Z" fill="white"/>
<path d="M1479.61 227.368C1479.61 228.642 1478.57 229.675 1477.3 229.675C1476.03 229.675 1474.99 228.642 1474.99 227.368C1474.99 226.094 1476.03 225.062 1477.3 225.062C1478.57 225.062 1479.61 226.094 1479.61 227.368Z" fill="white"/>
<defs>
<clipPath id="clip0">
<rect width="165.415" height="162.172" fill="white" transform="translate(515 145)"/>
</clipPath>
</defs>
</svg>
