<svg width="1467" height="507" viewBox="0 0 1467 507" fill="none" xmlns="http://www.w3.org/2000/svg">
<rect width="1467" height="507" fill="white"/>
<line x1="132" y1="174" x2="1289" y2="174" stroke="#FF5B24" stroke-width="2"/>
<circle cx="399" cy="174" r="10" transform="rotate(-90 399 174)" fill="white" stroke="#FF5B24" stroke-width="4"/>
<circle cx="755" cy="174" r="10" transform="rotate(-90 755 174)" fill="white" stroke="#FF5B24" stroke-width="4"/>
<circle cx="266" cy="174" r="10" transform="rotate(-90 266 174)" fill="white" stroke="#FF5B24" stroke-width="4"/>
<path d="M133.5 164C139.377 164 144 168.553 144 174C144 179.447 139.377 184 133.5 184C127.623 184 123 179.447 123 174C123 168.553 127.623 164 133.5 164Z" fill="white" stroke="#FF5B24" stroke-width="4"/>
<path d="M523.259 264L523.259 273L524.831 273L524.831 264L523.259 264ZM526.699 266.412C526.699 269.88 531.679 268.74 531.679 270.648C531.679 271.332 531.151 271.788 530.131 271.788C529.159 271.788 528.043 271.464 527.887 269.928L526.339 270.288C526.579 272.22 528.283 273.18 530.083 273.18C531.679 273.18 533.251 272.268 533.251 270.552C533.251 267.192 528.295 268.416 528.295 266.352C528.295 265.644 528.835 265.212 529.759 265.212C530.563 265.212 531.463 265.572 531.535 266.82L533.119 266.46C532.855 264.6 531.247 263.82 529.831 263.82C528.259 263.82 526.699 264.684 526.699 266.412ZM536.398 265.404L538.006 265.404C539.026 265.404 539.602 266.004 539.602 267.12C539.602 268.176 539.026 268.776 537.982 268.776L536.398 268.776L536.398 265.404ZM534.826 264L534.826 273L536.398 273L536.398 270.18L538.138 270.18C540.058 270.18 541.282 268.836 541.282 267.096C541.282 265.08 540.13 264 538.126 264L534.826 264ZM545.906 268.032C545.906 268.992 546.458 269.7 547.634 269.952L548.894 270.228C549.758 270.42 549.998 270.672 549.998 271.08C549.998 271.656 549.434 271.98 548.606 271.98C547.634 271.98 546.998 271.524 546.902 270.672L545.57 270.912C545.798 272.52 547.298 273.18 548.642 273.18C549.974 273.18 551.39 272.436 551.39 270.936C551.39 269.976 550.826 269.328 549.602 269.064L548.234 268.764C547.538 268.608 547.298 268.272 547.298 267.912C547.298 267.408 547.778 267.096 548.462 267.096C549.29 267.096 549.902 267.396 549.95 268.296L551.282 268.056C550.886 266.508 549.842 265.896 548.45 265.896C547.322 265.896 545.906 266.52 545.906 268.032ZM555.894 267.192C556.866 267.192 557.634 267.648 557.754 268.8L553.998 268.8C554.202 267.732 554.898 267.192 555.894 267.192ZM559.17 269.868L559.17 269.376C559.17 267.336 557.826 265.896 555.954 265.896C553.95 265.896 552.426 267.3 552.426 269.52C552.426 271.8 554.01 273.18 556.05 273.18C557.322 273.18 558.858 272.448 559.122 270.852L557.73 270.612C557.574 271.404 557.118 271.884 555.99 271.884C554.742 271.884 554.058 271.08 553.95 269.868L559.17 269.868ZM563.855 267.252C564.671 267.252 565.319 267.732 565.319 269.016L565.319 273L566.819 273L566.819 268.368C566.819 266.508 565.643 265.896 564.407 265.896C563.591 265.896 562.643 266.232 562.151 267.108L562.151 266.088L560.651 266.088L560.651 273L562.151 273L562.151 269.052C562.151 267.816 562.859 267.252 563.855 267.252ZM575.171 263.7L573.671 263.7L573.671 267.444C573.179 266.352 572.435 265.896 571.499 265.896C569.891 265.896 568.295 267.06 568.295 269.472C568.295 272.004 569.903 273.18 571.307 273.18C572.567 273.18 573.323 272.52 573.671 271.692L573.671 273L575.171 273L575.171 263.7ZM571.751 267.192C572.759 267.192 573.671 267.996 573.671 269.556C573.671 271.164 572.759 271.872 571.739 271.872C570.791 271.872 569.807 271.128 569.807 269.556C569.807 267.96 570.803 267.192 571.751 267.192ZM576.949 268.032C576.949 268.992 577.501 269.7 578.677 269.952L579.937 270.228C580.801 270.42 581.041 270.672 581.041 271.08C581.041 271.656 580.477 271.98 579.649 271.98C578.677 271.98 578.041 271.524 577.945 270.672L576.613 270.912C576.841 272.52 578.341 273.18 579.685 273.18C581.017 273.18 582.433 272.436 582.433 270.936C582.433 269.976 581.869 269.328 580.645 269.064L579.277 268.764C578.581 268.608 578.341 268.272 578.341 267.912C578.341 267.408 578.821 267.096 579.505 267.096C580.333 267.096 580.945 267.396 580.993 268.296L582.325 268.056C581.929 266.508 580.885 265.896 579.493 265.896C578.365 265.896 576.949 266.52 576.949 268.032ZM587.136 266.088L587.136 273L588.636 273L588.636 266.088L587.136 266.088ZM587.88 263.1C587.376 263.1 586.98 263.508 586.98 264C586.98 264.492 587.376 264.9 587.88 264.9C588.384 264.9 588.78 264.492 588.78 264C588.78 263.508 588.384 263.1 587.88 263.1ZM593.762 267.252C594.578 267.252 595.226 267.732 595.226 269.016L595.226 273L596.726 273L596.726 268.368C596.726 266.508 595.55 265.896 594.314 265.896C593.498 265.896 592.55 266.232 592.058 267.108L592.058 266.088L590.558 266.088L590.558 273L592.058 273L592.058 269.052C592.058 267.816 592.766 267.252 593.762 267.252ZM604.705 266.088L603.037 266.088L601.261 271.308L599.473 266.088L597.805 266.088L600.565 273L601.945 273L604.705 266.088ZM608.839 265.896C606.967 265.896 605.419 267.264 605.419 269.532C605.419 271.8 606.967 273.18 608.839 273.18C610.711 273.18 612.259 271.8 612.259 269.532C612.259 267.264 610.711 265.896 608.839 265.896ZM608.839 267.192C609.871 267.192 610.747 267.948 610.747 269.532C610.747 271.116 609.871 271.884 608.839 271.884C607.807 271.884 606.931 271.116 606.931 269.532C606.931 267.948 607.807 267.192 608.839 267.192ZM613.749 266.088L613.749 273L615.249 273L615.249 266.088L613.749 266.088ZM614.493 263.1C613.989 263.1 613.593 263.508 613.593 264C613.593 264.492 613.989 264.9 614.493 264.9C614.997 264.9 615.393 264.492 615.393 264C615.393 263.508 614.997 263.1 614.493 263.1ZM623.555 268.776C623.303 266.916 621.827 265.896 620.219 265.896C618.239 265.896 616.739 267.3 616.739 269.532C616.739 271.668 618.215 273.18 620.327 273.18C621.659 273.18 623.219 272.448 623.543 270.336L622.175 270.096C622.019 271.272 621.371 271.872 620.315 271.872C618.911 271.872 618.251 270.804 618.251 269.532C618.251 267.996 619.091 267.192 620.147 267.192C621.107 267.192 621.911 267.708 622.079 269.016L623.555 268.776ZM628 267.192C628.972 267.192 629.74 267.648 629.86 268.8L626.104 268.8C626.308 267.732 627.004 267.192 628 267.192ZM631.276 269.868L631.276 269.376C631.276 267.336 629.932 265.896 628.06 265.896C626.056 265.896 624.532 267.3 624.532 269.52C624.532 271.8 626.116 273.18 628.156 273.18C629.428 273.18 630.964 272.448 631.228 270.852L629.836 270.612C629.68 271.404 629.224 271.884 628.096 271.884C626.848 271.884 626.164 271.08 626.056 269.868L631.276 269.868Z" fill="#FF5B24"/>
<path d="M1058.59 267.216C1058.23 265.008 1056.33 263.82 1054.45 263.82C1051.88 263.82 1049.75 265.68 1049.75 268.44C1049.75 271.392 1051.9 273.18 1054.48 273.18C1056.22 273.18 1058.39 272.016 1058.66 269.544L1057.04 269.304C1056.91 271.092 1055.68 271.644 1054.48 271.644C1052.78 271.644 1051.45 270.672 1051.45 268.44C1051.45 266.412 1052.78 265.356 1054.39 265.356C1055.49 265.356 1056.7 265.812 1056.97 267.456L1058.59 267.216ZM1066.35 273L1066.35 266.088L1064.85 266.088L1064.85 270.108C1064.85 271.284 1064.07 271.824 1063.06 271.824C1062.14 271.824 1061.68 271.416 1061.68 270.348L1061.68 266.088L1060.18 266.088L1060.18 270.912C1060.18 272.508 1061.33 273.18 1062.48 273.18C1063.35 273.18 1064.31 272.784 1064.85 271.836L1064.85 273L1066.35 273ZM1068.1 268.032C1068.1 268.992 1068.65 269.7 1069.83 269.952L1071.09 270.228C1071.95 270.42 1072.19 270.672 1072.19 271.08C1072.19 271.656 1071.63 271.98 1070.8 271.98C1069.83 271.98 1069.19 271.524 1069.1 270.672L1067.76 270.912C1067.99 272.52 1069.49 273.18 1070.84 273.18C1072.17 273.18 1073.58 272.436 1073.58 270.936C1073.58 269.976 1073.02 269.328 1071.8 269.064L1070.43 268.764C1069.73 268.608 1069.49 268.272 1069.49 267.912C1069.49 267.408 1069.97 267.096 1070.66 267.096C1071.48 267.096 1072.1 267.396 1072.14 268.296L1073.48 268.056C1073.08 266.508 1072.04 265.896 1070.64 265.896C1069.52 265.896 1068.1 266.52 1068.1 268.032ZM1075.58 264.42L1075.58 266.088L1074.3 266.088L1074.3 267.3L1075.58 267.3L1075.58 271.056C1075.58 272.328 1076.22 273.12 1077.6 273.12C1078.02 273.12 1078.51 273.012 1078.87 272.904L1078.63 271.692C1078.35 271.764 1078.18 271.8 1077.91 271.8C1077.3 271.8 1077.08 271.524 1077.08 270.984L1077.08 267.3L1078.81 267.3L1078.81 266.088L1077.08 266.088L1077.08 264.18L1075.58 264.42ZM1083.27 265.896C1081.39 265.896 1079.85 267.264 1079.85 269.532C1079.85 271.8 1081.39 273.18 1083.27 273.18C1085.14 273.18 1086.69 271.8 1086.69 269.532C1086.69 267.264 1085.14 265.896 1083.27 265.896ZM1083.27 267.192C1084.3 267.192 1085.17 267.948 1085.17 269.532C1085.17 271.116 1084.3 271.884 1083.27 271.884C1082.23 271.884 1081.36 271.116 1081.36 269.532C1081.36 267.948 1082.23 267.192 1083.27 267.192ZM1095.82 267.252C1096.67 267.252 1097.32 267.732 1097.32 269.016L1097.32 273L1098.82 273L1098.82 268.368C1098.82 266.508 1097.68 265.896 1096.42 265.896C1095.65 265.896 1094.68 266.208 1094.16 267.24C1093.79 266.256 1092.92 265.896 1091.99 265.896C1091.16 265.896 1090.17 266.22 1089.68 267.108L1089.68 266.088L1088.18 266.088L1088.18 273L1089.68 273L1089.68 269.052C1089.68 267.816 1090.38 267.252 1091.34 267.252C1092.2 267.252 1092.84 267.732 1092.84 269.016L1092.84 273L1094.34 273L1094.34 269.052C1094.34 267.816 1094.97 267.252 1095.82 267.252ZM1103.72 267.192C1104.69 267.192 1105.46 267.648 1105.58 268.8L1101.82 268.8C1102.02 267.732 1102.72 267.192 1103.72 267.192ZM1106.99 269.868L1106.99 269.376C1106.99 267.336 1105.65 265.896 1103.78 265.896C1101.77 265.896 1100.25 267.3 1100.25 269.52C1100.25 271.8 1101.83 273.18 1103.87 273.18C1105.14 273.18 1106.68 272.448 1106.94 270.852L1105.55 270.612C1105.4 271.404 1104.94 271.884 1103.81 271.884C1102.56 271.884 1101.88 271.08 1101.77 269.868L1106.99 269.868ZM1111.79 267.516C1112.16 267.516 1112.42 267.564 1112.69 267.672L1112.83 265.992C1112.69 265.92 1112.48 265.896 1112.3 265.896C1111.62 265.896 1110.54 266.292 1109.97 267.744L1109.97 266.088L1108.47 266.088L1108.47 273L1109.97 273L1109.97 269.976C1109.97 268.056 1110.81 267.516 1111.79 267.516ZM1123.58 268.776C1123.32 266.916 1121.85 265.896 1120.24 265.896C1118.26 265.896 1116.76 267.3 1116.76 269.532C1116.76 271.668 1118.24 273.18 1120.35 273.18C1121.68 273.18 1123.24 272.448 1123.56 270.336L1122.2 270.096C1122.04 271.272 1121.39 271.872 1120.34 271.872C1118.93 271.872 1118.27 270.804 1118.27 269.532C1118.27 267.996 1119.11 267.192 1120.17 267.192C1121.13 267.192 1121.93 267.708 1122.1 269.016L1123.58 268.776ZM1127.97 265.896C1126.1 265.896 1124.55 267.264 1124.55 269.532C1124.55 271.8 1126.1 273.18 1127.97 273.18C1129.85 273.18 1131.39 271.8 1131.39 269.532C1131.39 267.264 1129.85 265.896 1127.97 265.896ZM1127.97 267.192C1129.01 267.192 1129.88 267.948 1129.88 269.532C1129.88 271.116 1129.01 271.884 1127.97 271.884C1126.94 271.884 1126.07 271.116 1126.07 269.532C1126.07 267.948 1126.94 267.192 1127.97 267.192ZM1136.09 267.252C1136.9 267.252 1137.55 267.732 1137.55 269.016L1137.55 273L1139.05 273L1139.05 268.368C1139.05 266.508 1137.88 265.896 1136.64 265.896C1135.82 265.896 1134.88 266.232 1134.38 267.108L1134.38 266.088L1132.88 266.088L1132.88 273L1134.38 273L1134.38 269.052C1134.38 267.816 1135.09 267.252 1136.09 267.252ZM1141.31 273L1142.81 273L1142.81 267.3L1144.52 267.3L1144.52 266.088L1142.81 266.088L1142.81 265.812C1142.81 265.152 1143 264.804 1143.64 264.804C1143.8 264.804 1143.95 264.816 1144.09 264.84L1144.2 263.568C1144.01 263.508 1143.76 263.472 1143.47 263.472C1142.17 263.472 1141.31 264.288 1141.31 265.824L1141.31 266.088L1140.36 266.088L1140.36 267.3L1141.31 267.3L1141.31 273ZM1145.59 266.088L1145.59 273L1147.09 273L1147.09 266.088L1145.59 266.088ZM1146.33 263.1C1145.83 263.1 1145.43 263.508 1145.43 264C1145.43 264.492 1145.83 264.9 1146.33 264.9C1146.83 264.9 1147.23 264.492 1147.23 264C1147.23 263.508 1146.83 263.1 1146.33 263.1ZM1152.32 267.516C1152.69 267.516 1152.96 267.564 1153.22 267.672L1153.36 265.992C1153.22 265.92 1153.02 265.896 1152.84 265.896C1152.15 265.896 1151.07 266.292 1150.51 267.744L1150.51 266.088L1149.01 266.088L1149.01 273L1150.51 273L1150.51 269.976C1150.51 268.056 1151.35 267.516 1152.32 267.516ZM1162.14 267.252C1162.99 267.252 1163.64 267.732 1163.64 269.016L1163.64 273L1165.14 273L1165.14 268.368C1165.14 266.508 1164 265.896 1162.74 265.896C1161.97 265.896 1161 266.208 1160.48 267.24C1160.11 266.256 1159.23 265.896 1158.31 265.896C1157.48 265.896 1156.49 266.22 1155.99 267.108L1155.99 266.088L1154.49 266.088L1154.49 273L1155.99 273L1155.99 269.052C1155.99 267.816 1156.7 267.252 1157.66 267.252C1158.51 267.252 1159.16 267.732 1159.16 269.016L1159.16 273L1160.66 273L1160.66 269.052C1160.66 267.816 1161.29 267.252 1162.14 267.252ZM1166.85 268.032C1166.85 268.992 1167.41 269.7 1168.58 269.952L1169.84 270.228C1170.71 270.42 1170.95 270.672 1170.95 271.08C1170.95 271.656 1170.38 271.98 1169.55 271.98C1168.58 271.98 1167.95 271.524 1167.85 270.672L1166.52 270.912C1166.75 272.52 1168.25 273.18 1169.59 273.18C1170.92 273.18 1172.34 272.436 1172.34 270.936C1172.34 269.976 1171.77 269.328 1170.55 269.064L1169.18 268.764C1168.49 268.608 1168.25 268.272 1168.25 267.912C1168.25 267.408 1168.73 267.096 1169.41 267.096C1170.24 267.096 1170.85 267.396 1170.9 268.296L1172.23 268.056C1171.83 266.508 1170.79 265.896 1169.4 265.896C1168.27 265.896 1166.85 266.52 1166.85 268.032Z" fill="#FF5B24"/>
<path d="M87.0824 269.616L87.0704 269.712C86.9264 270.852 86.0024 271.644 84.5864 271.644C83.0984 271.644 81.6104 270.756 81.6104 268.536C81.6104 266.424 82.8464 265.356 84.5024 265.356C85.7624 265.356 86.8304 265.836 87.0344 267.336L88.6184 267.096C88.2704 264.588 86.0984 263.82 84.5984 263.82C81.9104 263.82 79.9184 265.752 79.9184 268.536C79.9184 271.2 81.8744 273.18 84.1544 273.18C85.6064 273.18 86.6384 272.28 87.1184 271.32L87.1304 271.32L87.4064 273L88.7384 273L88.7384 268.2L84.7184 268.2L84.7184 269.616L87.0824 269.616ZM93.7089 267.192C94.6809 267.192 95.4489 267.648 95.5689 268.8L91.8129 268.8C92.0169 267.732 92.7129 267.192 93.7089 267.192ZM96.9849 269.868L96.9849 269.376C96.9849 267.336 95.6409 265.896 93.7689 265.896C91.7649 265.896 90.2409 267.3 90.2409 269.52C90.2409 271.8 91.8249 273.18 93.8649 273.18C95.1369 273.18 96.6729 272.448 96.9369 270.852L95.5449 270.612C95.3889 271.404 94.9329 271.884 93.8049 271.884C92.5569 271.884 91.8729 271.08 91.7649 269.868L96.9849 269.868ZM98.9939 264.42L98.9939 266.088L97.7099 266.088L97.7099 267.3L98.9939 267.3L98.9939 271.056C98.9939 272.328 99.6299 273.12 101.01 273.12C101.43 273.12 101.922 273.012 102.282 272.904L102.042 271.692C101.766 271.764 101.598 271.8 101.322 271.8C100.71 271.8 100.494 271.524 100.494 270.984L100.494 267.3L102.222 267.3L102.222 266.088L100.494 266.088L100.494 264.18L98.9939 264.42ZM109.579 273.18C110.815 273.18 111.571 272.424 111.919 271.572L111.919 273L113.419 273L113.419 266.088L111.919 266.088L111.919 267.444C111.427 266.352 110.671 265.896 109.591 265.896C108.139 265.896 106.543 267.06 106.543 269.472C106.543 272.004 108.151 273.18 109.579 273.18ZM109.999 267.192C111.007 267.192 111.919 267.96 111.919 269.556C111.919 271.2 111.007 271.872 109.987 271.872C109.039 271.872 108.055 271.164 108.055 269.556C108.055 267.924 109.051 267.192 109.999 267.192ZM121.725 268.776C121.473 266.916 119.997 265.896 118.389 265.896C116.409 265.896 114.909 267.3 114.909 269.532C114.909 271.668 116.385 273.18 118.497 273.18C119.829 273.18 121.389 272.448 121.713 270.336L120.345 270.096C120.189 271.272 119.541 271.872 118.485 271.872C117.081 271.872 116.421 270.804 116.421 269.532C116.421 267.996 117.261 267.192 118.317 267.192C119.277 267.192 120.081 267.708 120.249 269.016L121.725 268.776ZM129.518 268.776C129.266 266.916 127.79 265.896 126.182 265.896C124.202 265.896 122.702 267.3 122.702 269.532C122.702 271.668 124.178 273.18 126.29 273.18C127.622 273.18 129.182 272.448 129.506 270.336L128.138 270.096C127.982 271.272 127.334 271.872 126.278 271.872C124.874 271.872 124.214 270.804 124.214 269.532C124.214 267.996 125.054 267.192 126.11 267.192C127.07 267.192 127.874 267.708 128.042 269.016L129.518 268.776ZM133.963 267.192C134.935 267.192 135.703 267.648 135.823 268.8L132.067 268.8C132.271 267.732 132.967 267.192 133.963 267.192ZM137.239 269.868L137.239 269.376C137.239 267.336 135.895 265.896 134.023 265.896C132.019 265.896 130.495 267.3 130.495 269.52C130.495 271.8 132.079 273.18 134.119 273.18C135.391 273.18 136.927 272.448 137.191 270.852L135.799 270.612C135.643 271.404 135.187 271.884 134.059 271.884C132.811 271.884 132.127 271.08 132.019 269.868L137.239 269.868ZM138.576 268.032C138.576 268.992 139.128 269.7 140.304 269.952L141.564 270.228C142.428 270.42 142.668 270.672 142.668 271.08C142.668 271.656 142.104 271.98 141.276 271.98C140.304 271.98 139.668 271.524 139.572 270.672L138.24 270.912C138.468 272.52 139.968 273.18 141.312 273.18C142.644 273.18 144.06 272.436 144.06 270.936C144.06 269.976 143.496 269.328 142.272 269.064L140.904 268.764C140.208 268.608 139.968 268.272 139.968 267.912C139.968 267.408 140.448 267.096 141.132 267.096C141.96 267.096 142.572 267.396 142.62 268.296L143.952 268.056C143.556 266.508 142.512 265.896 141.12 265.896C139.992 265.896 138.576 266.52 138.576 268.032ZM145.384 268.032C145.384 268.992 145.936 269.7 147.112 269.952L148.372 270.228C149.236 270.42 149.476 270.672 149.476 271.08C149.476 271.656 148.912 271.98 148.084 271.98C147.112 271.98 146.476 271.524 146.38 270.672L145.048 270.912C145.276 272.52 146.776 273.18 148.12 273.18C149.452 273.18 150.868 272.436 150.868 270.936C150.868 269.976 150.304 269.328 149.08 269.064L147.712 268.764C147.016 268.608 146.776 268.272 146.776 267.912C146.776 267.408 147.256 267.096 147.94 267.096C148.768 267.096 149.38 267.396 149.428 268.296L150.76 268.056C150.364 266.508 149.32 265.896 147.928 265.896C146.8 265.896 145.384 266.52 145.384 268.032ZM156.099 264.42L156.099 266.088L154.815 266.088L154.815 267.3L156.099 267.3L156.099 271.056C156.099 272.328 156.735 273.12 158.115 273.12C158.535 273.12 159.027 273.012 159.387 272.904L159.147 271.692C158.871 271.764 158.703 271.8 158.427 271.8C157.815 271.8 157.599 271.524 157.599 270.984L157.599 267.3L159.327 267.3L159.327 266.088L157.599 266.088L157.599 264.18L156.099 264.42ZM163.786 265.896C161.914 265.896 160.366 267.264 160.366 269.532C160.366 271.8 161.914 273.18 163.786 273.18C165.658 273.18 167.206 271.8 167.206 269.532C167.206 267.264 165.658 265.896 163.786 265.896ZM163.786 267.192C164.818 267.192 165.694 267.948 165.694 269.532C165.694 271.116 164.818 271.884 163.786 271.884C162.754 271.884 161.878 271.116 161.878 269.532C161.878 267.948 162.754 267.192 163.786 267.192ZM168.696 273L170.196 273L170.196 271.344L171.468 269.916L173.532 273L175.092 273L172.32 268.944L174.864 266.088L173.232 266.088L170.196 269.664L170.196 263.7L168.696 263.7L168.696 273ZM179.092 267.192C180.064 267.192 180.832 267.648 180.952 268.8L177.196 268.8C177.4 267.732 178.096 267.192 179.092 267.192ZM182.368 269.868L182.368 269.376C182.368 267.336 181.024 265.896 179.152 265.896C177.148 265.896 175.624 267.3 175.624 269.52C175.624 271.8 177.208 273.18 179.248 273.18C180.52 273.18 182.056 272.448 182.32 270.852L180.928 270.612C180.772 271.404 180.316 271.884 179.188 271.884C177.94 271.884 177.256 271.08 177.148 269.868L182.368 269.868ZM187.053 267.252C187.869 267.252 188.517 267.732 188.517 269.016L188.517 273L190.017 273L190.017 268.368C190.017 266.508 188.841 265.896 187.605 265.896C186.789 265.896 185.841 266.232 185.349 267.108L185.349 266.088L183.849 266.088L183.849 273L185.349 273L185.349 269.052C185.349 267.816 186.057 267.252 187.053 267.252Z" fill="#FF5B24"/>
<path d="M238.906 264L238.906 273L240.478 273L240.478 269.568L241.618 269.568C242.59 269.568 243.154 269.952 243.298 270.78L243.538 272.172C243.61 272.616 243.814 272.856 244.054 273L245.95 273C245.614 272.796 245.35 272.436 245.242 272.016L244.87 270.564C244.654 269.712 244.246 269.316 243.658 269.076C244.486 268.596 245.122 267.768 245.122 266.724C245.122 265.044 243.994 264 242.026 264L238.906 264ZM241.99 265.404C242.83 265.404 243.442 265.896 243.442 266.796C243.442 267.588 242.89 268.164 242.002 268.164L240.478 268.164L240.478 265.404L241.99 265.404ZM249.732 267.192C250.704 267.192 251.472 267.648 251.592 268.8L247.836 268.8C248.04 267.732 248.736 267.192 249.732 267.192ZM253.008 269.868L253.008 269.376C253.008 267.336 251.664 265.896 249.792 265.896C247.788 265.896 246.264 267.3 246.264 269.52C246.264 271.8 247.848 273.18 249.888 273.18C251.16 273.18 252.696 272.448 252.96 270.852L251.568 270.612C251.412 271.404 250.956 271.884 249.828 271.884C248.58 271.884 247.896 271.08 247.788 269.868L253.008 269.868ZM257.033 272.604C258.245 272.604 258.881 271.812 259.253 271.056L259.253 272.088C259.253 273.552 258.641 274.152 257.309 274.152C256.469 274.152 255.665 273.912 255.533 272.916L254.081 273.156C254.429 274.908 256.001 275.496 257.249 275.496C259.457 275.496 260.753 274.344 260.753 272.028L260.753 266.076L259.253 266.076L259.253 267.42C258.725 266.352 258.065 265.896 257.153 265.896C255.593 265.896 254.117 266.952 254.117 269.148C254.117 271.5 255.617 272.604 257.033 272.604ZM257.417 267.192C258.425 267.192 259.253 267.924 259.253 269.244C259.253 270.636 258.425 271.296 257.417 271.296C256.445 271.296 255.629 270.636 255.629 269.232C255.629 267.876 256.481 267.192 257.417 267.192ZM262.669 266.088L262.669 273L264.169 273L264.169 266.088L262.669 266.088ZM263.413 263.1C262.909 263.1 262.513 263.508 262.513 264C262.513 264.492 262.909 264.9 263.413 264.9C263.917 264.9 264.313 264.492 264.313 264C264.313 263.508 263.917 263.1 263.413 263.1ZM265.947 268.032C265.947 268.992 266.499 269.7 267.675 269.952L268.935 270.228C269.799 270.42 270.039 270.672 270.039 271.08C270.039 271.656 269.475 271.98 268.647 271.98C267.675 271.98 267.039 271.524 266.943 270.672L265.611 270.912C265.839 272.52 267.339 273.18 268.683 273.18C270.015 273.18 271.431 272.436 271.431 270.936C271.431 269.976 270.867 269.328 269.643 269.064L268.275 268.764C267.579 268.608 267.339 268.272 267.339 267.912C267.339 267.408 267.819 267.096 268.503 267.096C269.331 267.096 269.943 267.396 269.991 268.296L271.323 268.056C270.927 266.508 269.883 265.896 268.491 265.896C267.363 265.896 265.947 266.52 265.947 268.032ZM273.427 264.42L273.427 266.088L272.143 266.088L272.143 267.3L273.427 267.3L273.427 271.056C273.427 272.328 274.063 273.12 275.443 273.12C275.863 273.12 276.355 273.012 276.715 272.904L276.475 271.692C276.199 271.764 276.031 271.8 275.755 271.8C275.143 271.8 274.927 271.524 274.927 270.984L274.927 267.3L276.655 267.3L276.655 266.088L274.927 266.088L274.927 264.18L273.427 264.42ZM281.438 267.516C281.81 267.516 282.074 267.564 282.338 267.672L282.482 265.992C282.338 265.92 282.134 265.896 281.954 265.896C281.27 265.896 280.19 266.292 279.626 267.744L279.626 266.088L278.126 266.088L278.126 273L279.626 273L279.626 269.976C279.626 268.056 280.466 267.516 281.438 267.516ZM284.222 275.4C285.566 275.4 286.43 274.692 286.97 273.288L289.73 266.088L288.062 266.088L286.322 271.488L284.498 266.088L282.83 266.088L285.374 272.472C285.722 273.348 285.398 274.152 284.366 274.152C283.826 274.152 283.49 273.984 283.274 273.852L283.034 275.148C283.358 275.304 283.766 275.4 284.222 275.4ZM233.77 286.088L232.102 286.088L230.626 291.128L228.958 286.088L227.842 286.088L226.186 291.104L224.698 286.088L223.03 286.088L225.514 293L226.81 293L228.406 288.632L229.99 293L231.286 293L233.77 286.088ZM237.559 293.18C238.795 293.18 239.551 292.424 239.899 291.572L239.899 293L241.399 293L241.399 286.088L239.899 286.088L239.899 287.444C239.407 286.352 238.651 285.896 237.571 285.896C236.119 285.896 234.523 287.06 234.523 289.472C234.523 292.004 236.131 293.18 237.559 293.18ZM237.979 287.192C238.987 287.192 239.899 287.96 239.899 289.556C239.899 291.2 238.987 291.872 237.967 291.872C237.019 291.872 236.035 291.164 236.035 289.556C236.035 287.924 237.031 287.192 237.979 287.192ZM243.177 288.032C243.177 288.992 243.729 289.7 244.905 289.952L246.165 290.228C247.029 290.42 247.269 290.672 247.269 291.08C247.269 291.656 246.705 291.98 245.877 291.98C244.905 291.98 244.269 291.524 244.173 290.672L242.841 290.912C243.069 292.52 244.569 293.18 245.913 293.18C247.245 293.18 248.661 292.436 248.661 290.936C248.661 289.976 248.097 289.328 246.873 289.064L245.505 288.764C244.809 288.608 244.569 288.272 244.569 287.912C244.569 287.408 245.049 287.096 245.733 287.096C246.561 287.096 247.173 287.396 247.221 288.296L248.553 288.056C248.157 286.508 247.113 285.896 245.721 285.896C244.593 285.896 243.177 286.52 243.177 288.032ZM250.13 283.7L250.13 293L251.63 293L251.63 289.052C251.63 287.816 252.338 287.252 253.346 287.252C254.15 287.252 254.798 287.732 254.798 289.016L254.798 293L256.298 293L256.298 288.368C256.298 286.508 255.158 285.896 253.838 285.896C253.106 285.896 252.122 286.22 251.63 287.108L251.63 283.7L250.13 283.7ZM258.157 286.088L258.157 293L259.657 293L259.657 286.088L258.157 286.088ZM258.901 283.1C258.397 283.1 258.001 283.508 258.001 284C258.001 284.492 258.397 284.9 258.901 284.9C259.405 284.9 259.801 284.492 259.801 284C259.801 283.508 259.405 283.1 258.901 283.1ZM264.783 287.252C265.599 287.252 266.247 287.732 266.247 289.016L266.247 293L267.747 293L267.747 288.368C267.747 286.508 266.571 285.896 265.335 285.896C264.519 285.896 263.571 286.232 263.079 287.108L263.079 286.088L261.579 286.088L261.579 293L263.079 293L263.079 289.052C263.079 287.816 263.787 287.252 264.783 287.252ZM272.15 292.604C273.362 292.604 273.998 291.812 274.37 291.056L274.37 292.088C274.37 293.552 273.758 294.152 272.426 294.152C271.586 294.152 270.782 293.912 270.65 292.916L269.198 293.156C269.546 294.908 271.118 295.496 272.366 295.496C274.574 295.496 275.87 294.344 275.87 292.028L275.87 286.076L274.37 286.076L274.37 287.42C273.842 286.352 273.182 285.896 272.27 285.896C270.71 285.896 269.234 286.952 269.234 289.148C269.234 291.5 270.734 292.604 272.15 292.604ZM272.534 287.192C273.542 287.192 274.37 287.924 274.37 289.244C274.37 290.636 273.542 291.296 272.534 291.296C271.562 291.296 270.746 290.636 270.746 289.232C270.746 287.876 271.598 287.192 272.534 287.192ZM283.673 293.18C284.909 293.18 285.665 292.424 286.013 291.572L286.013 293L287.513 293L287.513 286.088L286.013 286.088L286.013 287.444C285.521 286.352 284.765 285.896 283.685 285.896C282.233 285.896 280.637 287.06 280.637 289.472C280.637 292.004 282.245 293.18 283.673 293.18ZM284.093 287.192C285.101 287.192 286.013 287.96 286.013 289.556C286.013 291.2 285.101 291.872 284.081 291.872C283.133 291.872 282.149 291.164 282.149 289.556C282.149 287.924 283.145 287.192 284.093 287.192ZM292.639 287.252C293.455 287.252 294.103 287.732 294.103 289.016L294.103 293L295.603 293L295.603 288.368C295.603 286.508 294.427 285.896 293.191 285.896C292.375 285.896 291.427 286.232 290.935 287.108L290.935 286.088L289.435 286.088L289.435 293L290.935 293L290.935 289.052C290.935 287.816 291.643 287.252 292.639 287.252ZM303.954 283.7L302.454 283.7L302.454 287.444C301.962 286.352 301.218 285.896 300.282 285.896C298.674 285.896 297.078 287.06 297.078 289.472C297.078 292.004 298.686 293.18 300.09 293.18C301.35 293.18 302.106 292.52 302.454 291.692L302.454 293L303.954 293L303.954 283.7ZM300.534 287.192C301.542 287.192 302.454 287.996 302.454 289.556C302.454 291.164 301.542 291.872 300.522 291.872C299.574 291.872 298.59 291.128 298.59 289.556C298.59 287.96 299.586 287.192 300.534 287.192ZM222.354 308.776C222.102 306.916 220.626 305.896 219.018 305.896C217.038 305.896 215.538 307.3 215.538 309.532C215.538 311.668 217.014 313.18 219.126 313.18C220.458 313.18 222.018 312.448 222.342 310.336L220.974 310.096C220.818 311.272 220.17 311.872 219.114 311.872C217.71 311.872 217.05 310.804 217.05 309.532C217.05 307.996 217.89 307.192 218.946 307.192C219.906 307.192 220.71 307.708 220.878 309.016L222.354 308.776ZM229.895 313L229.895 306.088L228.395 306.088L228.395 310.108C228.395 311.284 227.615 311.824 226.607 311.824C225.683 311.824 225.227 311.416 225.227 310.348L225.227 306.088L223.727 306.088L223.727 310.912C223.727 312.508 224.879 313.18 226.031 313.18C226.895 313.18 227.855 312.784 228.395 311.836L228.395 313L229.895 313ZM232.318 304.42L232.318 306.088L231.034 306.088L231.034 307.3L232.318 307.3L232.318 311.056C232.318 312.328 232.954 313.12 234.334 313.12C234.754 313.12 235.246 313.012 235.606 312.904L235.366 311.692C235.09 311.764 234.922 311.8 234.646 311.8C234.034 311.8 233.818 311.524 233.818 310.984L233.818 307.3L235.546 307.3L235.546 306.088L233.818 306.088L233.818 304.18L232.318 304.42ZM240.005 305.896C238.133 305.896 236.585 307.264 236.585 309.532C236.585 311.8 238.133 313.18 240.005 313.18C241.877 313.18 243.425 311.8 243.425 309.532C243.425 307.264 241.877 305.896 240.005 305.896ZM240.005 307.192C241.037 307.192 241.913 307.948 241.913 309.532C241.913 311.116 241.037 311.884 240.005 311.884C238.973 311.884 238.097 311.116 238.097 309.532C238.097 307.948 238.973 307.192 240.005 307.192ZM252.559 307.252C253.411 307.252 254.059 307.732 254.059 309.016L254.059 313L255.559 313L255.559 308.368C255.559 306.508 254.419 305.896 253.159 305.896C252.391 305.896 251.419 306.208 250.903 307.24C250.531 306.256 249.655 305.896 248.731 305.896C247.903 305.896 246.907 306.22 246.415 307.108L246.415 306.088L244.915 306.088L244.915 313L246.415 313L246.415 309.052C246.415 307.816 247.123 307.252 248.083 307.252C248.935 307.252 249.583 307.732 249.583 309.016L249.583 313L251.083 313L251.083 309.052C251.083 307.816 251.707 307.252 252.559 307.252ZM260.455 307.192C261.427 307.192 262.195 307.648 262.315 308.8L258.559 308.8C258.763 307.732 259.459 307.192 260.455 307.192ZM263.731 309.868L263.731 309.376C263.731 307.336 262.387 305.896 260.515 305.896C258.511 305.896 256.987 307.3 256.987 309.52C256.987 311.8 258.571 313.18 260.611 313.18C261.883 313.18 263.419 312.448 263.683 310.852L262.291 310.612C262.135 311.404 261.679 311.884 260.551 311.884C259.303 311.884 258.619 311.08 258.511 309.868L263.731 309.868ZM268.524 307.516C268.896 307.516 269.16 307.564 269.424 307.672L269.568 305.992C269.424 305.92 269.22 305.896 269.04 305.896C268.356 305.896 267.276 306.292 266.712 307.744L266.712 306.088L265.212 306.088L265.212 313L266.712 313L266.712 309.976C266.712 308.056 267.552 307.516 268.524 307.516ZM273.931 303.7L273.931 313L275.431 313L275.431 303.7L273.931 303.7ZM280.341 305.896C278.469 305.896 276.921 307.264 276.921 309.532C276.921 311.8 278.469 313.18 280.341 313.18C282.213 313.18 283.761 311.8 283.761 309.532C283.761 307.264 282.213 305.896 280.341 305.896ZM280.341 307.192C281.373 307.192 282.249 307.948 282.249 309.532C282.249 311.116 281.373 311.884 280.341 311.884C279.309 311.884 278.433 311.116 278.433 309.532C278.433 307.948 279.309 307.192 280.341 307.192ZM288.239 305.896C286.367 305.896 284.819 307.264 284.819 309.532C284.819 311.8 286.367 313.18 288.239 313.18C290.111 313.18 291.659 311.8 291.659 309.532C291.659 307.264 290.111 305.896 288.239 305.896ZM288.239 307.192C289.271 307.192 290.147 307.948 290.147 309.532C290.147 311.116 289.271 311.884 288.239 311.884C287.207 311.884 286.331 311.116 286.331 309.532C286.331 307.948 287.207 307.192 288.239 307.192ZM293.149 313L294.649 313L294.649 311.344L295.921 309.916L297.985 313L299.545 313L296.773 308.944L299.317 306.088L297.685 306.088L294.649 309.664L294.649 303.7L293.149 303.7L293.149 313ZM306.641 313L306.641 306.088L305.141 306.088L305.141 310.108C305.141 311.284 304.361 311.824 303.353 311.824C302.429 311.824 301.973 311.416 301.973 310.348L301.973 306.088L300.473 306.088L300.473 310.912C300.473 312.508 301.625 313.18 302.777 313.18C303.641 313.18 304.601 312.784 305.141 311.836L305.141 313L306.641 313ZM312.376 305.896C311.2 305.896 310.48 306.64 310.036 307.444L310.036 306.088L308.536 306.088L308.536 315.4L310.036 315.4L310.036 311.692C310.612 312.676 311.356 313.18 312.232 313.18C313.84 313.18 315.412 311.956 315.412 309.436C315.412 307.024 313.78 305.896 312.376 305.896ZM311.968 307.192C312.916 307.192 313.9 307.948 313.9 309.52C313.9 311.116 312.916 311.872 311.956 311.872C310.948 311.872 310.036 311.056 310.036 309.52C310.036 307.912 310.948 307.192 311.968 307.192Z" fill="#FF5B24"/>
<path d="M344.983 269.616L344.971 269.712C344.827 270.852 343.903 271.644 342.487 271.644C340.999 271.644 339.511 270.756 339.511 268.536C339.511 266.424 340.747 265.356 342.403 265.356C343.663 265.356 344.731 265.836 344.935 267.336L346.519 267.096C346.171 264.588 343.999 263.82 342.499 263.82C339.811 263.82 337.819 265.752 337.819 268.536C337.819 271.2 339.775 273.18 342.055 273.18C343.507 273.18 344.539 272.28 345.019 271.32L345.031 271.32L345.307 273L346.639 273L346.639 268.2L342.619 268.2L342.619 269.616L344.983 269.616ZM351.609 267.192C352.581 267.192 353.349 267.648 353.469 268.8L349.713 268.8C349.917 267.732 350.613 267.192 351.609 267.192ZM354.885 269.868L354.885 269.376C354.885 267.336 353.541 265.896 351.669 265.896C349.665 265.896 348.141 267.3 348.141 269.52C348.141 271.8 349.725 273.18 351.765 273.18C353.037 273.18 354.573 272.448 354.837 270.852L353.445 270.612C353.289 271.404 352.833 271.884 351.705 271.884C350.457 271.884 349.773 271.08 349.665 269.868L354.885 269.868ZM356.894 264.42L356.894 266.088L355.61 266.088L355.61 267.3L356.894 267.3L356.894 271.056C356.894 272.328 357.53 273.12 358.91 273.12C359.33 273.12 359.822 273.012 360.182 272.904L359.942 271.692C359.666 271.764 359.498 271.8 359.222 271.8C358.61 271.8 358.394 271.524 358.394 270.984L358.394 267.3L360.122 267.3L360.122 266.088L358.394 266.088L358.394 264.18L356.894 264.42ZM368.139 267.516C368.511 267.516 368.775 267.564 369.039 267.672L369.183 265.992C369.039 265.92 368.835 265.896 368.655 265.896C367.971 265.896 366.891 266.292 366.327 267.744L366.327 266.088L364.827 266.088L364.827 273L366.327 273L366.327 269.976C366.327 268.056 367.167 267.516 368.139 267.516ZM373.348 267.192C374.32 267.192 375.088 267.648 375.208 268.8L371.452 268.8C371.656 267.732 372.352 267.192 373.348 267.192ZM376.624 269.868L376.624 269.376C376.624 267.336 375.28 265.896 373.408 265.896C371.404 265.896 369.88 267.3 369.88 269.52C369.88 271.8 371.464 273.18 373.504 273.18C374.776 273.18 376.312 272.448 376.576 270.852L375.184 270.612C375.028 271.404 374.572 271.884 373.444 271.884C372.196 271.884 371.512 271.08 371.404 269.868L376.624 269.868ZM384.489 268.776C384.237 266.916 382.761 265.896 381.153 265.896C379.173 265.896 377.673 267.3 377.673 269.532C377.673 271.668 379.149 273.18 381.261 273.18C382.593 273.18 384.153 272.448 384.477 270.336L383.109 270.096C382.953 271.272 382.305 271.872 381.249 271.872C379.845 271.872 379.185 270.804 379.185 269.532C379.185 267.996 380.025 267.192 381.081 267.192C382.041 267.192 382.845 267.708 383.013 269.016L384.489 268.776ZM385.897 266.088L385.897 273L387.397 273L387.397 266.088L385.897 266.088ZM386.641 263.1C386.137 263.1 385.741 263.508 385.741 264C385.741 264.492 386.137 264.9 386.641 264.9C387.145 264.9 387.541 264.492 387.541 264C387.541 263.508 387.145 263.1 386.641 263.1ZM393.159 265.896C391.983 265.896 391.263 266.64 390.819 267.444L390.819 266.088L389.319 266.088L389.319 275.4L390.819 275.4L390.819 271.692C391.395 272.676 392.139 273.18 393.015 273.18C394.623 273.18 396.195 271.956 396.195 269.436C396.195 267.024 394.563 265.896 393.159 265.896ZM392.751 267.192C393.699 267.192 394.683 267.948 394.683 269.52C394.683 271.116 393.699 271.872 392.739 271.872C391.731 271.872 390.819 271.056 390.819 269.52C390.819 267.912 391.731 267.192 392.751 267.192ZM397.733 266.088L397.733 273L399.233 273L399.233 266.088L397.733 266.088ZM398.477 263.1C397.973 263.1 397.577 263.508 397.577 264C397.577 264.492 397.973 264.9 398.477 264.9C398.981 264.9 399.377 264.492 399.377 264C399.377 263.508 398.981 263.1 398.477 263.1ZM404.191 267.192C405.163 267.192 405.931 267.648 406.051 268.8L402.295 268.8C402.499 267.732 403.195 267.192 404.191 267.192ZM407.467 269.868L407.467 269.376C407.467 267.336 406.123 265.896 404.251 265.896C402.247 265.896 400.723 267.3 400.723 269.52C400.723 271.8 402.307 273.18 404.347 273.18C405.619 273.18 407.155 272.448 407.419 270.852L406.027 270.612C405.871 271.404 405.415 271.884 404.287 271.884C403.039 271.884 402.355 271.08 402.247 269.868L407.467 269.868ZM412.152 267.252C412.968 267.252 413.616 267.732 413.616 269.016L413.616 273L415.116 273L415.116 268.368C415.116 266.508 413.94 265.896 412.704 265.896C411.888 265.896 410.94 266.232 410.448 267.108L410.448 266.088L408.948 266.088L408.948 273L410.448 273L410.448 269.052C410.448 267.816 411.156 267.252 412.152 267.252ZM417.504 264.42L417.504 266.088L416.22 266.088L416.22 267.3L417.504 267.3L417.504 271.056C417.504 272.328 418.14 273.12 419.52 273.12C419.94 273.12 420.432 273.012 420.792 272.904L420.552 271.692C420.276 271.764 420.108 271.8 419.832 271.8C419.22 271.8 419.004 271.524 419.004 270.984L419.004 267.3L420.732 267.3L420.732 266.088L419.004 266.088L419.004 264.18L417.504 264.42ZM425.965 264.42L425.965 266.088L424.681 266.088L424.681 267.3L425.965 267.3L425.965 271.056C425.965 272.328 426.601 273.12 427.981 273.12C428.401 273.12 428.893 273.012 429.253 272.904L429.013 271.692C428.737 271.764 428.569 271.8 428.293 271.8C427.681 271.8 427.465 271.524 427.465 270.984L427.465 267.3L429.193 267.3L429.193 266.088L427.465 266.088L427.465 264.18L425.965 264.42ZM433.651 265.896C431.779 265.896 430.231 267.264 430.231 269.532C430.231 271.8 431.779 273.18 433.651 273.18C435.523 273.18 437.071 271.8 437.071 269.532C437.071 267.264 435.523 265.896 433.651 265.896ZM433.651 267.192C434.683 267.192 435.559 267.948 435.559 269.532C435.559 271.116 434.683 271.884 433.651 271.884C432.619 271.884 431.743 271.116 431.743 269.532C431.743 267.948 432.619 267.192 433.651 267.192ZM438.562 273L440.062 273L440.062 271.344L441.334 269.916L443.398 273L444.958 273L442.186 268.944L444.73 266.088L443.098 266.088L440.062 269.664L440.062 263.7L438.562 263.7L438.562 273ZM448.957 267.192C449.929 267.192 450.697 267.648 450.817 268.8L447.061 268.8C447.265 267.732 447.961 267.192 448.957 267.192ZM452.233 269.868L452.233 269.376C452.233 267.336 450.889 265.896 449.017 265.896C447.013 265.896 445.489 267.3 445.489 269.52C445.489 271.8 447.073 273.18 449.113 273.18C450.385 273.18 451.921 272.448 452.185 270.852L450.793 270.612C450.637 271.404 450.181 271.884 449.053 271.884C447.805 271.884 447.121 271.08 447.013 269.868L452.233 269.868ZM456.918 267.252C457.734 267.252 458.382 267.732 458.382 269.016L458.382 273L459.882 273L459.882 268.368C459.882 266.508 458.706 265.896 457.47 265.896C456.654 265.896 455.706 266.232 455.214 267.108L455.214 266.088L453.714 266.088L453.714 273L455.214 273L455.214 269.052C455.214 267.816 455.922 267.252 456.918 267.252Z" fill="#FF5B24"/>
<path d="M1218.24 265.404L1219.85 265.404C1220.87 265.404 1221.45 266.004 1221.45 267.12C1221.45 268.176 1220.87 268.776 1219.83 268.776L1218.24 268.776L1218.24 265.404ZM1216.67 264L1216.67 273L1218.24 273L1218.24 270.18L1219.98 270.18C1221.9 270.18 1223.13 268.836 1223.13 267.096C1223.13 265.08 1221.97 264 1219.97 264L1216.67 264ZM1227.08 273.18C1228.31 273.18 1229.07 272.424 1229.42 271.572L1229.42 273L1230.92 273L1230.92 266.088L1229.42 266.088L1229.42 267.444C1228.92 266.352 1228.17 265.896 1227.09 265.896C1225.64 265.896 1224.04 267.06 1224.04 269.472C1224.04 272.004 1225.65 273.18 1227.08 273.18ZM1227.5 267.192C1228.5 267.192 1229.42 267.96 1229.42 269.556C1229.42 271.2 1228.5 271.872 1227.48 271.872C1226.54 271.872 1225.55 271.164 1225.55 269.556C1225.55 267.924 1226.55 267.192 1227.5 267.192ZM1233.45 275.4C1234.79 275.4 1235.66 274.692 1236.2 273.288L1238.96 266.088L1237.29 266.088L1235.55 271.488L1233.73 266.088L1232.06 266.088L1234.6 272.472C1234.95 273.348 1234.63 274.152 1233.59 274.152C1233.05 274.152 1232.72 273.984 1232.5 273.852L1232.26 275.148C1232.59 275.304 1232.99 275.4 1233.45 275.4ZM1247.75 267.252C1248.6 267.252 1249.25 267.732 1249.25 269.016L1249.25 273L1250.75 273L1250.75 268.368C1250.75 266.508 1249.61 265.896 1248.35 265.896C1247.58 265.896 1246.61 266.208 1246.09 267.24C1245.72 266.256 1244.84 265.896 1243.92 265.896C1243.09 265.896 1242.1 266.22 1241.6 267.108L1241.6 266.088L1240.1 266.088L1240.1 273L1241.6 273L1241.6 269.052C1241.6 267.816 1242.31 267.252 1243.27 267.252C1244.12 267.252 1244.77 267.732 1244.77 269.016L1244.77 273L1246.27 273L1246.27 269.052C1246.27 267.816 1246.9 267.252 1247.75 267.252ZM1255.64 267.192C1256.62 267.192 1257.38 267.648 1257.5 268.8L1253.75 268.8C1253.95 267.732 1254.65 267.192 1255.64 267.192ZM1258.92 269.868L1258.92 269.376C1258.92 267.336 1257.58 265.896 1255.7 265.896C1253.7 265.896 1252.18 267.3 1252.18 269.52C1252.18 271.8 1253.76 273.18 1255.8 273.18C1257.07 273.18 1258.61 272.448 1258.87 270.852L1257.48 270.612C1257.32 271.404 1256.87 271.884 1255.74 271.884C1254.49 271.884 1253.81 271.08 1253.7 269.868L1258.92 269.868ZM1263.61 267.252C1264.42 267.252 1265.07 267.732 1265.07 269.016L1265.07 273L1266.57 273L1266.57 268.368C1266.57 266.508 1265.39 265.896 1264.16 265.896C1263.34 265.896 1262.39 266.232 1261.9 267.108L1261.9 266.088L1260.4 266.088L1260.4 273L1261.9 273L1261.9 269.052C1261.9 267.816 1262.61 267.252 1263.61 267.252ZM1268.96 264.42L1268.96 266.088L1267.67 266.088L1267.67 267.3L1268.96 267.3L1268.96 271.056C1268.96 272.328 1269.59 273.12 1270.97 273.12C1271.39 273.12 1271.88 273.012 1272.24 272.904L1272 271.692C1271.73 271.764 1271.56 271.8 1271.28 271.8C1270.67 271.8 1270.46 271.524 1270.46 270.984L1270.46 267.3L1272.18 267.3L1272.18 266.088L1270.46 266.088L1270.46 264.18L1268.96 264.42ZM1276.89 266.088L1276.89 273L1278.39 273L1278.39 266.088L1276.89 266.088ZM1277.63 263.1C1277.13 263.1 1276.73 263.508 1276.73 264C1276.73 264.492 1277.13 264.9 1277.63 264.9C1278.14 264.9 1278.53 264.492 1278.53 264C1278.53 263.508 1278.14 263.1 1277.63 263.1ZM1280.17 268.032C1280.17 268.992 1280.72 269.7 1281.9 269.952L1283.16 270.228C1284.02 270.42 1284.26 270.672 1284.26 271.08C1284.26 271.656 1283.7 271.98 1282.87 271.98C1281.9 271.98 1281.26 271.524 1281.16 270.672L1279.83 270.912C1280.06 272.52 1281.56 273.18 1282.9 273.18C1284.24 273.18 1285.65 272.436 1285.65 270.936C1285.65 269.976 1285.09 269.328 1283.86 269.064L1282.5 268.764C1281.8 268.608 1281.56 268.272 1281.56 267.912C1281.56 267.408 1282.04 267.096 1282.72 267.096C1283.55 267.096 1284.16 267.396 1284.21 268.296L1285.54 268.056C1285.15 266.508 1284.1 265.896 1282.71 265.896C1281.58 265.896 1280.17 266.52 1280.17 268.032ZM1290.88 264.42L1290.88 266.088L1289.6 266.088L1289.6 267.3L1290.88 267.3L1290.88 271.056C1290.88 272.328 1291.52 273.12 1292.9 273.12C1293.32 273.12 1293.81 273.012 1294.17 272.904L1293.93 271.692C1293.65 271.764 1293.49 271.8 1293.21 271.8C1292.6 271.8 1292.38 271.524 1292.38 270.984L1292.38 267.3L1294.11 267.3L1294.11 266.088L1292.38 266.088L1292.38 264.18L1290.88 264.42ZM1298.89 267.516C1299.27 267.516 1299.53 267.564 1299.79 267.672L1299.94 265.992C1299.79 265.92 1299.59 265.896 1299.41 265.896C1298.73 265.896 1297.65 266.292 1297.08 267.744L1297.08 266.088L1295.58 266.088L1295.58 273L1297.08 273L1297.08 269.976C1297.08 268.056 1297.92 267.516 1298.89 267.516ZM1303.72 273.18C1304.95 273.18 1305.71 272.424 1306.06 271.572L1306.06 273L1307.56 273L1307.56 266.088L1306.06 266.088L1306.06 267.444C1305.57 266.352 1304.81 265.896 1303.73 265.896C1302.28 265.896 1300.68 267.06 1300.68 269.472C1300.68 272.004 1302.29 273.18 1303.72 273.18ZM1304.14 267.192C1305.15 267.192 1306.06 267.96 1306.06 269.556C1306.06 271.2 1305.15 271.872 1304.13 271.872C1303.18 271.872 1302.19 271.164 1302.19 269.556C1302.19 267.924 1303.19 267.192 1304.14 267.192ZM1312.68 267.252C1313.5 267.252 1314.15 267.732 1314.15 269.016L1314.15 273L1315.65 273L1315.65 268.368C1315.65 266.508 1314.47 265.896 1313.24 265.896C1312.42 265.896 1311.47 266.232 1310.98 267.108L1310.98 266.088L1309.48 266.088L1309.48 273L1310.98 273L1310.98 269.052C1310.98 267.816 1311.69 267.252 1312.68 267.252ZM1317.36 268.032C1317.36 268.992 1317.91 269.7 1319.09 269.952L1320.35 270.228C1321.21 270.42 1321.45 270.672 1321.45 271.08C1321.45 271.656 1320.89 271.98 1320.06 271.98C1319.09 271.98 1318.45 271.524 1318.36 270.672L1317.03 270.912C1317.25 272.52 1318.75 273.18 1320.1 273.18C1321.43 273.18 1322.85 272.436 1322.85 270.936C1322.85 269.976 1322.28 269.328 1321.06 269.064L1319.69 268.764C1318.99 268.608 1318.75 268.272 1318.75 267.912C1318.75 267.408 1319.23 267.096 1319.92 267.096C1320.75 267.096 1321.36 267.396 1321.41 268.296L1322.74 268.056C1322.34 266.508 1321.3 265.896 1319.91 265.896C1318.78 265.896 1317.36 266.52 1317.36 268.032ZM1324.71 273L1326.21 273L1326.21 267.3L1327.93 267.3L1327.93 266.088L1326.21 266.088L1326.21 265.812C1326.21 265.104 1326.55 264.732 1327.16 264.732C1327.48 264.732 1327.76 264.78 1328.05 264.864L1328.25 263.7C1327.92 263.58 1327.51 263.472 1327 263.472C1325.62 263.472 1324.71 264.36 1324.71 265.824L1324.71 266.088L1323.76 266.088L1323.76 267.3L1324.71 267.3L1324.71 273ZM1332.03 267.192C1333 267.192 1333.77 267.648 1333.89 268.8L1330.13 268.8C1330.34 267.732 1331.03 267.192 1332.03 267.192ZM1335.3 269.868L1335.3 269.376C1335.3 267.336 1333.96 265.896 1332.09 265.896C1330.08 265.896 1328.56 267.3 1328.56 269.52C1328.56 271.8 1330.14 273.18 1332.18 273.18C1333.46 273.18 1334.99 272.448 1335.26 270.852L1333.86 270.612C1333.71 271.404 1333.25 271.884 1332.12 271.884C1330.88 271.884 1330.19 271.08 1330.08 269.868L1335.3 269.868ZM1340.1 267.516C1340.47 267.516 1340.73 267.564 1341 267.672L1341.14 265.992C1341 265.92 1340.79 265.896 1340.61 265.896C1339.93 265.896 1338.85 266.292 1338.28 267.744L1338.28 266.088L1336.78 266.088L1336.78 273L1338.28 273L1338.28 269.976C1338.28 268.056 1339.12 267.516 1340.1 267.516ZM1345.58 267.516C1345.95 267.516 1346.22 267.564 1346.48 267.672L1346.62 265.992C1346.48 265.92 1346.28 265.896 1346.1 265.896C1345.41 265.896 1344.33 266.292 1343.77 267.744L1343.77 266.088L1342.27 266.088L1342.27 273L1343.77 273L1343.77 269.976C1343.77 268.056 1344.61 267.516 1345.58 267.516ZM1350.79 267.192C1351.76 267.192 1352.53 267.648 1352.65 268.8L1348.89 268.8C1349.1 267.732 1349.79 267.192 1350.79 267.192ZM1354.06 269.868L1354.06 269.376C1354.06 267.336 1352.72 265.896 1350.85 265.896C1348.84 265.896 1347.32 267.3 1347.32 269.52C1347.32 271.8 1348.9 273.18 1350.94 273.18C1352.22 273.18 1353.75 272.448 1354.02 270.852L1352.62 270.612C1352.47 271.404 1352.01 271.884 1350.88 271.884C1349.64 271.884 1348.95 271.08 1348.84 269.868L1354.06 269.868ZM1362.04 263.7L1360.54 263.7L1360.54 267.444C1360.05 266.352 1359.3 265.896 1358.37 265.896C1356.76 265.896 1355.16 267.06 1355.16 269.472C1355.16 272.004 1356.77 273.18 1358.17 273.18C1359.43 273.18 1360.19 272.52 1360.54 271.692L1360.54 273L1362.04 273L1362.04 263.7ZM1358.62 267.192C1359.63 267.192 1360.54 267.996 1360.54 269.556C1360.54 271.164 1359.63 271.872 1358.61 271.872C1357.66 271.872 1356.67 271.128 1356.67 269.556C1356.67 267.96 1357.67 267.192 1358.62 267.192Z" fill="#FF5B24"/>
<line x1="933" y1="314" x2="933" y2="173" stroke="#49367E" stroke-width="2" stroke-dasharray="8 8"/>
<path d="M873.484 386L873.484 395L875.056 395L875.056 386L873.484 386ZM876.923 388.412C876.923 391.88 881.903 390.74 881.903 392.648C881.903 393.332 881.375 393.788 880.355 393.788C879.383 393.788 878.267 393.464 878.111 391.928L876.563 392.288C876.803 394.22 878.507 395.18 880.307 395.18C881.903 395.18 883.475 394.268 883.475 392.552C883.475 389.192 878.519 390.416 878.519 388.352C878.519 387.644 879.059 387.212 879.983 387.212C880.787 387.212 881.687 387.572 881.759 388.82L883.343 388.46C883.079 386.6 881.471 385.82 880.055 385.82C878.483 385.82 876.923 386.684 876.923 388.412ZM886.622 387.404L888.23 387.404C889.25 387.404 889.826 388.004 889.826 389.12C889.826 390.176 889.25 390.776 888.206 390.776L886.622 390.776L886.622 387.404ZM885.05 386L885.05 395L886.622 395L886.622 392.18L888.362 392.18C890.282 392.18 891.506 390.836 891.506 389.096C891.506 387.08 890.354 386 888.35 386L885.05 386ZM899.586 389.516C899.958 389.516 900.222 389.564 900.486 389.672L900.63 387.992C900.486 387.92 900.282 387.896 900.102 387.896C899.418 387.896 898.338 388.292 897.774 389.744L897.774 388.088L896.274 388.088L896.274 395L897.774 395L897.774 391.976C897.774 390.056 898.614 389.516 899.586 389.516ZM904.795 389.192C905.767 389.192 906.535 389.648 906.655 390.8L902.899 390.8C903.103 389.732 903.799 389.192 904.795 389.192ZM908.071 391.868L908.071 391.376C908.071 389.336 906.727 387.896 904.855 387.896C902.851 387.896 901.327 389.3 901.327 391.52C901.327 393.8 902.911 395.18 904.951 395.18C906.223 395.18 907.759 394.448 908.023 392.852L906.631 392.612C906.475 393.404 906.019 393.884 904.891 393.884C903.643 393.884 902.959 393.08 902.851 391.868L908.071 391.868ZM915.672 388.088L914.004 388.088L912.228 393.308L910.44 388.088L908.772 388.088L911.532 395L912.912 395L915.672 388.088ZM919.805 387.896C917.933 387.896 916.385 389.264 916.385 391.532C916.385 393.8 917.933 395.18 919.805 395.18C921.677 395.18 923.225 393.8 923.225 391.532C923.225 389.264 921.677 387.896 919.805 387.896ZM919.805 389.192C920.837 389.192 921.713 389.948 921.713 391.532C921.713 393.116 920.837 393.884 919.805 393.884C918.773 393.884 917.897 393.116 917.897 391.532C917.897 389.948 918.773 389.192 919.805 389.192ZM924.716 395L926.216 395L926.216 393.344L927.488 391.916L929.552 395L931.112 395L928.34 390.944L930.884 388.088L929.252 388.088L926.216 391.664L926.216 385.7L924.716 385.7L924.716 395ZM935.111 389.192C936.083 389.192 936.851 389.648 936.971 390.8L933.215 390.8C933.419 389.732 934.115 389.192 935.111 389.192ZM938.387 391.868L938.387 391.376C938.387 389.336 937.043 387.896 935.171 387.896C933.167 387.896 931.643 389.3 931.643 391.52C931.643 393.8 933.227 395.18 935.267 395.18C936.539 395.18 938.075 394.448 938.339 392.852L936.947 392.612C936.791 393.404 936.335 393.884 935.207 393.884C933.959 393.884 933.275 393.08 933.167 391.868L938.387 391.868ZM939.724 390.032C939.724 390.992 940.276 391.7 941.452 391.952L942.712 392.228C943.576 392.42 943.816 392.672 943.816 393.08C943.816 393.656 943.252 393.98 942.424 393.98C941.452 393.98 940.816 393.524 940.72 392.672L939.388 392.912C939.616 394.52 941.116 395.18 942.46 395.18C943.792 395.18 945.208 394.436 945.208 392.936C945.208 391.976 944.644 391.328 943.42 391.064L942.052 390.764C941.356 390.608 941.116 390.272 941.116 389.912C941.116 389.408 941.596 389.096 942.28 389.096C943.108 389.096 943.72 389.396 943.768 390.296L945.1 390.056C944.704 388.508 943.66 387.896 942.268 387.896C941.14 387.896 939.724 388.52 939.724 390.032ZM949.911 388.088L949.911 395L951.411 395L951.411 388.088L949.911 388.088ZM950.655 385.1C950.151 385.1 949.755 385.508 949.755 386C949.755 386.492 950.151 386.9 950.655 386.9C951.159 386.9 951.555 386.492 951.555 386C951.555 385.508 951.159 385.1 950.655 385.1ZM956.537 389.252C957.353 389.252 958.001 389.732 958.001 391.016L958.001 395L959.501 395L959.501 390.368C959.501 388.508 958.325 387.896 957.089 387.896C956.273 387.896 955.325 388.232 954.833 389.108L954.833 388.088L953.333 388.088L953.333 395L954.833 395L954.833 391.052C954.833 389.816 955.541 389.252 956.537 389.252ZM967.48 388.088L965.812 388.088L964.036 393.308L962.248 388.088L960.58 388.088L963.34 395L964.72 395L967.48 388.088ZM971.614 387.896C969.742 387.896 968.194 389.264 968.194 391.532C968.194 393.8 969.742 395.18 971.614 395.18C973.486 395.18 975.034 393.8 975.034 391.532C975.034 389.264 973.486 387.896 971.614 387.896ZM971.614 389.192C972.646 389.192 973.522 389.948 973.522 391.532C973.522 393.116 972.646 393.884 971.614 393.884C970.582 393.884 969.706 393.116 969.706 391.532C969.706 389.948 970.582 389.192 971.614 389.192ZM976.524 388.088L976.524 395L978.024 395L978.024 388.088L976.524 388.088ZM977.268 385.1C976.764 385.1 976.368 385.508 976.368 386C976.368 386.492 976.764 386.9 977.268 386.9C977.772 386.9 978.168 386.492 978.168 386C978.168 385.508 977.772 385.1 977.268 385.1ZM986.33 390.776C986.078 388.916 984.602 387.896 982.994 387.896C981.014 387.896 979.514 389.3 979.514 391.532C979.514 393.668 980.99 395.18 983.102 395.18C984.434 395.18 985.994 394.448 986.318 392.336L984.95 392.096C984.794 393.272 984.146 393.872 983.09 393.872C981.686 393.872 981.026 392.804 981.026 391.532C981.026 389.996 981.866 389.192 982.922 389.192C983.882 389.192 984.686 389.708 984.854 391.016L986.33 390.776ZM990.775 389.192C991.747 389.192 992.515 389.648 992.635 390.8L988.879 390.8C989.083 389.732 989.779 389.192 990.775 389.192ZM994.051 391.868L994.051 391.376C994.051 389.336 992.707 387.896 990.835 387.896C988.831 387.896 987.307 389.3 987.307 391.52C987.307 393.8 988.891 395.18 990.931 395.18C992.203 395.18 993.739 394.448 994.003 392.852L992.611 392.612C992.455 393.404 991.999 393.884 990.871 393.884C989.623 393.884 988.939 393.08 988.831 391.868L994.051 391.868Z" fill="#49367E"/>
<path d="M988.704 296.888C988.704 327.714 963.714 352.705 932.887 352.705C902.06 352.705 877.07 327.714 877.07 296.888C877.07 266.061 902.06 241.071 932.887 241.071C963.714 241.071 988.704 266.061 988.704 296.888Z" fill="#EEEDF3"/>
<path fill-rule="evenodd" clip-rule="evenodd" d="M936.738 352.637C936.737 337.61 936.754 323.432 936.818 319.688C937.13 301.425 955.138 305.316 955.138 305.316L976.979 319.688L976.973 331.259C967.486 343.415 953.074 351.541 936.738 352.637Z" fill="#FFD3BB"/>
<path d="M972.381 331.405L940.099 331.264C936.992 331.251 934.483 328.72 934.496 325.613L934.78 260.535C934.794 257.428 937.325 254.919 940.432 254.933L972.714 255.074C975.821 255.087 978.33 257.618 978.316 260.725L978.032 325.803C978.019 328.91 975.488 331.419 972.381 331.405Z" fill="#FF5A23"/>
<path d="M978.128 321.538L934.592 321.348L934.837 265.162L978.373 265.352L978.128 321.538Z" fill="#FF985F"/>
<line x1="959.003" y1="284.078" x2="960.336" y2="279.975" stroke="#FFF4EC" stroke-width="3.06" stroke-linecap="round" stroke-linejoin="round"/>
<line x1="952.582" y1="287.845" x2="949.093" y2="285.309" stroke="#FFF4EC" stroke-width="3.06" stroke-linecap="round" stroke-linejoin="round"/>
<line x1="1.53" y1="-1.53" x2="5.84342" y2="-1.53" transform="matrix(0.707107 0.707107 0.707107 -0.707107 961.813 292.575)" stroke="#FFF4EC" stroke-width="3.06" stroke-linecap="round" stroke-linejoin="round"/>
<line x1="1.53" y1="-1.53" x2="5.84342" y2="-1.53" transform="matrix(-0.809017 0.587785 0.587785 0.809017 956.548 294.143)" stroke="#FFF4EC" stroke-width="3.06" stroke-linecap="round" stroke-linejoin="round"/>
<line x1="1.53" y1="-1.53" x2="5.84342" y2="-1.53" transform="matrix(1 0 0 -1 962.597 288.658)" stroke="#FFF4EC" stroke-width="3.06" stroke-linecap="round" stroke-linejoin="round"/>
<path d="M941.036 300.905L929.783 299.294C926.76 298.862 924.661 296.061 925.094 293.038C925.526 290.015 928.328 287.916 931.349 288.349L942.603 289.96C945.625 290.392 947.724 293.193 947.292 296.215C946.859 299.238 944.059 301.338 941.036 300.905Z" fill="#FFD3BB"/>
<path d="M939.699 311.22L928.446 309.609C925.423 309.176 923.324 306.375 923.757 303.353C924.189 300.33 926.99 298.231 930.012 298.664L941.266 300.275C944.288 300.707 946.387 303.508 945.955 306.53C945.523 309.553 942.722 311.652 939.699 311.22Z" fill="#FFD3BB"/>
<path d="M939.345 321.542L928.091 319.931C925.069 319.498 922.969 316.697 923.401 313.675C923.834 310.653 926.635 308.554 929.657 308.986L940.911 310.597C943.933 311.029 946.033 313.83 945.6 316.852C945.168 319.875 942.367 321.975 939.345 321.542Z" fill="#FFD3BB"/>
<path fill-rule="evenodd" clip-rule="evenodd" d="M984.786 317.468C982.745 322.611 979.961 327.379 976.567 331.639L968.383 336.238L964.654 339.593C964.265 338.992 963.926 338.508 963.634 338.09C962.41 336.34 961.988 335.736 962.002 332.519C962.049 321.606 970.934 312.797 981.848 312.845L984.786 317.468Z" fill="#FFD3BB"/>
<path fill-rule="evenodd" clip-rule="evenodd" d="M968.579 339.738C966.942 338.538 966.29 336.363 967.227 333.013C969.437 325.108 972.157 322.133 975.387 320.178C978.617 318.223 978.107 313.038 978.107 313.038C978.107 313.038 974.282 307.938 974.367 302.668C974.38 301.901 974.384 301.125 974.387 300.352C974.411 295.816 974.433 291.385 976.152 289.408C977.852 287.453 980.487 286.093 983.292 286.858C986.097 287.623 987.569 290.337 987.372 292.638C987.292 293.576 987.135 294.464 986.977 295.36C986.634 297.304 986.285 299.285 986.692 301.903C986.978 303.741 987.447 304.876 988.011 305.948C985.776 319.469 978.68 331.35 968.579 339.738Z" fill="#FFD3BB"/>
<path d="M719.823 267.216C719.463 265.008 717.567 263.82 715.683 263.82C713.115 263.82 710.991 265.68 710.991 268.44C710.991 271.392 713.139 273.18 715.719 273.18C717.459 273.18 719.631 272.016 719.895 269.544L718.275 269.304C718.143 271.092 716.919 271.644 715.719 271.644C714.015 271.644 712.683 270.672 712.683 268.44C712.683 266.412 714.015 265.356 715.623 265.356C716.727 265.356 717.939 265.812 718.203 267.456L719.823 267.216ZM721.452 263.7L721.452 273L722.952 273L722.952 269.052C722.952 267.816 723.66 267.252 724.668 267.252C725.472 267.252 726.12 267.732 726.12 269.016L726.12 273L727.62 273L727.62 268.368C727.62 266.508 726.48 265.896 725.16 265.896C724.428 265.896 723.444 266.22 722.952 267.108L722.952 263.7L721.452 263.7ZM732.516 267.192C733.488 267.192 734.256 267.648 734.376 268.8L730.62 268.8C730.824 267.732 731.52 267.192 732.516 267.192ZM735.792 269.868L735.792 269.376C735.792 267.336 734.448 265.896 732.576 265.896C730.572 265.896 729.048 267.3 729.048 269.52C729.048 271.8 730.632 273.18 732.672 273.18C733.944 273.18 735.48 272.448 735.744 270.852L734.352 270.612C734.196 271.404 733.74 271.884 732.612 271.884C731.364 271.884 730.68 271.08 730.572 269.868L735.792 269.868ZM743.656 268.776C743.404 266.916 741.928 265.896 740.32 265.896C738.34 265.896 736.84 267.3 736.84 269.532C736.84 271.668 738.316 273.18 740.428 273.18C741.76 273.18 743.32 272.448 743.644 270.336L742.276 270.096C742.12 271.272 741.472 271.872 740.416 271.872C739.012 271.872 738.352 270.804 738.352 269.532C738.352 267.996 739.192 267.192 740.248 267.192C741.208 267.192 742.012 267.708 742.18 269.016L743.656 268.776ZM745.065 273L746.565 273L746.565 271.344L747.837 269.916L749.901 273L751.461 273L748.689 268.944L751.233 266.088L749.601 266.088L746.565 269.664L746.565 263.7L745.065 263.7L745.065 273ZM752.425 266.088L752.425 273L753.925 273L753.925 266.088L752.425 266.088ZM753.169 263.1C752.665 263.1 752.269 263.508 752.269 264C752.269 264.492 752.665 264.9 753.169 264.9C753.673 264.9 754.069 264.492 754.069 264C754.069 263.508 753.673 263.1 753.169 263.1ZM759.051 267.252C759.867 267.252 760.515 267.732 760.515 269.016L760.515 273L762.015 273L762.015 268.368C762.015 266.508 760.839 265.896 759.603 265.896C758.787 265.896 757.839 266.232 757.347 267.108L757.347 266.088L755.847 266.088L755.847 273L757.347 273L757.347 269.052C757.347 267.816 758.055 267.252 759.051 267.252ZM766.418 272.604C767.63 272.604 768.266 271.812 768.638 271.056L768.638 272.088C768.638 273.552 768.026 274.152 766.694 274.152C765.854 274.152 765.05 273.912 764.918 272.916L763.466 273.156C763.814 274.908 765.386 275.496 766.634 275.496C768.842 275.496 770.138 274.344 770.138 272.028L770.138 266.076L768.638 266.076L768.638 267.42C768.11 266.352 767.45 265.896 766.538 265.896C764.978 265.896 763.502 266.952 763.502 269.148C763.502 271.5 765.002 272.604 766.418 272.604ZM766.802 267.192C767.81 267.192 768.638 267.924 768.638 269.244C768.638 270.636 767.81 271.296 766.802 271.296C765.83 271.296 765.014 270.636 765.014 269.232C765.014 267.876 765.866 267.192 766.802 267.192ZM775.816 264.42L775.816 266.088L774.532 266.088L774.532 267.3L775.816 267.3L775.816 271.056C775.816 272.328 776.452 273.12 777.832 273.12C778.252 273.12 778.744 273.012 779.104 272.904L778.864 271.692C778.588 271.764 778.42 271.8 778.144 271.8C777.532 271.8 777.316 271.524 777.316 270.984L777.316 267.3L779.044 267.3L779.044 266.088L777.316 266.088L777.316 264.18L775.816 264.42ZM780.515 263.7L780.515 273L782.015 273L782.015 269.052C782.015 267.816 782.723 267.252 783.731 267.252C784.535 267.252 785.183 267.732 785.183 269.016L785.183 273L786.683 273L786.683 268.368C786.683 266.508 785.543 265.896 784.223 265.896C783.491 265.896 782.507 266.22 782.015 267.108L782.015 263.7L780.515 263.7ZM791.578 267.192C792.55 267.192 793.318 267.648 793.438 268.8L789.682 268.8C789.886 267.732 790.582 267.192 791.578 267.192ZM794.854 269.868L794.854 269.376C794.854 267.336 793.51 265.896 791.638 265.896C789.634 265.896 788.11 267.3 788.11 269.52C788.11 271.8 789.694 273.18 791.734 273.18C793.006 273.18 794.542 272.448 794.806 270.852L793.414 270.612C793.258 271.404 792.802 271.884 791.674 271.884C790.426 271.884 789.742 271.08 789.634 269.868L794.854 269.868ZM714.298 286.088L714.298 293L715.798 293L715.798 286.088L714.298 286.088ZM715.042 283.1C714.538 283.1 714.142 283.508 714.142 284C714.142 284.492 714.538 284.9 715.042 284.9C715.546 284.9 715.942 284.492 715.942 284C715.942 283.508 715.546 283.1 715.042 283.1ZM720.924 287.252C721.74 287.252 722.388 287.732 722.388 289.016L722.388 293L723.888 293L723.888 288.368C723.888 286.508 722.712 285.896 721.476 285.896C720.66 285.896 719.712 286.232 719.22 287.108L719.22 286.088L717.72 286.088L717.72 293L719.22 293L719.22 289.052C719.22 287.816 719.928 287.252 720.924 287.252ZM731.867 286.088L730.199 286.088L728.423 291.308L726.635 286.088L724.967 286.088L727.727 293L729.107 293L731.867 286.088ZM736.001 285.896C734.129 285.896 732.581 287.264 732.581 289.532C732.581 291.8 734.129 293.18 736.001 293.18C737.873 293.18 739.421 291.8 739.421 289.532C739.421 287.264 737.873 285.896 736.001 285.896ZM736.001 287.192C737.033 287.192 737.909 287.948 737.909 289.532C737.909 291.116 737.033 291.884 736.001 291.884C734.969 291.884 734.093 291.116 734.093 289.532C734.093 287.948 734.969 287.192 736.001 287.192ZM740.911 286.088L740.911 293L742.411 293L742.411 286.088L740.911 286.088ZM741.655 283.1C741.151 283.1 740.755 283.508 740.755 284C740.755 284.492 741.151 284.9 741.655 284.9C742.159 284.9 742.555 284.492 742.555 284C742.555 283.508 742.159 283.1 741.655 283.1ZM750.717 288.776C750.465 286.916 748.989 285.896 747.381 285.896C745.401 285.896 743.901 287.3 743.901 289.532C743.901 291.668 745.377 293.18 747.489 293.18C748.821 293.18 750.381 292.448 750.705 290.336L749.337 290.096C749.181 291.272 748.533 291.872 747.477 291.872C746.073 291.872 745.413 290.804 745.413 289.532C745.413 287.996 746.253 287.192 747.309 287.192C748.269 287.192 749.073 287.708 749.241 289.016L750.717 288.776ZM755.162 287.192C756.134 287.192 756.902 287.648 757.022 288.8L753.266 288.8C753.47 287.732 754.166 287.192 755.162 287.192ZM758.438 289.868L758.438 289.376C758.438 287.336 757.094 285.896 755.222 285.896C753.218 285.896 751.694 287.3 751.694 289.52C751.694 291.8 753.278 293.18 755.318 293.18C756.59 293.18 758.126 292.448 758.39 290.852L756.998 290.612C756.842 291.404 756.386 291.884 755.258 291.884C754.01 291.884 753.326 291.08 753.218 289.868L758.438 289.868ZM763.009 288.032C763.009 288.992 763.561 289.7 764.737 289.952L765.997 290.228C766.861 290.42 767.101 290.672 767.101 291.08C767.101 291.656 766.537 291.98 765.709 291.98C764.737 291.98 764.101 291.524 764.005 290.672L762.673 290.912C762.901 292.52 764.401 293.18 765.745 293.18C767.077 293.18 768.493 292.436 768.493 290.936C768.493 289.976 767.929 289.328 766.705 289.064L765.337 288.764C764.641 288.608 764.401 288.272 764.401 287.912C764.401 287.408 764.881 287.096 765.565 287.096C766.393 287.096 767.005 287.396 767.053 288.296L768.385 288.056C767.989 286.508 766.945 285.896 765.553 285.896C764.425 285.896 763.009 286.52 763.009 288.032ZM770.49 284.42L770.49 286.088L769.206 286.088L769.206 287.3L770.49 287.3L770.49 291.056C770.49 292.328 771.126 293.12 772.506 293.12C772.926 293.12 773.418 293.012 773.778 292.904L773.538 291.692C773.262 291.764 773.094 291.8 772.818 291.8C772.206 291.8 771.99 291.524 771.99 290.984L771.99 287.3L773.718 287.3L773.718 286.088L771.99 286.088L771.99 284.18L770.49 284.42ZM777.841 293.18C779.077 293.18 779.833 292.424 780.181 291.572L780.181 293L781.681 293L781.681 286.088L780.181 286.088L780.181 287.444C779.689 286.352 778.933 285.896 777.853 285.896C776.401 285.896 774.805 287.06 774.805 289.472C774.805 292.004 776.413 293.18 777.841 293.18ZM778.261 287.192C779.269 287.192 780.181 287.96 780.181 289.556C780.181 291.2 779.269 291.872 778.249 291.872C777.301 291.872 776.317 291.164 776.317 289.556C776.317 287.924 777.313 287.192 778.261 287.192ZM784.131 284.42L784.131 286.088L782.847 286.088L782.847 287.3L784.131 287.3L784.131 291.056C784.131 292.328 784.767 293.12 786.147 293.12C786.567 293.12 787.059 293.012 787.419 292.904L787.179 291.692C786.903 291.764 786.735 291.8 786.459 291.8C785.847 291.8 785.631 291.524 785.631 290.984L785.631 287.3L787.359 287.3L787.359 286.088L785.631 286.088L785.631 284.18L784.131 284.42ZM791.865 287.192C792.837 287.192 793.605 287.648 793.725 288.8L789.969 288.8C790.173 287.732 790.869 287.192 791.865 287.192ZM795.141 289.868L795.141 289.376C795.141 287.336 793.797 285.896 791.925 285.896C789.921 285.896 788.397 287.3 788.397 289.52C788.397 291.8 789.981 293.18 792.021 293.18C793.293 293.18 794.829 292.448 795.093 290.852L793.701 290.612C793.545 291.404 793.089 291.884 791.961 291.884C790.713 291.884 790.029 291.08 789.921 289.868L795.141 289.868Z" fill="#FF5B24"/>
<path d="M632.817 173.057C632.817 203.883 607.827 228.873 577 228.873C546.173 228.873 521.183 203.883 521.183 173.057C521.183 142.229 546.173 117.24 577 117.24C607.827 117.24 632.817 142.229 632.817 173.057Z" fill="#EEEDF3"/>
<path d="M603.733 202.251H577.531C574.197 202.251 571.496 199.548 571.496 196.216V141.181C571.496 137.848 574.197 135.146 577.531 135.146H603.733C607.065 135.146 609.768 137.848 609.768 141.181V196.216C609.768 199.548 607.065 202.251 603.733 202.251Z" fill="#FF5B23"/>
<path d="M609.768 193.426H571.496V144.032H609.768V193.426Z" fill="#FF975E"/>
<path d="M589.031 176.422L528.093 203.856L540.046 228.844L567.606 204.477C567.752 204.342 589.212 176.34 589.031 176.422Z" fill="#48367D"/>
<path d="M590.016 175.658L544.01 210.093L570.099 219.073C571.345 219.502 572.725 219.078 573.517 218.024L590.511 176.348C590.957 175.79 590.298 175.474 590.016 175.658Z" fill="#C8C5D6"/>
<path d="M544.01 210.093L540.045 228.845L559.358 215.377L544.01 210.093Z" fill="white"/>
<path d="M590.091 175.631L510.43 195.229C508.997 195.65 508.969 197.67 510.391 198.131L528.094 203.858L590.334 176.004C590.486 175.935 590.533 175.55 590.091 175.631Z" fill="#C8C5D6"/>
<path d="M1166.7 172.888C1166.7 203.715 1141.71 228.705 1110.89 228.705C1080.06 228.705 1055.07 203.715 1055.07 172.888C1055.07 142.061 1080.06 117.071 1110.89 117.071C1141.71 117.071 1166.7 142.061 1166.7 172.888Z" fill="#EEEDF3"/>
<path fill-rule="evenodd" clip-rule="evenodd" d="M1117.3 228.339C1117.29 208.014 1117.3 185.601 1117.39 180.506C1117.73 160.135 1137.82 164.475 1137.82 164.475L1162.18 180.506L1162.17 194.948C1154.43 212.93 1137.5 226.028 1117.3 228.339Z" fill="#FFD3BB"/>
<path d="M1154.94 186.38L1119.6 193.301C1116.2 193.967 1112.9 191.749 1112.23 188.348L1098.28 117.111C1097.61 113.709 1099.83 110.411 1103.23 109.744L1138.57 102.823C1141.97 102.157 1145.27 104.374 1145.94 107.776L1159.89 179.014C1160.55 182.415 1158.34 185.713 1154.94 186.38Z" fill="#FF5A23"/>
<path d="M1159.06 174.325L1111.4 183.659L1099.35 122.154L1147.01 112.82L1159.06 174.325Z" fill="#FF985F"/>
<path d="M1117.92 160.002L1113.12 135.468C1113.09 135.292 1113.11 135.112 1113.19 134.967L1117.27 127.553C1117.35 127.408 1117.47 127.311 1117.62 127.282L1135.19 123.841C1136.07 123.669 1136.95 124.381 1137.15 125.429L1142.96 155.098C1143.17 156.147 1142.62 157.137 1141.75 157.309L1119.88 161.591C1119 161.763 1118.12 161.051 1117.92 160.002Z" fill="#EEEDF3"/>
<path d="M1113.3 133.728L1116.37 128.151C1116.6 127.725 1116.97 127.437 1117.39 127.327L1118.47 132.821C1118.61 133.52 1118.24 134.18 1117.66 134.294L1113.07 135.194C1112.99 134.676 1113.07 134.153 1113.3 133.728Z" fill="#C8C5D6"/>
<path fill-rule="evenodd" clip-rule="evenodd" d="M1134.74 135.441C1135.2 135.656 1135.41 136.206 1135.19 136.67L1128.98 150.112C1128.88 150.336 1128.69 150.509 1128.46 150.594C1128.23 150.678 1127.97 150.667 1127.75 150.563L1122.13 147.931C1121.66 147.714 1121.46 147.163 1121.68 146.7C1121.9 146.237 1122.45 146.037 1122.91 146.254L1127.69 148.492L1133.51 135.893C1133.73 135.429 1134.28 135.227 1134.74 135.441Z" fill="#48367D"/>
<path d="M1111.45 162.73L1098.81 163.713C1095.42 163.978 1092.45 161.439 1092.19 158.044C1091.92 154.648 1094.46 151.681 1097.86 151.418L1110.5 150.434C1113.89 150.169 1116.86 152.708 1117.12 156.103C1117.39 159.499 1114.85 162.466 1111.45 162.73Z" fill="#FFD3BB"/>
<path d="M1112.51 174.284L1099.87 175.267C1096.47 175.531 1093.5 172.993 1093.24 169.597C1092.97 166.201 1095.51 163.235 1098.91 162.971L1111.55 161.988C1114.95 161.723 1117.91 164.262 1118.18 167.657C1118.44 171.052 1115.9 174.019 1112.51 174.284Z" fill="#FFD3BB"/>
<path d="M1114.63 185.607L1101.99 186.591C1098.59 186.854 1095.63 184.316 1095.36 180.921C1095.1 177.525 1097.64 174.559 1101.03 174.295L1113.68 173.312C1117.07 173.047 1120.04 175.586 1120.3 178.981C1120.57 182.376 1118.03 185.343 1114.63 185.607Z" fill="#FFD3BB"/>
<path fill-rule="evenodd" clip-rule="evenodd" d="M1159.33 200.638C1158.52 200.952 1157.65 201.255 1156.71 201.533C1149.98 203.524 1139.93 194.801 1139.93 194.801C1139.93 194.801 1140.21 191.198 1140.69 187.311C1141.16 183.424 1143.63 179.916 1144.86 178.778C1139.93 177.735 1136.42 176.028 1133.86 172.615C1131.2 169.074 1129.31 165.978 1128.83 160.479C1128.36 154.98 1130.35 152.989 1132.72 151.851C1135.09 150.713 1137.18 151.282 1139.45 152.42C1141.22 153.305 1142.27 156.694 1142.49 159.152C1142.77 162.375 1143.5 163.163 1144.95 164.556C1146.07 165.628 1148.46 165.599 1150.07 165.409C1151.68 165.22 1153.15 165.305 1155.95 165.978C1158.32 166.547 1160.69 168.159 1162.68 170.814C1164.85 173.704 1165.57 177.211 1166.05 181.469C1164.99 188.355 1162.66 194.825 1159.33 200.638Z" fill="#FFD3BB"/>
<path d="M1345.82 173.057C1345.82 203.884 1320.83 228.874 1290 228.874C1259.17 228.874 1234.18 203.884 1234.18 173.057C1234.18 142.231 1259.17 117.24 1290 117.24C1320.83 117.24 1345.82 142.231 1345.82 173.057Z" fill="#EEEDF3"/>
<path d="M1265.42 153.125C1266.59 154.143 1267.76 155.16 1268.93 156.177C1271.99 158.825 1275.14 161.364 1278.1 164.115C1282.82 168.506 1285.77 173.92 1286.93 180.269C1288.11 186.701 1287.28 192.886 1284.39 198.753C1281.62 204.377 1277.39 208.601 1271.84 211.5C1267.89 213.565 1263.68 214.677 1259.22 214.85C1250.86 215.175 1243.51 212.648 1237.32 206.988C1232.92 202.965 1230.16 197.963 1228.85 192.157C1228.14 189.042 1227.94 185.89 1228.28 182.717C1228.96 176.267 1231.45 170.616 1235.79 165.788C1237.34 164.075 1239.13 162.639 1240.86 161.139C1243.89 158.531 1246.92 155.931 1249.94 153.329C1250.02 153.265 1250.08 153.192 1250.14 153.122C1250.56 153.119 1250.97 153.128 1251.38 153.107C1251.64 153.095 1251.69 153.204 1251.68 153.429C1251.67 153.854 1251.68 154.279 1251.68 154.704C1251.68 158.931 1251.68 163.158 1251.68 167.385C1251.68 168.153 1251.96 168.764 1252.65 169.134C1253.9 169.811 1255.34 168.91 1255.34 167.446C1255.35 164.118 1255.35 160.79 1255.35 157.462C1255.35 156.126 1255.35 154.789 1255.34 153.453C1255.34 153.18 1255.41 153.095 1255.69 153.104C1256.28 153.125 1256.88 153.11 1257.47 153.11C1260.12 153.119 1262.77 153.122 1265.42 153.125ZM1258.39 197.207C1258.94 197.207 1259.49 197.195 1260.03 197.213C1260.28 197.222 1260.34 197.137 1260.33 196.907C1260.32 196.117 1260.35 195.328 1260.32 194.538C1260.3 194.168 1260.41 194.022 1260.77 193.928C1262.07 193.6 1263.24 192.999 1264.22 192.063C1265.74 190.6 1266.3 188.787 1266.17 186.716C1266.03 184.451 1265.01 182.756 1263.01 181.66C1261.63 180.907 1260.13 180.53 1258.65 180.081C1257.78 179.817 1256.9 179.562 1256.13 179.052C1255.38 178.554 1255 177.861 1255.09 176.953C1255.17 176.052 1255.66 175.426 1256.48 175.059C1257.14 174.767 1257.84 174.694 1258.54 174.743C1260.15 174.852 1261.02 175.538 1261.52 177.066C1261.62 177.351 1261.68 177.649 1261.74 177.946C1261.77 178.156 1261.82 178.244 1262.08 178.204C1263.25 178.022 1264.43 177.873 1265.61 177.703C1266.44 177.582 1266.44 177.573 1266.25 176.735C1265.52 173.598 1263.82 171.378 1260.53 170.668C1260.33 170.625 1260.32 170.513 1260.33 170.355C1260.33 169.553 1260.31 168.752 1260.34 167.95C1260.34 167.634 1260.24 167.57 1259.95 167.576C1258.9 167.595 1257.86 167.592 1256.81 167.576C1256.54 167.573 1256.43 167.631 1256.44 167.932C1256.46 168.733 1256.44 169.535 1256.45 170.337C1256.46 170.549 1256.39 170.637 1256.18 170.68C1255.89 170.741 1255.59 170.813 1255.31 170.908C1253.45 171.518 1251.96 172.566 1251.2 174.436C1250.57 175.973 1250.55 177.558 1250.98 179.149C1251.5 181.107 1252.88 182.304 1254.64 183.148C1255.97 183.792 1257.41 184.174 1258.8 184.669C1259.56 184.943 1260.33 185.228 1260.96 185.756C1261.36 186.084 1261.64 186.482 1261.72 187.001C1261.89 188.079 1261.4 189.033 1260.39 189.552C1259.15 190.184 1257.86 190.141 1256.55 189.85C1255.18 189.543 1254.33 188.684 1253.98 187.323C1253.86 186.874 1253.81 186.415 1253.79 185.957C1253.79 185.693 1253.68 185.665 1253.46 185.699C1252.18 185.893 1250.9 186.087 1249.61 186.264C1249.4 186.294 1249.36 186.376 1249.38 186.567C1249.45 187.308 1249.61 188.031 1249.89 188.717C1251.04 191.559 1253.19 193.257 1256.1 194.061C1256.36 194.137 1256.47 194.222 1256.46 194.511C1256.44 195.3 1256.47 196.09 1256.45 196.879C1256.44 197.162 1256.53 197.222 1256.79 197.213C1257.33 197.192 1257.86 197.207 1258.39 197.207Z" fill="#FF985F"/>
<path d="M1250.69 149.459C1249.01 146.55 1247.33 143.644 1245.66 140.729C1243.49 136.937 1245.63 132.318 1249.92 131.504C1250.29 131.434 1250.66 131.407 1251.04 131.407C1255.53 131.41 1260.03 131.407 1264.52 131.407C1269.31 131.407 1272.3 136.484 1269.94 140.659C1268.32 143.52 1266.66 146.353 1265.01 149.198C1264.97 149.28 1264.93 149.371 1264.88 149.456C1261.02 149.459 1257.17 149.462 1253.31 149.465C1252.43 149.468 1251.56 149.462 1250.69 149.459Z" fill="#FF985F"/>
<path d="M1250.69 149.459C1251.56 149.462 1252.43 149.471 1253.31 149.471C1257.17 149.468 1261.03 149.465 1264.88 149.462C1265.11 149.465 1265.35 149.471 1265.58 149.471C1266.64 149.477 1267.45 150.252 1267.46 151.281C1267.47 152.283 1266.67 153.085 1265.63 153.115C1265.56 153.118 1265.49 153.121 1265.41 153.127C1262.76 153.124 1260.12 153.118 1257.47 153.115C1256.87 153.115 1256.28 153.13 1255.68 153.109C1255.41 153.1 1255.33 153.185 1255.34 153.458C1255.35 154.794 1255.34 156.131 1255.34 157.467C1255.34 160.795 1255.35 164.123 1255.34 167.451C1255.34 168.915 1253.9 169.816 1252.65 169.139C1251.96 168.769 1251.68 168.155 1251.68 167.39C1251.68 163.163 1251.68 158.936 1251.68 154.709C1251.68 154.284 1251.67 153.859 1251.68 153.434C1251.69 153.209 1251.63 153.1 1251.38 153.112C1250.97 153.133 1250.55 153.124 1250.14 153.127C1248.98 153.082 1248.26 152.505 1248.13 151.53C1247.98 150.455 1248.8 149.499 1249.88 149.474C1250.15 149.465 1250.42 149.462 1250.69 149.459Z" fill="#FD5B24"/>
<path d="M1258.39 197.207C1257.86 197.207 1257.33 197.192 1256.79 197.213C1256.53 197.222 1256.44 197.162 1256.44 196.879C1256.46 196.09 1256.44 195.3 1256.46 194.511C1256.47 194.222 1256.36 194.134 1256.09 194.061C1253.19 193.257 1251.04 191.559 1249.88 188.717C1249.6 188.028 1249.45 187.308 1249.38 186.567C1249.36 186.376 1249.39 186.294 1249.61 186.263C1250.89 186.084 1252.18 185.893 1253.46 185.699C1253.68 185.665 1253.78 185.692 1253.79 185.957C1253.81 186.415 1253.85 186.874 1253.97 187.323C1254.33 188.684 1255.18 189.543 1256.55 189.85C1257.85 190.141 1259.15 190.184 1260.38 189.552C1261.39 189.033 1261.88 188.076 1261.72 187.001C1261.63 186.482 1261.36 186.084 1260.96 185.756C1260.32 185.228 1259.56 184.942 1258.8 184.669C1257.4 184.174 1255.97 183.792 1254.63 183.148C1252.88 182.304 1251.5 181.107 1250.98 179.149C1250.55 177.561 1250.57 175.972 1251.19 174.436C1251.96 172.565 1253.45 171.518 1255.3 170.907C1255.59 170.813 1255.89 170.737 1256.18 170.68C1256.38 170.64 1256.45 170.552 1256.45 170.337C1256.44 169.535 1256.46 168.733 1256.44 167.932C1256.43 167.631 1256.53 167.57 1256.81 167.576C1257.85 167.592 1258.9 167.592 1259.94 167.576C1260.24 167.57 1260.34 167.634 1260.33 167.95C1260.31 168.751 1260.33 169.553 1260.32 170.355C1260.32 170.513 1260.33 170.628 1260.52 170.668C1263.82 171.378 1265.52 173.598 1266.24 176.735C1266.44 177.576 1266.44 177.582 1265.6 177.703C1264.43 177.873 1263.25 178.022 1262.07 178.204C1261.82 178.244 1261.77 178.156 1261.73 177.946C1261.68 177.649 1261.61 177.351 1261.52 177.066C1261.02 175.538 1260.14 174.852 1258.54 174.743C1257.83 174.694 1257.13 174.767 1256.48 175.058C1255.65 175.423 1255.17 176.051 1255.08 176.953C1255 177.861 1255.38 178.554 1256.13 179.052C1256.9 179.562 1257.77 179.817 1258.64 180.081C1260.13 180.53 1261.63 180.91 1263.01 181.66C1265.01 182.756 1266.03 184.451 1266.17 186.716C1266.29 188.787 1265.74 190.603 1264.22 192.063C1263.24 193.002 1262.07 193.6 1260.77 193.928C1260.4 194.019 1260.3 194.168 1260.31 194.538C1260.35 195.328 1260.32 196.117 1260.33 196.907C1260.33 197.137 1260.28 197.222 1260.03 197.213C1259.49 197.192 1258.94 197.207 1258.39 197.207Z" fill="#FF985F"/>
<path d="M1251.24 189.812H1253.37V187.657L1254.57 186.214L1256.97 189.812H1259.33L1255.84 184.696L1258.86 181.068H1256.46L1253.37 185.106V178.047H1251.24V189.812Z" fill="#FFF4EC"/>
<path d="M1264.28 183.209C1264.59 183.209 1264.95 183.284 1265.29 183.406L1265.42 180.947C1265.22 180.871 1264.98 180.825 1264.75 180.825C1263.92 180.825 1262.89 181.25 1262.2 182.92V181.068H1260.06V189.812H1262.2V185.531C1262.2 183.664 1263.27 183.209 1264.28 183.209Z" fill="#FFF4EC"/>
<path fill-rule="evenodd" clip-rule="evenodd" d="M1290 228.876C1320.83 228.876 1345.82 203.885 1345.82 173.059C1345.82 171.628 1345.76 170.211 1345.66 168.808H1271.9C1269.32 168.808 1267.22 170.904 1267.22 173.49V224.031C1274.18 227.144 1281.89 228.876 1290 228.876Z" fill="#C8C5D6"/>
<path fill-rule="evenodd" clip-rule="evenodd" d="M1345.33 180.485C1345.65 178.056 1345.82 175.577 1345.82 173.059C1345.82 171.628 1345.76 170.211 1345.66 168.808H1272.07C1269.39 168.808 1267.22 170.979 1267.22 173.657V180.485H1345.33Z" fill="#48367D"/>
<path d="M1279.35 174.693C1279.35 176.032 1278.27 177.117 1276.93 177.117C1275.59 177.117 1274.5 176.032 1274.5 174.693C1274.5 173.354 1275.59 172.268 1276.93 172.268C1278.27 172.268 1279.35 173.354 1279.35 174.693Z" fill="white"/>
<path d="M1287.31 174.647C1287.31 175.986 1286.23 177.072 1284.89 177.072C1283.55 177.072 1282.46 175.986 1282.46 174.647C1282.46 173.308 1283.55 172.222 1284.89 172.222C1286.23 172.222 1287.31 173.308 1287.31 174.647Z" fill="white"/>
<path d="M1295.4 174.647C1295.4 175.986 1294.31 177.072 1292.97 177.072C1291.63 177.072 1290.55 175.986 1290.55 174.647C1290.55 173.308 1291.63 172.222 1292.97 172.222C1294.31 172.222 1295.4 173.308 1295.4 174.647Z" fill="white"/>
</svg>
