<svg width="1728" height="671" viewBox="0 0 1728 671" fill="none" xmlns="http://www.w3.org/2000/svg">
<rect width="1728" height="671" fill="white"/>
<line x1="131" y1="227" x2="1538" y2="227" stroke="#FF5B24" stroke-width="4"/>
<circle cx="453" cy="230" r="10" transform="rotate(-90 453 230)" fill="white" stroke="#FF5B24" stroke-width="4"/>
<circle cx="795" cy="228" r="10" transform="rotate(-90 795 228)" fill="white" stroke="#FF5B24" stroke-width="4"/>
<circle cx="285" cy="230" r="10" transform="rotate(-90 285 230)" fill="white" stroke="#FF5B24" stroke-width="4"/>
<path d="M131.5 220C137.377 220 142 224.553 142 230C142 235.447 137.377 240 131.5 240C125.623 240 121 235.447 121 230C121 224.553 125.623 220 131.5 220Z" fill="white" stroke="#FF5B24" stroke-width="4"/>
<path d="M549.462 372L549.462 381L551.034 381L551.034 372L549.462 372ZM552.902 374.412C552.902 377.88 557.882 376.74 557.882 378.648C557.882 379.332 557.354 379.788 556.334 379.788C555.362 379.788 554.246 379.464 554.09 377.928L552.542 378.288C552.782 380.22 554.486 381.18 556.286 381.18C557.882 381.18 559.454 380.268 559.454 378.552C559.454 375.192 554.498 376.416 554.498 374.352C554.498 373.644 555.038 373.212 555.962 373.212C556.766 373.212 557.666 373.572 557.738 374.82L559.322 374.46C559.058 372.6 557.45 371.82 556.034 371.82C554.462 371.82 552.902 372.684 552.902 374.412ZM562.601 373.404L564.209 373.404C565.229 373.404 565.805 374.004 565.805 375.12C565.805 376.176 565.229 376.776 564.185 376.776L562.601 376.776L562.601 373.404ZM561.029 372L561.029 381L562.601 381L562.601 378.18L564.341 378.18C566.261 378.18 567.485 376.836 567.485 375.096C567.485 373.08 566.333 372 564.329 372L561.029 372ZM572.109 376.032C572.109 376.992 572.661 377.7 573.837 377.952L575.097 378.228C575.961 378.42 576.201 378.672 576.201 379.08C576.201 379.656 575.637 379.98 574.809 379.98C573.837 379.98 573.201 379.524 573.105 378.672L571.773 378.912C572.001 380.52 573.501 381.18 574.845 381.18C576.177 381.18 577.593 380.436 577.593 378.936C577.593 377.976 577.029 377.328 575.805 377.064L574.437 376.764C573.741 376.608 573.501 376.272 573.501 375.912C573.501 375.408 573.981 375.096 574.665 375.096C575.493 375.096 576.105 375.396 576.153 376.296L577.485 376.056C577.089 374.508 576.045 373.896 574.653 373.896C573.525 373.896 572.109 374.52 572.109 376.032ZM582.098 375.192C583.07 375.192 583.838 375.648 583.958 376.8L580.202 376.8C580.406 375.732 581.102 375.192 582.098 375.192ZM585.374 377.868L585.374 377.376C585.374 375.336 584.03 373.896 582.158 373.896C580.154 373.896 578.63 375.3 578.63 377.52C578.63 379.8 580.214 381.18 582.254 381.18C583.526 381.18 585.062 380.448 585.326 378.852L583.934 378.612C583.778 379.404 583.322 379.884 582.194 379.884C580.946 379.884 580.262 379.08 580.154 377.868L585.374 377.868ZM590.059 375.252C590.875 375.252 591.523 375.732 591.523 377.016L591.523 381L593.023 381L593.023 376.368C593.023 374.508 591.847 373.896 590.611 373.896C589.795 373.896 588.847 374.232 588.355 375.108L588.355 374.088L586.855 374.088L586.855 381L588.355 381L588.355 377.052C588.355 375.816 589.063 375.252 590.059 375.252ZM601.374 371.7L599.874 371.7L599.874 375.444C599.382 374.352 598.638 373.896 597.702 373.896C596.094 373.896 594.498 375.06 594.498 377.472C594.498 380.004 596.106 381.18 597.51 381.18C598.77 381.18 599.526 380.52 599.874 379.692L599.874 381L601.374 381L601.374 371.7ZM597.954 375.192C598.962 375.192 599.874 375.996 599.874 377.556C599.874 379.164 598.962 379.872 597.942 379.872C596.994 379.872 596.01 379.128 596.01 377.556C596.01 375.96 597.006 375.192 597.954 375.192ZM603.152 376.032C603.152 376.992 603.704 377.7 604.88 377.952L606.14 378.228C607.004 378.42 607.244 378.672 607.244 379.08C607.244 379.656 606.68 379.98 605.852 379.98C604.88 379.98 604.244 379.524 604.148 378.672L602.816 378.912C603.044 380.52 604.544 381.18 605.888 381.18C607.22 381.18 608.636 380.436 608.636 378.936C608.636 377.976 608.072 377.328 606.848 377.064L605.48 376.764C604.784 376.608 604.544 376.272 604.544 375.912C604.544 375.408 605.024 375.096 605.708 375.096C606.536 375.096 607.148 375.396 607.196 376.296L608.528 376.056C608.132 374.508 607.088 373.896 605.696 373.896C604.568 373.896 603.152 374.52 603.152 376.032ZM613.339 374.088L613.339 381L614.839 381L614.839 374.088L613.339 374.088ZM614.083 371.1C613.579 371.1 613.183 371.508 613.183 372C613.183 372.492 613.579 372.9 614.083 372.9C614.587 372.9 614.983 372.492 614.983 372C614.983 371.508 614.587 371.1 614.083 371.1ZM619.965 375.252C620.781 375.252 621.429 375.732 621.429 377.016L621.429 381L622.929 381L622.929 376.368C622.929 374.508 621.753 373.896 620.517 373.896C619.701 373.896 618.753 374.232 618.261 375.108L618.261 374.088L616.761 374.088L616.761 381L618.261 381L618.261 377.052C618.261 375.816 618.969 375.252 619.965 375.252ZM630.908 374.088L629.24 374.088L627.464 379.308L625.676 374.088L624.008 374.088L626.768 381L628.148 381L630.908 374.088ZM635.042 373.896C633.17 373.896 631.622 375.264 631.622 377.532C631.622 379.8 633.17 381.18 635.042 381.18C636.914 381.18 638.462 379.8 638.462 377.532C638.462 375.264 636.914 373.896 635.042 373.896ZM635.042 375.192C636.074 375.192 636.95 375.948 636.95 377.532C636.95 379.116 636.074 379.884 635.042 379.884C634.01 379.884 633.134 379.116 633.134 377.532C633.134 375.948 634.01 375.192 635.042 375.192ZM639.952 374.088L639.952 381L641.452 381L641.452 374.088L639.952 374.088ZM640.696 371.1C640.192 371.1 639.796 371.508 639.796 372C639.796 372.492 640.192 372.9 640.696 372.9C641.2 372.9 641.596 372.492 641.596 372C641.596 371.508 641.2 371.1 640.696 371.1ZM649.758 376.776C649.506 374.916 648.03 373.896 646.422 373.896C644.442 373.896 642.942 375.3 642.942 377.532C642.942 379.668 644.418 381.18 646.53 381.18C647.862 381.18 649.422 380.448 649.746 378.336L648.378 378.096C648.222 379.272 647.574 379.872 646.518 379.872C645.114 379.872 644.454 378.804 644.454 377.532C644.454 375.996 645.294 375.192 646.35 375.192C647.31 375.192 648.114 375.708 648.282 377.016L649.758 376.776ZM654.203 375.192C655.175 375.192 655.943 375.648 656.063 376.8L652.307 376.8C652.511 375.732 653.207 375.192 654.203 375.192ZM657.479 377.868L657.479 377.376C657.479 375.336 656.135 373.896 654.263 373.896C652.259 373.896 650.735 375.3 650.735 377.52C650.735 379.8 652.319 381.18 654.359 381.18C655.631 381.18 657.167 380.448 657.431 378.852L656.039 378.612C655.883 379.404 655.427 379.884 654.299 379.884C653.051 379.884 652.367 379.08 652.259 377.868L657.479 377.868Z" fill="#FF5B24"/>
<path d="M1270.59 375.216C1270.23 373.008 1268.33 371.82 1266.45 371.82C1263.88 371.82 1261.75 373.68 1261.75 376.44C1261.75 379.392 1263.9 381.18 1266.48 381.18C1268.22 381.18 1270.39 380.016 1270.66 377.544L1269.04 377.304C1268.91 379.092 1267.68 379.644 1266.48 379.644C1264.78 379.644 1263.45 378.672 1263.45 376.44C1263.45 374.412 1264.78 373.356 1266.39 373.356C1267.49 373.356 1268.7 373.812 1268.97 375.456L1270.59 375.216ZM1278.35 381L1278.35 374.088L1276.85 374.088L1276.85 378.108C1276.85 379.284 1276.07 379.824 1275.06 379.824C1274.14 379.824 1273.68 379.416 1273.68 378.348L1273.68 374.088L1272.18 374.088L1272.18 378.912C1272.18 380.508 1273.33 381.18 1274.48 381.18C1275.35 381.18 1276.31 380.784 1276.85 379.836L1276.85 381L1278.35 381ZM1280.1 376.032C1280.1 376.992 1280.65 377.7 1281.83 377.952L1283.09 378.228C1283.95 378.42 1284.19 378.672 1284.19 379.08C1284.19 379.656 1283.63 379.98 1282.8 379.98C1281.83 379.98 1281.19 379.524 1281.1 378.672L1279.76 378.912C1279.99 380.52 1281.49 381.18 1282.84 381.18C1284.17 381.18 1285.58 380.436 1285.58 378.936C1285.58 377.976 1285.02 377.328 1283.8 377.064L1282.43 376.764C1281.73 376.608 1281.49 376.272 1281.49 375.912C1281.49 375.408 1281.97 375.096 1282.66 375.096C1283.48 375.096 1284.1 375.396 1284.14 376.296L1285.48 376.056C1285.08 374.508 1284.04 373.896 1282.64 373.896C1281.52 373.896 1280.1 374.52 1280.1 376.032ZM1287.58 372.42L1287.58 374.088L1286.3 374.088L1286.3 375.3L1287.58 375.3L1287.58 379.056C1287.58 380.328 1288.22 381.12 1289.6 381.12C1290.02 381.12 1290.51 381.012 1290.87 380.904L1290.63 379.692C1290.35 379.764 1290.18 379.8 1289.91 379.8C1289.3 379.8 1289.08 379.524 1289.08 378.984L1289.08 375.3L1290.81 375.3L1290.81 374.088L1289.08 374.088L1289.08 372.18L1287.58 372.42ZM1295.27 373.896C1293.39 373.896 1291.85 375.264 1291.85 377.532C1291.85 379.8 1293.39 381.18 1295.27 381.18C1297.14 381.18 1298.69 379.8 1298.69 377.532C1298.69 375.264 1297.14 373.896 1295.27 373.896ZM1295.27 375.192C1296.3 375.192 1297.17 375.948 1297.17 377.532C1297.17 379.116 1296.3 379.884 1295.27 379.884C1294.23 379.884 1293.36 379.116 1293.36 377.532C1293.36 375.948 1294.23 375.192 1295.27 375.192ZM1307.82 375.252C1308.67 375.252 1309.32 375.732 1309.32 377.016L1309.32 381L1310.82 381L1310.82 376.368C1310.82 374.508 1309.68 373.896 1308.42 373.896C1307.65 373.896 1306.68 374.208 1306.16 375.24C1305.79 374.256 1304.92 373.896 1303.99 373.896C1303.16 373.896 1302.17 374.22 1301.68 375.108L1301.68 374.088L1300.18 374.088L1300.18 381L1301.68 381L1301.68 377.052C1301.68 375.816 1302.38 375.252 1303.34 375.252C1304.2 375.252 1304.84 375.732 1304.84 377.016L1304.84 381L1306.34 381L1306.34 377.052C1306.34 375.816 1306.97 375.252 1307.82 375.252ZM1315.72 375.192C1316.69 375.192 1317.46 375.648 1317.58 376.8L1313.82 376.8C1314.02 375.732 1314.72 375.192 1315.72 375.192ZM1318.99 377.868L1318.99 377.376C1318.99 375.336 1317.65 373.896 1315.78 373.896C1313.77 373.896 1312.25 375.3 1312.25 377.52C1312.25 379.8 1313.83 381.18 1315.87 381.18C1317.14 381.18 1318.68 380.448 1318.94 378.852L1317.55 378.612C1317.4 379.404 1316.94 379.884 1315.81 379.884C1314.56 379.884 1313.88 379.08 1313.77 377.868L1318.99 377.868ZM1323.79 375.516C1324.16 375.516 1324.42 375.564 1324.69 375.672L1324.83 373.992C1324.69 373.92 1324.48 373.896 1324.3 373.896C1323.62 373.896 1322.54 374.292 1321.97 375.744L1321.97 374.088L1320.47 374.088L1320.47 381L1321.97 381L1321.97 377.976C1321.97 376.056 1322.81 375.516 1323.79 375.516ZM1335.58 376.776C1335.32 374.916 1333.85 373.896 1332.24 373.896C1330.26 373.896 1328.76 375.3 1328.76 377.532C1328.76 379.668 1330.24 381.18 1332.35 381.18C1333.68 381.18 1335.24 380.448 1335.56 378.336L1334.2 378.096C1334.04 379.272 1333.39 379.872 1332.34 379.872C1330.93 379.872 1330.27 378.804 1330.27 377.532C1330.27 375.996 1331.11 375.192 1332.17 375.192C1333.13 375.192 1333.93 375.708 1334.1 377.016L1335.58 376.776ZM1339.97 373.896C1338.1 373.896 1336.55 375.264 1336.55 377.532C1336.55 379.8 1338.1 381.18 1339.97 381.18C1341.85 381.18 1343.39 379.8 1343.39 377.532C1343.39 375.264 1341.85 373.896 1339.97 373.896ZM1339.97 375.192C1341.01 375.192 1341.88 375.948 1341.88 377.532C1341.88 379.116 1341.01 379.884 1339.97 379.884C1338.94 379.884 1338.07 379.116 1338.07 377.532C1338.07 375.948 1338.94 375.192 1339.97 375.192ZM1348.09 375.252C1348.9 375.252 1349.55 375.732 1349.55 377.016L1349.55 381L1351.05 381L1351.05 376.368C1351.05 374.508 1349.88 373.896 1348.64 373.896C1347.82 373.896 1346.88 374.232 1346.38 375.108L1346.38 374.088L1344.88 374.088L1344.88 381L1346.38 381L1346.38 377.052C1346.38 375.816 1347.09 375.252 1348.09 375.252ZM1353.31 381L1354.81 381L1354.81 375.3L1356.52 375.3L1356.52 374.088L1354.81 374.088L1354.81 373.812C1354.81 373.152 1355 372.804 1355.64 372.804C1355.8 372.804 1355.95 372.816 1356.09 372.84L1356.2 371.568C1356.01 371.508 1355.76 371.472 1355.47 371.472C1354.17 371.472 1353.31 372.288 1353.31 373.824L1353.31 374.088L1352.36 374.088L1352.36 375.3L1353.31 375.3L1353.31 381ZM1357.59 374.088L1357.59 381L1359.09 381L1359.09 374.088L1357.59 374.088ZM1358.33 371.1C1357.83 371.1 1357.43 371.508 1357.43 372C1357.43 372.492 1357.83 372.9 1358.33 372.9C1358.83 372.9 1359.23 372.492 1359.23 372C1359.23 371.508 1358.83 371.1 1358.33 371.1ZM1364.32 375.516C1364.69 375.516 1364.96 375.564 1365.22 375.672L1365.36 373.992C1365.22 373.92 1365.02 373.896 1364.84 373.896C1364.15 373.896 1363.07 374.292 1362.51 375.744L1362.51 374.088L1361.01 374.088L1361.01 381L1362.51 381L1362.51 377.976C1362.51 376.056 1363.35 375.516 1364.32 375.516ZM1374.14 375.252C1374.99 375.252 1375.64 375.732 1375.64 377.016L1375.64 381L1377.14 381L1377.14 376.368C1377.14 374.508 1376 373.896 1374.74 373.896C1373.97 373.896 1373 374.208 1372.48 375.24C1372.11 374.256 1371.23 373.896 1370.31 373.896C1369.48 373.896 1368.49 374.22 1367.99 375.108L1367.99 374.088L1366.49 374.088L1366.49 381L1367.99 381L1367.99 377.052C1367.99 375.816 1368.7 375.252 1369.66 375.252C1370.51 375.252 1371.16 375.732 1371.16 377.016L1371.16 381L1372.66 381L1372.66 377.052C1372.66 375.816 1373.29 375.252 1374.14 375.252ZM1378.85 376.032C1378.85 376.992 1379.41 377.7 1380.58 377.952L1381.84 378.228C1382.71 378.42 1382.95 378.672 1382.95 379.08C1382.95 379.656 1382.38 379.98 1381.55 379.98C1380.58 379.98 1379.95 379.524 1379.85 378.672L1378.52 378.912C1378.75 380.52 1380.25 381.18 1381.59 381.18C1382.92 381.18 1384.34 380.436 1384.34 378.936C1384.34 377.976 1383.77 377.328 1382.55 377.064L1381.18 376.764C1380.49 376.608 1380.25 376.272 1380.25 375.912C1380.25 375.408 1380.73 375.096 1381.41 375.096C1382.24 375.096 1382.85 375.396 1382.9 376.296L1384.23 376.056C1383.83 374.508 1382.79 373.896 1381.4 373.896C1380.27 373.896 1378.85 374.52 1378.85 376.032Z" fill="#FF5B24"/>
<path d="M85.1663 377.616L85.1543 377.712C85.0103 378.852 84.0863 379.644 82.6703 379.644C81.1823 379.644 79.6943 378.756 79.6943 376.536C79.6943 374.424 80.9303 373.356 82.5863 373.356C83.8463 373.356 84.9143 373.836 85.1183 375.336L86.7023 375.096C86.3543 372.588 84.1823 371.82 82.6823 371.82C79.9943 371.82 78.0023 373.752 78.0023 376.536C78.0023 379.2 79.9583 381.18 82.2383 381.18C83.6903 381.18 84.7223 380.28 85.2023 379.32L85.2143 379.32L85.4903 381L86.8223 381L86.8223 376.2L82.8023 376.2L82.8023 377.616L85.1663 377.616ZM91.7929 375.192C92.7649 375.192 93.5329 375.648 93.6529 376.8L89.8969 376.8C90.1009 375.732 90.7969 375.192 91.7929 375.192ZM95.0689 377.868L95.0689 377.376C95.0689 375.336 93.7249 373.896 91.8529 373.896C89.8489 373.896 88.3249 375.3 88.3249 377.52C88.3249 379.8 89.9089 381.18 91.9489 381.18C93.2209 381.18 94.7569 380.448 95.0209 378.852L93.6289 378.612C93.4729 379.404 93.0169 379.884 91.8889 379.884C90.6409 379.884 89.9569 379.08 89.8489 377.868L95.0689 377.868ZM97.0778 372.42L97.0778 374.088L95.7938 374.088L95.7938 375.3L97.0778 375.3L97.0778 379.056C97.0778 380.328 97.7138 381.12 99.0938 381.12C99.5138 381.12 100.006 381.012 100.366 380.904L100.126 379.692C99.8498 379.764 99.6818 379.8 99.4058 379.8C98.7938 379.8 98.5778 379.524 98.5778 378.984L98.5778 375.3L100.306 375.3L100.306 374.088L98.5778 374.088L98.5778 372.18L97.0778 372.42ZM107.663 381.18C108.899 381.18 109.655 380.424 110.003 379.572L110.003 381L111.503 381L111.503 374.088L110.003 374.088L110.003 375.444C109.511 374.352 108.755 373.896 107.675 373.896C106.223 373.896 104.627 375.06 104.627 377.472C104.627 380.004 106.235 381.18 107.663 381.18ZM108.083 375.192C109.091 375.192 110.003 375.96 110.003 377.556C110.003 379.2 109.091 379.872 108.071 379.872C107.123 379.872 106.139 379.164 106.139 377.556C106.139 375.924 107.135 375.192 108.083 375.192ZM119.809 376.776C119.557 374.916 118.081 373.896 116.473 373.896C114.493 373.896 112.993 375.3 112.993 377.532C112.993 379.668 114.469 381.18 116.581 381.18C117.913 381.18 119.473 380.448 119.797 378.336L118.429 378.096C118.273 379.272 117.625 379.872 116.569 379.872C115.165 379.872 114.505 378.804 114.505 377.532C114.505 375.996 115.345 375.192 116.401 375.192C117.361 375.192 118.165 375.708 118.333 377.016L119.809 376.776ZM127.602 376.776C127.35 374.916 125.874 373.896 124.266 373.896C122.286 373.896 120.786 375.3 120.786 377.532C120.786 379.668 122.262 381.18 124.374 381.18C125.706 381.18 127.266 380.448 127.59 378.336L126.222 378.096C126.066 379.272 125.418 379.872 124.362 379.872C122.958 379.872 122.298 378.804 122.298 377.532C122.298 375.996 123.138 375.192 124.194 375.192C125.154 375.192 125.958 375.708 126.126 377.016L127.602 376.776ZM132.047 375.192C133.019 375.192 133.787 375.648 133.907 376.8L130.151 376.8C130.355 375.732 131.051 375.192 132.047 375.192ZM135.323 377.868L135.323 377.376C135.323 375.336 133.979 373.896 132.107 373.896C130.103 373.896 128.579 375.3 128.579 377.52C128.579 379.8 130.163 381.18 132.203 381.18C133.475 381.18 135.011 380.448 135.275 378.852L133.883 378.612C133.727 379.404 133.271 379.884 132.143 379.884C130.895 379.884 130.211 379.08 130.103 377.868L135.323 377.868ZM136.66 376.032C136.66 376.992 137.212 377.7 138.388 377.952L139.648 378.228C140.512 378.42 140.752 378.672 140.752 379.08C140.752 379.656 140.188 379.98 139.36 379.98C138.388 379.98 137.752 379.524 137.656 378.672L136.324 378.912C136.552 380.52 138.052 381.18 139.396 381.18C140.728 381.18 142.144 380.436 142.144 378.936C142.144 377.976 141.58 377.328 140.356 377.064L138.988 376.764C138.292 376.608 138.052 376.272 138.052 375.912C138.052 375.408 138.532 375.096 139.216 375.096C140.044 375.096 140.656 375.396 140.704 376.296L142.036 376.056C141.64 374.508 140.596 373.896 139.204 373.896C138.076 373.896 136.66 374.52 136.66 376.032ZM143.468 376.032C143.468 376.992 144.02 377.7 145.196 377.952L146.456 378.228C147.32 378.42 147.56 378.672 147.56 379.08C147.56 379.656 146.996 379.98 146.168 379.98C145.196 379.98 144.56 379.524 144.464 378.672L143.132 378.912C143.36 380.52 144.86 381.18 146.204 381.18C147.536 381.18 148.952 380.436 148.952 378.936C148.952 377.976 148.388 377.328 147.164 377.064L145.796 376.764C145.1 376.608 144.86 376.272 144.86 375.912C144.86 375.408 145.34 375.096 146.024 375.096C146.852 375.096 147.464 375.396 147.512 376.296L148.844 376.056C148.448 374.508 147.404 373.896 146.012 373.896C144.884 373.896 143.468 374.52 143.468 376.032ZM154.183 372.42L154.183 374.088L152.899 374.088L152.899 375.3L154.183 375.3L154.183 379.056C154.183 380.328 154.819 381.12 156.199 381.12C156.619 381.12 157.111 381.012 157.471 380.904L157.231 379.692C156.955 379.764 156.787 379.8 156.511 379.8C155.899 379.8 155.683 379.524 155.683 378.984L155.683 375.3L157.411 375.3L157.411 374.088L155.683 374.088L155.683 372.18L154.183 372.42ZM161.87 373.896C159.998 373.896 158.45 375.264 158.45 377.532C158.45 379.8 159.998 381.18 161.87 381.18C163.742 381.18 165.29 379.8 165.29 377.532C165.29 375.264 163.742 373.896 161.87 373.896ZM161.87 375.192C162.902 375.192 163.778 375.948 163.778 377.532C163.778 379.116 162.902 379.884 161.87 379.884C160.838 379.884 159.962 379.116 159.962 377.532C159.962 375.948 160.838 375.192 161.87 375.192ZM166.78 381L168.28 381L168.28 379.344L169.552 377.916L171.616 381L173.176 381L170.404 376.944L172.948 374.088L171.316 374.088L168.28 377.664L168.28 371.7L166.78 371.7L166.78 381ZM177.176 375.192C178.148 375.192 178.916 375.648 179.036 376.8L175.28 376.8C175.484 375.732 176.18 375.192 177.176 375.192ZM180.452 377.868L180.452 377.376C180.452 375.336 179.108 373.896 177.236 373.896C175.232 373.896 173.708 375.3 173.708 377.52C173.708 379.8 175.292 381.18 177.332 381.18C178.604 381.18 180.14 380.448 180.404 378.852L179.012 378.612C178.856 379.404 178.4 379.884 177.272 379.884C176.024 379.884 175.34 379.08 175.232 377.868L180.452 377.868ZM185.137 375.252C185.953 375.252 186.601 375.732 186.601 377.016L186.601 381L188.101 381L188.101 376.368C188.101 374.508 186.925 373.896 185.689 373.896C184.873 373.896 183.925 374.232 183.433 375.108L183.433 374.088L181.933 374.088L181.933 381L183.433 381L183.433 377.052C183.433 375.816 184.141 375.252 185.137 375.252Z" fill="#FF5B24"/>
<path d="M222.917 362L222.917 371L224.489 371L224.489 367.568L225.629 367.568C226.601 367.568 227.165 367.952 227.309 368.78L227.549 370.172C227.621 370.616 227.825 370.856 228.065 371L229.961 371C229.625 370.796 229.361 370.436 229.253 370.016L228.881 368.564C228.665 367.712 228.257 367.316 227.669 367.076C228.497 366.596 229.133 365.768 229.133 364.724C229.133 363.044 228.005 362 226.037 362L222.917 362ZM226.001 363.404C226.841 363.404 227.453 363.896 227.453 364.796C227.453 365.588 226.901 366.164 226.013 366.164L224.489 366.164L224.489 363.404L226.001 363.404ZM233.744 365.192C234.716 365.192 235.484 365.648 235.604 366.8L231.848 366.8C232.052 365.732 232.748 365.192 233.744 365.192ZM237.02 367.868L237.02 367.376C237.02 365.336 235.676 363.896 233.804 363.896C231.8 363.896 230.276 365.3 230.276 367.52C230.276 369.8 231.86 371.18 233.9 371.18C235.172 371.18 236.708 370.448 236.972 368.852L235.58 368.612C235.424 369.404 234.968 369.884 233.84 369.884C232.592 369.884 231.908 369.08 231.8 367.868L237.02 367.868ZM241.045 370.604C242.257 370.604 242.893 369.812 243.265 369.056L243.265 370.088C243.265 371.552 242.653 372.152 241.321 372.152C240.481 372.152 239.677 371.912 239.545 370.916L238.093 371.156C238.441 372.908 240.013 373.496 241.261 373.496C243.469 373.496 244.765 372.344 244.765 370.028L244.765 364.076L243.265 364.076L243.265 365.42C242.737 364.352 242.077 363.896 241.165 363.896C239.605 363.896 238.129 364.952 238.129 367.148C238.129 369.5 239.629 370.604 241.045 370.604ZM241.429 365.192C242.437 365.192 243.265 365.924 243.265 367.244C243.265 368.636 242.437 369.296 241.429 369.296C240.457 369.296 239.641 368.636 239.641 367.232C239.641 365.876 240.493 365.192 241.429 365.192ZM246.681 364.088L246.681 371L248.181 371L248.181 364.088L246.681 364.088ZM247.425 361.1C246.921 361.1 246.525 361.508 246.525 362C246.525 362.492 246.921 362.9 247.425 362.9C247.929 362.9 248.325 362.492 248.325 362C248.325 361.508 247.929 361.1 247.425 361.1ZM249.959 366.032C249.959 366.992 250.511 367.7 251.687 367.952L252.947 368.228C253.811 368.42 254.051 368.672 254.051 369.08C254.051 369.656 253.487 369.98 252.659 369.98C251.687 369.98 251.051 369.524 250.955 368.672L249.623 368.912C249.851 370.52 251.351 371.18 252.695 371.18C254.027 371.18 255.443 370.436 255.443 368.936C255.443 367.976 254.879 367.328 253.655 367.064L252.287 366.764C251.591 366.608 251.351 366.272 251.351 365.912C251.351 365.408 251.831 365.096 252.515 365.096C253.343 365.096 253.955 365.396 254.003 366.296L255.335 366.056C254.939 364.508 253.895 363.896 252.503 363.896C251.375 363.896 249.959 364.52 249.959 366.032ZM257.439 362.42L257.439 364.088L256.155 364.088L256.155 365.3L257.439 365.3L257.439 369.056C257.439 370.328 258.075 371.12 259.455 371.12C259.875 371.12 260.367 371.012 260.727 370.904L260.487 369.692C260.211 369.764 260.043 369.8 259.767 369.8C259.155 369.8 258.939 369.524 258.939 368.984L258.939 365.3L260.667 365.3L260.667 364.088L258.939 364.088L258.939 362.18L257.439 362.42ZM265.45 365.516C265.822 365.516 266.086 365.564 266.35 365.672L266.494 363.992C266.35 363.92 266.146 363.896 265.966 363.896C265.282 363.896 264.202 364.292 263.638 365.744L263.638 364.088L262.138 364.088L262.138 371L263.638 371L263.638 367.976C263.638 366.056 264.478 365.516 265.45 365.516ZM268.234 373.4C269.578 373.4 270.442 372.692 270.982 371.288L273.742 364.088L272.074 364.088L270.334 369.488L268.51 364.088L266.842 364.088L269.386 370.472C269.734 371.348 269.41 372.152 268.378 372.152C267.838 372.152 267.502 371.984 267.286 371.852L267.046 373.148C267.37 373.304 267.778 373.4 268.234 373.4ZM288.082 364.088L286.414 364.088L284.938 369.128L283.27 364.088L282.154 364.088L280.498 369.104L279.01 364.088L277.342 364.088L279.826 371L281.122 371L282.718 366.632L284.302 371L285.598 371L288.082 364.088ZM291.872 371.18C293.108 371.18 293.864 370.424 294.212 369.572L294.212 371L295.712 371L295.712 364.088L294.212 364.088L294.212 365.444C293.72 364.352 292.964 363.896 291.884 363.896C290.432 363.896 288.836 365.06 288.836 367.472C288.836 370.004 290.444 371.18 291.872 371.18ZM292.292 365.192C293.3 365.192 294.212 365.96 294.212 367.556C294.212 369.2 293.3 369.872 292.28 369.872C291.332 369.872 290.348 369.164 290.348 367.556C290.348 365.924 291.344 365.192 292.292 365.192ZM297.49 366.032C297.49 366.992 298.042 367.7 299.218 367.952L300.478 368.228C301.342 368.42 301.582 368.672 301.582 369.08C301.582 369.656 301.018 369.98 300.19 369.98C299.218 369.98 298.582 369.524 298.486 368.672L297.154 368.912C297.382 370.52 298.882 371.18 300.226 371.18C301.558 371.18 302.974 370.436 302.974 368.936C302.974 367.976 302.41 367.328 301.186 367.064L299.818 366.764C299.122 366.608 298.882 366.272 298.882 365.912C298.882 365.408 299.362 365.096 300.046 365.096C300.874 365.096 301.486 365.396 301.534 366.296L302.866 366.056C302.47 364.508 301.426 363.896 300.034 363.896C298.906 363.896 297.49 364.52 297.49 366.032ZM304.442 361.7L304.442 371L305.942 371L305.942 367.052C305.942 365.816 306.65 365.252 307.658 365.252C308.462 365.252 309.11 365.732 309.11 367.016L309.11 371L310.61 371L310.61 366.368C310.61 364.508 309.47 363.896 308.15 363.896C307.418 363.896 306.434 364.22 305.942 365.108L305.942 361.7L304.442 361.7ZM312.47 364.088L312.47 371L313.97 371L313.97 364.088L312.47 364.088ZM313.214 361.1C312.71 361.1 312.314 361.508 312.314 362C312.314 362.492 312.71 362.9 313.214 362.9C313.718 362.9 314.114 362.492 314.114 362C314.114 361.508 313.718 361.1 313.214 361.1ZM319.096 365.252C319.912 365.252 320.56 365.732 320.56 367.016L320.56 371L322.06 371L322.06 366.368C322.06 364.508 320.884 363.896 319.648 363.896C318.832 363.896 317.884 364.232 317.392 365.108L317.392 364.088L315.892 364.088L315.892 371L317.392 371L317.392 367.052C317.392 365.816 318.1 365.252 319.096 365.252ZM326.463 370.604C327.675 370.604 328.311 369.812 328.683 369.056L328.683 370.088C328.683 371.552 328.071 372.152 326.739 372.152C325.899 372.152 325.095 371.912 324.963 370.916L323.511 371.156C323.859 372.908 325.431 373.496 326.679 373.496C328.887 373.496 330.183 372.344 330.183 370.028L330.183 364.076L328.683 364.076L328.683 365.42C328.155 364.352 327.495 363.896 326.583 363.896C325.023 363.896 323.547 364.952 323.547 367.148C323.547 369.5 325.047 370.604 326.463 370.604ZM326.847 365.192C327.855 365.192 328.683 365.924 328.683 367.244C328.683 368.636 327.855 369.296 326.847 369.296C325.875 369.296 325.059 368.636 325.059 367.232C325.059 365.876 325.911 365.192 326.847 365.192ZM217.194 391.18C218.43 391.18 219.186 390.424 219.534 389.572L219.534 391L221.034 391L221.034 384.088L219.534 384.088L219.534 385.444C219.042 384.352 218.286 383.896 217.206 383.896C215.754 383.896 214.158 385.06 214.158 387.472C214.158 390.004 215.766 391.18 217.194 391.18ZM217.614 385.192C218.622 385.192 219.534 385.96 219.534 387.556C219.534 389.2 218.622 389.872 217.602 389.872C216.654 389.872 215.67 389.164 215.67 387.556C215.67 385.924 216.666 385.192 217.614 385.192ZM226.16 385.252C226.976 385.252 227.624 385.732 227.624 387.016L227.624 391L229.124 391L229.124 386.368C229.124 384.508 227.948 383.896 226.712 383.896C225.896 383.896 224.948 384.232 224.456 385.108L224.456 384.088L222.956 384.088L222.956 391L224.456 391L224.456 387.052C224.456 385.816 225.164 385.252 226.16 385.252ZM237.475 381.7L235.975 381.7L235.975 385.444C235.483 384.352 234.739 383.896 233.803 383.896C232.195 383.896 230.599 385.06 230.599 387.472C230.599 390.004 232.207 391.18 233.611 391.18C234.871 391.18 235.627 390.52 235.975 389.692L235.975 391L237.475 391L237.475 381.7ZM234.055 385.192C235.063 385.192 235.975 385.996 235.975 387.556C235.975 389.164 235.063 389.872 234.043 389.872C233.095 389.872 232.111 389.128 232.111 387.556C232.111 385.96 233.107 385.192 234.055 385.192ZM249.016 386.776C248.764 384.916 247.288 383.896 245.68 383.896C243.7 383.896 242.2 385.3 242.2 387.532C242.2 389.668 243.676 391.18 245.788 391.18C247.12 391.18 248.68 390.448 249.004 388.336L247.636 388.096C247.48 389.272 246.832 389.872 245.776 389.872C244.372 389.872 243.712 388.804 243.712 387.532C243.712 385.996 244.552 385.192 245.608 385.192C246.568 385.192 247.372 385.708 247.54 387.016L249.016 386.776ZM256.557 391L256.557 384.088L255.057 384.088L255.057 388.108C255.057 389.284 254.277 389.824 253.269 389.824C252.345 389.824 251.889 389.416 251.889 388.348L251.889 384.088L250.389 384.088L250.389 388.912C250.389 390.508 251.541 391.18 252.693 391.18C253.557 391.18 254.517 390.784 255.057 389.836L255.057 391L256.557 391ZM258.98 382.42L258.98 384.088L257.696 384.088L257.696 385.3L258.98 385.3L258.98 389.056C258.98 390.328 259.616 391.12 260.996 391.12C261.416 391.12 261.908 391.012 262.268 390.904L262.028 389.692C261.752 389.764 261.584 389.8 261.308 389.8C260.696 389.8 260.48 389.524 260.48 388.984L260.48 385.3L262.208 385.3L262.208 384.088L260.48 384.088L260.48 382.18L258.98 382.42ZM266.667 383.896C264.795 383.896 263.247 385.264 263.247 387.532C263.247 389.8 264.795 391.18 266.667 391.18C268.539 391.18 270.087 389.8 270.087 387.532C270.087 385.264 268.539 383.896 266.667 383.896ZM266.667 385.192C267.699 385.192 268.575 385.948 268.575 387.532C268.575 389.116 267.699 389.884 266.667 389.884C265.635 389.884 264.759 389.116 264.759 387.532C264.759 385.948 265.635 385.192 266.667 385.192ZM279.221 385.252C280.073 385.252 280.721 385.732 280.721 387.016L280.721 391L282.221 391L282.221 386.368C282.221 384.508 281.081 383.896 279.821 383.896C279.053 383.896 278.081 384.208 277.565 385.24C277.193 384.256 276.317 383.896 275.393 383.896C274.565 383.896 273.569 384.22 273.077 385.108L273.077 384.088L271.577 384.088L271.577 391L273.077 391L273.077 387.052C273.077 385.816 273.785 385.252 274.745 385.252C275.597 385.252 276.245 385.732 276.245 387.016L276.245 391L277.745 391L277.745 387.052C277.745 385.816 278.369 385.252 279.221 385.252ZM287.117 385.192C288.089 385.192 288.857 385.648 288.977 386.8L285.221 386.8C285.425 385.732 286.121 385.192 287.117 385.192ZM290.393 387.868L290.393 387.376C290.393 385.336 289.049 383.896 287.177 383.896C285.173 383.896 283.649 385.3 283.649 387.52C283.649 389.8 285.233 391.18 287.273 391.18C288.545 391.18 290.081 390.448 290.345 388.852L288.953 388.612C288.797 389.404 288.341 389.884 287.213 389.884C285.965 389.884 285.281 389.08 285.173 387.868L290.393 387.868ZM295.186 385.516C295.558 385.516 295.822 385.564 296.086 385.672L296.23 383.992C296.086 383.92 295.882 383.896 295.702 383.896C295.018 383.896 293.938 384.292 293.374 385.744L293.374 384.088L291.874 384.088L291.874 391L293.374 391L293.374 387.976C293.374 386.056 294.214 385.516 295.186 385.516ZM300.593 381.7L300.593 391L302.093 391L302.093 381.7L300.593 381.7ZM307.003 383.896C305.131 383.896 303.583 385.264 303.583 387.532C303.583 389.8 305.131 391.18 307.003 391.18C308.875 391.18 310.423 389.8 310.423 387.532C310.423 385.264 308.875 383.896 307.003 383.896ZM307.003 385.192C308.035 385.192 308.911 385.948 308.911 387.532C308.911 389.116 308.035 389.884 307.003 389.884C305.971 389.884 305.095 389.116 305.095 387.532C305.095 385.948 305.971 385.192 307.003 385.192ZM314.901 383.896C313.029 383.896 311.481 385.264 311.481 387.532C311.481 389.8 313.029 391.18 314.901 391.18C316.773 391.18 318.321 389.8 318.321 387.532C318.321 385.264 316.773 383.896 314.901 383.896ZM314.901 385.192C315.933 385.192 316.809 385.948 316.809 387.532C316.809 389.116 315.933 389.884 314.901 389.884C313.869 389.884 312.993 389.116 312.993 387.532C312.993 385.948 313.869 385.192 314.901 385.192ZM319.812 391L321.312 391L321.312 389.344L322.584 387.916L324.648 391L326.208 391L323.436 386.944L325.98 384.088L324.348 384.088L321.312 387.664L321.312 381.7L319.812 381.7L319.812 391ZM333.303 391L333.303 384.088L331.803 384.088L331.803 388.108C331.803 389.284 331.023 389.824 330.015 389.824C329.091 389.824 328.635 389.416 328.635 388.348L328.635 384.088L327.135 384.088L327.135 388.912C327.135 390.508 328.287 391.18 329.439 391.18C330.303 391.18 331.263 390.784 331.803 389.836L331.803 391L333.303 391ZM339.038 383.896C337.862 383.896 337.142 384.64 336.698 385.444L336.698 384.088L335.198 384.088L335.198 393.4L336.698 393.4L336.698 389.692C337.274 390.676 338.018 391.18 338.894 391.18C340.502 391.18 342.074 389.956 342.074 387.436C342.074 385.024 340.442 383.896 339.038 383.896ZM338.63 385.192C339.578 385.192 340.562 385.948 340.562 387.52C340.562 389.116 339.578 389.872 338.618 389.872C337.61 389.872 336.698 389.056 336.698 387.52C336.698 385.912 337.61 385.192 338.63 385.192Z" fill="#FF5B24"/>
<path d="M398.983 377.616L398.971 377.712C398.827 378.852 397.903 379.644 396.487 379.644C394.999 379.644 393.511 378.756 393.511 376.536C393.511 374.424 394.747 373.356 396.403 373.356C397.663 373.356 398.731 373.836 398.935 375.336L400.519 375.096C400.171 372.588 397.999 371.82 396.499 371.82C393.811 371.82 391.819 373.752 391.819 376.536C391.819 379.2 393.775 381.18 396.055 381.18C397.507 381.18 398.539 380.28 399.019 379.32L399.031 379.32L399.307 381L400.639 381L400.639 376.2L396.619 376.2L396.619 377.616L398.983 377.616ZM405.609 375.192C406.581 375.192 407.349 375.648 407.469 376.8L403.713 376.8C403.917 375.732 404.613 375.192 405.609 375.192ZM408.885 377.868L408.885 377.376C408.885 375.336 407.541 373.896 405.669 373.896C403.665 373.896 402.141 375.3 402.141 377.52C402.141 379.8 403.725 381.18 405.765 381.18C407.037 381.18 408.573 380.448 408.837 378.852L407.445 378.612C407.289 379.404 406.833 379.884 405.705 379.884C404.457 379.884 403.773 379.08 403.665 377.868L408.885 377.868ZM410.894 372.42L410.894 374.088L409.61 374.088L409.61 375.3L410.894 375.3L410.894 379.056C410.894 380.328 411.53 381.12 412.91 381.12C413.33 381.12 413.822 381.012 414.182 380.904L413.942 379.692C413.666 379.764 413.498 379.8 413.222 379.8C412.61 379.8 412.394 379.524 412.394 378.984L412.394 375.3L414.122 375.3L414.122 374.088L412.394 374.088L412.394 372.18L410.894 372.42ZM422.139 375.516C422.511 375.516 422.775 375.564 423.039 375.672L423.183 373.992C423.039 373.92 422.835 373.896 422.655 373.896C421.971 373.896 420.891 374.292 420.327 375.744L420.327 374.088L418.827 374.088L418.827 381L420.327 381L420.327 377.976C420.327 376.056 421.167 375.516 422.139 375.516ZM427.348 375.192C428.32 375.192 429.088 375.648 429.208 376.8L425.452 376.8C425.656 375.732 426.352 375.192 427.348 375.192ZM430.624 377.868L430.624 377.376C430.624 375.336 429.28 373.896 427.408 373.896C425.404 373.896 423.88 375.3 423.88 377.52C423.88 379.8 425.464 381.18 427.504 381.18C428.776 381.18 430.312 380.448 430.576 378.852L429.184 378.612C429.028 379.404 428.572 379.884 427.444 379.884C426.196 379.884 425.512 379.08 425.404 377.868L430.624 377.868ZM438.489 376.776C438.237 374.916 436.761 373.896 435.153 373.896C433.173 373.896 431.673 375.3 431.673 377.532C431.673 379.668 433.149 381.18 435.261 381.18C436.593 381.18 438.153 380.448 438.477 378.336L437.109 378.096C436.953 379.272 436.305 379.872 435.249 379.872C433.845 379.872 433.185 378.804 433.185 377.532C433.185 375.996 434.025 375.192 435.081 375.192C436.041 375.192 436.845 375.708 437.013 377.016L438.489 376.776ZM439.897 374.088L439.897 381L441.397 381L441.397 374.088L439.897 374.088ZM440.641 371.1C440.137 371.1 439.741 371.508 439.741 372C439.741 372.492 440.137 372.9 440.641 372.9C441.145 372.9 441.541 372.492 441.541 372C441.541 371.508 441.145 371.1 440.641 371.1ZM447.159 373.896C445.983 373.896 445.263 374.64 444.819 375.444L444.819 374.088L443.319 374.088L443.319 383.4L444.819 383.4L444.819 379.692C445.395 380.676 446.139 381.18 447.015 381.18C448.623 381.18 450.195 379.956 450.195 377.436C450.195 375.024 448.563 373.896 447.159 373.896ZM446.751 375.192C447.699 375.192 448.683 375.948 448.683 377.52C448.683 379.116 447.699 379.872 446.739 379.872C445.731 379.872 444.819 379.056 444.819 377.52C444.819 375.912 445.731 375.192 446.751 375.192ZM451.733 374.088L451.733 381L453.233 381L453.233 374.088L451.733 374.088ZM452.477 371.1C451.973 371.1 451.577 371.508 451.577 372C451.577 372.492 451.973 372.9 452.477 372.9C452.981 372.9 453.377 372.492 453.377 372C453.377 371.508 452.981 371.1 452.477 371.1ZM458.191 375.192C459.163 375.192 459.931 375.648 460.051 376.8L456.295 376.8C456.499 375.732 457.195 375.192 458.191 375.192ZM461.467 377.868L461.467 377.376C461.467 375.336 460.123 373.896 458.251 373.896C456.247 373.896 454.723 375.3 454.723 377.52C454.723 379.8 456.307 381.18 458.347 381.18C459.619 381.18 461.155 380.448 461.419 378.852L460.027 378.612C459.871 379.404 459.415 379.884 458.287 379.884C457.039 379.884 456.355 379.08 456.247 377.868L461.467 377.868ZM466.152 375.252C466.968 375.252 467.616 375.732 467.616 377.016L467.616 381L469.116 381L469.116 376.368C469.116 374.508 467.94 373.896 466.704 373.896C465.888 373.896 464.94 374.232 464.448 375.108L464.448 374.088L462.948 374.088L462.948 381L464.448 381L464.448 377.052C464.448 375.816 465.156 375.252 466.152 375.252ZM471.504 372.42L471.504 374.088L470.22 374.088L470.22 375.3L471.504 375.3L471.504 379.056C471.504 380.328 472.14 381.12 473.52 381.12C473.94 381.12 474.432 381.012 474.792 380.904L474.552 379.692C474.276 379.764 474.108 379.8 473.832 379.8C473.22 379.8 473.004 379.524 473.004 378.984L473.004 375.3L474.732 375.3L474.732 374.088L473.004 374.088L473.004 372.18L471.504 372.42ZM479.965 372.42L479.965 374.088L478.681 374.088L478.681 375.3L479.965 375.3L479.965 379.056C479.965 380.328 480.601 381.12 481.981 381.12C482.401 381.12 482.893 381.012 483.253 380.904L483.013 379.692C482.737 379.764 482.569 379.8 482.293 379.8C481.681 379.8 481.465 379.524 481.465 378.984L481.465 375.3L483.193 375.3L483.193 374.088L481.465 374.088L481.465 372.18L479.965 372.42ZM487.651 373.896C485.779 373.896 484.231 375.264 484.231 377.532C484.231 379.8 485.779 381.18 487.651 381.18C489.523 381.18 491.071 379.8 491.071 377.532C491.071 375.264 489.523 373.896 487.651 373.896ZM487.651 375.192C488.683 375.192 489.559 375.948 489.559 377.532C489.559 379.116 488.683 379.884 487.651 379.884C486.619 379.884 485.743 379.116 485.743 377.532C485.743 375.948 486.619 375.192 487.651 375.192ZM492.562 381L494.062 381L494.062 379.344L495.334 377.916L497.398 381L498.958 381L496.186 376.944L498.73 374.088L497.098 374.088L494.062 377.664L494.062 371.7L492.562 371.7L492.562 381ZM502.957 375.192C503.929 375.192 504.697 375.648 504.817 376.8L501.061 376.8C501.265 375.732 501.961 375.192 502.957 375.192ZM506.233 377.868L506.233 377.376C506.233 375.336 504.889 373.896 503.017 373.896C501.013 373.896 499.489 375.3 499.489 377.52C499.489 379.8 501.073 381.18 503.113 381.18C504.385 381.18 505.921 380.448 506.185 378.852L504.793 378.612C504.637 379.404 504.181 379.884 503.053 379.884C501.805 379.884 501.121 379.08 501.013 377.868L506.233 377.868ZM510.918 375.252C511.734 375.252 512.382 375.732 512.382 377.016L512.382 381L513.882 381L513.882 376.368C513.882 374.508 512.706 373.896 511.47 373.896C510.654 373.896 509.706 374.232 509.214 375.108L509.214 374.088L507.714 374.088L507.714 381L509.214 381L509.214 377.052C509.214 375.816 509.922 375.252 510.918 375.252Z" fill="#FF5B24"/>
<path d="M1464.24 373.404L1465.85 373.404C1466.87 373.404 1467.45 374.004 1467.45 375.12C1467.45 376.176 1466.87 376.776 1465.83 376.776L1464.24 376.776L1464.24 373.404ZM1462.67 372L1462.67 381L1464.24 381L1464.24 378.18L1465.98 378.18C1467.9 378.18 1469.13 376.836 1469.13 375.096C1469.13 373.08 1467.97 372 1465.97 372L1462.67 372ZM1473.08 381.18C1474.31 381.18 1475.07 380.424 1475.42 379.572L1475.42 381L1476.92 381L1476.92 374.088L1475.42 374.088L1475.42 375.444C1474.92 374.352 1474.17 373.896 1473.09 373.896C1471.64 373.896 1470.04 375.06 1470.04 377.472C1470.04 380.004 1471.65 381.18 1473.08 381.18ZM1473.5 375.192C1474.5 375.192 1475.42 375.96 1475.42 377.556C1475.42 379.2 1474.5 379.872 1473.48 379.872C1472.54 379.872 1471.55 379.164 1471.55 377.556C1471.55 375.924 1472.55 375.192 1473.5 375.192ZM1479.45 383.4C1480.79 383.4 1481.66 382.692 1482.2 381.288L1484.96 374.088L1483.29 374.088L1481.55 379.488L1479.73 374.088L1478.06 374.088L1480.6 380.472C1480.95 381.348 1480.63 382.152 1479.59 382.152C1479.05 382.152 1478.72 381.984 1478.5 381.852L1478.26 383.148C1478.59 383.304 1478.99 383.4 1479.45 383.4ZM1493.75 375.252C1494.6 375.252 1495.25 375.732 1495.25 377.016L1495.25 381L1496.75 381L1496.75 376.368C1496.75 374.508 1495.61 373.896 1494.35 373.896C1493.58 373.896 1492.61 374.208 1492.09 375.24C1491.72 374.256 1490.84 373.896 1489.92 373.896C1489.09 373.896 1488.1 374.22 1487.6 375.108L1487.6 374.088L1486.1 374.088L1486.1 381L1487.6 381L1487.6 377.052C1487.6 375.816 1488.31 375.252 1489.27 375.252C1490.12 375.252 1490.77 375.732 1490.77 377.016L1490.77 381L1492.27 381L1492.27 377.052C1492.27 375.816 1492.9 375.252 1493.75 375.252ZM1501.64 375.192C1502.62 375.192 1503.38 375.648 1503.5 376.8L1499.75 376.8C1499.95 375.732 1500.65 375.192 1501.64 375.192ZM1504.92 377.868L1504.92 377.376C1504.92 375.336 1503.58 373.896 1501.7 373.896C1499.7 373.896 1498.18 375.3 1498.18 377.52C1498.18 379.8 1499.76 381.18 1501.8 381.18C1503.07 381.18 1504.61 380.448 1504.87 378.852L1503.48 378.612C1503.32 379.404 1502.87 379.884 1501.74 379.884C1500.49 379.884 1499.81 379.08 1499.7 377.868L1504.92 377.868ZM1509.61 375.252C1510.42 375.252 1511.07 375.732 1511.07 377.016L1511.07 381L1512.57 381L1512.57 376.368C1512.57 374.508 1511.39 373.896 1510.16 373.896C1509.34 373.896 1508.39 374.232 1507.9 375.108L1507.9 374.088L1506.4 374.088L1506.4 381L1507.9 381L1507.9 377.052C1507.9 375.816 1508.61 375.252 1509.61 375.252ZM1514.96 372.42L1514.96 374.088L1513.67 374.088L1513.67 375.3L1514.96 375.3L1514.96 379.056C1514.96 380.328 1515.59 381.12 1516.97 381.12C1517.39 381.12 1517.88 381.012 1518.24 380.904L1518 379.692C1517.73 379.764 1517.56 379.8 1517.28 379.8C1516.67 379.8 1516.46 379.524 1516.46 378.984L1516.46 375.3L1518.18 375.3L1518.18 374.088L1516.46 374.088L1516.46 372.18L1514.96 372.42ZM1522.89 374.088L1522.89 381L1524.39 381L1524.39 374.088L1522.89 374.088ZM1523.63 371.1C1523.13 371.1 1522.73 371.508 1522.73 372C1522.73 372.492 1523.13 372.9 1523.63 372.9C1524.14 372.9 1524.53 372.492 1524.53 372C1524.53 371.508 1524.14 371.1 1523.63 371.1ZM1526.17 376.032C1526.17 376.992 1526.72 377.7 1527.9 377.952L1529.16 378.228C1530.02 378.42 1530.26 378.672 1530.26 379.08C1530.26 379.656 1529.7 379.98 1528.87 379.98C1527.9 379.98 1527.26 379.524 1527.16 378.672L1525.83 378.912C1526.06 380.52 1527.56 381.18 1528.9 381.18C1530.24 381.18 1531.65 380.436 1531.65 378.936C1531.65 377.976 1531.09 377.328 1529.86 377.064L1528.5 376.764C1527.8 376.608 1527.56 376.272 1527.56 375.912C1527.56 375.408 1528.04 375.096 1528.72 375.096C1529.55 375.096 1530.16 375.396 1530.21 376.296L1531.54 376.056C1531.15 374.508 1530.1 373.896 1528.71 373.896C1527.58 373.896 1526.17 374.52 1526.17 376.032ZM1536.88 372.42L1536.88 374.088L1535.6 374.088L1535.6 375.3L1536.88 375.3L1536.88 379.056C1536.88 380.328 1537.52 381.12 1538.9 381.12C1539.32 381.12 1539.81 381.012 1540.17 380.904L1539.93 379.692C1539.65 379.764 1539.49 379.8 1539.21 379.8C1538.6 379.8 1538.38 379.524 1538.38 378.984L1538.38 375.3L1540.11 375.3L1540.11 374.088L1538.38 374.088L1538.38 372.18L1536.88 372.42ZM1544.89 375.516C1545.27 375.516 1545.53 375.564 1545.79 375.672L1545.94 373.992C1545.79 373.92 1545.59 373.896 1545.41 373.896C1544.73 373.896 1543.65 374.292 1543.08 375.744L1543.08 374.088L1541.58 374.088L1541.58 381L1543.08 381L1543.08 377.976C1543.08 376.056 1543.92 375.516 1544.89 375.516ZM1549.72 381.18C1550.95 381.18 1551.71 380.424 1552.06 379.572L1552.06 381L1553.56 381L1553.56 374.088L1552.06 374.088L1552.06 375.444C1551.57 374.352 1550.81 373.896 1549.73 373.896C1548.28 373.896 1546.68 375.06 1546.68 377.472C1546.68 380.004 1548.29 381.18 1549.72 381.18ZM1550.14 375.192C1551.15 375.192 1552.06 375.96 1552.06 377.556C1552.06 379.2 1551.15 379.872 1550.13 379.872C1549.18 379.872 1548.19 379.164 1548.19 377.556C1548.19 375.924 1549.19 375.192 1550.14 375.192ZM1558.68 375.252C1559.5 375.252 1560.15 375.732 1560.15 377.016L1560.15 381L1561.65 381L1561.65 376.368C1561.65 374.508 1560.47 373.896 1559.24 373.896C1558.42 373.896 1557.47 374.232 1556.98 375.108L1556.98 374.088L1555.48 374.088L1555.48 381L1556.98 381L1556.98 377.052C1556.98 375.816 1557.69 375.252 1558.68 375.252ZM1563.36 376.032C1563.36 376.992 1563.91 377.7 1565.09 377.952L1566.35 378.228C1567.21 378.42 1567.45 378.672 1567.45 379.08C1567.45 379.656 1566.89 379.98 1566.06 379.98C1565.09 379.98 1564.45 379.524 1564.36 378.672L1563.03 378.912C1563.25 380.52 1564.75 381.18 1566.1 381.18C1567.43 381.18 1568.85 380.436 1568.85 378.936C1568.85 377.976 1568.28 377.328 1567.06 377.064L1565.69 376.764C1564.99 376.608 1564.75 376.272 1564.75 375.912C1564.75 375.408 1565.23 375.096 1565.92 375.096C1566.75 375.096 1567.36 375.396 1567.41 376.296L1568.74 376.056C1568.34 374.508 1567.3 373.896 1565.91 373.896C1564.78 373.896 1563.36 374.52 1563.36 376.032ZM1570.71 381L1572.21 381L1572.21 375.3L1573.93 375.3L1573.93 374.088L1572.21 374.088L1572.21 373.812C1572.21 373.104 1572.55 372.732 1573.16 372.732C1573.48 372.732 1573.76 372.78 1574.05 372.864L1574.25 371.7C1573.92 371.58 1573.51 371.472 1573 371.472C1571.62 371.472 1570.71 372.36 1570.71 373.824L1570.71 374.088L1569.76 374.088L1569.76 375.3L1570.71 375.3L1570.71 381ZM1578.03 375.192C1579 375.192 1579.77 375.648 1579.89 376.8L1576.13 376.8C1576.34 375.732 1577.03 375.192 1578.03 375.192ZM1581.3 377.868L1581.3 377.376C1581.3 375.336 1579.96 373.896 1578.09 373.896C1576.08 373.896 1574.56 375.3 1574.56 377.52C1574.56 379.8 1576.14 381.18 1578.18 381.18C1579.46 381.18 1580.99 380.448 1581.26 378.852L1579.86 378.612C1579.71 379.404 1579.25 379.884 1578.12 379.884C1576.88 379.884 1576.19 379.08 1576.08 377.868L1581.3 377.868ZM1586.1 375.516C1586.47 375.516 1586.73 375.564 1587 375.672L1587.14 373.992C1587 373.92 1586.79 373.896 1586.61 373.896C1585.93 373.896 1584.85 374.292 1584.28 375.744L1584.28 374.088L1582.78 374.088L1582.78 381L1584.28 381L1584.28 377.976C1584.28 376.056 1585.12 375.516 1586.1 375.516ZM1591.58 375.516C1591.95 375.516 1592.22 375.564 1592.48 375.672L1592.62 373.992C1592.48 373.92 1592.28 373.896 1592.1 373.896C1591.41 373.896 1590.33 374.292 1589.77 375.744L1589.77 374.088L1588.27 374.088L1588.27 381L1589.77 381L1589.77 377.976C1589.77 376.056 1590.61 375.516 1591.58 375.516ZM1596.79 375.192C1597.76 375.192 1598.53 375.648 1598.65 376.8L1594.89 376.8C1595.1 375.732 1595.79 375.192 1596.79 375.192ZM1600.06 377.868L1600.06 377.376C1600.06 375.336 1598.72 373.896 1596.85 373.896C1594.84 373.896 1593.32 375.3 1593.32 377.52C1593.32 379.8 1594.9 381.18 1596.94 381.18C1598.22 381.18 1599.75 380.448 1600.02 378.852L1598.62 378.612C1598.47 379.404 1598.01 379.884 1596.88 379.884C1595.64 379.884 1594.95 379.08 1594.84 377.868L1600.06 377.868ZM1608.04 371.7L1606.54 371.7L1606.54 375.444C1606.05 374.352 1605.3 373.896 1604.37 373.896C1602.76 373.896 1601.16 375.06 1601.16 377.472C1601.16 380.004 1602.77 381.18 1604.17 381.18C1605.43 381.18 1606.19 380.52 1606.54 379.692L1606.54 381L1608.04 381L1608.04 371.7ZM1604.62 375.192C1605.63 375.192 1606.54 375.996 1606.54 377.556C1606.54 379.164 1605.63 379.872 1604.61 379.872C1603.66 379.872 1602.67 379.128 1602.67 377.556C1602.67 375.96 1603.67 375.192 1604.62 375.192Z" fill="#FF5B24"/>
<line x1="929" y1="370" x2="929" y2="229" stroke="#49367E" stroke-width="4" stroke-dasharray="8 8"/>
<line x1="1123" y1="376" x2="1123" y2="229" stroke="#49367E" stroke-width="4" stroke-dasharray="8 8"/>
<path d="M871.484 484L871.484 493L873.056 493L873.056 484L871.484 484ZM874.923 486.412C874.923 489.88 879.903 488.74 879.903 490.648C879.903 491.332 879.375 491.788 878.355 491.788C877.383 491.788 876.267 491.464 876.111 489.928L874.563 490.288C874.803 492.22 876.507 493.18 878.307 493.18C879.903 493.18 881.475 492.268 881.475 490.552C881.475 487.192 876.519 488.416 876.519 486.352C876.519 485.644 877.059 485.212 877.983 485.212C878.787 485.212 879.687 485.572 879.759 486.82L881.343 486.46C881.079 484.6 879.471 483.82 878.055 483.82C876.483 483.82 874.923 484.684 874.923 486.412ZM884.622 485.404L886.23 485.404C887.25 485.404 887.826 486.004 887.826 487.12C887.826 488.176 887.25 488.776 886.206 488.776L884.622 488.776L884.622 485.404ZM883.05 484L883.05 493L884.622 493L884.622 490.18L886.362 490.18C888.282 490.18 889.506 488.836 889.506 487.096C889.506 485.08 888.354 484 886.35 484L883.05 484ZM897.586 487.516C897.958 487.516 898.222 487.564 898.486 487.672L898.63 485.992C898.486 485.92 898.282 485.896 898.102 485.896C897.418 485.896 896.338 486.292 895.774 487.744L895.774 486.088L894.274 486.088L894.274 493L895.774 493L895.774 489.976C895.774 488.056 896.614 487.516 897.586 487.516ZM902.795 487.192C903.767 487.192 904.535 487.648 904.655 488.8L900.899 488.8C901.103 487.732 901.799 487.192 902.795 487.192ZM906.071 489.868L906.071 489.376C906.071 487.336 904.727 485.896 902.855 485.896C900.851 485.896 899.327 487.3 899.327 489.52C899.327 491.8 900.911 493.18 902.951 493.18C904.223 493.18 905.759 492.448 906.023 490.852L904.631 490.612C904.475 491.404 904.019 491.884 902.891 491.884C901.643 491.884 900.959 491.08 900.851 489.868L906.071 489.868ZM913.672 486.088L912.004 486.088L910.228 491.308L908.44 486.088L906.772 486.088L909.532 493L910.912 493L913.672 486.088ZM917.805 485.896C915.933 485.896 914.385 487.264 914.385 489.532C914.385 491.8 915.933 493.18 917.805 493.18C919.677 493.18 921.225 491.8 921.225 489.532C921.225 487.264 919.677 485.896 917.805 485.896ZM917.805 487.192C918.837 487.192 919.713 487.948 919.713 489.532C919.713 491.116 918.837 491.884 917.805 491.884C916.773 491.884 915.897 491.116 915.897 489.532C915.897 487.948 916.773 487.192 917.805 487.192ZM922.716 493L924.216 493L924.216 491.344L925.488 489.916L927.552 493L929.112 493L926.34 488.944L928.884 486.088L927.252 486.088L924.216 489.664L924.216 483.7L922.716 483.7L922.716 493ZM933.111 487.192C934.083 487.192 934.851 487.648 934.971 488.8L931.215 488.8C931.419 487.732 932.115 487.192 933.111 487.192ZM936.387 489.868L936.387 489.376C936.387 487.336 935.043 485.896 933.171 485.896C931.167 485.896 929.643 487.3 929.643 489.52C929.643 491.8 931.227 493.18 933.267 493.18C934.539 493.18 936.075 492.448 936.339 490.852L934.947 490.612C934.791 491.404 934.335 491.884 933.207 491.884C931.959 491.884 931.275 491.08 931.167 489.868L936.387 489.868ZM937.724 488.032C937.724 488.992 938.276 489.7 939.452 489.952L940.712 490.228C941.576 490.42 941.816 490.672 941.816 491.08C941.816 491.656 941.252 491.98 940.424 491.98C939.452 491.98 938.816 491.524 938.72 490.672L937.388 490.912C937.616 492.52 939.116 493.18 940.46 493.18C941.792 493.18 943.208 492.436 943.208 490.936C943.208 489.976 942.644 489.328 941.42 489.064L940.052 488.764C939.356 488.608 939.116 488.272 939.116 487.912C939.116 487.408 939.596 487.096 940.28 487.096C941.108 487.096 941.72 487.396 941.768 488.296L943.1 488.056C942.704 486.508 941.66 485.896 940.268 485.896C939.14 485.896 937.724 486.52 937.724 488.032ZM947.911 486.088L947.911 493L949.411 493L949.411 486.088L947.911 486.088ZM948.655 483.1C948.151 483.1 947.755 483.508 947.755 484C947.755 484.492 948.151 484.9 948.655 484.9C949.159 484.9 949.555 484.492 949.555 484C949.555 483.508 949.159 483.1 948.655 483.1ZM954.537 487.252C955.353 487.252 956.001 487.732 956.001 489.016L956.001 493L957.501 493L957.501 488.368C957.501 486.508 956.325 485.896 955.089 485.896C954.273 485.896 953.325 486.232 952.833 487.108L952.833 486.088L951.333 486.088L951.333 493L952.833 493L952.833 489.052C952.833 487.816 953.541 487.252 954.537 487.252ZM965.48 486.088L963.812 486.088L962.036 491.308L960.248 486.088L958.58 486.088L961.34 493L962.72 493L965.48 486.088ZM969.614 485.896C967.742 485.896 966.194 487.264 966.194 489.532C966.194 491.8 967.742 493.18 969.614 493.18C971.486 493.18 973.034 491.8 973.034 489.532C973.034 487.264 971.486 485.896 969.614 485.896ZM969.614 487.192C970.646 487.192 971.522 487.948 971.522 489.532C971.522 491.116 970.646 491.884 969.614 491.884C968.582 491.884 967.706 491.116 967.706 489.532C967.706 487.948 968.582 487.192 969.614 487.192ZM974.524 486.088L974.524 493L976.024 493L976.024 486.088L974.524 486.088ZM975.268 483.1C974.764 483.1 974.368 483.508 974.368 484C974.368 484.492 974.764 484.9 975.268 484.9C975.772 484.9 976.168 484.492 976.168 484C976.168 483.508 975.772 483.1 975.268 483.1ZM984.33 488.776C984.078 486.916 982.602 485.896 980.994 485.896C979.014 485.896 977.514 487.3 977.514 489.532C977.514 491.668 978.99 493.18 981.102 493.18C982.434 493.18 983.994 492.448 984.318 490.336L982.95 490.096C982.794 491.272 982.146 491.872 981.09 491.872C979.686 491.872 979.026 490.804 979.026 489.532C979.026 487.996 979.866 487.192 980.922 487.192C981.882 487.192 982.686 487.708 982.854 489.016L984.33 488.776ZM988.775 487.192C989.747 487.192 990.515 487.648 990.635 488.8L986.879 488.8C987.083 487.732 987.779 487.192 988.775 487.192ZM992.051 489.868L992.051 489.376C992.051 487.336 990.707 485.896 988.835 485.896C986.831 485.896 985.307 487.3 985.307 489.52C985.307 491.8 986.891 493.18 988.931 493.18C990.203 493.18 991.739 492.448 992.003 490.852L990.611 490.612C990.455 491.404 989.999 491.884 988.871 491.884C987.623 491.884 986.939 491.08 986.831 489.868L992.051 489.868Z" fill="#49367E"/>
<path d="M986.358 375.678C986.358 406.429 961.429 431.358 930.678 431.358C899.927 431.358 874.999 406.429 874.999 375.678C874.999 344.927 899.927 319.999 930.678 319.999C961.429 319.999 986.358 344.927 986.358 375.678Z" fill="#EEEDF3"/>
<path fill-rule="evenodd" clip-rule="evenodd" d="M934.52 431.289C934.519 416.299 934.536 402.156 934.6 398.422C934.911 380.204 952.875 384.085 952.875 384.085L974.662 398.422L974.656 409.963C965.192 422.089 950.816 430.195 934.52 431.289Z" fill="#FFD3BB"/>
<path d="M970.075 410.11L937.872 409.97C934.773 409.956 932.27 407.432 932.284 404.332L932.567 339.415C932.581 336.315 935.105 333.813 938.205 333.826L970.407 333.967C973.507 333.981 976.009 336.504 975.996 339.605L975.712 404.522C975.699 407.621 973.175 410.124 970.075 410.11Z" fill="#FF5A23"/>
<path d="M975.808 400.266L932.379 400.077L932.624 344.029L976.052 344.218L975.808 400.266Z" fill="#FF985F"/>
<line x1="956.73" y1="362.898" x2="958.06" y2="358.806" stroke="#FFF4EC" stroke-width="3.05248" stroke-linecap="round" stroke-linejoin="round"/>
<line x1="950.325" y1="366.656" x2="946.844" y2="364.127" stroke="#FFF4EC" stroke-width="3.05248" stroke-linecap="round" stroke-linejoin="round"/>
<line x1="1.52624" y1="-1.52624" x2="5.82905" y2="-1.52624" transform="matrix(0.707107 0.707107 0.707107 -0.707107 959.534 371.374)" stroke="#FFF4EC" stroke-width="3.05248" stroke-linecap="round" stroke-linejoin="round"/>
<line x1="1.52624" y1="-1.52624" x2="5.82905" y2="-1.52624" transform="matrix(-0.809017 0.587785 0.587785 0.809017 954.281 372.937)" stroke="#FFF4EC" stroke-width="3.05248" stroke-linecap="round" stroke-linejoin="round"/>
<line x1="1.52624" y1="-1.52624" x2="5.82905" y2="-1.52624" transform="matrix(1 0 0 -1 960.315 367.466)" stroke="#FFF4EC" stroke-width="3.05248" stroke-linecap="round" stroke-linejoin="round"/>
<path d="M938.808 379.685L927.582 378.078C924.567 377.646 922.473 374.852 922.904 371.837C923.336 368.822 926.131 366.728 929.145 367.16L940.371 368.767C943.385 369.197 945.479 371.992 945.048 375.007C944.617 378.022 941.823 380.116 938.808 379.685Z" fill="#FFD3BB"/>
<path d="M937.474 389.974L926.248 388.366C923.233 387.935 921.139 385.141 921.571 382.126C922.002 379.11 924.796 377.017 927.811 377.448L939.037 379.055C942.052 379.486 944.146 382.281 943.714 385.295C943.283 388.31 940.489 390.405 937.474 389.974Z" fill="#FFD3BB"/>
<path d="M937.12 400.27L925.894 398.663C922.88 398.231 920.784 395.437 921.216 392.423C921.648 389.407 924.442 387.313 927.457 387.745L938.683 389.352C941.698 389.783 943.792 392.577 943.361 395.592C942.929 398.607 940.135 400.702 937.12 400.27Z" fill="#FFD3BB"/>
<path fill-rule="evenodd" clip-rule="evenodd" d="M982.45 396.21C980.414 401.341 977.637 406.097 974.251 410.346L966.087 414.934L962.367 418.281C961.979 417.682 961.641 417.199 961.349 416.781C960.129 415.036 959.707 414.433 959.721 411.224C959.769 400.338 968.632 391.551 979.519 391.598L982.45 396.21Z" fill="#FFD3BB"/>
<path fill-rule="evenodd" clip-rule="evenodd" d="M966.283 418.423C964.649 417.227 964 415.057 964.934 411.715C967.139 403.83 969.852 400.862 973.074 398.912C976.296 396.962 975.787 391.789 975.787 391.789C975.787 391.789 971.972 386.702 972.057 381.445C972.069 380.679 972.073 379.906 972.077 379.135C972.1 374.61 972.123 370.189 973.837 368.217C975.533 366.267 978.162 364.911 980.96 365.674C983.758 366.437 985.226 369.145 985.03 371.44C984.949 372.376 984.793 373.261 984.636 374.155C984.294 376.094 983.945 378.07 984.351 380.682C984.637 382.515 985.104 383.648 985.667 384.716C983.437 398.204 976.359 410.057 966.283 418.423Z" fill="#FFD3BB"/>
<path d="M748.823 361.216C748.463 359.008 746.567 357.82 744.683 357.82C742.115 357.82 739.991 359.68 739.991 362.44C739.991 365.392 742.139 367.18 744.719 367.18C746.459 367.18 748.631 366.016 748.895 363.544L747.275 363.304C747.143 365.092 745.919 365.644 744.719 365.644C743.015 365.644 741.683 364.672 741.683 362.44C741.683 360.412 743.015 359.356 744.623 359.356C745.727 359.356 746.939 359.812 747.203 361.456L748.823 361.216ZM750.452 357.7L750.452 367L751.952 367L751.952 363.052C751.952 361.816 752.66 361.252 753.668 361.252C754.472 361.252 755.12 361.732 755.12 363.016L755.12 367L756.62 367L756.62 362.368C756.62 360.508 755.48 359.896 754.16 359.896C753.428 359.896 752.444 360.22 751.952 361.108L751.952 357.7L750.452 357.7ZM761.516 361.192C762.488 361.192 763.256 361.648 763.376 362.8L759.62 362.8C759.824 361.732 760.52 361.192 761.516 361.192ZM764.792 363.868L764.792 363.376C764.792 361.336 763.448 359.896 761.576 359.896C759.572 359.896 758.048 361.3 758.048 363.52C758.048 365.8 759.632 367.18 761.672 367.18C762.944 367.18 764.48 366.448 764.744 364.852L763.352 364.612C763.196 365.404 762.74 365.884 761.612 365.884C760.364 365.884 759.68 365.08 759.572 363.868L764.792 363.868ZM772.656 362.776C772.404 360.916 770.928 359.896 769.32 359.896C767.34 359.896 765.84 361.3 765.84 363.532C765.84 365.668 767.316 367.18 769.428 367.18C770.76 367.18 772.32 366.448 772.644 364.336L771.276 364.096C771.12 365.272 770.472 365.872 769.416 365.872C768.012 365.872 767.352 364.804 767.352 363.532C767.352 361.996 768.192 361.192 769.248 361.192C770.208 361.192 771.012 361.708 771.18 363.016L772.656 362.776ZM774.065 367L775.565 367L775.565 365.344L776.837 363.916L778.901 367L780.461 367L777.689 362.944L780.233 360.088L778.601 360.088L775.565 363.664L775.565 357.7L774.065 357.7L774.065 367ZM781.425 360.088L781.425 367L782.925 367L782.925 360.088L781.425 360.088ZM782.169 357.1C781.665 357.1 781.269 357.508 781.269 358C781.269 358.492 781.665 358.9 782.169 358.9C782.673 358.9 783.069 358.492 783.069 358C783.069 357.508 782.673 357.1 782.169 357.1ZM788.051 361.252C788.867 361.252 789.515 361.732 789.515 363.016L789.515 367L791.015 367L791.015 362.368C791.015 360.508 789.839 359.896 788.603 359.896C787.787 359.896 786.839 360.232 786.347 361.108L786.347 360.088L784.847 360.088L784.847 367L786.347 367L786.347 363.052C786.347 361.816 787.055 361.252 788.051 361.252ZM795.418 366.604C796.63 366.604 797.266 365.812 797.638 365.056L797.638 366.088C797.638 367.552 797.026 368.152 795.694 368.152C794.854 368.152 794.05 367.912 793.918 366.916L792.466 367.156C792.814 368.908 794.386 369.496 795.634 369.496C797.842 369.496 799.138 368.344 799.138 366.028L799.138 360.076L797.638 360.076L797.638 361.42C797.11 360.352 796.45 359.896 795.538 359.896C793.978 359.896 792.502 360.952 792.502 363.148C792.502 365.5 794.002 366.604 795.418 366.604ZM795.802 361.192C796.81 361.192 797.638 361.924 797.638 363.244C797.638 364.636 796.81 365.296 795.802 365.296C794.83 365.296 794.014 364.636 794.014 363.232C794.014 361.876 794.866 361.192 795.802 361.192ZM804.816 358.42L804.816 360.088L803.532 360.088L803.532 361.3L804.816 361.3L804.816 365.056C804.816 366.328 805.452 367.12 806.832 367.12C807.252 367.12 807.744 367.012 808.104 366.904L807.864 365.692C807.588 365.764 807.42 365.8 807.144 365.8C806.532 365.8 806.316 365.524 806.316 364.984L806.316 361.3L808.044 361.3L808.044 360.088L806.316 360.088L806.316 358.18L804.816 358.42ZM809.515 357.7L809.515 367L811.015 367L811.015 363.052C811.015 361.816 811.723 361.252 812.731 361.252C813.535 361.252 814.183 361.732 814.183 363.016L814.183 367L815.683 367L815.683 362.368C815.683 360.508 814.543 359.896 813.223 359.896C812.491 359.896 811.507 360.22 811.015 361.108L811.015 357.7L809.515 357.7ZM820.578 361.192C821.55 361.192 822.318 361.648 822.438 362.8L818.682 362.8C818.886 361.732 819.582 361.192 820.578 361.192ZM823.854 363.868L823.854 363.376C823.854 361.336 822.51 359.896 820.638 359.896C818.634 359.896 817.11 361.3 817.11 363.52C817.11 365.8 818.694 367.18 820.734 367.18C822.006 367.18 823.542 366.448 823.806 364.852L822.414 364.612C822.258 365.404 821.802 365.884 820.674 365.884C819.426 365.884 818.742 365.08 818.634 363.868L823.854 363.868ZM743.298 380.088L743.298 387L744.798 387L744.798 380.088L743.298 380.088ZM744.042 377.1C743.538 377.1 743.142 377.508 743.142 378C743.142 378.492 743.538 378.9 744.042 378.9C744.546 378.9 744.942 378.492 744.942 378C744.942 377.508 744.546 377.1 744.042 377.1ZM749.924 381.252C750.74 381.252 751.388 381.732 751.388 383.016L751.388 387L752.888 387L752.888 382.368C752.888 380.508 751.712 379.896 750.476 379.896C749.66 379.896 748.712 380.232 748.22 381.108L748.22 380.088L746.72 380.088L746.72 387L748.22 387L748.22 383.052C748.22 381.816 748.928 381.252 749.924 381.252ZM760.867 380.088L759.199 380.088L757.423 385.308L755.635 380.088L753.967 380.088L756.727 387L758.107 387L760.867 380.088ZM765.001 379.896C763.129 379.896 761.581 381.264 761.581 383.532C761.581 385.8 763.129 387.18 765.001 387.18C766.873 387.18 768.421 385.8 768.421 383.532C768.421 381.264 766.873 379.896 765.001 379.896ZM765.001 381.192C766.033 381.192 766.909 381.948 766.909 383.532C766.909 385.116 766.033 385.884 765.001 385.884C763.969 385.884 763.093 385.116 763.093 383.532C763.093 381.948 763.969 381.192 765.001 381.192ZM769.911 380.088L769.911 387L771.411 387L771.411 380.088L769.911 380.088ZM770.655 377.1C770.151 377.1 769.755 377.508 769.755 378C769.755 378.492 770.151 378.9 770.655 378.9C771.159 378.9 771.555 378.492 771.555 378C771.555 377.508 771.159 377.1 770.655 377.1ZM779.717 382.776C779.465 380.916 777.989 379.896 776.381 379.896C774.401 379.896 772.901 381.3 772.901 383.532C772.901 385.668 774.377 387.18 776.489 387.18C777.821 387.18 779.381 386.448 779.705 384.336L778.337 384.096C778.181 385.272 777.533 385.872 776.477 385.872C775.073 385.872 774.413 384.804 774.413 383.532C774.413 381.996 775.253 381.192 776.309 381.192C777.269 381.192 778.073 381.708 778.241 383.016L779.717 382.776ZM784.162 381.192C785.134 381.192 785.902 381.648 786.022 382.8L782.266 382.8C782.47 381.732 783.166 381.192 784.162 381.192ZM787.438 383.868L787.438 383.376C787.438 381.336 786.094 379.896 784.222 379.896C782.218 379.896 780.694 381.3 780.694 383.52C780.694 385.8 782.278 387.18 784.318 387.18C785.59 387.18 787.126 386.448 787.39 384.852L785.998 384.612C785.842 385.404 785.386 385.884 784.258 385.884C783.01 385.884 782.326 385.08 782.218 383.868L787.438 383.868ZM792.009 382.032C792.009 382.992 792.561 383.7 793.737 383.952L794.997 384.228C795.861 384.42 796.101 384.672 796.101 385.08C796.101 385.656 795.537 385.98 794.709 385.98C793.737 385.98 793.101 385.524 793.005 384.672L791.673 384.912C791.901 386.52 793.401 387.18 794.745 387.18C796.077 387.18 797.493 386.436 797.493 384.936C797.493 383.976 796.929 383.328 795.705 383.064L794.337 382.764C793.641 382.608 793.401 382.272 793.401 381.912C793.401 381.408 793.881 381.096 794.565 381.096C795.393 381.096 796.005 381.396 796.053 382.296L797.385 382.056C796.989 380.508 795.945 379.896 794.553 379.896C793.425 379.896 792.009 380.52 792.009 382.032ZM799.49 378.42L799.49 380.088L798.206 380.088L798.206 381.3L799.49 381.3L799.49 385.056C799.49 386.328 800.126 387.12 801.506 387.12C801.926 387.12 802.418 387.012 802.778 386.904L802.538 385.692C802.262 385.764 802.094 385.8 801.818 385.8C801.206 385.8 800.99 385.524 800.99 384.984L800.99 381.3L802.718 381.3L802.718 380.088L800.99 380.088L800.99 378.18L799.49 378.42ZM806.841 387.18C808.077 387.18 808.833 386.424 809.181 385.572L809.181 387L810.681 387L810.681 380.088L809.181 380.088L809.181 381.444C808.689 380.352 807.933 379.896 806.853 379.896C805.401 379.896 803.805 381.06 803.805 383.472C803.805 386.004 805.413 387.18 806.841 387.18ZM807.261 381.192C808.269 381.192 809.181 381.96 809.181 383.556C809.181 385.2 808.269 385.872 807.249 385.872C806.301 385.872 805.317 385.164 805.317 383.556C805.317 381.924 806.313 381.192 807.261 381.192ZM813.131 378.42L813.131 380.088L811.847 380.088L811.847 381.3L813.131 381.3L813.131 385.056C813.131 386.328 813.767 387.12 815.147 387.12C815.567 387.12 816.059 387.012 816.419 386.904L816.179 385.692C815.903 385.764 815.735 385.8 815.459 385.8C814.847 385.8 814.631 385.524 814.631 384.984L814.631 381.3L816.359 381.3L816.359 380.088L814.631 380.088L814.631 378.18L813.131 378.42ZM820.865 381.192C821.837 381.192 822.605 381.648 822.725 382.8L818.969 382.8C819.173 381.732 819.869 381.192 820.865 381.192ZM824.141 383.868L824.141 383.376C824.141 381.336 822.797 379.896 820.925 379.896C818.921 379.896 817.397 381.3 817.397 383.52C817.397 385.8 818.981 387.18 821.021 387.18C822.293 387.18 823.829 386.448 824.093 384.852L822.701 384.612C822.545 385.404 822.089 385.884 820.961 385.884C819.713 385.884 819.029 385.08 818.921 383.868L824.141 383.868Z" fill="#FF5B24"/>
<path d="M1587.5 229.056C1587.5 259.157 1563.1 283.56 1533 283.56C1502.9 283.56 1478.5 259.157 1478.5 229.056C1478.5 198.954 1502.9 174.552 1533 174.552C1563.1 174.552 1587.5 198.954 1587.5 229.056Z" fill="#EEEDF3"/>
<path d="M1508.99 209.593C1510.14 210.586 1511.29 211.579 1512.43 212.573C1515.41 215.158 1518.49 217.637 1521.38 220.323C1525.99 224.611 1528.87 229.898 1530 236.098C1531.16 242.378 1530.35 248.418 1527.53 254.147C1524.82 259.638 1520.69 263.762 1515.27 266.594C1511.41 268.61 1507.3 269.696 1502.95 269.865C1494.79 270.182 1487.6 267.715 1481.56 262.188C1477.27 258.259 1474.57 253.376 1473.29 247.706C1472.6 244.664 1472.4 241.586 1472.73 238.488C1473.39 232.19 1475.83 226.672 1480.07 221.957C1481.58 220.285 1483.33 218.882 1485.02 217.418C1487.97 214.871 1490.93 212.332 1493.89 209.791C1493.96 209.729 1494.02 209.658 1494.08 209.59C1494.49 209.587 1494.89 209.596 1495.29 209.575C1495.54 209.563 1495.59 209.67 1495.59 209.889C1495.57 210.304 1495.58 210.719 1495.58 211.135C1495.58 215.262 1495.58 219.389 1495.58 223.517C1495.58 224.267 1495.86 224.863 1496.53 225.225C1497.75 225.886 1499.16 225.005 1499.16 223.576C1499.16 220.326 1499.16 217.077 1499.16 213.827C1499.16 212.522 1499.17 211.218 1499.16 209.913C1499.15 209.646 1499.23 209.563 1499.49 209.572C1500.08 209.593 1500.66 209.578 1501.24 209.578C1503.82 209.587 1506.41 209.59 1508.99 209.593ZM1502.14 252.637C1502.67 252.637 1503.21 252.625 1503.74 252.643C1503.98 252.652 1504.03 252.569 1504.03 252.344C1504.02 251.573 1504.05 250.802 1504.02 250.031C1504 249.669 1504.1 249.527 1504.46 249.435C1505.73 249.115 1506.87 248.528 1507.83 247.614C1509.31 246.185 1509.85 244.415 1509.73 242.393C1509.6 240.181 1508.6 238.526 1506.65 237.456C1505.3 236.721 1503.83 236.353 1502.38 235.914C1501.53 235.656 1500.68 235.407 1499.93 234.909C1499.19 234.423 1498.83 233.747 1498.91 232.86C1498.99 231.979 1499.46 231.369 1500.27 231.01C1500.91 230.725 1501.59 230.654 1502.28 230.701C1503.85 230.808 1504.71 231.478 1505.19 232.97C1505.28 233.248 1505.35 233.539 1505.4 233.83C1505.44 234.034 1505.48 234.12 1505.73 234.082C1506.88 233.904 1508.03 233.758 1509.18 233.592C1510 233.474 1510 233.465 1509.81 232.646C1509.1 229.584 1507.44 227.416 1504.22 226.722C1504.03 226.681 1504.02 226.571 1504.02 226.417C1504.03 225.634 1504.01 224.851 1504.03 224.068C1504.04 223.76 1503.94 223.698 1503.65 223.704C1502.63 223.721 1501.61 223.719 1500.59 223.704C1500.33 223.701 1500.22 223.757 1500.23 224.051C1500.25 224.833 1500.23 225.616 1500.24 226.399C1500.25 226.607 1500.18 226.693 1499.98 226.734C1499.69 226.793 1499.4 226.865 1499.12 226.956C1497.31 227.552 1495.85 228.575 1495.11 230.402C1494.5 231.902 1494.48 233.45 1494.9 235.004C1495.41 236.916 1496.75 238.085 1498.47 238.909C1499.78 239.537 1501.18 239.911 1502.53 240.394C1503.28 240.661 1504.02 240.94 1504.65 241.456C1505.03 241.776 1505.31 242.165 1505.39 242.672C1505.55 243.724 1505.07 244.655 1504.08 245.162C1502.88 245.779 1501.61 245.738 1500.34 245.453C1499 245.153 1498.17 244.314 1497.82 242.986C1497.71 242.547 1497.66 242.099 1497.65 241.652C1497.64 241.394 1497.54 241.367 1497.32 241.4C1496.07 241.589 1494.82 241.779 1493.56 241.951C1493.35 241.981 1493.32 242.061 1493.34 242.248C1493.4 242.971 1493.56 243.677 1493.83 244.347C1494.96 247.122 1497.06 248.78 1499.89 249.565C1500.16 249.64 1500.26 249.723 1500.25 250.004C1500.23 250.775 1500.26 251.546 1500.24 252.317C1500.23 252.593 1500.32 252.652 1500.58 252.643C1501.1 252.623 1501.62 252.637 1502.14 252.637Z" fill="#FF985F"/>
<path d="M1494.61 206.013C1492.98 203.173 1491.33 200.335 1489.7 197.489C1487.59 193.785 1489.67 189.275 1493.86 188.481C1494.22 188.412 1494.59 188.386 1494.96 188.386C1499.35 188.389 1503.73 188.386 1508.12 188.386C1512.8 188.386 1515.72 193.343 1513.41 197.42C1511.83 200.214 1510.21 202.98 1508.6 205.758C1508.56 205.838 1508.52 205.927 1508.48 206.01C1504.71 206.013 1500.94 206.016 1497.17 206.019C1496.32 206.022 1495.47 206.016 1494.61 206.013Z" fill="#FF985F"/>
<path d="M1494.61 206.013C1495.47 206.016 1496.32 206.025 1497.17 206.025C1500.94 206.022 1504.71 206.019 1508.48 206.016C1508.7 206.019 1508.93 206.025 1509.15 206.025C1510.19 206.031 1510.98 206.787 1510.99 207.792C1511 208.771 1510.22 209.554 1509.2 209.583C1509.13 209.586 1509.06 209.589 1508.99 209.595C1506.41 209.592 1503.82 209.586 1501.23 209.583C1500.65 209.583 1500.07 209.598 1499.49 209.578C1499.22 209.569 1499.15 209.652 1499.15 209.918C1499.16 211.223 1499.16 212.528 1499.16 213.832C1499.16 217.082 1499.16 220.332 1499.16 223.582C1499.15 225.011 1497.75 225.892 1496.53 225.23C1495.86 224.869 1495.58 224.27 1495.58 223.522C1495.58 219.395 1495.58 215.268 1495.58 211.14C1495.58 210.725 1495.57 210.31 1495.58 209.895C1495.59 209.675 1495.54 209.569 1495.29 209.58C1494.89 209.601 1494.48 209.592 1494.08 209.595C1492.95 209.551 1492.24 208.987 1492.11 208.036C1491.97 206.986 1492.77 206.052 1493.83 206.028C1494.09 206.019 1494.35 206.016 1494.61 206.013Z" fill="#FD5B24"/>
<path d="M1502.14 252.637C1501.62 252.637 1501.09 252.622 1500.57 252.643C1500.31 252.652 1500.23 252.593 1500.23 252.317C1500.25 251.546 1500.23 250.775 1500.25 250.004C1500.26 249.722 1500.15 249.636 1499.89 249.565C1497.05 248.78 1494.95 247.122 1493.83 244.347C1493.55 243.674 1493.4 242.971 1493.33 242.247C1493.31 242.061 1493.35 241.981 1493.56 241.951C1494.81 241.776 1496.07 241.589 1497.32 241.399C1497.53 241.367 1497.63 241.393 1497.64 241.651C1497.66 242.099 1497.71 242.547 1497.82 242.986C1498.17 244.314 1499 245.153 1500.34 245.453C1501.61 245.737 1502.88 245.779 1504.08 245.162C1505.07 244.655 1505.55 243.721 1505.38 242.671C1505.3 242.164 1505.03 241.776 1504.64 241.456C1504.02 240.94 1503.28 240.661 1502.53 240.394C1501.17 239.911 1499.77 239.537 1498.46 238.909C1496.75 238.084 1495.41 236.916 1494.89 235.004C1494.48 233.453 1494.5 231.902 1495.11 230.402C1495.85 228.575 1497.31 227.552 1499.12 226.956C1499.4 226.864 1499.69 226.79 1499.98 226.734C1500.18 226.695 1500.24 226.609 1500.24 226.399C1500.23 225.616 1500.25 224.833 1500.23 224.05C1500.22 223.757 1500.32 223.698 1500.59 223.704C1501.61 223.718 1502.63 223.718 1503.65 223.704C1503.94 223.698 1504.04 223.76 1504.03 224.068C1504.01 224.851 1504.02 225.634 1504.02 226.417C1504.02 226.571 1504.03 226.683 1504.22 226.722C1507.43 227.416 1509.09 229.583 1509.8 232.646C1509.99 233.468 1509.99 233.474 1509.18 233.592C1508.03 233.758 1506.88 233.904 1505.73 234.081C1505.48 234.12 1505.44 234.034 1505.4 233.829C1505.35 233.539 1505.28 233.248 1505.19 232.97C1504.7 231.478 1503.85 230.808 1502.28 230.701C1501.59 230.654 1500.91 230.725 1500.26 231.01C1499.46 231.365 1498.99 231.979 1498.91 232.86C1498.82 233.746 1499.19 234.422 1499.93 234.909C1500.68 235.407 1501.53 235.656 1502.38 235.914C1503.83 236.353 1505.3 236.723 1506.64 237.456C1508.6 238.526 1509.6 240.181 1509.73 242.393C1509.85 244.415 1509.31 246.188 1507.82 247.614C1506.87 248.53 1505.73 249.115 1504.45 249.435C1504.1 249.524 1503.99 249.669 1504.01 250.031C1504.04 250.802 1504.02 251.573 1504.03 252.344C1504.03 252.569 1503.98 252.652 1503.74 252.643C1503.21 252.622 1502.67 252.637 1502.14 252.637Z" fill="#FF985F"/>
<path d="M1495.15 245.417H1497.23V243.312L1498.4 241.904L1500.74 245.417H1503.06L1499.65 240.421L1502.6 236.878H1500.25L1497.23 240.821V233.928H1495.15V245.417Z" fill="#FFF4EC"/>
<path d="M1507.89 238.968C1508.19 238.968 1508.54 239.043 1508.87 239.161L1509 236.76C1508.81 236.686 1508.57 236.641 1508.35 236.641C1507.53 236.641 1506.52 237.056 1505.86 238.687V236.878H1503.77V245.417H1505.86V241.237C1505.86 239.413 1506.9 238.968 1507.89 238.968Z" fill="#FFF4EC"/>
<path fill-rule="evenodd" clip-rule="evenodd" d="M1533 283.56C1563.1 283.56 1587.5 259.157 1587.5 229.056C1587.5 227.659 1587.45 226.275 1587.35 224.906H1515.33C1512.8 224.906 1510.76 226.952 1510.76 229.478V278.829C1517.55 281.869 1525.08 283.56 1533 283.56Z" fill="#C8C5D6"/>
<path fill-rule="evenodd" clip-rule="evenodd" d="M1587.03 236.309C1587.34 233.936 1587.5 231.515 1587.5 229.056C1587.5 227.659 1587.45 226.275 1587.35 224.906H1515.49C1512.88 224.906 1510.76 227.026 1510.76 229.641V236.309H1587.03Z" fill="#48367D"/>
<path d="M1522.6 230.652C1522.6 231.96 1521.55 233.02 1520.24 233.02C1518.93 233.02 1517.87 231.96 1517.87 230.652C1517.87 229.344 1518.93 228.284 1520.24 228.284C1521.55 228.284 1522.6 229.344 1522.6 230.652Z" fill="white"/>
<path d="M1530.37 230.607C1530.37 231.915 1529.31 232.975 1528.01 232.975C1526.7 232.975 1525.64 231.915 1525.64 230.607C1525.64 229.299 1526.7 228.24 1528.01 228.24C1529.31 228.24 1530.37 229.299 1530.37 230.607Z" fill="white"/>
<path d="M1538.27 230.607C1538.27 231.915 1537.21 232.975 1535.9 232.975C1534.59 232.975 1533.53 231.915 1533.53 230.607C1533.53 229.299 1534.59 228.24 1535.9 228.24C1537.21 228.24 1538.27 229.299 1538.27 230.607Z" fill="white"/>
<path d="M1070.73 482.216C1070.37 480.008 1068.48 478.82 1066.59 478.82C1064.02 478.82 1061.9 480.68 1061.9 483.44C1061.9 486.392 1064.05 488.18 1066.63 488.18C1068.37 488.18 1070.54 487.016 1070.8 484.544L1069.18 484.304C1069.05 486.092 1067.83 486.644 1066.63 486.644C1064.92 486.644 1063.59 485.672 1063.59 483.44C1063.59 481.412 1064.92 480.356 1066.53 480.356C1067.64 480.356 1068.85 480.812 1069.11 482.456L1070.73 482.216ZM1078.49 488L1078.49 481.088L1076.99 481.088L1076.99 485.108C1076.99 486.284 1076.21 486.824 1075.21 486.824C1074.28 486.824 1073.83 486.416 1073.83 485.348L1073.83 481.088L1072.33 481.088L1072.33 485.912C1072.33 487.508 1073.48 488.18 1074.63 488.18C1075.49 488.18 1076.45 487.784 1076.99 486.836L1076.99 488L1078.49 488ZM1080.25 483.032C1080.25 483.992 1080.8 484.7 1081.97 484.952L1083.23 485.228C1084.1 485.42 1084.34 485.672 1084.34 486.08C1084.34 486.656 1083.77 486.98 1082.95 486.98C1081.97 486.98 1081.34 486.524 1081.24 485.672L1079.91 485.912C1080.14 487.52 1081.64 488.18 1082.98 488.18C1084.31 488.18 1085.73 487.436 1085.73 485.936C1085.73 484.976 1085.17 484.328 1083.94 484.064L1082.57 483.764C1081.88 483.608 1081.64 483.272 1081.64 482.912C1081.64 482.408 1082.12 482.096 1082.8 482.096C1083.63 482.096 1084.24 482.396 1084.29 483.296L1085.62 483.056C1085.23 481.508 1084.18 480.896 1082.79 480.896C1081.66 480.896 1080.25 481.52 1080.25 483.032ZM1087.73 479.42L1087.73 481.088L1086.44 481.088L1086.44 482.3L1087.73 482.3L1087.73 486.056C1087.73 487.328 1088.36 488.12 1089.74 488.12C1090.16 488.12 1090.65 488.012 1091.01 487.904L1090.77 486.692C1090.5 486.764 1090.33 486.8 1090.05 486.8C1089.44 486.8 1089.23 486.524 1089.23 485.984L1089.23 482.3L1090.95 482.3L1090.95 481.088L1089.23 481.088L1089.23 479.18L1087.73 479.42ZM1095.41 480.896C1093.54 480.896 1091.99 482.264 1091.99 484.532C1091.99 486.8 1093.54 488.18 1095.41 488.18C1097.28 488.18 1098.83 486.8 1098.83 484.532C1098.83 482.264 1097.28 480.896 1095.41 480.896ZM1095.41 482.192C1096.44 482.192 1097.32 482.948 1097.32 484.532C1097.32 486.116 1096.44 486.884 1095.41 486.884C1094.38 486.884 1093.5 486.116 1093.5 484.532C1093.5 482.948 1094.38 482.192 1095.41 482.192ZM1107.97 482.252C1108.82 482.252 1109.47 482.732 1109.47 484.016L1109.47 488L1110.97 488L1110.97 483.368C1110.97 481.508 1109.83 480.896 1108.57 480.896C1107.8 480.896 1106.83 481.208 1106.31 482.24C1105.94 481.256 1105.06 480.896 1104.14 480.896C1103.31 480.896 1102.32 481.22 1101.82 482.108L1101.82 481.088L1100.32 481.088L1100.32 488L1101.82 488L1101.82 484.052C1101.82 482.816 1102.53 482.252 1103.49 482.252C1104.34 482.252 1104.99 482.732 1104.99 484.016L1104.99 488L1106.49 488L1106.49 484.052C1106.49 482.816 1107.12 482.252 1107.97 482.252ZM1115.86 482.192C1116.84 482.192 1117.6 482.648 1117.72 483.8L1113.97 483.8C1114.17 482.732 1114.87 482.192 1115.86 482.192ZM1119.14 484.868L1119.14 484.376C1119.14 482.336 1117.8 480.896 1115.92 480.896C1113.92 480.896 1112.4 482.3 1112.4 484.52C1112.4 486.8 1113.98 488.18 1116.02 488.18C1117.29 488.18 1118.83 487.448 1119.09 485.852L1117.7 485.612C1117.54 486.404 1117.09 486.884 1115.96 486.884C1114.71 486.884 1114.03 486.08 1113.92 484.868L1119.14 484.868ZM1123.93 482.516C1124.3 482.516 1124.57 482.564 1124.83 482.672L1124.98 480.992C1124.83 480.92 1124.63 480.896 1124.45 480.896C1123.76 480.896 1122.68 481.292 1122.12 482.744L1122.12 481.088L1120.62 481.088L1120.62 488L1122.12 488L1122.12 484.976C1122.12 483.056 1122.96 482.516 1123.93 482.516ZM1132.65 482.516C1133.02 482.516 1133.29 482.564 1133.55 482.672L1133.69 480.992C1133.55 480.92 1133.35 480.896 1133.17 480.896C1132.48 480.896 1131.4 481.292 1130.84 482.744L1130.84 481.088L1129.34 481.088L1129.34 488L1130.84 488L1130.84 484.976C1130.84 483.056 1131.68 482.516 1132.65 482.516ZM1137.86 482.192C1138.83 482.192 1139.6 482.648 1139.72 483.8L1135.96 483.8C1136.17 482.732 1136.86 482.192 1137.86 482.192ZM1141.14 484.868L1141.14 484.376C1141.14 482.336 1139.79 480.896 1137.92 480.896C1135.92 480.896 1134.39 482.3 1134.39 484.52C1134.39 486.8 1135.98 488.18 1138.02 488.18C1139.29 488.18 1140.82 487.448 1141.09 485.852L1139.7 485.612C1139.54 486.404 1139.08 486.884 1137.96 486.884C1136.71 486.884 1136.02 486.08 1135.92 484.868L1141.14 484.868ZM1144.12 481.088L1142.62 481.088L1142.62 488.036C1142.62 488.828 1142.35 489.164 1141.82 489.164C1141.67 489.164 1141.48 489.128 1141.25 489.044L1141.01 490.208C1141.27 490.304 1141.66 490.4 1142.08 490.4C1143.34 490.4 1144.12 489.608 1144.12 488.144L1144.12 481.088ZM1143.36 478.1C1142.86 478.1 1142.46 478.508 1142.46 479C1142.46 479.492 1142.86 479.9 1143.36 479.9C1143.86 479.9 1144.26 479.492 1144.26 479C1144.26 478.508 1143.86 478.1 1143.36 478.1ZM1149.07 482.192C1150.05 482.192 1150.81 482.648 1150.93 483.8L1147.18 483.8C1147.38 482.732 1148.08 482.192 1149.07 482.192ZM1152.35 484.868L1152.35 484.376C1152.35 482.336 1151.01 480.896 1149.13 480.896C1147.13 480.896 1145.61 482.3 1145.61 484.52C1145.61 486.8 1147.19 488.18 1149.23 488.18C1150.5 488.18 1152.04 487.448 1152.3 485.852L1150.91 485.612C1150.75 486.404 1150.3 486.884 1149.17 486.884C1147.92 486.884 1147.24 486.08 1147.13 484.868L1152.35 484.868ZM1160.22 483.776C1159.96 481.916 1158.49 480.896 1156.88 480.896C1154.9 480.896 1153.4 482.3 1153.4 484.532C1153.4 486.668 1154.88 488.18 1156.99 488.18C1158.32 488.18 1159.88 487.448 1160.2 485.336L1158.84 485.096C1158.68 486.272 1158.03 486.872 1156.98 486.872C1155.57 486.872 1154.91 485.804 1154.91 484.532C1154.91 482.996 1155.75 482.192 1156.81 482.192C1157.77 482.192 1158.57 482.708 1158.74 484.016L1160.22 483.776ZM1162.15 479.42L1162.15 481.088L1160.87 481.088L1160.87 482.3L1162.15 482.3L1162.15 486.056C1162.15 487.328 1162.79 488.12 1164.17 488.12C1164.59 488.12 1165.08 488.012 1165.44 487.904L1165.2 486.692C1164.92 486.764 1164.76 486.8 1164.48 486.8C1163.87 486.8 1163.65 486.524 1163.65 485.984L1163.65 482.3L1165.38 482.3L1165.38 481.088L1163.65 481.088L1163.65 479.18L1162.15 479.42ZM1166.71 483.032C1166.71 483.992 1167.26 484.7 1168.43 484.952L1169.69 485.228C1170.56 485.42 1170.8 485.672 1170.8 486.08C1170.8 486.656 1170.23 486.98 1169.41 486.98C1168.43 486.98 1167.8 486.524 1167.7 485.672L1166.37 485.912C1166.6 487.52 1168.1 488.18 1169.44 488.18C1170.77 488.18 1172.19 487.436 1172.19 485.936C1172.19 484.976 1171.63 484.328 1170.4 484.064L1169.03 483.764C1168.34 483.608 1168.1 483.272 1168.1 482.912C1168.1 482.408 1168.58 482.096 1169.26 482.096C1170.09 482.096 1170.7 482.396 1170.75 483.296L1172.08 483.056C1171.69 481.508 1170.64 480.896 1169.25 480.896C1168.12 480.896 1166.71 481.52 1166.71 483.032Z" fill="#49367E"/>
<path d="M1181.7 377.5C1181.7 408.509 1156.57 433.646 1125.56 433.646C1094.55 433.646 1069.41 408.509 1069.41 377.5C1069.41 346.492 1094.55 321.355 1125.56 321.355C1156.57 321.355 1181.7 346.492 1181.7 377.5Z" fill="#EEEDF3"/>
<path d="M1138.75 390.853L1106.88 397.095C1103.82 397.695 1100.84 395.695 1100.24 392.628L1087.66 328.388C1087.06 325.32 1089.06 322.346 1092.12 321.746L1123.99 315.504C1127.06 314.903 1130.03 316.903 1130.63 319.97L1143.22 384.21C1143.82 387.278 1141.82 390.252 1138.75 390.853Z" fill="#FF5A23"/>
<path d="M1142.47 379.984L1099.49 388.402L1088.63 332.938L1131.6 324.521L1142.47 379.984Z" fill="#FF985F"/>
<path d="M1124.52 367.663L1111.31 370.25C1107.96 370.906 1104.69 368.702 1104.03 365.352L1101.44 352.141C1100.79 348.791 1102.99 345.513 1106.34 344.857L1119.55 342.27C1122.9 341.614 1126.18 343.818 1126.84 347.169L1129.42 360.379C1130.08 363.729 1127.87 367.007 1124.52 367.663Z" fill="white"/>
<path fill-rule="evenodd" clip-rule="evenodd" d="M1120.48 360.867C1120.88 361.132 1121.41 361.027 1121.67 360.634C1121.94 360.24 1121.83 359.706 1121.44 359.441L1116.64 356.214L1119.87 351.415C1120.13 351.021 1120.03 350.487 1119.63 350.222C1119.24 349.958 1118.71 350.062 1118.44 350.456L1115.22 355.255L1110.42 352.028C1110.02 351.763 1109.49 351.867 1109.22 352.261C1108.96 352.655 1109.06 353.188 1109.46 353.453L1114.26 356.681L1111.03 361.481C1110.76 361.874 1110.87 362.408 1111.26 362.673C1111.66 362.937 1112.19 362.833 1112.45 362.439L1115.68 357.64L1120.48 360.867Z" fill="#48367D"/>
<path d="M1172.98 404.188L1173.23 402.726L1176.12 380.084L1162.46 369.871L1143.25 375.331L1145.03 404.972C1154.07 407.143 1163.03 406.823 1172.98 404.188Z" fill="#FFD3BA"/>
<path d="M1147.98 387.058C1146.43 385.78 1145.74 383.626 1146.43 381.609C1148.64 375.133 1148.94 371.424 1149.06 368.18C1149.15 365.436 1151.46 363.29 1154.2 363.388C1156.94 363.486 1159.09 365.788 1158.99 368.532C1158.83 373.262 1158.23 377.842 1155.84 384.821C1154.96 387.42 1152.13 388.807 1149.53 387.92C1148.95 387.722 1148.43 387.426 1147.98 387.058Z" fill="#FFD3BA"/>
<path d="M1157.62 385.675C1156.02 384.36 1155.36 382.126 1156.13 380.08C1157.46 376.554 1158.05 373.3 1157.88 370.405C1157.72 367.664 1159.82 365.314 1162.56 365.155C1165.3 364.997 1167.65 367.09 1167.81 369.831C1168.06 374.123 1167.26 378.752 1165.43 383.587C1164.47 386.157 1161.6 387.454 1159.03 386.486C1158.51 386.289 1158.03 386.011 1157.62 385.675Z" fill="#FFD3BA"/>
<path d="M1167.99 387.99C1166.21 386.931 1165.21 384.822 1165.67 382.683C1166.45 378.998 1166.54 375.692 1165.94 372.854C1165.37 370.169 1167.09 367.529 1169.78 366.96C1172.46 366.391 1175.1 368.107 1175.67 370.793C1176.56 374.999 1176.47 379.695 1175.39 384.749C1174.82 387.435 1172.18 389.15 1169.5 388.579C1168.95 388.462 1168.44 388.261 1167.99 387.99Z" fill="#FFD3BA"/>
<path d="M1144.13 418.513C1142.78 408.564 1139.44 405.295 1138.95 404.638C1138.49 404.015 1134.14 399.111 1132.53 396.192C1130.54 392.575 1128.2 387.415 1130.23 383.197C1132.22 379.066 1137.19 379.894 1141.06 376.808L1149.34 373.783C1152.63 373.219 1155.75 375.428 1156.32 378.718C1156.88 382.008 1154.67 385.132 1151.38 385.696L1149.75 387.45C1149.15 387.694 1149.66 389.38 1149.82 390.085C1150.76 391.773 1147.43 394.915 1148.98 396.984C1150.97 399.658 1150.42 403.445 1147.75 405.442C1145.73 406.948 1144.44 420.862 1144.13 418.513Z" fill="#FFD3BA"/>
<path fill-rule="evenodd" clip-rule="evenodd" d="M1143.23 430.809C1143.08 414.609 1142.52 397.605 1140.88 394.008C1137.59 386.767 1168.89 396.549 1168.89 396.549C1168.89 396.549 1174.08 383.995 1173.51 406.716C1166.65 417.956 1155.95 426.595 1143.23 430.809Z" fill="#FFD3BA"/>
<path d="M1131.24 354.742C1131.24 354.742 1139.52 357.299 1142.56 361.457C1147.05 367.609 1145.66 377.038 1141.66 384.071" stroke="#FFD2BA" stroke-width="13.167" stroke-linecap="round" stroke-linejoin="round"/>
<path d="M652.471 229.848C652.471 260.599 627.542 285.526 596.791 285.526C566.04 285.526 541.111 260.599 541.111 229.848C541.111 199.096 566.04 174.168 596.791 174.168C627.542 174.168 652.471 199.096 652.471 229.848Z" fill="#EEEDF3"/>
<path d="M623.458 258.97H597.32C593.995 258.97 591.3 256.274 591.3 252.949V198.05C591.3 194.725 593.995 192.03 597.32 192.03H623.458C626.782 192.03 629.478 194.725 629.478 198.05V252.949C629.478 256.274 626.782 258.97 623.458 258.97Z" fill="#FF5B23"/>
<path d="M629.478 250.166H591.3V200.893H629.478V250.166Z" fill="#FF975E"/>
<path d="M608.793 233.206L548.004 260.573L559.928 285.499L587.42 261.192C587.566 261.057 608.973 233.124 608.793 233.206Z" fill="#48367D"/>
<path d="M609.775 232.443L563.883 266.793L589.907 275.751C591.15 276.179 592.527 275.757 593.316 274.705L610.268 233.131C610.714 232.574 610.056 232.26 609.775 232.443Z" fill="#C8C5D6"/>
<path d="M563.882 266.793L559.927 285.499L579.192 272.064L563.882 266.793Z" fill="white"/>
<path d="M609.85 232.414L530.385 251.964C528.956 252.384 528.928 254.399 530.346 254.858L548.005 260.572L610.093 232.786C610.243 232.717 610.29 232.333 609.85 232.414Z" fill="#C8C5D6"/>
<path d="M1378.36 227.678C1378.36 258.429 1353.43 283.358 1322.68 283.358C1291.93 283.358 1267 258.429 1267 227.678C1267 196.927 1291.93 171.999 1322.68 171.999C1353.43 171.999 1378.36 196.927 1378.36 227.678Z" fill="#EEEDF3"/>
<path fill-rule="evenodd" clip-rule="evenodd" d="M1329.07 282.995C1329.06 262.72 1329.07 240.361 1329.16 235.279C1329.51 214.958 1349.55 219.287 1349.55 219.287L1373.85 235.279L1373.84 249.686C1366.11 267.624 1349.23 280.69 1329.07 282.995Z" fill="#FFD3BB"/>
<path d="M1366.62 241.138L1331.37 248.042C1327.97 248.707 1324.68 246.494 1324.02 243.101L1310.1 172.039C1309.44 168.645 1311.65 165.356 1315.04 164.691L1350.29 157.786C1353.69 157.122 1356.98 159.334 1357.64 162.727L1371.56 233.79C1372.22 237.183 1370.01 240.473 1366.62 241.138Z" fill="#FF5A23"/>
<path d="M1370.73 229.115L1323.19 238.426L1311.17 177.073L1358.71 167.761L1370.73 229.115Z" fill="#FF985F"/>
<path d="M1329.69 214.825L1324.91 190.351C1324.87 190.175 1324.9 189.996 1324.98 189.851L1329.04 182.455C1329.12 182.311 1329.25 182.214 1329.4 182.185L1346.92 178.753C1347.8 178.581 1348.67 179.291 1348.88 180.337L1354.67 209.933C1354.88 210.979 1354.34 211.967 1353.46 212.138L1331.65 216.41C1330.77 216.581 1329.9 215.871 1329.69 214.825Z" fill="#EEEDF3"/>
<path d="M1325.08 188.615L1328.14 183.051C1328.38 182.627 1328.74 182.34 1329.17 182.23L1330.24 187.71C1330.38 188.408 1330.02 189.066 1329.43 189.18L1324.85 190.077C1324.77 189.56 1324.85 189.039 1325.08 188.615Z" fill="#C8C5D6"/>
<path fill-rule="evenodd" clip-rule="evenodd" d="M1346.47 190.323C1346.94 190.537 1347.14 191.085 1346.92 191.548L1340.73 204.958C1340.63 205.181 1340.44 205.354 1340.21 205.438C1339.98 205.523 1339.72 205.511 1339.5 205.407L1333.89 202.782C1333.43 202.565 1333.23 202.016 1333.45 201.554C1333.66 201.092 1334.21 200.893 1334.67 201.109L1339.44 203.341L1345.25 190.774C1345.46 190.311 1346.01 190.109 1346.47 190.323Z" fill="#48367D"/>
<path d="M1323.24 217.545L1310.63 218.526C1307.25 218.79 1304.29 216.258 1304.02 212.87C1303.76 209.483 1306.29 206.524 1309.68 206.261L1322.29 205.28C1325.68 205.015 1328.64 207.548 1328.9 210.935C1329.16 214.323 1326.63 217.282 1323.24 217.545Z" fill="#FFD3BB"/>
<path d="M1324.29 229.07L1311.68 230.051C1308.3 230.315 1305.34 227.783 1305.07 224.395C1304.81 221.007 1307.34 218.049 1310.73 217.785L1323.34 216.805C1326.73 216.54 1329.69 219.073 1329.95 222.46C1330.21 225.847 1327.68 228.807 1324.29 229.07Z" fill="#FFD3BB"/>
<path d="M1326.41 240.365L1313.8 241.346C1310.42 241.609 1307.46 239.077 1307.19 235.69C1306.93 232.303 1309.46 229.344 1312.85 229.08L1325.46 228.1C1328.85 227.835 1331.81 230.368 1332.07 233.755C1332.33 237.142 1329.8 240.102 1326.41 240.365Z" fill="#FFD3BB"/>
<path fill-rule="evenodd" clip-rule="evenodd" d="M1371 255.361C1370.2 255.675 1369.33 255.976 1368.39 256.254C1361.67 258.24 1351.65 249.539 1351.65 249.539C1351.65 249.539 1351.93 245.945 1352.4 242.067C1352.88 238.189 1355.34 234.69 1356.57 233.555C1351.65 232.514 1348.15 230.812 1345.59 227.407C1342.94 223.874 1341.05 220.786 1340.58 215.301C1340.11 209.815 1342.09 207.829 1344.46 206.694C1346.82 205.559 1348.9 206.126 1351.17 207.261C1352.94 208.145 1353.98 211.525 1354.2 213.977C1354.48 217.192 1355.21 217.978 1356.66 219.368C1357.78 220.437 1360.16 220.408 1361.77 220.219C1363.38 220.03 1364.83 220.115 1367.63 220.786C1370 221.354 1372.36 222.962 1374.35 225.61C1376.51 228.493 1377.23 231.992 1377.7 236.239C1376.64 243.108 1374.33 249.563 1371 255.361Z" fill="#FFD3BB"/>
</svg>
