<svg width="243" height="591" viewBox="0 0 243 591" fill="none" xmlns="http://www.w3.org/2000/svg">
<path fill-rule="evenodd" clip-rule="evenodd" d="M41.9687 401L40 401L40 399.5L41.9688 399.5L41.9687 401ZM49.8437 401L45.9062 401L45.9062 399.5L49.8438 399.5L49.8437 401ZM57.7187 401L53.7812 401L53.7812 399.5L57.7188 399.5L57.7187 401ZM65.5937 401L61.6562 401L61.6562 399.5L65.5938 399.5L65.5937 401ZM73.4687 401L69.5312 401L69.5312 399.5L73.4688 399.5L73.4687 401ZM81.3437 401L77.4062 401L77.4062 399.5L81.3438 399.5L81.3437 401ZM89.2187 401L85.2812 401L85.2812 399.5L89.2188 399.5L89.2187 401ZM97.0937 401L93.1562 401L93.1562 399.5L97.0938 399.5L97.0937 401ZM103 401L101.031 401L101.031 399.5L103 399.5L103 401Z" fill="#49367E"/>
<path fill-rule="evenodd" clip-rule="evenodd" d="M40 527L40 20L41.5 20L41.5 527L40 527Z" fill="#FF5B24"/>
<path d="M99.0559 243L99.0559 252L100.628 252L100.628 243L99.0559 243Z" fill="#FF5B24"/>
<path d="M102.496 245.412C102.496 248.88 107.476 247.74 107.476 249.648C107.476 250.332 106.948 250.788 105.928 250.788C104.956 250.788 103.84 250.464 103.684 248.928L102.136 249.288C102.376 251.22 104.08 252.18 105.88 252.18C107.476 252.18 109.048 251.268 109.048 249.552C109.048 246.192 104.092 247.416 104.092 245.352C104.092 244.644 104.632 244.212 105.556 244.212C106.36 244.212 107.26 244.572 107.332 245.82L108.916 245.46C108.652 243.6 107.044 242.82 105.628 242.82C104.056 242.82 102.496 243.684 102.496 245.412Z" fill="#FF5B24"/>
<path d="M112.194 244.404L113.802 244.404C114.822 244.404 115.398 245.004 115.398 246.12C115.398 247.176 114.822 247.776 113.778 247.776L112.194 247.776L112.194 244.404ZM110.622 243L110.622 252L112.194 252L112.194 249.18L113.934 249.18C115.854 249.18 117.078 247.836 117.078 246.096C117.078 244.08 115.926 243 113.922 243L110.622 243Z" fill="#FF5B24"/>
<path d="M121.703 247.032C121.703 247.992 122.255 248.7 123.431 248.952L124.691 249.228C125.555 249.42 125.795 249.672 125.795 250.08C125.795 250.656 125.231 250.98 124.403 250.98C123.431 250.98 122.795 250.524 122.699 249.672L121.367 249.912C121.595 251.52 123.095 252.18 124.439 252.18C125.771 252.18 127.187 251.436 127.187 249.936C127.187 248.976 126.623 248.328 125.399 248.064L124.031 247.764C123.335 247.608 123.095 247.272 123.095 246.912C123.095 246.408 123.575 246.096 124.259 246.096C125.087 246.096 125.699 246.396 125.747 247.296L127.079 247.056C126.683 245.508 125.639 244.896 124.247 244.896C123.119 244.896 121.703 245.52 121.703 247.032Z" fill="#FF5B24"/>
<path d="M131.691 246.192C132.663 246.192 133.431 246.648 133.551 247.8L129.795 247.8C129.999 246.732 130.695 246.192 131.691 246.192ZM134.967 248.868L134.967 248.376C134.967 246.336 133.623 244.896 131.751 244.896C129.747 244.896 128.223 246.3 128.223 248.52C128.223 250.8 129.807 252.18 131.847 252.18C133.119 252.18 134.655 251.448 134.919 249.852L133.527 249.612C133.371 250.404 132.915 250.884 131.787 250.884C130.539 250.884 129.855 250.08 129.747 248.868L134.967 248.868Z" fill="#FF5B24"/>
<path d="M139.652 246.252C140.468 246.252 141.116 246.732 141.116 248.016L141.116 252L142.616 252L142.616 247.368C142.616 245.508 141.44 244.896 140.204 244.896C139.388 244.896 138.44 245.232 137.948 246.108L137.948 245.088L136.448 245.088L136.448 252L137.948 252L137.948 248.052C137.948 246.816 138.656 246.252 139.652 246.252Z" fill="#FF5B24"/>
<path d="M150.968 242.7L149.468 242.7L149.468 246.444C148.976 245.352 148.232 244.896 147.296 244.896C145.688 244.896 144.092 246.06 144.092 248.472C144.092 251.004 145.7 252.18 147.104 252.18C148.364 252.18 149.12 251.52 149.468 250.692L149.468 252L150.968 252L150.968 242.7ZM147.548 246.192C148.556 246.192 149.468 246.996 149.468 248.556C149.468 250.164 148.556 250.872 147.536 250.872C146.588 250.872 145.604 250.128 145.604 248.556C145.604 246.96 146.6 246.192 147.548 246.192Z" fill="#FF5B24"/>
<path d="M152.746 247.032C152.746 247.992 153.298 248.7 154.474 248.952L155.734 249.228C156.598 249.42 156.838 249.672 156.838 250.08C156.838 250.656 156.274 250.98 155.446 250.98C154.474 250.98 153.838 250.524 153.742 249.672L152.41 249.912C152.638 251.52 154.138 252.18 155.482 252.18C156.814 252.18 158.23 251.436 158.23 249.936C158.23 248.976 157.666 248.328 156.442 248.064L155.074 247.764C154.378 247.608 154.138 247.272 154.138 246.912C154.138 246.408 154.618 246.096 155.302 246.096C156.13 246.096 156.742 246.396 156.79 247.296L158.122 247.056C157.726 245.508 156.682 244.896 155.29 244.896C154.162 244.896 152.746 245.52 152.746 247.032Z" fill="#FF5B24"/>
<path d="M162.933 245.088L162.933 252L164.433 252L164.433 245.088L162.933 245.088ZM163.677 242.1C163.173 242.1 162.777 242.508 162.777 243C162.777 243.492 163.173 243.9 163.677 243.9C164.181 243.9 164.577 243.492 164.577 243C164.577 242.508 164.181 242.1 163.677 242.1Z" fill="#FF5B24"/>
<path d="M169.558 246.252C170.374 246.252 171.022 246.732 171.022 248.016L171.022 252L172.522 252L172.522 247.368C172.522 245.508 171.346 244.896 170.11 244.896C169.294 244.896 168.346 245.232 167.854 246.108L167.854 245.088L166.354 245.088L166.354 252L167.854 252L167.854 248.052C167.854 246.816 168.562 246.252 169.558 246.252Z" fill="#FF5B24"/>
<path d="M180.502 245.088L178.834 245.088L177.058 250.308L175.27 245.088L173.602 245.088L176.362 252L177.742 252L180.502 245.088Z" fill="#FF5B24"/>
<path d="M184.635 244.896C182.763 244.896 181.215 246.264 181.215 248.532C181.215 250.8 182.763 252.18 184.635 252.18C186.507 252.18 188.055 250.8 188.055 248.532C188.055 246.264 186.507 244.896 184.635 244.896ZM184.635 246.192C185.667 246.192 186.543 246.948 186.543 248.532C186.543 250.116 185.667 250.884 184.635 250.884C183.603 250.884 182.727 250.116 182.727 248.532C182.727 246.948 183.603 246.192 184.635 246.192Z" fill="#FF5B24"/>
<path d="M189.546 245.088L189.546 252L191.046 252L191.046 245.088L189.546 245.088ZM190.29 242.1C189.786 242.1 189.39 242.508 189.39 243C189.39 243.492 189.786 243.9 190.29 243.9C190.794 243.9 191.19 243.492 191.19 243C191.19 242.508 190.794 242.1 190.29 242.1Z" fill="#FF5B24"/>
<path d="M199.352 247.776C199.1 245.916 197.624 244.896 196.016 244.896C194.036 244.896 192.536 246.3 192.536 248.532C192.536 250.668 194.012 252.18 196.124 252.18C197.456 252.18 199.016 251.448 199.34 249.336L197.972 249.096C197.816 250.272 197.168 250.872 196.112 250.872C194.708 250.872 194.048 249.804 194.048 248.532C194.048 246.996 194.888 246.192 195.944 246.192C196.904 246.192 197.708 246.708 197.876 248.016L199.352 247.776Z" fill="#FF5B24"/>
<path d="M203.797 246.192C204.769 246.192 205.537 246.648 205.657 247.8L201.901 247.8C202.105 246.732 202.801 246.192 203.797 246.192ZM207.073 248.868L207.073 248.376C207.073 246.336 205.729 244.896 203.857 244.896C201.853 244.896 200.329 246.3 200.329 248.52C200.329 250.8 201.913 252.18 203.953 252.18C205.225 252.18 206.761 251.448 207.025 249.852L205.633 249.612C205.477 250.404 205.021 250.884 203.893 250.884C202.645 250.884 201.961 250.08 201.853 248.868L207.073 248.868Z" fill="#FF5B24"/>
<path d="M107.432 475.216C107.072 473.008 105.176 471.82 103.292 471.82C100.724 471.82 98.6001 473.68 98.6001 476.44C98.6001 479.392 100.748 481.18 103.328 481.18C105.068 481.18 107.24 480.016 107.504 477.544L105.884 477.304C105.752 479.092 104.528 479.644 103.328 479.644C101.624 479.644 100.292 478.672 100.292 476.44C100.292 474.412 101.624 473.356 103.232 473.356C104.336 473.356 105.548 473.812 105.812 475.456L107.432 475.216Z" fill="#FF5B24"/>
<path d="M115.194 481L115.194 474.088L113.694 474.088L113.694 478.108C113.694 479.284 112.914 479.824 111.906 479.824C110.982 479.824 110.526 479.416 110.526 478.348L110.526 474.088L109.026 474.088L109.026 478.912C109.026 480.508 110.178 481.18 111.33 481.18C112.194 481.18 113.154 480.784 113.694 479.836L113.694 481L115.194 481Z" fill="#FF5B24"/>
<path d="M116.945 476.032C116.945 476.992 117.497 477.7 118.673 477.952L119.933 478.228C120.797 478.42 121.037 478.672 121.037 479.08C121.037 479.656 120.473 479.98 119.645 479.98C118.673 479.98 118.037 479.524 117.941 478.672L116.609 478.912C116.837 480.52 118.337 481.18 119.681 481.18C121.013 481.18 122.429 480.436 122.429 478.936C122.429 477.976 121.865 477.328 120.641 477.064L119.273 476.764C118.577 476.608 118.337 476.272 118.337 475.912C118.337 475.408 118.817 475.096 119.501 475.096C120.329 475.096 120.941 475.396 120.989 476.296L122.321 476.056C121.925 474.508 120.881 473.896 119.489 473.896C118.361 473.896 116.945 474.52 116.945 476.032Z" fill="#FF5B24"/>
<path d="M124.426 472.42L124.426 474.088L123.142 474.088L123.142 475.3L124.426 475.3L124.426 479.056C124.426 480.328 125.062 481.12 126.442 481.12C126.862 481.12 127.354 481.012 127.714 480.904L127.474 479.692C127.198 479.764 127.03 479.8 126.754 479.8C126.142 479.8 125.926 479.524 125.926 478.984L125.926 475.3L127.654 475.3L127.654 474.088L125.926 474.088L125.926 472.18L124.426 472.42Z" fill="#FF5B24"/>
<path d="M132.112 473.896C130.24 473.896 128.692 475.264 128.692 477.532C128.692 479.8 130.24 481.18 132.112 481.18C133.984 481.18 135.532 479.8 135.532 477.532C135.532 475.264 133.984 473.896 132.112 473.896ZM132.112 475.192C133.144 475.192 134.02 475.948 134.02 477.532C134.02 479.116 133.144 479.884 132.112 479.884C131.08 479.884 130.204 479.116 130.204 477.532C130.204 475.948 131.08 475.192 132.112 475.192Z" fill="#FF5B24"/>
<path d="M144.667 475.252C145.519 475.252 146.167 475.732 146.167 477.016L146.167 481L147.667 481L147.667 476.368C147.667 474.508 146.527 473.896 145.267 473.896C144.499 473.896 143.527 474.208 143.011 475.24C142.639 474.256 141.763 473.896 140.839 473.896C140.011 473.896 139.015 474.22 138.523 475.108L138.523 474.088L137.023 474.088L137.023 481L138.523 481L138.523 477.052C138.523 475.816 139.231 475.252 140.191 475.252C141.043 475.252 141.691 475.732 141.691 477.016L141.691 481L143.191 481L143.191 477.052C143.191 475.816 143.815 475.252 144.667 475.252Z" fill="#FF5B24"/>
<path d="M152.563 475.192C153.535 475.192 154.303 475.648 154.423 476.8L150.667 476.8C150.871 475.732 151.567 475.192 152.563 475.192ZM155.839 477.868L155.839 477.376C155.839 475.336 154.495 473.896 152.623 473.896C150.619 473.896 149.095 475.3 149.095 477.52C149.095 479.8 150.679 481.18 152.719 481.18C153.991 481.18 155.527 480.448 155.791 478.852L154.399 478.612C154.243 479.404 153.787 479.884 152.659 479.884C151.411 479.884 150.727 479.08 150.619 477.868L155.839 477.868Z" fill="#FF5B24"/>
<path d="M160.631 475.516C161.003 475.516 161.267 475.564 161.531 475.672L161.675 473.992C161.531 473.92 161.327 473.896 161.147 473.896C160.463 473.896 159.383 474.292 158.819 475.744L158.819 474.088L157.319 474.088L157.319 481L158.819 481L158.819 477.976C158.819 476.056 159.659 475.516 160.631 475.516Z" fill="#FF5B24"/>
<path d="M168.69 481.18C169.926 481.18 170.682 480.424 171.03 479.572L171.03 481L172.53 481L172.53 474.088L171.03 474.088L171.03 475.444C170.538 474.352 169.782 473.896 168.702 473.896C167.25 473.896 165.654 475.06 165.654 477.472C165.654 480.004 167.262 481.18 168.69 481.18ZM169.11 475.192C170.118 475.192 171.03 475.96 171.03 477.556C171.03 479.2 170.118 479.872 169.098 479.872C168.15 479.872 167.166 479.164 167.166 477.556C167.166 475.924 168.162 475.192 169.11 475.192Z" fill="#FF5B24"/>
<path d="M178.292 473.896C177.116 473.896 176.396 474.64 175.952 475.444L175.952 474.088L174.452 474.088L174.452 483.4L175.952 483.4L175.952 479.692C176.528 480.676 177.272 481.18 178.148 481.18C179.756 481.18 181.328 479.956 181.328 477.436C181.328 475.024 179.696 473.896 178.292 473.896ZM177.884 475.192C178.832 475.192 179.816 475.948 179.816 477.52C179.816 479.116 178.832 479.872 177.872 479.872C176.864 479.872 175.952 479.056 175.952 477.52C175.952 475.912 176.864 475.192 177.884 475.192Z" fill="#FF5B24"/>
<path d="M186.706 473.896C185.53 473.896 184.81 474.64 184.366 475.444L184.366 474.088L182.866 474.088L182.866 483.4L184.366 483.4L184.366 479.692C184.942 480.676 185.686 481.18 186.562 481.18C188.17 481.18 189.742 479.956 189.742 477.436C189.742 475.024 188.11 473.896 186.706 473.896ZM186.298 475.192C187.246 475.192 188.23 475.948 188.23 477.52C188.23 479.116 187.246 479.872 186.286 479.872C185.278 479.872 184.366 479.056 184.366 477.52C184.366 475.912 185.278 475.192 186.298 475.192Z" fill="#FF5B24"/>
<path d="M194.592 475.516C194.964 475.516 195.228 475.564 195.492 475.672L195.636 473.992C195.492 473.92 195.288 473.896 195.108 473.896C194.424 473.896 193.344 474.292 192.78 475.744L192.78 474.088L191.28 474.088L191.28 481L192.78 481L192.78 477.976C192.78 476.056 193.62 475.516 194.592 475.516Z" fill="#FF5B24"/>
<path d="M199.753 473.896C197.881 473.896 196.333 475.264 196.333 477.532C196.333 479.8 197.881 481.18 199.753 481.18C201.625 481.18 203.173 479.8 203.173 477.532C203.173 475.264 201.625 473.896 199.753 473.896ZM199.753 475.192C200.785 475.192 201.661 475.948 201.661 477.532C201.661 479.116 200.785 479.884 199.753 479.884C198.721 479.884 197.845 479.116 197.845 477.532C197.845 475.948 198.721 475.192 199.753 475.192Z" fill="#FF5B24"/>
<path d="M210.783 474.088L209.115 474.088L207.339 479.308L205.551 474.088L203.883 474.088L206.643 481L208.023 481L210.783 474.088Z" fill="#FF5B24"/>
<path d="M214.965 475.192C215.937 475.192 216.705 475.648 216.825 476.8L213.069 476.8C213.273 475.732 213.969 475.192 214.965 475.192ZM218.241 477.868L218.241 477.376C218.241 475.336 216.897 473.896 215.025 473.896C213.021 473.896 211.497 475.3 211.497 477.52C211.497 479.8 213.081 481.18 215.121 481.18C216.393 481.18 217.929 480.448 218.193 478.852L216.801 478.612C216.645 479.404 216.189 479.884 215.061 479.884C213.813 479.884 213.129 479.08 213.021 477.868L218.241 477.868Z" fill="#FF5B24"/>
<path d="M219.578 476.032C219.578 476.992 220.13 477.7 221.306 477.952L222.566 478.228C223.43 478.42 223.67 478.672 223.67 479.08C223.67 479.656 223.106 479.98 222.278 479.98C221.306 479.98 220.67 479.524 220.574 478.672L219.242 478.912C219.47 480.52 220.97 481.18 222.314 481.18C223.646 481.18 225.062 480.436 225.062 478.936C225.062 477.976 224.498 477.328 223.274 477.064L221.906 476.764C221.21 476.608 220.97 476.272 220.97 475.912C220.97 475.408 221.45 475.096 222.134 475.096C222.962 475.096 223.574 475.396 223.622 476.296L224.954 476.056C224.558 474.508 223.514 473.896 222.122 473.896C220.994 473.896 219.578 474.52 219.578 476.032Z" fill="#FF5B24"/>
<path d="M105.764 20.616L105.752 20.712C105.608 21.852 104.684 22.644 103.268 22.644C101.78 22.644 100.292 21.756 100.292 19.536C100.292 17.424 101.528 16.356 103.184 16.356C104.444 16.356 105.512 16.836 105.716 18.336L107.3 18.096C106.952 15.588 104.78 14.82 103.28 14.82C100.592 14.82 98.6001 16.752 98.6001 19.536C98.6001 22.2 100.556 24.18 102.836 24.18C104.288 24.18 105.32 23.28 105.8 22.32L105.812 22.32L106.088 24L107.42 24L107.42 19.2L103.4 19.2L103.4 20.616L105.764 20.616Z" fill="#FF5B24"/>
<path d="M112.391 18.192C113.363 18.192 114.131 18.648 114.251 19.8L110.495 19.8C110.699 18.732 111.395 18.192 112.391 18.192ZM115.667 20.868L115.667 20.376C115.667 18.336 114.323 16.896 112.451 16.896C110.447 16.896 108.923 18.3 108.923 20.52C108.923 22.8 110.507 24.18 112.547 24.18C113.819 24.18 115.355 23.448 115.619 21.852L114.227 21.612C114.071 22.404 113.615 22.884 112.487 22.884C111.239 22.884 110.555 22.08 110.447 20.868L115.667 20.868Z" fill="#FF5B24"/>
<path d="M117.676 15.42L117.676 17.088L116.392 17.088L116.392 18.3L117.676 18.3L117.676 22.056C117.676 23.328 118.312 24.12 119.692 24.12C120.112 24.12 120.604 24.012 120.964 23.904L120.724 22.692C120.448 22.764 120.28 22.8 120.004 22.8C119.392 22.8 119.176 22.524 119.176 21.984L119.176 18.3L120.904 18.3L120.904 17.088L119.176 17.088L119.176 15.18L117.676 15.42Z" fill="#FF5B24"/>
<path d="M128.261 24.18C129.497 24.18 130.253 23.424 130.601 22.572L130.601 24L132.101 24L132.101 17.088L130.601 17.088L130.601 18.444C130.109 17.352 129.353 16.896 128.273 16.896C126.821 16.896 125.225 18.06 125.225 20.472C125.225 23.004 126.833 24.18 128.261 24.18ZM128.681 18.192C129.689 18.192 130.601 18.96 130.601 20.556C130.601 22.2 129.689 22.872 128.669 22.872C127.721 22.872 126.737 22.164 126.737 20.556C126.737 18.924 127.733 18.192 128.681 18.192Z" fill="#FF5B24"/>
<path d="M140.407 19.776C140.155 17.916 138.679 16.896 137.071 16.896C135.091 16.896 133.591 18.3 133.591 20.532C133.591 22.668 135.067 24.18 137.179 24.18C138.511 24.18 140.071 23.448 140.395 21.336L139.027 21.096C138.871 22.272 138.223 22.872 137.167 22.872C135.763 22.872 135.103 21.804 135.103 20.532C135.103 18.996 135.943 18.192 136.999 18.192C137.959 18.192 138.763 18.708 138.931 20.016L140.407 19.776Z" fill="#FF5B24"/>
<path d="M148.2 19.776C147.948 17.916 146.472 16.896 144.864 16.896C142.884 16.896 141.384 18.3 141.384 20.532C141.384 22.668 142.86 24.18 144.972 24.18C146.304 24.18 147.864 23.448 148.188 21.336L146.82 21.096C146.664 22.272 146.016 22.872 144.96 22.872C143.556 22.872 142.896 21.804 142.896 20.532C142.896 18.996 143.736 18.192 144.792 18.192C145.752 18.192 146.556 18.708 146.724 20.016L148.2 19.776Z" fill="#FF5B24"/>
<path d="M152.645 18.192C153.617 18.192 154.385 18.648 154.505 19.8L150.749 19.8C150.953 18.732 151.649 18.192 152.645 18.192ZM155.921 20.868L155.921 20.376C155.921 18.336 154.577 16.896 152.705 16.896C150.701 16.896 149.177 18.3 149.177 20.52C149.177 22.8 150.761 24.18 152.801 24.18C154.073 24.18 155.609 23.448 155.873 21.852L154.481 21.612C154.325 22.404 153.869 22.884 152.741 22.884C151.493 22.884 150.809 22.08 150.701 20.868L155.921 20.868Z" fill="#FF5B24"/>
<path d="M157.258 19.032C157.258 19.992 157.81 20.7 158.986 20.952L160.246 21.228C161.11 21.42 161.35 21.672 161.35 22.08C161.35 22.656 160.786 22.98 159.958 22.98C158.986 22.98 158.35 22.524 158.254 21.672L156.922 21.912C157.15 23.52 158.65 24.18 159.994 24.18C161.326 24.18 162.742 23.436 162.742 21.936C162.742 20.976 162.178 20.328 160.954 20.064L159.586 19.764C158.89 19.608 158.65 19.272 158.65 18.912C158.65 18.408 159.13 18.096 159.814 18.096C160.642 18.096 161.254 18.396 161.302 19.296L162.634 19.056C162.238 17.508 161.194 16.896 159.802 16.896C158.674 16.896 157.258 17.52 157.258 19.032Z" fill="#FF5B24"/>
<path d="M164.066 19.032C164.066 19.992 164.618 20.7 165.794 20.952L167.054 21.228C167.918 21.42 168.158 21.672 168.158 22.08C168.158 22.656 167.594 22.98 166.766 22.98C165.794 22.98 165.158 22.524 165.062 21.672L163.73 21.912C163.958 23.52 165.458 24.18 166.802 24.18C168.134 24.18 169.55 23.436 169.55 21.936C169.55 20.976 168.986 20.328 167.762 20.064L166.394 19.764C165.698 19.608 165.458 19.272 165.458 18.912C165.458 18.408 165.938 18.096 166.622 18.096C167.45 18.096 168.062 18.396 168.11 19.296L169.442 19.056C169.046 17.508 168.002 16.896 166.61 16.896C165.482 16.896 164.066 17.52 164.066 19.032Z" fill="#FF5B24"/>
<path d="M174.781 15.42L174.781 17.088L173.497 17.088L173.497 18.3L174.781 18.3L174.781 22.056C174.781 23.328 175.417 24.12 176.797 24.12C177.217 24.12 177.709 24.012 178.069 23.904L177.829 22.692C177.553 22.764 177.385 22.8 177.109 22.8C176.497 22.8 176.281 22.524 176.281 21.984L176.281 18.3L178.009 18.3L178.009 17.088L176.281 17.088L176.281 15.18L174.781 15.42Z" fill="#FF5B24"/>
<path d="M182.468 16.896C180.596 16.896 179.048 18.264 179.048 20.532C179.048 22.8 180.596 24.18 182.468 24.18C184.34 24.18 185.888 22.8 185.888 20.532C185.888 18.264 184.34 16.896 182.468 16.896ZM182.468 18.192C183.5 18.192 184.376 18.948 184.376 20.532C184.376 22.116 183.5 22.884 182.468 22.884C181.436 22.884 180.56 22.116 180.56 20.532C180.56 18.948 181.436 18.192 182.468 18.192Z" fill="#FF5B24"/>
<path d="M187.378 24L188.878 24L188.878 22.344L190.15 20.916L192.214 24L193.774 24L191.002 19.944L193.546 17.088L191.914 17.088L188.878 20.664L188.878 14.7L187.378 14.7L187.378 24Z" fill="#FF5B24"/>
<path d="M197.773 18.192C198.745 18.192 199.513 18.648 199.633 19.8L195.877 19.8C196.081 18.732 196.777 18.192 197.773 18.192ZM201.049 20.868L201.049 20.376C201.049 18.336 199.705 16.896 197.833 16.896C195.829 16.896 194.305 18.3 194.305 20.52C194.305 22.8 195.889 24.18 197.929 24.18C199.201 24.18 200.737 23.448 201.001 21.852L199.609 21.612C199.453 22.404 198.997 22.884 197.869 22.884C196.621 22.884 195.937 22.08 195.829 20.868L201.049 20.868Z" fill="#FF5B24"/>
<path d="M205.734 18.252C206.55 18.252 207.198 18.732 207.198 20.016L207.198 24L208.698 24L208.698 19.368C208.698 17.508 207.522 16.896 206.286 16.896C205.47 16.896 204.522 17.232 204.03 18.108L204.03 17.088L202.53 17.088L202.53 24L204.03 24L204.03 20.052C204.03 18.816 204.738 18.252 205.734 18.252Z" fill="#FF5B24"/>
<path d="M99.0559 71.0001L99.0559 80.0001L100.628 80.0001L100.628 76.5681L101.768 76.5681C102.74 76.5681 103.304 76.9521 103.448 77.7801L103.688 79.1721C103.76 79.6161 103.964 79.8561 104.204 80.0001L106.1 80.0001C105.764 79.7961 105.5 79.4361 105.392 79.0161L105.02 77.5641C104.804 76.7121 104.396 76.3161 103.808 76.0761C104.636 75.5961 105.272 74.7681 105.272 73.7241C105.272 72.0441 104.144 71.0001 102.176 71.0001L99.0559 71.0001ZM102.14 72.4041C102.98 72.4041 103.592 72.8961 103.592 73.7961C103.592 74.5881 103.04 75.1641 102.152 75.1641L100.628 75.1641L100.628 72.4041L102.14 72.4041Z" fill="#FF5B24"/>
<path d="M109.883 74.1921C110.855 74.1921 111.623 74.6481 111.743 75.8001L107.987 75.8001C108.191 74.7321 108.887 74.1921 109.883 74.1921ZM113.159 76.8681L113.159 76.3761C113.159 74.3361 111.815 72.8961 109.943 72.8961C107.939 72.8961 106.415 74.3001 106.415 76.5201C106.415 78.8001 107.999 80.1801 110.039 80.1801C111.311 80.1801 112.847 79.4481 113.111 77.8521L111.719 77.6121C111.563 78.4041 111.107 78.8841 109.979 78.8841C108.731 78.8841 108.047 78.0801 107.939 76.8681L113.159 76.8681Z" fill="#FF5B24"/>
<path d="M117.184 79.6041C118.396 79.6041 119.032 78.8121 119.404 78.0561L119.404 79.0881C119.404 80.5521 118.792 81.1521 117.46 81.1521C116.62 81.1521 115.816 80.9121 115.684 79.9161L114.232 80.1561C114.58 81.9081 116.152 82.4961 117.4 82.4961C119.608 82.4961 120.904 81.3441 120.904 79.0281L120.904 73.0761L119.404 73.0761L119.404 74.4201C118.876 73.3521 118.216 72.8961 117.304 72.8961C115.744 72.8961 114.268 73.9521 114.268 76.1481C114.268 78.5001 115.768 79.6041 117.184 79.6041ZM117.568 74.1921C118.576 74.1921 119.404 74.9241 119.404 76.2441C119.404 77.6361 118.576 78.2961 117.568 78.2961C116.596 78.2961 115.78 77.6361 115.78 76.2321C115.78 74.8761 116.632 74.1921 117.568 74.1921Z" fill="#FF5B24"/>
<path d="M122.819 73.0881L122.819 80.0001L124.319 80.0001L124.319 73.0881L122.819 73.0881ZM123.563 70.1001C123.059 70.1001 122.663 70.5081 122.663 71.0001C122.663 71.4921 123.059 71.9001 123.563 71.9001C124.067 71.9001 124.463 71.4921 124.463 71.0001C124.463 70.5081 124.067 70.1001 123.563 70.1001Z" fill="#FF5B24"/>
<path d="M126.097 75.0321C126.097 75.9921 126.649 76.7001 127.825 76.9521L129.085 77.2281C129.949 77.4201 130.189 77.6721 130.189 78.0801C130.189 78.6561 129.625 78.9801 128.797 78.9801C127.825 78.9801 127.189 78.5241 127.093 77.6721L125.761 77.9121C125.989 79.5201 127.489 80.1801 128.833 80.1801C130.165 80.1801 131.581 79.4361 131.581 77.9361C131.581 76.9761 131.017 76.3281 129.793 76.0641L128.425 75.7641C127.729 75.6081 127.489 75.2721 127.489 74.9121C127.489 74.4081 127.969 74.0961 128.653 74.0961C129.481 74.0961 130.093 74.3961 130.141 75.2961L131.473 75.0561C131.077 73.5081 130.033 72.8961 128.641 72.8961C127.513 72.8961 126.097 73.5201 126.097 75.0321Z" fill="#FF5B24"/>
<path d="M133.578 71.4201L133.578 73.0881L132.294 73.0881L132.294 74.3001L133.578 74.3001L133.578 78.0561C133.578 79.3281 134.214 80.1201 135.594 80.1201C136.014 80.1201 136.506 80.0121 136.866 79.9041L136.626 78.6921C136.35 78.7641 136.182 78.8001 135.906 78.8001C135.294 78.8001 135.078 78.5241 135.078 77.9841L135.078 74.3001L136.806 74.3001L136.806 73.0881L135.078 73.0881L135.078 71.1801L133.578 71.4201Z" fill="#FF5B24"/>
<path d="M141.588 74.5161C141.96 74.5161 142.224 74.5641 142.488 74.6721L142.632 72.9921C142.488 72.9201 142.284 72.8961 142.104 72.8961C141.42 72.8961 140.34 73.2921 139.776 74.7441L139.776 73.0881L138.276 73.0881L138.276 80.0001L139.776 80.0001L139.776 76.9761C139.776 75.0561 140.616 74.5161 141.588 74.5161Z" fill="#FF5B24"/>
<path d="M144.373 82.4001C145.717 82.4001 146.581 81.6921 147.121 80.2881L149.881 73.0881L148.213 73.0881L146.473 78.4881L144.649 73.0881L142.981 73.0881L145.525 79.4721C145.873 80.3481 145.549 81.1521 144.517 81.1521C143.977 81.1521 143.641 80.9841 143.425 80.8521L143.185 82.1481C143.509 82.3041 143.917 82.4001 144.373 82.4001Z" fill="#FF5B24"/>
<path d="M164.221 73.0881L162.553 73.0881L161.077 78.1281L159.409 73.0881L158.293 73.0881L156.637 78.1041L155.149 73.0881L153.481 73.0881L155.965 80.0001L157.261 80.0001L158.857 75.6321L160.441 80.0001L161.737 80.0001L164.221 73.0881Z" fill="#FF5B24"/>
<path d="M168.01 80.1801C169.246 80.1801 170.002 79.4241 170.35 78.5721L170.35 80.0001L171.85 80.0001L171.85 73.0881L170.35 73.0881L170.35 74.4441C169.858 73.3521 169.102 72.8961 168.022 72.8961C166.57 72.8961 164.974 74.0601 164.974 76.4721C164.974 79.0041 166.582 80.1801 168.01 80.1801ZM168.43 74.1921C169.438 74.1921 170.35 74.9601 170.35 76.5561C170.35 78.2001 169.438 78.8721 168.418 78.8721C167.47 78.8721 166.486 78.1641 166.486 76.5561C166.486 74.9241 167.482 74.1921 168.43 74.1921Z" fill="#FF5B24"/>
<path d="M173.628 75.0321C173.628 75.9921 174.18 76.7001 175.356 76.9521L176.616 77.2281C177.48 77.4201 177.72 77.6721 177.72 78.0801C177.72 78.6561 177.156 78.9801 176.328 78.9801C175.356 78.9801 174.72 78.5241 174.624 77.6721L173.292 77.9121C173.52 79.5201 175.02 80.1801 176.364 80.1801C177.696 80.1801 179.112 79.4361 179.112 77.9361C179.112 76.9761 178.548 76.3281 177.324 76.0641L175.956 75.7641C175.26 75.6081 175.02 75.2721 175.02 74.9121C175.02 74.4081 175.5 74.0961 176.184 74.0961C177.012 74.0961 177.624 74.3961 177.672 75.2961L179.004 75.0561C178.608 73.5081 177.564 72.8961 176.172 72.8961C175.044 72.8961 173.628 73.5201 173.628 75.0321Z" fill="#FF5B24"/>
<path d="M180.581 70.7001L180.581 80.0001L182.081 80.0001L182.081 76.0521C182.081 74.8161 182.789 74.2521 183.797 74.2521C184.601 74.2521 185.249 74.7321 185.249 76.0161L185.249 80.0001L186.749 80.0001L186.749 75.3681C186.749 73.5081 185.609 72.8961 184.289 72.8961C183.557 72.8961 182.573 73.2201 182.081 74.1081L182.081 70.7001L180.581 70.7001Z" fill="#FF5B24"/>
<path d="M188.608 73.0881L188.608 80.0001L190.108 80.0001L190.108 73.0881L188.608 73.0881ZM189.352 70.1001C188.848 70.1001 188.452 70.5081 188.452 71.0001C188.452 71.4921 188.848 71.9001 189.352 71.9001C189.856 71.9001 190.252 71.4921 190.252 71.0001C190.252 70.5081 189.856 70.1001 189.352 70.1001Z" fill="#FF5B24"/>
<path d="M195.234 74.2521C196.05 74.2521 196.698 74.7321 196.698 76.0161L196.698 80.0001L198.198 80.0001L198.198 75.3681C198.198 73.5081 197.022 72.8961 195.786 72.8961C194.97 72.8961 194.022 73.2321 193.53 74.1081L193.53 73.0881L192.03 73.0881L192.03 80.0001L193.53 80.0001L193.53 76.0521C193.53 74.8161 194.238 74.2521 195.234 74.2521Z" fill="#FF5B24"/>
<path d="M202.602 79.6041C203.814 79.6041 204.45 78.8121 204.822 78.0561L204.822 79.0881C204.822 80.5521 204.21 81.1521 202.878 81.1521C202.038 81.1521 201.234 80.9121 201.102 79.9161L199.65 80.1561C199.998 81.9081 201.57 82.4961 202.818 82.4961C205.026 82.4961 206.322 81.3441 206.322 79.0281L206.322 73.0761L204.822 73.0761L204.822 74.4201C204.294 73.3521 203.634 72.8961 202.722 72.8961C201.162 72.8961 199.686 73.9521 199.686 76.1481C199.686 78.5001 201.186 79.6041 202.602 79.6041ZM202.986 74.1921C203.994 74.1921 204.822 74.9241 204.822 76.2441C204.822 77.6361 203.994 78.2961 202.986 78.2961C202.014 78.2961 201.198 77.6361 201.198 76.2321C201.198 74.8761 202.05 74.1921 202.986 74.1921Z" fill="#FF5B24"/>
<path d="M101.612 100.18C102.848 100.18 103.604 99.4241 103.952 98.5721L103.952 100L105.452 100L105.452 93.0881L103.952 93.0881L103.952 94.4441C103.46 93.3521 102.704 92.8961 101.624 92.8961C100.172 92.8961 98.5759 94.0601 98.5759 96.4721C98.5759 99.0041 100.184 100.18 101.612 100.18ZM102.032 94.1921C103.04 94.1921 103.952 94.9601 103.952 96.5561C103.952 98.2001 103.04 98.8721 102.02 98.8721C101.072 98.8721 100.088 98.1641 100.088 96.5561C100.088 94.9241 101.084 94.1921 102.032 94.1921Z" fill="#FF5B24"/>
<path d="M110.578 94.2521C111.394 94.2521 112.042 94.7321 112.042 96.0161L112.042 100L113.542 100L113.542 95.3681C113.542 93.5081 112.366 92.8961 111.13 92.8961C110.314 92.8961 109.366 93.2321 108.874 94.1081L108.874 93.0881L107.374 93.0881L107.374 100L108.874 100L108.874 96.0521C108.874 94.8161 109.582 94.2521 110.578 94.2521Z" fill="#FF5B24"/>
<path d="M121.893 90.7001L120.393 90.7001L120.393 94.4441C119.901 93.3521 119.157 92.8961 118.221 92.8961C116.613 92.8961 115.017 94.0601 115.017 96.4721C115.017 99.0041 116.625 100.18 118.029 100.18C119.289 100.18 120.045 99.5201 120.393 98.6921L120.393 100L121.893 100L121.893 90.7001ZM118.473 94.1921C119.481 94.1921 120.393 94.9961 120.393 96.5561C120.393 98.1641 119.481 98.8721 118.461 98.8721C117.513 98.8721 116.529 98.1281 116.529 96.5561C116.529 94.9601 117.525 94.1921 118.473 94.1921Z" fill="#FF5B24"/>
<path d="M133.434 95.7761C133.182 93.9161 131.706 92.8961 130.098 92.8961C128.118 92.8961 126.618 94.3001 126.618 96.5321C126.618 98.6681 128.094 100.18 130.206 100.18C131.538 100.18 133.098 99.4481 133.422 97.3361L132.054 97.0961C131.898 98.2721 131.25 98.8721 130.194 98.8721C128.79 98.8721 128.13 97.8041 128.13 96.5321C128.13 94.9961 128.97 94.1921 130.026 94.1921C130.986 94.1921 131.79 94.7081 131.958 96.0161L133.434 95.7761Z" fill="#FF5B24"/>
<path d="M140.975 100L140.975 93.0881L139.475 93.0881L139.475 97.1081C139.475 98.2841 138.695 98.8241 137.687 98.8241C136.763 98.8241 136.307 98.4161 136.307 97.3481L136.307 93.0881L134.807 93.0881L134.807 97.9121C134.807 99.5081 135.959 100.18 137.111 100.18C137.975 100.18 138.935 99.7841 139.475 98.8361L139.475 100L140.975 100Z" fill="#FF5B24"/>
<path d="M142.726 95.0321C142.726 95.9921 143.278 96.7001 144.454 96.9521L145.714 97.2281C146.578 97.4201 146.818 97.6721 146.818 98.0801C146.818 98.6561 146.254 98.9801 145.426 98.9801C144.454 98.9801 143.818 98.5241 143.722 97.6721L142.39 97.9121C142.618 99.5201 144.118 100.18 145.462 100.18C146.794 100.18 148.21 99.4361 148.21 97.9361C148.21 96.9761 147.646 96.3281 146.422 96.0641L145.054 95.7641C144.358 95.6081 144.118 95.2721 144.118 94.9121C144.118 94.4081 144.598 94.0961 145.282 94.0961C146.11 94.0961 146.722 94.3961 146.77 95.2961L148.102 95.0561C147.706 93.5081 146.662 92.8961 145.27 92.8961C144.142 92.8961 142.726 93.5201 142.726 95.0321Z" fill="#FF5B24"/>
<path d="M150.207 91.4201L150.207 93.0881L148.923 93.0881L148.923 94.3001L150.207 94.3001L150.207 98.0561C150.207 99.3281 150.843 100.12 152.223 100.12C152.643 100.12 153.135 100.012 153.495 99.9041L153.255 98.6921C152.979 98.7641 152.811 98.8001 152.535 98.8001C151.923 98.8001 151.707 98.5241 151.707 97.9841L151.707 94.3001L153.435 94.3001L153.435 93.0881L151.707 93.0881L151.707 91.1801L150.207 91.4201Z" fill="#FF5B24"/>
<path d="M157.893 92.8961C156.021 92.8961 154.473 94.2641 154.473 96.5321C154.473 98.8001 156.021 100.18 157.893 100.18C159.765 100.18 161.313 98.8001 161.313 96.5321C161.313 94.2641 159.765 92.8961 157.893 92.8961ZM157.893 94.1921C158.925 94.1921 159.801 94.9481 159.801 96.5321C159.801 98.1161 158.925 98.8841 157.893 98.8841C156.861 98.8841 155.985 98.1161 155.985 96.5321C155.985 94.9481 156.861 94.1921 157.893 94.1921Z" fill="#FF5B24"/>
<path d="M170.448 94.2521C171.3 94.2521 171.948 94.7321 171.948 96.0161L171.948 100L173.448 100L173.448 95.3681C173.448 93.5081 172.308 92.8961 171.048 92.8961C170.28 92.8961 169.308 93.2081 168.792 94.2401C168.42 93.2561 167.544 92.8961 166.62 92.8961C165.792 92.8961 164.796 93.2201 164.304 94.1081L164.304 93.0881L162.804 93.0881L162.804 100L164.304 100L164.304 96.0521C164.304 94.8161 165.012 94.2521 165.972 94.2521C166.824 94.2521 167.472 94.7321 167.472 96.0161L167.472 100L168.972 100L168.972 96.0521C168.972 94.8161 169.596 94.2521 170.448 94.2521Z" fill="#FF5B24"/>
<path d="M178.344 94.1921C179.316 94.1921 180.084 94.6481 180.204 95.8001L176.448 95.8001C176.652 94.7321 177.348 94.1921 178.344 94.1921ZM181.62 96.8681L181.62 96.3761C181.62 94.3361 180.276 92.8961 178.404 92.8961C176.4 92.8961 174.876 94.3001 174.876 96.5201C174.876 98.8001 176.46 100.18 178.5 100.18C179.772 100.18 181.308 99.4481 181.572 97.8521L180.18 97.6121C180.024 98.4041 179.568 98.8841 178.44 98.8841C177.192 98.8841 176.508 98.0801 176.4 96.8681L181.62 96.8681Z" fill="#FF5B24"/>
<path d="M186.413 94.5161C186.785 94.5161 187.049 94.5641 187.313 94.6721L187.457 92.9921C187.313 92.9201 187.109 92.8961 186.929 92.8961C186.245 92.8961 185.165 93.2921 184.601 94.7441L184.601 93.0881L183.101 93.0881L183.101 100L184.601 100L184.601 96.9761C184.601 95.0561 185.441 94.5161 186.413 94.5161Z" fill="#FF5B24"/>
<path d="M98.9599 110.7L98.9599 120L100.46 120L100.46 110.7L98.9599 110.7Z" fill="#FF5B24"/>
<path d="M105.37 112.896C103.498 112.896 101.95 114.264 101.95 116.532C101.95 118.8 103.498 120.18 105.37 120.18C107.242 120.18 108.79 118.8 108.79 116.532C108.79 114.264 107.242 112.896 105.37 112.896ZM105.37 114.192C106.402 114.192 107.278 114.948 107.278 116.532C107.278 118.116 106.402 118.884 105.37 118.884C104.338 118.884 103.462 118.116 103.462 116.532C103.462 114.948 104.338 114.192 105.37 114.192Z" fill="#FF5B24"/>
<path d="M113.268 112.896C111.396 112.896 109.848 114.264 109.848 116.532C109.848 118.8 111.396 120.18 113.268 120.18C115.14 120.18 116.688 118.8 116.688 116.532C116.688 114.264 115.14 112.896 113.268 112.896ZM113.268 114.192C114.3 114.192 115.176 114.948 115.176 116.532C115.176 118.116 114.3 118.884 113.268 118.884C112.236 118.884 111.36 118.116 111.36 116.532C111.36 114.948 112.236 114.192 113.268 114.192Z" fill="#FF5B24"/>
<path d="M118.179 120L119.679 120L119.679 118.344L120.951 116.916L123.015 120L124.575 120L121.803 115.944L124.347 113.088L122.715 113.088L119.679 116.664L119.679 110.7L118.179 110.7L118.179 120Z" fill="#FF5B24"/>
<path d="M131.67 120L131.67 113.088L130.17 113.088L130.17 117.108C130.17 118.284 129.39 118.824 128.382 118.824C127.458 118.824 127.002 118.416 127.002 117.348L127.002 113.088L125.502 113.088L125.502 117.912C125.502 119.508 126.654 120.18 127.806 120.18C128.67 120.18 129.63 119.784 130.17 118.836L130.17 120L131.67 120Z" fill="#FF5B24"/>
<path d="M137.405 112.896C136.229 112.896 135.509 113.64 135.065 114.444L135.065 113.088L133.565 113.088L133.565 122.4L135.065 122.4L135.065 118.692C135.641 119.676 136.385 120.18 137.261 120.18C138.869 120.18 140.441 118.956 140.441 116.436C140.441 114.024 138.809 112.896 137.405 112.896ZM136.997 114.192C137.945 114.192 138.929 114.948 138.929 116.52C138.929 118.116 137.945 118.872 136.985 118.872C135.977 118.872 135.065 118.056 135.065 116.52C135.065 114.912 135.977 114.192 136.997 114.192Z" fill="#FF5B24"/>
<path d="M105.764 173.616L105.752 173.712C105.608 174.852 104.684 175.644 103.268 175.644C101.78 175.644 100.292 174.756 100.292 172.536C100.292 170.424 101.528 169.356 103.184 169.356C104.444 169.356 105.512 169.836 105.716 171.336L107.3 171.096C106.952 168.588 104.78 167.82 103.28 167.82C100.592 167.82 98.6001 169.752 98.6001 172.536C98.6001 175.2 100.556 177.18 102.836 177.18C104.288 177.18 105.32 176.28 105.8 175.32L105.812 175.32L106.088 177L107.42 177L107.42 172.2L103.4 172.2L103.4 173.616L105.764 173.616Z" fill="#FF5B24"/>
<path d="M112.391 171.192C113.363 171.192 114.131 171.648 114.251 172.8L110.495 172.8C110.699 171.732 111.395 171.192 112.391 171.192ZM115.667 173.868L115.667 173.376C115.667 171.336 114.323 169.896 112.451 169.896C110.447 169.896 108.923 171.3 108.923 173.52C108.923 175.8 110.507 177.18 112.547 177.18C113.819 177.18 115.355 176.448 115.619 174.852L114.227 174.612C114.071 175.404 113.615 175.884 112.487 175.884C111.239 175.884 110.555 175.08 110.447 173.868L115.667 173.868Z" fill="#FF5B24"/>
<path d="M117.676 168.42L117.676 170.088L116.392 170.088L116.392 171.3L117.676 171.3L117.676 175.056C117.676 176.328 118.312 177.12 119.692 177.12C120.112 177.12 120.604 177.012 120.964 176.904L120.724 175.692C120.448 175.764 120.28 175.8 120.004 175.8C119.392 175.8 119.176 175.524 119.176 174.984L119.176 171.3L120.904 171.3L120.904 170.088L119.176 170.088L119.176 168.18L117.676 168.42Z" fill="#FF5B24"/>
<path d="M128.921 171.516C129.293 171.516 129.557 171.564 129.821 171.672L129.965 169.992C129.821 169.92 129.617 169.896 129.437 169.896C128.753 169.896 127.673 170.292 127.109 171.744L127.109 170.088L125.609 170.088L125.609 177L127.109 177L127.109 173.976C127.109 172.056 127.949 171.516 128.921 171.516Z" fill="#FF5B24"/>
<path d="M134.129 171.192C135.101 171.192 135.869 171.648 135.989 172.8L132.233 172.8C132.437 171.732 133.133 171.192 134.129 171.192ZM137.405 173.868L137.405 173.376C137.405 171.336 136.061 169.896 134.189 169.896C132.185 169.896 130.661 171.3 130.661 173.52C130.661 175.8 132.245 177.18 134.285 177.18C135.557 177.18 137.093 176.448 137.357 174.852L135.965 174.612C135.809 175.404 135.353 175.884 134.225 175.884C132.977 175.884 132.293 175.08 132.185 173.868L137.405 173.868Z" fill="#FF5B24"/>
<path d="M145.27 172.776C145.018 170.916 143.542 169.896 141.934 169.896C139.954 169.896 138.454 171.3 138.454 173.532C138.454 175.668 139.93 177.18 142.042 177.18C143.374 177.18 144.934 176.448 145.258 174.336L143.89 174.096C143.734 175.272 143.086 175.872 142.03 175.872C140.626 175.872 139.966 174.804 139.966 173.532C139.966 171.996 140.806 171.192 141.862 171.192C142.822 171.192 143.626 171.708 143.794 173.016L145.27 172.776Z" fill="#FF5B24"/>
<path d="M146.679 170.088L146.679 177L148.179 177L148.179 170.088L146.679 170.088ZM147.423 167.1C146.919 167.1 146.523 167.508 146.523 168C146.523 168.492 146.919 168.9 147.423 168.9C147.927 168.9 148.323 168.492 148.323 168C148.323 167.508 147.927 167.1 147.423 167.1Z" fill="#FF5B24"/>
<path d="M153.941 169.896C152.765 169.896 152.045 170.64 151.601 171.444L151.601 170.088L150.101 170.088L150.101 179.4L151.601 179.4L151.601 175.692C152.177 176.676 152.921 177.18 153.797 177.18C155.405 177.18 156.977 175.956 156.977 173.436C156.977 171.024 155.345 169.896 153.941 169.896ZM153.533 171.192C154.481 171.192 155.465 171.948 155.465 173.52C155.465 175.116 154.481 175.872 153.521 175.872C152.513 175.872 151.601 175.056 151.601 173.52C151.601 171.912 152.513 171.192 153.533 171.192Z" fill="#FF5B24"/>
<path d="M158.515 170.088L158.515 177L160.015 177L160.015 170.088L158.515 170.088ZM159.259 167.1C158.755 167.1 158.359 167.508 158.359 168C158.359 168.492 158.755 168.9 159.259 168.9C159.763 168.9 160.159 168.492 160.159 168C160.159 167.508 159.763 167.1 159.259 167.1Z" fill="#FF5B24"/>
<path d="M164.973 171.192C165.945 171.192 166.713 171.648 166.833 172.8L163.077 172.8C163.281 171.732 163.977 171.192 164.973 171.192ZM168.249 173.868L168.249 173.376C168.249 171.336 166.905 169.896 165.033 169.896C163.029 169.896 161.505 171.3 161.505 173.52C161.505 175.8 163.089 177.18 165.129 177.18C166.401 177.18 167.937 176.448 168.201 174.852L166.809 174.612C166.653 175.404 166.197 175.884 165.069 175.884C163.821 175.884 163.137 175.08 163.029 173.868L168.249 173.868Z" fill="#FF5B24"/>
<path d="M172.934 171.252C173.75 171.252 174.398 171.732 174.398 173.016L174.398 177L175.898 177L175.898 172.368C175.898 170.508 174.722 169.896 173.486 169.896C172.67 169.896 171.722 170.232 171.23 171.108L171.23 170.088L169.73 170.088L169.73 177L171.23 177L171.23 173.052C171.23 171.816 171.938 171.252 172.934 171.252Z" fill="#FF5B24"/>
<path d="M178.285 168.42L178.285 170.088L177.001 170.088L177.001 171.3L178.285 171.3L178.285 175.056C178.285 176.328 178.921 177.12 180.301 177.12C180.721 177.12 181.213 177.012 181.573 176.904L181.333 175.692C181.057 175.764 180.889 175.8 180.613 175.8C180.001 175.8 179.785 175.524 179.785 174.984L179.785 171.3L181.513 171.3L181.513 170.088L179.785 170.088L179.785 168.18L178.285 168.42Z" fill="#FF5B24"/>
<path d="M186.746 168.42L186.746 170.088L185.462 170.088L185.462 171.3L186.746 171.3L186.746 175.056C186.746 176.328 187.382 177.12 188.762 177.12C189.182 177.12 189.674 177.012 190.034 176.904L189.794 175.692C189.518 175.764 189.35 175.8 189.074 175.8C188.462 175.8 188.246 175.524 188.246 174.984L188.246 171.3L189.974 171.3L189.974 170.088L188.246 170.088L188.246 168.18L186.746 168.42Z" fill="#FF5B24"/>
<path d="M194.432 169.896C192.56 169.896 191.012 171.264 191.012 173.532C191.012 175.8 192.56 177.18 194.432 177.18C196.304 177.18 197.852 175.8 197.852 173.532C197.852 171.264 196.304 169.896 194.432 169.896ZM194.432 171.192C195.464 171.192 196.34 171.948 196.34 173.532C196.34 175.116 195.464 175.884 194.432 175.884C193.4 175.884 192.524 175.116 192.524 173.532C192.524 171.948 193.4 171.192 194.432 171.192Z" fill="#FF5B24"/>
<path d="M199.343 177L200.843 177L200.843 175.344L202.115 173.916L204.179 177L205.739 177L202.967 172.944L205.511 170.088L203.879 170.088L200.843 173.664L200.843 167.7L199.343 167.7L199.343 177Z" fill="#FF5B24"/>
<path d="M209.738 171.192C210.71 171.192 211.478 171.648 211.598 172.8L207.842 172.8C208.046 171.732 208.742 171.192 209.738 171.192ZM213.014 173.868L213.014 173.376C213.014 171.336 211.67 169.896 209.798 169.896C207.794 169.896 206.27 171.3 206.27 173.52C206.27 175.8 207.854 177.18 209.894 177.18C211.166 177.18 212.702 176.448 212.966 174.852L211.574 174.612C211.418 175.404 210.962 175.884 209.834 175.884C208.586 175.884 207.902 175.08 207.794 173.868L213.014 173.868Z" fill="#FF5B24"/>
<path d="M217.699 171.252C218.515 171.252 219.163 171.732 219.163 173.016L219.163 177L220.663 177L220.663 172.368C220.663 170.508 219.487 169.896 218.251 169.896C217.435 169.896 216.487 170.232 215.995 171.108L215.995 170.088L214.495 170.088L214.495 177L215.995 177L215.995 173.052C215.995 171.816 216.703 171.252 217.699 171.252Z" fill="#FF5B24"/>
<path d="M100.628 539.404L102.236 539.404C103.256 539.404 103.832 540.004 103.832 541.12C103.832 542.176 103.256 542.776 102.212 542.776L100.628 542.776L100.628 539.404ZM99.0561 538L99.0561 547L100.628 547L100.628 544.18L102.368 544.18C104.288 544.18 105.512 542.836 105.512 541.096C105.512 539.08 104.36 538 102.356 538L99.0561 538Z" fill="#FF5B24"/>
<path d="M109.464 547.18C110.7 547.18 111.456 546.424 111.804 545.572L111.804 547L113.304 547L113.304 540.088L111.804 540.088L111.804 541.444C111.312 540.352 110.556 539.896 109.476 539.896C108.024 539.896 106.428 541.06 106.428 543.472C106.428 546.004 108.036 547.18 109.464 547.18ZM109.884 541.192C110.892 541.192 111.804 541.96 111.804 543.556C111.804 545.2 110.892 545.872 109.872 545.872C108.924 545.872 107.94 545.164 107.94 543.556C107.94 541.924 108.936 541.192 109.884 541.192Z" fill="#FF5B24"/>
<path d="M115.838 549.4C117.182 549.4 118.046 548.692 118.586 547.288L121.346 540.088L119.678 540.088L117.938 545.488L116.114 540.088L114.446 540.088L116.99 546.472C117.338 547.348 117.014 548.152 115.982 548.152C115.442 548.152 115.106 547.984 114.89 547.852L114.65 549.148C114.974 549.304 115.382 549.4 115.838 549.4Z" fill="#FF5B24"/>
<path d="M130.135 541.252C130.987 541.252 131.635 541.732 131.635 543.016L131.635 547L133.135 547L133.135 542.368C133.135 540.508 131.995 539.896 130.735 539.896C129.967 539.896 128.995 540.208 128.479 541.24C128.107 540.256 127.231 539.896 126.307 539.896C125.479 539.896 124.483 540.22 123.991 541.108L123.991 540.088L122.491 540.088L122.491 547L123.991 547L123.991 543.052C123.991 541.816 124.699 541.252 125.659 541.252C126.511 541.252 127.159 541.732 127.159 543.016L127.159 547L128.659 547L128.659 543.052C128.659 541.816 129.283 541.252 130.135 541.252Z" fill="#FF5B24"/>
<path d="M138.031 541.192C139.003 541.192 139.771 541.648 139.891 542.8L136.135 542.8C136.339 541.732 137.035 541.192 138.031 541.192ZM141.307 543.868L141.307 543.376C141.307 541.336 139.963 539.896 138.091 539.896C136.087 539.896 134.563 541.3 134.563 543.52C134.563 545.8 136.147 547.18 138.187 547.18C139.459 547.18 140.995 546.448 141.259 544.852L139.867 544.612C139.711 545.404 139.255 545.884 138.127 545.884C136.879 545.884 136.195 545.08 136.087 543.868L141.307 543.868Z" fill="#FF5B24"/>
<path d="M145.992 541.252C146.808 541.252 147.456 541.732 147.456 543.016L147.456 547L148.956 547L148.956 542.368C148.956 540.508 147.78 539.896 146.544 539.896C145.728 539.896 144.78 540.232 144.288 541.108L144.288 540.088L142.788 540.088L142.788 547L144.288 547L144.288 543.052C144.288 541.816 144.996 541.252 145.992 541.252Z" fill="#FF5B24"/>
<path d="M151.344 538.42L151.344 540.088L150.06 540.088L150.06 541.3L151.344 541.3L151.344 545.056C151.344 546.328 151.98 547.12 153.36 547.12C153.78 547.12 154.272 547.012 154.632 546.904L154.392 545.692C154.116 545.764 153.948 545.8 153.672 545.8C153.06 545.8 152.844 545.524 152.844 544.984L152.844 541.3L154.572 541.3L154.572 540.088L152.844 540.088L152.844 538.18L151.344 538.42Z" fill="#FF5B24"/>
<path d="M159.277 540.088L159.277 547L160.777 547L160.777 540.088L159.277 540.088ZM160.021 537.1C159.517 537.1 159.121 537.508 159.121 538C159.121 538.492 159.517 538.9 160.021 538.9C160.525 538.9 160.921 538.492 160.921 538C160.921 537.508 160.525 537.1 160.021 537.1Z" fill="#FF5B24"/>
<path d="M162.554 542.032C162.554 542.992 163.106 543.7 164.282 543.952L165.542 544.228C166.406 544.42 166.646 544.672 166.646 545.08C166.646 545.656 166.082 545.98 165.254 545.98C164.282 545.98 163.646 545.524 163.55 544.672L162.218 544.912C162.446 546.52 163.946 547.18 165.29 547.18C166.622 547.18 168.038 546.436 168.038 544.936C168.038 543.976 167.474 543.328 166.25 543.064L164.882 542.764C164.186 542.608 163.946 542.272 163.946 541.912C163.946 541.408 164.426 541.096 165.11 541.096C165.938 541.096 166.55 541.396 166.598 542.296L167.93 542.056C167.534 540.508 166.49 539.896 165.098 539.896C163.97 539.896 162.554 540.52 162.554 542.032Z" fill="#FF5B24"/>
<path d="M99.4881 558.42L99.4881 560.088L98.2041 560.088L98.2041 561.3L99.4881 561.3L99.4881 565.056C99.4881 566.328 100.124 567.12 101.504 567.12C101.924 567.12 102.416 567.012 102.776 566.904L102.536 565.692C102.26 565.764 102.092 565.8 101.816 565.8C101.204 565.8 100.988 565.524 100.988 564.984L100.988 561.3L102.716 561.3L102.716 560.088L100.988 560.088L100.988 558.18L99.4881 558.42Z" fill="#FF5B24"/>
<path d="M107.499 561.516C107.871 561.516 108.135 561.564 108.399 561.672L108.543 559.992C108.399 559.92 108.195 559.896 108.015 559.896C107.331 559.896 106.251 560.292 105.687 561.744L105.687 560.088L104.187 560.088L104.187 567L105.687 567L105.687 563.976C105.687 562.056 106.527 561.516 107.499 561.516Z" fill="#FF5B24"/>
<path d="M112.323 567.18C113.559 567.18 114.315 566.424 114.663 565.572L114.663 567L116.163 567L116.163 560.088L114.663 560.088L114.663 561.444C114.171 560.352 113.415 559.896 112.335 559.896C110.883 559.896 109.287 561.06 109.287 563.472C109.287 566.004 110.895 567.18 112.323 567.18ZM112.743 561.192C113.751 561.192 114.663 561.96 114.663 563.556C114.663 565.2 113.751 565.872 112.731 565.872C111.783 565.872 110.799 565.164 110.799 563.556C110.799 561.924 111.795 561.192 112.743 561.192Z" fill="#FF5B24"/>
<path d="M121.289 561.252C122.105 561.252 122.753 561.732 122.753 563.016L122.753 567L124.253 567L124.253 562.368C124.253 560.508 123.077 559.896 121.841 559.896C121.025 559.896 120.077 560.232 119.585 561.108L119.585 560.088L118.085 560.088L118.085 567L119.585 567L119.585 563.052C119.585 561.816 120.293 561.252 121.289 561.252Z" fill="#FF5B24"/>
<path d="M125.968 562.032C125.968 562.992 126.52 563.7 127.696 563.952L128.956 564.228C129.82 564.42 130.06 564.672 130.06 565.08C130.06 565.656 129.496 565.98 128.668 565.98C127.696 565.98 127.06 565.524 126.964 564.672L125.632 564.912C125.86 566.52 127.36 567.18 128.704 567.18C130.036 567.18 131.452 566.436 131.452 564.936C131.452 563.976 130.888 563.328 129.664 563.064L128.296 562.764C127.6 562.608 127.36 562.272 127.36 561.912C127.36 561.408 127.84 561.096 128.524 561.096C129.352 561.096 129.964 561.396 130.012 562.296L131.344 562.056C130.948 560.508 129.904 559.896 128.512 559.896C127.384 559.896 125.968 560.52 125.968 562.032Z" fill="#FF5B24"/>
<path d="M133.317 567L134.817 567L134.817 561.3L136.533 561.3L136.533 560.088L134.817 560.088L134.817 559.812C134.817 559.104 135.153 558.732 135.765 558.732C136.089 558.732 136.365 558.78 136.653 558.864L136.857 557.7C136.521 557.58 136.113 557.472 135.609 557.472C134.229 557.472 133.317 558.36 133.317 559.824L133.317 560.088L132.369 560.088L132.369 561.3L133.317 561.3L133.317 567Z" fill="#FF5B24"/>
<path d="M140.633 561.192C141.605 561.192 142.373 561.648 142.493 562.8L138.737 562.8C138.941 561.732 139.637 561.192 140.633 561.192ZM143.909 563.868L143.909 563.376C143.909 561.336 142.565 559.896 140.693 559.896C138.689 559.896 137.165 561.3 137.165 563.52C137.165 565.8 138.749 567.18 140.789 567.18C142.061 567.18 143.597 566.448 143.861 564.852L142.469 564.612C142.313 565.404 141.857 565.884 140.729 565.884C139.481 565.884 138.797 565.08 138.689 563.868L143.909 563.868Z" fill="#FF5B24"/>
<path d="M148.702 561.516C149.074 561.516 149.338 561.564 149.602 561.672L149.746 559.992C149.602 559.92 149.398 559.896 149.218 559.896C148.534 559.896 147.454 560.292 146.89 561.744L146.89 560.088L145.39 560.088L145.39 567L146.89 567L146.89 563.976C146.89 562.056 147.73 561.516 148.702 561.516Z" fill="#FF5B24"/>
<path d="M154.186 561.516C154.558 561.516 154.822 561.564 155.086 561.672L155.23 559.992C155.086 559.92 154.882 559.896 154.702 559.896C154.018 559.896 152.938 560.292 152.374 561.744L152.374 560.088L150.874 560.088L150.874 567L152.374 567L152.374 563.976C152.374 562.056 153.214 561.516 154.186 561.516Z" fill="#FF5B24"/>
<path d="M159.395 561.192C160.367 561.192 161.135 561.648 161.255 562.8L157.499 562.8C157.703 561.732 158.399 561.192 159.395 561.192ZM162.671 563.868L162.671 563.376C162.671 561.336 161.327 559.896 159.455 559.896C157.451 559.896 155.927 561.3 155.927 563.52C155.927 565.8 157.511 567.18 159.551 567.18C160.823 567.18 162.359 566.448 162.623 564.852L161.231 564.612C161.075 565.404 160.619 565.884 159.491 565.884C158.243 565.884 157.559 565.08 157.451 563.868L162.671 563.868Z" fill="#FF5B24"/>
<path d="M170.644 557.7L169.144 557.7L169.144 561.444C168.652 560.352 167.907 559.896 166.971 559.896C165.363 559.896 163.767 561.06 163.767 563.472C163.767 566.004 165.375 567.18 166.779 567.18C168.039 567.18 168.796 566.52 169.144 565.692L169.144 567L170.644 567L170.644 557.7ZM167.223 561.192C168.231 561.192 169.144 561.996 169.144 563.556C169.144 565.164 168.231 565.872 167.211 565.872C166.263 565.872 165.279 565.128 165.279 563.556C165.279 561.96 166.275 561.192 167.223 561.192Z" fill="#FF5B24"/>
<path d="M155.056 376L155.056 385L156.628 385L156.628 376L155.056 376Z" fill="#49367E"/>
<path d="M158.496 378.412C158.496 381.88 163.476 380.74 163.476 382.648C163.476 383.332 162.948 383.788 161.928 383.788C160.956 383.788 159.84 383.464 159.684 381.928L158.136 382.288C158.376 384.22 160.08 385.18 161.88 385.18C163.476 385.18 165.048 384.268 165.048 382.552C165.048 379.192 160.092 380.416 160.092 378.352C160.092 377.644 160.632 377.212 161.556 377.212C162.36 377.212 163.26 377.572 163.332 378.82L164.916 378.46C164.652 376.6 163.044 375.82 161.628 375.82C160.056 375.82 158.496 376.684 158.496 378.412Z" fill="#49367E"/>
<path d="M168.194 377.404L169.802 377.404C170.822 377.404 171.398 378.004 171.398 379.12C171.398 380.176 170.822 380.776 169.778 380.776L168.194 380.776L168.194 377.404ZM166.622 376L166.622 385L168.194 385L168.194 382.18L169.934 382.18C171.854 382.18 173.078 380.836 173.078 379.096C173.078 377.08 171.926 376 169.922 376L166.622 376Z" fill="#49367E"/>
<path d="M181.159 379.516C181.531 379.516 181.795 379.564 182.059 379.672L182.203 377.992C182.059 377.92 181.855 377.896 181.675 377.896C180.991 377.896 179.911 378.292 179.347 379.744L179.347 378.088L177.847 378.088L177.847 385L179.347 385L179.347 381.976C179.347 380.056 180.187 379.516 181.159 379.516Z" fill="#49367E"/>
<path d="M186.367 379.192C187.339 379.192 188.107 379.648 188.227 380.8L184.471 380.8C184.675 379.732 185.371 379.192 186.367 379.192ZM189.643 381.868L189.643 381.376C189.643 379.336 188.299 377.896 186.427 377.896C184.423 377.896 182.899 379.3 182.899 381.52C182.899 383.8 184.483 385.18 186.523 385.18C187.795 385.18 189.331 384.448 189.595 382.852L188.203 382.612C188.047 383.404 187.591 383.884 186.463 383.884C185.215 383.884 184.531 383.08 184.423 381.868L189.643 381.868Z" fill="#49367E"/>
<path d="M197.244 378.088L195.576 378.088L193.8 383.308L192.012 378.088L190.344 378.088L193.104 385L194.484 385L197.244 378.088Z" fill="#49367E"/>
<path d="M201.378 377.896C199.506 377.896 197.958 379.264 197.958 381.532C197.958 383.8 199.506 385.18 201.378 385.18C203.25 385.18 204.798 383.8 204.798 381.532C204.798 379.264 203.25 377.896 201.378 377.896ZM201.378 379.192C202.41 379.192 203.286 379.948 203.286 381.532C203.286 383.116 202.41 383.884 201.378 383.884C200.346 383.884 199.47 383.116 199.47 381.532C199.47 379.948 200.346 379.192 201.378 379.192Z" fill="#49367E"/>
<path d="M206.288 385L207.788 385L207.788 383.344L209.06 381.916L211.124 385L212.684 385L209.912 380.944L212.456 378.088L210.824 378.088L207.788 381.664L207.788 375.7L206.288 375.7L206.288 385Z" fill="#49367E"/>
<path d="M216.683 379.192C217.655 379.192 218.423 379.648 218.543 380.8L214.787 380.8C214.991 379.732 215.687 379.192 216.683 379.192ZM219.959 381.868L219.959 381.376C219.959 379.336 218.615 377.896 216.743 377.896C214.739 377.896 213.215 379.3 213.215 381.52C213.215 383.8 214.799 385.18 216.839 385.18C218.111 385.18 219.647 384.448 219.911 382.852L218.519 382.612C218.363 383.404 217.907 383.884 216.779 383.884C215.531 383.884 214.847 383.08 214.739 381.868L219.959 381.868Z" fill="#49367E"/>
<path d="M221.296 380.032C221.296 380.992 221.848 381.7 223.024 381.952L224.284 382.228C225.148 382.42 225.388 382.672 225.388 383.08C225.388 383.656 224.824 383.98 223.996 383.98C223.024 383.98 222.388 383.524 222.292 382.672L220.96 382.912C221.188 384.52 222.688 385.18 224.032 385.18C225.364 385.18 226.78 384.436 226.78 382.936C226.78 381.976 226.216 381.328 224.992 381.064L223.624 380.764C222.928 380.608 222.688 380.272 222.688 379.912C222.688 379.408 223.168 379.096 223.852 379.096C224.68 379.096 225.292 379.396 225.34 380.296L226.672 380.056C226.276 378.508 225.232 377.896 223.84 377.896C222.712 377.896 221.296 378.52 221.296 380.032Z" fill="#49367E"/>
<path d="M154.96 398.088L154.96 405L156.46 405L156.46 398.088L154.96 398.088ZM155.704 395.1C155.2 395.1 154.804 395.508 154.804 396C154.804 396.492 155.2 396.9 155.704 396.9C156.208 396.9 156.604 396.492 156.604 396C156.604 395.508 156.208 395.1 155.704 395.1Z" fill="#49367E"/>
<path d="M161.586 399.252C162.402 399.252 163.05 399.732 163.05 401.016L163.05 405L164.55 405L164.55 400.368C164.55 398.508 163.374 397.896 162.138 397.896C161.322 397.896 160.374 398.232 159.882 399.108L159.882 398.088L158.382 398.088L158.382 405L159.882 405L159.882 401.052C159.882 399.816 160.59 399.252 161.586 399.252Z" fill="#49367E"/>
<path d="M172.529 398.088L170.861 398.088L169.085 403.308L167.297 398.088L165.629 398.088L168.389 405L169.769 405L172.529 398.088Z" fill="#49367E"/>
<path d="M176.663 397.896C174.791 397.896 173.243 399.264 173.243 401.532C173.243 403.8 174.791 405.18 176.663 405.18C178.535 405.18 180.083 403.8 180.083 401.532C180.083 399.264 178.535 397.896 176.663 397.896ZM176.663 399.192C177.695 399.192 178.571 399.948 178.571 401.532C178.571 403.116 177.695 403.884 176.663 403.884C175.631 403.884 174.755 403.116 174.755 401.532C174.755 399.948 175.631 399.192 176.663 399.192Z" fill="#49367E"/>
<path d="M181.573 398.088L181.573 405L183.073 405L183.073 398.088L181.573 398.088ZM182.317 395.1C181.813 395.1 181.417 395.508 181.417 396C181.417 396.492 181.813 396.9 182.317 396.9C182.821 396.9 183.217 396.492 183.217 396C183.217 395.508 182.821 395.1 182.317 395.1Z" fill="#49367E"/>
<path d="M191.379 400.776C191.127 398.916 189.651 397.896 188.043 397.896C186.063 397.896 184.563 399.3 184.563 401.532C184.563 403.668 186.039 405.18 188.151 405.18C189.483 405.18 191.043 404.448 191.367 402.336L189.999 402.096C189.843 403.272 189.195 403.872 188.139 403.872C186.735 403.872 186.075 402.804 186.075 401.532C186.075 399.996 186.915 399.192 187.971 399.192C188.931 399.192 189.735 399.708 189.903 401.016L191.379 400.776Z" fill="#49367E"/>
<path d="M195.824 399.192C196.796 399.192 197.564 399.648 197.684 400.8L193.928 400.8C194.132 399.732 194.828 399.192 195.824 399.192ZM199.1 401.868L199.1 401.376C199.1 399.336 197.756 397.896 195.884 397.896C193.88 397.896 192.356 399.3 192.356 401.52C192.356 403.8 193.94 405.18 195.98 405.18C197.252 405.18 198.788 404.448 199.052 402.852L197.66 402.612C197.504 403.404 197.048 403.884 195.92 403.884C194.672 403.884 193.988 403.08 193.88 401.868L199.1 401.868Z" fill="#49367E"/>
<path d="M99.056 310L99.056 319L100.628 319L100.628 310L99.056 310Z" fill="#FF5B24"/>
<path d="M102.496 312.412C102.496 315.88 107.476 314.74 107.476 316.648C107.476 317.332 106.948 317.788 105.928 317.788C104.956 317.788 103.84 317.464 103.684 315.928L102.136 316.288C102.376 318.22 104.08 319.18 105.88 319.18C107.476 319.18 109.048 318.268 109.048 316.552C109.048 313.192 104.092 314.416 104.092 312.352C104.092 311.644 104.632 311.212 105.556 311.212C106.36 311.212 107.26 311.572 107.332 312.82L108.916 312.46C108.652 310.6 107.044 309.82 105.628 309.82C104.056 309.82 102.496 310.684 102.496 312.412Z" fill="#FF5B24"/>
<path d="M112.194 311.404L113.802 311.404C114.822 311.404 115.398 312.004 115.398 313.12C115.398 314.176 114.822 314.776 113.778 314.776L112.194 314.776L112.194 311.404ZM110.622 310L110.622 319L112.194 319L112.194 316.18L113.934 316.18C115.854 316.18 117.078 314.836 117.078 313.096C117.078 311.08 115.926 310 113.922 310L110.622 310Z" fill="#FF5B24"/>
<path d="M128.231 314.776C127.979 312.916 126.503 311.896 124.895 311.896C122.915 311.896 121.415 313.3 121.415 315.532C121.415 317.668 122.891 319.18 125.003 319.18C126.335 319.18 127.895 318.448 128.219 316.336L126.851 316.096C126.695 317.272 126.047 317.872 124.991 317.872C123.587 317.872 122.927 316.804 122.927 315.532C122.927 313.996 123.767 313.192 124.823 313.192C125.783 313.192 126.587 313.708 126.755 315.016L128.231 314.776Z" fill="#FF5B24"/>
<path d="M129.64 309.7L129.64 319L131.14 319L131.14 315.052C131.14 313.816 131.848 313.252 132.856 313.252C133.66 313.252 134.308 313.732 134.308 315.016L134.308 319L135.808 319L135.808 314.368C135.808 312.508 134.668 311.896 133.348 311.896C132.616 311.896 131.632 312.22 131.14 313.108L131.14 309.7L129.64 309.7Z" fill="#FF5B24"/>
<path d="M140.703 313.192C141.675 313.192 142.443 313.648 142.563 314.8L138.807 314.8C139.011 313.732 139.707 313.192 140.703 313.192ZM143.979 315.868L143.979 315.376C143.979 313.336 142.635 311.896 140.763 311.896C138.759 311.896 137.235 313.3 137.235 315.52C137.235 317.8 138.819 319.18 140.859 319.18C142.131 319.18 143.667 318.448 143.931 316.852L142.539 316.612C142.383 317.404 141.927 317.884 140.799 317.884C139.551 317.884 138.867 317.08 138.759 315.868L143.979 315.868Z" fill="#FF5B24"/>
<path d="M151.844 314.776C151.592 312.916 150.116 311.896 148.508 311.896C146.528 311.896 145.028 313.3 145.028 315.532C145.028 317.668 146.504 319.18 148.616 319.18C149.948 319.18 151.508 318.448 151.832 316.336L150.464 316.096C150.308 317.272 149.66 317.872 148.604 317.872C147.2 317.872 146.54 316.804 146.54 315.532C146.54 313.996 147.38 313.192 148.436 313.192C149.396 313.192 150.2 313.708 150.368 315.016L151.844 314.776Z" fill="#FF5B24"/>
<path d="M153.253 319L154.753 319L154.753 317.344L156.025 315.916L158.089 319L159.649 319L156.877 314.944L159.421 312.088L157.789 312.088L154.753 315.664L154.753 309.7L153.253 309.7L153.253 319Z" fill="#FF5B24"/>
<path d="M160.468 314.032C160.468 314.992 161.02 315.7 162.196 315.952L163.456 316.228C164.32 316.42 164.56 316.672 164.56 317.08C164.56 317.656 163.996 317.98 163.168 317.98C162.196 317.98 161.56 317.524 161.464 316.672L160.132 316.912C160.36 318.52 161.86 319.18 163.204 319.18C164.536 319.18 165.952 318.436 165.952 316.936C165.952 315.976 165.388 315.328 164.164 315.064L162.796 314.764C162.1 314.608 161.86 314.272 161.86 313.912C161.86 313.408 162.34 313.096 163.024 313.096C163.852 313.096 164.464 313.396 164.512 314.296L165.844 314.056C165.448 312.508 164.404 311.896 163.012 311.896C161.884 311.896 160.468 312.52 160.468 314.032Z" fill="#FF5B24"/>
<path d="M170.511 314.032C170.511 314.992 171.063 315.7 172.239 315.952L173.499 316.228C174.363 316.42 174.603 316.672 174.603 317.08C174.603 317.656 174.039 317.98 173.211 317.98C172.239 317.98 171.603 317.524 171.507 316.672L170.175 316.912C170.403 318.52 171.903 319.18 173.247 319.18C174.579 319.18 175.995 318.436 175.995 316.936C175.995 315.976 175.431 315.328 174.207 315.064L172.839 314.764C172.143 314.608 171.903 314.272 171.903 313.912C171.903 313.408 172.383 313.096 173.067 313.096C173.895 313.096 174.507 313.396 174.555 314.296L175.887 314.056C175.491 312.508 174.447 311.896 173.055 311.896C171.927 311.896 170.511 312.52 170.511 314.032Z" fill="#FF5B24"/>
<path d="M177.992 310.42L177.992 312.088L176.708 312.088L176.708 313.3L177.992 313.3L177.992 317.056C177.992 318.328 178.628 319.12 180.008 319.12C180.428 319.12 180.92 319.012 181.28 318.904L181.04 317.692C180.764 317.764 180.596 317.8 180.32 317.8C179.708 317.8 179.492 317.524 179.492 316.984L179.492 313.3L181.22 313.3L181.22 312.088L179.492 312.088L179.492 310.18L177.992 310.42Z" fill="#FF5B24"/>
<path d="M185.342 319.18C186.578 319.18 187.334 318.424 187.682 317.572L187.682 319L189.182 319L189.182 312.088L187.682 312.088L187.682 313.444C187.19 312.352 186.434 311.896 185.354 311.896C183.902 311.896 182.306 313.06 182.306 315.472C182.306 318.004 183.914 319.18 185.342 319.18ZM185.762 313.192C186.77 313.192 187.682 313.96 187.682 315.556C187.682 317.2 186.77 317.872 185.75 317.872C184.802 317.872 183.818 317.164 183.818 315.556C183.818 313.924 184.814 313.192 185.762 313.192Z" fill="#FF5B24"/>
<path d="M191.632 310.42L191.632 312.088L190.348 312.088L190.348 313.3L191.632 313.3L191.632 317.056C191.632 318.328 192.268 319.12 193.648 319.12C194.068 319.12 194.56 319.012 194.92 318.904L194.68 317.692C194.404 317.764 194.236 317.8 193.96 317.8C193.348 317.8 193.132 317.524 193.132 316.984L193.132 313.3L194.86 313.3L194.86 312.088L193.132 312.088L193.132 310.18L191.632 310.42Z" fill="#FF5B24"/>
<path d="M199.367 313.192C200.339 313.192 201.107 313.648 201.227 314.8L197.471 314.8C197.675 313.732 198.371 313.192 199.367 313.192ZM202.643 315.868L202.643 315.376C202.643 313.336 201.299 311.896 199.427 311.896C197.423 311.896 195.899 313.3 195.899 315.52C195.899 317.8 197.483 319.18 199.523 319.18C200.795 319.18 202.331 318.448 202.595 316.852L201.203 316.612C201.047 317.404 200.591 317.884 199.463 317.884C198.215 317.884 197.531 317.08 197.423 315.868L202.643 315.868Z" fill="#FF5B24"/>
<path d="M210.346 311.896C208.474 311.896 206.926 313.264 206.926 315.532C206.926 317.8 208.474 319.18 210.346 319.18C212.218 319.18 213.766 317.8 213.766 315.532C213.766 313.264 212.218 311.896 210.346 311.896ZM210.346 313.192C211.378 313.192 212.254 313.948 212.254 315.532C212.254 317.116 211.378 317.884 210.346 317.884C209.314 317.884 208.438 317.116 208.438 315.532C208.438 313.948 209.314 313.192 210.346 313.192Z" fill="#FF5B24"/>
<path d="M215.653 319L217.153 319L217.153 313.3L218.869 313.3L218.869 312.088L217.153 312.088L217.153 311.812C217.153 311.104 217.489 310.732 218.101 310.732C218.425 310.732 218.701 310.78 218.989 310.864L219.193 309.7C218.857 309.58 218.449 309.472 217.945 309.472C216.565 309.472 215.653 310.36 215.653 311.824L215.653 312.088L214.705 312.088L214.705 313.3L215.653 313.3L215.653 319Z" fill="#FF5B24"/>
<path d="M98.96 332.088L98.9599 339L100.46 339L100.46 332.088L98.96 332.088ZM99.704 329.1C99.2 329.1 98.804 329.508 98.804 330C98.804 330.492 99.2 330.9 99.704 330.9C100.208 330.9 100.604 330.492 100.604 330C100.604 329.508 100.208 329.1 99.704 329.1Z" fill="#FF5B24"/>
<path d="M105.586 333.252C106.402 333.252 107.05 333.732 107.05 335.016L107.05 339L108.55 339L108.55 334.368C108.55 332.508 107.374 331.896 106.138 331.896C105.322 331.896 104.374 332.232 103.882 333.108L103.882 332.088L102.382 332.088L102.382 339L103.882 339L103.882 335.052C103.882 333.816 104.59 333.252 105.586 333.252Z" fill="#FF5B24"/>
<path d="M116.529 332.088L114.861 332.088L113.085 337.308L111.297 332.088L109.629 332.088L112.389 339L113.769 339L116.529 332.088Z" fill="#FF5B24"/>
<path d="M120.663 331.896C118.791 331.896 117.243 333.264 117.243 335.532C117.243 337.8 118.791 339.18 120.663 339.18C122.535 339.18 124.083 337.8 124.083 335.532C124.083 333.264 122.535 331.896 120.663 331.896ZM120.663 333.192C121.695 333.192 122.571 333.948 122.571 335.532C122.571 337.116 121.695 337.884 120.663 337.884C119.631 337.884 118.755 337.116 118.755 335.532C118.755 333.948 119.631 333.192 120.663 333.192Z" fill="#FF5B24"/>
<path d="M125.573 332.088L125.573 339L127.073 339L127.073 332.088L125.573 332.088ZM126.317 329.1C125.813 329.1 125.417 329.508 125.417 330C125.417 330.492 125.813 330.9 126.317 330.9C126.821 330.9 127.217 330.492 127.217 330C127.217 329.508 126.821 329.1 126.317 329.1Z" fill="#FF5B24"/>
<path d="M135.379 334.776C135.127 332.916 133.651 331.896 132.043 331.896C130.063 331.896 128.563 333.3 128.563 335.532C128.563 337.668 130.039 339.18 132.151 339.18C133.483 339.18 135.043 338.448 135.367 336.336L133.999 336.096C133.843 337.272 133.195 337.872 132.139 337.872C130.735 337.872 130.075 336.804 130.075 335.532C130.075 333.996 130.915 333.192 131.971 333.192C132.931 333.192 133.735 333.708 133.903 335.016L135.379 334.776Z" fill="#FF5B24"/>
<path d="M139.824 333.192C140.796 333.192 141.564 333.648 141.684 334.8L137.928 334.8C138.132 333.732 138.828 333.192 139.824 333.192ZM143.1 335.868L143.1 335.376C143.1 333.336 141.756 331.896 139.884 331.896C137.88 331.896 136.356 333.3 136.356 335.52C136.356 337.8 137.94 339.18 139.98 339.18C141.252 339.18 142.788 338.448 143.052 336.852L141.66 336.612C141.504 337.404 141.048 337.884 139.92 337.884C138.672 337.884 137.988 337.08 137.88 335.868L143.1 335.868Z" fill="#FF5B24"/>
<path d="M66.2669 552.242C66.2669 566.464 54.5067 577.994 40 577.994C25.4933 577.994 13.7331 566.464 13.7331 552.242C13.7332 538.02 25.4933 526.49 40 526.49C54.5067 526.49 66.2669 538.02 66.2669 552.242Z" fill="#EEEDF3"/>
<path d="M21.5112 541.22C20.7174 539.869 19.9193 538.52 19.1298 537.167C18.1045 535.406 19.1154 533.261 21.146 532.883C21.3214 532.851 21.4997 532.838 21.678 532.838C23.8064 532.84 25.9332 532.838 28.0616 532.838C30.3322 532.838 31.7458 535.196 30.627 537.134C29.862 538.462 29.0739 539.778 28.296 541.099C28.2729 541.137 28.2542 541.179 28.2341 541.219C26.4064 541.22 24.5786 541.221 22.7523 541.223C22.3381 541.224 21.9254 541.221 21.5112 541.22Z" fill="#FF985F"/>
<path d="M21.5127 541.223C21.9268 541.224 22.3395 541.228 22.7537 541.228C24.5815 541.227 26.4092 541.225 28.2356 541.224C28.3448 541.225 28.4541 541.228 28.5634 541.228C29.0667 541.231 29.4493 541.591 29.4536 542.069C29.4593 542.534 29.0811 542.906 28.5893 542.92C28.5548 542.922 28.5203 542.923 28.4858 542.926C27.2318 542.924 25.9778 542.922 24.7238 542.92C24.442 542.92 24.1601 542.927 23.8783 542.917C23.7474 542.913 23.7129 542.953 23.7143 543.079C23.7201 543.7 23.7172 544.32 23.7172 544.94C23.7172 546.486 23.7186 548.031 23.7158 549.576C23.7143 550.256 23.0327 550.674 22.4402 550.36C22.1152 550.188 21.9815 549.903 21.9815 549.548C21.9829 547.585 21.9815 545.623 21.9815 543.66C21.9815 543.463 21.9771 543.266 21.9829 543.068C21.9858 542.964 21.9599 542.913 21.8405 542.919C21.645 542.929 21.4494 542.924 21.2538 542.926C20.7045 542.905 20.3608 542.637 20.2989 542.184C20.2314 541.685 20.6182 541.241 21.1316 541.23C21.2596 541.225 21.3861 541.224 21.5127 541.223Z" fill="#FD5B24"/>
<path d="M38.6758 555.524C38.1236 552.576 36.7302 550.062 34.4926 548.024C33.0905 546.746 31.5978 545.568 30.1525 544.338C29.5974 543.866 29.0409 543.394 28.4858 542.922C27.2318 542.92 25.9778 542.919 24.7239 542.915C24.442 542.915 24.1601 542.922 23.8783 542.912C23.7489 542.907 23.7129 542.947 23.7143 543.074C23.7201 543.694 23.7172 544.314 23.7172 544.935C23.7172 546.48 23.7187 548.025 23.7158 549.57C23.7143 550.25 23.0327 550.669 22.4402 550.354C22.1152 550.182 21.9815 549.899 21.9815 549.542C21.9815 547.58 21.9815 545.617 21.9815 543.655C21.9815 543.457 21.9772 543.26 21.9829 543.063C21.9858 542.958 21.9599 542.907 21.8406 542.913C21.645 542.923 21.4494 542.919 21.2538 542.92C21.2222 542.953 21.1934 542.986 21.1589 543.016C19.7252 544.224 18.29 545.431 16.8577 546.642C16.0366 547.339 15.1881 548.005 14.4576 548.801C12.3997 551.042 11.2191 553.666 10.8984 556.661C10.7402 558.134 10.8337 559.597 11.1673 561.044C11.7886 563.739 13.0986 566.062 15.1809 567.93C18.1117 570.558 21.5947 571.731 25.5522 571.58C27.6618 571.499 29.6578 570.983 31.5287 570.025C34.1575 568.678 36.1621 566.717 37.4736 564.106C38.8412 561.382 39.2338 558.51 38.6758 555.524Z" fill="#FF985F"/>
<path d="M21.7607 559.972L22.7609 559.972L22.7609 558.978L23.3253 558.312L24.4541 559.972L25.5686 559.972L23.9254 557.612L25.3471 555.938L24.2183 555.938L22.7609 557.801L22.7609 554.544L21.7607 554.544L21.7607 559.972Z" fill="#FFF4EC"/>
<path d="M27.898 556.925C28.0409 556.925 28.2123 556.96 28.3695 557.016L28.4338 555.882C28.3409 555.847 28.2266 555.826 28.1195 555.826C27.7265 555.826 27.2407 556.022 26.9192 556.792L26.9192 555.938L25.9119 555.938L25.9119 559.972L26.9192 559.972L26.9192 557.997C26.9192 557.135 27.4193 556.925 27.898 556.925Z" fill="#FFF4EC"/>
<path fill-rule="evenodd" clip-rule="evenodd" d="M40 577.994C54.5068 577.994 66.2669 566.465 66.2669 552.242C66.2669 551.583 66.2416 550.929 66.1919 550.281L31.4835 550.281C30.2665 550.281 29.28 551.248 29.28 552.442L29.28 575.759C32.5535 577.195 36.1816 577.994 40 577.994Z" fill="#C8C5D6"/>
<path fill-rule="evenodd" clip-rule="evenodd" d="M66.0364 555.669C66.1884 554.548 66.2669 553.404 66.2669 552.242C66.2669 551.583 66.2416 550.929 66.1919 550.281L31.5625 550.281C30.3017 550.281 29.28 551.283 29.28 552.519L29.28 555.669L66.0364 555.669Z" fill="#48367D"/>
<path d="M34.9901 552.996C34.9901 553.614 34.4796 554.115 33.8494 554.115C33.2192 554.115 32.708 553.614 32.708 552.996C32.708 552.379 33.2192 551.878 33.8494 551.878C34.4796 551.878 34.9901 552.379 34.9901 552.996Z" fill="white"/>
<path d="M38.7349 552.975C38.7349 553.593 38.2241 554.094 37.5943 554.094C36.9637 554.094 36.4529 553.593 36.4529 552.975C36.4529 552.358 36.9637 551.857 37.5943 551.857C38.2241 551.857 38.7349 552.358 38.7349 552.975Z" fill="white"/>
<path d="M42.5394 552.975C42.5394 553.593 42.0286 554.094 41.3987 554.094C40.7685 554.094 40.2573 553.593 40.2573 552.975C40.2573 552.358 40.7685 551.857 41.3987 551.857C42.0286 551.857 42.5394 552.358 42.5394 552.975Z" fill="white"/>
<path d="M66.2667 248.027C66.2667 262.533 54.5068 274.293 39.9998 274.293C25.4931 274.293 13.7329 262.533 13.7329 248.027C13.7329 233.52 25.4931 221.76 39.9998 221.76C54.5068 221.76 66.2667 233.52 66.2667 248.027Z" fill="#EEEDF3"/>
<path d="M52.5801 261.765L40.2497 261.765C38.6811 261.765 37.4097 260.493 37.4097 258.925L37.4097 233.027C37.4097 231.458 38.6811 230.187 40.2497 230.187L52.5801 230.187C54.1483 230.187 55.4201 231.458 55.4201 233.027L55.4201 258.925C55.4201 260.493 54.1483 261.765 52.5801 261.765Z" fill="#FF5B23"/>
<path d="M55.4201 257.612L37.4097 257.612L37.4097 234.368L55.4201 234.368L55.4201 257.612Z" fill="#FF975E"/>
<path d="M45.6616 249.61L16.9849 262.52L22.6096 274.279L35.5793 262.813C35.6479 262.749 45.7467 249.571 45.6616 249.61Z" fill="#48367D"/>
<path d="M46.1251 249.251L24.4753 265.455L36.7521 269.682C37.3386 269.883 37.9882 269.684 38.3606 269.188L46.3578 249.575C46.5679 249.313 46.2577 249.165 46.1251 249.251Z" fill="#C8C5D6"/>
<path d="M24.4751 265.456L22.6094 274.28L31.6979 267.942L24.4751 265.456Z" fill="white"/>
<path d="M46.1602 249.238L8.673 258.461C7.99868 258.659 7.98546 259.61 8.65442 259.826L16.9854 262.522L46.275 249.414C46.3461 249.381 46.3682 249.2 46.1602 249.238Z" fill="#C8C5D6"/>
<path d="M124.214 399.947C124.214 414.454 112.454 426.214 97.9468 426.214C83.4401 426.214 71.6799 414.454 71.6799 399.947C71.6799 385.44 83.4401 373.68 97.9468 373.68C112.454 373.68 124.214 385.44 124.214 399.947Z" fill="#EEEDF3"/>
<path fill-rule="evenodd" clip-rule="evenodd" d="M99.7588 426.182C99.7583 419.111 99.7666 412.439 99.7967 410.677C99.9437 402.083 108.418 403.914 108.418 403.914L118.696 410.677L118.693 416.122C114.228 421.843 107.447 425.666 99.7588 426.182Z" fill="#FFD3BB"/>
<path d="M116.532 416.191L101.341 416.124C99.8784 416.118 98.6978 414.927 98.7042 413.465L98.8378 382.84C98.8442 381.378 100.035 380.198 101.497 380.204L116.689 380.27C118.151 380.277 119.332 381.467 119.325 382.93L119.192 413.554C119.185 415.017 117.994 416.197 116.532 416.191Z" fill="#FF5A23"/>
<path d="M119.236 411.548L98.7491 411.458L98.8645 385.018L119.352 385.107L119.236 411.548Z" fill="#FF985F"/>
<path fill-rule="evenodd" clip-rule="evenodd" d="M110.014 394.604C109.636 394.481 109.429 394.075 109.552 393.697L110.179 391.766C110.302 391.388 110.708 391.181 111.086 391.304C111.465 391.427 111.671 391.833 111.549 392.211L110.921 394.142C110.798 394.52 110.392 394.727 110.014 394.604Z" fill="#FFF4EC"/>
<path fill-rule="evenodd" clip-rule="evenodd" d="M107.798 396.115C107.564 396.437 107.114 396.508 106.792 396.275L105.15 395.081C104.828 394.848 104.757 394.397 104.991 394.076C105.224 393.754 105.675 393.683 105.996 393.916L107.638 395.11C107.96 395.343 108.031 395.794 107.798 396.115Z" fill="#FFF4EC"/>
<path fill-rule="evenodd" clip-rule="evenodd" d="M111.05 398.427C110.769 398.708 110.769 399.164 111.05 399.445L112.485 400.881C112.767 401.162 113.223 401.162 113.504 400.881C113.785 400.6 113.785 400.144 113.504 399.862L112.068 398.427C111.787 398.146 111.331 398.146 111.05 398.427Z" fill="#FFF4EC"/>
<path fill-rule="evenodd" clip-rule="evenodd" d="M108.658 398.073C108.424 397.752 107.974 397.68 107.652 397.914L106.01 399.107C105.688 399.341 105.617 399.791 105.851 400.113C106.085 400.435 106.535 400.506 106.857 400.272L108.499 399.079C108.82 398.845 108.892 398.395 108.658 398.073Z" fill="#FFF4EC"/>
<path fill-rule="evenodd" clip-rule="evenodd" d="M111.928 396.795C111.928 397.192 112.25 397.515 112.648 397.515L114.678 397.515C115.075 397.515 115.398 397.192 115.398 396.795C115.398 396.397 115.075 396.075 114.678 396.075L112.648 396.075C112.25 396.075 111.928 396.397 111.928 396.795Z" fill="#FFF4EC"/>
<path d="M101.782 401.838L96.4861 401.079C95.0636 400.876 94.0758 399.558 94.2793 398.136C94.4828 396.713 95.8013 395.725 97.2232 395.929L102.519 396.687C103.941 396.89 104.929 398.208 104.726 399.631C104.522 401.053 103.204 402.041 101.782 401.838Z" fill="#FFD3BB"/>
<path d="M101.153 406.692L95.8569 405.933C94.4345 405.73 93.4467 404.412 93.6502 402.989C93.8537 401.567 95.1717 400.579 96.5941 400.783L101.89 401.541C103.312 401.744 104.3 403.062 104.096 404.485C103.893 405.907 102.575 406.895 101.153 406.692Z" fill="#FFD3BB"/>
<path d="M100.986 411.549L95.6897 410.791C94.2678 410.587 93.2792 409.269 93.483 407.847C93.6867 406.425 95.0047 405.437 96.4269 405.64L101.723 406.399C103.145 406.602 104.133 407.92 103.93 409.342C103.726 410.765 102.408 411.753 100.986 411.549Z" fill="#FFD3BB"/>
<path fill-rule="evenodd" clip-rule="evenodd" d="M122.37 409.632C121.409 412.053 120.099 414.296 118.502 416.301L114.651 418.465L112.896 420.044C112.713 419.761 112.554 419.534 112.416 419.337C111.84 418.513 111.641 418.229 111.648 416.715C111.67 411.58 115.852 407.434 120.987 407.457L122.37 409.632Z" fill="#FFD3BB"/>
<path fill-rule="evenodd" clip-rule="evenodd" d="M114.743 420.112C113.973 419.548 113.666 418.524 114.107 416.947C115.147 413.227 116.427 411.827 117.947 410.907C119.467 409.987 119.227 407.547 119.227 407.547C119.227 407.547 117.427 405.147 117.467 402.667C117.473 402.306 117.475 401.941 117.477 401.577C117.487 399.443 117.498 397.358 118.307 396.427C119.107 395.507 120.347 394.867 121.667 395.227C122.987 395.587 123.68 396.865 123.587 397.947C123.549 398.389 123.475 398.807 123.401 399.228C123.24 400.143 123.075 401.075 123.267 402.307C123.402 403.172 123.622 403.707 123.888 404.211C122.836 410.574 119.497 416.165 114.743 420.112Z" fill="#FFD3BB"/>
<path d="M66.2137 475.947C66.2137 490.454 54.4535 502.214 39.9468 502.214C25.4401 502.214 13.6799 490.454 13.6799 475.947C13.6799 461.441 25.4401 449.68 39.9468 449.68C54.4535 449.68 66.2137 461.441 66.2137 475.947Z" fill="#EEEDF3"/>
<path fill-rule="evenodd" clip-rule="evenodd" d="M42.9643 502.042C42.9593 492.477 42.9639 481.93 43.005 479.532C43.1689 469.946 52.6214 471.988 52.6214 471.988L64.0862 479.532L64.0823 486.328C60.4373 494.791 52.472 500.954 42.9643 502.042Z" fill="#FFD3BB"/>
<path d="M60.6754 482.296L44.0459 485.554C42.4453 485.867 40.8931 484.823 40.5795 483.223L34.0133 449.699C33.6997 448.098 34.7436 446.546 36.3442 446.233L52.9736 442.976C54.5745 442.662 56.1264 443.706 56.44 445.306L63.0062 478.83C63.3198 480.431 62.2763 481.983 60.6754 482.296Z" fill="#FF5A23"/>
<path d="M62.6154 476.623L40.1887 481.016L34.5195 452.073L56.9462 447.68L62.6154 476.623Z" fill="#FF985F"/>
<path d="M43.2561 469.883L40.9975 458.338C40.9813 458.255 40.9932 458.17 41.0309 458.102L42.9497 454.613C42.9869 454.545 43.0469 454.499 43.1163 454.486L51.3845 452.866C51.7973 452.786 52.2099 453.12 52.3065 453.614L55.0406 467.576C55.1373 468.069 54.8815 468.535 54.4687 468.616L44.1781 470.631C43.7656 470.712 43.3525 470.377 43.2561 469.883Z" fill="#EEEDF3"/>
<path d="M41.0833 457.519L42.5269 454.894C42.6369 454.694 42.81 454.559 43.0095 454.507L43.5158 457.092C43.5802 457.421 43.4095 457.732 43.1346 457.785L40.9735 458.209C40.9365 457.965 40.9732 457.719 41.0833 457.519Z" fill="#C8C5D6"/>
<path fill-rule="evenodd" clip-rule="evenodd" d="M51.1718 458.325C51.3902 458.426 51.4855 458.685 51.3846 458.903L48.4625 465.229C48.4139 465.335 48.3254 465.416 48.2165 465.456C48.1076 465.496 47.9874 465.49 47.8824 465.441L45.2361 464.203C45.0183 464.101 44.9243 463.841 45.0263 463.623C45.1283 463.406 45.3876 463.312 45.6055 463.414L47.8552 464.467L50.5937 458.538C50.6946 458.32 50.9534 458.224 51.1718 458.325Z" fill="#48367D"/>
<path d="M40.2137 471.167L34.2644 471.63C32.6664 471.754 31.2706 470.56 31.1461 468.962C31.0217 467.364 32.2168 465.968 33.8142 465.844L39.7638 465.381C41.3614 465.256 42.7573 466.451 42.8817 468.048C43.0062 469.647 41.8117 471.043 40.2137 471.167Z" fill="#FFD3BB"/>
<path d="M40.7094 476.604L34.7601 477.067C33.1621 477.191 31.7662 475.997 31.6418 474.399C31.5173 472.801 32.7119 471.405 34.3098 471.281L40.2591 470.818C41.857 470.693 43.253 471.888 43.3774 473.486C43.5018 475.084 42.3073 476.48 40.7094 476.604Z" fill="#FFD3BB"/>
<path d="M41.7092 481.933L35.7596 482.396C34.1622 482.52 32.7654 481.325 32.6413 479.728C32.5172 478.13 33.7117 476.734 35.3094 476.609L41.259 476.147C42.8566 476.022 44.2528 477.217 44.3772 478.814C44.5017 480.412 43.3069 481.809 41.7092 481.933Z" fill="#FFD3BB"/>
<path fill-rule="evenodd" clip-rule="evenodd" d="M62.7423 489.006C62.3637 489.154 61.9532 489.296 61.5104 489.427C58.3425 490.364 53.613 486.259 53.613 486.259C53.613 486.259 53.7469 484.564 53.97 482.735C54.1931 480.905 55.3531 479.254 55.9332 478.719C53.613 478.228 51.9622 477.425 50.7575 475.819C49.5076 474.152 48.6158 472.696 48.3927 470.108C48.1696 467.52 49.1066 466.583 50.2221 466.047C51.3375 465.512 52.3191 465.78 53.3899 466.315C54.2232 466.732 54.7157 468.327 54.8177 469.483C54.9516 471 55.2939 471.371 55.9778 472.026C56.5043 472.531 57.6287 472.517 58.3872 472.428C59.1457 472.339 59.8339 472.379 61.1535 472.696C62.2689 472.963 63.3844 473.722 64.3214 474.971C65.3415 476.331 65.6821 477.982 65.9052 479.985C65.4051 483.226 64.3128 486.271 62.7423 489.006Z" fill="#FFD3BB"/>
<path d="M45 95.5C45 97.9853 42.9853 100 40.5 100C38.0147 100 36 97.9853 36 95.5C36 93.0147 38.0147 91 40.5 91C42.9853 91 45 93.0147 45 95.5Z" fill="white" stroke="#FF5B24" stroke-width="2"/>
<path fill-rule="evenodd" clip-rule="evenodd" d="M40.5 92C38.567 92 37 93.567 37 95.5C37 97.433 38.567 99 40.5 99C42.433 99 44 97.433 44 95.5C44 93.567 42.433 92 40.5 92ZM35 95.5C35 92.4624 37.4624 90 40.5 90C43.5376 90 46 92.4624 46 95.5C46 98.5376 43.5376 101 40.5 101C37.4624 101 35 98.5376 35 95.5Z" fill="#FF5B24"/>
<path d="M45 19.5C45 21.9853 42.9853 24 40.5 24C38.0147 24 36 21.9853 36 19.5C36 17.0147 38.0147 15 40.5 15C42.9853 15 45 17.0147 45 19.5Z" fill="white" stroke="#FF5B24" stroke-width="2"/>
<path fill-rule="evenodd" clip-rule="evenodd" d="M40.5 16C38.567 16 37 17.567 37 19.5C37 21.433 38.567 23 40.5 23C42.433 23 44 21.433 44 19.5C44 17.567 42.433 16 40.5 16ZM35 19.5C35 16.4624 37.4624 14 40.5 14C43.5376 14 46 16.4624 46 19.5C46 22.5376 43.5376 25 40.5 25C37.4624 25 35 22.5376 35 19.5Z" fill="#FF5B24"/>
<path d="M45 171.5C45 173.985 42.9853 176 40.5 176C38.0147 176 36 173.985 36 171.5C36 169.015 38.0147 167 40.5 167C42.9853 167 45 169.015 45 171.5Z" fill="white" stroke="#FF5B24" stroke-width="2"/>
<path fill-rule="evenodd" clip-rule="evenodd" d="M40.5 168C38.567 168 37 169.567 37 171.5C37 173.433 38.567 175 40.5 175C42.433 175 44 173.433 44 171.5C44 169.567 42.433 168 40.5 168ZM35 171.5C35 168.462 37.4624 166 40.5 166C43.5376 166 46 168.462 46 171.5C46 174.538 43.5376 177 40.5 177C37.4624 177 35 174.538 35 171.5Z" fill="#FF5B24"/>
<path d="M45 323.5C45 325.985 42.9853 328 40.5 328C38.0147 328 36 325.985 36 323.5C36 321.015 38.0147 319 40.5 319C42.9853 319 45 321.015 45 323.5Z" fill="white" stroke="#FF5B24" stroke-width="2"/>
<path fill-rule="evenodd" clip-rule="evenodd" d="M40.5 320C38.567 320 37 321.567 37 323.5C37 325.433 38.567 327 40.5 327C42.433 327 44 325.433 44 323.5C44 321.567 42.433 320 40.5 320ZM35 323.5C35 320.462 37.4624 318 40.5 318C43.5376 318 46 320.462 46 323.5C46 326.538 43.5376 329 40.5 329C37.4624 329 35 326.538 35 323.5Z" fill="#FF5B24"/>
</svg>
