<svg width="320" height="687" viewBox="0 0 320 687" fill="none" xmlns="http://www.w3.org/2000/svg">
<rect width="320" height="687" fill="white"/>
<line x1="78.5" y1="43" x2="78.5" y2="556" stroke="#FF5B24"/>
<circle cx="78.5721" cy="156.572" r="3.07208" fill="white" stroke="#FF5B24"/>
<circle cx="78.5721" cy="270.572" r="3.07208" fill="white" stroke="#FF5B24"/>
<circle cx="78.5" cy="100.5" r="3" fill="white" stroke="#FF5B24"/>
<path d="M81.22 42.5C81.22 44.1763 79.9205 45.5 78.36 45.5C76.7995 45.5 75.5 44.1763 75.5 42.5C75.5 40.8237 76.7995 39.5 78.36 39.5C79.9205 39.5 81.22 40.8237 81.22 42.5Z" fill="white" stroke="#FF5B24"/>
<path d="M129.704 210L129.704 216L130.752 216L130.752 210L129.704 210ZM131.997 211.608C131.997 213.92 135.317 213.16 135.317 214.432C135.317 214.888 134.965 215.192 134.285 215.192C133.637 215.192 132.893 214.976 132.789 213.952L131.757 214.192C131.917 215.48 133.053 216.12 134.253 216.12C135.317 216.12 136.365 215.512 136.365 214.368C136.365 212.128 133.061 212.944 133.061 211.568C133.061 211.096 133.421 210.808 134.037 210.808C134.573 210.808 135.173 211.048 135.221 211.88L136.277 211.64C136.101 210.4 135.029 209.88 134.085 209.88C133.037 209.88 131.997 210.456 131.997 211.608ZM138.463 210.936L139.535 210.936C140.215 210.936 140.599 211.336 140.599 212.08C140.599 212.784 140.215 213.184 139.519 213.184L138.463 213.184L138.463 210.936ZM137.415 210L137.415 216L138.463 216L138.463 214.12L139.623 214.12C140.903 214.12 141.719 213.224 141.719 212.064C141.719 210.72 140.951 210 139.615 210L137.415 210ZM144.802 212.688C144.802 213.328 145.17 213.8 145.954 213.968L146.794 214.152C147.37 214.28 147.53 214.448 147.53 214.72C147.53 215.104 147.154 215.32 146.602 215.32C145.954 215.32 145.53 215.016 145.466 214.448L144.578 214.608C144.73 215.68 145.73 216.12 146.626 216.12C147.514 216.12 148.458 215.624 148.458 214.624C148.458 213.984 148.082 213.552 147.266 213.376L146.354 213.176C145.89 213.072 145.73 212.848 145.73 212.608C145.73 212.272 146.05 212.064 146.506 212.064C147.058 212.064 147.466 212.264 147.498 212.864L148.386 212.704C148.122 211.672 147.426 211.264 146.498 211.264C145.746 211.264 144.802 211.68 144.802 212.688ZM151.461 212.128C152.109 212.128 152.621 212.432 152.701 213.2L150.197 213.2C150.333 212.488 150.797 212.128 151.461 212.128ZM153.645 213.912L153.645 213.584C153.645 212.224 152.749 211.264 151.501 211.264C150.165 211.264 149.149 212.2 149.149 213.68C149.149 215.2 150.205 216.12 151.565 216.12C152.413 216.12 153.437 215.632 153.613 214.568L152.685 214.408C152.581 214.936 152.277 215.256 151.525 215.256C150.693 215.256 150.237 214.72 150.165 213.912L153.645 213.912ZM156.768 212.168C157.312 212.168 157.744 212.488 157.744 213.344L157.744 216L158.744 216L158.744 212.912C158.744 211.672 157.96 211.264 157.136 211.264C156.592 211.264 155.96 211.488 155.632 212.072L155.632 211.392L154.632 211.392L154.632 216L155.632 216L155.632 213.368C155.632 212.544 156.104 212.168 156.768 212.168ZM164.312 209.8L163.312 209.8L163.312 212.296C162.984 211.568 162.488 211.264 161.864 211.264C160.792 211.264 159.728 212.04 159.728 213.648C159.728 215.336 160.8 216.12 161.736 216.12C162.576 216.12 163.08 215.68 163.312 215.128L163.312 216L164.312 216L164.312 209.8ZM162.032 212.128C162.704 212.128 163.312 212.664 163.312 213.704C163.312 214.776 162.704 215.248 162.024 215.248C161.392 215.248 160.736 214.752 160.736 213.704C160.736 212.64 161.4 212.128 162.032 212.128ZM165.497 212.688C165.497 213.328 165.865 213.8 166.649 213.968L167.489 214.152C168.065 214.28 168.225 214.448 168.225 214.72C168.225 215.104 167.849 215.32 167.297 215.32C166.649 215.32 166.225 215.016 166.161 214.448L165.273 214.608C165.425 215.68 166.425 216.12 167.321 216.12C168.209 216.12 169.153 215.624 169.153 214.624C169.153 213.984 168.777 213.552 167.961 213.376L167.049 213.176C166.585 213.072 166.425 212.848 166.425 212.608C166.425 212.272 166.745 212.064 167.201 212.064C167.753 212.064 168.161 212.264 168.193 212.864L169.081 212.704C168.817 211.672 168.121 211.264 167.193 211.264C166.441 211.264 165.497 211.68 165.497 212.688ZM172.288 211.392L172.288 216L173.288 216L173.288 211.392L172.288 211.392ZM172.784 209.4C172.448 209.4 172.184 209.672 172.184 210C172.184 210.328 172.448 210.6 172.784 210.6C173.12 210.6 173.384 210.328 173.384 210C173.384 209.672 173.12 209.4 172.784 209.4ZM176.706 212.168C177.25 212.168 177.682 212.488 177.682 213.344L177.682 216L178.682 216L178.682 212.912C178.682 211.672 177.898 211.264 177.074 211.264C176.53 211.264 175.898 211.488 175.57 212.072L175.57 211.392L174.57 211.392L174.57 216L175.57 216L175.57 213.368C175.57 212.544 176.042 212.168 176.706 212.168ZM184.001 211.392L182.889 211.392L181.705 214.872L180.513 211.392L179.401 211.392L181.241 216L182.161 216L184.001 211.392ZM186.757 211.264C185.509 211.264 184.477 212.176 184.477 213.688C184.477 215.2 185.509 216.12 186.757 216.12C188.005 216.12 189.037 215.2 189.037 213.688C189.037 212.176 188.005 211.264 186.757 211.264ZM186.757 212.128C187.445 212.128 188.029 212.632 188.029 213.688C188.029 214.744 187.445 215.256 186.757 215.256C186.069 215.256 185.485 214.744 185.485 213.688C185.485 212.632 186.069 212.128 186.757 212.128ZM190.031 211.392L190.031 216L191.031 216L191.031 211.392L190.031 211.392ZM190.527 209.4C190.191 209.4 189.927 209.672 189.927 210C189.927 210.328 190.191 210.6 190.527 210.6C190.863 210.6 191.127 210.328 191.127 210C191.127 209.672 190.863 209.4 190.527 209.4ZM196.568 213.184C196.4 211.944 195.416 211.264 194.344 211.264C193.024 211.264 192.024 212.2 192.024 213.688C192.024 215.112 193.008 216.12 194.416 216.12C195.304 216.12 196.344 215.632 196.56 214.224L195.648 214.064C195.544 214.848 195.112 215.248 194.408 215.248C193.472 215.248 193.032 214.536 193.032 213.688C193.032 212.664 193.592 212.128 194.296 212.128C194.936 212.128 195.472 212.472 195.584 213.344L196.568 213.184ZM199.531 212.128C200.179 212.128 200.691 212.432 200.771 213.2L198.267 213.2C198.403 212.488 198.867 212.128 199.531 212.128ZM201.715 213.912L201.715 213.584C201.715 212.224 200.819 211.264 199.571 211.264C198.235 211.264 197.219 212.2 197.219 213.68C197.219 215.2 198.275 216.12 199.635 216.12C200.483 216.12 201.507 215.632 201.683 214.568L200.755 214.408C200.651 214.936 200.347 215.256 199.595 215.256C198.763 215.256 198.307 214.72 198.235 213.912L201.715 213.912Z" fill="#FF5B24"/>
<path d="M136.288 479.144C136.048 477.672 134.784 476.88 133.528 476.88C131.816 476.88 130.4 478.12 130.4 479.96C130.4 481.928 131.832 483.12 133.552 483.12C134.712 483.12 136.16 482.344 136.336 480.696L135.256 480.536C135.168 481.728 134.352 482.096 133.552 482.096C132.416 482.096 131.528 481.448 131.528 479.96C131.528 478.608 132.416 477.904 133.488 477.904C134.224 477.904 135.032 478.208 135.208 479.304L136.288 479.144ZM141.462 483L141.462 478.392L140.462 478.392L140.462 481.072C140.462 481.856 139.942 482.216 139.27 482.216C138.654 482.216 138.35 481.944 138.35 481.232L138.35 478.392L137.35 478.392L137.35 481.608C137.35 482.672 138.118 483.12 138.886 483.12C139.462 483.12 140.102 482.856 140.462 482.224L140.462 483L141.462 483ZM142.63 479.688C142.63 480.328 142.998 480.8 143.782 480.968L144.622 481.152C145.198 481.28 145.358 481.448 145.358 481.72C145.358 482.104 144.982 482.32 144.43 482.32C143.782 482.32 143.358 482.016 143.294 481.448L142.406 481.608C142.558 482.68 143.558 483.12 144.454 483.12C145.342 483.12 146.286 482.624 146.286 481.624C146.286 480.984 145.91 480.552 145.094 480.376L144.182 480.176C143.718 480.072 143.558 479.848 143.558 479.608C143.558 479.272 143.878 479.064 144.334 479.064C144.886 479.064 145.294 479.264 145.326 479.864L146.214 479.704C145.95 478.672 145.254 478.264 144.326 478.264C143.574 478.264 142.63 478.68 142.63 479.688ZM147.617 477.28L147.617 478.392L146.761 478.392L146.761 479.2L147.617 479.2L147.617 481.704C147.617 482.552 148.041 483.08 148.961 483.08C149.241 483.08 149.569 483.008 149.809 482.936L149.649 482.128C149.465 482.176 149.353 482.2 149.169 482.2C148.761 482.2 148.617 482.016 148.617 481.656L148.617 479.2L149.769 479.2L149.769 478.392L148.617 478.392L148.617 477.12L147.617 477.28ZM152.741 478.264C151.493 478.264 150.461 479.176 150.461 480.688C150.461 482.2 151.493 483.12 152.741 483.12C153.989 483.12 155.021 482.2 155.021 480.688C155.021 479.176 153.989 478.264 152.741 478.264ZM152.741 479.128C153.429 479.128 154.013 479.632 154.013 480.688C154.013 481.744 153.429 482.256 152.741 482.256C152.053 482.256 151.469 481.744 151.469 480.688C151.469 479.632 152.053 479.128 152.741 479.128ZM161.111 479.168C161.679 479.168 162.111 479.488 162.111 480.344L162.111 483L163.111 483L163.111 479.912C163.111 478.672 162.351 478.264 161.511 478.264C160.999 478.264 160.351 478.472 160.007 479.16C159.759 478.504 159.175 478.264 158.559 478.264C158.007 478.264 157.343 478.48 157.015 479.072L157.015 478.392L156.015 478.392L156.015 483L157.015 483L157.015 480.368C157.015 479.544 157.487 479.168 158.127 479.168C158.695 479.168 159.127 479.488 159.127 480.344L159.127 483L160.127 483L160.127 480.368C160.127 479.544 160.543 479.168 161.111 479.168ZM166.375 479.128C167.023 479.128 167.535 479.432 167.615 480.2L165.111 480.2C165.247 479.488 165.711 479.128 166.375 479.128ZM168.559 480.912L168.559 480.584C168.559 479.224 167.663 478.264 166.415 478.264C165.079 478.264 164.063 479.2 164.063 480.68C164.063 482.2 165.119 483.12 166.479 483.12C167.327 483.12 168.351 482.632 168.527 481.568L167.599 481.408C167.495 481.936 167.191 482.256 166.439 482.256C165.607 482.256 165.151 481.72 165.079 480.912L168.559 480.912ZM171.754 479.344C172.002 479.344 172.178 479.376 172.354 479.448L172.45 478.328C172.354 478.28 172.218 478.264 172.098 478.264C171.642 478.264 170.922 478.528 170.546 479.496L170.546 478.392L169.546 478.392L169.546 483L170.546 483L170.546 480.984C170.546 479.704 171.106 479.344 171.754 479.344ZM179.615 480.184C179.447 478.944 178.463 478.264 177.391 478.264C176.071 478.264 175.071 479.2 175.071 480.688C175.071 482.112 176.055 483.12 177.463 483.12C178.351 483.12 179.391 482.632 179.607 481.224L178.695 481.064C178.591 481.848 178.159 482.248 177.455 482.248C176.519 482.248 176.079 481.536 176.079 480.688C176.079 479.664 176.639 479.128 177.343 479.128C177.983 479.128 178.519 479.472 178.631 480.344L179.615 480.184ZM182.546 478.264C181.298 478.264 180.266 479.176 180.266 480.688C180.266 482.2 181.298 483.12 182.546 483.12C183.794 483.12 184.826 482.2 184.826 480.688C184.826 479.176 183.794 478.264 182.546 478.264ZM182.546 479.128C183.234 479.128 183.818 479.632 183.818 480.688C183.818 481.744 183.234 482.256 182.546 482.256C181.858 482.256 181.274 481.744 181.274 480.688C181.274 479.632 181.858 479.128 182.546 479.128ZM187.956 479.168C188.5 479.168 188.932 479.488 188.932 480.344L188.932 483L189.932 483L189.932 479.912C189.932 478.672 189.148 478.264 188.324 478.264C187.78 478.264 187.148 478.488 186.82 479.072L186.82 478.392L185.82 478.392L185.82 483L186.82 483L186.82 480.368C186.82 479.544 187.292 479.168 187.956 479.168ZM191.435 483L192.435 483L192.435 479.2L193.579 479.2L193.579 478.392L192.435 478.392L192.435 478.208C192.435 477.768 192.563 477.536 192.987 477.536C193.099 477.536 193.195 477.544 193.291 477.56L193.363 476.712C193.235 476.672 193.067 476.648 192.875 476.648C192.011 476.648 191.435 477.192 191.435 478.216L191.435 478.392L190.803 478.392L190.803 479.2L191.435 479.2L191.435 483ZM194.288 478.392L194.288 483L195.288 483L195.288 478.392L194.288 478.392ZM194.784 476.4C194.448 476.4 194.184 476.672 194.184 477C194.184 477.328 194.448 477.6 194.784 477.6C195.12 477.6 195.384 477.328 195.384 477C195.384 476.672 195.12 476.4 194.784 476.4ZM198.778 479.344C199.026 479.344 199.202 479.376 199.378 479.448L199.474 478.328C199.378 478.28 199.242 478.264 199.122 478.264C198.666 478.264 197.946 478.528 197.57 479.496L197.57 478.392L196.57 478.392L196.57 483L197.57 483L197.57 480.984C197.57 479.704 198.13 479.344 198.778 479.344ZM205.322 479.168C205.89 479.168 206.322 479.488 206.322 480.344L206.322 483L207.322 483L207.322 479.912C207.322 478.672 206.562 478.264 205.722 478.264C205.21 478.264 204.562 478.472 204.218 479.16C203.97 478.504 203.386 478.264 202.77 478.264C202.218 478.264 201.554 478.48 201.226 479.072L201.226 478.392L200.226 478.392L200.226 483L201.226 483L201.226 480.368C201.226 479.544 201.698 479.168 202.338 479.168C202.906 479.168 203.338 479.488 203.338 480.344L203.338 483L204.338 483L204.338 480.368C204.338 479.544 204.754 479.168 205.322 479.168ZM208.466 479.688C208.466 480.328 208.834 480.8 209.618 480.968L210.458 481.152C211.034 481.28 211.194 481.448 211.194 481.72C211.194 482.104 210.818 482.32 210.266 482.32C209.618 482.32 209.194 482.016 209.13 481.448L208.242 481.608C208.394 482.68 209.394 483.12 210.29 483.12C211.178 483.12 212.122 482.624 212.122 481.624C212.122 480.984 211.746 480.552 210.93 480.376L210.018 480.176C209.554 480.072 209.394 479.848 209.394 479.608C209.394 479.272 209.714 479.064 210.17 479.064C210.722 479.064 211.13 479.264 211.162 479.864L212.05 479.704C211.786 478.672 211.09 478.264 210.162 478.264C209.41 478.264 208.466 478.68 208.466 479.688Z" fill="#FF5B24"/>
<path d="M135.176 43.744L135.168 43.808C135.072 44.568 134.456 45.096 133.512 45.096C132.52 45.096 131.528 44.504 131.528 43.024C131.528 41.616 132.352 40.904 133.456 40.904C134.296 40.904 135.008 41.224 135.144 42.224L136.2 42.064C135.968 40.392 134.52 39.88 133.52 39.88C131.728 39.88 130.4 41.168 130.4 43.024C130.4 44.8 131.704 46.12 133.224 46.12C134.192 46.12 134.88 45.52 135.2 44.88L135.208 44.88L135.392 46L136.28 46L136.28 42.8L133.6 42.8L133.6 43.744L135.176 43.744ZM139.594 42.128C140.242 42.128 140.754 42.432 140.834 43.2L138.33 43.2C138.466 42.488 138.93 42.128 139.594 42.128ZM141.778 43.912L141.778 43.584C141.778 42.224 140.882 41.264 139.634 41.264C138.298 41.264 137.282 42.2 137.282 43.68C137.282 45.2 138.338 46.12 139.698 46.12C140.546 46.12 141.57 45.632 141.746 44.568L140.818 44.408C140.714 44.936 140.41 45.256 139.658 45.256C138.826 45.256 138.37 44.72 138.298 43.912L141.778 43.912ZM143.117 40.28L143.117 41.392L142.261 41.392L142.261 42.2L143.117 42.2L143.117 44.704C143.117 45.552 143.541 46.08 144.461 46.08C144.741 46.08 145.069 46.008 145.309 45.936L145.149 45.128C144.965 45.176 144.853 45.2 144.669 45.2C144.261 45.2 144.117 45.016 144.117 44.656L144.117 42.2L145.269 42.2L145.269 41.392L144.117 41.392L144.117 40.12L143.117 40.28ZM150.174 46.12C150.998 46.12 151.502 45.616 151.734 45.048L151.734 46L152.734 46L152.734 41.392L151.734 41.392L151.734 42.296C151.406 41.568 150.902 41.264 150.182 41.264C149.214 41.264 148.15 42.04 148.15 43.648C148.15 45.336 149.222 46.12 150.174 46.12ZM150.454 42.128C151.126 42.128 151.734 42.64 151.734 43.704C151.734 44.8 151.126 45.248 150.446 45.248C149.814 45.248 149.158 44.776 149.158 43.704C149.158 42.616 149.822 42.128 150.454 42.128ZM158.271 43.184C158.103 41.944 157.119 41.264 156.047 41.264C154.727 41.264 153.727 42.2 153.727 43.688C153.727 45.112 154.711 46.12 156.119 46.12C157.007 46.12 158.047 45.632 158.263 44.224L157.351 44.064C157.247 44.848 156.815 45.248 156.111 45.248C155.175 45.248 154.735 44.536 154.735 43.688C154.735 42.664 155.295 42.128 155.999 42.128C156.639 42.128 157.175 42.472 157.287 43.344L158.271 43.184ZM163.466 43.184C163.298 41.944 162.314 41.264 161.242 41.264C159.922 41.264 158.922 42.2 158.922 43.688C158.922 45.112 159.906 46.12 161.314 46.12C162.202 46.12 163.242 45.632 163.458 44.224L162.546 44.064C162.442 44.848 162.01 45.248 161.306 45.248C160.37 45.248 159.93 44.536 159.93 43.688C159.93 42.664 160.49 42.128 161.194 42.128C161.834 42.128 162.37 42.472 162.482 43.344L163.466 43.184ZM166.43 42.128C167.078 42.128 167.59 42.432 167.67 43.2L165.166 43.2C165.302 42.488 165.766 42.128 166.43 42.128ZM168.614 43.912L168.614 43.584C168.614 42.224 167.718 41.264 166.47 41.264C165.134 41.264 164.118 42.2 164.118 43.68C164.118 45.2 165.174 46.12 166.534 46.12C167.382 46.12 168.406 45.632 168.582 44.568L167.654 44.408C167.55 44.936 167.246 45.256 166.494 45.256C165.662 45.256 165.206 44.72 165.134 43.912L168.614 43.912ZM169.505 42.688C169.505 43.328 169.873 43.8 170.657 43.968L171.497 44.152C172.073 44.28 172.233 44.448 172.233 44.72C172.233 45.104 171.857 45.32 171.305 45.32C170.657 45.32 170.233 45.016 170.169 44.448L169.281 44.608C169.433 45.68 170.433 46.12 171.329 46.12C172.217 46.12 173.161 45.624 173.161 44.624C173.161 43.984 172.785 43.552 171.969 43.376L171.057 43.176C170.593 43.072 170.433 42.848 170.433 42.608C170.433 42.272 170.753 42.064 171.209 42.064C171.761 42.064 172.169 42.264 172.201 42.864L173.089 42.704C172.825 41.672 172.129 41.264 171.201 41.264C170.449 41.264 169.505 41.68 169.505 42.688ZM174.044 42.688C174.044 43.328 174.412 43.8 175.196 43.968L176.036 44.152C176.612 44.28 176.772 44.448 176.772 44.72C176.772 45.104 176.396 45.32 175.844 45.32C175.196 45.32 174.772 45.016 174.708 44.448L173.82 44.608C173.972 45.68 174.972 46.12 175.868 46.12C176.756 46.12 177.7 45.624 177.7 44.624C177.7 43.984 177.324 43.552 176.508 43.376L175.596 43.176C175.132 43.072 174.972 42.848 174.972 42.608C174.972 42.272 175.292 42.064 175.748 42.064C176.3 42.064 176.708 42.264 176.74 42.864L177.628 42.704C177.364 41.672 176.668 41.264 175.74 41.264C174.988 41.264 174.044 41.68 174.044 42.688ZM181.187 40.28L181.187 41.392L180.331 41.392L180.331 42.2L181.187 42.2L181.187 44.704C181.187 45.552 181.611 46.08 182.531 46.08C182.811 46.08 183.139 46.008 183.379 45.936L183.219 45.128C183.035 45.176 182.923 45.2 182.739 45.2C182.331 45.2 182.187 45.016 182.187 44.656L182.187 42.2L183.339 42.2L183.339 41.392L182.187 41.392L182.187 40.12L181.187 40.28ZM186.312 41.264C185.064 41.264 184.032 42.176 184.032 43.688C184.032 45.2 185.064 46.12 186.312 46.12C187.56 46.12 188.592 45.2 188.592 43.688C188.592 42.176 187.56 41.264 186.312 41.264ZM186.312 42.128C187 42.128 187.584 42.632 187.584 43.688C187.584 44.744 187 45.256 186.312 45.256C185.624 45.256 185.04 44.744 185.04 43.688C185.04 42.632 185.624 42.128 186.312 42.128ZM189.585 46L190.585 46L190.585 44.896L191.433 43.944L192.809 46L193.849 46L192.001 43.296L193.697 41.392L192.609 41.392L190.585 43.776L190.585 39.8L189.585 39.8L189.585 46ZM196.516 42.128C197.164 42.128 197.676 42.432 197.756 43.2L195.252 43.2C195.388 42.488 195.852 42.128 196.516 42.128ZM198.7 43.912L198.7 43.584C198.7 42.224 197.804 41.264 196.556 41.264C195.22 41.264 194.204 42.2 194.204 43.68C194.204 45.2 195.26 46.12 196.62 46.12C197.468 46.12 198.492 45.632 198.668 44.568L197.74 44.408C197.636 44.936 197.332 45.256 196.58 45.256C195.748 45.256 195.292 44.72 195.22 43.912L198.7 43.912ZM201.823 42.168C202.367 42.168 202.799 42.488 202.799 43.344L202.799 46L203.799 46L203.799 42.912C203.799 41.672 203.015 41.264 202.191 41.264C201.647 41.264 201.015 41.488 200.687 42.072L200.687 41.392L199.687 41.392L199.687 46L200.687 46L200.687 43.368C200.687 42.544 201.159 42.168 201.823 42.168Z" fill="#FF5B24"/>
<path d="M129.704 97L129.704 103L130.752 103L130.752 100.712L131.512 100.712C132.16 100.712 132.536 100.968 132.632 101.52L132.792 102.448C132.84 102.744 132.976 102.904 133.136 103L134.4 103C134.176 102.864 134 102.624 133.928 102.344L133.68 101.376C133.536 100.808 133.264 100.544 132.872 100.384C133.424 100.064 133.848 99.512 133.848 98.816C133.848 97.696 133.096 97 131.784 97L129.704 97ZM131.76 97.936C132.32 97.936 132.728 98.264 132.728 98.864C132.728 99.392 132.36 99.776 131.768 99.776L130.752 99.776L130.752 97.936L131.76 97.936ZM136.922 99.128C137.57 99.128 138.082 99.432 138.162 100.2L135.658 100.2C135.794 99.488 136.258 99.128 136.922 99.128ZM139.106 100.912L139.106 100.584C139.106 99.224 138.21 98.264 136.962 98.264C135.626 98.264 134.61 99.2 134.61 100.68C134.61 102.2 135.666 103.12 137.026 103.12C137.874 103.12 138.898 102.632 139.074 101.568L138.146 101.408C138.042 101.936 137.738 102.256 136.986 102.256C136.154 102.256 135.698 101.72 135.626 100.912L139.106 100.912ZM141.789 102.736C142.597 102.736 143.021 102.208 143.269 101.704L143.269 102.392C143.269 103.368 142.861 103.768 141.973 103.768C141.413 103.768 140.877 103.608 140.789 102.944L139.821 103.104C140.053 104.272 141.101 104.664 141.933 104.664C143.405 104.664 144.269 103.896 144.269 102.352L144.269 98.384L143.269 98.384L143.269 99.28C142.917 98.568 142.477 98.264 141.869 98.264C140.829 98.264 139.845 98.968 139.845 100.432C139.845 102 140.845 102.736 141.789 102.736ZM142.045 99.128C142.717 99.128 143.269 99.616 143.269 100.496C143.269 101.424 142.717 101.864 142.045 101.864C141.397 101.864 140.853 101.424 140.853 100.488C140.853 99.584 141.421 99.128 142.045 99.128ZM145.546 98.392L145.546 103L146.546 103L146.546 98.392L145.546 98.392ZM146.042 96.4C145.706 96.4 145.442 96.672 145.442 97C145.442 97.328 145.706 97.6 146.042 97.6C146.378 97.6 146.642 97.328 146.642 97C146.642 96.672 146.378 96.4 146.042 96.4ZM147.731 99.688C147.731 100.328 148.099 100.8 148.883 100.968L149.723 101.152C150.299 101.28 150.459 101.448 150.459 101.72C150.459 102.104 150.083 102.32 149.531 102.32C148.883 102.32 148.459 102.016 148.395 101.448L147.507 101.608C147.659 102.68 148.659 103.12 149.555 103.12C150.443 103.12 151.387 102.624 151.387 101.624C151.387 100.984 151.011 100.552 150.195 100.376L149.283 100.176C148.819 100.072 148.659 99.848 148.659 99.608C148.659 99.272 148.979 99.064 149.435 99.064C149.987 99.064 150.395 99.264 150.427 99.864L151.315 99.704C151.051 98.672 150.355 98.264 149.427 98.264C148.675 98.264 147.731 98.68 147.731 99.688ZM152.719 97.28L152.719 98.392L151.863 98.392L151.863 99.2L152.719 99.2L152.719 101.704C152.719 102.552 153.143 103.08 154.063 103.08C154.343 103.08 154.671 103.008 154.911 102.936L154.751 102.128C154.567 102.176 154.455 102.2 154.271 102.2C153.863 102.2 153.719 102.016 153.719 101.656L153.719 99.2L154.871 99.2L154.871 98.392L153.719 98.392L153.719 97.12L152.719 97.28ZM158.059 99.344C158.307 99.344 158.483 99.376 158.659 99.448L158.755 98.328C158.659 98.28 158.523 98.264 158.403 98.264C157.947 98.264 157.227 98.528 156.851 99.496L156.851 98.392L155.851 98.392L155.851 103L156.851 103L156.851 100.984C156.851 99.704 157.411 99.344 158.059 99.344ZM159.915 104.6C160.811 104.6 161.387 104.128 161.747 103.192L163.587 98.392L162.475 98.392L161.315 101.992L160.099 98.392L158.987 98.392L160.683 102.648C160.915 103.232 160.699 103.768 160.011 103.768C159.651 103.768 159.427 103.656 159.283 103.568L159.123 104.432C159.339 104.536 159.611 104.6 159.915 104.6ZM173.147 98.392L172.035 98.392L171.051 101.752L169.939 98.392L169.195 98.392L168.091 101.736L167.099 98.392L165.987 98.392L167.643 103L168.507 103L169.571 100.088L170.627 103L171.491 103L173.147 98.392ZM175.674 103.12C176.498 103.12 177.002 102.616 177.234 102.048L177.234 103L178.234 103L178.234 98.392L177.234 98.392L177.234 99.296C176.906 98.568 176.402 98.264 175.682 98.264C174.714 98.264 173.65 99.04 173.65 100.648C173.65 102.336 174.722 103.12 175.674 103.12ZM175.954 99.128C176.626 99.128 177.234 99.64 177.234 100.704C177.234 101.8 176.626 102.248 175.946 102.248C175.314 102.248 174.658 101.776 174.658 100.704C174.658 99.616 175.322 99.128 175.954 99.128ZM179.419 99.688C179.419 100.328 179.787 100.8 180.571 100.968L181.411 101.152C181.987 101.28 182.147 101.448 182.147 101.72C182.147 102.104 181.771 102.32 181.219 102.32C180.571 102.32 180.147 102.016 180.083 101.448L179.195 101.608C179.347 102.68 180.347 103.12 181.243 103.12C182.131 103.12 183.075 102.624 183.075 101.624C183.075 100.984 182.699 100.552 181.883 100.376L180.971 100.176C180.507 100.072 180.347 99.848 180.347 99.608C180.347 99.272 180.667 99.064 181.123 99.064C181.675 99.064 182.083 99.264 182.115 99.864L183.003 99.704C182.739 98.672 182.043 98.264 181.115 98.264C180.363 98.264 179.419 98.68 179.419 99.688ZM184.054 96.8L184.054 103L185.054 103L185.054 100.368C185.054 99.544 185.526 99.168 186.198 99.168C186.734 99.168 187.166 99.488 187.166 100.344L187.166 103L188.166 103L188.166 99.912C188.166 98.672 187.406 98.264 186.526 98.264C186.038 98.264 185.382 98.48 185.054 99.072L185.054 96.8L184.054 96.8ZM189.406 98.392L189.406 103L190.406 103L190.406 98.392L189.406 98.392ZM189.902 96.4C189.566 96.4 189.302 96.672 189.302 97C189.302 97.328 189.566 97.6 189.902 97.6C190.238 97.6 190.502 97.328 190.502 97C190.502 96.672 190.238 96.4 189.902 96.4ZM193.823 99.168C194.367 99.168 194.799 99.488 194.799 100.344L194.799 103L195.799 103L195.799 99.912C195.799 98.672 195.015 98.264 194.191 98.264C193.647 98.264 193.015 98.488 192.687 99.072L192.687 98.392L191.687 98.392L191.687 103L192.687 103L192.687 100.368C192.687 99.544 193.159 99.168 193.823 99.168ZM198.734 102.736C199.542 102.736 199.966 102.208 200.214 101.704L200.214 102.392C200.214 103.368 199.806 103.768 198.918 103.768C198.358 103.768 197.822 103.608 197.734 102.944L196.766 103.104C196.998 104.272 198.046 104.664 198.878 104.664C200.35 104.664 201.214 103.896 201.214 102.352L201.214 98.384L200.214 98.384L200.214 99.28C199.862 98.568 199.422 98.264 198.814 98.264C197.774 98.264 196.79 98.968 196.79 100.432C196.79 102 197.79 102.736 198.734 102.736ZM198.99 99.128C199.662 99.128 200.214 99.616 200.214 100.496C200.214 101.424 199.662 101.864 198.99 101.864C198.342 101.864 197.798 101.424 197.798 100.488C197.798 99.584 198.366 99.128 198.99 99.128ZM206.416 103.12C207.24 103.12 207.744 102.616 207.976 102.048L207.976 103L208.976 103L208.976 98.392L207.976 98.392L207.976 99.296C207.648 98.568 207.144 98.264 206.424 98.264C205.456 98.264 204.392 99.04 204.392 100.648C204.392 102.336 205.464 103.12 206.416 103.12ZM206.696 99.128C207.368 99.128 207.976 99.64 207.976 100.704C207.976 101.8 207.368 102.248 206.688 102.248C206.056 102.248 205.4 101.776 205.4 100.704C205.4 99.616 206.064 99.128 206.696 99.128ZM212.393 99.168C212.937 99.168 213.369 99.488 213.369 100.344L213.369 103L214.369 103L214.369 99.912C214.369 98.672 213.585 98.264 212.761 98.264C212.217 98.264 211.585 98.488 211.257 99.072L211.257 98.392L210.257 98.392L210.257 103L211.257 103L211.257 100.368C211.257 99.544 211.729 99.168 212.393 99.168ZM219.937 96.8L218.937 96.8L218.937 99.296C218.609 98.568 218.113 98.264 217.489 98.264C216.417 98.264 215.353 99.04 215.353 100.648C215.353 102.336 216.425 103.12 217.361 103.12C218.201 103.12 218.705 102.68 218.937 102.128L218.937 103L219.937 103L219.937 96.8ZM217.657 99.128C218.329 99.128 218.937 99.664 218.937 100.704C218.937 101.776 218.329 102.248 217.649 102.248C217.017 102.248 216.361 101.752 216.361 100.704C216.361 99.64 217.025 99.128 217.657 99.128ZM227.63 100.184C227.462 98.944 226.478 98.264 225.406 98.264C224.086 98.264 223.086 99.2 223.086 100.688C223.086 102.112 224.07 103.12 225.478 103.12C226.366 103.12 227.406 102.632 227.622 101.224L226.71 101.064C226.606 101.848 226.174 102.248 225.47 102.248C224.534 102.248 224.094 101.536 224.094 100.688C224.094 99.664 224.654 99.128 225.358 99.128C225.998 99.128 226.534 99.472 226.646 100.344L227.63 100.184ZM232.658 103L232.658 98.392L231.658 98.392L231.658 101.072C231.658 101.856 231.138 102.216 230.466 102.216C229.85 102.216 229.546 101.944 229.546 101.232L229.546 98.392L228.546 98.392L228.546 101.608C228.546 102.672 229.314 103.12 230.082 103.12C230.658 103.12 231.298 102.856 231.658 102.224L231.658 103L232.658 103ZM234.273 97.28L234.273 98.392L233.417 98.392L233.417 99.2L234.273 99.2L234.273 101.704C234.273 102.552 234.697 103.08 235.617 103.08C235.897 103.08 236.225 103.008 236.465 102.936L236.305 102.128C236.121 102.176 236.009 102.2 235.825 102.2C235.417 102.2 235.273 102.016 235.273 101.656L235.273 99.2L236.425 99.2L236.425 98.392L235.273 98.392L235.273 97.12L234.273 97.28ZM239.398 98.264C238.15 98.264 237.118 99.176 237.118 100.688C237.118 102.2 238.15 103.12 239.398 103.12C240.646 103.12 241.678 102.2 241.678 100.688C241.678 99.176 240.646 98.264 239.398 98.264ZM239.398 99.128C240.086 99.128 240.67 99.632 240.67 100.688C240.67 101.744 240.086 102.256 239.398 102.256C238.71 102.256 238.126 101.744 238.126 100.688C238.126 99.632 238.71 99.128 239.398 99.128ZM247.767 99.168C248.335 99.168 248.767 99.488 248.767 100.344L248.767 103L249.767 103L249.767 99.912C249.767 98.672 249.007 98.264 248.167 98.264C247.655 98.264 247.007 98.472 246.663 99.16C246.415 98.504 245.831 98.264 245.215 98.264C244.663 98.264 243.999 98.48 243.671 99.072L243.671 98.392L242.671 98.392L242.671 103L243.671 103L243.671 100.368C243.671 99.544 244.143 99.168 244.783 99.168C245.351 99.168 245.783 99.488 245.783 100.344L245.783 103L246.783 103L246.783 100.368C246.783 99.544 247.199 99.168 247.767 99.168ZM253.031 99.128C253.679 99.128 254.191 99.432 254.271 100.2L251.767 100.2C251.903 99.488 252.367 99.128 253.031 99.128ZM255.215 100.912L255.215 100.584C255.215 99.224 254.319 98.264 253.071 98.264C251.735 98.264 250.719 99.2 250.719 100.68C250.719 102.2 251.775 103.12 253.135 103.12C253.983 103.12 255.007 102.632 255.183 101.568L254.255 101.408C254.151 101.936 253.847 102.256 253.095 102.256C252.263 102.256 251.807 101.72 251.735 100.912L255.215 100.912ZM258.41 99.344C258.658 99.344 258.834 99.376 259.01 99.448L259.106 98.328C259.01 98.28 258.874 98.264 258.754 98.264C258.298 98.264 257.578 98.528 257.202 99.496L257.202 98.392L256.202 98.392L256.202 103L257.202 103L257.202 100.984C257.202 99.704 257.762 99.344 258.41 99.344ZM129.64 109.8L129.64 116L130.64 116L130.64 109.8L129.64 109.8ZM133.913 111.264C132.665 111.264 131.633 112.176 131.633 113.688C131.633 115.2 132.665 116.12 133.913 116.12C135.161 116.12 136.193 115.2 136.193 113.688C136.193 112.176 135.161 111.264 133.913 111.264ZM133.913 112.128C134.601 112.128 135.185 112.632 135.185 113.688C135.185 114.744 134.601 115.256 133.913 115.256C133.225 115.256 132.641 114.744 132.641 113.688C132.641 112.632 133.225 112.128 133.913 112.128ZM139.179 111.264C137.931 111.264 136.899 112.176 136.899 113.688C136.899 115.2 137.931 116.12 139.179 116.12C140.427 116.12 141.459 115.2 141.459 113.688C141.459 112.176 140.427 111.264 139.179 111.264ZM139.179 112.128C139.867 112.128 140.451 112.632 140.451 113.688C140.451 114.744 139.867 115.256 139.179 115.256C138.491 115.256 137.907 114.744 137.907 113.688C137.907 112.632 138.491 112.128 139.179 112.128ZM142.452 116L143.452 116L143.452 114.896L144.3 113.944L145.676 116L146.716 116L144.868 113.296L146.564 111.392L145.476 111.392L143.452 113.776L143.452 109.8L142.452 109.8L142.452 116ZM151.447 116L151.447 111.392L150.447 111.392L150.447 114.072C150.447 114.856 149.927 115.216 149.255 115.216C148.639 115.216 148.335 114.944 148.335 114.232L148.335 111.392L147.335 111.392L147.335 114.608C147.335 115.672 148.103 116.12 148.871 116.12C149.447 116.12 150.087 115.856 150.447 115.224L150.447 116L151.447 116ZM155.27 111.264C154.486 111.264 154.006 111.76 153.71 112.296L153.71 111.392L152.71 111.392L152.71 117.6L153.71 117.6L153.71 115.128C154.094 115.784 154.59 116.12 155.174 116.12C156.246 116.12 157.294 115.304 157.294 113.624C157.294 112.016 156.206 111.264 155.27 111.264ZM154.998 112.128C155.63 112.128 156.286 112.632 156.286 113.68C156.286 114.744 155.63 115.248 154.99 115.248C154.318 115.248 153.71 114.704 153.71 113.68C153.71 112.608 154.318 112.128 154.998 112.128Z" fill="#FF5B24"/>
<path d="M134.176 157.744L134.168 157.808C134.072 158.568 133.456 159.096 132.512 159.096C131.52 159.096 130.528 158.504 130.528 157.024C130.528 155.616 131.352 154.904 132.456 154.904C133.296 154.904 134.008 155.224 134.144 156.224L135.2 156.064C134.968 154.392 133.52 153.88 132.52 153.88C130.728 153.88 129.4 155.168 129.4 157.024C129.4 158.8 130.704 160.12 132.224 160.12C133.192 160.12 133.88 159.52 134.2 158.88L134.208 158.88L134.392 160L135.28 160L135.28 156.8L132.6 156.8L132.6 157.744L134.176 157.744ZM138.594 156.128C139.242 156.128 139.754 156.432 139.834 157.2L137.33 157.2C137.466 156.488 137.93 156.128 138.594 156.128ZM140.778 157.912L140.778 157.584C140.778 156.224 139.882 155.264 138.634 155.264C137.298 155.264 136.282 156.2 136.282 157.68C136.282 159.2 137.338 160.12 138.698 160.12C139.546 160.12 140.57 159.632 140.746 158.568L139.818 158.408C139.714 158.936 139.41 159.256 138.658 159.256C137.826 159.256 137.37 158.72 137.298 157.912L140.778 157.912ZM142.117 154.28L142.117 155.392L141.261 155.392L141.261 156.2L142.117 156.2L142.117 158.704C142.117 159.552 142.541 160.08 143.461 160.08C143.741 160.08 144.069 160.008 144.309 159.936L144.149 159.128C143.965 159.176 143.853 159.2 143.669 159.2C143.261 159.2 143.117 159.016 143.117 158.656L143.117 156.2L144.269 156.2L144.269 155.392L143.117 155.392L143.117 154.12L142.117 154.28ZM149.614 156.344C149.862 156.344 150.038 156.376 150.214 156.448L150.31 155.328C150.214 155.28 150.078 155.264 149.958 155.264C149.502 155.264 148.782 155.528 148.406 156.496L148.406 155.392L147.406 155.392L147.406 160L148.406 160L148.406 157.984C148.406 156.704 148.966 156.344 149.614 156.344ZM153.086 156.128C153.734 156.128 154.246 156.432 154.326 157.2L151.822 157.2C151.958 156.488 152.422 156.128 153.086 156.128ZM155.27 157.912L155.27 157.584C155.27 156.224 154.374 155.264 153.126 155.264C151.79 155.264 150.774 156.2 150.774 157.68C150.774 159.2 151.83 160.12 153.19 160.12C154.038 160.12 155.062 159.632 155.238 158.568L154.31 158.408C154.206 158.936 153.902 159.256 153.15 159.256C152.318 159.256 151.862 158.72 151.79 157.912L155.27 157.912ZM160.513 157.184C160.345 155.944 159.361 155.264 158.289 155.264C156.969 155.264 155.969 156.2 155.969 157.688C155.969 159.112 156.953 160.12 158.361 160.12C159.249 160.12 160.289 159.632 160.505 158.224L159.593 158.064C159.489 158.848 159.057 159.248 158.353 159.248C157.417 159.248 156.977 158.536 156.977 157.688C156.977 156.664 157.537 156.128 158.241 156.128C158.881 156.128 159.417 156.472 159.529 157.344L160.513 157.184ZM161.452 155.392L161.452 160L162.452 160L162.452 155.392L161.452 155.392ZM161.948 153.4C161.612 153.4 161.348 153.672 161.348 154C161.348 154.328 161.612 154.6 161.948 154.6C162.284 154.6 162.548 154.328 162.548 154C162.548 153.672 162.284 153.4 161.948 153.4ZM166.294 155.264C165.51 155.264 165.03 155.76 164.734 156.296L164.734 155.392L163.734 155.392L163.734 161.6L164.734 161.6L164.734 159.128C165.118 159.784 165.614 160.12 166.198 160.12C167.27 160.12 168.318 159.304 168.318 157.624C168.318 156.016 167.23 155.264 166.294 155.264ZM166.022 156.128C166.654 156.128 167.31 156.632 167.31 157.68C167.31 158.744 166.654 159.248 166.014 159.248C165.342 159.248 164.734 158.704 164.734 157.68C164.734 156.608 165.342 156.128 166.022 156.128ZM169.343 155.392L169.343 160L170.343 160L170.343 155.392L169.343 155.392ZM169.839 153.4C169.503 153.4 169.239 153.672 169.239 154C169.239 154.328 169.503 154.6 169.839 154.6C170.175 154.6 170.439 154.328 170.439 154C170.439 153.672 170.175 153.4 169.839 153.4ZM173.648 156.128C174.296 156.128 174.808 156.432 174.888 157.2L172.384 157.2C172.52 156.488 172.984 156.128 173.648 156.128ZM175.832 157.912L175.832 157.584C175.832 156.224 174.936 155.264 173.688 155.264C172.352 155.264 171.336 156.2 171.336 157.68C171.336 159.2 172.392 160.12 173.752 160.12C174.6 160.12 175.624 159.632 175.8 158.568L174.872 158.408C174.768 158.936 174.464 159.256 173.712 159.256C172.88 159.256 172.424 158.72 172.352 157.912L175.832 157.912ZM178.956 156.168C179.5 156.168 179.932 156.488 179.932 157.344L179.932 160L180.932 160L180.932 156.912C180.932 155.672 180.148 155.264 179.324 155.264C178.78 155.264 178.148 155.488 177.82 156.072L177.82 155.392L176.82 155.392L176.82 160L177.82 160L177.82 157.368C177.82 156.544 178.292 156.168 178.956 156.168ZM182.523 154.28L182.523 155.392L181.667 155.392L181.667 156.2L182.523 156.2L182.523 158.704C182.523 159.552 182.947 160.08 183.867 160.08C184.147 160.08 184.475 160.008 184.715 159.936L184.555 159.128C184.371 159.176 184.259 159.2 184.075 159.2C183.667 159.2 183.523 159.016 183.523 158.656L183.523 156.2L184.675 156.2L184.675 155.392L183.523 155.392L183.523 154.12L182.523 154.28ZM188.164 154.28L188.164 155.392L187.308 155.392L187.308 156.2L188.164 156.2L188.164 158.704C188.164 159.552 188.588 160.08 189.508 160.08C189.788 160.08 190.116 160.008 190.356 159.936L190.196 159.128C190.012 159.176 189.9 159.2 189.716 159.2C189.308 159.2 189.164 159.016 189.164 158.656L189.164 156.2L190.316 156.2L190.316 155.392L189.164 155.392L189.164 154.12L188.164 154.28ZM193.288 155.264C192.04 155.264 191.008 156.176 191.008 157.688C191.008 159.2 192.04 160.12 193.288 160.12C194.536 160.12 195.568 159.2 195.568 157.688C195.568 156.176 194.536 155.264 193.288 155.264ZM193.288 156.128C193.976 156.128 194.56 156.632 194.56 157.688C194.56 158.744 193.976 159.256 193.288 159.256C192.6 159.256 192.016 158.744 192.016 157.688C192.016 156.632 192.6 156.128 193.288 156.128ZM196.562 160L197.562 160L197.562 158.896L198.41 157.944L199.786 160L200.826 160L198.978 157.296L200.674 155.392L199.586 155.392L197.562 157.776L197.562 153.8L196.562 153.8L196.562 160ZM203.492 156.128C204.14 156.128 204.652 156.432 204.732 157.2L202.228 157.2C202.364 156.488 202.828 156.128 203.492 156.128ZM205.676 157.912L205.676 157.584C205.676 156.224 204.78 155.264 203.532 155.264C202.196 155.264 201.18 156.2 201.18 157.68C201.18 159.2 202.236 160.12 203.596 160.12C204.444 160.12 205.468 159.632 205.644 158.568L204.716 158.408C204.612 158.936 204.308 159.256 203.556 159.256C202.724 159.256 202.268 158.72 202.196 157.912L205.676 157.912ZM208.799 156.168C209.343 156.168 209.775 156.488 209.775 157.344L209.775 160L210.775 160L210.775 156.912C210.775 155.672 209.991 155.264 209.167 155.264C208.623 155.264 207.991 155.488 207.663 156.072L207.663 155.392L206.663 155.392L206.663 160L207.663 160L207.663 157.368C207.663 156.544 208.135 156.168 208.799 156.168Z" fill="#FF5B24"/>
<path d="M130.752 553.936L131.824 553.936C132.504 553.936 132.888 554.336 132.888 555.08C132.888 555.784 132.504 556.184 131.808 556.184L130.752 556.184L130.752 553.936ZM129.704 553L129.704 559L130.752 559L130.752 557.12L131.912 557.12C133.192 557.12 134.008 556.224 134.008 555.064C134.008 553.72 133.24 553 131.904 553L129.704 553ZM136.642 559.12C137.466 559.12 137.97 558.616 138.202 558.048L138.202 559L139.202 559L139.202 554.392L138.202 554.392L138.202 555.296C137.874 554.568 137.37 554.264 136.65 554.264C135.682 554.264 134.618 555.04 134.618 556.648C134.618 558.336 135.69 559.12 136.642 559.12ZM136.922 555.128C137.594 555.128 138.202 555.64 138.202 556.704C138.202 557.8 137.594 558.248 136.914 558.248C136.282 558.248 135.626 557.776 135.626 556.704C135.626 555.616 136.29 555.128 136.922 555.128ZM140.892 560.6C141.788 560.6 142.364 560.128 142.724 559.192L144.564 554.392L143.452 554.392L142.292 557.992L141.076 554.392L139.964 554.392L141.66 558.648C141.892 559.232 141.676 559.768 140.988 559.768C140.628 559.768 140.404 559.656 140.26 559.568L140.1 560.432C140.316 560.536 140.588 560.6 140.892 560.6ZM150.423 555.168C150.991 555.168 151.424 555.488 151.423 556.344L151.423 559L152.423 559L152.423 555.912C152.424 554.672 151.664 554.264 150.823 554.264C150.311 554.264 149.664 554.472 149.32 555.16C149.071 554.504 148.487 554.264 147.871 554.264C147.319 554.264 146.655 554.48 146.327 555.072L146.327 554.392L145.327 554.392L145.327 559L146.327 559L146.327 556.368C146.327 555.544 146.799 555.168 147.439 555.168C148.007 555.168 148.439 555.488 148.439 556.344L148.439 559L149.439 559L149.439 556.368C149.439 555.544 149.855 555.168 150.423 555.168ZM155.687 555.128C156.335 555.128 156.847 555.432 156.927 556.2L154.423 556.2C154.559 555.488 155.023 555.128 155.687 555.128ZM157.871 556.912L157.871 556.584C157.871 555.224 156.975 554.264 155.727 554.264C154.391 554.264 153.375 555.2 153.375 556.68C153.375 558.2 154.431 559.12 155.791 559.12C156.639 559.12 157.663 558.632 157.839 557.568L156.911 557.408C156.807 557.936 156.503 558.256 155.751 558.256C154.919 558.256 154.463 557.72 154.391 556.912L157.871 556.912ZM160.995 555.168C161.539 555.168 161.971 555.488 161.971 556.344L161.971 559L162.971 559L162.971 555.912C162.971 554.672 162.187 554.264 161.363 554.264C160.819 554.264 160.187 554.488 159.859 555.072L159.859 554.392L158.859 554.392L158.859 559L159.859 559L159.859 556.368C159.859 555.544 160.331 555.168 160.995 555.168ZM164.562 553.28L164.562 554.392L163.706 554.392L163.706 555.2L164.562 555.2L164.562 557.704C164.562 558.552 164.986 559.08 165.906 559.08C166.186 559.08 166.514 559.008 166.754 558.936L166.594 558.128C166.41 558.176 166.298 558.2 166.114 558.2C165.706 558.2 165.562 558.016 165.562 557.656L165.562 555.2L166.714 555.2L166.714 554.392L165.562 554.392L165.562 553.12L164.562 553.28ZM169.851 554.392L169.851 559L170.851 559L170.851 554.392L169.851 554.392ZM170.347 552.4C170.011 552.4 169.747 552.672 169.747 553C169.747 553.328 170.011 553.6 170.347 553.6C170.683 553.6 170.947 553.328 170.947 553C170.947 552.672 170.683 552.4 170.347 552.4ZM172.036 555.688C172.036 556.328 172.404 556.8 173.188 556.968L174.028 557.152C174.604 557.28 174.764 557.448 174.764 557.72C174.764 558.104 174.388 558.32 173.836 558.32C173.188 558.32 172.764 558.016 172.7 557.448L171.812 557.608C171.964 558.68 172.964 559.12 173.86 559.12C174.748 559.12 175.692 558.624 175.692 557.624C175.692 556.984 175.316 556.552 174.5 556.376L173.588 556.176C173.124 556.072 172.964 555.848 172.964 555.608C172.964 555.272 173.284 555.064 173.74 555.064C174.292 555.064 174.7 555.264 174.732 555.864L175.62 555.704C175.356 554.672 174.66 554.264 173.732 554.264C172.98 554.264 172.036 554.68 172.036 555.688ZM179.179 553.28L179.179 554.392L178.323 554.392L178.323 555.2L179.179 555.2L179.179 557.704C179.179 558.552 179.603 559.08 180.523 559.08C180.803 559.08 181.131 559.008 181.371 558.936L181.211 558.128C181.027 558.176 180.915 558.2 180.731 558.2C180.323 558.2 180.179 558.016 180.179 557.656L180.179 555.2L181.331 555.2L181.331 554.392L180.179 554.392L180.18 553.12L179.179 553.28ZM184.52 555.344C184.768 555.344 184.944 555.376 185.12 555.448L185.216 554.328C185.12 554.28 184.984 554.264 184.864 554.264C184.408 554.264 183.688 554.528 183.312 555.496L183.312 554.392L182.312 554.392L182.312 559L183.312 559L183.312 556.984C183.312 555.704 183.872 555.344 184.52 555.344ZM187.736 559.12C188.56 559.12 189.064 558.616 189.296 558.048L189.296 559L190.296 559L190.296 554.392L189.296 554.392L189.296 555.296C188.968 554.568 188.464 554.264 187.744 554.264C186.776 554.264 185.712 555.04 185.712 556.648C185.712 558.336 186.784 559.12 187.736 559.12ZM188.016 555.128C188.688 555.128 189.296 555.64 189.296 556.704C189.296 557.8 188.688 558.248 188.008 558.248C187.376 558.248 186.72 557.776 186.72 556.704C186.72 555.616 187.384 555.128 188.016 555.128ZM193.713 555.168C194.257 555.168 194.689 555.488 194.689 556.344L194.689 559L195.689 559L195.689 555.912C195.689 554.672 194.905 554.264 194.081 554.264C193.537 554.264 192.905 554.488 192.577 555.072L192.577 554.392L191.577 554.392L191.577 559L192.577 559L192.577 556.368C192.577 555.544 193.049 555.168 193.713 555.168ZM196.833 555.688C196.833 556.328 197.201 556.8 197.985 556.968L198.825 557.152C199.401 557.28 199.561 557.448 199.561 557.72C199.561 558.104 199.185 558.32 198.633 558.32C197.985 558.32 197.561 558.016 197.497 557.448L196.609 557.608C196.761 558.68 197.761 559.12 198.657 559.12C199.545 559.12 200.489 558.624 200.489 557.624C200.489 556.984 200.113 556.552 199.297 556.376L198.385 556.176C197.921 556.072 197.761 555.848 197.761 555.608C197.761 555.272 198.081 555.064 198.537 555.064C199.089 555.064 199.497 555.264 199.529 555.864L200.417 555.704C200.153 554.672 199.457 554.264 198.529 554.264C197.777 554.264 196.833 554.68 196.833 555.688ZM201.732 559L202.732 559L202.732 555.2L203.876 555.2L203.876 554.392L202.732 554.392L202.732 554.208C202.732 553.736 202.956 553.488 203.364 553.488C203.58 553.488 203.764 553.52 203.956 553.576L204.092 552.8C203.868 552.72 203.596 552.648 203.26 552.648C202.34 552.648 201.732 553.24 201.732 554.216L201.732 554.392L201.1 554.392L201.1 555.2L201.732 555.2L201.732 559ZM206.609 555.128C207.257 555.128 207.769 555.432 207.849 556.2L205.345 556.2C205.481 555.488 205.945 555.128 206.609 555.128ZM208.793 556.912L208.793 556.584C208.793 555.224 207.897 554.264 206.649 554.264C205.313 554.264 204.297 555.2 204.297 556.68C204.297 558.2 205.353 559.12 206.713 559.12C207.561 559.12 208.585 558.632 208.761 557.568L207.833 557.408C207.729 557.936 207.425 558.256 206.673 558.256C205.841 558.256 205.385 557.72 205.313 556.912L208.793 556.912ZM211.989 555.344C212.237 555.344 212.413 555.376 212.589 555.448L212.685 554.328C212.589 554.28 212.453 554.264 212.333 554.264C211.877 554.264 211.157 554.528 210.781 555.496L210.781 554.392L209.781 554.392L209.781 559L210.781 559L210.781 556.984C210.781 555.704 211.341 555.344 211.989 555.344ZM215.645 555.344C215.893 555.344 216.069 555.376 216.245 555.448L216.341 554.328C216.245 554.28 216.109 554.264 215.989 554.264C215.533 554.264 214.813 554.528 214.437 555.496L214.437 554.392L213.437 554.392L213.437 559L214.437 559L214.437 556.984C214.437 555.704 214.997 555.344 215.645 555.344ZM219.117 555.128C219.765 555.128 220.277 555.432 220.357 556.2L217.853 556.2C217.989 555.488 218.453 555.128 219.117 555.128ZM221.301 556.912L221.301 556.584C221.301 555.224 220.405 554.264 219.157 554.264C217.821 554.264 216.805 555.2 216.805 556.68C216.805 558.2 217.861 559.12 219.221 559.12C220.069 559.12 221.093 558.632 221.269 557.568L220.341 557.408C220.237 557.936 219.933 558.256 219.181 558.256C218.349 558.256 217.893 557.72 217.821 556.912L221.301 556.912ZM226.616 552.8L225.616 552.8L225.616 555.296C225.288 554.568 224.792 554.264 224.168 554.264C223.096 554.264 222.032 555.04 222.032 556.648C222.032 558.336 223.104 559.12 224.04 559.12C224.88 559.12 225.384 558.68 225.616 558.128L225.616 559L226.616 559L226.616 552.8ZM224.336 555.128C225.008 555.128 225.616 555.664 225.616 556.704C225.616 557.776 225.008 558.248 224.328 558.248C223.696 558.248 223.04 557.752 223.04 556.704C223.04 555.64 223.704 555.128 224.336 555.128Z" fill="#FF5B24"/>
<line x1="78.4373" y1="327.5" x2="122.437" y2="327.5" stroke="#49367E" stroke-dasharray="3 3"/>
<line x1="78.4373" y1="403.354" x2="122.195" y2="403.354" stroke="#49367E" stroke-dasharray="3 3"/>
<path d="M196.704 319L196.704 325L197.752 325L197.752 319L196.704 319ZM198.997 320.608C198.997 322.92 202.317 322.16 202.317 323.432C202.317 323.888 201.965 324.192 201.285 324.192C200.637 324.192 199.893 323.976 199.789 322.952L198.757 323.192C198.917 324.48 200.053 325.12 201.253 325.12C202.317 325.12 203.365 324.512 203.365 323.368C203.365 321.128 200.061 321.944 200.061 320.568C200.061 320.096 200.421 319.808 201.037 319.808C201.573 319.808 202.173 320.048 202.221 320.88L203.277 320.64C203.101 319.4 202.029 318.88 201.085 318.88C200.037 318.88 198.997 319.456 198.997 320.608ZM205.463 319.936L206.535 319.936C207.215 319.936 207.599 320.336 207.599 321.08C207.599 321.784 207.215 322.184 206.519 322.184L205.463 322.184L205.463 319.936ZM204.415 319L204.415 325L205.463 325L205.463 323.12L206.623 323.12C207.903 323.12 208.719 322.224 208.719 321.064C208.719 319.72 207.951 319 206.615 319L204.415 319ZM214.106 321.344C214.354 321.344 214.53 321.376 214.706 321.448L214.802 320.328C214.706 320.28 214.57 320.264 214.45 320.264C213.994 320.264 213.274 320.528 212.898 321.496L212.898 320.392L211.898 320.392L211.898 325L212.898 325L212.898 322.984C212.898 321.704 213.458 321.344 214.106 321.344ZM217.578 321.128C218.226 321.128 218.738 321.432 218.818 322.2L216.314 322.2C216.45 321.488 216.914 321.128 217.578 321.128ZM219.762 322.912L219.762 322.584C219.762 321.224 218.866 320.264 217.618 320.264C216.282 320.264 215.266 321.2 215.266 322.68C215.266 324.2 216.322 325.12 217.682 325.12C218.53 325.12 219.554 324.632 219.73 323.568L218.802 323.408C218.698 323.936 218.394 324.256 217.642 324.256C216.81 324.256 216.354 323.72 216.282 322.912L219.762 322.912ZM224.829 320.392L223.717 320.392L222.533 323.872L221.341 320.392L220.229 320.392L222.069 325L222.989 325L224.829 320.392ZM227.585 320.264C226.337 320.264 225.305 321.176 225.305 322.688C225.305 324.2 226.337 325.12 227.585 325.12C228.833 325.12 229.865 324.2 229.865 322.688C229.865 321.176 228.833 320.264 227.585 320.264ZM227.585 321.128C228.273 321.128 228.857 321.632 228.857 322.688C228.857 323.744 228.273 324.256 227.585 324.256C226.897 324.256 226.313 323.744 226.313 322.688C226.313 321.632 226.897 321.128 227.585 321.128ZM230.859 325L231.859 325L231.859 323.896L232.707 322.944L234.083 325L235.123 325L233.275 322.296L234.971 320.392L233.883 320.392L231.859 322.776L231.859 318.8L230.859 318.8L230.859 325ZM237.789 321.128C238.437 321.128 238.949 321.432 239.029 322.2L236.525 322.2C236.661 321.488 237.125 321.128 237.789 321.128ZM239.973 322.912L239.973 322.584C239.973 321.224 239.077 320.264 237.829 320.264C236.493 320.264 235.477 321.2 235.477 322.68C235.477 324.2 236.533 325.12 237.893 325.12C238.741 325.12 239.765 324.632 239.941 323.568L239.013 323.408C238.909 323.936 238.605 324.256 237.853 324.256C237.021 324.256 236.565 323.72 236.493 322.912L239.973 322.912ZM240.864 321.688C240.864 322.328 241.232 322.8 242.016 322.968L242.856 323.152C243.432 323.28 243.592 323.448 243.592 323.72C243.592 324.104 243.216 324.32 242.664 324.32C242.016 324.32 241.592 324.016 241.528 323.448L240.64 323.608C240.792 324.68 241.792 325.12 242.688 325.12C243.576 325.12 244.52 324.624 244.52 323.624C244.52 322.984 244.144 322.552 243.328 322.376L242.416 322.176C241.952 322.072 241.792 321.848 241.792 321.608C241.792 321.272 242.112 321.064 242.568 321.064C243.12 321.064 243.528 321.264 243.56 321.864L244.448 321.704C244.184 320.672 243.488 320.264 242.56 320.264C241.808 320.264 240.864 320.68 240.864 321.688ZM196.64 333.392L196.64 338L197.64 338L197.64 333.392L196.64 333.392ZM197.136 331.4C196.8 331.4 196.536 331.672 196.536 332C196.536 332.328 196.8 332.6 197.136 332.6C197.472 332.6 197.736 332.328 197.736 332C197.736 331.672 197.472 331.4 197.136 331.4ZM201.057 334.168C201.601 334.168 202.033 334.488 202.033 335.344L202.033 338L203.033 338L203.033 334.912C203.033 333.672 202.249 333.264 201.425 333.264C200.881 333.264 200.249 333.488 199.921 334.072L199.921 333.392L198.921 333.392L198.921 338L199.921 338L199.921 335.368C199.921 334.544 200.393 334.168 201.057 334.168ZM208.353 333.392L207.241 333.392L206.057 336.872L204.865 333.392L203.753 333.392L205.593 338L206.513 338L208.353 333.392ZM211.109 333.264C209.861 333.264 208.829 334.176 208.829 335.688C208.829 337.2 209.861 338.12 211.109 338.12C212.357 338.12 213.389 337.2 213.389 335.688C213.389 334.176 212.357 333.264 211.109 333.264ZM211.109 334.128C211.797 334.128 212.381 334.632 212.381 335.688C212.381 336.744 211.797 337.256 211.109 337.256C210.421 337.256 209.837 336.744 209.837 335.688C209.837 334.632 210.421 334.128 211.109 334.128ZM214.382 333.392L214.382 338L215.382 338L215.382 333.392L214.382 333.392ZM214.878 331.4C214.542 331.4 214.278 331.672 214.278 332C214.278 332.328 214.542 332.6 214.878 332.6C215.214 332.6 215.478 332.328 215.478 332C215.478 331.672 215.214 331.4 214.878 331.4ZM220.919 335.184C220.751 333.944 219.767 333.264 218.695 333.264C217.375 333.264 216.375 334.2 216.375 335.688C216.375 337.112 217.359 338.12 218.767 338.12C219.655 338.12 220.695 337.632 220.911 336.224L219.999 336.064C219.895 336.848 219.463 337.248 218.759 337.248C217.823 337.248 217.383 336.536 217.383 335.688C217.383 334.664 217.943 334.128 218.647 334.128C219.287 334.128 219.823 334.472 219.935 335.344L220.919 335.184ZM223.883 334.128C224.531 334.128 225.043 334.432 225.123 335.2L222.619 335.2C222.755 334.488 223.219 334.128 223.883 334.128ZM226.067 335.912L226.067 335.584C226.067 334.224 225.171 333.264 223.923 333.264C222.587 333.264 221.571 334.2 221.571 335.68C221.571 337.2 222.627 338.12 223.987 338.12C224.835 338.12 225.859 337.632 226.035 336.568L225.107 336.408C225.003 336.936 224.699 337.256 223.947 337.256C223.115 337.256 222.659 336.72 222.587 335.912L226.067 335.912Z" fill="#49367E"/>
<path d="M170.214 328.947C170.214 343.454 158.454 355.214 143.947 355.214C129.44 355.214 117.68 343.454 117.68 328.947C117.68 314.44 129.44 302.68 143.947 302.68C158.454 302.68 170.214 314.44 170.214 328.947Z" fill="#EEEDF3"/>
<path fill-rule="evenodd" clip-rule="evenodd" d="M145.759 355.181C145.758 348.109 145.767 341.438 145.797 339.676C145.944 331.082 154.418 332.913 154.418 332.913L164.696 339.676L164.693 345.121C160.228 350.841 153.447 354.665 145.759 355.181Z" fill="#FFD3BB"/>
<path d="M162.532 345.19L147.341 345.124C145.878 345.118 144.698 343.927 144.704 342.464L144.838 311.84C144.844 310.377 146.035 309.197 147.497 309.203L162.689 309.27C164.151 309.276 165.332 310.467 165.325 311.929L165.192 342.554C165.185 344.016 163.994 345.197 162.532 345.19Z" fill="#FF5A23"/>
<path d="M165.236 340.546L144.749 340.457L144.865 314.016L165.352 314.106L165.236 340.546Z" fill="#FF985F"/>
<line x1="0.45432" y1="-0.45432" x2="3.01552" y2="-0.45432" transform="matrix(0.309016 -0.951057 0.951056 0.309018 156.699 323.825)" stroke="#FFF4EC" stroke-width="0.908639" stroke-linecap="round" stroke-linejoin="round"/>
<line x1="0.45432" y1="-0.45432" x2="3.01553" y2="-0.45432" transform="matrix(-0.809017 -0.587785 0.587786 -0.809016 154.221 324.531)" stroke="#FFF4EC" stroke-width="0.908639" stroke-linecap="round" stroke-linejoin="round"/>
<line x1="0.45432" y1="-0.45432" x2="3.01552" y2="-0.45432" transform="matrix(0.707106 0.707107 0.707106 -0.707107 157.559 326.917)" stroke="#FFF4EC" stroke-width="0.908639" stroke-linecap="round" stroke-linejoin="round"/>
<line x1="0.45432" y1="-0.45432" x2="3.01553" y2="-0.45432" transform="matrix(-0.809018 0.587784 0.587786 0.809017 155.081 327.654)" stroke="#FFF4EC" stroke-width="0.908639" stroke-linecap="round" stroke-linejoin="round"/>
<line x1="0.45432" y1="-0.45432" x2="3.01553" y2="-0.45432" transform="matrix(1 1.74621e-07 1.73883e-07 -1 157.928 325.073)" stroke="#FFF4EC" stroke-width="0.908639" stroke-linecap="round" stroke-linejoin="round"/>
<path d="M147.782 330.837L142.486 330.079C141.064 329.876 140.076 328.558 140.279 327.135C140.483 325.713 141.801 324.725 143.223 324.929L148.519 325.687C149.941 325.89 150.929 327.208 150.726 328.63C150.522 330.053 149.204 331.041 147.782 330.837Z" fill="#FFD3BB"/>
<path d="M147.153 335.691L141.857 334.933C140.434 334.729 139.447 333.411 139.65 331.989C139.854 330.566 141.172 329.579 142.594 329.782L147.89 330.54C149.312 330.743 150.3 332.062 150.096 333.484C149.893 334.906 148.575 335.894 147.153 335.691Z" fill="#FFD3BB"/>
<path d="M146.986 340.548L141.69 339.79C140.268 339.586 139.279 338.268 139.483 336.846C139.687 335.424 141.005 334.436 142.427 334.639L147.723 335.398C149.145 335.601 150.133 336.919 149.93 338.341C149.726 339.764 148.408 340.752 146.986 340.548Z" fill="#FFD3BB"/>
<path fill-rule="evenodd" clip-rule="evenodd" d="M168.37 338.633C167.41 341.053 166.1 343.296 164.502 345.301L160.651 347.465L158.896 349.044C158.713 348.762 158.554 348.534 158.416 348.337C157.84 347.514 157.641 347.229 157.648 345.715C157.67 340.58 161.852 336.434 166.987 336.457L168.37 338.633Z" fill="#FFD3BB"/>
<path fill-rule="evenodd" clip-rule="evenodd" d="M160.743 349.112C159.973 348.547 159.666 347.524 160.107 345.947C161.147 342.227 162.427 340.827 163.947 339.907C165.467 338.987 165.227 336.547 165.227 336.547C165.227 336.547 163.427 334.147 163.467 331.667C163.473 331.306 163.475 330.941 163.477 330.577C163.487 328.443 163.498 326.357 164.307 325.427C165.107 324.507 166.347 323.867 167.667 324.227C168.987 324.587 169.68 325.864 169.587 326.947C169.549 327.389 169.475 327.807 169.401 328.228C169.24 329.143 169.075 330.075 169.267 331.307C169.402 332.172 169.622 332.706 169.888 333.21C168.836 339.573 165.497 345.165 160.743 349.112Z" fill="#FFD3BB"/>
<path d="M135.288 270.144C135.048 268.672 133.784 267.88 132.528 267.88C130.816 267.88 129.4 269.12 129.4 270.96C129.4 272.928 130.832 274.12 132.552 274.12C133.712 274.12 135.16 273.344 135.336 271.696L134.256 271.536C134.168 272.728 133.352 273.096 132.552 273.096C131.416 273.096 130.528 272.448 130.528 270.96C130.528 269.608 131.416 268.904 132.488 268.904C133.224 268.904 134.032 269.208 134.208 270.304L135.288 270.144ZM136.374 267.8L136.374 274L137.374 274L137.374 271.368C137.374 270.544 137.846 270.168 138.518 270.168C139.054 270.168 139.486 270.488 139.486 271.344L139.486 274L140.486 274L140.486 270.912C140.486 269.672 139.726 269.264 138.846 269.264C138.358 269.264 137.702 269.48 137.374 270.072L137.374 267.8L136.374 267.8ZM143.75 270.128C144.398 270.128 144.91 270.432 144.99 271.2L142.486 271.2C142.622 270.488 143.086 270.128 143.75 270.128ZM145.934 271.912L145.934 271.584C145.934 270.224 145.038 269.264 143.79 269.264C142.454 269.264 141.438 270.2 141.438 271.68C141.438 273.2 142.494 274.12 143.854 274.12C144.702 274.12 145.726 273.632 145.902 272.568L144.974 272.408C144.87 272.936 144.566 273.256 143.814 273.256C142.982 273.256 142.526 272.72 142.454 271.912L145.934 271.912ZM151.177 271.184C151.009 269.944 150.025 269.264 148.953 269.264C147.633 269.264 146.633 270.2 146.633 271.688C146.633 273.112 147.617 274.12 149.025 274.12C149.913 274.12 150.953 273.632 151.169 272.224L150.257 272.064C150.153 272.848 149.721 273.248 149.017 273.248C148.081 273.248 147.641 272.536 147.641 271.688C147.641 270.664 148.201 270.128 148.905 270.128C149.545 270.128 150.081 270.472 150.193 271.344L151.177 271.184ZM152.117 274L153.117 274L153.117 272.896L153.965 271.944L155.341 274L156.381 274L154.533 271.296L156.229 269.392L155.141 269.392L153.117 271.776L153.117 267.8L152.117 267.8L152.117 274ZM157.023 269.392L157.023 274L158.023 274L158.023 269.392L157.023 269.392ZM157.519 267.4C157.183 267.4 156.919 267.672 156.919 268C156.919 268.328 157.183 268.6 157.519 268.6C157.855 268.6 158.119 268.328 158.119 268C158.119 267.672 157.855 267.4 157.519 267.4ZM161.44 270.168C161.984 270.168 162.416 270.488 162.416 271.344L162.416 274L163.416 274L163.416 270.912C163.416 269.672 162.632 269.264 161.808 269.264C161.264 269.264 160.632 269.488 160.304 270.072L160.304 269.392L159.304 269.392L159.304 274L160.304 274L160.304 271.368C160.304 270.544 160.776 270.168 161.44 270.168ZM166.352 273.736C167.16 273.736 167.584 273.208 167.832 272.704L167.832 273.392C167.832 274.368 167.424 274.768 166.536 274.768C165.976 274.768 165.44 274.608 165.352 273.944L164.384 274.104C164.616 275.272 165.664 275.664 166.496 275.664C167.968 275.664 168.832 274.896 168.832 273.352L168.832 269.384L167.832 269.384L167.832 270.28C167.48 269.568 167.04 269.264 166.432 269.264C165.392 269.264 164.408 269.968 164.408 271.432C164.408 273 165.408 273.736 166.352 273.736ZM166.608 270.128C167.28 270.128 167.832 270.616 167.832 271.496C167.832 272.424 167.28 272.864 166.608 272.864C165.96 272.864 165.416 272.424 165.416 271.488C165.416 270.584 165.984 270.128 166.608 270.128ZM172.617 268.28L172.617 269.392L171.761 269.392L171.761 270.2L172.617 270.2L172.617 272.704C172.617 273.552 173.041 274.08 173.961 274.08C174.241 274.08 174.569 274.008 174.809 273.936L174.649 273.128C174.465 273.176 174.353 273.2 174.169 273.2C173.761 273.2 173.617 273.016 173.617 272.656L173.617 270.2L174.769 270.2L174.769 269.392L173.617 269.392L173.617 268.12L172.617 268.28ZM175.749 267.8L175.749 274L176.749 274L176.749 271.368C176.749 270.544 177.221 270.168 177.893 270.168C178.429 270.168 178.861 270.488 178.861 271.344L178.861 274L179.861 274L179.861 270.912C179.861 269.672 179.101 269.264 178.221 269.264C177.733 269.264 177.077 269.48 176.749 270.072L176.749 267.8L175.749 267.8ZM183.125 270.128C183.773 270.128 184.285 270.432 184.365 271.2L181.861 271.2C181.997 270.488 182.461 270.128 183.125 270.128ZM185.309 271.912L185.309 271.584C185.309 270.224 184.413 269.264 183.165 269.264C181.829 269.264 180.813 270.2 180.813 271.68C180.813 273.2 181.869 274.12 183.229 274.12C184.077 274.12 185.101 273.632 185.277 272.568L184.349 272.408C184.245 272.936 183.941 273.256 183.189 273.256C182.357 273.256 181.901 272.72 181.829 271.912L185.309 271.912ZM188.452 269.392L188.452 274L189.452 274L189.452 269.392L188.452 269.392ZM188.948 267.4C188.612 267.4 188.348 267.672 188.348 268C188.348 268.328 188.612 268.6 188.948 268.6C189.284 268.6 189.548 268.328 189.548 268C189.548 267.672 189.284 267.4 188.948 267.4ZM192.87 270.168C193.414 270.168 193.846 270.488 193.846 271.344L193.846 274L194.846 274L194.846 270.912C194.846 269.672 194.062 269.264 193.238 269.264C192.694 269.264 192.062 269.488 191.734 270.072L191.734 269.392L190.734 269.392L190.734 274L191.734 274L191.734 271.368C191.734 270.544 192.206 270.168 192.87 270.168ZM200.165 269.392L199.053 269.392L197.869 272.872L196.677 269.392L195.565 269.392L197.405 274L198.325 274L200.165 269.392ZM202.921 269.264C201.673 269.264 200.641 270.176 200.641 271.688C200.641 273.2 201.673 274.12 202.921 274.12C204.169 274.12 205.201 273.2 205.201 271.688C205.201 270.176 204.169 269.264 202.921 269.264ZM202.921 270.128C203.609 270.128 204.193 270.632 204.193 271.688C204.193 272.744 203.609 273.256 202.921 273.256C202.233 273.256 201.649 272.744 201.649 271.688C201.649 270.632 202.233 270.128 202.921 270.128ZM206.195 269.392L206.195 274L207.195 274L207.195 269.392L206.195 269.392ZM206.691 267.4C206.355 267.4 206.091 267.672 206.091 268C206.091 268.328 206.355 268.6 206.691 268.6C207.027 268.6 207.291 268.328 207.291 268C207.291 267.672 207.027 267.4 206.691 267.4ZM212.732 271.184C212.564 269.944 211.58 269.264 210.508 269.264C209.188 269.264 208.188 270.2 208.188 271.688C208.188 273.112 209.172 274.12 210.58 274.12C211.468 274.12 212.508 273.632 212.724 272.224L211.812 272.064C211.708 272.848 211.276 273.248 210.572 273.248C209.636 273.248 209.196 272.536 209.196 271.688C209.196 270.664 209.756 270.128 210.46 270.128C211.1 270.128 211.636 270.472 211.748 271.344L212.732 271.184ZM215.695 270.128C216.343 270.128 216.855 270.432 216.935 271.2L214.431 271.2C214.567 270.488 215.031 270.128 215.695 270.128ZM217.879 271.912L217.879 271.584C217.879 270.224 216.983 269.264 215.735 269.264C214.399 269.264 213.383 270.2 213.383 271.68C213.383 273.2 214.439 274.12 215.799 274.12C216.647 274.12 217.671 273.632 217.847 272.568L216.919 272.408C216.815 272.936 216.511 273.256 215.759 273.256C214.927 273.256 214.471 272.72 214.399 271.912L217.879 271.912ZM220.927 270.688C220.927 271.328 221.295 271.8 222.079 271.968L222.919 272.152C223.495 272.28 223.655 272.448 223.655 272.72C223.655 273.104 223.279 273.32 222.727 273.32C222.079 273.32 221.655 273.016 221.591 272.448L220.703 272.608C220.855 273.68 221.855 274.12 222.751 274.12C223.639 274.12 224.583 273.624 224.583 272.624C224.583 271.984 224.207 271.552 223.391 271.376L222.479 271.176C222.015 271.072 221.855 270.848 221.855 270.608C221.855 270.272 222.175 270.064 222.631 270.064C223.183 270.064 223.591 270.264 223.623 270.864L224.511 270.704C224.247 269.672 223.551 269.264 222.623 269.264C221.871 269.264 220.927 269.68 220.927 270.688ZM225.914 268.28L225.914 269.392L225.058 269.392L225.058 270.2L225.914 270.2L225.914 272.704C225.914 273.552 226.338 274.08 227.258 274.08C227.538 274.08 227.866 274.008 228.106 273.936L227.946 273.128C227.762 273.176 227.65 273.2 227.466 273.2C227.058 273.2 226.914 273.016 226.914 272.656L226.914 270.2L228.066 270.2L228.066 269.392L226.914 269.392L226.914 268.12L225.914 268.28ZM230.814 274.12C231.638 274.12 232.142 273.616 232.374 273.048L232.374 274L233.374 274L233.374 269.392L232.374 269.392L232.374 270.296C232.046 269.568 231.542 269.264 230.822 269.264C229.854 269.264 228.79 270.04 228.79 271.648C228.79 273.336 229.862 274.12 230.814 274.12ZM231.094 270.128C231.766 270.128 232.374 270.64 232.374 271.704C232.374 272.8 231.766 273.248 231.086 273.248C230.454 273.248 229.798 272.776 229.798 271.704C229.798 270.616 230.462 270.128 231.094 270.128ZM235.008 268.28L235.008 269.392L234.152 269.392L234.152 270.2L235.008 270.2L235.008 272.704C235.008 273.552 235.432 274.08 236.352 274.08C236.632 274.08 236.96 274.008 237.2 273.936L237.04 273.128C236.856 273.176 236.744 273.2 236.56 273.2C236.152 273.2 236.008 273.016 236.008 272.656L236.008 270.2L237.16 270.2L237.16 269.392L236.008 269.392L236.008 268.12L235.008 268.28ZM240.164 270.128C240.812 270.128 241.324 270.432 241.404 271.2L238.9 271.2C239.036 270.488 239.5 270.128 240.164 270.128ZM242.348 271.912L242.348 271.584C242.348 270.224 241.452 269.264 240.204 269.264C238.868 269.264 237.852 270.2 237.852 271.68C237.852 273.2 238.908 274.12 240.268 274.12C241.116 274.12 242.14 273.632 242.316 272.568L241.388 272.408C241.284 272.936 240.98 273.256 240.228 273.256C239.396 273.256 238.94 272.72 238.868 271.912L242.348 271.912Z" fill="#FF5B24"/>
<path d="M102.968 556.242C102.968 570.464 91.438 581.994 77.2157 581.994C62.9934 581.994 51.4639 570.464 51.4639 556.242C51.4639 542.02 62.9934 530.49 77.2157 530.49C91.438 530.49 102.968 542.02 102.968 556.242Z" fill="#EEEDF3"/>
<path d="M65.8734 547.046C66.4142 547.515 66.9564 547.984 67.4971 548.454C68.9051 549.675 70.3593 550.847 71.7252 552.116C73.9051 554.142 75.2626 556.639 75.8006 559.569C76.3442 562.536 75.9617 565.39 74.6294 568.097C73.3517 570.691 71.3988 572.64 68.8378 573.978C67.0152 574.93 65.0707 575.443 63.0155 575.523C59.16 575.673 55.7669 574.507 52.9118 571.896C50.8832 570.04 49.6069 567.732 49.0017 565.054C48.6767 563.616 48.5856 562.162 48.7397 560.698C49.0522 557.722 50.2023 555.115 52.2071 552.888C52.9188 552.098 53.7454 551.435 54.5453 550.743C55.9407 549.539 57.3388 548.34 58.7356 547.14C58.7692 547.11 58.7972 547.077 58.828 547.044C59.0186 547.043 59.2091 547.047 59.3996 547.037C59.5159 547.032 59.5411 547.082 59.5383 547.186C59.5327 547.382 59.5369 547.578 59.5369 547.774C59.5369 549.724 59.5369 551.675 59.5369 553.625C59.5369 553.979 59.6672 554.261 59.9838 554.432C60.561 554.744 61.2251 554.328 61.2265 553.653C61.2293 552.117 61.2279 550.582 61.2279 549.046C61.2279 548.43 61.2307 547.813 61.2251 547.197C61.2237 547.071 61.2587 547.032 61.3848 547.036C61.6594 547.046 61.9339 547.039 62.2085 547.039C63.4302 547.043 64.6518 547.044 65.8734 547.046ZM62.6344 567.383C62.8866 567.383 63.1388 567.378 63.3909 567.386C63.5044 567.39 63.5296 567.351 63.5282 567.245C63.5226 566.88 63.5366 566.516 63.5212 566.152C63.5142 565.981 63.5618 565.914 63.73 565.87C64.331 565.719 64.8703 565.442 65.3214 565.01C66.0247 564.335 66.2797 563.499 66.2223 562.543C66.1592 561.498 65.6885 560.716 64.7639 560.211C64.1292 559.863 63.4344 559.689 62.7507 559.482C62.3486 559.36 61.9451 559.242 61.5907 559.007C61.2433 558.777 61.0695 558.458 61.1088 558.039C61.148 557.623 61.3708 557.334 61.7504 557.165C62.0544 557.03 62.3766 556.997 62.7031 557.019C63.4428 557.07 63.8476 557.386 64.0774 558.091C64.1208 558.223 64.1517 558.36 64.1769 558.497C64.1937 558.594 64.2147 558.634 64.3324 558.616C64.8745 558.532 65.4181 558.464 65.9617 558.385C66.3469 558.329 66.3469 558.325 66.2573 557.938C65.9225 556.491 65.1393 555.467 63.6179 555.139C63.5268 555.119 63.524 555.068 63.5254 554.995C63.5282 554.625 63.5184 554.255 63.5296 553.885C63.5338 553.74 63.4862 553.71 63.3503 553.713C62.8684 553.721 62.3864 553.72 61.9045 553.713C61.7784 553.711 61.7294 553.738 61.7336 553.877C61.7434 554.247 61.7336 554.617 61.7392 554.986C61.7406 555.084 61.7098 555.125 61.6145 555.145C61.4772 555.173 61.3413 555.206 61.2096 555.25C60.3537 555.531 59.6644 556.015 59.3142 556.878C59.0256 557.587 59.0172 558.318 59.2133 559.052C59.4556 559.956 60.0903 560.508 60.9 560.897C61.5179 561.194 62.1791 561.371 62.8207 561.599C63.1738 561.725 63.5254 561.857 63.8196 562.1C64.0017 562.252 64.132 562.435 64.1685 562.675C64.2455 563.172 64.02 563.612 63.5534 563.852C62.9847 564.143 62.3864 564.123 61.7854 563.989C61.1522 563.847 60.7599 563.451 60.596 562.823C60.5414 562.616 60.519 562.404 60.512 562.193C60.5078 562.071 60.4601 562.058 60.3593 562.074C59.7681 562.163 59.1755 562.253 58.5829 562.334C58.4834 562.348 58.4666 562.386 58.475 562.474C58.5072 562.816 58.5801 563.15 58.7089 563.466C59.2413 564.778 60.2332 565.561 61.5739 565.932C61.6972 565.967 61.7448 566.006 61.742 566.139C61.7322 566.504 61.7448 566.868 61.735 567.232C61.7308 567.362 61.7742 567.39 61.8961 567.386C62.1413 567.376 62.3878 567.383 62.6344 567.383Z" fill="#FF985F"/>
<path d="M59.0787 545.355C58.3054 544.013 57.5279 542.672 56.7588 541.327C55.7599 539.577 56.7447 537.446 58.7229 537.071C58.8938 537.039 59.0675 537.026 59.2412 537.026C61.3147 537.028 63.3867 537.026 65.4601 537.026C67.6722 537.026 69.0493 539.369 67.9594 541.295C67.2141 542.615 66.4464 543.922 65.6884 545.234C65.666 545.272 65.6478 545.314 65.6282 545.353C63.8476 545.355 62.067 545.356 60.2878 545.358C59.8843 545.359 59.4822 545.356 59.0787 545.355Z" fill="#FF985F"/>
<path d="M59.0786 545.355C59.482 545.356 59.8841 545.36 60.2876 545.36C62.0682 545.359 63.8488 545.358 65.628 545.356C65.7345 545.358 65.841 545.36 65.9474 545.36C66.4378 545.363 66.8104 545.72 66.8146 546.195C66.8202 546.658 66.4518 547.027 65.9727 547.041C65.939 547.043 65.9054 547.044 65.8718 547.047C64.6502 547.046 63.4285 547.043 62.2069 547.041C61.9323 547.041 61.6577 547.048 61.3831 547.039C61.2556 547.034 61.222 547.074 61.2234 547.2C61.229 547.816 61.2262 548.433 61.2262 549.049C61.2262 550.585 61.2276 552.12 61.2248 553.655C61.2234 554.331 60.5594 554.747 59.9822 554.434C59.6656 554.263 59.5353 553.98 59.5353 553.627C59.5367 551.677 59.5353 549.727 59.5353 547.777C59.5353 547.581 59.5311 547.385 59.5367 547.189C59.5395 547.085 59.5143 547.034 59.398 547.04C59.2074 547.05 59.0169 547.046 58.8264 547.047C58.2912 547.026 57.9564 546.76 57.8962 546.31C57.8303 545.814 58.2072 545.373 58.7073 545.362C58.832 545.358 58.9553 545.356 59.0786 545.355Z" fill="#FD5B24"/>
<path d="M62.6342 567.383C62.3876 567.383 62.141 567.376 61.8945 567.386C61.7726 567.39 61.7305 567.362 61.7333 567.232C61.7432 566.868 61.7305 566.504 61.7404 566.139C61.7446 566.006 61.6969 565.966 61.5722 565.932C60.2315 565.561 59.2396 564.778 58.7073 563.466C58.5784 563.148 58.5055 562.816 58.4733 562.474C58.4649 562.386 58.4817 562.348 58.5812 562.334C59.1738 562.252 59.7664 562.163 60.3576 562.074C60.4585 562.058 60.5061 562.071 60.5103 562.193C60.5173 562.404 60.5397 562.616 60.5944 562.823C60.7583 563.451 61.1505 563.847 61.7838 563.989C62.3848 564.123 62.983 564.143 63.5518 563.852C64.0183 563.612 64.2439 563.171 64.1668 562.675C64.129 562.435 64.0001 562.252 63.818 562.1C63.5238 561.857 63.1721 561.725 62.8191 561.599C62.1774 561.37 61.5148 561.194 60.8984 560.897C60.09 560.507 59.454 559.955 59.2116 559.052C59.0155 558.319 59.0239 557.586 59.3125 556.878C59.6641 556.015 60.3534 555.531 61.208 555.25C61.3411 555.206 61.477 555.171 61.6129 555.145C61.7067 555.126 61.739 555.086 61.7376 554.986C61.7319 554.616 61.7418 554.247 61.7319 553.877C61.7277 553.738 61.7754 553.71 61.9029 553.713C62.3848 553.72 62.8667 553.72 63.3486 553.713C63.4845 553.71 63.5322 553.739 63.528 553.885C63.5168 554.255 63.5252 554.625 63.5238 554.995C63.5238 555.068 63.5266 555.121 63.6162 555.139C65.1363 555.467 65.9208 556.491 66.2556 557.938C66.3453 558.326 66.3453 558.329 65.96 558.385C65.4179 558.463 64.8729 558.532 64.3307 558.616C64.213 558.634 64.192 558.594 64.1752 558.497C64.15 558.36 64.1192 558.223 64.0757 558.091C63.8446 557.386 63.4411 557.07 62.7014 557.019C62.3736 556.997 62.0528 557.03 61.7488 557.165C61.3691 557.333 61.1463 557.623 61.1071 558.039C61.0679 558.458 61.2416 558.777 61.589 559.007C61.9449 559.242 62.3484 559.36 62.749 559.482C63.4327 559.689 64.1276 559.864 64.7622 560.21C65.6868 560.716 66.1576 561.498 66.2206 562.543C66.278 563.498 66.0231 564.336 65.3198 565.01C64.8687 565.443 64.3293 565.719 63.7283 565.87C63.5588 565.912 63.5112 565.981 63.5196 566.152C63.535 566.516 63.521 566.88 63.5266 567.245C63.528 567.351 63.5028 567.39 63.3893 567.386C63.1385 567.376 62.8863 567.383 62.6342 567.383Z" fill="#FF985F"/>
<path d="M59.3342 563.972L60.3148 563.972L60.3148 562.977L60.8681 562.312L61.9748 563.972L63.0674 563.972L61.4565 561.612L62.8503 559.938L61.7436 559.938L60.3148 561.801L60.3148 558.544L59.3342 558.544L59.3342 563.972Z" fill="#FFF4EC"/>
<path d="M65.3511 560.925C65.4912 560.925 65.6593 560.96 65.8134 561.016L65.8765 559.881C65.7854 559.846 65.6733 559.825 65.5683 559.825C65.183 559.825 64.7068 560.022 64.3916 560.792L64.3916 559.938L63.404 559.938L63.404 563.972L64.3916 563.972L64.3916 561.997C64.3916 561.135 64.8819 560.925 65.3511 560.925Z" fill="#FFF4EC"/>
<path fill-rule="evenodd" clip-rule="evenodd" d="M77.2159 581.994C91.4381 581.994 102.968 570.464 102.968 556.242C102.968 555.582 102.943 554.928 102.894 554.281L68.8663 554.281C67.6731 554.281 66.7061 555.248 66.7061 556.441L66.7061 579.758C69.9153 581.195 73.4723 581.994 77.2159 581.994Z" fill="#C8C5D6"/>
<path fill-rule="evenodd" clip-rule="evenodd" d="M102.742 559.669C102.891 558.548 102.968 557.404 102.968 556.242C102.968 555.582 102.943 554.928 102.894 554.281L68.9437 554.281C67.7077 554.281 66.7061 555.283 66.7061 556.518L66.7061 559.669L102.742 559.669Z" fill="#48367D"/>
<path d="M72.3042 556.996C72.3042 557.614 71.8038 558.115 71.1859 558.115C70.5681 558.115 70.0669 557.614 70.0669 556.996C70.0669 556.378 70.5681 555.877 71.1859 555.877C71.8038 555.877 72.3042 556.378 72.3042 556.996Z" fill="white"/>
<path d="M75.9756 556.975C75.9756 557.593 75.4748 558.094 74.8573 558.094C74.2391 558.094 73.7383 557.593 73.7383 556.975C73.7383 556.357 74.2391 555.856 74.8573 555.856C75.4748 555.856 75.9756 556.357 75.9756 556.975Z" fill="white"/>
<path d="M79.7056 556.975C79.7056 557.593 79.2048 558.094 78.5873 558.094C77.9694 558.094 77.4683 557.593 77.4683 556.975C77.4683 556.357 77.9694 555.856 78.5873 555.856C79.2048 555.856 79.7056 556.357 79.7056 556.975Z" fill="white"/>
<path d="M202.288 396.144C202.048 394.672 200.784 393.88 199.528 393.88C197.816 393.88 196.4 395.12 196.4 396.96C196.4 398.928 197.832 400.12 199.552 400.12C200.712 400.12 202.16 399.344 202.336 397.696L201.256 397.536C201.168 398.728 200.352 399.096 199.552 399.096C198.416 399.096 197.528 398.448 197.528 396.96C197.528 395.608 198.416 394.904 199.488 394.904C200.224 394.904 201.032 395.208 201.208 396.304L202.288 396.144ZM207.462 400L207.462 395.392L206.462 395.392L206.462 398.072C206.462 398.856 205.942 399.216 205.27 399.216C204.654 399.216 204.35 398.944 204.35 398.232L204.35 395.392L203.35 395.392L203.35 398.608C203.35 399.672 204.118 400.12 204.886 400.12C205.462 400.12 206.102 399.856 206.462 399.224L206.462 400L207.462 400ZM208.63 396.688C208.63 397.328 208.998 397.8 209.782 397.968L210.622 398.152C211.198 398.28 211.358 398.448 211.358 398.72C211.358 399.104 210.982 399.32 210.43 399.32C209.782 399.32 209.358 399.016 209.294 398.448L208.406 398.608C208.558 399.68 209.558 400.12 210.454 400.12C211.342 400.12 212.286 399.624 212.286 398.624C212.286 397.984 211.91 397.552 211.094 397.376L210.182 397.176C209.718 397.072 209.558 396.848 209.558 396.608C209.558 396.272 209.878 396.064 210.334 396.064C210.886 396.064 211.294 396.264 211.326 396.864L212.214 396.704C211.95 395.672 211.254 395.264 210.326 395.264C209.574 395.264 208.63 395.68 208.63 396.688ZM213.617 394.28L213.617 395.392L212.761 395.392L212.761 396.2L213.617 396.2L213.617 398.704C213.617 399.552 214.041 400.08 214.961 400.08C215.241 400.08 215.569 400.008 215.809 399.936L215.649 399.128C215.465 399.176 215.353 399.2 215.169 399.2C214.761 399.2 214.617 399.016 214.617 398.656L214.617 396.2L215.769 396.2L215.769 395.392L214.617 395.392L214.617 394.12L213.617 394.28ZM218.741 395.264C217.493 395.264 216.461 396.176 216.461 397.688C216.461 399.2 217.493 400.12 218.741 400.12C219.989 400.12 221.021 399.2 221.021 397.688C221.021 396.176 219.989 395.264 218.741 395.264ZM218.741 396.128C219.429 396.128 220.013 396.632 220.013 397.688C220.013 398.744 219.429 399.256 218.741 399.256C218.053 399.256 217.469 398.744 217.469 397.688C217.469 396.632 218.053 396.128 218.741 396.128ZM227.111 396.168C227.679 396.168 228.111 396.488 228.111 397.344L228.111 400L229.111 400L229.111 396.912C229.111 395.672 228.351 395.264 227.511 395.264C226.999 395.264 226.351 395.472 226.007 396.16C225.759 395.504 225.175 395.264 224.559 395.264C224.007 395.264 223.343 395.48 223.015 396.072L223.015 395.392L222.015 395.392L222.015 400L223.015 400L223.015 397.368C223.015 396.544 223.487 396.168 224.127 396.168C224.695 396.168 225.127 396.488 225.127 397.344L225.127 400L226.127 400L226.127 397.368C226.127 396.544 226.543 396.168 227.111 396.168ZM232.375 396.128C233.023 396.128 233.535 396.432 233.615 397.2L231.111 397.2C231.247 396.488 231.711 396.128 232.375 396.128ZM234.559 397.912L234.559 397.584C234.559 396.224 233.663 395.264 232.415 395.264C231.079 395.264 230.063 396.2 230.063 397.68C230.063 399.2 231.119 400.12 232.479 400.12C233.327 400.12 234.351 399.632 234.527 398.568L233.599 398.408C233.495 398.936 233.191 399.256 232.439 399.256C231.607 399.256 231.151 398.72 231.079 397.912L234.559 397.912ZM237.754 396.344C238.002 396.344 238.178 396.376 238.354 396.448L238.45 395.328C238.354 395.28 238.218 395.264 238.098 395.264C237.642 395.264 236.922 395.528 236.546 396.496L236.546 395.392L235.546 395.392L235.546 400L236.546 400L236.546 397.984C236.546 396.704 237.106 396.344 237.754 396.344ZM198.848 409.344C199.096 409.344 199.272 409.376 199.448 409.448L199.544 408.328C199.448 408.28 199.312 408.264 199.192 408.264C198.736 408.264 198.016 408.528 197.64 409.496L197.64 408.392L196.64 408.392L196.64 413L197.64 413L197.64 410.984C197.64 409.704 198.2 409.344 198.848 409.344ZM202.32 409.128C202.968 409.128 203.48 409.432 203.56 410.2L201.056 410.2C201.192 409.488 201.656 409.128 202.32 409.128ZM204.504 410.912L204.504 410.584C204.504 409.224 203.608 408.264 202.36 408.264C201.024 408.264 200.008 409.2 200.008 410.68C200.008 412.2 201.064 413.12 202.424 413.12C203.272 413.12 204.296 412.632 204.472 411.568L203.544 411.408C203.44 411.936 203.136 412.256 202.384 412.256C201.552 412.256 201.096 411.72 201.024 410.912L204.504 410.912ZM206.492 408.392L205.492 408.392L205.492 413.024C205.492 413.552 205.316 413.776 204.964 413.776C204.86 413.776 204.732 413.752 204.58 413.696L204.42 414.472C204.596 414.536 204.852 414.6 205.132 414.6C205.972 414.6 206.492 414.072 206.492 413.096L206.492 408.392ZM205.988 406.4C205.652 406.4 205.388 406.672 205.388 407C205.388 407.328 205.652 407.6 205.988 407.6C206.324 407.6 206.588 407.328 206.588 407C206.588 406.672 206.324 406.4 205.988 406.4ZM209.797 409.128C210.445 409.128 210.957 409.432 211.037 410.2L208.533 410.2C208.669 409.488 209.133 409.128 209.797 409.128ZM211.981 410.912L211.981 410.584C211.981 409.224 211.085 408.264 209.837 408.264C208.501 408.264 207.485 409.2 207.485 410.68C207.485 412.2 208.541 413.12 209.901 413.12C210.749 413.12 211.773 412.632 211.949 411.568L211.021 411.408C210.917 411.936 210.613 412.256 209.861 412.256C209.029 412.256 208.573 411.72 208.501 410.912L211.981 410.912ZM217.224 410.184C217.056 408.944 216.072 408.264 215 408.264C213.68 408.264 212.68 409.2 212.68 410.688C212.68 412.112 213.664 413.12 215.072 413.12C215.96 413.12 217 412.632 217.216 411.224L216.304 411.064C216.2 411.848 215.768 412.248 215.064 412.248C214.128 412.248 213.688 411.536 213.688 410.688C213.688 409.664 214.248 409.128 214.952 409.128C215.592 409.128 216.128 409.472 216.24 410.344L217.224 410.184ZM218.515 407.28L218.515 408.392L217.659 408.392L217.659 409.2L218.515 409.2L218.515 411.704C218.515 412.552 218.939 413.08 219.859 413.08C220.139 413.08 220.467 413.008 220.707 412.936L220.547 412.128C220.363 412.176 220.251 412.2 220.067 412.2C219.659 412.2 219.515 412.016 219.515 411.656L219.515 409.2L220.667 409.2L220.667 408.392L219.515 408.392L219.515 407.12L218.515 407.28ZM221.552 409.688C221.552 410.328 221.92 410.8 222.704 410.968L223.544 411.152C224.12 411.28 224.28 411.448 224.28 411.72C224.28 412.104 223.904 412.32 223.352 412.32C222.704 412.32 222.28 412.016 222.216 411.448L221.328 411.608C221.48 412.68 222.48 413.12 223.376 413.12C224.264 413.12 225.208 412.624 225.208 411.624C225.208 410.984 224.832 410.552 224.016 410.376L223.104 410.176C222.64 410.072 222.48 409.848 222.48 409.608C222.48 409.272 222.8 409.064 223.256 409.064C223.808 409.064 224.216 409.264 224.248 409.864L225.136 409.704C224.872 408.672 224.176 408.264 223.248 408.264C222.496 408.264 221.552 408.68 221.552 409.688Z" fill="#49367E"/>
<path d="M170.294 404C170.294 418.507 158.534 430.267 144.027 430.267C129.52 430.267 117.76 418.507 117.76 404C117.76 389.493 129.52 377.733 144.027 377.733C158.534 377.733 170.294 389.493 170.294 404Z" fill="#EEEDF3"/>
<path d="M150.198 410.247L135.29 413.167C133.855 413.448 132.464 412.512 132.182 411.077L126.296 381.024C126.015 379.588 126.951 378.197 128.385 377.916L143.294 374.996C144.729 374.715 146.12 375.65 146.401 377.086L152.288 407.139C152.569 408.574 151.634 409.966 150.198 410.247Z" fill="#FF5A23"/>
<path d="M151.938 405.162L131.832 409.1L126.75 383.153L146.855 379.215L151.938 405.162Z" fill="#FF985F"/>
<path d="M143.543 399.398L137.363 400.608C135.796 400.915 134.262 399.884 133.955 398.316L132.745 392.136C132.438 390.569 133.469 389.035 135.037 388.728L141.217 387.518C142.784 387.211 144.318 388.242 144.625 389.81L145.835 395.99C146.142 397.557 145.111 399.091 143.543 399.398Z" fill="white"/>
<path fill-rule="evenodd" clip-rule="evenodd" d="M141.697 396.248C141.856 396.356 142.073 396.313 142.181 396.153L142.24 396.065C142.347 395.905 142.305 395.689 142.145 395.581L139.856 394.042L141.395 391.752C141.503 391.592 141.46 391.376 141.3 391.268L141.212 391.209C141.053 391.101 140.836 391.144 140.728 391.304L139.189 393.593L136.899 392.054C136.739 391.946 136.523 391.988 136.415 392.148L136.356 392.236C136.248 392.396 136.291 392.613 136.451 392.72L138.74 394.26L137.201 396.55C137.093 396.709 137.136 396.926 137.295 397.034L137.383 397.093C137.543 397.2 137.76 397.158 137.868 396.998L139.407 394.709L141.697 396.248Z" fill="#48367D"/>
<path d="M166.215 416.485L166.331 415.802L167.68 405.209L161.294 400.431L152.303 402.985L153.138 416.852C157.367 417.868 161.56 417.718 166.215 416.485Z" fill="#FFD3BA"/>
<path d="M154.518 408.472C153.79 407.874 153.471 406.866 153.793 405.923C154.828 402.893 154.967 401.158 155.021 399.64C155.066 398.356 156.144 397.352 157.427 397.398C158.711 397.444 159.715 398.521 159.669 399.805C159.591 402.017 159.31 404.16 158.195 407.425C157.78 408.641 156.459 409.29 155.243 408.875C154.971 408.782 154.727 408.644 154.518 408.472Z" fill="#FFD3BA"/>
<path d="M159.029 407.825C158.281 407.21 157.969 406.164 158.33 405.207C158.952 403.558 159.227 402.035 159.149 400.681C159.075 399.398 160.055 398.299 161.337 398.225C162.619 398.151 163.719 399.13 163.793 400.412C163.909 402.42 163.535 404.586 162.682 406.848C162.229 408.05 160.888 408.657 159.686 408.204C159.441 408.112 159.221 407.982 159.029 407.825Z" fill="#FFD3BA"/>
<path d="M163.877 408.907C163.045 408.412 162.579 407.426 162.792 406.425C163.158 404.701 163.202 403.154 162.92 401.827C162.654 400.57 163.457 399.335 164.714 399.069C165.97 398.803 167.205 399.605 167.471 400.862C167.888 402.83 167.845 405.027 167.342 407.392C167.075 408.648 165.84 409.45 164.584 409.183C164.328 409.129 164.091 409.034 163.877 408.907Z" fill="#FFD3BA"/>
<path d="M152.714 423.187C152.086 418.533 150.524 417.003 150.295 416.696C150.077 416.405 148.04 414.11 147.289 412.745C146.358 411.052 145.261 408.638 146.212 406.665C147.144 404.732 149.471 405.12 151.279 403.676L155.154 402.261C156.693 401.997 158.154 403.031 158.418 404.57C158.682 406.109 157.648 407.57 156.109 407.834L155.346 408.655C155.066 408.769 155.304 409.558 155.377 409.888C155.819 410.677 154.261 412.147 154.983 413.115C155.917 414.366 155.659 416.138 154.408 417.072C153.463 417.777 152.862 424.286 152.714 423.187Z" fill="#FFD3BA"/>
<path fill-rule="evenodd" clip-rule="evenodd" d="M152.293 428.94C152.224 421.361 151.963 413.406 151.197 411.723C149.656 408.335 164.298 412.912 164.298 412.912C164.298 412.912 166.728 407.039 166.462 417.668C163.251 422.927 158.244 426.969 152.293 428.94Z" fill="#FFD3BA"/>
<path d="M146.685 393.353C146.685 393.353 150.559 394.549 151.979 396.494C154.081 399.372 153.434 403.784 151.561 407.074" stroke="#FFD2BA" stroke-width="3.91946" stroke-linecap="round" stroke-linejoin="round"/>
<path d="M104.267 214.027C104.267 228.534 92.5068 240.293 77.9998 240.293C63.4931 240.293 51.7329 228.534 51.7329 214.027C51.7329 199.52 63.4931 187.76 77.9998 187.76C92.5068 187.76 104.267 199.52 104.267 214.027Z" fill="#EEEDF3"/>
<path d="M90.5801 227.765L78.2497 227.765C76.6811 227.765 75.4097 226.493 75.4097 224.925L75.4097 199.027C75.4097 197.458 76.6811 196.187 78.2497 196.187L90.5801 196.187C92.1483 196.187 93.4201 197.458 93.4201 199.027L93.4201 224.925C93.4201 226.493 92.1483 227.765 90.5801 227.765Z" fill="#FF5B23"/>
<path d="M93.4201 223.612L75.4097 223.612L75.4097 200.368L93.4201 200.368L93.4201 223.612Z" fill="#FF975E"/>
<path d="M83.6618 215.611L54.9851 228.521L60.6098 240.28L73.5795 228.814C73.6481 228.75 83.7469 215.572 83.6618 215.611Z" fill="#48367D"/>
<path d="M84.1254 215.251L62.4756 231.456L74.7524 235.682C75.3388 235.884 75.9885 235.684 76.3608 235.188L84.358 215.576C84.5681 215.313 84.2579 215.165 84.1254 215.251Z" fill="#C8C5D6"/>
<path d="M62.4751 231.456L60.6094 240.28L69.6979 233.942L62.4751 231.456Z" fill="white"/>
<path d="M84.1602 215.238L46.673 224.46C45.9987 224.658 45.9855 225.609 46.6544 225.826L54.9854 228.521L84.275 215.413C84.3461 215.381 84.3682 215.199 84.1602 215.238Z" fill="#C8C5D6"/>
<path d="M104.214 479.947C104.214 494.454 92.4538 506.214 77.947 506.214C63.4403 506.214 51.6802 494.454 51.6802 479.947C51.6802 465.44 63.4403 453.68 77.9471 453.68C92.4538 453.68 104.214 465.44 104.214 479.947Z" fill="#EEEDF3"/>
<path fill-rule="evenodd" clip-rule="evenodd" d="M80.9645 506.043C80.9595 496.478 80.9642 485.93 81.0052 483.533C81.1691 473.946 90.6216 475.989 90.6216 475.989L102.086 483.533L102.083 490.329C98.4376 498.791 90.4723 504.955 80.9645 506.043Z" fill="#FFD3BB"/>
<path d="M98.6756 486.296L82.0462 489.554C80.4455 489.867 78.8933 488.823 78.5798 487.223L72.0136 453.699C71.7 452.098 72.7438 450.546 74.3444 450.233L90.9739 446.976C92.5748 446.662 94.1267 447.706 94.4403 449.306L101.006 482.83C101.32 484.431 100.277 485.983 98.6756 486.296Z" fill="#FF5A23"/>
<path d="M100.616 480.624L78.1889 485.017L72.5198 456.074L94.9465 451.681L100.616 480.624Z" fill="#FF985F"/>
<path d="M81.2563 473.883L78.9978 462.338C78.9815 462.255 78.9934 462.17 79.0311 462.102L80.9499 458.613C80.9872 458.545 81.0471 458.499 81.1166 458.486L89.3847 456.866C89.7976 456.786 90.2101 457.12 90.3067 457.614L93.0409 471.576C93.1375 472.069 92.8818 472.535 92.4689 472.616L82.1784 474.631C81.7658 474.712 81.3527 474.377 81.2563 473.883Z" fill="#EEEDF3"/>
<path d="M79.082 461.519L80.5256 458.894C80.6357 458.694 80.8088 458.558 81.0083 458.507L81.5146 461.092C81.579 461.421 81.4083 461.731 81.1333 461.785L78.9723 462.208C78.9352 461.965 78.972 461.719 79.082 461.519Z" fill="#C8C5D6"/>
<path fill-rule="evenodd" clip-rule="evenodd" d="M89.172 462.325C89.3904 462.425 89.4857 462.684 89.3848 462.903L86.4628 469.229C86.4142 469.334 86.3256 469.415 86.2168 469.455C86.1079 469.495 85.9876 469.49 85.8827 469.441L83.2364 468.202C83.0185 468.1 82.9245 467.841 83.0265 467.623C83.1285 467.405 83.3878 467.311 83.6057 467.413L85.8555 468.466L88.5939 462.537C88.6948 462.319 88.9536 462.224 89.172 462.325Z" fill="#48367D"/>
<path d="M78.214 475.167L72.2646 475.63C70.6667 475.754 69.2708 474.56 69.1464 472.962C69.0219 471.364 70.217 469.968 71.8145 469.844L77.764 469.381C79.3616 469.256 80.7576 470.451 80.882 472.048C81.0065 473.647 79.8119 475.043 78.214 475.167Z" fill="#FFD3BB"/>
<path d="M78.7096 480.604L72.7603 481.066C71.1623 481.191 69.7665 479.996 69.642 478.398C69.5175 476.8 70.7121 475.404 72.3101 475.28L78.2594 474.817C79.8573 474.693 81.2532 475.888 81.3776 477.485C81.502 479.083 80.3076 480.479 78.7096 480.604Z" fill="#FFD3BB"/>
<path d="M79.7094 485.932L73.7599 486.395C72.1624 486.519 70.7657 485.324 70.6416 483.727C70.5174 482.129 71.712 480.733 73.3096 480.608L79.2592 480.146C80.8569 480.021 82.2531 481.216 82.3775 482.813C82.5019 484.411 81.3071 485.808 79.7094 485.932Z" fill="#FFD3BB"/>
<path fill-rule="evenodd" clip-rule="evenodd" d="M100.743 493.006C100.364 493.154 99.9535 493.297 99.5107 493.428C96.3428 494.365 91.6133 490.26 91.6133 490.26C91.6133 490.26 91.7471 488.564 91.9702 486.735C92.1933 484.906 93.3534 483.255 93.9334 482.719C91.6133 482.228 89.9624 481.425 88.7577 479.819C87.5078 478.152 86.6161 476.696 86.393 474.108C86.1699 471.52 87.1069 470.583 88.2223 470.048C89.3378 469.512 90.3194 469.78 91.3902 470.315C92.2235 470.732 92.716 472.327 92.818 473.483C92.9518 475 93.2941 475.371 93.978 476.027C94.5045 476.531 95.6289 476.517 96.3874 476.428C97.1459 476.339 97.8342 476.379 99.1537 476.696C100.269 476.964 101.385 477.722 102.322 478.971C103.342 480.332 103.682 481.982 103.905 483.986C103.405 487.226 102.313 490.271 100.743 493.006Z" fill="#FFD3BB"/>
</svg>
