<svg width="1490" height="507" viewBox="0 0 1490 507" fill="none" xmlns="http://www.w3.org/2000/svg">
<rect width="1490" height="507" fill="white"/>
<line x1="1005" y1="314" x2="1005" y2="173" stroke="#49367E" stroke-width="2" stroke-dasharray="8 8"/>
<line x1="115" y1="174" x2="1361" y2="174" stroke="#FF5B24" stroke-width="2"/>
<circle cx="471" cy="174" r="10" transform="rotate(-90 471 174)" fill="white" stroke="#FF5B24" stroke-width="4"/>
<circle cx="827" cy="174" r="10" transform="rotate(-90 827 174)" fill="white" stroke="#FF5B24" stroke-width="4"/>
<circle cx="293" cy="174" r="10" transform="rotate(-90 293 174)" fill="white" stroke="#FF5B24" stroke-width="4"/>
<path d="M114.5 164C120.377 164 125 168.553 125 174C125 179.447 120.377 184 114.5 184C108.623 184 104 179.447 104 174C104 168.553 108.623 164 114.5 164Z" fill="white" stroke="#FF5B24" stroke-width="4"/>
<path d="M576.408 267L576.408 279L578.504 279L578.504 267L576.408 267ZM580.994 270.216C580.994 274.84 587.634 273.32 587.634 275.864C587.634 276.776 586.93 277.384 585.57 277.384C584.274 277.384 582.786 276.952 582.578 274.904L580.514 275.384C580.834 277.96 583.106 279.24 585.506 279.24C587.634 279.24 589.73 278.024 589.73 275.736C589.73 271.256 583.122 272.888 583.122 270.136C583.122 269.192 583.842 268.616 585.074 268.616C586.146 268.616 587.346 269.096 587.442 270.76L589.554 270.28C589.202 267.8 587.058 266.76 585.17 266.76C583.074 266.76 580.994 267.912 580.994 270.216ZM593.926 268.872L596.07 268.872C597.43 268.872 598.198 269.672 598.198 271.16C598.198 272.568 597.43 273.368 596.038 273.368L593.926 273.368L593.926 268.872ZM591.83 267L591.83 279L593.926 279L593.926 275.24L596.246 275.24C598.806 275.24 600.438 273.448 600.438 271.128C600.438 268.44 598.902 267 596.23 267L591.83 267ZM606.604 272.376C606.604 273.656 607.34 274.6 608.908 274.936L610.588 275.304C611.74 275.56 612.06 275.896 612.06 276.44C612.06 277.208 611.308 277.64 610.204 277.64C608.908 277.64 608.06 277.032 607.932 275.896L606.156 276.216C606.46 278.36 608.46 279.24 610.252 279.24C612.028 279.24 613.916 278.248 613.916 276.248C613.916 274.968 613.164 274.104 611.532 273.752L609.708 273.352C608.78 273.144 608.46 272.696 608.46 272.216C608.46 271.544 609.1 271.128 610.012 271.128C611.116 271.128 611.932 271.528 611.996 272.728L613.772 272.408C613.244 270.344 611.852 269.528 609.996 269.528C608.492 269.528 606.604 270.36 606.604 272.376ZM619.922 271.256C621.218 271.256 622.242 271.864 622.402 273.4L617.394 273.4C617.666 271.976 618.594 271.256 619.922 271.256ZM624.29 274.824L624.29 274.168C624.29 271.448 622.498 269.528 620.002 269.528C617.33 269.528 615.298 271.4 615.298 274.36C615.298 277.4 617.41 279.24 620.13 279.24C621.826 279.24 623.874 278.264 624.226 276.136L622.37 275.816C622.162 276.872 621.554 277.512 620.05 277.512C618.386 277.512 617.474 276.44 617.33 274.824L624.29 274.824ZM630.536 271.336C631.624 271.336 632.488 271.976 632.488 273.688L632.488 279L634.488 279L634.488 272.824C634.488 270.344 632.92 269.528 631.272 269.528C630.184 269.528 628.92 269.976 628.264 271.144L628.264 269.784L626.264 269.784L626.264 279L628.264 279L628.264 273.736C628.264 272.088 629.208 271.336 630.536 271.336ZM645.624 266.6L643.623 266.6L643.623 271.592C642.967 270.136 641.975 269.528 640.727 269.528C638.583 269.528 636.455 271.08 636.455 274.296C636.455 277.672 638.599 279.24 640.471 279.24C642.151 279.24 643.159 278.36 643.623 277.256L643.623 279L645.623 279L645.624 266.6ZM641.063 271.256C642.407 271.256 643.623 272.328 643.623 274.408C643.623 276.552 642.407 277.496 641.047 277.496C639.783 277.496 638.471 276.504 638.471 274.408C638.471 272.28 639.799 271.256 641.063 271.256ZM647.994 272.376C647.994 273.656 648.73 274.6 650.298 274.936L651.978 275.304C653.13 275.56 653.45 275.896 653.45 276.44C653.45 277.208 652.698 277.64 651.594 277.64C650.298 277.64 649.45 277.032 649.322 275.896L647.546 276.216C647.85 278.36 649.85 279.24 651.642 279.24C653.418 279.24 655.306 278.248 655.306 276.248C655.306 274.968 654.554 274.104 652.922 273.752L651.098 273.352C650.17 273.144 649.85 272.696 649.85 272.216C649.85 271.544 650.49 271.128 651.402 271.128C652.506 271.128 653.322 271.528 653.386 272.728L655.162 272.408C654.634 270.344 653.242 269.528 651.386 269.528C649.882 269.528 647.994 270.36 647.994 272.376ZM661.577 269.784L661.577 279L663.577 279L663.577 269.784L661.577 269.784ZM662.569 265.8C661.897 265.8 661.369 266.344 661.369 267C661.369 267.656 661.897 268.2 662.569 268.2C663.241 268.2 663.769 267.656 663.769 267C663.769 266.344 663.241 265.8 662.569 265.8ZM670.411 271.336C671.499 271.336 672.363 271.976 672.363 273.688L672.363 279L674.363 279L674.363 272.824C674.363 270.344 672.795 269.528 671.147 269.528C670.059 269.528 668.795 269.976 668.139 271.144L668.139 269.784L666.139 269.784L666.139 279L668.139 279L668.139 273.736C668.139 272.088 669.083 271.336 670.411 271.336ZM685.002 269.784L682.778 269.784L680.41 276.744L678.026 269.784L675.802 269.784L679.482 279L681.322 279L685.002 269.784ZM690.514 269.528C688.018 269.528 685.954 271.352 685.954 274.376C685.954 277.4 688.018 279.24 690.514 279.24C693.01 279.24 695.074 277.4 695.074 274.376C695.074 271.352 693.01 269.528 690.514 269.528ZM690.514 271.256C691.89 271.256 693.058 272.264 693.058 274.376C693.058 276.488 691.89 277.512 690.514 277.512C689.138 277.512 687.97 276.488 687.97 274.376C687.97 272.264 689.138 271.256 690.514 271.256ZM697.061 269.784L697.061 279L699.061 279L699.061 269.784L697.061 269.784ZM698.053 265.8C697.381 265.8 696.853 266.344 696.853 267C696.853 267.656 697.381 268.2 698.053 268.2C698.725 268.2 699.253 267.656 699.253 267C699.253 266.344 698.725 265.8 698.053 265.8ZM710.136 273.368C709.8 270.888 707.832 269.528 705.688 269.528C703.048 269.528 701.048 271.4 701.048 274.376C701.048 277.224 703.016 279.24 705.832 279.24C707.608 279.24 709.688 278.264 710.12 275.448L708.296 275.128C708.088 276.696 707.224 277.496 705.816 277.496C703.944 277.496 703.064 276.072 703.064 274.376C703.064 272.328 704.184 271.256 705.592 271.256C706.872 271.256 707.944 271.944 708.168 273.688L710.136 273.368ZM716.062 271.256C717.358 271.256 718.382 271.864 718.542 273.4L713.534 273.4C713.806 271.976 714.734 271.256 716.062 271.256ZM720.43 274.824L720.43 274.168C720.43 271.448 718.638 269.528 716.142 269.528C713.47 269.528 711.438 271.4 711.438 274.36C711.438 277.4 713.55 279.24 716.27 279.24C717.966 279.24 720.014 278.264 720.366 276.136L718.51 275.816C718.302 276.872 717.694 277.512 716.19 277.512C714.526 277.512 713.614 276.44 713.47 274.824L720.43 274.824Z" fill="#FF5B24"/>
<path d="M1113.62 271.288C1113.14 268.344 1110.61 266.76 1108.1 266.76C1104.67 266.76 1101.84 269.24 1101.84 272.92C1101.84 276.856 1104.7 279.24 1108.14 279.24C1110.46 279.24 1113.36 277.688 1113.71 274.392L1111.55 274.072C1111.38 276.456 1109.74 277.192 1108.14 277.192C1105.87 277.192 1104.1 275.896 1104.1 272.92C1104.1 270.216 1105.87 268.808 1108.02 268.808C1109.49 268.808 1111.1 269.416 1111.46 271.608L1113.62 271.288ZM1123.96 279L1123.96 269.784L1121.96 269.784L1121.96 275.144C1121.96 276.712 1120.92 277.432 1119.58 277.432C1118.35 277.432 1117.74 276.888 1117.74 275.464L1117.74 269.784L1115.74 269.784L1115.74 276.216C1115.74 278.344 1117.28 279.24 1118.81 279.24C1119.96 279.24 1121.24 278.712 1121.96 277.448L1121.96 279L1123.96 279ZM1126.3 272.376C1126.3 273.656 1127.03 274.6 1128.6 274.936L1130.28 275.304C1131.43 275.56 1131.75 275.896 1131.75 276.44C1131.75 277.208 1131 277.64 1129.9 277.64C1128.6 277.64 1127.75 277.032 1127.63 275.896L1125.85 276.216C1126.15 278.36 1128.15 279.24 1129.95 279.24C1131.72 279.24 1133.61 278.248 1133.61 276.248C1133.61 274.968 1132.86 274.104 1131.23 273.752L1129.4 273.352C1128.47 273.144 1128.15 272.696 1128.15 272.216C1128.15 271.544 1128.79 271.128 1129.71 271.128C1130.81 271.128 1131.63 271.528 1131.69 272.728L1133.47 272.408C1132.94 270.344 1131.55 269.528 1129.69 269.528C1128.19 269.528 1126.3 270.36 1126.3 272.376ZM1136.27 267.56L1136.27 269.784L1134.56 269.784L1134.56 271.4L1136.27 271.4L1136.27 276.408C1136.27 278.104 1137.12 279.16 1138.96 279.16C1139.52 279.16 1140.18 279.016 1140.66 278.872L1140.34 277.256C1139.97 277.352 1139.75 277.4 1139.38 277.4C1138.56 277.4 1138.27 277.032 1138.27 276.312L1138.27 271.4L1140.58 271.4L1140.58 269.784L1138.27 269.784L1138.27 267.24L1136.27 267.56ZM1146.52 269.528C1144.03 269.528 1141.96 271.352 1141.96 274.376C1141.96 277.4 1144.03 279.24 1146.52 279.24C1149.02 279.24 1151.08 277.4 1151.08 274.376C1151.08 271.352 1149.02 269.528 1146.52 269.528ZM1146.52 271.256C1147.9 271.256 1149.07 272.264 1149.07 274.376C1149.07 276.488 1147.9 277.512 1146.52 277.512C1145.15 277.512 1143.98 276.488 1143.98 274.376C1143.98 272.264 1145.15 271.256 1146.52 271.256ZM1163.26 271.336C1164.4 271.336 1165.26 271.976 1165.26 273.688L1165.26 279L1167.26 279L1167.26 272.824C1167.26 270.344 1165.74 269.528 1164.06 269.528C1163.04 269.528 1161.74 269.944 1161.05 271.32C1160.56 270.008 1159.39 269.528 1158.16 269.528C1157.05 269.528 1155.73 269.96 1155.07 271.144L1155.07 269.784L1153.07 269.784L1153.07 279L1155.07 279L1155.07 273.736C1155.07 272.088 1156.01 271.336 1157.29 271.336C1158.43 271.336 1159.29 271.976 1159.29 273.688L1159.29 279L1161.29 279L1161.29 273.736C1161.29 272.088 1162.13 271.336 1163.26 271.336ZM1173.79 271.256C1175.08 271.256 1176.11 271.864 1176.27 273.4L1171.26 273.4C1171.53 271.976 1172.46 271.256 1173.79 271.256ZM1178.16 274.824L1178.16 274.168C1178.16 271.448 1176.36 269.528 1173.87 269.528C1171.2 269.528 1169.16 271.4 1169.16 274.36C1169.16 277.4 1171.28 279.24 1174 279.24C1175.69 279.24 1177.74 278.264 1178.09 276.136L1176.24 275.816C1176.03 276.872 1175.42 277.512 1173.92 277.512C1172.25 277.512 1171.34 276.44 1171.2 274.824L1178.16 274.824ZM1184.55 271.688C1185.04 271.688 1185.4 271.752 1185.75 271.896L1185.94 269.656C1185.75 269.56 1185.48 269.528 1185.24 269.528C1184.32 269.528 1182.88 270.056 1182.13 271.992L1182.13 269.784L1180.13 269.784L1180.13 279L1182.13 279L1182.13 274.968C1182.13 272.408 1183.25 271.688 1184.55 271.688ZM1200.27 273.368C1199.93 270.888 1197.96 269.528 1195.82 269.528C1193.18 269.528 1191.18 271.4 1191.18 274.376C1191.18 277.224 1193.15 279.24 1195.96 279.24C1197.74 279.24 1199.82 278.264 1200.25 275.448L1198.43 275.128C1198.22 276.696 1197.36 277.496 1195.95 277.496C1194.08 277.496 1193.2 276.072 1193.2 274.376C1193.2 272.328 1194.32 271.256 1195.72 271.256C1197 271.256 1198.08 271.944 1198.3 273.688L1200.27 273.368ZM1206.13 269.528C1203.64 269.528 1201.57 271.352 1201.57 274.376C1201.57 277.4 1203.64 279.24 1206.13 279.24C1208.63 279.24 1210.69 277.4 1210.69 274.376C1210.69 271.352 1208.63 269.528 1206.13 269.528ZM1206.13 271.256C1207.51 271.256 1208.68 272.264 1208.68 274.376C1208.68 276.488 1207.51 277.512 1206.13 277.512C1204.76 277.512 1203.59 276.488 1203.59 274.376C1203.59 272.264 1204.76 271.256 1206.13 271.256ZM1216.95 271.336C1218.04 271.336 1218.9 271.976 1218.9 273.688L1218.9 279L1220.9 279L1220.9 272.824C1220.9 270.344 1219.33 269.528 1217.69 269.528C1216.6 269.528 1215.33 269.976 1214.68 271.144L1214.68 269.784L1212.68 269.784L1212.68 279L1214.68 279L1214.68 273.736C1214.68 272.088 1215.62 271.336 1216.95 271.336ZM1223.91 279L1225.91 279L1225.91 271.4L1228.2 271.4L1228.2 269.784L1225.91 269.784L1225.91 269.416C1225.91 268.536 1226.17 268.072 1227.01 268.072C1227.24 268.072 1227.43 268.088 1227.62 268.12L1227.77 266.424C1227.51 266.344 1227.17 266.296 1226.79 266.296C1225.06 266.296 1223.91 267.384 1223.91 269.432L1223.91 269.784L1222.65 269.784L1222.65 271.4L1223.91 271.4L1223.91 279ZM1229.62 269.784L1229.62 279L1231.62 279L1231.62 269.784L1229.62 269.784ZM1230.61 265.8C1229.94 265.8 1229.41 266.344 1229.41 267C1229.41 267.656 1229.94 268.2 1230.61 268.2C1231.28 268.2 1231.81 267.656 1231.81 267C1231.81 266.344 1231.28 265.8 1230.61 265.8ZM1238.59 271.688C1239.09 271.688 1239.44 271.752 1239.79 271.896L1239.99 269.656C1239.79 269.56 1239.52 269.528 1239.28 269.528C1238.37 269.528 1236.93 270.056 1236.18 271.992L1236.18 269.784L1234.18 269.784L1234.18 279L1236.18 279L1236.18 274.968C1236.18 272.408 1237.3 271.688 1238.59 271.688ZM1251.68 271.336C1252.82 271.336 1253.68 271.976 1253.68 273.688L1253.68 279L1255.68 279L1255.68 272.824C1255.68 270.344 1254.16 269.528 1252.48 269.528C1251.46 269.528 1250.16 269.944 1249.47 271.32C1248.98 270.008 1247.81 269.528 1246.58 269.528C1245.47 269.528 1244.15 269.96 1243.49 271.144L1243.49 269.784L1241.49 269.784L1241.49 279L1243.49 279L1243.49 273.736C1243.49 272.088 1244.43 271.336 1245.71 271.336C1246.85 271.336 1247.71 271.976 1247.71 273.688L1247.71 279L1249.71 279L1249.71 273.736C1249.71 272.088 1250.55 271.336 1251.68 271.336ZM1257.97 272.376C1257.97 273.656 1258.71 274.6 1260.27 274.936L1261.95 275.304C1263.11 275.56 1263.43 275.896 1263.43 276.44C1263.43 277.208 1262.67 277.64 1261.57 277.64C1260.27 277.64 1259.43 277.032 1259.3 275.896L1257.52 276.216C1257.83 278.36 1259.83 279.24 1261.62 279.24C1263.39 279.24 1265.28 278.248 1265.28 276.248C1265.28 274.968 1264.53 274.104 1262.9 273.752L1261.07 273.352C1260.15 273.144 1259.83 272.696 1259.83 272.216C1259.83 271.544 1260.47 271.128 1261.38 271.128C1262.48 271.128 1263.3 271.528 1263.36 272.728L1265.14 272.408C1264.61 270.344 1263.22 269.528 1261.36 269.528C1259.86 269.528 1257.97 270.36 1257.97 272.376Z" fill="#FF5B24"/>
<path d="M52.1098 274.488L52.0938 274.616C51.9018 276.136 50.6698 277.192 48.7818 277.192C46.7978 277.192 44.8138 276.008 44.8138 273.048C44.8138 270.232 46.4618 268.808 48.6698 268.808C50.3498 268.808 51.7738 269.448 52.0458 271.448L54.1578 271.128C53.6938 267.784 50.7978 266.76 48.7978 266.76C45.2138 266.76 42.5578 269.336 42.5578 273.048C42.5578 276.6 45.1658 279.24 48.2058 279.24C50.1418 279.24 51.5178 278.04 52.1578 276.76L52.1738 276.76L52.5418 279L54.3178 279L54.3178 272.6L48.9578 272.6L48.9578 274.488L52.1098 274.488ZM60.9452 271.256C62.2412 271.256 63.2652 271.864 63.4252 273.4L58.4172 273.4C58.6892 271.976 59.6172 271.256 60.9452 271.256ZM65.3132 274.824L65.3132 274.168C65.3132 271.448 63.5212 269.528 61.0252 269.528C58.3532 269.528 56.3212 271.4 56.3212 274.36C56.3212 277.4 58.4332 279.24 61.1532 279.24C62.8492 279.24 64.8972 278.264 65.2492 276.136L63.3932 275.816C63.1852 276.872 62.5772 277.512 61.0732 277.512C59.4092 277.512 58.4972 276.44 58.3532 274.824L65.3132 274.824ZM67.9918 267.56L67.9918 269.784L66.2798 269.784L66.2798 271.4L67.9918 271.4L67.9918 276.408C67.9918 278.104 68.8398 279.16 70.6798 279.16C71.2398 279.16 71.8958 279.016 72.3758 278.872L72.0558 277.256C71.6878 277.352 71.4638 277.4 71.0958 277.4C70.2798 277.4 69.9918 277.032 69.9918 276.312L69.9918 271.4L72.2958 271.4L72.2958 269.784L69.9918 269.784L69.9918 267.24L67.9918 267.56ZM82.1051 279.24C83.7531 279.24 84.7611 278.232 85.2251 277.096L85.2251 279L87.2251 279L87.2251 269.784L85.2251 269.784L85.2251 271.592C84.5691 270.136 83.5611 269.528 82.1211 269.528C80.1851 269.528 78.0571 271.08 78.0571 274.296C78.0571 277.672 80.2011 279.24 82.1051 279.24ZM82.6651 271.256C84.0091 271.256 85.2251 272.28 85.2251 274.408C85.2251 276.6 84.0091 277.496 82.6491 277.496C81.3851 277.496 80.0731 276.552 80.0731 274.408C80.0731 272.232 81.4011 271.256 82.6651 271.256ZM98.2998 273.368C97.9638 270.888 95.9958 269.528 93.8518 269.528C91.2118 269.528 89.2118 271.4 89.2118 274.376C89.2118 277.224 91.1798 279.24 93.9958 279.24C95.7718 279.24 97.8518 278.264 98.2838 275.448L96.4598 275.128C96.2518 276.696 95.3878 277.496 93.9798 277.496C92.1078 277.496 91.2278 276.072 91.2278 274.376C91.2278 272.328 92.3478 271.256 93.7558 271.256C95.0358 271.256 96.1078 271.944 96.3318 273.688L98.2998 273.368ZM108.69 273.368C108.354 270.888 106.386 269.528 104.242 269.528C101.602 269.528 99.6024 271.4 99.6024 274.376C99.6024 277.224 101.57 279.24 104.386 279.24C106.162 279.24 108.242 278.264 108.674 275.448L106.85 275.128C106.642 276.696 105.778 277.496 104.37 277.496C102.498 277.496 101.618 276.072 101.618 274.376C101.618 272.328 102.738 271.256 104.146 271.256C105.426 271.256 106.498 271.944 106.722 273.688L108.69 273.368ZM114.617 271.256C115.913 271.256 116.937 271.864 117.097 273.4L112.089 273.4C112.361 271.976 113.289 271.256 114.617 271.256ZM118.985 274.824L118.985 274.168C118.985 271.448 117.193 269.528 114.697 269.528C112.025 269.528 109.993 271.4 109.993 274.36C109.993 277.4 112.105 279.24 114.825 279.24C116.521 279.24 118.569 278.264 118.921 276.136L117.065 275.816C116.857 276.872 116.249 277.512 114.745 277.512C113.081 277.512 112.169 276.44 112.025 274.824L118.985 274.824ZM120.768 272.376C120.768 273.656 121.504 274.6 123.072 274.936L124.752 275.304C125.904 275.56 126.224 275.896 126.224 276.44C126.224 277.208 125.472 277.64 124.368 277.64C123.072 277.64 122.224 277.032 122.096 275.896L120.32 276.216C120.624 278.36 122.624 279.24 124.416 279.24C126.192 279.24 128.08 278.248 128.08 276.248C128.08 274.968 127.328 274.104 125.696 273.752L123.872 273.352C122.944 273.144 122.624 272.696 122.624 272.216C122.624 271.544 123.264 271.128 124.176 271.128C125.28 271.128 126.096 271.528 126.16 272.728L127.936 272.408C127.408 270.344 126.016 269.528 124.16 269.528C122.656 269.528 120.768 270.36 120.768 272.376ZM129.846 272.376C129.846 273.656 130.582 274.6 132.15 274.936L133.83 275.304C134.982 275.56 135.302 275.896 135.302 276.44C135.302 277.208 134.55 277.64 133.446 277.64C132.15 277.64 131.302 277.032 131.174 275.896L129.398 276.216C129.702 278.36 131.702 279.24 133.494 279.24C135.27 279.24 137.158 278.248 137.158 276.248C137.158 274.968 136.406 274.104 134.774 273.752L132.95 273.352C132.022 273.144 131.702 272.696 131.702 272.216C131.702 271.544 132.342 271.128 133.254 271.128C134.358 271.128 135.174 271.528 135.238 272.728L137.014 272.408C136.486 270.344 135.094 269.528 133.238 269.528C131.734 269.528 129.846 270.36 129.846 272.376ZM144.132 267.56L144.132 269.784L142.42 269.784L142.42 271.4L144.132 271.4L144.132 276.408C144.132 278.104 144.98 279.16 146.82 279.16C147.38 279.16 148.036 279.016 148.516 278.872L148.196 277.256C147.828 277.352 147.604 277.4 147.236 277.4C146.42 277.4 146.132 277.032 146.132 276.312L146.132 271.4L148.436 271.4L148.436 269.784L146.132 269.784L146.132 267.24L144.132 267.56ZM154.381 269.528C151.885 269.528 149.821 271.352 149.821 274.376C149.821 277.4 151.885 279.24 154.381 279.24C156.877 279.24 158.941 277.4 158.941 274.376C158.941 271.352 156.877 269.528 154.381 269.528ZM154.381 271.256C155.757 271.256 156.925 272.264 156.925 274.376C156.925 276.488 155.757 277.512 154.381 277.512C153.005 277.512 151.837 276.488 151.837 274.376C151.837 272.264 153.005 271.256 154.381 271.256ZM160.928 279L162.928 279L162.928 276.792L164.624 274.888L167.376 279L169.456 279L165.76 273.592L169.152 269.784L166.976 269.784L162.928 274.552L162.928 266.6L160.928 266.6L160.928 279ZM174.789 271.256C176.085 271.256 177.109 271.864 177.269 273.4L172.261 273.4C172.533 271.976 173.461 271.256 174.789 271.256ZM179.157 274.824L179.157 274.168C179.157 271.448 177.365 269.528 174.869 269.528C172.197 269.528 170.165 271.4 170.165 274.36C170.165 277.4 172.277 279.24 174.997 279.24C176.693 279.24 178.741 278.264 179.093 276.136L177.237 275.816C177.029 276.872 176.421 277.512 174.917 277.512C173.253 277.512 172.341 276.44 172.197 274.824L179.157 274.824ZM185.404 271.336C186.492 271.336 187.356 271.976 187.356 273.688L187.356 279L189.356 279L189.356 272.824C189.356 270.344 187.788 269.528 186.14 269.528C185.052 269.528 183.788 269.976 183.132 271.144L183.132 269.784L181.132 269.784L181.132 279L183.132 279L183.132 273.736C183.132 272.088 184.076 271.336 185.404 271.336Z" fill="#FF5B24"/>
<path d="M218.9 267L218.9 279L220.996 279L220.996 274.424L222.516 274.424C223.812 274.424 224.564 274.936 224.756 276.04L225.076 277.896C225.172 278.488 225.444 278.808 225.764 279L228.292 279C227.844 278.728 227.492 278.248 227.348 277.688L226.852 275.752C226.564 274.616 226.02 274.088 225.236 273.768C226.34 273.128 227.188 272.024 227.188 270.632C227.188 268.392 225.684 267 223.06 267L218.9 267ZM223.012 268.872C224.132 268.872 224.948 269.528 224.948 270.728C224.948 271.784 224.212 272.552 223.028 272.552L220.996 272.552L220.996 268.872L223.012 268.872ZM233.336 271.256C234.632 271.256 235.656 271.864 235.816 273.4L230.808 273.4C231.08 271.976 232.008 271.256 233.336 271.256ZM237.704 274.824L237.704 274.168C237.704 271.448 235.912 269.528 233.416 269.528C230.744 269.528 228.712 271.4 228.712 274.36C228.712 277.4 230.824 279.24 233.544 279.24C235.24 279.24 237.288 278.264 237.64 276.136L235.784 275.816C235.576 276.872 234.968 277.512 233.464 277.512C231.8 277.512 230.888 276.44 230.744 274.824L237.704 274.824ZM243.07 278.472C244.686 278.472 245.534 277.416 246.03 276.408L246.03 277.784C246.03 279.736 245.214 280.536 243.438 280.536C242.318 280.536 241.246 280.216 241.07 278.888L239.134 279.208C239.598 281.544 241.694 282.328 243.358 282.328C246.302 282.328 248.03 280.792 248.03 277.704L248.03 269.768L246.03 269.768L246.03 271.56C245.326 270.136 244.446 269.528 243.23 269.528C241.15 269.528 239.182 270.936 239.182 273.864C239.182 277 241.182 278.472 243.07 278.472ZM243.582 271.256C244.926 271.256 246.03 272.232 246.03 273.992C246.03 275.848 244.926 276.728 243.582 276.728C242.286 276.728 241.198 275.848 241.198 273.976C241.198 272.168 242.334 271.256 243.582 271.256ZM250.585 269.784L250.585 279L252.585 279L252.585 269.784L250.585 269.784ZM251.577 265.8C250.905 265.8 250.377 266.344 250.377 267C250.377 267.656 250.905 268.2 251.577 268.2C252.249 268.2 252.777 267.656 252.777 267C252.777 266.344 252.249 265.8 251.577 265.8ZM254.955 272.376C254.955 273.656 255.691 274.6 257.259 274.936L258.939 275.304C260.091 275.56 260.411 275.896 260.411 276.44C260.411 277.208 259.659 277.64 258.555 277.64C257.259 277.64 256.411 277.032 256.283 275.896L254.507 276.216C254.811 278.36 256.811 279.24 258.603 279.24C260.379 279.24 262.267 278.248 262.267 276.248C262.267 274.968 261.515 274.104 259.883 273.752L258.059 273.352C257.131 273.144 256.811 272.696 256.811 272.216C256.811 271.544 257.451 271.128 258.363 271.128C259.467 271.128 260.283 271.528 260.347 272.728L262.123 272.408C261.595 270.344 260.203 269.528 258.347 269.528C256.843 269.528 254.955 270.36 254.955 272.376ZM264.929 267.56L264.929 269.784L263.217 269.784L263.217 271.4L264.929 271.4L264.929 276.408C264.929 278.104 265.777 279.16 267.617 279.16C268.177 279.16 268.833 279.016 269.313 278.872L268.993 277.256C268.625 277.352 268.401 277.4 268.033 277.4C267.217 277.4 266.929 277.032 266.929 276.312L266.929 271.4L269.233 271.4L269.233 269.784L266.929 269.784L266.929 267.24L264.929 267.56ZM275.61 271.688C276.106 271.688 276.458 271.752 276.81 271.896L277.002 269.656C276.81 269.56 276.538 269.528 276.298 269.528C275.386 269.528 273.946 270.056 273.194 271.992L273.194 269.784L271.194 269.784L271.194 279L273.194 279L273.194 274.968C273.194 272.408 274.314 271.688 275.61 271.688ZM279.323 282.2C281.115 282.2 282.267 281.256 282.987 279.384L286.667 269.784L284.443 269.784L282.123 276.984L279.691 269.784L277.467 269.784L280.859 278.296C281.323 279.464 280.891 280.536 279.515 280.536C278.795 280.536 278.347 280.312 278.059 280.136L277.739 281.864C278.171 282.072 278.715 282.2 279.323 282.2ZM305.787 269.784L303.563 269.784L301.595 276.504L299.371 269.784L297.883 269.784L295.675 276.472L293.691 269.784L291.467 269.784L294.779 279L296.507 279L298.635 273.176L300.747 279L302.475 279L305.787 269.784ZM310.839 279.24C312.487 279.24 313.495 278.232 313.959 277.096L313.959 279L315.959 279L315.959 269.784L313.959 269.784L313.959 271.592C313.303 270.136 312.295 269.528 310.855 269.528C308.919 269.528 306.791 271.08 306.791 274.296C306.791 277.672 308.935 279.24 310.839 279.24ZM311.399 271.256C312.743 271.256 313.959 272.28 313.959 274.408C313.959 276.6 312.743 277.496 311.383 277.496C310.119 277.496 308.807 276.552 308.807 274.408C308.807 272.232 310.135 271.256 311.399 271.256ZM318.33 272.376C318.33 273.656 319.066 274.6 320.634 274.936L322.314 275.304C323.466 275.56 323.786 275.896 323.786 276.44C323.786 277.208 323.034 277.64 321.93 277.64C320.634 277.64 319.786 277.032 319.658 275.896L317.882 276.216C318.186 278.36 320.186 279.24 321.978 279.24C323.754 279.24 325.642 278.248 325.642 276.248C325.642 274.968 324.89 274.104 323.258 273.752L321.434 273.352C320.506 273.144 320.186 272.696 320.186 272.216C320.186 271.544 320.826 271.128 321.738 271.128C322.842 271.128 323.658 271.528 323.722 272.728L325.498 272.408C324.97 270.344 323.578 269.528 321.722 269.528C320.218 269.528 318.33 270.36 318.33 272.376ZM327.6 266.6L327.6 279L329.6 279L329.6 273.736C329.6 272.088 330.544 271.336 331.888 271.336C332.96 271.336 333.824 271.976 333.824 273.688L333.824 279L335.824 279L335.824 272.824C335.824 270.344 334.304 269.528 332.544 269.528C331.568 269.528 330.256 269.96 329.6 271.144L329.6 266.6L327.6 266.6ZM338.303 269.784L338.303 279L340.303 279L340.303 269.784L338.303 269.784ZM339.295 265.8C338.623 265.8 338.095 266.344 338.095 267C338.095 267.656 338.623 268.2 339.295 268.2C339.967 268.2 340.495 267.656 340.495 267C340.495 266.344 339.967 265.8 339.295 265.8ZM347.138 271.336C348.226 271.336 349.09 271.976 349.09 273.688L349.09 279L351.09 279L351.09 272.824C351.09 270.344 349.522 269.528 347.874 269.528C346.786 269.528 345.522 269.976 344.866 271.144L344.866 269.784L342.866 269.784L342.866 279L344.866 279L344.866 273.736C344.866 272.088 345.81 271.336 347.138 271.336ZM356.961 278.472C358.577 278.472 359.425 277.416 359.921 276.408L359.921 277.784C359.921 279.736 359.105 280.536 357.329 280.536C356.209 280.536 355.137 280.216 354.961 278.888L353.025 279.208C353.489 281.544 355.585 282.328 357.249 282.328C360.193 282.328 361.921 280.792 361.921 277.704L361.921 269.768L359.921 269.768L359.921 271.56C359.217 270.136 358.337 269.528 357.121 269.528C355.041 269.528 353.073 270.936 353.073 273.864C353.073 277 355.073 278.472 356.961 278.472ZM357.473 271.256C358.817 271.256 359.921 272.232 359.921 273.992C359.921 275.848 358.817 276.728 357.473 276.728C356.177 276.728 355.089 275.848 355.089 273.976C355.089 272.168 356.225 271.256 357.473 271.256ZM239.949 306.24C241.597 306.24 242.605 305.232 243.069 304.096L243.069 306L245.069 306L245.069 296.784L243.069 296.784L243.069 298.592C242.413 297.136 241.405 296.528 239.965 296.528C238.029 296.528 235.901 298.08 235.901 301.296C235.901 304.672 238.045 306.24 239.949 306.24ZM240.509 298.256C241.853 298.256 243.069 299.28 243.069 301.408C243.069 303.6 241.853 304.496 240.493 304.496C239.229 304.496 237.917 303.552 237.917 301.408C237.917 299.232 239.245 298.256 240.509 298.256ZM251.904 298.336C252.992 298.336 253.856 298.976 253.856 300.688L253.856 306L255.856 306L255.856 299.824C255.856 297.344 254.288 296.528 252.64 296.528C251.552 296.528 250.288 296.976 249.632 298.144L249.632 296.784L247.632 296.784L247.632 306L249.632 306L249.632 300.736C249.632 299.088 250.576 298.336 251.904 298.336ZM266.991 293.6L264.991 293.6L264.991 298.592C264.335 297.136 263.343 296.528 262.095 296.528C259.951 296.528 257.823 298.08 257.823 301.296C257.823 304.672 259.967 306.24 261.839 306.24C263.519 306.24 264.527 305.36 264.991 304.256L264.991 306L266.991 306L266.991 293.6ZM262.431 298.256C263.775 298.256 264.991 299.328 264.991 301.408C264.991 303.552 263.775 304.496 262.415 304.496C261.151 304.496 259.839 303.504 259.839 301.408C259.839 299.28 261.167 298.256 262.431 298.256ZM282.378 300.368C282.042 297.888 280.074 296.528 277.93 296.528C275.29 296.528 273.29 298.4 273.29 301.376C273.29 304.224 275.258 306.24 278.074 306.24C279.85 306.24 281.93 305.264 282.362 302.448L280.538 302.128C280.33 303.696 279.466 304.496 278.058 304.496C276.186 304.496 275.306 303.072 275.306 301.376C275.306 299.328 276.426 298.256 277.834 298.256C279.114 298.256 280.186 298.944 280.41 300.688L282.378 300.368ZM292.433 306L292.433 296.784L290.433 296.784L290.433 302.144C290.433 303.712 289.393 304.432 288.049 304.432C286.817 304.432 286.209 303.888 286.209 302.464L286.209 296.784L284.209 296.784L284.209 303.216C284.209 305.344 285.745 306.24 287.281 306.24C288.433 306.24 289.713 305.712 290.433 304.448L290.433 306L292.433 306ZM295.664 294.56L295.664 296.784L293.952 296.784L293.952 298.4L295.664 298.4L295.664 303.408C295.664 305.104 296.512 306.16 298.352 306.16C298.912 306.16 299.568 306.016 300.048 305.872L299.728 304.256C299.36 304.352 299.136 304.4 298.768 304.4C297.952 304.4 297.664 304.032 297.664 303.312L297.664 298.4L299.968 298.4L299.968 296.784L297.664 296.784L297.664 294.24L295.664 294.56ZM305.912 296.528C303.416 296.528 301.352 298.352 301.352 301.376C301.352 304.4 303.416 306.24 305.912 306.24C308.408 306.24 310.472 304.4 310.472 301.376C310.472 298.352 308.408 296.528 305.912 296.528ZM305.912 298.256C307.288 298.256 308.456 299.264 308.456 301.376C308.456 303.488 307.288 304.512 305.912 304.512C304.536 304.512 303.368 303.488 303.368 301.376C303.368 299.264 304.536 298.256 305.912 298.256ZM322.652 298.336C323.788 298.336 324.652 298.976 324.652 300.688L324.652 306L326.652 306L326.652 299.824C326.652 297.344 325.132 296.528 323.452 296.528C322.428 296.528 321.132 296.944 320.444 298.32C319.948 297.008 318.78 296.528 317.548 296.528C316.444 296.528 315.116 296.96 314.46 298.144L314.46 296.784L312.46 296.784L312.46 306L314.46 306L314.46 300.736C314.46 299.088 315.404 298.336 316.684 298.336C317.82 298.336 318.684 298.976 318.684 300.688L318.684 306L320.684 306L320.684 300.736C320.684 299.088 321.516 298.336 322.652 298.336ZM333.18 298.256C334.476 298.256 335.5 298.864 335.66 300.4L330.652 300.4C330.924 298.976 331.852 298.256 333.18 298.256ZM337.548 301.824L337.548 301.168C337.548 298.448 335.756 296.528 333.26 296.528C330.588 296.528 328.556 298.4 328.556 301.36C328.556 304.4 330.668 306.24 333.388 306.24C335.084 306.24 337.132 305.264 337.484 303.136L335.628 302.816C335.42 303.872 334.812 304.512 333.308 304.512C331.644 304.512 330.732 303.44 330.588 301.824L337.548 301.824ZM343.938 298.688C344.434 298.688 344.786 298.752 345.138 298.896L345.33 296.656C345.138 296.56 344.866 296.528 344.626 296.528C343.714 296.528 342.274 297.056 341.522 298.992L341.522 296.784L339.522 296.784L339.522 306L341.522 306L341.522 301.968C341.522 299.408 342.642 298.688 343.938 298.688ZM265.1 320.6L265.1 333L267.1 333L267.1 320.6L265.1 320.6ZM273.647 323.528C271.151 323.528 269.087 325.352 269.087 328.376C269.087 331.4 271.151 333.24 273.647 333.24C276.143 333.24 278.207 331.4 278.207 328.376C278.207 325.352 276.143 323.528 273.647 323.528ZM273.647 325.256C275.023 325.256 276.191 326.264 276.191 328.376C276.191 330.488 275.023 331.512 273.647 331.512C272.271 331.512 271.103 330.488 271.103 328.376C271.103 326.264 272.271 325.256 273.647 325.256ZM284.178 323.528C281.682 323.528 279.618 325.352 279.618 328.376C279.618 331.4 281.682 333.24 284.178 333.24C286.674 333.24 288.738 331.4 288.738 328.376C288.738 325.352 286.674 323.528 284.178 323.528ZM284.178 325.256C285.554 325.256 286.722 326.264 286.722 328.376C286.722 330.488 285.554 331.512 284.178 331.512C282.802 331.512 281.634 330.488 281.634 328.376C281.634 326.264 282.802 325.256 284.178 325.256ZM290.725 333L292.725 333L292.725 330.792L294.421 328.888L297.173 333L299.253 333L295.557 327.592L298.949 323.784L296.773 323.784L292.725 328.552L292.725 320.6L290.725 320.6L290.725 333ZM308.714 333L308.714 323.784L306.714 323.784L306.714 329.144C306.714 330.712 305.674 331.432 304.33 331.432C303.098 331.432 302.49 330.888 302.49 329.464L302.49 323.784L300.49 323.784L300.49 330.216C300.49 332.344 302.026 333.24 303.562 333.24C304.714 333.24 305.994 332.712 306.714 331.448L306.714 333L308.714 333ZM316.361 323.528C314.793 323.528 313.833 324.52 313.241 325.592L313.241 323.784L311.241 323.784L311.241 336.2L313.241 336.2L313.241 331.256C314.009 332.568 315.001 333.24 316.169 333.24C318.313 333.24 320.409 331.608 320.409 328.248C320.409 325.032 318.233 323.528 316.361 323.528ZM315.817 325.256C317.081 325.256 318.393 326.264 318.393 328.36C318.393 330.488 317.081 331.496 315.801 331.496C314.457 331.496 313.241 330.408 313.241 328.36C313.241 326.216 314.457 325.256 315.817 325.256Z" fill="#FF5B24"/>
<path d="M399.477 274.488L399.461 274.616C399.269 276.136 398.037 277.192 396.149 277.192C394.165 277.192 392.181 276.008 392.181 273.048C392.181 270.232 393.829 268.808 396.037 268.808C397.717 268.808 399.141 269.448 399.413 271.448L401.525 271.128C401.061 267.784 398.165 266.76 396.165 266.76C392.581 266.76 389.925 269.336 389.925 273.048C389.925 276.6 392.533 279.24 395.573 279.24C397.509 279.24 398.885 278.04 399.525 276.76L399.541 276.76L399.909 279L401.685 279L401.685 272.6L396.325 272.6L396.325 274.488L399.477 274.488ZM408.312 271.256C409.608 271.256 410.632 271.864 410.792 273.4L405.784 273.4C406.056 271.976 406.984 271.256 408.312 271.256ZM412.68 274.824L412.68 274.168C412.68 271.448 410.888 269.528 408.392 269.528C405.72 269.528 403.688 271.4 403.688 274.36C403.688 277.4 405.8 279.24 408.52 279.24C410.216 279.24 412.264 278.264 412.616 276.136L410.76 275.816C410.552 276.872 409.944 277.512 408.44 277.512C406.776 277.512 405.864 276.44 405.72 274.824L412.68 274.824ZM415.359 267.56L415.359 269.784L413.647 269.784L413.647 271.4L415.359 271.4L415.359 276.408C415.359 278.104 416.207 279.16 418.047 279.16C418.607 279.16 419.263 279.016 419.743 278.872L419.423 277.256C419.055 277.352 418.831 277.4 418.463 277.4C417.647 277.4 417.359 277.032 417.359 276.312L417.359 271.4L419.663 271.4L419.663 269.784L417.359 269.784L417.359 267.24L415.359 267.56ZM430.352 271.688C430.848 271.688 431.2 271.752 431.552 271.896L431.744 269.656C431.552 269.56 431.28 269.528 431.04 269.528C430.128 269.528 428.688 270.056 427.936 271.992L427.936 269.784L425.936 269.784L425.936 279L427.936 279L427.936 274.968C427.936 272.408 429.056 271.688 430.352 271.688ZM437.297 271.256C438.593 271.256 439.617 271.864 439.777 273.4L434.769 273.4C435.041 271.976 435.969 271.256 437.297 271.256ZM441.665 274.824L441.665 274.168C441.665 271.448 439.873 269.528 437.377 269.528C434.705 269.528 432.673 271.4 432.673 274.36C432.673 277.4 434.785 279.24 437.505 279.24C439.201 279.24 441.249 278.264 441.601 276.136L439.745 275.816C439.537 276.872 438.929 277.512 437.425 277.512C435.761 277.512 434.849 276.44 434.705 274.824L441.665 274.824ZM452.151 273.368C451.815 270.888 449.847 269.528 447.703 269.528C445.063 269.528 443.063 271.4 443.063 274.376C443.063 277.224 445.031 279.24 447.847 279.24C449.623 279.24 451.703 278.264 452.135 275.448L450.311 275.128C450.103 276.696 449.239 277.496 447.831 277.496C445.959 277.496 445.079 276.072 445.079 274.376C445.079 272.328 446.199 271.256 447.607 271.256C448.887 271.256 449.959 271.944 450.183 273.688L452.151 273.368ZM454.03 269.784L454.03 279L456.03 279L456.03 269.784L454.03 269.784ZM455.022 265.8C454.35 265.8 453.822 266.344 453.822 267C453.822 267.656 454.35 268.2 455.022 268.2C455.694 268.2 456.222 267.656 456.222 267C456.222 266.344 455.694 265.8 455.022 265.8ZM463.712 269.528C462.144 269.528 461.184 270.52 460.592 271.592L460.592 269.784L458.592 269.784L458.592 282.2L460.592 282.2L460.592 277.256C461.36 278.568 462.352 279.24 463.52 279.24C465.664 279.24 467.76 277.608 467.761 274.248C467.761 271.032 465.584 269.528 463.712 269.528ZM463.168 271.256C464.432 271.256 465.744 272.264 465.744 274.36C465.744 276.488 464.432 277.496 463.152 277.496C461.808 277.496 460.592 276.408 460.592 274.36C460.592 272.216 461.808 271.256 463.168 271.256ZM469.811 269.784L469.811 279L471.811 279L471.811 269.784L469.811 269.784ZM470.803 265.8C470.131 265.8 469.603 266.344 469.603 267C469.603 267.656 470.131 268.2 470.803 268.2C471.475 268.2 472.003 267.656 472.003 267C472.003 266.344 471.475 265.8 470.803 265.8ZM478.422 271.256C479.718 271.256 480.742 271.864 480.902 273.4L475.894 273.4C476.166 271.976 477.094 271.256 478.422 271.256ZM482.79 274.824L482.79 274.168C482.79 271.448 480.998 269.528 478.502 269.528C475.83 269.528 473.798 271.4 473.798 274.36C473.798 277.4 475.91 279.24 478.63 279.24C480.326 279.24 482.374 278.264 482.726 276.136L480.87 275.816C480.662 276.872 480.054 277.512 478.55 277.512C476.886 277.512 475.974 276.44 475.83 274.824L482.79 274.824ZM489.036 271.336C490.124 271.336 490.988 271.976 490.988 273.688L490.988 279L492.988 279L492.988 272.824C492.988 270.344 491.42 269.528 489.772 269.528C488.684 269.528 487.42 269.976 486.764 271.144L486.764 269.784L484.764 269.784L484.764 279L486.764 279L486.764 273.736C486.764 272.088 487.708 271.336 489.036 271.336ZM496.171 267.56L496.171 269.784L494.459 269.784L494.459 271.4L496.171 271.4L496.171 276.408C496.171 278.104 497.019 279.16 498.859 279.16C499.419 279.16 500.075 279.016 500.555 278.872L500.235 277.256C499.867 277.352 499.643 277.4 499.275 277.4C498.459 277.4 498.171 277.032 498.171 276.312L498.171 271.4L500.475 271.4L500.475 269.784L498.171 269.784L498.171 267.24L496.171 267.56ZM507.453 267.56L507.453 269.784L505.741 269.784L505.741 271.4L507.453 271.4L507.453 276.408C507.453 278.104 508.301 279.16 510.141 279.16C510.701 279.16 511.357 279.016 511.837 278.872L511.517 277.256C511.149 277.352 510.925 277.4 510.557 277.4C509.741 277.4 509.453 277.032 509.453 276.312L509.453 271.4L511.757 271.4L511.757 269.784L509.453 269.784L509.453 267.24L507.453 267.56ZM517.701 269.528C515.205 269.528 513.141 271.352 513.141 274.376C513.141 277.4 515.205 279.24 517.701 279.24C520.197 279.24 522.261 277.4 522.261 274.376C522.261 271.352 520.197 269.528 517.701 269.528ZM517.701 271.256C519.077 271.256 520.245 272.264 520.245 274.376C520.245 276.488 519.077 277.512 517.701 277.512C516.325 277.512 515.157 276.488 515.157 274.376C515.157 272.264 516.325 271.256 517.701 271.256ZM524.249 279L526.249 279L526.249 276.792L527.945 274.888L530.697 279L532.777 279L529.081 273.592L532.473 269.784L530.297 269.784L526.249 274.552L526.249 266.6L524.249 266.6L524.249 279ZM538.109 271.256C539.405 271.256 540.429 271.864 540.589 273.4L535.581 273.4C535.853 271.976 536.781 271.256 538.109 271.256ZM542.477 274.824L542.477 274.168C542.477 271.448 540.685 269.528 538.189 269.528C535.517 269.528 533.485 271.4 533.485 274.36C533.485 277.4 535.597 279.24 538.317 279.24C540.013 279.24 542.061 278.264 542.413 276.136L540.557 275.816C540.349 276.872 539.741 277.512 538.237 277.512C536.573 277.512 535.661 276.44 535.517 274.824L542.477 274.824ZM548.724 271.336C549.812 271.336 550.676 271.976 550.676 273.688L550.676 279L552.676 279L552.676 272.824C552.676 270.344 551.108 269.528 549.46 269.528C548.372 269.528 547.108 269.976 546.452 271.144L546.452 269.784L544.452 269.784L544.452 279L546.452 279L546.452 273.736C546.452 272.088 547.396 271.336 548.724 271.336Z" fill="#FF5B24"/>
<path d="M1313.32 268.872L1315.46 268.872C1316.82 268.872 1317.59 269.672 1317.59 271.16C1317.59 272.568 1316.82 273.368 1315.43 273.368L1313.32 273.368L1313.32 268.872ZM1311.22 267L1311.22 279L1313.32 279L1313.32 275.24L1315.64 275.24C1318.2 275.24 1319.83 273.448 1319.83 271.128C1319.83 268.44 1318.29 267 1315.62 267L1311.22 267ZM1325.1 279.24C1326.75 279.24 1327.75 278.232 1328.22 277.096L1328.22 279L1330.22 279L1330.22 269.784L1328.22 269.784L1328.22 271.592C1327.56 270.136 1326.55 269.528 1325.11 269.528C1323.18 269.528 1321.05 271.08 1321.05 274.296C1321.05 277.672 1323.19 279.24 1325.1 279.24ZM1325.66 271.256C1327 271.256 1328.22 272.28 1328.22 274.408C1328.22 276.6 1327 277.496 1325.64 277.496C1324.38 277.496 1323.07 276.552 1323.07 274.408C1323.07 272.232 1324.39 271.256 1325.66 271.256ZM1333.6 282.2C1335.39 282.2 1336.54 281.256 1337.26 279.384L1340.94 269.784L1338.72 269.784L1336.4 276.984L1333.96 269.784L1331.74 269.784L1335.13 278.296C1335.6 279.464 1335.16 280.536 1333.79 280.536C1333.07 280.536 1332.62 280.312 1332.33 280.136L1332.01 281.864C1332.44 282.072 1332.99 282.2 1333.6 282.2ZM1352.66 271.336C1353.8 271.336 1354.66 271.976 1354.66 273.688L1354.66 279L1356.66 279L1356.66 272.824C1356.66 270.344 1355.14 269.528 1353.46 269.528C1352.44 269.528 1351.14 269.944 1350.45 271.32C1349.96 270.008 1348.79 269.528 1347.56 269.528C1346.45 269.528 1345.12 269.96 1344.47 271.144L1344.47 269.784L1342.47 269.784L1342.47 279L1344.47 279L1344.47 273.736C1344.47 272.088 1345.41 271.336 1346.69 271.336C1347.83 271.336 1348.69 271.976 1348.69 273.688L1348.69 279L1350.69 279L1350.69 273.736C1350.69 272.088 1351.52 271.336 1352.66 271.336ZM1363.19 271.256C1364.48 271.256 1365.51 271.864 1365.67 273.4L1360.66 273.4C1360.93 271.976 1361.86 271.256 1363.19 271.256ZM1367.56 274.824L1367.56 274.168C1367.56 271.448 1365.76 269.528 1363.27 269.528C1360.6 269.528 1358.56 271.4 1358.56 274.36C1358.56 277.4 1360.68 279.24 1363.4 279.24C1365.09 279.24 1367.14 278.264 1367.49 276.136L1365.64 275.816C1365.43 276.872 1364.82 277.512 1363.32 277.512C1361.65 277.512 1360.74 276.44 1360.6 274.824L1367.56 274.824ZM1373.8 271.336C1374.89 271.336 1375.75 271.976 1375.75 273.688L1375.75 279L1377.75 279L1377.75 272.824C1377.75 270.344 1376.19 269.528 1374.54 269.528C1373.45 269.528 1372.19 269.976 1371.53 271.144L1371.53 269.784L1369.53 269.784L1369.53 279L1371.53 279L1371.53 273.736C1371.53 272.088 1372.47 271.336 1373.8 271.336ZM1380.94 267.56L1380.94 269.784L1379.23 269.784L1379.23 271.4L1380.94 271.4L1380.94 276.408C1380.94 278.104 1381.79 279.16 1383.63 279.16C1384.19 279.16 1384.84 279.016 1385.32 278.872L1385 277.256C1384.63 277.352 1384.41 277.4 1384.04 277.4C1383.23 277.4 1382.94 277.032 1382.94 276.312L1382.94 271.4L1385.24 271.4L1385.24 269.784L1382.94 269.784L1382.94 267.24L1380.94 267.56ZM1391.51 269.784L1391.51 279L1393.51 279L1393.51 269.784L1391.51 269.784ZM1392.51 265.8C1391.83 265.8 1391.31 266.344 1391.31 267C1391.31 267.656 1391.83 268.2 1392.51 268.2C1393.18 268.2 1393.71 267.656 1393.71 267C1393.71 266.344 1393.18 265.8 1392.51 265.8ZM1395.88 272.376C1395.88 273.656 1396.62 274.6 1398.19 274.936L1399.87 275.304C1401.02 275.56 1401.34 275.896 1401.34 276.44C1401.34 277.208 1400.59 277.64 1399.48 277.64C1398.19 277.64 1397.34 277.032 1397.21 275.896L1395.44 276.216C1395.74 278.36 1397.74 279.24 1399.53 279.24C1401.31 279.24 1403.2 278.248 1403.2 276.248C1403.2 274.968 1402.44 274.104 1400.81 273.752L1398.99 273.352C1398.06 273.144 1397.74 272.696 1397.74 272.216C1397.74 271.544 1398.38 271.128 1399.29 271.128C1400.4 271.128 1401.21 271.528 1401.28 272.728L1403.05 272.408C1402.52 270.344 1401.13 269.528 1399.28 269.528C1397.77 269.528 1395.88 270.36 1395.88 272.376ZM1311.91 294.56L1311.91 296.784L1310.2 296.784L1310.2 298.4L1311.91 298.4L1311.91 303.408C1311.91 305.104 1312.76 306.16 1314.6 306.16C1315.16 306.16 1315.82 306.016 1316.3 305.872L1315.98 304.256C1315.61 304.352 1315.39 304.4 1315.02 304.4C1314.2 304.4 1313.91 304.032 1313.91 303.312L1313.91 298.4L1316.22 298.4L1316.22 296.784L1313.91 296.784L1313.91 294.24L1311.91 294.56ZM1322.59 298.688C1323.09 298.688 1323.44 298.752 1323.79 298.896L1323.99 296.656C1323.79 296.56 1323.52 296.528 1323.28 296.528C1322.37 296.528 1320.93 297.056 1320.18 298.992L1320.18 296.784L1318.18 296.784L1318.18 306L1320.18 306L1320.18 301.968C1320.18 299.408 1321.3 298.688 1322.59 298.688ZM1329.03 306.24C1330.67 306.24 1331.68 305.232 1332.15 304.096L1332.15 306L1334.15 306L1334.15 296.784L1332.15 296.784L1332.15 298.592C1331.49 297.136 1330.48 296.528 1329.04 296.528C1327.11 296.528 1324.98 298.08 1324.98 301.296C1324.98 304.672 1327.12 306.24 1329.03 306.24ZM1329.59 298.256C1330.93 298.256 1332.15 299.28 1332.15 301.408C1332.15 303.6 1330.93 304.496 1329.57 304.496C1328.31 304.496 1326.99 303.552 1326.99 301.408C1326.99 299.232 1328.32 298.256 1329.59 298.256ZM1340.98 298.336C1342.07 298.336 1342.93 298.976 1342.93 300.688L1342.93 306L1344.93 306L1344.93 299.824C1344.93 297.344 1343.37 296.528 1341.72 296.528C1340.63 296.528 1339.37 296.976 1338.71 298.144L1338.71 296.784L1336.71 296.784L1336.71 306L1338.71 306L1338.71 300.736C1338.71 299.088 1339.65 298.336 1340.98 298.336ZM1347.22 299.376C1347.22 300.656 1347.96 301.6 1349.52 301.936L1351.2 302.304C1352.36 302.56 1352.68 302.896 1352.68 303.44C1352.68 304.208 1351.92 304.64 1350.82 304.64C1349.52 304.64 1348.68 304.032 1348.55 302.896L1346.77 303.216C1347.08 305.36 1349.08 306.24 1350.87 306.24C1352.64 306.24 1354.53 305.248 1354.53 303.248C1354.53 301.968 1353.78 301.104 1352.15 300.752L1350.32 300.352C1349.4 300.144 1349.08 299.696 1349.08 299.216C1349.08 298.544 1349.72 298.128 1350.63 298.128C1351.73 298.128 1352.55 298.528 1352.61 299.728L1354.39 299.408C1353.86 297.344 1352.47 296.528 1350.61 296.528C1349.11 296.528 1347.22 297.36 1347.22 299.376ZM1357.02 306L1359.02 306L1359.02 298.4L1361.31 298.4L1361.31 296.784L1359.02 296.784L1359.02 296.416C1359.02 295.472 1359.47 294.976 1360.28 294.976C1360.71 294.976 1361.08 295.04 1361.47 295.152L1361.74 293.6C1361.29 293.44 1360.75 293.296 1360.07 293.296C1358.23 293.296 1357.02 294.48 1357.02 296.432L1357.02 296.784L1355.75 296.784L1355.75 298.4L1357.02 298.4L1357.02 306ZM1366.77 298.256C1368.07 298.256 1369.09 298.864 1369.25 300.4L1364.25 300.4C1364.52 298.976 1365.45 298.256 1366.77 298.256ZM1371.14 301.824L1371.14 301.168C1371.14 298.448 1369.35 296.528 1366.85 296.528C1364.18 296.528 1362.15 298.4 1362.15 301.36C1362.15 304.4 1364.26 306.24 1366.98 306.24C1368.68 306.24 1370.73 305.264 1371.08 303.136L1369.22 302.816C1369.01 303.872 1368.41 304.512 1366.9 304.512C1365.24 304.512 1364.33 303.44 1364.18 301.824L1371.14 301.824ZM1377.53 298.688C1378.03 298.688 1378.38 298.752 1378.73 298.896L1378.92 296.656C1378.73 296.56 1378.46 296.528 1378.22 296.528C1377.31 296.528 1375.87 297.056 1375.12 298.992L1375.12 296.784L1373.12 296.784L1373.12 306L1375.12 306L1375.12 301.968C1375.12 299.408 1376.24 298.688 1377.53 298.688ZM1384.84 298.688C1385.34 298.688 1385.69 298.752 1386.04 298.896L1386.24 296.656C1386.04 296.56 1385.77 296.528 1385.53 296.528C1384.62 296.528 1383.18 297.056 1382.43 298.992L1382.43 296.784L1380.43 296.784L1380.43 306L1382.43 306L1382.43 301.968C1382.43 299.408 1383.55 298.688 1384.84 298.688ZM1391.79 298.256C1393.08 298.256 1394.11 298.864 1394.27 300.4L1389.26 300.4C1389.53 298.976 1390.46 298.256 1391.79 298.256ZM1396.16 301.824L1396.16 301.168C1396.16 298.448 1394.36 296.528 1391.87 296.528C1389.2 296.528 1387.16 298.4 1387.16 301.36C1387.16 304.4 1389.28 306.24 1392 306.24C1393.69 306.24 1395.74 305.264 1396.09 303.136L1394.24 302.816C1394.03 303.872 1393.42 304.512 1391.92 304.512C1390.25 304.512 1389.34 303.44 1389.2 301.824L1396.16 301.824ZM1406.79 293.6L1404.79 293.6L1404.79 298.592C1404.13 297.136 1403.14 296.528 1401.89 296.528C1399.75 296.528 1397.62 298.08 1397.62 301.296C1397.62 304.672 1399.76 306.24 1401.64 306.24C1403.32 306.24 1404.32 305.36 1404.79 304.256L1404.79 306L1406.79 306L1406.79 293.6ZM1402.23 298.256C1403.57 298.256 1404.79 299.328 1404.79 301.408C1404.79 303.552 1403.57 304.496 1402.21 304.496C1400.95 304.496 1399.64 303.504 1399.64 301.408C1399.64 299.28 1400.96 298.256 1402.23 298.256Z" fill="#FF5B24"/>
<path d="M924.978 390L924.978 402L927.074 402L927.074 390L924.978 390ZM929.565 393.216C929.565 397.84 936.205 396.32 936.205 398.864C936.205 399.776 935.501 400.384 934.141 400.384C932.845 400.384 931.357 399.952 931.149 397.904L929.085 398.384C929.405 400.96 931.677 402.24 934.077 402.24C936.205 402.24 938.301 401.024 938.301 398.736C938.301 394.256 931.693 395.888 931.693 393.136C931.693 392.192 932.413 391.616 933.645 391.616C934.717 391.616 935.917 392.096 936.013 393.76L938.125 393.28C937.773 390.8 935.629 389.76 933.741 389.76C931.645 389.76 929.565 390.912 929.565 393.216ZM942.496 391.872L944.64 391.872C946 391.872 946.768 392.672 946.768 394.16C946.768 395.568 946 396.368 944.608 396.368L942.496 396.368L942.496 391.872ZM940.4 390L940.4 402L942.496 402L942.496 398.24L944.816 398.24C947.376 398.24 949.008 396.448 949.008 394.128C949.008 391.44 947.472 390 944.8 390L940.4 390ZM959.782 394.688C960.278 394.688 960.63 394.752 960.982 394.896L961.174 392.656C960.982 392.56 960.71 392.528 960.47 392.528C959.558 392.528 958.118 393.056 957.366 394.992L957.366 392.784L955.366 392.784L955.366 402L957.366 402L957.366 397.968C957.366 395.408 958.486 394.688 959.782 394.688ZM966.726 394.256C968.022 394.256 969.046 394.864 969.206 396.4L964.198 396.4C964.47 394.976 965.398 394.256 966.726 394.256ZM971.094 397.824L971.094 397.168C971.094 394.448 969.302 392.528 966.806 392.528C964.134 392.528 962.102 394.4 962.102 397.36C962.102 400.4 964.214 402.24 966.934 402.24C968.63 402.24 970.678 401.264 971.03 399.136L969.174 398.816C968.966 399.872 968.358 400.512 966.854 400.512C965.19 400.512 964.278 399.44 964.134 397.824L971.094 397.824ZM981.229 392.784L979.005 392.784L976.637 399.744L974.253 392.784L972.029 392.784L975.709 402L977.549 402L981.229 392.784ZM986.741 392.528C984.245 392.528 982.181 394.352 982.181 397.376C982.181 400.4 984.245 402.24 986.741 402.24C989.237 402.24 991.301 400.4 991.301 397.376C991.301 394.352 989.237 392.528 986.741 392.528ZM986.741 394.256C988.117 394.256 989.285 395.264 989.285 397.376C989.285 399.488 988.117 400.512 986.741 400.512C985.365 400.512 984.197 399.488 984.197 397.376C984.197 395.264 985.365 394.256 986.741 394.256ZM993.288 402L995.288 402L995.288 399.792L996.984 397.888L999.736 402L1001.82 402L998.12 396.592L1001.51 392.784L999.336 392.784L995.288 397.552L995.288 389.6L993.288 389.6L993.288 402ZM1007.15 394.256C1008.44 394.256 1009.47 394.864 1009.63 396.4L1004.62 396.4C1004.89 394.976 1005.82 394.256 1007.15 394.256ZM1011.52 397.824L1011.52 397.168C1011.52 394.448 1009.72 392.528 1007.23 392.528C1004.56 392.528 1002.52 394.4 1002.52 397.36C1002.52 400.4 1004.64 402.24 1007.36 402.24C1009.05 402.24 1011.1 401.264 1011.45 399.136L1009.6 398.816C1009.39 399.872 1008.78 400.512 1007.28 400.512C1005.61 400.512 1004.7 399.44 1004.56 397.824L1011.52 397.824ZM1013.3 395.376C1013.3 396.656 1014.03 397.6 1015.6 397.936L1017.28 398.304C1018.43 398.56 1018.75 398.896 1018.75 399.44C1018.75 400.208 1018 400.64 1016.9 400.64C1015.6 400.64 1014.75 400.032 1014.63 398.896L1012.85 399.216C1013.15 401.36 1015.15 402.24 1016.95 402.24C1018.72 402.24 1020.61 401.248 1020.61 399.248C1020.61 397.968 1019.86 397.104 1018.23 396.752L1016.4 396.352C1015.47 396.144 1015.15 395.696 1015.15 395.216C1015.15 394.544 1015.79 394.128 1016.71 394.128C1017.81 394.128 1018.63 394.528 1018.69 395.728L1020.47 395.408C1019.94 393.344 1018.55 392.528 1016.69 392.528C1015.19 392.528 1013.3 393.36 1013.3 395.376ZM1026.88 392.784L1026.88 402L1028.88 402L1028.88 392.784L1026.88 392.784ZM1027.87 388.8C1027.2 388.8 1026.67 389.344 1026.67 390C1026.67 390.656 1027.2 391.2 1027.87 391.2C1028.55 391.2 1029.07 390.656 1029.07 390C1029.07 389.344 1028.55 388.8 1027.87 388.8ZM1035.72 394.336C1036.8 394.336 1037.67 394.976 1037.67 396.688L1037.67 402L1039.67 402L1039.67 395.824C1039.67 393.344 1038.1 392.528 1036.45 392.528C1035.36 392.528 1034.1 392.976 1033.44 394.144L1033.44 392.784L1031.44 392.784L1031.44 402L1033.44 402L1033.44 396.736C1033.44 395.088 1034.39 394.336 1035.72 394.336ZM1050.31 392.784L1048.08 392.784L1045.72 399.744L1043.33 392.784L1041.11 392.784L1044.79 402L1046.63 402L1050.31 392.784ZM1055.82 392.528C1053.32 392.528 1051.26 394.352 1051.26 397.376C1051.26 400.4 1053.32 402.24 1055.82 402.24C1058.31 402.24 1060.38 400.4 1060.38 397.376C1060.38 394.352 1058.31 392.528 1055.82 392.528ZM1055.82 394.256C1057.19 394.256 1058.36 395.264 1058.36 397.376C1058.36 399.488 1057.19 400.512 1055.82 400.512C1054.44 400.512 1053.27 399.488 1053.27 397.376C1053.27 395.264 1054.44 394.256 1055.82 394.256ZM1062.37 392.784L1062.37 402L1064.37 402L1064.37 392.784L1062.37 392.784ZM1063.36 388.8C1062.69 388.8 1062.16 389.344 1062.16 390C1062.16 390.656 1062.69 391.2 1063.36 391.2C1064.03 391.2 1064.56 390.656 1064.56 390C1064.56 389.344 1064.03 388.8 1063.36 388.8ZM1075.44 396.368C1075.1 393.888 1073.14 392.528 1070.99 392.528C1068.35 392.528 1066.35 394.4 1066.35 397.376C1066.35 400.224 1068.32 402.24 1071.14 402.24C1072.91 402.24 1074.99 401.264 1075.42 398.448L1073.6 398.128C1073.39 399.696 1072.53 400.496 1071.12 400.496C1069.25 400.496 1068.37 399.072 1068.37 397.376C1068.37 395.328 1069.49 394.256 1070.9 394.256C1072.18 394.256 1073.25 394.944 1073.47 396.688L1075.44 396.368ZM1081.37 394.256C1082.66 394.256 1083.69 394.864 1083.85 396.4L1078.84 396.4C1079.11 394.976 1080.04 394.256 1081.37 394.256ZM1085.74 397.824L1085.74 397.168C1085.74 394.448 1083.94 392.528 1081.45 392.528C1078.78 392.528 1076.74 394.4 1076.74 397.36C1076.74 400.4 1078.86 402.24 1081.58 402.24C1083.27 402.24 1085.32 401.264 1085.67 399.136L1083.82 398.816C1083.61 399.872 1083 400.512 1081.5 400.512C1079.83 400.512 1078.92 399.44 1078.78 397.824L1085.74 397.824Z" fill="#49367E"/>
<path d="M1060.7 296.888C1060.7 327.714 1035.71 352.705 1004.89 352.705C974.06 352.705 949.07 327.714 949.07 296.888C949.07 266.061 974.06 241.071 1004.89 241.071C1035.71 241.071 1060.7 266.061 1060.7 296.888Z" fill="#EEEDF3"/>
<path fill-rule="evenodd" clip-rule="evenodd" d="M1008.74 352.637C1008.74 337.61 1008.75 323.432 1008.82 319.688C1009.13 301.425 1027.14 305.316 1027.14 305.316L1048.98 319.688L1048.97 331.259C1039.49 343.415 1025.07 351.541 1008.74 352.637Z" fill="#FFD3BB"/>
<path d="M1044.38 331.405L1012.1 331.264C1008.99 331.251 1006.48 328.72 1006.5 325.613L1006.78 260.535C1006.79 257.428 1009.32 254.919 1012.43 254.933L1044.71 255.074C1047.82 255.087 1050.33 257.618 1050.32 260.725L1050.03 325.803C1050.02 328.91 1047.49 331.419 1044.38 331.405Z" fill="#FF5A23"/>
<path d="M1050.13 321.538L1006.59 321.348L1006.84 265.162L1050.37 265.352L1050.13 321.538Z" fill="#FF985F"/>
<line x1="1031" y1="284.078" x2="1032.34" y2="279.975" stroke="#FFF4EC" stroke-width="3.06" stroke-linecap="round" stroke-linejoin="round"/>
<line x1="1024.58" y1="287.845" x2="1021.09" y2="285.309" stroke="#FFF4EC" stroke-width="3.06" stroke-linecap="round" stroke-linejoin="round"/>
<line x1="1.53" y1="-1.53" x2="5.84342" y2="-1.53" transform="matrix(0.707107 0.707107 0.707107 -0.707107 1033.81 292.575)" stroke="#FFF4EC" stroke-width="3.06" stroke-linecap="round" stroke-linejoin="round"/>
<line x1="1.53" y1="-1.53" x2="5.84342" y2="-1.53" transform="matrix(-0.809017 0.587785 0.587785 0.809017 1028.55 294.143)" stroke="#FFF4EC" stroke-width="3.06" stroke-linecap="round" stroke-linejoin="round"/>
<line x1="1.53" y1="-1.53" x2="5.84342" y2="-1.53" transform="matrix(1 0 0 -1 1034.6 288.658)" stroke="#FFF4EC" stroke-width="3.06" stroke-linecap="round" stroke-linejoin="round"/>
<path d="M1013.04 300.905L1001.78 299.294C998.76 298.862 996.661 296.061 997.094 293.038C997.526 290.015 1000.33 287.916 1003.35 288.349L1014.6 289.96C1017.63 290.392 1019.72 293.193 1019.29 296.215C1018.86 299.238 1016.06 301.338 1013.04 300.905Z" fill="#FFD3BB"/>
<path d="M1011.7 311.22L1000.45 309.609C997.423 309.176 995.324 306.375 995.757 303.353C996.189 300.33 998.99 298.231 1002.01 298.664L1013.27 300.275C1016.29 300.707 1018.39 303.508 1017.95 306.53C1017.52 309.553 1014.72 311.652 1011.7 311.22Z" fill="#FFD3BB"/>
<path d="M1011.34 321.542L1000.09 319.931C997.069 319.498 994.969 316.697 995.401 313.675C995.834 310.653 998.635 308.554 1001.66 308.986L1012.91 310.597C1015.93 311.029 1018.03 313.83 1017.6 316.852C1017.17 319.875 1014.37 321.975 1011.34 321.542Z" fill="#FFD3BB"/>
<path fill-rule="evenodd" clip-rule="evenodd" d="M1056.79 317.468C1054.75 322.611 1051.96 327.379 1048.57 331.639L1040.38 336.238L1036.65 339.593C1036.26 338.992 1035.93 338.508 1035.63 338.09C1034.41 336.34 1033.99 335.736 1034 332.519C1034.05 321.606 1042.93 312.797 1053.85 312.845L1056.79 317.468Z" fill="#FFD3BB"/>
<path fill-rule="evenodd" clip-rule="evenodd" d="M1040.58 339.738C1038.94 338.538 1038.29 336.363 1039.23 333.013C1041.44 325.108 1044.16 322.133 1047.39 320.178C1050.62 318.223 1050.11 313.038 1050.11 313.038C1050.11 313.038 1046.28 307.938 1046.37 302.668C1046.38 301.901 1046.38 301.125 1046.39 300.352C1046.41 295.816 1046.43 291.385 1048.15 289.408C1049.85 287.453 1052.49 286.093 1055.29 286.858C1058.1 287.623 1059.57 290.337 1059.37 292.638C1059.29 293.576 1059.14 294.464 1058.98 295.36C1058.63 297.304 1058.28 299.285 1058.69 301.903C1058.98 303.741 1059.45 304.876 1060.01 305.948C1057.78 319.469 1050.68 331.35 1040.58 339.738Z" fill="#FFD3BB"/>
<path d="M704.817 173.057C704.817 203.883 679.827 228.873 649 228.873C618.173 228.873 593.183 203.883 593.183 173.057C593.183 142.229 618.173 117.24 649 117.24C679.827 117.24 704.817 142.229 704.817 173.057Z" fill="#EEEDF3"/>
<path d="M675.733 202.251H649.531C646.197 202.251 643.496 199.548 643.496 196.216V141.181C643.496 137.848 646.197 135.146 649.531 135.146H675.733C679.065 135.146 681.768 137.848 681.768 141.181V196.216C681.768 199.548 679.065 202.251 675.733 202.251Z" fill="#FF5B23"/>
<path d="M681.768 193.426H643.496V144.032H681.768V193.426Z" fill="#FF975E"/>
<path d="M661.031 176.422L600.093 203.856L612.046 228.844L639.606 204.477C639.752 204.342 661.212 176.34 661.031 176.422Z" fill="#48367D"/>
<path d="M662.016 175.658L616.01 210.093L642.099 219.073C643.345 219.502 644.725 219.078 645.517 218.024L662.511 176.348C662.957 175.79 662.298 175.474 662.016 175.658Z" fill="#C8C5D6"/>
<path d="M616.01 210.093L612.045 228.845L631.358 215.377L616.01 210.093Z" fill="white"/>
<path d="M662.091 175.631L582.43 195.229C580.997 195.65 580.969 197.67 582.391 198.131L600.094 203.858L662.334 176.004C662.486 175.935 662.533 175.55 662.091 175.631Z" fill="#C8C5D6"/>
<path d="M1238.7 172.888C1238.7 203.715 1213.71 228.705 1182.89 228.705C1152.06 228.705 1127.07 203.715 1127.07 172.888C1127.07 142.061 1152.06 117.071 1182.89 117.071C1213.71 117.071 1238.7 142.061 1238.7 172.888Z" fill="#EEEDF3"/>
<path fill-rule="evenodd" clip-rule="evenodd" d="M1189.3 228.339C1189.29 208.014 1189.3 185.601 1189.39 180.506C1189.73 160.135 1209.82 164.475 1209.82 164.475L1234.18 180.506L1234.17 194.948C1226.43 212.93 1209.5 226.028 1189.3 228.339Z" fill="#FFD3BB"/>
<path d="M1226.94 186.38L1191.6 193.301C1188.2 193.967 1184.9 191.749 1184.23 188.348L1170.28 117.111C1169.61 113.709 1171.83 110.411 1175.23 109.744L1210.57 102.823C1213.97 102.157 1217.27 104.374 1217.94 107.776L1231.89 179.014C1232.55 182.415 1230.34 185.713 1226.94 186.38Z" fill="#FF5A23"/>
<path d="M1231.06 174.325L1183.4 183.659L1171.35 122.154L1219.01 112.82L1231.06 174.325Z" fill="#FF985F"/>
<path d="M1189.92 160.002L1185.12 135.468C1185.09 135.292 1185.11 135.112 1185.19 134.967L1189.27 127.553C1189.35 127.408 1189.47 127.311 1189.62 127.282L1207.19 123.841C1208.07 123.669 1208.95 124.381 1209.15 125.429L1214.96 155.098C1215.17 156.147 1214.62 157.137 1213.75 157.309L1191.88 161.591C1191 161.763 1190.12 161.051 1189.92 160.002Z" fill="#EEEDF3"/>
<path d="M1185.3 133.728L1188.37 128.151C1188.6 127.725 1188.97 127.437 1189.39 127.327L1190.47 132.821C1190.61 133.52 1190.24 134.18 1189.66 134.294L1185.07 135.194C1184.99 134.676 1185.07 134.153 1185.3 133.728Z" fill="#C8C5D6"/>
<path fill-rule="evenodd" clip-rule="evenodd" d="M1206.74 135.441C1207.2 135.656 1207.41 136.206 1207.19 136.67L1200.98 150.112C1200.88 150.336 1200.69 150.509 1200.46 150.594C1200.23 150.678 1199.97 150.667 1199.75 150.563L1194.13 147.931C1193.66 147.714 1193.46 147.163 1193.68 146.7C1193.9 146.237 1194.45 146.037 1194.91 146.254L1199.69 148.492L1205.51 135.893C1205.73 135.429 1206.28 135.227 1206.74 135.441Z" fill="#48367D"/>
<path d="M1183.45 162.73L1170.81 163.713C1167.42 163.978 1164.45 161.439 1164.19 158.044C1163.92 154.648 1166.46 151.681 1169.86 151.418L1182.5 150.434C1185.89 150.169 1188.86 152.708 1189.12 156.103C1189.39 159.499 1186.85 162.466 1183.45 162.73Z" fill="#FFD3BB"/>
<path d="M1184.51 174.284L1171.87 175.267C1168.47 175.531 1165.5 172.993 1165.24 169.597C1164.97 166.201 1167.51 163.235 1170.91 162.971L1183.55 161.988C1186.95 161.723 1189.91 164.262 1190.18 167.657C1190.44 171.052 1187.9 174.019 1184.51 174.284Z" fill="#FFD3BB"/>
<path d="M1186.63 185.607L1173.99 186.591C1170.59 186.854 1167.63 184.316 1167.36 180.921C1167.1 177.525 1169.64 174.559 1173.03 174.295L1185.68 173.312C1189.07 173.047 1192.04 175.586 1192.3 178.981C1192.57 182.376 1190.03 185.343 1186.63 185.607Z" fill="#FFD3BB"/>
<path fill-rule="evenodd" clip-rule="evenodd" d="M1231.33 200.638C1230.52 200.952 1229.65 201.255 1228.71 201.533C1221.98 203.524 1211.93 194.801 1211.93 194.801C1211.93 194.801 1212.21 191.198 1212.69 187.311C1213.16 183.424 1215.63 179.916 1216.86 178.778C1211.93 177.735 1208.42 176.028 1205.86 172.615C1203.2 169.074 1201.31 165.978 1200.83 160.479C1200.36 154.98 1202.35 152.989 1204.72 151.851C1207.09 150.713 1209.18 151.282 1211.45 152.42C1213.22 153.305 1214.27 156.694 1214.49 159.152C1214.77 162.375 1215.5 163.163 1216.95 164.556C1218.07 165.628 1220.46 165.599 1222.07 165.409C1223.68 165.22 1225.15 165.305 1227.95 165.978C1230.32 166.547 1232.69 168.159 1234.68 170.814C1236.85 173.704 1237.57 177.211 1238.05 181.469C1236.99 188.355 1234.66 194.825 1231.33 200.638Z" fill="#FFD3BB"/>
<path d="M1417.82 173.057C1417.82 203.884 1392.83 228.874 1362 228.874C1331.17 228.874 1306.18 203.884 1306.18 173.057C1306.18 142.231 1331.17 117.24 1362 117.24C1392.83 117.24 1417.82 142.231 1417.82 173.057Z" fill="#EEEDF3"/>
<path d="M1337.42 153.125C1338.59 154.143 1339.76 155.16 1340.93 156.177C1343.99 158.825 1347.14 161.364 1350.1 164.115C1354.82 168.506 1357.77 173.92 1358.93 180.269C1360.11 186.701 1359.28 192.886 1356.39 198.753C1353.62 204.377 1349.39 208.601 1343.84 211.5C1339.89 213.565 1335.68 214.677 1331.22 214.85C1322.86 215.175 1315.51 212.648 1309.32 206.988C1304.92 202.965 1302.16 197.963 1300.85 192.157C1300.14 189.042 1299.94 185.89 1300.28 182.717C1300.96 176.267 1303.45 170.616 1307.79 165.788C1309.34 164.075 1311.13 162.639 1312.86 161.139C1315.89 158.531 1318.92 155.931 1321.94 153.329C1322.02 153.265 1322.08 153.192 1322.14 153.122C1322.56 153.119 1322.97 153.128 1323.38 153.107C1323.64 153.095 1323.69 153.204 1323.68 153.429C1323.67 153.854 1323.68 154.279 1323.68 154.704C1323.68 158.931 1323.68 163.158 1323.68 167.385C1323.68 168.153 1323.96 168.764 1324.65 169.134C1325.9 169.811 1327.34 168.91 1327.34 167.446C1327.35 164.118 1327.35 160.79 1327.35 157.462C1327.35 156.126 1327.35 154.789 1327.34 153.453C1327.34 153.18 1327.41 153.095 1327.69 153.104C1328.28 153.125 1328.88 153.11 1329.47 153.11C1332.12 153.119 1334.77 153.122 1337.42 153.125ZM1330.39 197.207C1330.94 197.207 1331.49 197.195 1332.03 197.213C1332.28 197.222 1332.34 197.137 1332.33 196.907C1332.32 196.117 1332.35 195.328 1332.32 194.538C1332.3 194.168 1332.41 194.022 1332.77 193.928C1334.07 193.6 1335.24 192.999 1336.22 192.063C1337.74 190.6 1338.3 188.787 1338.17 186.716C1338.03 184.451 1337.01 182.756 1335.01 181.66C1333.63 180.907 1332.13 180.53 1330.65 180.081C1329.78 179.817 1328.9 179.562 1328.13 179.052C1327.38 178.554 1327 177.861 1327.09 176.953C1327.17 176.052 1327.66 175.426 1328.48 175.059C1329.14 174.767 1329.84 174.694 1330.54 174.743C1332.15 174.852 1333.02 175.538 1333.52 177.066C1333.62 177.351 1333.68 177.649 1333.74 177.946C1333.77 178.156 1333.82 178.244 1334.08 178.204C1335.25 178.022 1336.43 177.873 1337.61 177.703C1338.44 177.582 1338.44 177.573 1338.25 176.735C1337.52 173.598 1335.82 171.378 1332.53 170.668C1332.33 170.625 1332.32 170.513 1332.33 170.355C1332.33 169.553 1332.31 168.752 1332.34 167.95C1332.34 167.634 1332.24 167.57 1331.95 167.576C1330.9 167.595 1329.86 167.592 1328.81 167.576C1328.54 167.573 1328.43 167.631 1328.44 167.932C1328.46 168.733 1328.44 169.535 1328.45 170.337C1328.46 170.549 1328.39 170.637 1328.18 170.68C1327.89 170.741 1327.59 170.813 1327.31 170.908C1325.45 171.518 1323.96 172.566 1323.2 174.436C1322.57 175.973 1322.55 177.558 1322.98 179.149C1323.5 181.107 1324.88 182.304 1326.64 183.148C1327.97 183.792 1329.41 184.174 1330.8 184.669C1331.56 184.943 1332.33 185.228 1332.96 185.756C1333.36 186.084 1333.64 186.482 1333.72 187.001C1333.89 188.079 1333.4 189.033 1332.39 189.552C1331.15 190.184 1329.86 190.141 1328.55 189.85C1327.18 189.543 1326.33 188.684 1325.98 187.323C1325.86 186.874 1325.81 186.415 1325.79 185.957C1325.79 185.693 1325.68 185.665 1325.46 185.699C1324.18 185.893 1322.9 186.087 1321.61 186.264C1321.4 186.294 1321.36 186.376 1321.38 186.567C1321.45 187.308 1321.61 188.031 1321.89 188.717C1323.04 191.559 1325.19 193.257 1328.1 194.061C1328.36 194.137 1328.47 194.222 1328.46 194.511C1328.44 195.3 1328.47 196.09 1328.45 196.879C1328.44 197.162 1328.53 197.222 1328.79 197.213C1329.33 197.192 1329.86 197.207 1330.39 197.207Z" fill="#FF985F"/>
<path d="M1322.69 149.459C1321.01 146.55 1319.33 143.644 1317.66 140.729C1315.49 136.937 1317.63 132.318 1321.92 131.504C1322.29 131.434 1322.66 131.407 1323.04 131.407C1327.53 131.41 1332.03 131.407 1336.52 131.407C1341.31 131.407 1344.3 136.484 1341.94 140.659C1340.32 143.52 1338.66 146.353 1337.01 149.198C1336.97 149.28 1336.93 149.371 1336.88 149.456C1333.02 149.459 1329.17 149.462 1325.31 149.465C1324.43 149.468 1323.56 149.462 1322.69 149.459Z" fill="#FF985F"/>
<path d="M1322.69 149.459C1323.56 149.462 1324.43 149.471 1325.31 149.471C1329.17 149.468 1333.03 149.465 1336.88 149.462C1337.11 149.465 1337.35 149.471 1337.58 149.471C1338.64 149.477 1339.45 150.252 1339.46 151.281C1339.47 152.283 1338.67 153.085 1337.63 153.115C1337.56 153.118 1337.49 153.121 1337.41 153.127C1334.76 153.124 1332.12 153.118 1329.47 153.115C1328.87 153.115 1328.28 153.13 1327.68 153.109C1327.41 153.1 1327.33 153.185 1327.34 153.458C1327.35 154.794 1327.34 156.131 1327.34 157.467C1327.34 160.795 1327.35 164.123 1327.34 167.451C1327.34 168.915 1325.9 169.816 1324.65 169.139C1323.96 168.769 1323.68 168.155 1323.68 167.39C1323.68 163.163 1323.68 158.936 1323.68 154.709C1323.68 154.284 1323.67 153.859 1323.68 153.434C1323.69 153.209 1323.63 153.1 1323.38 153.112C1322.97 153.133 1322.55 153.124 1322.14 153.127C1320.98 153.082 1320.26 152.505 1320.13 151.53C1319.98 150.455 1320.8 149.499 1321.88 149.474C1322.15 149.465 1322.42 149.462 1322.69 149.459Z" fill="#FD5B24"/>
<path d="M1330.39 197.207C1329.86 197.207 1329.33 197.192 1328.79 197.213C1328.53 197.222 1328.44 197.162 1328.44 196.879C1328.46 196.09 1328.44 195.3 1328.46 194.511C1328.47 194.222 1328.36 194.134 1328.09 194.061C1325.19 193.257 1323.04 191.559 1321.88 188.717C1321.6 188.028 1321.45 187.308 1321.38 186.567C1321.36 186.376 1321.39 186.294 1321.61 186.263C1322.89 186.084 1324.18 185.893 1325.46 185.699C1325.68 185.665 1325.78 185.692 1325.79 185.957C1325.81 186.415 1325.85 186.874 1325.97 187.323C1326.33 188.684 1327.18 189.543 1328.55 189.85C1329.85 190.141 1331.15 190.184 1332.38 189.552C1333.39 189.033 1333.88 188.076 1333.72 187.001C1333.63 186.482 1333.36 186.084 1332.96 185.756C1332.32 185.228 1331.56 184.942 1330.8 184.669C1329.4 184.174 1327.97 183.792 1326.63 183.148C1324.88 182.304 1323.5 181.107 1322.98 179.149C1322.55 177.561 1322.57 175.972 1323.19 174.436C1323.96 172.565 1325.45 171.518 1327.3 170.907C1327.59 170.813 1327.89 170.737 1328.18 170.68C1328.38 170.64 1328.45 170.552 1328.45 170.337C1328.44 169.535 1328.46 168.733 1328.44 167.932C1328.43 167.631 1328.53 167.57 1328.81 167.576C1329.85 167.592 1330.9 167.592 1331.94 167.576C1332.24 167.57 1332.34 167.634 1332.33 167.95C1332.31 168.751 1332.33 169.553 1332.32 170.355C1332.32 170.513 1332.33 170.628 1332.52 170.668C1335.82 171.378 1337.52 173.598 1338.24 176.735C1338.44 177.576 1338.44 177.582 1337.6 177.703C1336.43 177.873 1335.25 178.022 1334.07 178.204C1333.82 178.244 1333.77 178.156 1333.73 177.946C1333.68 177.649 1333.61 177.351 1333.52 177.066C1333.02 175.538 1332.14 174.852 1330.54 174.743C1329.83 174.694 1329.13 174.767 1328.48 175.058C1327.65 175.423 1327.17 176.051 1327.08 176.953C1327 177.861 1327.38 178.554 1328.13 179.052C1328.9 179.562 1329.77 179.817 1330.64 180.081C1332.13 180.53 1333.63 180.91 1335.01 181.66C1337.01 182.756 1338.03 184.451 1338.17 186.716C1338.29 188.787 1337.74 190.603 1336.22 192.063C1335.24 193.002 1334.07 193.6 1332.77 193.928C1332.4 194.019 1332.3 194.168 1332.31 194.538C1332.35 195.328 1332.32 196.117 1332.33 196.907C1332.33 197.137 1332.28 197.222 1332.03 197.213C1331.49 197.192 1330.94 197.207 1330.39 197.207Z" fill="#FF985F"/>
<path d="M1323.24 189.812H1325.37V187.657L1326.57 186.214L1328.97 189.812H1331.33L1327.84 184.696L1330.86 181.068H1328.46L1325.37 185.106V178.047H1323.24V189.812Z" fill="#FFF4EC"/>
<path d="M1336.28 183.209C1336.59 183.209 1336.95 183.284 1337.29 183.406L1337.42 180.947C1337.22 180.871 1336.98 180.825 1336.75 180.825C1335.92 180.825 1334.89 181.25 1334.2 182.92V181.068H1332.06V189.812H1334.2V185.531C1334.2 183.664 1335.27 183.209 1336.28 183.209Z" fill="#FFF4EC"/>
<path fill-rule="evenodd" clip-rule="evenodd" d="M1362 228.876C1392.83 228.876 1417.82 203.885 1417.82 173.059C1417.82 171.628 1417.76 170.211 1417.66 168.808H1343.9C1341.32 168.808 1339.22 170.904 1339.22 173.49V224.031C1346.18 227.144 1353.89 228.876 1362 228.876Z" fill="#C8C5D6"/>
<path fill-rule="evenodd" clip-rule="evenodd" d="M1417.33 180.485C1417.65 178.056 1417.82 175.577 1417.82 173.059C1417.82 171.628 1417.76 170.211 1417.66 168.808H1344.07C1341.39 168.808 1339.22 170.979 1339.22 173.657V180.485H1417.33Z" fill="#48367D"/>
<path d="M1351.35 174.693C1351.35 176.032 1350.27 177.117 1348.93 177.117C1347.59 177.117 1346.5 176.032 1346.5 174.693C1346.5 173.354 1347.59 172.268 1348.93 172.268C1350.27 172.268 1351.35 173.354 1351.35 174.693Z" fill="white"/>
<path d="M1359.31 174.647C1359.31 175.986 1358.23 177.072 1356.89 177.072C1355.55 177.072 1354.46 175.986 1354.46 174.647C1354.46 173.308 1355.55 172.222 1356.89 172.222C1358.23 172.222 1359.31 173.308 1359.31 174.647Z" fill="white"/>
<path d="M1367.4 174.647C1367.4 175.986 1366.31 177.072 1364.97 177.072C1363.63 177.072 1362.55 175.986 1362.55 174.647C1362.55 173.308 1363.63 172.222 1364.97 172.222C1366.31 172.222 1367.4 173.308 1367.4 174.647Z" fill="white"/>
<path d="M758.299 267L758.299 279L760.395 279L760.395 267L758.299 267ZM762.885 270.216C762.885 274.84 769.525 273.32 769.525 275.864C769.525 276.776 768.821 277.384 767.461 277.384C766.165 277.384 764.677 276.952 764.469 274.904L762.405 275.384C762.725 277.96 764.997 279.24 767.397 279.24C769.525 279.24 771.621 278.024 771.621 275.736C771.621 271.256 765.013 272.888 765.013 270.136C765.013 269.192 765.733 268.616 766.965 268.616C768.037 268.616 769.237 269.096 769.333 270.76L771.445 270.28C771.093 267.8 768.949 266.76 767.061 266.76C764.965 266.76 762.885 267.912 762.885 270.216ZM775.816 268.872L777.96 268.872C779.32 268.872 780.088 269.672 780.088 271.16C780.088 272.568 779.32 273.368 777.928 273.368L775.816 273.368L775.816 268.872ZM773.72 267L773.72 279L775.816 279L775.816 275.24L778.136 275.24C780.696 275.24 782.328 273.448 782.329 271.128C782.329 268.44 780.793 267 778.12 267L773.72 267ZM797.198 273.368C796.862 270.888 794.894 269.528 792.75 269.528C790.11 269.528 788.11 271.4 788.11 274.376C788.11 277.224 790.078 279.24 792.894 279.24C794.67 279.24 796.75 278.264 797.182 275.448L795.358 275.128C795.15 276.696 794.286 277.496 792.878 277.496C791.006 277.496 790.126 276.072 790.126 274.376C790.126 272.328 791.246 271.256 792.654 271.256C793.934 271.256 795.006 271.944 795.23 273.688L797.198 273.368ZM799.077 266.6L799.077 279L801.077 279L801.077 273.736C801.077 272.088 802.021 271.336 803.365 271.336C804.437 271.336 805.301 271.976 805.301 273.688L805.301 279L807.301 279L807.301 272.824C807.301 270.344 805.781 269.528 804.021 269.528C803.045 269.528 801.733 269.96 801.077 271.144L801.077 266.6L799.077 266.6ZM813.828 271.256C815.124 271.256 816.148 271.864 816.308 273.4L811.3 273.4C811.572 271.976 812.5 271.256 813.828 271.256ZM818.196 274.824L818.196 274.168C818.196 271.448 816.404 269.528 813.908 269.528C811.236 269.528 809.204 271.4 809.204 274.36C809.204 277.4 811.316 279.24 814.036 279.24C815.732 279.24 817.78 278.264 818.132 276.136L816.276 275.816C816.068 276.872 815.46 277.512 813.956 277.512C812.292 277.512 811.38 276.44 811.236 274.824L818.196 274.824ZM828.683 273.368C828.347 270.888 826.379 269.528 824.235 269.528C821.595 269.528 819.595 271.4 819.595 274.376C819.595 277.224 821.563 279.24 824.379 279.24C826.155 279.24 828.235 278.264 828.667 275.448L826.843 275.128C826.635 276.696 825.771 277.496 824.363 277.496C822.491 277.496 821.611 276.072 821.611 274.376C821.611 272.328 822.731 271.256 824.139 271.256C825.419 271.256 826.491 271.944 826.715 273.688L828.683 273.368ZM830.561 279L832.561 279L832.561 276.792L834.257 274.888L837.009 279L839.089 279L835.393 273.592L838.785 269.784L836.609 269.784L832.561 274.552L832.561 266.6L830.561 266.6L830.561 279ZM840.182 272.376C840.182 273.656 840.918 274.6 842.486 274.936L844.166 275.304C845.318 275.56 845.638 275.896 845.638 276.44C845.638 277.208 844.886 277.64 843.782 277.64C842.486 277.64 841.638 277.032 841.51 275.896L839.734 276.216C840.038 278.36 842.038 279.24 843.83 279.24C845.606 279.24 847.494 278.248 847.494 276.248C847.494 274.968 846.742 274.104 845.11 273.752L843.286 273.352C842.358 273.144 842.038 272.696 842.038 272.216C842.038 271.544 842.678 271.128 843.59 271.128C844.694 271.128 845.51 271.528 845.574 272.728L847.35 272.408C846.822 270.344 845.43 269.528 843.574 269.528C842.07 269.528 840.182 270.36 840.182 272.376ZM853.572 272.376C853.572 273.656 854.308 274.6 855.876 274.936L857.556 275.304C858.708 275.56 859.028 275.896 859.028 276.44C859.028 277.208 858.276 277.64 857.172 277.64C855.876 277.64 855.028 277.032 854.9 275.896L853.124 276.216C853.428 278.36 855.428 279.24 857.22 279.24C858.996 279.24 860.884 278.248 860.884 276.248C860.884 274.968 860.132 274.104 858.5 273.752L856.676 273.352C855.748 273.144 855.428 272.696 855.428 272.216C855.428 271.544 856.068 271.128 856.98 271.128C858.084 271.128 858.9 271.528 858.964 272.728L860.74 272.408C860.212 270.344 858.82 269.528 856.964 269.528C855.46 269.528 853.572 270.36 853.572 272.376ZM863.546 267.56L863.546 269.784L861.834 269.784L861.834 271.4L863.546 271.4L863.546 276.408C863.546 278.104 864.394 279.16 866.234 279.16C866.794 279.16 867.45 279.016 867.93 278.872L867.61 277.256C867.242 277.352 867.018 277.4 866.65 277.4C865.834 277.4 865.546 277.032 865.546 276.312L865.546 271.4L867.85 271.4L867.85 269.784L865.546 269.784L865.546 267.24L863.546 267.56ZM873.347 279.24C874.995 279.24 876.003 278.232 876.467 277.096L876.467 279L878.467 279L878.467 269.784L876.467 269.784L876.467 271.592C875.811 270.136 874.803 269.528 873.363 269.528C871.427 269.528 869.299 271.08 869.299 274.296C869.299 277.672 871.443 279.24 873.347 279.24ZM873.907 271.256C875.251 271.256 876.467 272.28 876.467 274.408C876.467 276.6 875.251 277.496 873.891 277.496C872.627 277.496 871.315 276.552 871.315 274.408C871.315 272.232 872.643 271.256 873.907 271.256ZM881.734 267.56L881.734 269.784L880.022 269.784L880.022 271.4L881.734 271.4L881.734 276.408C881.734 278.104 882.582 279.16 884.422 279.16C884.982 279.16 885.638 279.016 886.118 278.872L885.798 277.256C885.43 277.352 885.206 277.4 884.838 277.4C884.022 277.4 883.734 277.032 883.734 276.312L883.734 271.4L886.038 271.4L886.038 269.784L883.734 269.784L883.734 267.24L881.734 267.56ZM892.047 271.256C893.343 271.256 894.367 271.864 894.527 273.4L889.519 273.4C889.791 271.976 890.719 271.256 892.047 271.256ZM896.415 274.824L896.415 274.168C896.415 271.448 894.623 269.528 892.127 269.528C889.455 269.528 887.423 271.4 887.423 274.36C887.423 277.4 889.535 279.24 892.255 279.24C893.951 279.24 895.999 278.264 896.351 276.136L894.495 275.816C894.287 276.872 893.679 277.512 892.175 277.512C890.511 277.512 889.599 276.44 889.455 274.824L896.415 274.824ZM791.311 296.528C788.815 296.528 786.751 298.352 786.751 301.376C786.751 304.4 788.815 306.24 791.311 306.24C793.807 306.24 795.871 304.4 795.871 301.376C795.871 298.352 793.807 296.528 791.311 296.528ZM791.311 298.256C792.687 298.256 793.855 299.264 793.855 301.376C793.855 303.488 792.687 304.512 791.311 304.512C789.935 304.512 788.767 303.488 788.767 301.376C788.767 299.264 789.935 298.256 791.311 298.256ZM798.386 306L800.386 306L800.386 298.4L802.674 298.4L802.674 296.784L800.386 296.784L800.386 296.416C800.386 295.472 800.834 294.976 801.65 294.976C802.082 294.976 802.45 295.04 802.834 295.152L803.106 293.6C802.658 293.44 802.114 293.296 801.442 293.296C799.602 293.296 798.386 294.48 798.386 296.432L798.386 296.784L797.122 296.784L797.122 298.4L798.386 298.4L798.386 306ZM808.405 296.784L808.405 306L810.405 306L810.405 296.784L808.405 296.784ZM809.397 292.8C808.725 292.8 808.197 293.344 808.197 294C808.197 294.656 808.725 295.2 809.397 295.2C810.069 295.2 810.597 294.656 810.597 294C810.597 293.344 810.069 292.8 809.397 292.8ZM817.239 298.336C818.327 298.336 819.191 298.976 819.191 300.688L819.191 306L821.191 306L821.191 299.824C821.191 297.344 819.623 296.528 817.975 296.528C816.887 296.528 815.623 296.976 814.967 298.144L814.967 296.784L812.967 296.784L812.967 306L814.967 306L814.967 300.736C814.967 299.088 815.911 298.336 817.239 298.336ZM831.831 296.784L829.607 296.784L827.239 303.744L824.855 296.784L822.631 296.784L826.311 306L828.151 306L831.831 296.784ZM837.342 296.528C834.846 296.528 832.782 298.352 832.782 301.376C832.782 304.4 834.846 306.24 837.342 306.24C839.838 306.24 841.902 304.4 841.902 301.376C841.902 298.352 839.838 296.528 837.342 296.528ZM837.342 298.256C838.718 298.256 839.886 299.264 839.886 301.376C839.886 303.488 838.718 304.512 837.342 304.512C835.966 304.512 834.798 303.488 834.798 301.376C834.798 299.264 835.966 298.256 837.342 298.256ZM843.889 296.784L843.889 306L845.889 306L845.889 296.784L843.889 296.784ZM844.881 292.8C844.209 292.8 843.681 293.344 843.681 294C843.681 294.656 844.209 295.2 844.881 295.2C845.553 295.2 846.081 294.656 846.081 294C846.081 293.344 845.553 292.8 844.881 292.8ZM856.964 300.368C856.628 297.888 854.66 296.528 852.516 296.528C849.876 296.528 847.876 298.4 847.876 301.376C847.876 304.224 849.844 306.24 852.66 306.24C854.436 306.24 856.516 305.264 856.948 302.448L855.124 302.128C854.916 303.696 854.052 304.496 852.644 304.496C850.772 304.496 849.892 303.072 849.892 301.376C849.892 299.328 851.012 298.256 852.42 298.256C853.7 298.256 854.772 298.944 854.996 300.688L856.964 300.368ZM862.89 298.256C864.186 298.256 865.21 298.864 865.37 300.4L860.362 300.4C860.634 298.976 861.562 298.256 862.89 298.256ZM867.258 301.824L867.258 301.168C867.258 298.448 865.466 296.528 862.97 296.528C860.298 296.528 858.266 298.4 858.266 301.36C858.266 304.4 860.378 306.24 863.098 306.24C864.794 306.24 866.842 305.264 867.194 303.136L865.338 302.816C865.13 303.872 864.522 304.512 863.018 304.512C861.354 304.512 860.442 303.44 860.298 301.824L867.258 301.824Z" fill="#FF5B24"/>
</svg>
