<svg width="320" height="617" viewBox="0 0 320 617" fill="none" xmlns="http://www.w3.org/2000/svg">
<rect width="320" height="617" fill="white"/>
<line x1="78" y1="378.25" x2="141" y2="378.25" stroke="#49367E" stroke-width="1.5" stroke-dasharray="4 4"/>
<line x1="78.75" y1="50" x2="78.75" y2="505" stroke="#FF5B24" stroke-width="1.5"/>
<path d="M136.704 222L136.704 228L137.752 228L137.752 222L136.704 222ZM138.997 223.608C138.997 225.92 142.317 225.16 142.317 226.432C142.317 226.888 141.965 227.192 141.285 227.192C140.637 227.192 139.893 226.976 139.789 225.952L138.757 226.192C138.917 227.48 140.053 228.12 141.253 228.12C142.317 228.12 143.365 227.512 143.365 226.368C143.365 224.128 140.061 224.944 140.061 223.568C140.061 223.096 140.421 222.808 141.037 222.808C141.573 222.808 142.173 223.048 142.221 223.88L143.277 223.64C143.101 222.4 142.029 221.88 141.085 221.88C140.037 221.88 138.997 222.456 138.997 223.608ZM145.463 222.936L146.535 222.936C147.215 222.936 147.599 223.336 147.599 224.08C147.599 224.784 147.215 225.184 146.519 225.184L145.463 225.184L145.463 222.936ZM144.415 222L144.415 228L145.463 228L145.463 226.12L146.623 226.12C147.903 226.12 148.719 225.224 148.719 224.064C148.719 222.72 147.951 222 146.615 222L144.415 222ZM151.802 224.688C151.802 225.328 152.17 225.8 152.954 225.968L153.794 226.152C154.37 226.28 154.53 226.448 154.53 226.72C154.53 227.104 154.154 227.32 153.602 227.32C152.954 227.32 152.53 227.016 152.466 226.448L151.578 226.608C151.73 227.68 152.73 228.12 153.626 228.12C154.514 228.12 155.458 227.624 155.458 226.624C155.458 225.984 155.082 225.552 154.266 225.376L153.354 225.176C152.89 225.072 152.73 224.848 152.73 224.608C152.73 224.272 153.05 224.064 153.506 224.064C154.058 224.064 154.466 224.264 154.498 224.864L155.386 224.704C155.122 223.672 154.426 223.264 153.498 223.264C152.746 223.264 151.802 223.68 151.802 224.688ZM158.461 224.128C159.109 224.128 159.621 224.432 159.701 225.2L157.197 225.2C157.333 224.488 157.797 224.128 158.461 224.128ZM160.645 225.912L160.645 225.584C160.645 224.224 159.749 223.264 158.501 223.264C157.165 223.264 156.149 224.2 156.149 225.68C156.149 227.2 157.205 228.12 158.565 228.12C159.413 228.12 160.437 227.632 160.613 226.568L159.685 226.408C159.581 226.936 159.277 227.256 158.525 227.256C157.693 227.256 157.237 226.72 157.165 225.912L160.645 225.912ZM163.768 224.168C164.312 224.168 164.744 224.488 164.744 225.344L164.744 228L165.744 228L165.744 224.912C165.744 223.672 164.96 223.264 164.136 223.264C163.592 223.264 162.96 223.488 162.632 224.072L162.632 223.392L161.632 223.392L161.632 228L162.632 228L162.632 225.368C162.632 224.544 163.104 224.168 163.768 224.168ZM171.312 221.8L170.312 221.8L170.312 224.296C169.984 223.568 169.488 223.264 168.864 223.264C167.792 223.264 166.728 224.04 166.728 225.648C166.728 227.336 167.8 228.12 168.736 228.12C169.576 228.12 170.08 227.68 170.312 227.128L170.312 228L171.312 228L171.312 221.8ZM169.032 224.128C169.704 224.128 170.312 224.664 170.312 225.704C170.312 226.776 169.704 227.248 169.024 227.248C168.392 227.248 167.736 226.752 167.736 225.704C167.736 224.64 168.4 224.128 169.032 224.128ZM172.497 224.688C172.497 225.328 172.865 225.8 173.649 225.968L174.489 226.152C175.065 226.28 175.225 226.448 175.225 226.72C175.225 227.104 174.849 227.32 174.297 227.32C173.649 227.32 173.225 227.016 173.161 226.448L172.273 226.608C172.425 227.68 173.425 228.12 174.321 228.12C175.209 228.12 176.153 227.624 176.153 226.624C176.153 225.984 175.777 225.552 174.961 225.376L174.049 225.176C173.585 225.072 173.425 224.848 173.425 224.608C173.425 224.272 173.745 224.064 174.201 224.064C174.753 224.064 175.161 224.264 175.193 224.864L176.081 224.704C175.817 223.672 175.121 223.264 174.193 223.264C173.441 223.264 172.497 223.68 172.497 224.688ZM179.288 223.392L179.288 228L180.288 228L180.288 223.392L179.288 223.392ZM179.784 221.4C179.448 221.4 179.184 221.672 179.184 222C179.184 222.328 179.448 222.6 179.784 222.6C180.12 222.6 180.384 222.328 180.384 222C180.384 221.672 180.12 221.4 179.784 221.4ZM183.706 224.168C184.25 224.168 184.682 224.488 184.682 225.344L184.682 228L185.682 228L185.682 224.912C185.682 223.672 184.898 223.264 184.074 223.264C183.53 223.264 182.898 223.488 182.57 224.072L182.57 223.392L181.57 223.392L181.57 228L182.57 228L182.57 225.368C182.57 224.544 183.042 224.168 183.706 224.168ZM191.001 223.392L189.889 223.392L188.705 226.872L187.513 223.392L186.401 223.392L188.241 228L189.161 228L191.001 223.392ZM193.757 223.264C192.509 223.264 191.477 224.176 191.477 225.688C191.477 227.2 192.509 228.12 193.757 228.12C195.005 228.12 196.037 227.2 196.037 225.688C196.037 224.176 195.005 223.264 193.757 223.264ZM193.757 224.128C194.445 224.128 195.029 224.632 195.029 225.688C195.029 226.744 194.445 227.256 193.757 227.256C193.069 227.256 192.485 226.744 192.485 225.688C192.485 224.632 193.069 224.128 193.757 224.128ZM197.031 223.392L197.031 228L198.031 228L198.031 223.392L197.031 223.392ZM197.527 221.4C197.191 221.4 196.927 221.672 196.927 222C196.927 222.328 197.191 222.6 197.527 222.6C197.863 222.6 198.127 222.328 198.127 222C198.127 221.672 197.863 221.4 197.527 221.4ZM203.568 225.184C203.4 223.944 202.416 223.264 201.344 223.264C200.024 223.264 199.024 224.2 199.024 225.688C199.024 227.112 200.008 228.12 201.416 228.12C202.304 228.12 203.344 227.632 203.56 226.224L202.648 226.064C202.544 226.848 202.112 227.248 201.408 227.248C200.472 227.248 200.032 226.536 200.032 225.688C200.032 224.664 200.592 224.128 201.296 224.128C201.936 224.128 202.472 224.472 202.584 225.344L203.568 225.184ZM206.531 224.128C207.179 224.128 207.691 224.432 207.771 225.2L205.267 225.2C205.403 224.488 205.867 224.128 206.531 224.128ZM208.715 225.912L208.715 225.584C208.715 224.224 207.819 223.264 206.571 223.264C205.235 223.264 204.219 224.2 204.219 225.68C204.219 227.2 205.275 228.12 206.635 228.12C207.483 228.12 208.507 227.632 208.683 226.568L207.755 226.408C207.651 226.936 207.347 227.256 206.595 227.256C205.763 227.256 205.307 226.72 205.235 225.912L208.715 225.912Z" fill="#FF5B24"/>
<path d="M142.288 453.144C142.048 451.672 140.784 450.88 139.528 450.88C137.816 450.88 136.4 452.12 136.4 453.96C136.4 455.928 137.832 457.12 139.552 457.12C140.712 457.12 142.16 456.344 142.336 454.696L141.256 454.536C141.168 455.728 140.352 456.096 139.552 456.096C138.416 456.096 137.528 455.448 137.528 453.96C137.528 452.608 138.416 451.904 139.488 451.904C140.224 451.904 141.032 452.208 141.208 453.304L142.288 453.144ZM147.462 457L147.462 452.392L146.462 452.392L146.462 455.072C146.462 455.856 145.942 456.216 145.27 456.216C144.654 456.216 144.35 455.944 144.35 455.232L144.35 452.392L143.35 452.392L143.35 455.608C143.35 456.672 144.118 457.12 144.886 457.12C145.462 457.12 146.102 456.856 146.462 456.224L146.462 457L147.462 457ZM148.63 453.688C148.63 454.328 148.998 454.8 149.782 454.968L150.622 455.152C151.198 455.28 151.358 455.448 151.358 455.72C151.358 456.104 150.982 456.32 150.43 456.32C149.782 456.32 149.358 456.016 149.294 455.448L148.406 455.608C148.558 456.68 149.558 457.12 150.454 457.12C151.342 457.12 152.286 456.624 152.286 455.624C152.286 454.984 151.91 454.552 151.094 454.376L150.182 454.176C149.718 454.072 149.558 453.848 149.558 453.608C149.558 453.272 149.878 453.064 150.334 453.064C150.886 453.064 151.294 453.264 151.326 453.864L152.214 453.704C151.95 452.672 151.254 452.264 150.326 452.264C149.574 452.264 148.63 452.68 148.63 453.688ZM153.617 451.28L153.617 452.392L152.761 452.392L152.761 453.2L153.617 453.2L153.617 455.704C153.617 456.552 154.041 457.08 154.961 457.08C155.241 457.08 155.569 457.008 155.809 456.936L155.649 456.128C155.465 456.176 155.353 456.2 155.169 456.2C154.761 456.2 154.617 456.016 154.617 455.656L154.617 453.2L155.769 453.2L155.769 452.392L154.617 452.392L154.617 451.12L153.617 451.28ZM158.741 452.264C157.493 452.264 156.461 453.176 156.461 454.688C156.461 456.2 157.493 457.12 158.741 457.12C159.989 457.12 161.021 456.2 161.021 454.688C161.021 453.176 159.989 452.264 158.741 452.264ZM158.741 453.128C159.429 453.128 160.013 453.632 160.013 454.688C160.013 455.744 159.429 456.256 158.741 456.256C158.053 456.256 157.469 455.744 157.469 454.688C157.469 453.632 158.053 453.128 158.741 453.128ZM167.111 453.168C167.679 453.168 168.111 453.488 168.111 454.344L168.111 457L169.111 457L169.111 453.912C169.111 452.672 168.351 452.264 167.511 452.264C166.999 452.264 166.351 452.472 166.007 453.16C165.759 452.504 165.175 452.264 164.559 452.264C164.007 452.264 163.343 452.48 163.015 453.072L163.015 452.392L162.015 452.392L162.015 457L163.015 457L163.015 454.368C163.015 453.544 163.487 453.168 164.127 453.168C164.695 453.168 165.127 453.488 165.127 454.344L165.127 457L166.127 457L166.127 454.368C166.127 453.544 166.543 453.168 167.111 453.168ZM172.375 453.128C173.023 453.128 173.535 453.432 173.615 454.2L171.111 454.2C171.247 453.488 171.711 453.128 172.375 453.128ZM174.559 454.912L174.559 454.584C174.559 453.224 173.663 452.264 172.415 452.264C171.079 452.264 170.063 453.2 170.063 454.68C170.063 456.2 171.119 457.12 172.479 457.12C173.327 457.12 174.351 456.632 174.527 455.568L173.599 455.408C173.495 455.936 173.191 456.256 172.439 456.256C171.607 456.256 171.151 455.72 171.079 454.912L174.559 454.912ZM177.754 453.344C178.002 453.344 178.178 453.376 178.354 453.448L178.45 452.328C178.354 452.28 178.218 452.264 178.098 452.264C177.642 452.264 176.922 452.528 176.546 453.496L176.546 452.392L175.546 452.392L175.546 457L176.546 457L176.546 454.984C176.546 453.704 177.106 453.344 177.754 453.344ZM183.127 457.12C183.951 457.12 184.455 456.616 184.687 456.048L184.687 457L185.687 457L185.687 452.392L184.687 452.392L184.687 453.296C184.359 452.568 183.855 452.264 183.135 452.264C182.167 452.264 181.103 453.04 181.103 454.648C181.103 456.336 182.175 457.12 183.127 457.12ZM183.407 453.128C184.079 453.128 184.687 453.64 184.687 454.704C184.687 455.8 184.079 456.248 183.399 456.248C182.767 456.248 182.111 455.776 182.111 454.704C182.111 453.616 182.775 453.128 183.407 453.128ZM189.528 452.264C188.744 452.264 188.264 452.76 187.968 453.296L187.968 452.392L186.968 452.392L186.968 458.6L187.968 458.6L187.968 456.128C188.352 456.784 188.848 457.12 189.432 457.12C190.504 457.12 191.552 456.304 191.552 454.624C191.552 453.016 190.464 452.264 189.528 452.264ZM189.256 453.128C189.888 453.128 190.544 453.632 190.544 454.68C190.544 455.744 189.888 456.248 189.248 456.248C188.576 456.248 187.968 455.704 187.968 454.68C187.968 453.608 188.576 453.128 189.256 453.128ZM195.137 452.264C194.353 452.264 193.873 452.76 193.577 453.296L193.577 452.392L192.577 452.392L192.577 458.6L193.577 458.6L193.577 456.128C193.961 456.784 194.457 457.12 195.041 457.12C196.113 457.12 197.161 456.304 197.161 454.624C197.162 453.016 196.073 452.264 195.137 452.264ZM194.865 453.128C195.497 453.128 196.153 453.632 196.153 454.68C196.153 455.744 195.497 456.248 194.857 456.248C194.185 456.248 193.577 455.704 193.577 454.68C193.577 453.608 194.185 453.128 194.865 453.128ZM200.395 453.344C200.643 453.344 200.819 453.376 200.995 453.448L201.091 452.328C200.995 452.28 200.859 452.264 200.739 452.264C200.283 452.264 199.563 452.528 199.187 453.496L199.187 452.392L198.187 452.392L198.187 457L199.187 457L199.187 454.984C199.187 453.704 199.747 453.344 200.395 453.344ZM203.835 452.264C202.587 452.264 201.555 453.176 201.555 454.688C201.555 456.2 202.587 457.12 203.835 457.12C205.083 457.12 206.115 456.2 206.115 454.688C206.115 453.176 205.083 452.264 203.835 452.264ZM203.835 453.128C204.523 453.128 205.107 453.632 205.107 454.688C205.107 455.744 204.523 456.256 203.835 456.256C203.147 456.256 202.563 455.744 202.563 454.688C202.563 453.632 203.147 453.128 203.835 453.128ZM211.189 452.392L210.077 452.392L208.893 455.872L207.701 452.392L206.589 452.392L208.429 457L209.349 457L211.189 452.392ZM213.976 453.128C214.624 453.128 215.136 453.432 215.216 454.2L212.712 454.2C212.848 453.488 213.312 453.128 213.976 453.128ZM216.16 454.912L216.16 454.584C216.16 453.224 215.264 452.264 214.016 452.264C212.68 452.264 211.664 453.2 211.664 454.68C211.664 456.2 212.72 457.12 214.08 457.12C214.928 457.12 215.952 456.632 216.128 455.568L215.2 455.408C215.096 455.936 214.792 456.256 214.04 456.256C213.208 456.256 212.752 455.72 212.68 454.912L216.16 454.912ZM217.052 453.688C217.052 454.328 217.42 454.8 218.204 454.968L219.044 455.152C219.62 455.28 219.78 455.448 219.78 455.72C219.78 456.104 219.404 456.32 218.852 456.32C218.204 456.32 217.78 456.016 217.716 455.448L216.828 455.608C216.98 456.68 217.98 457.12 218.876 457.12C219.764 457.12 220.708 456.624 220.708 455.624C220.708 454.984 220.332 454.552 219.516 454.376L218.604 454.176C218.14 454.072 217.98 453.848 217.98 453.608C217.98 453.272 218.3 453.064 218.756 453.064C219.308 453.064 219.716 453.264 219.748 453.864L220.636 453.704C220.372 452.672 219.676 452.264 218.748 452.264C217.996 452.264 217.052 452.68 217.052 453.688Z" fill="#FF5B24"/>
<path d="M141.176 50.744L141.168 50.808C141.072 51.568 140.456 52.096 139.512 52.096C138.52 52.096 137.528 51.504 137.528 50.024C137.528 48.616 138.352 47.904 139.456 47.904C140.296 47.904 141.008 48.224 141.144 49.224L142.2 49.064C141.968 47.392 140.52 46.88 139.52 46.88C137.728 46.88 136.4 48.168 136.4 50.024C136.4 51.8 137.704 53.12 139.224 53.12C140.192 53.12 140.88 52.52 141.2 51.88L141.208 51.88L141.392 53L142.28 53L142.28 49.8L139.6 49.8L139.6 50.744L141.176 50.744ZM145.594 49.128C146.242 49.128 146.754 49.432 146.834 50.2L144.33 50.2C144.466 49.488 144.93 49.128 145.594 49.128ZM147.778 50.912L147.778 50.584C147.778 49.224 146.882 48.264 145.634 48.264C144.298 48.264 143.282 49.2 143.282 50.68C143.282 52.2 144.338 53.12 145.698 53.12C146.546 53.12 147.57 52.632 147.746 51.568L146.818 51.408C146.714 51.936 146.41 52.256 145.658 52.256C144.826 52.256 144.37 51.72 144.298 50.912L147.778 50.912ZM149.117 47.28L149.117 48.392L148.261 48.392L148.261 49.2L149.117 49.2L149.117 51.704C149.117 52.552 149.541 53.08 150.461 53.08C150.741 53.08 151.069 53.008 151.309 52.936L151.149 52.128C150.965 52.176 150.853 52.2 150.669 52.2C150.261 52.2 150.117 52.016 150.117 51.656L150.117 49.2L151.269 49.2L151.269 48.392L150.117 48.392L150.117 47.12L149.117 47.28ZM156.174 53.12C156.998 53.12 157.502 52.616 157.734 52.048L157.734 53L158.734 53L158.734 48.392L157.734 48.392L157.734 49.296C157.406 48.568 156.902 48.264 156.182 48.264C155.214 48.264 154.15 49.04 154.15 50.648C154.15 52.336 155.222 53.12 156.174 53.12ZM156.454 49.128C157.126 49.128 157.734 49.64 157.734 50.704C157.734 51.8 157.126 52.248 156.446 52.248C155.814 52.248 155.158 51.776 155.158 50.704C155.158 49.616 155.822 49.128 156.454 49.128ZM164.271 50.184C164.103 48.944 163.119 48.264 162.047 48.264C160.727 48.264 159.727 49.2 159.727 50.688C159.727 52.112 160.711 53.12 162.119 53.12C163.007 53.12 164.047 52.632 164.263 51.224L163.351 51.064C163.247 51.848 162.815 52.248 162.111 52.248C161.175 52.248 160.735 51.536 160.735 50.688C160.735 49.664 161.295 49.128 161.999 49.128C162.639 49.128 163.175 49.472 163.287 50.344L164.271 50.184ZM169.466 50.184C169.298 48.944 168.314 48.264 167.242 48.264C165.922 48.264 164.922 49.2 164.922 50.688C164.922 52.112 165.906 53.12 167.314 53.12C168.202 53.12 169.242 52.632 169.458 51.224L168.546 51.064C168.442 51.848 168.01 52.248 167.306 52.248C166.37 52.248 165.93 51.536 165.93 50.688C165.93 49.664 166.49 49.128 167.194 49.128C167.834 49.128 168.37 49.472 168.482 50.344L169.466 50.184ZM172.43 49.128C173.078 49.128 173.59 49.432 173.67 50.2L171.166 50.2C171.302 49.488 171.766 49.128 172.43 49.128ZM174.614 50.912L174.614 50.584C174.614 49.224 173.718 48.264 172.47 48.264C171.134 48.264 170.118 49.2 170.118 50.68C170.118 52.2 171.174 53.12 172.534 53.12C173.382 53.12 174.406 52.632 174.582 51.568L173.654 51.408C173.55 51.936 173.246 52.256 172.494 52.256C171.662 52.256 171.206 51.72 171.134 50.912L174.614 50.912ZM175.505 49.688C175.505 50.328 175.873 50.8 176.657 50.968L177.497 51.152C178.073 51.28 178.233 51.448 178.233 51.72C178.233 52.104 177.857 52.32 177.305 52.32C176.657 52.32 176.233 52.016 176.169 51.448L175.281 51.608C175.433 52.68 176.433 53.12 177.329 53.12C178.217 53.12 179.161 52.624 179.161 51.624C179.161 50.984 178.785 50.552 177.969 50.376L177.057 50.176C176.593 50.072 176.433 49.848 176.433 49.608C176.433 49.272 176.753 49.064 177.209 49.064C177.761 49.064 178.169 49.264 178.201 49.864L179.089 49.704C178.825 48.672 178.129 48.264 177.201 48.264C176.449 48.264 175.505 48.68 175.505 49.688ZM180.044 49.688C180.044 50.328 180.412 50.8 181.196 50.968L182.036 51.152C182.612 51.28 182.772 51.448 182.772 51.72C182.772 52.104 182.396 52.32 181.844 52.32C181.196 52.32 180.772 52.016 180.708 51.448L179.82 51.608C179.972 52.68 180.972 53.12 181.868 53.12C182.756 53.12 183.7 52.624 183.7 51.624C183.7 50.984 183.324 50.552 182.508 50.376L181.596 50.176C181.132 50.072 180.972 49.848 180.972 49.608C180.972 49.272 181.292 49.064 181.748 49.064C182.3 49.064 182.708 49.264 182.74 49.864L183.628 49.704C183.364 48.672 182.668 48.264 181.74 48.264C180.988 48.264 180.044 48.68 180.044 49.688ZM187.187 47.28L187.187 48.392L186.331 48.392L186.331 49.2L187.187 49.2L187.187 51.704C187.187 52.552 187.611 53.08 188.531 53.08C188.811 53.08 189.139 53.008 189.379 52.936L189.219 52.128C189.035 52.176 188.923 52.2 188.739 52.2C188.331 52.2 188.187 52.016 188.187 51.656L188.187 49.2L189.339 49.2L189.339 48.392L188.187 48.392L188.187 47.12L187.187 47.28ZM192.312 48.264C191.064 48.264 190.032 49.176 190.032 50.688C190.032 52.2 191.064 53.12 192.312 53.12C193.56 53.12 194.592 52.2 194.592 50.688C194.592 49.176 193.56 48.264 192.312 48.264ZM192.312 49.128C193 49.128 193.584 49.632 193.584 50.688C193.584 51.744 193 52.256 192.312 52.256C191.624 52.256 191.04 51.744 191.04 50.688C191.04 49.632 191.624 49.128 192.312 49.128ZM195.585 53L196.585 53L196.585 51.896L197.433 50.944L198.809 53L199.849 53L198.001 50.296L199.697 48.392L198.609 48.392L196.585 50.776L196.585 46.8L195.585 46.8L195.585 53ZM202.516 49.128C203.164 49.128 203.676 49.432 203.756 50.2L201.252 50.2C201.388 49.488 201.852 49.128 202.516 49.128ZM204.7 50.912L204.7 50.584C204.7 49.224 203.804 48.264 202.556 48.264C201.22 48.264 200.204 49.2 200.204 50.68C200.204 52.2 201.26 53.12 202.62 53.12C203.468 53.12 204.492 52.632 204.668 51.568L203.74 51.408C203.636 51.936 203.332 52.256 202.58 52.256C201.748 52.256 201.292 51.72 201.22 50.912L204.7 50.912ZM207.823 49.168C208.367 49.168 208.799 49.488 208.799 50.344L208.799 53L209.799 53L209.799 49.912C209.799 48.672 209.015 48.264 208.191 48.264C207.647 48.264 207.015 48.488 206.687 49.072L206.687 48.392L205.687 48.392L205.687 53L206.687 53L206.687 50.368C206.687 49.544 207.159 49.168 207.823 49.168Z" fill="#FF5B24"/>
<path d="M136.704 91L136.704 97L137.752 97L137.752 94.712L138.512 94.712C139.16 94.712 139.536 94.968 139.632 95.52L139.792 96.448C139.84 96.744 139.976 96.904 140.136 97L141.4 97C141.176 96.864 141 96.624 140.928 96.344L140.68 95.376C140.536 94.808 140.264 94.544 139.872 94.384C140.424 94.064 140.848 93.512 140.848 92.816C140.848 91.696 140.096 91 138.784 91L136.704 91ZM138.76 91.936C139.32 91.936 139.728 92.264 139.728 92.864C139.728 93.392 139.36 93.776 138.768 93.776L137.752 93.776L137.752 91.936L138.76 91.936ZM143.922 93.128C144.57 93.128 145.082 93.432 145.162 94.2L142.658 94.2C142.794 93.488 143.258 93.128 143.922 93.128ZM146.106 94.912L146.106 94.584C146.106 93.224 145.21 92.264 143.962 92.264C142.626 92.264 141.61 93.2 141.61 94.68C141.61 96.2 142.666 97.12 144.026 97.12C144.874 97.12 145.898 96.632 146.074 95.568L145.146 95.408C145.042 95.936 144.738 96.256 143.986 96.256C143.154 96.256 142.698 95.72 142.626 94.912L146.106 94.912ZM148.789 96.736C149.597 96.736 150.021 96.208 150.269 95.704L150.269 96.392C150.269 97.368 149.861 97.768 148.973 97.768C148.413 97.768 147.877 97.608 147.789 96.944L146.821 97.104C147.053 98.272 148.101 98.664 148.933 98.664C150.405 98.664 151.269 97.896 151.269 96.352L151.269 92.384L150.269 92.384L150.269 93.28C149.917 92.568 149.477 92.264 148.869 92.264C147.829 92.264 146.845 92.968 146.845 94.432C146.845 96 147.845 96.736 148.789 96.736ZM149.045 93.128C149.717 93.128 150.269 93.616 150.269 94.496C150.269 95.424 149.717 95.864 149.045 95.864C148.397 95.864 147.853 95.424 147.853 94.488C147.853 93.584 148.421 93.128 149.045 93.128ZM152.546 92.392L152.546 97L153.546 97L153.546 92.392L152.546 92.392ZM153.042 90.4C152.706 90.4 152.442 90.672 152.442 91C152.442 91.328 152.706 91.6 153.042 91.6C153.378 91.6 153.642 91.328 153.642 91C153.642 90.672 153.378 90.4 153.042 90.4ZM154.731 93.688C154.731 94.328 155.099 94.8 155.883 94.968L156.723 95.152C157.299 95.28 157.459 95.448 157.459 95.72C157.459 96.104 157.083 96.32 156.531 96.32C155.883 96.32 155.459 96.016 155.395 95.448L154.507 95.608C154.659 96.68 155.659 97.12 156.555 97.12C157.443 97.12 158.387 96.624 158.387 95.624C158.387 94.984 158.011 94.552 157.195 94.376L156.283 94.176C155.819 94.072 155.659 93.848 155.659 93.608C155.659 93.272 155.979 93.064 156.435 93.064C156.987 93.064 157.395 93.264 157.427 93.864L158.315 93.704C158.051 92.672 157.355 92.264 156.427 92.264C155.675 92.264 154.731 92.68 154.731 93.688ZM159.719 91.28L159.719 92.392L158.863 92.392L158.863 93.2L159.719 93.2L159.719 95.704C159.719 96.552 160.143 97.08 161.063 97.08C161.343 97.08 161.671 97.008 161.911 96.936L161.751 96.128C161.567 96.176 161.455 96.2 161.271 96.2C160.863 96.2 160.719 96.016 160.719 95.656L160.719 93.2L161.871 93.2L161.871 92.392L160.719 92.392L160.719 91.12L159.719 91.28ZM165.059 93.344C165.307 93.344 165.483 93.376 165.659 93.448L165.755 92.328C165.659 92.28 165.523 92.264 165.403 92.264C164.947 92.264 164.227 92.528 163.851 93.496L163.851 92.392L162.851 92.392L162.851 97L163.851 97L163.851 94.984C163.851 93.704 164.411 93.344 165.059 93.344ZM166.915 98.6C167.811 98.6 168.387 98.128 168.747 97.192L170.587 92.392L169.475 92.392L168.315 95.992L167.099 92.392L165.987 92.392L167.683 96.648C167.915 97.232 167.699 97.768 167.011 97.768C166.651 97.768 166.427 97.656 166.283 97.568L166.123 98.432C166.339 98.536 166.611 98.6 166.915 98.6ZM180.147 92.392L179.035 92.392L178.051 95.752L176.939 92.392L176.195 92.392L175.091 95.736L174.099 92.392L172.987 92.392L174.643 97L175.507 97L176.571 94.088L177.627 97L178.491 97L180.147 92.392ZM182.674 97.12C183.498 97.12 184.002 96.616 184.234 96.048L184.234 97L185.234 97L185.234 92.392L184.234 92.392L184.234 93.296C183.906 92.568 183.402 92.264 182.682 92.264C181.714 92.264 180.65 93.04 180.65 94.648C180.65 96.336 181.722 97.12 182.674 97.12ZM182.954 93.128C183.626 93.128 184.234 93.64 184.234 94.704C184.234 95.8 183.626 96.248 182.946 96.248C182.314 96.248 181.658 95.776 181.658 94.704C181.658 93.616 182.322 93.128 182.954 93.128ZM186.419 93.688C186.419 94.328 186.787 94.8 187.571 94.968L188.411 95.152C188.987 95.28 189.147 95.448 189.147 95.72C189.147 96.104 188.771 96.32 188.219 96.32C187.571 96.32 187.147 96.016 187.083 95.448L186.195 95.608C186.347 96.68 187.347 97.12 188.243 97.12C189.131 97.12 190.075 96.624 190.075 95.624C190.075 94.984 189.699 94.552 188.883 94.376L187.971 94.176C187.507 94.072 187.347 93.848 187.347 93.608C187.347 93.272 187.667 93.064 188.123 93.064C188.675 93.064 189.083 93.264 189.115 93.864L190.003 93.704C189.739 92.672 189.043 92.264 188.115 92.264C187.363 92.264 186.419 92.68 186.419 93.688ZM191.054 90.8L191.054 97L192.054 97L192.054 94.368C192.054 93.544 192.526 93.168 193.198 93.168C193.734 93.168 194.166 93.488 194.166 94.344L194.166 97L195.166 97L195.166 93.912C195.166 92.672 194.406 92.264 193.526 92.264C193.038 92.264 192.382 92.48 192.054 93.072L192.054 90.8L191.054 90.8ZM196.406 92.392L196.406 97L197.406 97L197.406 92.392L196.406 92.392ZM196.902 90.4C196.566 90.4 196.302 90.672 196.302 91C196.302 91.328 196.566 91.6 196.902 91.6C197.238 91.6 197.502 91.328 197.502 91C197.502 90.672 197.238 90.4 196.902 90.4ZM200.823 93.168C201.367 93.168 201.799 93.488 201.799 94.344L201.799 97L202.799 97L202.799 93.912C202.799 92.672 202.015 92.264 201.191 92.264C200.647 92.264 200.015 92.488 199.687 93.072L199.687 92.392L198.687 92.392L198.687 97L199.687 97L199.687 94.368C199.687 93.544 200.159 93.168 200.823 93.168ZM205.734 96.736C206.542 96.736 206.966 96.208 207.214 95.704L207.214 96.392C207.214 97.368 206.806 97.768 205.918 97.768C205.358 97.768 204.822 97.608 204.734 96.944L203.766 97.104C203.998 98.272 205.046 98.664 205.878 98.664C207.35 98.664 208.214 97.896 208.214 96.352L208.214 92.384L207.214 92.384L207.214 93.28C206.862 92.568 206.422 92.264 205.814 92.264C204.774 92.264 203.79 92.968 203.79 94.432C203.79 96 204.79 96.736 205.734 96.736ZM205.99 93.128C206.662 93.128 207.214 93.616 207.214 94.496C207.214 95.424 206.662 95.864 205.99 95.864C205.342 95.864 204.798 95.424 204.798 94.488C204.798 93.584 205.366 93.128 205.99 93.128ZM213.416 97.12C214.24 97.12 214.744 96.616 214.976 96.048L214.976 97L215.976 97L215.976 92.392L214.976 92.392L214.976 93.296C214.648 92.568 214.144 92.264 213.424 92.264C212.456 92.264 211.392 93.04 211.392 94.648C211.392 96.336 212.464 97.12 213.416 97.12ZM213.696 93.128C214.368 93.128 214.976 93.64 214.976 94.704C214.976 95.8 214.368 96.248 213.688 96.248C213.056 96.248 212.4 95.776 212.4 94.704C212.4 93.616 213.064 93.128 213.696 93.128ZM219.393 93.168C219.937 93.168 220.369 93.488 220.369 94.344L220.369 97L221.369 97L221.369 93.912C221.369 92.672 220.585 92.264 219.761 92.264C219.217 92.264 218.585 92.488 218.257 93.072L218.257 92.392L217.257 92.392L217.257 97L218.257 97L218.257 94.368C218.257 93.544 218.729 93.168 219.393 93.168ZM226.937 90.8L225.937 90.8L225.937 93.296C225.609 92.568 225.113 92.264 224.489 92.264C223.417 92.264 222.353 93.04 222.353 94.648C222.353 96.336 223.425 97.12 224.361 97.12C225.201 97.12 225.705 96.68 225.937 96.128L225.937 97L226.937 97L226.937 90.8ZM224.657 93.128C225.329 93.128 225.937 93.664 225.937 94.704C225.937 95.776 225.329 96.248 224.649 96.248C224.017 96.248 223.361 95.752 223.361 94.704C223.361 93.64 224.025 93.128 224.657 93.128ZM140.896 107.184C140.728 105.944 139.744 105.264 138.672 105.264C137.352 105.264 136.352 106.2 136.352 107.688C136.352 109.112 137.336 110.12 138.744 110.12C139.632 110.12 140.672 109.632 140.888 108.224L139.976 108.064C139.872 108.848 139.44 109.248 138.736 109.248C137.8 109.248 137.36 108.536 137.36 107.688C137.36 106.664 137.92 106.128 138.624 106.128C139.264 106.128 139.8 106.472 139.912 107.344L140.896 107.184ZM145.923 110L145.923 105.392L144.923 105.392L144.923 108.072C144.923 108.856 144.403 109.216 143.731 109.216C143.115 109.216 142.811 108.944 142.811 108.232L142.811 105.392L141.811 105.392L141.811 108.608C141.811 109.672 142.579 110.12 143.347 110.12C143.923 110.12 144.563 109.856 144.923 109.224L144.923 110L145.923 110ZM147.091 106.688C147.091 107.328 147.459 107.8 148.243 107.968L149.083 108.152C149.659 108.28 149.819 108.448 149.819 108.72C149.819 109.104 149.443 109.32 148.891 109.32C148.243 109.32 147.819 109.016 147.755 108.448L146.867 108.608C147.019 109.68 148.019 110.12 148.915 110.12C149.803 110.12 150.747 109.624 150.747 108.624C150.747 107.984 150.371 107.552 149.555 107.376L148.643 107.176C148.179 107.072 148.019 106.848 148.019 106.608C148.019 106.272 148.339 106.064 148.795 106.064C149.347 106.064 149.755 106.264 149.787 106.864L150.675 106.704C150.411 105.672 149.715 105.264 148.787 105.264C148.035 105.264 147.091 105.68 147.091 106.688ZM152.078 104.28L152.078 105.392L151.222 105.392L151.222 106.2L152.078 106.2L152.078 108.704C152.078 109.552 152.502 110.08 153.422 110.08C153.702 110.08 154.03 110.008 154.27 109.936L154.11 109.128C153.926 109.176 153.814 109.2 153.63 109.2C153.222 109.2 153.078 109.016 153.078 108.656L153.078 106.2L154.23 106.2L154.23 105.392L153.078 105.392L153.078 104.12L152.078 104.28ZM157.202 105.264C155.954 105.264 154.922 106.176 154.922 107.688C154.922 109.2 155.954 110.12 157.202 110.12C158.45 110.12 159.482 109.2 159.482 107.688C159.482 106.176 158.45 105.264 157.202 105.264ZM157.202 106.128C157.89 106.128 158.474 106.632 158.474 107.688C158.474 108.744 157.89 109.256 157.202 109.256C156.514 109.256 155.93 108.744 155.93 107.688C155.93 106.632 156.514 106.128 157.202 106.128ZM165.572 106.168C166.14 106.168 166.572 106.488 166.572 107.344L166.572 110L167.572 110L167.572 106.912C167.572 105.672 166.812 105.264 165.972 105.264C165.46 105.264 164.812 105.472 164.468 106.16C164.22 105.504 163.636 105.264 163.02 105.264C162.468 105.264 161.804 105.48 161.476 106.072L161.476 105.392L160.476 105.392L160.476 110L161.476 110L161.476 107.368C161.476 106.544 161.948 106.168 162.588 106.168C163.156 106.168 163.588 106.488 163.588 107.344L163.588 110L164.588 110L164.588 107.368C164.588 106.544 165.004 106.168 165.572 106.168ZM170.836 106.128C171.484 106.128 171.996 106.432 172.076 107.2L169.572 107.2C169.708 106.488 170.172 106.128 170.836 106.128ZM173.02 107.912L173.02 107.584C173.02 106.224 172.124 105.264 170.876 105.264C169.54 105.264 168.524 106.2 168.524 107.68C168.524 109.2 169.58 110.12 170.94 110.12C171.788 110.12 172.812 109.632 172.988 108.568L172.06 108.408C171.956 108.936 171.652 109.256 170.9 109.256C170.068 109.256 169.612 108.72 169.54 107.912L173.02 107.912ZM176.215 106.344C176.463 106.344 176.639 106.376 176.815 106.448L176.911 105.328C176.815 105.28 176.679 105.264 176.559 105.264C176.103 105.264 175.383 105.528 175.007 106.496L175.007 105.392L174.007 105.392L174.007 110L175.007 110L175.007 107.984C175.007 106.704 175.567 106.344 176.215 106.344ZM179.82 103.8L179.82 110L180.82 110L180.82 103.8L179.82 103.8ZM184.093 105.264C182.845 105.264 181.813 106.176 181.813 107.688C181.813 109.2 182.845 110.12 184.093 110.12C185.341 110.12 186.373 109.2 186.373 107.688C186.373 106.176 185.341 105.264 184.093 105.264ZM184.093 106.128C184.781 106.128 185.365 106.632 185.365 107.688C185.365 108.744 184.781 109.256 184.093 109.256C183.405 109.256 182.821 108.744 182.821 107.688C182.821 106.632 183.405 106.128 184.093 106.128ZM189.359 105.264C188.111 105.264 187.079 106.176 187.079 107.688C187.079 109.2 188.111 110.12 189.359 110.12C190.607 110.12 191.639 109.2 191.639 107.688C191.639 106.176 190.607 105.264 189.359 105.264ZM189.359 106.128C190.047 106.128 190.631 106.632 190.631 107.688C190.631 108.744 190.047 109.256 189.359 109.256C188.671 109.256 188.087 108.744 188.087 107.688C188.087 106.632 188.671 106.128 189.359 106.128ZM192.632 110L193.632 110L193.632 108.896L194.48 107.944L195.856 110L196.896 110L195.048 107.296L196.744 105.392L195.656 105.392L193.632 107.776L193.632 103.8L192.632 103.8L192.632 110ZM201.626 110L201.626 105.392L200.626 105.392L200.626 108.072C200.626 108.856 200.106 109.216 199.434 109.216C198.818 109.216 198.514 108.944 198.514 108.232L198.514 105.392L197.514 105.392L197.514 108.608C197.514 109.672 198.282 110.12 199.05 110.12C199.626 110.12 200.266 109.856 200.626 109.224L200.626 110L201.626 110ZM205.45 105.264C204.666 105.264 204.186 105.76 203.89 106.296L203.89 105.392L202.89 105.392L202.89 111.6L203.89 111.6L203.89 109.128C204.274 109.784 204.77 110.12 205.354 110.12C206.426 110.12 207.474 109.304 207.474 107.624C207.474 106.016 206.386 105.264 205.45 105.264ZM205.178 106.128C205.81 106.128 206.466 106.632 206.466 107.68C206.466 108.744 205.81 109.248 205.17 109.248C204.498 109.248 203.89 108.704 203.89 107.68C203.89 106.608 204.498 106.128 205.178 106.128Z" fill="#FF5B24"/>
<path d="M141.176 150.744L141.168 150.808C141.072 151.568 140.456 152.096 139.512 152.096C138.52 152.096 137.528 151.504 137.528 150.024C137.528 148.616 138.352 147.904 139.456 147.904C140.296 147.904 141.008 148.224 141.144 149.224L142.2 149.064C141.968 147.392 140.52 146.88 139.52 146.88C137.728 146.88 136.4 148.168 136.4 150.024C136.4 151.8 137.704 153.12 139.224 153.12C140.192 153.12 140.88 152.52 141.2 151.88L141.208 151.88L141.392 153L142.28 153L142.28 149.8L139.6 149.8L139.6 150.744L141.176 150.744ZM145.594 149.128C146.242 149.128 146.754 149.432 146.834 150.2L144.33 150.2C144.466 149.488 144.93 149.128 145.594 149.128ZM147.778 150.912L147.778 150.584C147.778 149.224 146.882 148.264 145.634 148.264C144.298 148.264 143.282 149.2 143.282 150.68C143.282 152.2 144.338 153.12 145.698 153.12C146.546 153.12 147.57 152.632 147.746 151.568L146.818 151.408C146.714 151.936 146.41 152.256 145.658 152.256C144.826 152.256 144.37 151.72 144.298 150.912L147.778 150.912ZM149.117 147.28L149.117 148.392L148.261 148.392L148.261 149.2L149.117 149.2L149.117 151.704C149.117 152.552 149.541 153.08 150.461 153.08C150.741 153.08 151.069 153.008 151.309 152.936L151.149 152.128C150.965 152.176 150.853 152.2 150.669 152.2C150.261 152.2 150.117 152.016 150.117 151.656L150.117 149.2L151.269 149.2L151.269 148.392L150.117 148.392L150.117 147.12L149.117 147.28ZM156.614 149.344C156.862 149.344 157.038 149.376 157.214 149.448L157.31 148.328C157.214 148.28 157.078 148.264 156.958 148.264C156.502 148.264 155.782 148.528 155.406 149.496L155.406 148.392L154.406 148.392L154.406 153L155.406 153L155.406 150.984C155.406 149.704 155.966 149.344 156.614 149.344ZM160.086 149.128C160.734 149.128 161.246 149.432 161.326 150.2L158.822 150.2C158.958 149.488 159.422 149.128 160.086 149.128ZM162.27 150.912L162.27 150.584C162.27 149.224 161.374 148.264 160.126 148.264C158.79 148.264 157.774 149.2 157.774 150.68C157.774 152.2 158.83 153.12 160.19 153.12C161.038 153.12 162.062 152.632 162.238 151.568L161.31 151.408C161.206 151.936 160.902 152.256 160.15 152.256C159.318 152.256 158.862 151.72 158.79 150.912L162.27 150.912ZM167.513 150.184C167.345 148.944 166.361 148.264 165.289 148.264C163.969 148.264 162.969 149.2 162.969 150.688C162.969 152.112 163.953 153.12 165.361 153.12C166.249 153.12 167.289 152.632 167.505 151.224L166.593 151.064C166.489 151.848 166.057 152.248 165.353 152.248C164.417 152.248 163.977 151.536 163.977 150.688C163.977 149.664 164.537 149.128 165.241 149.128C165.881 149.128 166.417 149.472 166.529 150.344L167.513 150.184ZM168.452 148.392L168.452 153L169.452 153L169.452 148.392L168.452 148.392ZM168.948 146.4C168.612 146.4 168.348 146.672 168.348 147C168.348 147.328 168.612 147.6 168.948 147.6C169.284 147.6 169.548 147.328 169.548 147C169.548 146.672 169.284 146.4 168.948 146.4ZM173.294 148.264C172.51 148.264 172.03 148.76 171.734 149.296L171.734 148.392L170.734 148.392L170.734 154.6L171.734 154.6L171.734 152.128C172.118 152.784 172.614 153.12 173.198 153.12C174.27 153.12 175.318 152.304 175.318 150.624C175.318 149.016 174.23 148.264 173.294 148.264ZM173.022 149.128C173.654 149.128 174.31 149.632 174.31 150.68C174.31 151.744 173.654 152.248 173.014 152.248C172.342 152.248 171.734 151.704 171.734 150.68C171.734 149.608 172.342 149.128 173.022 149.128ZM176.343 148.392L176.343 153L177.343 153L177.343 148.392L176.343 148.392ZM176.839 146.4C176.503 146.4 176.239 146.672 176.239 147C176.239 147.328 176.503 147.6 176.839 147.6C177.175 147.6 177.439 147.328 177.439 147C177.439 146.672 177.175 146.4 176.839 146.4ZM180.648 149.128C181.296 149.128 181.808 149.432 181.888 150.2L179.384 150.2C179.52 149.488 179.984 149.128 180.648 149.128ZM182.832 150.912L182.832 150.584C182.832 149.224 181.936 148.264 180.688 148.264C179.352 148.264 178.336 149.2 178.336 150.68C178.336 152.2 179.392 153.12 180.752 153.12C181.6 153.12 182.624 152.632 182.8 151.568L181.872 151.408C181.768 151.936 181.464 152.256 180.712 152.256C179.88 152.256 179.424 151.72 179.352 150.912L182.832 150.912ZM185.956 149.168C186.5 149.168 186.932 149.488 186.932 150.344L186.932 153L187.932 153L187.932 149.912C187.932 148.672 187.148 148.264 186.324 148.264C185.78 148.264 185.148 148.488 184.82 149.072L184.82 148.392L183.82 148.392L183.82 153L184.82 153L184.82 150.368C184.82 149.544 185.292 149.168 185.956 149.168ZM189.523 147.28L189.523 148.392L188.667 148.392L188.667 149.2L189.523 149.2L189.523 151.704C189.523 152.552 189.947 153.08 190.867 153.08C191.147 153.08 191.475 153.008 191.715 152.936L191.555 152.128C191.371 152.176 191.259 152.2 191.075 152.2C190.667 152.2 190.523 152.016 190.523 151.656L190.523 149.2L191.675 149.2L191.675 148.392L190.523 148.392L190.523 147.12L189.523 147.28ZM195.164 147.28L195.164 148.392L194.308 148.392L194.308 149.2L195.164 149.2L195.164 151.704C195.164 152.552 195.588 153.08 196.508 153.08C196.788 153.08 197.116 153.008 197.356 152.936L197.196 152.128C197.012 152.176 196.9 152.2 196.716 152.2C196.308 152.2 196.164 152.016 196.164 151.656L196.164 149.2L197.316 149.2L197.316 148.392L196.164 148.392L196.164 147.12L195.164 147.28ZM200.288 148.264C199.04 148.264 198.008 149.176 198.008 150.688C198.008 152.2 199.04 153.12 200.288 153.12C201.536 153.12 202.568 152.2 202.568 150.688C202.568 149.176 201.536 148.264 200.288 148.264ZM200.288 149.128C200.976 149.128 201.56 149.632 201.56 150.688C201.56 151.744 200.976 152.256 200.288 152.256C199.6 152.256 199.016 151.744 199.016 150.688C199.016 149.632 199.6 149.128 200.288 149.128ZM203.562 153L204.562 153L204.562 151.896L205.41 150.944L206.786 153L207.826 153L205.978 150.296L207.674 148.392L206.586 148.392L204.562 150.776L204.562 146.8L203.562 146.8L203.562 153ZM210.492 149.128C211.14 149.128 211.652 149.432 211.732 150.2L209.228 150.2C209.364 149.488 209.828 149.128 210.492 149.128ZM212.676 150.912L212.676 150.584C212.676 149.224 211.78 148.264 210.532 148.264C209.196 148.264 208.18 149.2 208.18 150.68C208.18 152.2 209.236 153.12 210.596 153.12C211.444 153.12 212.468 152.632 212.644 151.568L211.716 151.408C211.612 151.936 211.308 152.256 210.556 152.256C209.724 152.256 209.268 151.72 209.196 150.912L212.676 150.912ZM215.799 149.168C216.343 149.168 216.775 149.488 216.775 150.344L216.775 153L217.775 153L217.775 149.912C217.775 148.672 216.991 148.264 216.167 148.264C215.623 148.264 214.991 148.488 214.663 149.072L214.663 148.392L213.663 148.392L213.663 153L214.663 153L214.663 150.368C214.663 149.544 215.135 149.168 215.799 149.168Z" fill="#FF5B24"/>
<path d="M137.752 527.936L138.824 527.936C139.504 527.936 139.888 528.336 139.888 529.08C139.888 529.784 139.504 530.184 138.808 530.184L137.752 530.184L137.752 527.936ZM136.704 527L136.704 533L137.752 533L137.752 531.12L138.912 531.12C140.192 531.12 141.008 530.224 141.008 529.064C141.008 527.72 140.24 527 138.904 527L136.704 527ZM143.642 533.12C144.466 533.12 144.97 532.616 145.202 532.048L145.202 533L146.202 533L146.202 528.392L145.202 528.392L145.202 529.296C144.874 528.568 144.37 528.264 143.65 528.264C142.682 528.264 141.618 529.04 141.618 530.648C141.618 532.336 142.69 533.12 143.642 533.12ZM143.922 529.128C144.594 529.128 145.202 529.64 145.202 530.704C145.202 531.8 144.594 532.248 143.914 532.248C143.282 532.248 142.626 531.776 142.626 530.704C142.626 529.616 143.29 529.128 143.922 529.128ZM147.892 534.6C148.788 534.6 149.364 534.128 149.724 533.192L151.564 528.392L150.452 528.392L149.292 531.992L148.076 528.392L146.964 528.392L148.66 532.648C148.892 533.232 148.676 533.768 147.988 533.768C147.628 533.768 147.404 533.656 147.26 533.568L147.1 534.432C147.316 534.536 147.588 534.6 147.892 534.6ZM157.423 529.168C157.991 529.168 158.424 529.488 158.423 530.344L158.423 533L159.423 533L159.423 529.912C159.424 528.672 158.664 528.264 157.823 528.264C157.311 528.264 156.664 528.472 156.32 529.16C156.071 528.504 155.487 528.264 154.871 528.264C154.319 528.264 153.655 528.48 153.327 529.072L153.327 528.392L152.327 528.392L152.327 533L153.327 533L153.327 530.368C153.327 529.544 153.799 529.168 154.439 529.168C155.007 529.168 155.439 529.488 155.439 530.344L155.439 533L156.439 533L156.439 530.368C156.439 529.544 156.855 529.168 157.423 529.168ZM162.687 529.128C163.335 529.128 163.847 529.432 163.927 530.2L161.423 530.2C161.559 529.488 162.023 529.128 162.687 529.128ZM164.871 530.912L164.871 530.584C164.871 529.224 163.975 528.264 162.727 528.264C161.391 528.264 160.375 529.2 160.375 530.68C160.375 532.2 161.431 533.12 162.791 533.12C163.639 533.12 164.663 532.632 164.839 531.568L163.911 531.408C163.807 531.936 163.503 532.256 162.751 532.256C161.919 532.256 161.463 531.72 161.391 530.912L164.871 530.912ZM167.995 529.168C168.539 529.168 168.971 529.488 168.971 530.344L168.971 533L169.971 533L169.971 529.912C169.971 528.672 169.187 528.264 168.363 528.264C167.819 528.264 167.187 528.488 166.859 529.072L166.859 528.392L165.859 528.392L165.859 533L166.859 533L166.859 530.368C166.859 529.544 167.331 529.168 167.995 529.168ZM171.562 527.28L171.562 528.392L170.706 528.392L170.706 529.2L171.562 529.2L171.562 531.704C171.562 532.552 171.986 533.08 172.906 533.08C173.186 533.08 173.514 533.008 173.754 532.936L173.594 532.128C173.41 532.176 173.298 532.2 173.114 532.2C172.706 532.2 172.562 532.016 172.562 531.656L172.562 529.2L173.714 529.2L173.714 528.392L172.562 528.392L172.562 527.12L171.562 527.28ZM176.851 528.392L176.851 533L177.851 533L177.851 528.392L176.851 528.392ZM177.347 526.4C177.011 526.4 176.747 526.672 176.747 527C176.747 527.328 177.011 527.6 177.347 527.6C177.683 527.6 177.947 527.328 177.947 527C177.947 526.672 177.683 526.4 177.347 526.4ZM179.036 529.688C179.036 530.328 179.404 530.8 180.188 530.968L181.028 531.152C181.604 531.28 181.764 531.448 181.764 531.72C181.764 532.104 181.388 532.32 180.836 532.32C180.188 532.32 179.764 532.016 179.7 531.448L178.812 531.608C178.964 532.68 179.964 533.12 180.86 533.12C181.748 533.12 182.692 532.624 182.692 531.624C182.692 530.984 182.316 530.552 181.5 530.376L180.588 530.176C180.124 530.072 179.964 529.848 179.964 529.608C179.964 529.272 180.284 529.064 180.74 529.064C181.292 529.064 181.7 529.264 181.732 529.864L182.62 529.704C182.356 528.672 181.66 528.264 180.732 528.264C179.98 528.264 179.036 528.68 179.036 529.688ZM186.179 527.28L186.179 528.392L185.323 528.392L185.323 529.2L186.179 529.2L186.179 531.704C186.179 532.552 186.603 533.08 187.523 533.08C187.803 533.08 188.131 533.008 188.371 532.936L188.211 532.128C188.027 532.176 187.915 532.2 187.731 532.2C187.323 532.2 187.179 532.016 187.179 531.656L187.179 529.2L188.331 529.2L188.331 528.392L187.179 528.392L187.18 527.12L186.179 527.28ZM191.52 529.344C191.768 529.344 191.944 529.376 192.12 529.448L192.216 528.328C192.12 528.28 191.984 528.264 191.864 528.264C191.408 528.264 190.688 528.528 190.312 529.496L190.312 528.392L189.312 528.392L189.312 533L190.312 533L190.312 530.984C190.312 529.704 190.872 529.344 191.52 529.344ZM194.736 533.12C195.56 533.12 196.064 532.616 196.296 532.048L196.296 533L197.296 533L197.296 528.392L196.296 528.392L196.296 529.296C195.968 528.568 195.464 528.264 194.744 528.264C193.776 528.264 192.712 529.04 192.712 530.648C192.712 532.336 193.784 533.12 194.736 533.12ZM195.016 529.128C195.688 529.128 196.296 529.64 196.296 530.704C196.296 531.8 195.688 532.248 195.008 532.248C194.376 532.248 193.72 531.776 193.72 530.704C193.72 529.616 194.384 529.128 195.016 529.128ZM200.713 529.168C201.257 529.168 201.689 529.488 201.689 530.344L201.689 533L202.689 533L202.689 529.912C202.689 528.672 201.905 528.264 201.081 528.264C200.537 528.264 199.905 528.488 199.577 529.072L199.577 528.392L198.577 528.392L198.577 533L199.577 533L199.577 530.368C199.577 529.544 200.049 529.168 200.713 529.168ZM203.833 529.688C203.833 530.328 204.201 530.8 204.985 530.968L205.825 531.152C206.401 531.28 206.561 531.448 206.561 531.72C206.561 532.104 206.185 532.32 205.633 532.32C204.985 532.32 204.561 532.016 204.497 531.448L203.609 531.608C203.761 532.68 204.761 533.12 205.657 533.12C206.545 533.12 207.489 532.624 207.489 531.624C207.489 530.984 207.113 530.552 206.297 530.376L205.385 530.176C204.921 530.072 204.761 529.848 204.761 529.608C204.761 529.272 205.081 529.064 205.537 529.064C206.089 529.064 206.497 529.264 206.529 529.864L207.417 529.704C207.153 528.672 206.457 528.264 205.529 528.264C204.777 528.264 203.833 528.68 203.833 529.688ZM208.732 533L209.732 533L209.732 529.2L210.876 529.2L210.876 528.392L209.732 528.392L209.732 528.208C209.732 527.736 209.956 527.488 210.364 527.488C210.58 527.488 210.764 527.52 210.956 527.576L211.092 526.8C210.868 526.72 210.596 526.648 210.26 526.648C209.34 526.648 208.732 527.24 208.732 528.216L208.732 528.392L208.1 528.392L208.1 529.2L208.732 529.2L208.732 533ZM213.609 529.128C214.257 529.128 214.769 529.432 214.849 530.2L212.345 530.2C212.481 529.488 212.945 529.128 213.609 529.128ZM215.793 530.912L215.793 530.584C215.793 529.224 214.897 528.264 213.649 528.264C212.313 528.264 211.297 529.2 211.297 530.68C211.297 532.2 212.353 533.12 213.713 533.12C214.561 533.12 215.585 532.632 215.761 531.568L214.833 531.408C214.729 531.936 214.425 532.256 213.673 532.256C212.841 532.256 212.385 531.72 212.313 530.912L215.793 530.912ZM218.989 529.344C219.237 529.344 219.413 529.376 219.589 529.448L219.685 528.328C219.589 528.28 219.453 528.264 219.333 528.264C218.877 528.264 218.157 528.528 217.781 529.496L217.781 528.392L216.781 528.392L216.781 533L217.781 533L217.781 530.984C217.781 529.704 218.341 529.344 218.989 529.344ZM222.645 529.344C222.893 529.344 223.069 529.376 223.245 529.448L223.341 528.328C223.245 528.28 223.109 528.264 222.989 528.264C222.533 528.264 221.813 528.528 221.437 529.496L221.437 528.392L220.437 528.392L220.437 533L221.437 533L221.437 530.984C221.437 529.704 221.997 529.344 222.645 529.344ZM226.117 529.128C226.765 529.128 227.277 529.432 227.357 530.2L224.853 530.2C224.989 529.488 225.453 529.128 226.117 529.128ZM228.301 530.912L228.301 530.584C228.301 529.224 227.405 528.264 226.157 528.264C224.821 528.264 223.805 529.2 223.805 530.68C223.805 532.2 224.861 533.12 226.221 533.12C227.069 533.12 228.093 532.632 228.269 531.568L227.341 531.408C227.237 531.936 226.933 532.256 226.181 532.256C225.349 532.256 224.893 531.72 224.821 530.912L228.301 530.912ZM233.616 526.8L232.616 526.8L232.616 529.296C232.288 528.568 231.792 528.264 231.168 528.264C230.096 528.264 229.032 529.04 229.032 530.648C229.032 532.336 230.104 533.12 231.04 533.12C231.88 533.12 232.384 532.68 232.616 532.128L232.616 533L233.616 533L233.616 526.8ZM231.336 529.128C232.008 529.128 232.616 529.664 232.616 530.704C232.616 531.776 232.008 532.248 231.328 532.248C230.696 532.248 230.04 531.752 230.04 530.704C230.04 529.64 230.704 529.128 231.336 529.128Z" fill="#FF5B24"/>
<path d="M192.704 370L192.704 376L193.752 376L193.752 370L192.704 370ZM194.997 371.608C194.997 373.92 198.317 373.16 198.317 374.432C198.317 374.888 197.965 375.192 197.285 375.192C196.637 375.192 195.893 374.976 195.789 373.952L194.757 374.192C194.917 375.48 196.053 376.12 197.253 376.12C198.317 376.12 199.365 375.512 199.365 374.368C199.365 372.128 196.061 372.944 196.061 371.568C196.061 371.096 196.421 370.808 197.037 370.808C197.573 370.808 198.173 371.048 198.221 371.88L199.277 371.64C199.101 370.4 198.029 369.88 197.085 369.88C196.037 369.88 194.997 370.456 194.997 371.608ZM201.463 370.936L202.535 370.936C203.215 370.936 203.599 371.336 203.599 372.08C203.599 372.784 203.215 373.184 202.519 373.184L201.463 373.184L201.463 370.936ZM200.415 370L200.415 376L201.463 376L201.463 374.12L202.623 374.12C203.903 374.12 204.719 373.224 204.719 372.064C204.719 370.72 203.951 370 202.615 370L200.415 370ZM210.106 372.344C210.354 372.344 210.53 372.376 210.706 372.448L210.802 371.328C210.706 371.28 210.57 371.264 210.45 371.264C209.994 371.264 209.274 371.528 208.898 372.496L208.898 371.392L207.898 371.392L207.898 376L208.898 376L208.898 373.984C208.898 372.704 209.458 372.344 210.106 372.344ZM213.578 372.128C214.226 372.128 214.738 372.432 214.818 373.2L212.314 373.2C212.45 372.488 212.914 372.128 213.578 372.128ZM215.762 373.912L215.762 373.584C215.762 372.224 214.866 371.264 213.618 371.264C212.282 371.264 211.266 372.2 211.266 373.68C211.266 375.2 212.322 376.12 213.682 376.12C214.53 376.12 215.554 375.632 215.73 374.568L214.802 374.408C214.698 374.936 214.394 375.256 213.642 375.256C212.81 375.256 212.354 374.72 212.282 373.912L215.762 373.912ZM220.829 371.392L219.717 371.392L218.533 374.872L217.341 371.392L216.229 371.392L218.069 376L218.989 376L220.829 371.392ZM223.585 371.264C222.337 371.264 221.305 372.176 221.305 373.688C221.305 375.2 222.337 376.12 223.585 376.12C224.833 376.12 225.865 375.2 225.865 373.688C225.865 372.176 224.833 371.264 223.585 371.264ZM223.585 372.128C224.273 372.128 224.857 372.632 224.857 373.688C224.857 374.744 224.273 375.256 223.585 375.256C222.897 375.256 222.313 374.744 222.313 373.688C222.313 372.632 222.897 372.128 223.585 372.128ZM226.859 376L227.859 376L227.859 374.896L228.707 373.944L230.083 376L231.123 376L229.275 373.296L230.971 371.392L229.883 371.392L227.859 373.776L227.859 369.8L226.859 369.8L226.859 376ZM233.789 372.128C234.437 372.128 234.949 372.432 235.029 373.2L232.525 373.2C232.661 372.488 233.125 372.128 233.789 372.128ZM235.973 373.912L235.973 373.584C235.973 372.224 235.077 371.264 233.829 371.264C232.493 371.264 231.477 372.2 231.477 373.68C231.477 375.2 232.533 376.12 233.893 376.12C234.741 376.12 235.765 375.632 235.941 374.568L235.013 374.408C234.909 374.936 234.605 375.256 233.853 375.256C233.021 375.256 232.565 374.72 232.493 373.912L235.973 373.912ZM236.864 372.688C236.864 373.328 237.232 373.8 238.016 373.968L238.856 374.152C239.432 374.28 239.592 374.448 239.592 374.72C239.592 375.104 239.216 375.32 238.664 375.32C238.016 375.32 237.592 375.016 237.528 374.448L236.64 374.608C236.792 375.68 237.792 376.12 238.688 376.12C239.576 376.12 240.52 375.624 240.52 374.624C240.52 373.984 240.144 373.552 239.328 373.376L238.416 373.176C237.952 373.072 237.792 372.848 237.792 372.608C237.792 372.272 238.112 372.064 238.568 372.064C239.12 372.064 239.528 372.264 239.56 372.864L240.448 372.704C240.184 371.672 239.488 371.264 238.56 371.264C237.808 371.264 236.864 371.68 236.864 372.688ZM192.64 384.392L192.64 389L193.64 389L193.64 384.392L192.64 384.392ZM193.136 382.4C192.8 382.4 192.536 382.672 192.536 383C192.536 383.328 192.8 383.6 193.136 383.6C193.472 383.6 193.736 383.328 193.736 383C193.736 382.672 193.472 382.4 193.136 382.4ZM197.057 385.168C197.601 385.168 198.033 385.488 198.033 386.344L198.033 389L199.033 389L199.033 385.912C199.033 384.672 198.249 384.264 197.425 384.264C196.881 384.264 196.249 384.488 195.921 385.072L195.921 384.392L194.921 384.392L194.921 389L195.921 389L195.921 386.368C195.921 385.544 196.393 385.168 197.057 385.168ZM204.353 384.392L203.241 384.392L202.057 387.872L200.865 384.392L199.753 384.392L201.593 389L202.513 389L204.353 384.392ZM207.109 384.264C205.861 384.264 204.829 385.176 204.829 386.688C204.829 388.2 205.861 389.12 207.109 389.12C208.357 389.12 209.389 388.2 209.389 386.688C209.389 385.176 208.357 384.264 207.109 384.264ZM207.109 385.128C207.797 385.128 208.381 385.632 208.381 386.688C208.381 387.744 207.797 388.256 207.109 388.256C206.421 388.256 205.837 387.744 205.837 386.688C205.837 385.632 206.421 385.128 207.109 385.128ZM210.382 384.392L210.382 389L211.382 389L211.382 384.392L210.382 384.392ZM210.878 382.4C210.542 382.4 210.278 382.672 210.278 383C210.278 383.328 210.542 383.6 210.878 383.6C211.214 383.6 211.478 383.328 211.478 383C211.478 382.672 211.214 382.4 210.878 382.4ZM216.919 386.184C216.751 384.944 215.767 384.264 214.695 384.264C213.375 384.264 212.375 385.2 212.375 386.688C212.375 388.112 213.359 389.12 214.767 389.12C215.655 389.12 216.695 388.632 216.911 387.224L215.999 387.064C215.895 387.848 215.463 388.248 214.759 388.248C213.823 388.248 213.383 387.536 213.383 386.688C213.383 385.664 213.943 385.128 214.647 385.128C215.287 385.128 215.823 385.472 215.935 386.344L216.919 386.184ZM219.883 385.128C220.531 385.128 221.043 385.432 221.123 386.2L218.619 386.2C218.755 385.488 219.219 385.128 219.883 385.128ZM222.067 386.912L222.067 386.584C222.067 385.224 221.171 384.264 219.923 384.264C218.587 384.264 217.571 385.2 217.571 386.68C217.571 388.2 218.627 389.12 219.987 389.12C220.835 389.12 221.859 388.632 222.035 387.568L221.107 387.408C221.003 387.936 220.699 388.256 219.947 388.256C219.115 388.256 218.659 387.72 218.587 386.912L222.067 386.912Z" fill="#49367E"/>
<path d="M136.704 299L136.704 305L137.752 305L137.752 299L136.704 299ZM138.997 300.608C138.997 302.92 142.317 302.16 142.317 303.432C142.317 303.888 141.965 304.192 141.285 304.192C140.637 304.192 139.893 303.976 139.789 302.952L138.757 303.192C138.917 304.48 140.053 305.12 141.253 305.12C142.317 305.12 143.365 304.512 143.365 303.368C143.365 301.128 140.061 301.944 140.061 300.568C140.061 300.096 140.421 299.808 141.037 299.808C141.573 299.808 142.173 300.048 142.221 300.88L143.277 300.64C143.101 299.4 142.029 298.88 141.085 298.88C140.037 298.88 138.997 299.456 138.997 300.608ZM145.463 299.936L146.535 299.936C147.215 299.936 147.599 300.336 147.599 301.08C147.599 301.784 147.215 302.184 146.519 302.184L145.463 302.184L145.463 299.936ZM144.415 299L144.415 305L145.463 305L145.463 303.12L146.623 303.12C147.903 303.12 148.719 302.224 148.719 301.064C148.719 299.72 147.951 299 146.615 299L144.415 299ZM156.154 302.184C155.986 300.944 155.002 300.264 153.93 300.264C152.61 300.264 151.61 301.2 151.61 302.688C151.61 304.112 152.594 305.12 154.002 305.12C154.89 305.12 155.93 304.632 156.146 303.224L155.234 303.064C155.13 303.848 154.698 304.248 153.994 304.248C153.058 304.248 152.618 303.536 152.618 302.688C152.618 301.664 153.178 301.128 153.882 301.128C154.522 301.128 155.058 301.472 155.17 302.344L156.154 302.184ZM157.093 298.8L157.093 305L158.093 305L158.093 302.368C158.093 301.544 158.565 301.168 159.237 301.168C159.773 301.168 160.205 301.488 160.205 302.344L160.205 305L161.205 305L161.205 301.912C161.205 300.672 160.445 300.264 159.565 300.264C159.077 300.264 158.421 300.48 158.093 301.072L158.093 298.8L157.093 298.8ZM164.469 301.128C165.117 301.128 165.629 301.432 165.709 302.2L163.205 302.2C163.341 301.488 163.805 301.128 164.469 301.128ZM166.653 302.912L166.653 302.584C166.653 301.224 165.757 300.264 164.509 300.264C163.173 300.264 162.157 301.2 162.157 302.68C162.157 304.2 163.213 305.12 164.573 305.12C165.421 305.12 166.445 304.632 166.621 303.568L165.693 303.408C165.589 303.936 165.285 304.256 164.533 304.256C163.701 304.256 163.245 303.72 163.173 302.912L166.653 302.912ZM171.896 302.184C171.728 300.944 170.744 300.264 169.672 300.264C168.352 300.264 167.352 301.2 167.352 302.688C167.352 304.112 168.336 305.12 169.744 305.12C170.632 305.12 171.672 304.632 171.888 303.224L170.976 303.064C170.872 303.848 170.44 304.248 169.736 304.248C168.8 304.248 168.36 303.536 168.36 302.688C168.36 301.664 168.92 301.128 169.624 301.128C170.264 301.128 170.8 301.472 170.912 302.344L171.896 302.184ZM172.835 305L173.835 305L173.835 303.896L174.683 302.944L176.059 305L177.099 305L175.251 302.296L176.947 300.392L175.859 300.392L173.835 302.776L173.835 298.8L172.835 298.8L172.835 305ZM177.646 301.688C177.646 302.328 178.014 302.8 178.798 302.968L179.638 303.152C180.214 303.28 180.374 303.448 180.374 303.72C180.374 304.104 179.998 304.32 179.446 304.32C178.798 304.32 178.374 304.016 178.31 303.448L177.422 303.608C177.574 304.68 178.574 305.12 179.47 305.12C180.358 305.12 181.302 304.624 181.302 303.624C181.302 302.984 180.926 302.552 180.11 302.376L179.198 302.176C178.734 302.072 178.574 301.848 178.574 301.608C178.574 301.272 178.894 301.064 179.35 301.064C179.902 301.064 180.31 301.264 180.342 301.864L181.23 301.704C180.966 300.672 180.27 300.264 179.342 300.264C178.59 300.264 177.646 300.68 177.646 301.688ZM184.341 301.688C184.341 302.328 184.709 302.8 185.493 302.968L186.333 303.152C186.909 303.28 187.069 303.448 187.069 303.72C187.069 304.104 186.693 304.32 186.141 304.32C185.493 304.32 185.069 304.016 185.005 303.448L184.117 303.608C184.269 304.68 185.269 305.12 186.165 305.12C187.053 305.12 187.997 304.624 187.997 303.624C187.997 302.984 187.621 302.552 186.805 302.376L185.893 302.176C185.429 302.072 185.269 301.848 185.269 301.608C185.269 301.272 185.589 301.064 186.045 301.064C186.597 301.064 187.005 301.264 187.037 301.864L187.925 301.704C187.661 300.672 186.965 300.264 186.037 300.264C185.285 300.264 184.341 300.68 184.341 301.688ZM189.328 299.28L189.328 300.392L188.472 300.392L188.472 301.2L189.328 301.2L189.328 303.704C189.328 304.552 189.752 305.08 190.672 305.08C190.952 305.08 191.28 305.008 191.52 304.936L191.36 304.128C191.176 304.176 191.064 304.2 190.88 304.2C190.472 304.2 190.328 304.016 190.328 303.656L190.328 301.2L191.48 301.2L191.48 300.392L190.328 300.392L190.328 299.12L189.328 299.28ZM194.228 305.12C195.052 305.12 195.556 304.616 195.788 304.048L195.788 305L196.788 305L196.788 300.392L195.788 300.392L195.788 301.296C195.46 300.568 194.956 300.264 194.236 300.264C193.268 300.264 192.204 301.04 192.204 302.648C192.204 304.336 193.276 305.12 194.228 305.12ZM194.508 301.128C195.18 301.128 195.788 301.64 195.788 302.704C195.788 303.8 195.18 304.248 194.5 304.248C193.868 304.248 193.212 303.776 193.212 302.704C193.212 301.616 193.876 301.128 194.508 301.128ZM198.422 299.28L198.422 300.392L197.566 300.392L197.566 301.2L198.422 301.2L198.422 303.704C198.422 304.552 198.846 305.08 199.766 305.08C200.046 305.08 200.374 305.008 200.614 304.936L200.454 304.128C200.27 304.176 200.158 304.2 199.974 304.2C199.566 304.2 199.422 304.016 199.422 303.656L199.422 301.2L200.574 301.2L200.574 300.392L199.422 300.392L199.422 299.12L198.422 299.28ZM203.578 301.128C204.226 301.128 204.738 301.432 204.818 302.2L202.314 302.2C202.45 301.488 202.914 301.128 203.578 301.128ZM205.762 302.912L205.762 302.584C205.762 301.224 204.866 300.264 203.618 300.264C202.282 300.264 201.266 301.2 201.266 302.68C201.266 304.2 202.322 305.12 203.682 305.12C204.53 305.12 205.554 304.632 205.73 303.568L204.802 303.408C204.698 303.936 204.394 304.256 203.642 304.256C202.81 304.256 202.354 303.72 202.282 302.912L205.762 302.912ZM210.898 300.264C209.65 300.264 208.618 301.176 208.618 302.688C208.618 304.2 209.65 305.12 210.898 305.12C212.146 305.12 213.178 304.2 213.178 302.688C213.178 301.176 212.146 300.264 210.898 300.264ZM210.898 301.128C211.586 301.128 212.17 301.632 212.17 302.688C212.17 303.744 211.586 304.256 210.898 304.256C210.21 304.256 209.626 303.744 209.626 302.688C209.626 301.632 210.21 301.128 210.898 301.128ZM214.435 305L215.435 305L215.435 301.2L216.579 301.2L216.579 300.392L215.435 300.392L215.435 300.208C215.435 299.736 215.659 299.488 216.067 299.488C216.283 299.488 216.467 299.52 216.659 299.576L216.795 298.8C216.571 298.72 216.299 298.648 215.963 298.648C215.043 298.648 214.435 299.24 214.435 300.216L214.435 300.392L213.803 300.392L213.803 301.2L214.435 301.2L214.435 305ZM219.445 300.392L219.445 305L220.445 305L220.445 300.392L219.445 300.392ZM219.941 298.4C219.605 298.4 219.341 298.672 219.341 299C219.341 299.328 219.605 299.6 219.941 299.6C220.277 299.6 220.541 299.328 220.541 299C220.541 298.672 220.277 298.4 219.941 298.4ZM223.862 301.168C224.406 301.168 224.838 301.488 224.838 302.344L224.838 305L225.838 305L225.838 301.912C225.838 300.672 225.054 300.264 224.23 300.264C223.686 300.264 223.054 300.488 222.726 301.072L222.726 300.392L221.726 300.392L221.726 305L222.726 305L222.726 302.368C222.726 301.544 223.198 301.168 223.862 301.168ZM231.157 300.392L230.045 300.392L228.861 303.872L227.669 300.392L226.557 300.392L228.397 305L229.317 305L231.157 300.392ZM233.913 300.264C232.665 300.264 231.633 301.176 231.633 302.688C231.633 304.2 232.665 305.12 233.913 305.12C235.161 305.12 236.193 304.2 236.193 302.688C236.193 301.176 235.161 300.264 233.913 300.264ZM233.913 301.128C234.601 301.128 235.185 301.632 235.185 302.688C235.185 303.744 234.601 304.256 233.913 304.256C233.225 304.256 232.641 303.744 232.641 302.688C232.641 301.632 233.225 301.128 233.913 301.128ZM237.187 300.392L237.187 305L238.187 305L238.187 300.392L237.187 300.392ZM237.683 298.4C237.347 298.4 237.083 298.672 237.083 299C237.083 299.328 237.347 299.6 237.683 299.6C238.019 299.6 238.283 299.328 238.283 299C238.283 298.672 238.019 298.4 237.683 298.4ZM243.724 302.184C243.556 300.944 242.572 300.264 241.5 300.264C240.18 300.264 239.18 301.2 239.18 302.688C239.18 304.112 240.164 305.12 241.572 305.12C242.46 305.12 243.5 304.632 243.716 303.224L242.804 303.064C242.7 303.848 242.268 304.248 241.564 304.248C240.628 304.248 240.188 303.536 240.188 302.688C240.188 301.664 240.748 301.128 241.452 301.128C242.092 301.128 242.628 301.472 242.74 302.344L243.724 302.184ZM246.687 301.128C247.335 301.128 247.847 301.432 247.927 302.2L245.423 302.2C245.559 301.488 246.023 301.128 246.687 301.128ZM248.871 302.912L248.871 302.584C248.871 301.224 247.975 300.264 246.727 300.264C245.391 300.264 244.375 301.2 244.375 302.68C244.375 304.2 245.431 305.12 246.791 305.12C247.639 305.12 248.663 304.632 248.839 303.568L247.911 303.408C247.807 303.936 247.503 304.256 246.751 304.256C245.919 304.256 245.463 303.72 245.391 302.912L248.871 302.912Z" fill="#FF5B24"/>
<path d="M104.267 530.242C104.267 544.465 92.5068 555.994 78.0001 555.994C63.4934 555.994 51.7332 544.465 51.7332 530.242C51.7332 516.02 63.4934 504.49 78.0001 504.49C92.5068 504.49 104.267 516.02 104.267 530.242Z" fill="#EEEDF3"/>
<path d="M66.431 521.046C66.9826 521.516 67.5356 521.985 68.0872 522.454C69.5233 523.676 71.0066 524.847 72.3999 526.117C74.6233 528.142 76.008 530.64 76.5567 533.57C77.1112 536.537 76.7211 539.391 75.3621 542.097C74.0589 544.692 72.0669 546.641 69.4547 547.978C67.5956 548.931 65.6122 549.444 63.5159 549.524C59.5834 549.674 56.1224 548.508 53.2102 545.897C51.141 544.04 49.8392 541.733 49.2219 539.054C48.8904 537.617 48.7975 536.163 48.9547 534.699C49.2733 531.723 50.4465 529.116 52.4914 526.888C53.2173 526.098 54.0604 525.436 54.8763 524.744C56.2996 523.54 57.7257 522.341 59.1504 521.14C59.1847 521.111 59.2133 521.077 59.2447 521.045C59.4391 521.044 59.6334 521.048 59.8277 521.038C59.9463 521.032 59.9721 521.083 59.9692 521.187C59.9635 521.383 59.9678 521.579 59.9678 521.775C59.9678 523.725 59.9678 525.675 59.9678 527.625C59.9678 527.98 60.1007 528.261 60.4236 528.432C61.0124 528.745 61.6897 528.329 61.6911 527.653C61.694 526.118 61.6926 524.582 61.6926 523.047C61.6926 522.431 61.6954 521.814 61.6897 521.198C61.6883 521.072 61.724 521.032 61.8526 521.037C62.1327 521.046 62.4128 521.039 62.6928 521.039C63.9389 521.044 65.185 521.045 66.431 521.046ZM63.1272 541.384C63.3845 541.384 63.6417 541.379 63.8989 541.387C64.0146 541.391 64.0404 541.352 64.0389 541.245C64.0332 540.881 64.0475 540.517 64.0318 540.153C64.0246 539.982 64.0732 539.915 64.2447 539.871C64.8577 539.72 65.4079 539.442 65.868 539.011C66.5854 538.336 66.8454 537.499 66.7868 536.544C66.7225 535.499 66.2424 534.717 65.2993 534.211C64.652 533.864 63.9432 533.69 63.2458 533.483C62.8357 533.361 62.4242 533.243 62.0627 533.008C61.7083 532.778 61.5311 532.459 61.5711 532.04C61.6111 531.624 61.8383 531.335 62.2256 531.166C62.5356 531.031 62.8643 530.997 63.1973 531.02C63.9518 531.07 64.3647 531.387 64.5991 532.092C64.6434 532.223 64.6748 532.361 64.7005 532.498C64.7177 532.595 64.7391 532.635 64.8592 532.617C65.4122 532.533 65.9666 532.464 66.5211 532.386C66.914 532.33 66.914 532.326 66.8226 531.939C66.481 530.492 65.6822 529.468 64.1304 529.14C64.0375 529.12 64.0346 529.068 64.0361 528.996C64.0389 528.626 64.0289 528.256 64.0404 527.886C64.0446 527.74 63.9961 527.711 63.8574 527.714C63.3659 527.722 62.8743 527.721 62.3827 527.714C62.2541 527.712 62.2041 527.739 62.2084 527.878C62.2184 528.247 62.2084 528.617 62.2141 528.987C62.2156 529.085 62.1841 529.126 62.0869 529.145C61.9469 529.173 61.8083 529.207 61.674 529.25C60.8009 529.532 60.0978 530.015 59.7406 530.878C59.4462 531.587 59.4376 532.319 59.6377 533.053C59.8849 533.956 60.5322 534.508 61.3582 534.898C61.9883 535.195 62.6628 535.371 63.3173 535.6C63.6774 535.726 64.0361 535.857 64.3362 536.101C64.5219 536.252 64.6548 536.436 64.692 536.676C64.7706 537.173 64.5405 537.613 64.0646 537.852C63.4845 538.144 62.8743 538.124 62.2613 537.99C61.6154 537.848 61.2153 537.452 61.0481 536.824C60.9924 536.617 60.9695 536.405 60.9623 536.194C60.9581 536.072 60.9095 536.059 60.8066 536.075C60.2036 536.164 59.5991 536.254 58.9946 536.335C58.8932 536.349 58.876 536.387 58.8846 536.475C58.9175 536.817 58.9918 537.15 59.1233 537.467C59.6663 538.778 60.678 539.562 62.0455 539.933C62.1713 539.968 62.2198 540.007 62.217 540.14C62.207 540.504 62.2198 540.869 62.2098 541.233C62.2056 541.363 62.2499 541.391 62.3742 541.387C62.6242 541.377 62.8757 541.384 63.1272 541.384Z" fill="#FF985F"/>
<path d="M59.5005 519.355C58.7117 518.013 57.9186 516.672 57.1341 515.328C56.1153 513.578 57.1199 511.447 59.1376 511.071C59.3119 511.039 59.4891 511.027 59.6663 511.027C61.7812 511.028 63.8946 511.027 66.0095 511.027C68.2658 511.027 69.6705 513.369 68.5588 515.295C67.7986 516.615 67.0155 517.922 66.2424 519.235C66.2196 519.273 66.201 519.315 66.181 519.354C64.3648 519.355 62.5485 519.357 60.7337 519.358C60.3222 519.359 59.9121 519.357 59.5005 519.355Z" fill="#FF985F"/>
<path d="M59.5004 519.355C59.9119 519.357 60.3221 519.361 60.7336 519.361C62.5498 519.36 64.3661 519.358 66.1809 519.357C66.2895 519.358 66.3981 519.361 66.5067 519.361C67.0068 519.364 67.3869 519.721 67.3912 520.196C67.3969 520.658 67.0211 521.028 66.5324 521.042C66.4981 521.044 66.4638 521.045 66.4295 521.048C65.1834 521.046 63.9374 521.044 62.6913 521.042C62.4112 521.042 62.1311 521.049 61.8511 521.039C61.721 521.035 61.6867 521.074 61.6882 521.201C61.6939 521.817 61.691 522.433 61.691 523.05C61.691 524.585 61.6924 526.121 61.6896 527.656C61.6882 528.331 61.0108 528.747 60.4221 528.435C60.0991 528.264 59.9662 527.981 59.9662 527.628C59.9677 525.678 59.9662 523.728 59.9662 521.778C59.9662 521.582 59.962 521.385 59.9677 521.189C59.9705 521.086 59.9448 521.035 59.8262 521.041C59.6319 521.051 59.4375 521.046 59.2432 521.048C58.6973 521.027 58.3558 520.761 58.2943 520.311C58.2272 519.815 58.6116 519.374 59.1217 519.362C59.2489 519.358 59.3746 519.357 59.5004 519.355Z" fill="#FD5B24"/>
<path d="M63.127 541.384C62.8755 541.384 62.624 541.377 62.3725 541.387C62.2481 541.391 62.2053 541.363 62.2081 541.233C62.2181 540.869 62.2053 540.505 62.2153 540.14C62.2196 540.007 62.171 539.967 62.0438 539.933C60.6763 539.562 59.6646 538.779 59.1215 537.467C58.9901 537.149 58.9158 536.817 58.8829 536.475C58.8743 536.387 58.8915 536.349 58.9929 536.335C59.5974 536.253 60.2019 536.164 60.8049 536.075C60.9078 536.059 60.9564 536.072 60.9606 536.194C60.9678 536.405 60.9906 536.617 61.0464 536.824C61.2136 537.452 61.6137 537.848 62.2596 537.99C62.8726 538.124 63.4828 538.144 64.0629 537.853C64.5388 537.613 64.7689 537.172 64.6903 536.676C64.6517 536.436 64.5202 536.253 64.3344 536.101C64.0344 535.858 63.6757 535.726 63.3156 535.6C62.6611 535.371 61.9852 535.195 61.3565 534.898C60.5319 534.508 59.8832 533.956 59.636 533.053C59.4359 532.32 59.4445 531.587 59.7389 530.879C60.0975 530.016 60.8006 529.532 61.6723 529.251C61.808 529.207 61.9466 529.172 62.0852 529.146C62.181 529.127 62.2138 529.087 62.2124 528.987C62.2067 528.617 62.2167 528.248 62.2067 527.878C62.2024 527.739 62.251 527.711 62.381 527.714C62.8726 527.721 63.3642 527.721 63.8557 527.714C63.9943 527.711 64.0429 527.74 64.0386 527.886C64.0272 528.256 64.0358 528.626 64.0344 528.996C64.0344 529.069 64.0372 529.122 64.1287 529.14C65.6791 529.468 66.4793 530.492 66.8209 531.939C66.9123 532.327 66.9123 532.33 66.5193 532.386C65.9663 532.464 65.4105 532.533 64.8574 532.617C64.7374 532.635 64.716 532.595 64.6988 532.498C64.6731 532.361 64.6417 532.223 64.5974 532.092C64.3616 531.387 63.9501 531.07 63.1956 531.02C62.8612 530.998 62.5339 531.031 62.2239 531.166C61.8366 531.334 61.6094 531.624 61.5694 532.04C61.5294 532.459 61.7066 532.778 62.0609 533.008C62.4239 533.243 62.8355 533.361 63.2441 533.483C63.9415 533.69 64.6502 533.865 65.2976 534.211C66.2407 534.717 66.7208 535.499 66.7851 536.544C66.8437 537.499 66.5836 538.337 65.8663 539.011C65.4062 539.444 64.856 539.72 64.243 539.871C64.0701 539.913 64.0215 539.982 64.0301 540.153C64.0458 540.517 64.0315 540.881 64.0372 541.246C64.0386 541.352 64.0129 541.391 63.8972 541.387C63.6414 541.377 63.3842 541.384 63.127 541.384Z" fill="#FF985F"/>
<path d="M59.761 537.973L60.7612 537.973L60.7612 536.978L61.3256 536.313L62.4544 537.973L63.5689 537.973L61.9257 535.612L63.3474 533.938L62.2187 533.938L60.7612 535.801L60.7612 532.544L59.761 532.544L59.761 537.973Z" fill="#FFF4EC"/>
<path d="M65.8983 534.926C66.0412 534.926 66.2126 534.961 66.3698 535.017L66.4341 533.882C66.3412 533.847 66.2269 533.826 66.1198 533.826C65.7268 533.826 65.241 534.022 64.9195 534.793L64.9195 533.938L63.9122 533.938L63.9122 537.973L64.9195 537.973L64.9195 535.997C64.9195 535.136 65.4196 534.926 65.8983 534.926Z" fill="#FFF4EC"/>
<path fill-rule="evenodd" clip-rule="evenodd" d="M78 555.995C92.5068 555.995 104.267 544.465 104.267 530.243C104.267 529.583 104.242 528.929 104.192 528.282L69.4836 528.282C68.2665 528.282 67.2801 529.249 67.2801 530.442L67.2801 553.76C70.5535 555.196 74.1816 555.995 78 555.995Z" fill="#C8C5D6"/>
<path fill-rule="evenodd" clip-rule="evenodd" d="M104.036 533.669C104.188 532.549 104.267 531.405 104.267 530.243C104.267 529.583 104.242 528.929 104.192 528.282L69.5625 528.282C68.3018 528.282 67.2801 529.283 67.2801 530.519L67.2801 533.669L104.036 533.669Z" fill="#48367D"/>
<path d="M72.9901 530.997C72.9901 531.615 72.4796 532.116 71.8494 532.116C71.2192 532.116 70.708 531.615 70.708 530.997C70.708 530.379 71.2192 529.879 71.8494 529.879C72.4796 529.879 72.9901 530.379 72.9901 530.997Z" fill="white"/>
<path d="M76.7349 530.976C76.7349 531.594 76.224 532.095 75.5942 532.095C74.9637 532.095 74.4528 531.594 74.4528 530.976C74.4528 530.358 74.9637 529.857 75.5942 529.857C76.224 529.857 76.7349 530.358 76.7349 530.976Z" fill="white"/>
<path d="M80.5395 530.976C80.5395 531.594 80.0287 532.095 79.3988 532.095C78.7687 532.095 78.2574 531.594 78.2574 530.976C78.2574 530.358 78.7687 529.857 79.3988 529.857C80.0287 529.857 80.5395 530.358 80.5395 530.976Z" fill="white"/>
<path d="M104.267 226.027C104.267 240.534 92.507 252.293 78 252.293C63.4932 252.293 51.7331 240.534 51.7331 226.027C51.7331 211.52 63.4932 199.76 78 199.76C92.507 199.76 104.267 211.52 104.267 226.027Z" fill="#EEEDF3"/>
<path d="M90.5802 239.765L78.2498 239.765C76.6813 239.765 75.4098 238.493 75.4098 236.925L75.4098 211.027C75.4098 209.458 76.6813 208.187 78.2498 208.187L90.5802 208.187C92.1485 208.187 93.4202 209.458 93.4202 211.027L93.4202 236.925C93.4202 238.493 92.1485 239.765 90.5802 239.765Z" fill="#FF5B23"/>
<path d="M93.4202 235.612L75.4098 235.612L75.4098 212.368L93.4202 212.368L93.4202 235.612Z" fill="#FF975E"/>
<path d="M83.662 227.61L54.9853 240.52L60.61 252.279L73.5797 240.813C73.6483 240.749 83.7471 227.571 83.662 227.61Z" fill="#48367D"/>
<path d="M84.1255 227.251L62.4757 243.455L74.7525 247.681C75.3389 247.883 75.9886 247.684 76.3609 247.188L84.3581 227.575C84.5682 227.313 84.258 227.164 84.1255 227.251Z" fill="#C8C5D6"/>
<path d="M62.4753 243.456L60.6095 252.28L69.698 245.942L62.4753 243.456Z" fill="white"/>
<path d="M84.1605 227.238L46.6733 236.46C45.999 236.658 45.9857 237.609 46.6547 237.826L54.9856 240.521L84.2752 227.413C84.3463 227.381 84.3685 227.2 84.1605 227.238Z" fill="#C8C5D6"/>
<path d="M162.214 377.947C162.214 392.454 150.454 404.214 135.947 404.214C121.44 404.214 109.68 392.454 109.68 377.947C109.68 363.44 121.44 351.68 135.947 351.68C150.454 351.68 162.214 363.44 162.214 377.947Z" fill="#EEEDF3"/>
<path fill-rule="evenodd" clip-rule="evenodd" d="M137.759 404.182C137.759 397.111 137.767 390.439 137.797 388.677C137.944 380.082 146.418 381.913 146.418 381.913L156.696 388.677L156.693 394.122C152.229 399.842 145.447 403.666 137.759 404.182Z" fill="#FFD3BB"/>
<path d="M154.532 394.191L139.341 394.124C137.879 394.118 136.698 392.927 136.704 391.465L136.838 360.84C136.844 359.378 138.035 358.197 139.497 358.204L154.689 358.27C156.151 358.276 157.332 359.467 157.325 360.93L157.192 391.554C157.185 393.016 155.995 394.197 154.532 394.191Z" fill="#FF5A23"/>
<path d="M157.237 389.548L136.749 389.458L136.865 363.018L157.352 363.107L157.237 389.548Z" fill="#FF985F"/>
<line x1="148.237" y1="371.919" x2="148.864" y2="369.988" stroke="#FFF4EC" stroke-width="1.44" stroke-linecap="round" stroke-linejoin="round"/>
<line x1="145.215" y1="373.692" x2="143.573" y2="372.498" stroke="#FFF4EC" stroke-width="1.44" stroke-linecap="round" stroke-linejoin="round"/>
<line x1="0.72" y1="-0.72" x2="2.74984" y2="-0.72" transform="matrix(0.707107 0.707107 0.707107 -0.707107 149.559 375.917)" stroke="#FFF4EC" stroke-width="1.44" stroke-linecap="round" stroke-linejoin="round"/>
<line x1="0.72" y1="-0.72" x2="2.74984" y2="-0.72" transform="matrix(-0.809017 0.587785 0.587785 0.809017 147.081 376.656)" stroke="#FFF4EC" stroke-width="1.44" stroke-linecap="round" stroke-linejoin="round"/>
<line x1="0.72" y1="-0.72" x2="2.74984" y2="-0.72" transform="matrix(1 0 0 -1 149.928 374.074)" stroke="#FFF4EC" stroke-width="1.44" stroke-linecap="round" stroke-linejoin="round"/>
<path d="M139.782 379.838L134.486 379.08C133.064 378.876 132.076 377.558 132.28 376.136C132.483 374.714 133.802 373.726 135.224 373.93L140.52 374.687C141.942 374.891 142.93 376.209 142.726 377.631C142.523 379.054 141.205 380.042 139.782 379.838Z" fill="#FFD3BB"/>
<path d="M139.153 384.692L133.857 383.934C132.435 383.73 131.447 382.412 131.651 380.99C131.854 379.567 133.172 378.58 134.595 378.783L139.89 379.541C141.313 379.745 142.3 381.063 142.097 382.485C141.893 383.908 140.575 384.896 139.153 384.692Z" fill="#FFD3BB"/>
<path d="M138.986 389.549L133.69 388.792C132.268 388.588 131.28 387.27 131.484 385.848C131.687 384.425 133.005 383.437 134.427 383.641L139.723 384.399C141.145 384.602 142.134 385.921 141.93 387.343C141.727 388.765 140.408 389.753 138.986 389.549Z" fill="#FFD3BB"/>
<path fill-rule="evenodd" clip-rule="evenodd" d="M160.37 387.632C159.41 390.052 158.1 392.296 156.502 394.301L152.651 396.465L150.896 398.044C150.713 397.761 150.554 397.533 150.416 397.336C149.84 396.513 149.642 396.229 149.648 394.715C149.671 389.579 153.852 385.434 158.988 385.456L160.37 387.632Z" fill="#FFD3BB"/>
<path fill-rule="evenodd" clip-rule="evenodd" d="M152.744 398.112C151.973 397.547 151.666 396.524 152.107 394.947C153.147 391.227 154.427 389.827 155.947 388.907C157.467 387.987 157.227 385.547 157.227 385.547C157.227 385.547 155.427 383.147 155.467 380.667C155.473 380.306 155.475 379.941 155.477 379.577C155.488 377.443 155.498 375.357 156.307 374.427C157.107 373.507 158.347 372.867 159.667 373.227C160.987 373.587 161.68 374.864 161.587 375.947C161.549 376.389 161.476 376.807 161.401 377.228C161.24 378.143 161.075 379.075 161.267 380.307C161.402 381.172 161.622 381.706 161.888 382.21C160.836 388.574 157.497 394.165 152.744 398.112Z" fill="#FFD3BB"/>
<path d="M104.214 453.948C104.214 468.454 92.4537 480.214 77.947 480.214C63.4403 480.214 51.6801 468.454 51.6801 453.948C51.6801 439.441 63.4403 427.681 77.947 427.681C92.4537 427.681 104.214 439.441 104.214 453.948Z" fill="#EEEDF3"/>
<path fill-rule="evenodd" clip-rule="evenodd" d="M80.9644 480.042C80.9594 470.477 80.964 459.93 81.0051 457.533C81.169 447.946 90.6215 449.989 90.6215 449.989L102.086 457.533L102.082 464.329C98.4374 472.791 90.4721 478.955 80.9644 480.042Z" fill="#FFD3BB"/>
<path d="M98.6756 460.296L82.0461 463.554C80.4455 463.867 78.8933 462.823 78.5798 461.223L72.0135 427.699C71.7 426.098 72.7438 424.546 74.3444 424.233L90.9738 420.976C92.5748 420.662 94.1267 421.706 94.4402 423.306L101.006 456.83C101.32 458.431 100.276 459.983 98.6756 460.296Z" fill="#FF5A23"/>
<path d="M100.616 454.623L78.189 459.016L72.5199 430.073L94.9466 425.68L100.616 454.623Z" fill="#FF985F"/>
<path d="M81.2562 447.883L78.9977 436.338C78.9815 436.255 78.9933 436.17 79.0311 436.102L80.9498 432.613C80.9871 432.545 81.047 432.499 81.1165 432.486L89.3846 430.866C89.7975 430.786 90.21 431.12 90.3066 431.614L93.0408 445.576C93.1374 446.069 92.8817 446.535 92.4688 446.616L82.1783 448.631C81.7657 448.712 81.3526 448.377 81.2562 447.883Z" fill="#EEEDF3"/>
<path d="M79.0834 435.519L80.527 432.894C80.637 432.694 80.8101 432.559 81.0096 432.507L81.5159 435.092C81.5803 435.421 81.4096 435.732 81.1346 435.785L78.9736 436.209C78.9366 435.965 78.9733 435.719 79.0834 435.519Z" fill="#C8C5D6"/>
<path fill-rule="evenodd" clip-rule="evenodd" d="M89.1719 436.325C89.3903 436.426 89.4855 436.685 89.3847 436.903L86.4626 443.229C86.414 443.335 86.3255 443.416 86.2166 443.456C86.1077 443.496 85.9875 443.49 85.8825 443.441L83.2362 442.203C83.0183 442.101 82.9244 441.841 83.0263 441.623C83.1283 441.406 83.3876 441.312 83.6055 441.414L85.8553 442.467L88.5938 436.538C88.6946 436.32 88.9535 436.224 89.1719 436.325Z" fill="#48367D"/>
<path d="M78.2137 449.166L72.2644 449.629C70.6664 449.753 69.2705 448.559 69.1461 446.961C69.0217 445.363 70.2168 443.967 71.8142 443.843L77.7638 443.38C79.3614 443.255 80.7573 444.45 80.8817 446.048C81.0062 447.646 79.8116 449.042 78.2137 449.166Z" fill="#FFD3BB"/>
<path d="M78.7094 454.604L72.7601 455.066C71.1621 455.191 69.7662 453.996 69.6418 452.398C69.5173 450.8 70.7119 449.404 72.3098 449.28L78.2591 448.817C79.857 448.692 81.253 449.887 81.3774 451.485C81.5018 453.083 80.3073 454.479 78.7094 454.604Z" fill="#FFD3BB"/>
<path d="M79.7091 459.932L73.7595 460.395C72.1621 460.519 70.7653 459.325 70.6413 457.727C70.5171 456.129 71.7116 454.733 73.3093 454.609L79.2589 454.146C80.8565 454.021 82.2527 455.216 82.3771 456.814C82.5016 458.412 81.3068 459.808 79.7091 459.932Z" fill="#FFD3BB"/>
<path fill-rule="evenodd" clip-rule="evenodd" d="M100.742 467.006C100.364 467.154 99.9532 467.297 99.5105 467.428C96.3426 468.365 91.6131 464.26 91.6131 464.26C91.6131 464.26 91.747 462.564 91.9701 460.735C92.1932 458.906 93.3532 457.255 93.9333 456.719C91.6131 456.228 89.9623 455.425 88.7576 453.819C87.5076 452.152 86.6159 450.696 86.3928 448.108C86.1697 445.52 87.1067 444.583 88.2222 444.048C89.3376 443.512 90.3192 443.78 91.39 444.315C92.2233 444.732 92.7158 446.327 92.8178 447.483C92.9517 449 93.294 449.371 93.9779 450.027C94.5044 450.531 95.6287 450.517 96.3873 450.428C97.1458 450.339 97.834 450.379 99.1536 450.696C100.269 450.964 101.384 451.722 102.321 452.971C103.342 454.332 103.682 455.982 103.905 457.986C103.405 461.226 102.313 464.271 100.742 467.006Z" fill="#FFD3BB"/>
<circle cx="78.5" cy="100.5" r="4.5" fill="white" stroke="#FF5B24" stroke-width="2"/>
<circle cx="78.5" cy="49.5" r="4.5" fill="white" stroke="#FF5B24" stroke-width="2"/>
<circle cx="78.5" cy="149.5" r="4.5" fill="white" stroke="#FF5B24" stroke-width="2"/>
<circle cx="78.5" cy="301.5" r="4.5" fill="white" stroke="#FF5B24" stroke-width="2"/>
</svg>
