<svg width="1381" height="320" viewBox="0 0 1381 320" fill="none" xmlns="http://www.w3.org/2000/svg">
<g clip-path="url(#clip0)">
<path fill-rule="evenodd" clip-rule="evenodd" d="M969 208.083V212H967V208.083H969ZM969 192.417V200.25H967V192.417H969ZM969 176.75V184.583H967V176.75H969ZM969 161.083V168.917H967V161.083H969ZM969 145.417V153.25H967V145.417H969ZM969 129.75V137.583H967V129.75H969ZM969 114.083V121.917H967V114.083H969ZM969 98.4167V106.25H967V98.4167H969ZM969 82.75V90.5833H967V82.75H969ZM969 71V74.9167H967V71H969Z" fill="#49367E"/>
<path fill-rule="evenodd" clip-rule="evenodd" d="M1324 73.0001L78 73L78 71L1324 71.0001L1324 73.0001Z" fill="#FF5B24"/>
<path d="M1276.32 166.872L1278.46 166.872C1279.82 166.872 1280.59 167.672 1280.59 169.16C1280.59 170.568 1279.82 171.368 1278.43 171.368L1276.32 171.368L1276.32 166.872ZM1274.22 165L1274.22 177L1276.32 177L1276.32 173.24L1278.64 173.24C1281.2 173.24 1282.83 171.448 1282.83 169.128C1282.83 166.44 1281.29 165 1278.62 165L1274.22 165Z" fill="#FF5B24"/>
<path d="M1288.1 177.24C1289.75 177.24 1290.75 176.232 1291.22 175.096L1291.22 177L1293.22 177L1293.22 167.784L1291.22 167.784L1291.22 169.592C1290.56 168.136 1289.55 167.528 1288.11 167.528C1286.18 167.528 1284.05 169.08 1284.05 172.296C1284.05 175.672 1286.19 177.24 1288.1 177.24ZM1288.66 169.256C1290 169.256 1291.22 170.28 1291.22 172.408C1291.22 174.6 1290 175.496 1288.64 175.496C1287.38 175.496 1286.07 174.552 1286.07 172.408C1286.07 170.232 1287.39 169.256 1288.66 169.256Z" fill="#FF5B24"/>
<path d="M1296.6 180.2C1298.39 180.2 1299.54 179.256 1300.26 177.384L1303.94 167.784L1301.72 167.784L1299.4 174.984L1296.96 167.784L1294.74 167.784L1298.13 176.296C1298.6 177.464 1298.16 178.536 1296.79 178.536C1296.07 178.536 1295.62 178.312 1295.33 178.136L1295.01 179.864C1295.44 180.072 1295.99 180.2 1296.6 180.2Z" fill="#FF5B24"/>
<path d="M1315.66 169.336C1316.8 169.336 1317.66 169.976 1317.66 171.688L1317.66 177L1319.66 177L1319.66 170.824C1319.66 168.344 1318.14 167.528 1316.46 167.528C1315.44 167.528 1314.14 167.944 1313.45 169.32C1312.96 168.008 1311.79 167.528 1310.56 167.528C1309.45 167.528 1308.12 167.96 1307.47 169.144L1307.47 167.784L1305.47 167.784L1305.47 177L1307.47 177L1307.47 171.736C1307.47 170.088 1308.41 169.336 1309.69 169.336C1310.83 169.336 1311.69 169.976 1311.69 171.688L1311.69 177L1313.69 177L1313.69 171.736C1313.69 170.088 1314.52 169.336 1315.66 169.336Z" fill="#FF5B24"/>
<path d="M1326.19 169.256C1327.48 169.256 1328.51 169.864 1328.67 171.4L1323.66 171.4C1323.93 169.976 1324.86 169.256 1326.19 169.256ZM1330.56 172.824L1330.56 172.168C1330.56 169.448 1328.76 167.528 1326.27 167.528C1323.6 167.528 1321.56 169.4 1321.56 172.36C1321.56 175.4 1323.68 177.24 1326.4 177.24C1328.09 177.24 1330.14 176.264 1330.49 174.136L1328.64 173.816C1328.43 174.872 1327.82 175.512 1326.32 175.512C1324.65 175.512 1323.74 174.44 1323.6 172.824L1330.56 172.824Z" fill="#FF5B24"/>
<path d="M1336.8 169.336C1337.89 169.336 1338.75 169.976 1338.75 171.688L1338.75 177L1340.75 177L1340.75 170.824C1340.75 168.344 1339.19 167.528 1337.54 167.528C1336.45 167.528 1335.19 167.976 1334.53 169.144L1334.53 167.784L1332.53 167.784L1332.53 177L1334.53 177L1334.53 171.736C1334.53 170.088 1335.47 169.336 1336.8 169.336Z" fill="#FF5B24"/>
<path d="M1343.94 165.56L1343.94 167.784L1342.23 167.784L1342.23 169.4L1343.94 169.4L1343.94 174.408C1343.94 176.104 1344.79 177.16 1346.63 177.16C1347.19 177.16 1347.84 177.016 1348.32 176.872L1348 175.256C1347.63 175.352 1347.41 175.4 1347.04 175.4C1346.23 175.4 1345.94 175.032 1345.94 174.312L1345.94 169.4L1348.24 169.4L1348.24 167.784L1345.94 167.784L1345.94 165.24L1343.94 165.56Z" fill="#FF5B24"/>
<path d="M1354.51 167.784L1354.51 177L1356.51 177L1356.51 167.784L1354.51 167.784ZM1355.51 163.8C1354.83 163.8 1354.31 164.344 1354.31 165C1354.31 165.656 1354.83 166.2 1355.51 166.2C1356.18 166.2 1356.71 165.656 1356.71 165C1356.71 164.344 1356.18 163.8 1355.51 163.8Z" fill="#FF5B24"/>
<path d="M1358.88 170.376C1358.88 171.656 1359.62 172.6 1361.19 172.936L1362.87 173.304C1364.02 173.56 1364.34 173.896 1364.34 174.44C1364.34 175.208 1363.59 175.64 1362.48 175.64C1361.19 175.64 1360.34 175.032 1360.21 173.896L1358.44 174.216C1358.74 176.36 1360.74 177.24 1362.53 177.24C1364.31 177.24 1366.2 176.248 1366.2 174.248C1366.2 172.968 1365.44 172.104 1363.81 171.752L1361.99 171.352C1361.06 171.144 1360.74 170.696 1360.74 170.216C1360.74 169.544 1361.38 169.128 1362.29 169.128C1363.4 169.128 1364.21 169.528 1364.28 170.728L1366.05 170.408C1365.52 168.344 1364.13 167.528 1362.28 167.528C1360.77 167.528 1358.88 168.36 1358.88 170.376Z" fill="#FF5B24"/>
<path d="M1274.91 192.56L1274.91 194.784L1273.2 194.784L1273.2 196.4L1274.91 196.4L1274.91 201.408C1274.91 203.104 1275.76 204.16 1277.6 204.16C1278.16 204.16 1278.82 204.016 1279.3 203.872L1278.98 202.256C1278.61 202.352 1278.39 202.4 1278.02 202.4C1277.2 202.4 1276.91 202.032 1276.91 201.312L1276.91 196.4L1279.22 196.4L1279.22 194.784L1276.91 194.784L1276.91 192.24L1274.91 192.56Z" fill="#FF5B24"/>
<path d="M1285.59 196.688C1286.09 196.688 1286.44 196.752 1286.79 196.896L1286.99 194.656C1286.79 194.56 1286.52 194.528 1286.28 194.528C1285.37 194.528 1283.93 195.056 1283.18 196.992L1283.18 194.784L1281.18 194.784L1281.18 204L1283.18 204L1283.18 199.968C1283.18 197.408 1284.3 196.688 1285.59 196.688Z" fill="#FF5B24"/>
<path d="M1292.03 204.24C1293.67 204.24 1294.68 203.232 1295.15 202.096L1295.15 204L1297.15 204L1297.15 194.784L1295.15 194.784L1295.15 196.592C1294.49 195.136 1293.48 194.528 1292.04 194.528C1290.11 194.528 1287.98 196.08 1287.98 199.296C1287.98 202.672 1290.12 204.24 1292.03 204.24ZM1292.59 196.256C1293.93 196.256 1295.15 197.28 1295.15 199.408C1295.15 201.6 1293.93 202.496 1292.57 202.496C1291.31 202.496 1289.99 201.552 1289.99 199.408C1289.99 197.232 1291.32 196.256 1292.59 196.256Z" fill="#FF5B24"/>
<path d="M1303.98 196.336C1305.07 196.336 1305.93 196.976 1305.93 198.688L1305.93 204L1307.93 204L1307.93 197.824C1307.93 195.344 1306.37 194.528 1304.72 194.528C1303.63 194.528 1302.37 194.976 1301.71 196.144L1301.71 194.784L1299.71 194.784L1299.71 204L1301.71 204L1301.71 198.736C1301.71 197.088 1302.65 196.336 1303.98 196.336Z" fill="#FF5B24"/>
<path d="M1310.22 197.376C1310.22 198.656 1310.96 199.6 1312.52 199.936L1314.2 200.304C1315.36 200.56 1315.68 200.896 1315.68 201.44C1315.68 202.208 1314.92 202.64 1313.82 202.64C1312.52 202.64 1311.68 202.032 1311.55 200.896L1309.77 201.216C1310.08 203.36 1312.08 204.24 1313.87 204.24C1315.64 204.24 1317.53 203.248 1317.53 201.248C1317.53 199.968 1316.78 199.104 1315.15 198.752L1313.32 198.352C1312.4 198.144 1312.08 197.696 1312.08 197.216C1312.08 196.544 1312.72 196.128 1313.63 196.128C1314.73 196.128 1315.55 196.528 1315.61 197.728L1317.39 197.408C1316.86 195.344 1315.47 194.528 1313.61 194.528C1312.11 194.528 1310.22 195.36 1310.22 197.376Z" fill="#FF5B24"/>
<path d="M1320.02 204L1322.02 204L1322.02 196.4L1324.31 196.4L1324.31 194.784L1322.02 194.784L1322.02 194.416C1322.02 193.472 1322.47 192.976 1323.28 192.976C1323.71 192.976 1324.08 193.04 1324.47 193.152L1324.74 191.6C1324.29 191.44 1323.75 191.296 1323.07 191.296C1321.23 191.296 1320.02 192.48 1320.02 194.432L1320.02 194.784L1318.75 194.784L1318.75 196.4L1320.02 196.4L1320.02 204Z" fill="#FF5B24"/>
<path d="M1329.77 196.256C1331.07 196.256 1332.09 196.864 1332.25 198.4L1327.25 198.4C1327.52 196.976 1328.45 196.256 1329.77 196.256ZM1334.14 199.824L1334.14 199.168C1334.14 196.448 1332.35 194.528 1329.85 194.528C1327.18 194.528 1325.15 196.4 1325.15 199.36C1325.15 202.4 1327.26 204.24 1329.98 204.24C1331.68 204.24 1333.73 203.264 1334.08 201.136L1332.22 200.816C1332.01 201.872 1331.41 202.512 1329.9 202.512C1328.24 202.512 1327.33 201.44 1327.18 199.824L1334.14 199.824Z" fill="#FF5B24"/>
<path d="M1340.53 196.688C1341.03 196.688 1341.38 196.752 1341.73 196.896L1341.92 194.656C1341.73 194.56 1341.46 194.528 1341.22 194.528C1340.31 194.528 1338.87 195.056 1338.12 196.992L1338.12 194.784L1336.12 194.784L1336.12 204L1338.12 204L1338.12 199.968C1338.12 197.408 1339.24 196.688 1340.53 196.688Z" fill="#FF5B24"/>
<path d="M1347.84 196.688C1348.34 196.688 1348.69 196.752 1349.04 196.896L1349.24 194.656C1349.04 194.56 1348.77 194.528 1348.53 194.528C1347.62 194.528 1346.18 195.056 1345.43 196.992L1345.43 194.784L1343.43 194.784L1343.43 204L1345.43 204L1345.43 199.968C1345.43 197.408 1346.55 196.688 1347.84 196.688Z" fill="#FF5B24"/>
<path d="M1354.79 196.256C1356.08 196.256 1357.11 196.864 1357.27 198.4L1352.26 198.4C1352.53 196.976 1353.46 196.256 1354.79 196.256ZM1359.16 199.824L1359.16 199.168C1359.16 196.448 1357.36 194.528 1354.87 194.528C1352.2 194.528 1350.16 196.4 1350.16 199.36C1350.16 202.4 1352.28 204.24 1355 204.24C1356.69 204.24 1358.74 203.264 1359.09 201.136L1357.24 200.816C1357.03 201.872 1356.42 202.512 1354.92 202.512C1353.25 202.512 1352.34 201.44 1352.2 199.824L1359.16 199.824Z" fill="#FF5B24"/>
<path d="M1369.79 191.6L1367.79 191.6L1367.79 196.592C1367.13 195.136 1366.14 194.528 1364.89 194.528C1362.75 194.528 1360.62 196.08 1360.62 199.296C1360.62 202.672 1362.76 204.24 1364.64 204.24C1366.32 204.24 1367.32 203.36 1367.79 202.256L1367.79 204L1369.79 204L1369.79 191.6ZM1365.23 196.256C1366.57 196.256 1367.79 197.328 1367.79 199.408C1367.79 201.552 1366.57 202.496 1365.21 202.496C1363.95 202.496 1362.64 201.504 1362.64 199.408C1362.64 197.28 1363.96 196.256 1365.23 196.256Z" fill="#FF5B24"/>
<path d="M1076.62 169.288C1076.14 166.344 1073.61 164.76 1071.1 164.76C1067.67 164.76 1064.84 167.24 1064.84 170.92C1064.84 174.856 1067.7 177.24 1071.14 177.24C1073.46 177.24 1076.36 175.688 1076.71 172.392L1074.55 172.072C1074.38 174.456 1072.74 175.192 1071.14 175.192C1068.87 175.192 1067.1 173.896 1067.1 170.92C1067.1 168.216 1068.87 166.808 1071.02 166.808C1072.49 166.808 1074.1 167.416 1074.46 169.608L1076.62 169.288Z" fill="#FF5B24"/>
<path d="M1086.96 177L1086.96 167.784L1084.96 167.784L1084.96 173.144C1084.96 174.712 1083.92 175.432 1082.58 175.432C1081.35 175.432 1080.74 174.888 1080.74 173.464L1080.74 167.784L1078.74 167.784L1078.74 174.216C1078.74 176.344 1080.28 177.24 1081.81 177.24C1082.96 177.24 1084.24 176.712 1084.96 175.448L1084.96 177L1086.96 177Z" fill="#FF5B24"/>
<path d="M1089.3 170.376C1089.3 171.656 1090.03 172.6 1091.6 172.936L1093.28 173.304C1094.43 173.56 1094.75 173.896 1094.75 174.44C1094.75 175.208 1094 175.64 1092.9 175.64C1091.6 175.64 1090.75 175.032 1090.63 173.896L1088.85 174.216C1089.15 176.36 1091.15 177.24 1092.95 177.24C1094.72 177.24 1096.61 176.248 1096.61 174.248C1096.61 172.968 1095.86 172.104 1094.23 171.752L1092.4 171.352C1091.47 171.144 1091.15 170.696 1091.15 170.216C1091.15 169.544 1091.79 169.128 1092.71 169.128C1093.81 169.128 1094.63 169.528 1094.69 170.728L1096.47 170.408C1095.94 168.344 1094.55 167.528 1092.69 167.528C1091.19 167.528 1089.3 168.36 1089.3 170.376Z" fill="#FF5B24"/>
<path d="M1099.27 165.56L1099.27 167.784L1097.56 167.784L1097.56 169.4L1099.27 169.4L1099.27 174.408C1099.27 176.104 1100.12 177.16 1101.96 177.16C1102.52 177.16 1103.18 177.016 1103.66 176.872L1103.34 175.256C1102.97 175.352 1102.75 175.4 1102.38 175.4C1101.56 175.4 1101.27 175.032 1101.27 174.312L1101.27 169.4L1103.58 169.4L1103.58 167.784L1101.27 167.784L1101.27 165.24L1099.27 165.56Z" fill="#FF5B24"/>
<path d="M1109.52 167.528C1107.03 167.528 1104.96 169.352 1104.96 172.376C1104.96 175.4 1107.03 177.24 1109.52 177.24C1112.02 177.24 1114.08 175.4 1114.08 172.376C1114.08 169.352 1112.02 167.528 1109.52 167.528ZM1109.52 169.256C1110.9 169.256 1112.07 170.264 1112.07 172.376C1112.07 174.488 1110.9 175.512 1109.52 175.512C1108.15 175.512 1106.98 174.488 1106.98 172.376C1106.98 170.264 1108.15 169.256 1109.52 169.256Z" fill="#FF5B24"/>
<path d="M1126.26 169.336C1127.4 169.336 1128.26 169.976 1128.26 171.688L1128.26 177L1130.26 177L1130.26 170.824C1130.26 168.344 1128.74 167.528 1127.06 167.528C1126.04 167.528 1124.74 167.944 1124.05 169.32C1123.56 168.008 1122.39 167.528 1121.16 167.528C1120.05 167.528 1118.73 167.96 1118.07 169.144L1118.07 167.784L1116.07 167.784L1116.07 177L1118.07 177L1118.07 171.736C1118.07 170.088 1119.01 169.336 1120.29 169.336C1121.43 169.336 1122.29 169.976 1122.29 171.688L1122.29 177L1124.29 177L1124.29 171.736C1124.29 170.088 1125.13 169.336 1126.26 169.336Z" fill="#FF5B24"/>
<path d="M1136.79 169.256C1138.08 169.256 1139.11 169.864 1139.27 171.4L1134.26 171.4C1134.53 169.976 1135.46 169.256 1136.79 169.256ZM1141.16 172.824L1141.16 172.168C1141.16 169.448 1139.36 167.528 1136.87 167.528C1134.2 167.528 1132.16 169.4 1132.16 172.36C1132.16 175.4 1134.28 177.24 1137 177.24C1138.69 177.24 1140.74 176.264 1141.09 174.136L1139.24 173.816C1139.03 174.872 1138.42 175.512 1136.92 175.512C1135.25 175.512 1134.34 174.44 1134.2 172.824L1141.16 172.824Z" fill="#FF5B24"/>
<path d="M1147.55 169.688C1148.04 169.688 1148.4 169.752 1148.75 169.896L1148.94 167.656C1148.75 167.56 1148.48 167.528 1148.24 167.528C1147.32 167.528 1145.88 168.056 1145.13 169.992L1145.13 167.784L1143.13 167.784L1143.13 177L1145.13 177L1145.13 172.968C1145.13 170.408 1146.25 169.688 1147.55 169.688Z" fill="#FF5B24"/>
<path d="M1163.27 171.368C1162.93 168.888 1160.96 167.528 1158.82 167.528C1156.18 167.528 1154.18 169.4 1154.18 172.376C1154.18 175.224 1156.15 177.24 1158.96 177.24C1160.74 177.24 1162.82 176.264 1163.25 173.448L1161.43 173.128C1161.22 174.696 1160.36 175.496 1158.95 175.496C1157.08 175.496 1156.2 174.072 1156.2 172.376C1156.2 170.328 1157.32 169.256 1158.72 169.256C1160 169.256 1161.08 169.944 1161.3 171.688L1163.27 171.368Z" fill="#FF5B24"/>
<path d="M1169.13 167.528C1166.64 167.528 1164.57 169.352 1164.57 172.376C1164.57 175.4 1166.64 177.24 1169.13 177.24C1171.63 177.24 1173.69 175.4 1173.69 172.376C1173.69 169.352 1171.63 167.528 1169.13 167.528ZM1169.13 169.256C1170.51 169.256 1171.68 170.264 1171.68 172.376C1171.68 174.488 1170.51 175.512 1169.13 175.512C1167.76 175.512 1166.59 174.488 1166.59 172.376C1166.59 170.264 1167.76 169.256 1169.13 169.256Z" fill="#FF5B24"/>
<path d="M1179.95 169.336C1181.04 169.336 1181.9 169.976 1181.9 171.688L1181.9 177L1183.9 177L1183.9 170.824C1183.9 168.344 1182.33 167.528 1180.69 167.528C1179.6 167.528 1178.33 167.976 1177.68 169.144L1177.68 167.784L1175.68 167.784L1175.68 177L1177.68 177L1177.68 171.736C1177.68 170.088 1178.62 169.336 1179.95 169.336Z" fill="#FF5B24"/>
<path d="M1186.91 177L1188.91 177L1188.91 169.4L1191.2 169.4L1191.2 167.784L1188.91 167.784L1188.91 167.416C1188.91 166.536 1189.17 166.072 1190.01 166.072C1190.24 166.072 1190.43 166.088 1190.62 166.12L1190.77 164.424C1190.51 164.344 1190.17 164.296 1189.79 164.296C1188.06 164.296 1186.91 165.384 1186.91 167.432L1186.91 167.784L1185.65 167.784L1185.65 169.4L1186.91 169.4L1186.91 177Z" fill="#FF5B24"/>
<path d="M1192.62 167.784L1192.62 177L1194.62 177L1194.62 167.784L1192.62 167.784ZM1193.61 163.8C1192.94 163.8 1192.41 164.344 1192.41 165C1192.41 165.656 1192.94 166.2 1193.61 166.2C1194.28 166.2 1194.81 165.656 1194.81 165C1194.81 164.344 1194.28 163.8 1193.61 163.8Z" fill="#FF5B24"/>
<path d="M1201.59 169.688C1202.09 169.688 1202.44 169.752 1202.79 169.896L1202.99 167.656C1202.79 167.56 1202.52 167.528 1202.28 167.528C1201.37 167.528 1199.93 168.056 1199.18 169.992L1199.18 167.784L1197.18 167.784L1197.18 177L1199.18 177L1199.18 172.968C1199.18 170.408 1200.3 169.688 1201.59 169.688Z" fill="#FF5B24"/>
<path d="M1214.68 169.336C1215.82 169.336 1216.68 169.976 1216.68 171.688L1216.68 177L1218.68 177L1218.68 170.824C1218.68 168.344 1217.16 167.528 1215.48 167.528C1214.46 167.528 1213.16 167.944 1212.47 169.32C1211.98 168.008 1210.81 167.528 1209.58 167.528C1208.47 167.528 1207.15 167.96 1206.49 169.144L1206.49 167.784L1204.49 167.784L1204.49 177L1206.49 177L1206.49 171.736C1206.49 170.088 1207.43 169.336 1208.71 169.336C1209.85 169.336 1210.71 169.976 1210.71 171.688L1210.71 177L1212.71 177L1212.71 171.736C1212.71 170.088 1213.55 169.336 1214.68 169.336Z" fill="#FF5B24"/>
<path d="M1220.97 170.376C1220.97 171.656 1221.71 172.6 1223.27 172.936L1224.95 173.304C1226.11 173.56 1226.43 173.896 1226.43 174.44C1226.43 175.208 1225.67 175.64 1224.57 175.64C1223.27 175.64 1222.43 175.032 1222.3 173.896L1220.52 174.216C1220.83 176.36 1222.83 177.24 1224.62 177.24C1226.39 177.24 1228.28 176.248 1228.28 174.248C1228.28 172.968 1227.53 172.104 1225.9 171.752L1224.07 171.352C1223.15 171.144 1222.83 170.696 1222.83 170.216C1222.83 169.544 1223.47 169.128 1224.38 169.128C1225.48 169.128 1226.3 169.528 1226.36 170.728L1228.14 170.408C1227.61 168.344 1226.22 167.528 1224.36 167.528C1222.86 167.528 1220.97 168.36 1220.97 170.376Z" fill="#FF5B24"/>
<path d="M887.978 288L887.978 300L890.074 300L890.074 288L887.978 288Z" fill="#49367E"/>
<path d="M892.565 291.216C892.565 295.84 899.205 294.32 899.205 296.864C899.205 297.776 898.501 298.384 897.141 298.384C895.845 298.384 894.357 297.952 894.149 295.904L892.085 296.384C892.405 298.96 894.677 300.24 897.077 300.24C899.205 300.24 901.301 299.024 901.301 296.736C901.301 292.256 894.693 293.888 894.693 291.136C894.693 290.192 895.413 289.616 896.645 289.616C897.717 289.616 898.917 290.096 899.013 291.76L901.125 291.28C900.773 288.8 898.629 287.76 896.741 287.76C894.645 287.76 892.565 288.912 892.565 291.216Z" fill="#49367E"/>
<path d="M905.496 289.872L907.64 289.872C909 289.872 909.768 290.672 909.768 292.16C909.768 293.568 909 294.368 907.608 294.368L905.496 294.368L905.496 289.872ZM903.4 288L903.4 300L905.496 300L905.496 296.24L907.816 296.24C910.376 296.24 912.008 294.448 912.008 292.128C912.008 289.44 910.472 288 907.8 288L903.4 288Z" fill="#49367E"/>
<path d="M922.782 292.688C923.278 292.688 923.63 292.752 923.982 292.896L924.174 290.656C923.982 290.56 923.71 290.528 923.47 290.528C922.558 290.528 921.118 291.056 920.366 292.992L920.366 290.784L918.366 290.784L918.366 300L920.366 300L920.366 295.968C920.366 293.408 921.486 292.688 922.782 292.688Z" fill="#49367E"/>
<path d="M929.726 292.256C931.022 292.256 932.046 292.864 932.206 294.4L927.198 294.4C927.47 292.976 928.398 292.256 929.726 292.256ZM934.094 295.824L934.094 295.168C934.094 292.448 932.302 290.528 929.806 290.528C927.134 290.528 925.102 292.4 925.102 295.36C925.102 298.4 927.214 300.24 929.934 300.24C931.63 300.24 933.678 299.264 934.03 297.136L932.174 296.816C931.966 297.872 931.358 298.512 929.854 298.512C928.19 298.512 927.278 297.44 927.134 295.824L934.094 295.824Z" fill="#49367E"/>
<path d="M944.229 290.784L942.005 290.784L939.637 297.744L937.253 290.784L935.029 290.784L938.709 300L940.549 300L944.229 290.784Z" fill="#49367E"/>
<path d="M949.741 290.528C947.245 290.528 945.181 292.352 945.181 295.376C945.181 298.4 947.245 300.24 949.741 300.24C952.237 300.24 954.301 298.4 954.301 295.376C954.301 292.352 952.237 290.528 949.741 290.528ZM949.741 292.256C951.117 292.256 952.285 293.264 952.285 295.376C952.285 297.488 951.117 298.512 949.741 298.512C948.365 298.512 947.197 297.488 947.197 295.376C947.197 293.264 948.365 292.256 949.741 292.256Z" fill="#49367E"/>
<path d="M956.288 300L958.288 300L958.288 297.792L959.984 295.888L962.736 300L964.816 300L961.12 294.592L964.512 290.784L962.336 290.784L958.288 295.552L958.288 287.6L956.288 287.6L956.288 300Z" fill="#49367E"/>
<path d="M970.148 292.256C971.444 292.256 972.468 292.864 972.628 294.4L967.62 294.4C967.892 292.976 968.82 292.256 970.148 292.256ZM974.516 295.824L974.516 295.168C974.516 292.448 972.724 290.528 970.228 290.528C967.556 290.528 965.524 292.4 965.524 295.36C965.524 298.4 967.636 300.24 970.356 300.24C972.052 300.24 974.1 299.264 974.452 297.136L972.596 296.816C972.388 297.872 971.78 298.512 970.276 298.512C968.612 298.512 967.7 297.44 967.556 295.824L974.516 295.824Z" fill="#49367E"/>
<path d="M976.299 293.376C976.299 294.656 977.035 295.6 978.603 295.936L980.283 296.304C981.435 296.56 981.755 296.896 981.755 297.44C981.755 298.208 981.003 298.64 979.899 298.64C978.603 298.64 977.755 298.032 977.627 296.896L975.851 297.216C976.155 299.36 978.155 300.24 979.947 300.24C981.723 300.24 983.611 299.248 983.611 297.248C983.611 295.968 982.859 295.104 981.227 294.752L979.403 294.352C978.475 294.144 978.155 293.696 978.155 293.216C978.155 292.544 978.795 292.128 979.707 292.128C980.811 292.128 981.627 292.528 981.691 293.728L983.467 293.408C982.939 291.344 981.547 290.528 979.691 290.528C978.187 290.528 976.299 291.36 976.299 293.376Z" fill="#49367E"/>
<path d="M989.882 290.784L989.882 300L991.882 300L991.882 290.784L989.882 290.784ZM990.874 286.8C990.202 286.8 989.674 287.344 989.674 288C989.674 288.656 990.202 289.2 990.874 289.2C991.546 289.2 992.074 288.656 992.074 288C992.074 287.344 991.546 286.8 990.874 286.8Z" fill="#49367E"/>
<path d="M998.716 292.336C999.804 292.336 1000.67 292.976 1000.67 294.688L1000.67 300L1002.67 300L1002.67 293.824C1002.67 291.344 1001.1 290.528 999.452 290.528C998.364 290.528 997.1 290.976 996.444 292.144L996.444 290.784L994.444 290.784L994.444 300L996.444 300L996.444 294.736C996.444 293.088 997.388 292.336 998.716 292.336Z" fill="#49367E"/>
<path d="M1013.31 290.784L1011.08 290.784L1008.72 297.744L1006.33 290.784L1004.11 290.784L1007.79 300L1009.63 300L1013.31 290.784Z" fill="#49367E"/>
<path d="M1018.82 290.528C1016.32 290.528 1014.26 292.352 1014.26 295.376C1014.26 298.4 1016.32 300.24 1018.82 300.24C1021.31 300.24 1023.38 298.4 1023.38 295.376C1023.38 292.352 1021.31 290.528 1018.82 290.528ZM1018.82 292.256C1020.19 292.256 1021.36 293.264 1021.36 295.376C1021.36 297.488 1020.19 298.512 1018.82 298.512C1017.44 298.512 1016.27 297.488 1016.27 295.376C1016.27 293.264 1017.44 292.256 1018.82 292.256Z" fill="#49367E"/>
<path d="M1025.37 290.784L1025.37 300L1027.37 300L1027.37 290.784L1025.37 290.784ZM1026.36 286.8C1025.69 286.8 1025.16 287.344 1025.16 288C1025.16 288.656 1025.69 289.2 1026.36 289.2C1027.03 289.2 1027.56 288.656 1027.56 288C1027.56 287.344 1027.03 286.8 1026.36 286.8Z" fill="#49367E"/>
<path d="M1038.44 294.368C1038.1 291.888 1036.14 290.528 1033.99 290.528C1031.35 290.528 1029.35 292.4 1029.35 295.376C1029.35 298.224 1031.32 300.24 1034.14 300.24C1035.91 300.24 1037.99 299.264 1038.42 296.448L1036.6 296.128C1036.39 297.696 1035.53 298.496 1034.12 298.496C1032.25 298.496 1031.37 297.072 1031.37 295.376C1031.37 293.328 1032.49 292.256 1033.9 292.256C1035.18 292.256 1036.25 292.944 1036.47 294.688L1038.44 294.368Z" fill="#49367E"/>
<path d="M1044.37 292.256C1045.66 292.256 1046.69 292.864 1046.85 294.4L1041.84 294.4C1042.11 292.976 1043.04 292.256 1044.37 292.256ZM1048.74 295.824L1048.74 295.168C1048.74 292.448 1046.94 290.528 1044.45 290.528C1041.78 290.528 1039.74 292.4 1039.74 295.36C1039.74 298.4 1041.86 300.24 1044.58 300.24C1046.27 300.24 1048.32 299.264 1048.67 297.136L1046.82 296.816C1046.61 297.872 1046 298.512 1044.5 298.512C1042.83 298.512 1041.92 297.44 1041.78 295.824L1048.74 295.824Z" fill="#49367E"/>
<path d="M721.299 165L721.299 177L723.395 177L723.395 165L721.299 165Z" fill="#FF5B24"/>
<path d="M725.885 168.216C725.885 172.84 732.525 171.32 732.525 173.864C732.525 174.776 731.821 175.384 730.461 175.384C729.165 175.384 727.677 174.952 727.469 172.904L725.405 173.384C725.725 175.96 727.997 177.24 730.397 177.24C732.525 177.24 734.621 176.024 734.621 173.736C734.621 169.256 728.013 170.888 728.013 168.136C728.013 167.192 728.733 166.616 729.965 166.616C731.037 166.616 732.237 167.096 732.333 168.76L734.445 168.28C734.093 165.8 731.949 164.76 730.061 164.76C727.965 164.76 725.885 165.912 725.885 168.216Z" fill="#FF5B24"/>
<path d="M738.816 166.872L740.96 166.872C742.32 166.872 743.088 167.672 743.088 169.16C743.088 170.568 742.32 171.368 740.928 171.368L738.816 171.368L738.816 166.872ZM736.72 165L736.72 177L738.816 177L738.816 173.24L741.136 173.24C743.696 173.24 745.328 171.448 745.328 169.128C745.328 166.44 743.792 165 741.12 165L736.72 165Z" fill="#FF5B24"/>
<path d="M760.198 171.368C759.862 168.888 757.894 167.528 755.75 167.528C753.11 167.528 751.11 169.4 751.11 172.376C751.11 175.224 753.078 177.24 755.894 177.24C757.67 177.24 759.75 176.264 760.182 173.448L758.358 173.128C758.15 174.696 757.286 175.496 755.878 175.496C754.006 175.496 753.126 174.072 753.126 172.376C753.126 170.328 754.246 169.256 755.654 169.256C756.934 169.256 758.006 169.944 758.23 171.688L760.198 171.368Z" fill="#FF5B24"/>
<path d="M762.077 164.6L762.077 177L764.077 177L764.077 171.736C764.077 170.088 765.021 169.336 766.365 169.336C767.437 169.336 768.301 169.976 768.301 171.688L768.301 177L770.301 177L770.301 170.824C770.301 168.344 768.781 167.528 767.021 167.528C766.045 167.528 764.733 167.96 764.077 169.144L764.077 164.6L762.077 164.6Z" fill="#FF5B24"/>
<path d="M776.828 169.256C778.124 169.256 779.148 169.864 779.308 171.4L774.3 171.4C774.572 169.976 775.5 169.256 776.828 169.256ZM781.196 172.824L781.196 172.168C781.196 169.448 779.404 167.528 776.908 167.528C774.236 167.528 772.204 169.4 772.204 172.36C772.204 175.4 774.316 177.24 777.036 177.24C778.732 177.24 780.78 176.264 781.132 174.136L779.276 173.816C779.068 174.872 778.46 175.512 776.956 175.512C775.292 175.512 774.38 174.44 774.236 172.824L781.196 172.824Z" fill="#FF5B24"/>
<path d="M791.683 171.368C791.347 168.888 789.379 167.528 787.235 167.528C784.595 167.528 782.595 169.4 782.595 172.376C782.595 175.224 784.563 177.24 787.379 177.24C789.155 177.24 791.235 176.264 791.667 173.448L789.843 173.128C789.635 174.696 788.771 175.496 787.363 175.496C785.491 175.496 784.611 174.072 784.611 172.376C784.611 170.328 785.731 169.256 787.139 169.256C788.419 169.256 789.491 169.944 789.715 171.688L791.683 171.368Z" fill="#FF5B24"/>
<path d="M793.561 177L795.561 177L795.561 174.792L797.257 172.888L800.009 177L802.089 177L798.393 171.592L801.785 167.784L799.609 167.784L795.561 172.552L795.561 164.6L793.561 164.6L793.561 177Z" fill="#FF5B24"/>
<path d="M803.182 170.376C803.182 171.656 803.918 172.6 805.486 172.936L807.166 173.304C808.318 173.56 808.638 173.896 808.638 174.44C808.638 175.208 807.886 175.64 806.782 175.64C805.486 175.64 804.638 175.032 804.51 173.896L802.734 174.216C803.038 176.36 805.038 177.24 806.83 177.24C808.606 177.24 810.494 176.248 810.494 174.248C810.494 172.968 809.742 172.104 808.11 171.752L806.286 171.352C805.358 171.144 805.038 170.696 805.038 170.216C805.038 169.544 805.678 169.128 806.59 169.128C807.694 169.128 808.51 169.528 808.574 170.728L810.35 170.408C809.822 168.344 808.43 167.528 806.574 167.528C805.07 167.528 803.182 168.36 803.182 170.376Z" fill="#FF5B24"/>
<path d="M816.572 170.376C816.572 171.656 817.308 172.6 818.876 172.936L820.556 173.304C821.708 173.56 822.028 173.896 822.028 174.44C822.028 175.208 821.276 175.64 820.172 175.64C818.876 175.64 818.028 175.032 817.9 173.896L816.124 174.216C816.428 176.36 818.428 177.24 820.22 177.24C821.996 177.24 823.884 176.248 823.884 174.248C823.884 172.968 823.132 172.104 821.5 171.752L819.676 171.352C818.748 171.144 818.428 170.696 818.428 170.216C818.428 169.544 819.068 169.128 819.98 169.128C821.084 169.128 821.9 169.528 821.964 170.728L823.74 170.408C823.212 168.344 821.82 167.528 819.964 167.528C818.46 167.528 816.572 168.36 816.572 170.376Z" fill="#FF5B24"/>
<path d="M826.546 165.56L826.546 167.784L824.834 167.784L824.834 169.4L826.546 169.4L826.546 174.408C826.546 176.104 827.394 177.16 829.234 177.16C829.794 177.16 830.45 177.016 830.93 176.872L830.61 175.256C830.242 175.352 830.018 175.4 829.65 175.4C828.834 175.4 828.546 175.032 828.546 174.312L828.546 169.4L830.85 169.4L830.85 167.784L828.546 167.784L828.546 165.24L826.546 165.56Z" fill="#FF5B24"/>
<path d="M836.347 177.24C837.995 177.24 839.003 176.232 839.467 175.096L839.467 177L841.467 177L841.467 167.784L839.467 167.784L839.467 169.592C838.811 168.136 837.803 167.528 836.363 167.528C834.427 167.528 832.299 169.08 832.299 172.296C832.299 175.672 834.443 177.24 836.347 177.24ZM836.907 169.256C838.251 169.256 839.467 170.28 839.467 172.408C839.467 174.6 838.251 175.496 836.891 175.496C835.627 175.496 834.315 174.552 834.315 172.408C834.315 170.232 835.643 169.256 836.907 169.256Z" fill="#FF5B24"/>
<path d="M844.734 165.56L844.734 167.784L843.022 167.784L843.022 169.4L844.734 169.4L844.734 174.408C844.734 176.104 845.582 177.16 847.422 177.16C847.982 177.16 848.638 177.016 849.118 176.872L848.798 175.256C848.43 175.352 848.206 175.4 847.838 175.4C847.022 175.4 846.734 175.032 846.734 174.312L846.734 169.4L849.038 169.4L849.038 167.784L846.734 167.784L846.734 165.24L844.734 165.56Z" fill="#FF5B24"/>
<path d="M855.047 169.256C856.343 169.256 857.367 169.864 857.527 171.4L852.519 171.4C852.791 169.976 853.719 169.256 855.047 169.256ZM859.415 172.824L859.415 172.168C859.415 169.448 857.623 167.528 855.127 167.528C852.455 167.528 850.423 169.4 850.423 172.36C850.423 175.4 852.535 177.24 855.255 177.24C856.951 177.24 858.999 176.264 859.351 174.136L857.495 173.816C857.287 174.872 856.679 175.512 855.175 175.512C853.511 175.512 852.599 174.44 852.455 172.824L859.415 172.824Z" fill="#FF5B24"/>
<path d="M754.311 194.528C751.815 194.528 749.751 196.352 749.751 199.376C749.751 202.4 751.815 204.24 754.311 204.24C756.807 204.24 758.871 202.4 758.871 199.376C758.871 196.352 756.807 194.528 754.311 194.528ZM754.311 196.256C755.687 196.256 756.855 197.264 756.855 199.376C756.855 201.488 755.687 202.512 754.311 202.512C752.935 202.512 751.767 201.488 751.767 199.376C751.767 197.264 752.935 196.256 754.311 196.256Z" fill="#FF5B24"/>
<path d="M761.386 204L763.386 204L763.386 196.4L765.674 196.4L765.674 194.784L763.386 194.784L763.386 194.416C763.386 193.472 763.834 192.976 764.65 192.976C765.082 192.976 765.45 193.04 765.834 193.152L766.106 191.6C765.658 191.44 765.114 191.296 764.442 191.296C762.602 191.296 761.386 192.48 761.386 194.432L761.386 194.784L760.122 194.784L760.122 196.4L761.386 196.4L761.386 204Z" fill="#FF5B24"/>
<path d="M771.405 194.784L771.405 204L773.405 204L773.405 194.784L771.405 194.784ZM772.397 190.8C771.725 190.8 771.197 191.344 771.197 192C771.197 192.656 771.725 193.2 772.397 193.2C773.069 193.2 773.597 192.656 773.597 192C773.597 191.344 773.069 190.8 772.397 190.8Z" fill="#FF5B24"/>
<path d="M780.239 196.336C781.327 196.336 782.191 196.976 782.191 198.688L782.191 204L784.191 204L784.191 197.824C784.191 195.344 782.623 194.528 780.975 194.528C779.887 194.528 778.623 194.976 777.967 196.144L777.967 194.784L775.967 194.784L775.967 204L777.967 204L777.967 198.736C777.967 197.088 778.911 196.336 780.239 196.336Z" fill="#FF5B24"/>
<path d="M794.831 194.784L792.607 194.784L790.239 201.744L787.855 194.784L785.631 194.784L789.311 204L791.151 204L794.831 194.784Z" fill="#FF5B24"/>
<path d="M800.342 194.528C797.846 194.528 795.782 196.352 795.782 199.376C795.782 202.4 797.846 204.24 800.342 204.24C802.838 204.24 804.902 202.4 804.902 199.376C804.902 196.352 802.838 194.528 800.342 194.528ZM800.342 196.256C801.718 196.256 802.886 197.264 802.886 199.376C802.886 201.488 801.718 202.512 800.342 202.512C798.966 202.512 797.798 201.488 797.798 199.376C797.798 197.264 798.966 196.256 800.342 196.256Z" fill="#FF5B24"/>
<path d="M806.889 194.784L806.889 204L808.889 204L808.889 194.784L806.889 194.784ZM807.881 190.8C807.209 190.8 806.681 191.344 806.681 192C806.681 192.656 807.209 193.2 807.881 193.2C808.553 193.2 809.081 192.656 809.081 192C809.081 191.344 808.553 190.8 807.881 190.8Z" fill="#FF5B24"/>
<path d="M819.964 198.368C819.628 195.888 817.66 194.528 815.516 194.528C812.876 194.528 810.876 196.4 810.876 199.376C810.876 202.224 812.844 204.24 815.66 204.24C817.436 204.24 819.516 203.264 819.948 200.448L818.124 200.128C817.916 201.696 817.052 202.496 815.644 202.496C813.772 202.496 812.892 201.072 812.892 199.376C812.892 197.328 814.012 196.256 815.42 196.256C816.7 196.256 817.772 196.944 817.996 198.688L819.964 198.368Z" fill="#FF5B24"/>
<path d="M825.89 196.256C827.186 196.256 828.21 196.864 828.37 198.4L823.362 198.4C823.634 196.976 824.562 196.256 825.89 196.256ZM830.258 199.824L830.258 199.168C830.258 196.448 828.466 194.528 825.97 194.528C823.298 194.528 821.266 196.4 821.266 199.36C821.266 202.4 823.378 204.24 826.098 204.24C827.794 204.24 829.842 203.264 830.194 201.136L828.338 200.816C828.13 201.872 827.522 202.512 826.018 202.512C824.354 202.512 823.442 201.44 823.298 199.824L830.258 199.824Z" fill="#FF5B24"/>
<path d="M539.408 165L539.408 177L541.504 177L541.504 165L539.408 165Z" fill="#FF5B24"/>
<path d="M543.994 168.216C543.994 172.84 550.634 171.32 550.634 173.864C550.634 174.776 549.93 175.384 548.57 175.384C547.274 175.384 545.786 174.952 545.578 172.904L543.514 173.384C543.834 175.96 546.106 177.24 548.506 177.24C550.634 177.24 552.73 176.024 552.73 173.736C552.73 169.256 546.122 170.888 546.122 168.136C546.122 167.192 546.842 166.616 548.074 166.616C549.146 166.616 550.346 167.096 550.442 168.76L552.554 168.28C552.202 165.8 550.058 164.76 548.17 164.76C546.074 164.76 543.994 165.912 543.994 168.216Z" fill="#FF5B24"/>
<path d="M556.926 166.872L559.07 166.872C560.43 166.872 561.198 167.672 561.198 169.16C561.198 170.568 560.43 171.368 559.038 171.368L556.926 171.368L556.926 166.872ZM554.83 165L554.83 177L556.926 177L556.926 173.24L559.246 173.24C561.806 173.24 563.438 171.448 563.438 169.128C563.438 166.44 561.902 165 559.23 165L554.83 165Z" fill="#FF5B24"/>
<path d="M569.604 170.376C569.604 171.656 570.34 172.6 571.908 172.936L573.588 173.304C574.74 173.56 575.06 173.896 575.06 174.44C575.06 175.208 574.308 175.64 573.204 175.64C571.908 175.64 571.06 175.032 570.932 173.896L569.156 174.216C569.46 176.36 571.46 177.24 573.252 177.24C575.028 177.24 576.916 176.248 576.916 174.248C576.916 172.968 576.164 172.104 574.532 171.752L572.708 171.352C571.78 171.144 571.46 170.696 571.46 170.216C571.46 169.544 572.1 169.128 573.012 169.128C574.116 169.128 574.932 169.528 574.996 170.728L576.772 170.408C576.244 168.344 574.852 167.528 572.996 167.528C571.492 167.528 569.604 168.36 569.604 170.376Z" fill="#FF5B24"/>
<path d="M582.922 169.256C584.218 169.256 585.242 169.864 585.402 171.4L580.394 171.4C580.666 169.976 581.594 169.256 582.922 169.256ZM587.29 172.824L587.29 172.168C587.29 169.448 585.498 167.528 583.002 167.528C580.33 167.528 578.298 169.4 578.298 172.36C578.298 175.4 580.41 177.24 583.13 177.24C584.826 177.24 586.874 176.264 587.226 174.136L585.37 173.816C585.162 174.872 584.554 175.512 583.05 175.512C581.386 175.512 580.474 174.44 580.33 172.824L587.29 172.824Z" fill="#FF5B24"/>
<path d="M593.536 169.336C594.624 169.336 595.488 169.976 595.488 171.688L595.488 177L597.488 177L597.488 170.824C597.488 168.344 595.92 167.528 594.272 167.528C593.184 167.528 591.92 167.976 591.264 169.144L591.264 167.784L589.264 167.784L589.264 177L591.264 177L591.264 171.736C591.264 170.088 592.208 169.336 593.536 169.336Z" fill="#FF5B24"/>
<path d="M608.623 164.6L606.623 164.6L606.623 169.592C605.967 168.136 604.975 167.528 603.727 167.528C601.583 167.528 599.455 169.08 599.455 172.296C599.455 175.672 601.599 177.24 603.471 177.24C605.151 177.24 606.159 176.36 606.623 175.256L606.623 177L608.623 177L608.623 164.6ZM604.063 169.256C605.407 169.256 606.623 170.328 606.623 172.408C606.623 174.552 605.407 175.496 604.047 175.496C602.783 175.496 601.471 174.504 601.471 172.408C601.471 170.28 602.799 169.256 604.063 169.256Z" fill="#FF5B24"/>
<path d="M610.994 170.376C610.994 171.656 611.73 172.6 613.298 172.936L614.978 173.304C616.13 173.56 616.45 173.896 616.45 174.44C616.45 175.208 615.698 175.64 614.594 175.64C613.298 175.64 612.45 175.032 612.322 173.896L610.546 174.216C610.85 176.36 612.85 177.24 614.642 177.24C616.418 177.24 618.306 176.248 618.306 174.248C618.306 172.968 617.554 172.104 615.922 171.752L614.098 171.352C613.17 171.144 612.85 170.696 612.85 170.216C612.85 169.544 613.49 169.128 614.402 169.128C615.506 169.128 616.322 169.528 616.386 170.728L618.162 170.408C617.634 168.344 616.242 167.528 614.386 167.528C612.882 167.528 610.994 168.36 610.994 170.376Z" fill="#FF5B24"/>
<path d="M624.577 167.784L624.577 177L626.577 177L626.577 167.784L624.577 167.784ZM625.569 163.8C624.897 163.8 624.369 164.344 624.369 165C624.369 165.656 624.897 166.2 625.569 166.2C626.241 166.2 626.769 165.656 626.769 165C626.769 164.344 626.241 163.8 625.569 163.8Z" fill="#FF5B24"/>
<path d="M633.411 169.336C634.499 169.336 635.363 169.976 635.363 171.688L635.363 177L637.363 177L637.363 170.824C637.363 168.344 635.795 167.528 634.147 167.528C633.059 167.528 631.795 167.976 631.139 169.144L631.139 167.784L629.139 167.784L629.139 177L631.139 177L631.139 171.736C631.139 170.088 632.083 169.336 633.411 169.336Z" fill="#FF5B24"/>
<path d="M648.002 167.784L645.778 167.784L643.41 174.744L641.026 167.784L638.802 167.784L642.482 177L644.322 177L648.002 167.784Z" fill="#FF5B24"/>
<path d="M653.514 167.528C651.018 167.528 648.954 169.352 648.954 172.376C648.954 175.4 651.018 177.24 653.514 177.24C656.01 177.24 658.074 175.4 658.074 172.376C658.074 169.352 656.01 167.528 653.514 167.528ZM653.514 169.256C654.89 169.256 656.058 170.264 656.058 172.376C656.058 174.488 654.89 175.512 653.514 175.512C652.138 175.512 650.97 174.488 650.97 172.376C650.97 170.264 652.138 169.256 653.514 169.256Z" fill="#FF5B24"/>
<path d="M660.061 167.784L660.061 177L662.061 177L662.061 167.784L660.061 167.784ZM661.053 163.8C660.381 163.8 659.853 164.344 659.853 165C659.853 165.656 660.381 166.2 661.053 166.2C661.725 166.2 662.253 165.656 662.253 165C662.253 164.344 661.725 163.8 661.053 163.8Z" fill="#FF5B24"/>
<path d="M673.136 171.368C672.8 168.888 670.832 167.528 668.688 167.528C666.048 167.528 664.048 169.4 664.048 172.376C664.048 175.224 666.016 177.24 668.832 177.24C670.608 177.24 672.688 176.264 673.12 173.448L671.296 173.128C671.088 174.696 670.224 175.496 668.816 175.496C666.944 175.496 666.064 174.072 666.064 172.376C666.064 170.328 667.184 169.256 668.592 169.256C669.872 169.256 670.944 169.944 671.168 171.688L673.136 171.368Z" fill="#FF5B24"/>
<path d="M679.062 169.256C680.358 169.256 681.382 169.864 681.542 171.4L676.534 171.4C676.806 169.976 677.734 169.256 679.062 169.256ZM683.43 172.824L683.43 172.168C683.43 169.448 681.638 167.528 679.142 167.528C676.47 167.528 674.438 169.4 674.438 172.36C674.438 175.4 676.55 177.24 679.27 177.24C680.966 177.24 683.014 176.264 683.366 174.136L681.51 173.816C681.302 174.872 680.694 175.512 679.19 175.512C677.526 175.512 676.614 174.44 676.47 172.824L683.43 172.824Z" fill="#FF5B24"/>
<path d="M362.477 172.488L362.461 172.616C362.269 174.136 361.037 175.192 359.149 175.192C357.165 175.192 355.181 174.008 355.181 171.048C355.181 168.232 356.829 166.808 359.037 166.808C360.717 166.808 362.141 167.448 362.413 169.448L364.525 169.128C364.061 165.784 361.165 164.76 359.165 164.76C355.581 164.76 352.925 167.336 352.925 171.048C352.925 174.6 355.533 177.24 358.573 177.24C360.509 177.24 361.885 176.04 362.525 174.76L362.541 174.76L362.909 177L364.685 177L364.685 170.6L359.325 170.6L359.325 172.488L362.477 172.488Z" fill="#FF5B24"/>
<path d="M371.312 169.256C372.608 169.256 373.632 169.864 373.792 171.4L368.784 171.4C369.056 169.976 369.984 169.256 371.312 169.256ZM375.68 172.824L375.68 172.168C375.68 169.448 373.888 167.528 371.392 167.528C368.72 167.528 366.688 169.4 366.688 172.36C366.688 175.4 368.8 177.24 371.52 177.24C373.216 177.24 375.264 176.264 375.616 174.136L373.76 173.816C373.552 174.872 372.944 175.512 371.44 175.512C369.776 175.512 368.864 174.44 368.72 172.824L375.68 172.824Z" fill="#FF5B24"/>
<path d="M378.359 165.56L378.359 167.784L376.647 167.784L376.647 169.4L378.359 169.4L378.359 174.408C378.359 176.104 379.207 177.16 381.047 177.16C381.607 177.16 382.263 177.016 382.743 176.872L382.423 175.256C382.055 175.352 381.831 175.4 381.463 175.4C380.647 175.4 380.359 175.032 380.359 174.312L380.359 169.4L382.663 169.4L382.663 167.784L380.359 167.784L380.359 165.24L378.359 165.56Z" fill="#FF5B24"/>
<path d="M393.352 169.688C393.848 169.688 394.2 169.752 394.552 169.896L394.744 167.656C394.552 167.56 394.28 167.528 394.04 167.528C393.128 167.528 391.688 168.056 390.936 169.992L390.936 167.784L388.936 167.784L388.936 177L390.936 177L390.936 172.968C390.936 170.408 392.056 169.688 393.352 169.688Z" fill="#FF5B24"/>
<path d="M400.297 169.256C401.593 169.256 402.617 169.864 402.777 171.4L397.769 171.4C398.041 169.976 398.969 169.256 400.297 169.256ZM404.665 172.824L404.665 172.168C404.665 169.448 402.873 167.528 400.377 167.528C397.705 167.528 395.673 169.4 395.673 172.36C395.673 175.4 397.785 177.24 400.505 177.24C402.201 177.24 404.249 176.264 404.601 174.136L402.745 173.816C402.537 174.872 401.929 175.512 400.425 175.512C398.761 175.512 397.849 174.44 397.705 172.824L404.665 172.824Z" fill="#FF5B24"/>
<path d="M415.151 171.368C414.815 168.888 412.847 167.528 410.703 167.528C408.063 167.528 406.063 169.4 406.063 172.376C406.063 175.224 408.031 177.24 410.847 177.24C412.623 177.24 414.703 176.264 415.135 173.448L413.311 173.128C413.103 174.696 412.239 175.496 410.831 175.496C408.959 175.496 408.079 174.072 408.079 172.376C408.079 170.328 409.199 169.256 410.607 169.256C411.887 169.256 412.959 169.944 413.183 171.688L415.151 171.368Z" fill="#FF5B24"/>
<path d="M417.03 167.784L417.03 177L419.03 177L419.03 167.784L417.03 167.784ZM418.022 163.8C417.35 163.8 416.822 164.344 416.822 165C416.822 165.656 417.35 166.2 418.022 166.2C418.694 166.2 419.222 165.656 419.222 165C419.222 164.344 418.694 163.8 418.022 163.8Z" fill="#FF5B24"/>
<path d="M426.713 167.528C425.145 167.528 424.185 168.52 423.593 169.592L423.593 167.784L421.593 167.784L421.593 180.2L423.593 180.2L423.593 175.256C424.361 176.568 425.353 177.24 426.521 177.24C428.665 177.24 430.761 175.608 430.761 172.248C430.761 169.032 428.585 167.528 426.713 167.528ZM426.169 169.256C427.433 169.256 428.745 170.264 428.745 172.36C428.745 174.488 427.433 175.496 426.153 175.496C424.809 175.496 423.593 174.408 423.593 172.36C423.593 170.216 424.809 169.256 426.169 169.256Z" fill="#FF5B24"/>
<path d="M432.811 167.784L432.811 177L434.811 177L434.811 167.784L432.811 167.784ZM433.803 163.8C433.131 163.8 432.603 164.344 432.603 165C432.603 165.656 433.131 166.2 433.803 166.2C434.475 166.2 435.003 165.656 435.003 165C435.003 164.344 434.475 163.8 433.803 163.8Z" fill="#FF5B24"/>
<path d="M441.422 169.256C442.718 169.256 443.742 169.864 443.902 171.4L438.894 171.4C439.166 169.976 440.094 169.256 441.422 169.256ZM445.79 172.824L445.79 172.168C445.79 169.448 443.998 167.528 441.502 167.528C438.83 167.528 436.798 169.4 436.798 172.36C436.798 175.4 438.91 177.24 441.63 177.24C443.326 177.24 445.374 176.264 445.726 174.136L443.87 173.816C443.662 174.872 443.054 175.512 441.55 175.512C439.886 175.512 438.974 174.44 438.83 172.824L445.79 172.824Z" fill="#FF5B24"/>
<path d="M452.036 169.336C453.124 169.336 453.988 169.976 453.988 171.688L453.988 177L455.988 177L455.988 170.824C455.988 168.344 454.42 167.528 452.772 167.528C451.684 167.528 450.42 167.976 449.764 169.144L449.764 167.784L447.764 167.784L447.764 177L449.764 177L449.764 171.736C449.764 170.088 450.708 169.336 452.036 169.336Z" fill="#FF5B24"/>
<path d="M459.172 165.56L459.172 167.784L457.46 167.784L457.46 169.4L459.172 169.4L459.172 174.408C459.172 176.104 460.02 177.16 461.86 177.16C462.42 177.16 463.076 177.016 463.556 176.872L463.236 175.256C462.868 175.352 462.644 175.4 462.276 175.4C461.46 175.4 461.172 175.032 461.172 174.312L461.172 169.4L463.476 169.4L463.476 167.784L461.172 167.784L461.172 165.24L459.172 165.56Z" fill="#FF5B24"/>
<path d="M470.453 165.56L470.453 167.784L468.741 167.784L468.741 169.4L470.453 169.4L470.453 174.408C470.453 176.104 471.301 177.16 473.141 177.16C473.701 177.16 474.357 177.016 474.837 176.872L474.517 175.256C474.149 175.352 473.925 175.4 473.557 175.4C472.741 175.4 472.453 175.032 472.453 174.312L472.453 169.4L474.757 169.4L474.757 167.784L472.453 167.784L472.453 165.24L470.453 165.56Z" fill="#FF5B24"/>
<path d="M480.702 167.528C478.206 167.528 476.142 169.352 476.142 172.376C476.142 175.4 478.206 177.24 480.702 177.24C483.198 177.24 485.262 175.4 485.262 172.376C485.262 169.352 483.198 167.528 480.702 167.528ZM480.702 169.256C482.078 169.256 483.246 170.264 483.246 172.376C483.246 174.488 482.078 175.512 480.702 175.512C479.326 175.512 478.158 174.488 478.158 172.376C478.158 170.264 479.326 169.256 480.702 169.256Z" fill="#FF5B24"/>
<path d="M487.249 177L489.249 177L489.249 174.792L490.945 172.888L493.697 177L495.777 177L492.081 171.592L495.473 167.784L493.297 167.784L489.249 172.552L489.249 164.6L487.249 164.6L487.249 177Z" fill="#FF5B24"/>
<path d="M501.109 169.256C502.405 169.256 503.429 169.864 503.589 171.4L498.581 171.4C498.853 169.976 499.781 169.256 501.109 169.256ZM505.477 172.824L505.477 172.168C505.477 169.448 503.685 167.528 501.189 167.528C498.517 167.528 496.485 169.4 496.485 172.36C496.485 175.4 498.597 177.24 501.317 177.24C503.013 177.24 505.061 176.264 505.413 174.136L503.557 173.816C503.349 174.872 502.741 175.512 501.237 175.512C499.573 175.512 498.661 174.44 498.517 172.824L505.477 172.824Z" fill="#FF5B24"/>
<path d="M511.724 169.336C512.812 169.336 513.676 169.976 513.676 171.688L513.676 177L515.676 177L515.676 170.824C515.676 168.344 514.108 167.528 512.46 167.528C511.372 167.528 510.108 167.976 509.452 169.144L509.452 167.784L507.452 167.784L507.452 177L509.452 177L509.452 171.736C509.452 170.088 510.396 169.336 511.724 169.336Z" fill="#FF5B24"/>
<path d="M181.9 165L181.9 177L183.996 177L183.996 172.424L185.516 172.424C186.812 172.424 187.564 172.936 187.756 174.04L188.076 175.896C188.172 176.488 188.444 176.808 188.764 177L191.292 177C190.844 176.728 190.492 176.248 190.348 175.688L189.852 173.752C189.564 172.616 189.02 172.088 188.236 171.768C189.34 171.128 190.188 170.024 190.188 168.632C190.188 166.392 188.684 165 186.06 165L181.9 165ZM186.012 166.872C187.132 166.872 187.948 167.528 187.948 168.728C187.948 169.784 187.212 170.552 186.028 170.552L183.996 170.552L183.996 166.872L186.012 166.872Z" fill="#FF5B24"/>
<path d="M196.336 169.256C197.632 169.256 198.656 169.864 198.816 171.4L193.808 171.4C194.08 169.976 195.008 169.256 196.336 169.256ZM200.704 172.824L200.704 172.168C200.704 169.448 198.912 167.528 196.416 167.528C193.744 167.528 191.712 169.4 191.712 172.36C191.712 175.4 193.824 177.24 196.544 177.24C198.24 177.24 200.288 176.264 200.64 174.136L198.784 173.816C198.576 174.872 197.968 175.512 196.464 175.512C194.8 175.512 193.888 174.44 193.744 172.824L200.704 172.824Z" fill="#FF5B24"/>
<path d="M206.07 176.472C207.686 176.472 208.534 175.416 209.03 174.408L209.03 175.784C209.03 177.736 208.214 178.536 206.438 178.536C205.318 178.536 204.246 178.216 204.07 176.888L202.134 177.208C202.598 179.544 204.694 180.328 206.358 180.328C209.302 180.328 211.03 178.792 211.03 175.704L211.03 167.768L209.03 167.768L209.03 169.56C208.326 168.136 207.446 167.528 206.23 167.528C204.15 167.528 202.182 168.936 202.182 171.864C202.182 175 204.182 176.472 206.07 176.472ZM206.582 169.256C207.926 169.256 209.03 170.232 209.03 171.992C209.03 173.848 207.926 174.728 206.582 174.728C205.286 174.728 204.198 173.848 204.198 171.976C204.198 170.168 205.334 169.256 206.582 169.256Z" fill="#FF5B24"/>
<path d="M213.585 167.784L213.585 177L215.585 177L215.585 167.784L213.585 167.784ZM214.577 163.8C213.905 163.8 213.377 164.344 213.377 165C213.377 165.656 213.905 166.2 214.577 166.2C215.249 166.2 215.777 165.656 215.777 165C215.777 164.344 215.249 163.8 214.577 163.8Z" fill="#FF5B24"/>
<path d="M217.955 170.376C217.955 171.656 218.691 172.6 220.259 172.936L221.939 173.304C223.091 173.56 223.411 173.896 223.411 174.44C223.411 175.208 222.659 175.64 221.555 175.64C220.259 175.64 219.411 175.032 219.283 173.896L217.507 174.216C217.811 176.36 219.811 177.24 221.603 177.24C223.379 177.24 225.267 176.248 225.267 174.248C225.267 172.968 224.515 172.104 222.883 171.752L221.059 171.352C220.131 171.144 219.811 170.696 219.811 170.216C219.811 169.544 220.451 169.128 221.363 169.128C222.467 169.128 223.283 169.528 223.347 170.728L225.123 170.408C224.595 168.344 223.203 167.528 221.347 167.528C219.843 167.528 217.955 168.36 217.955 170.376Z" fill="#FF5B24"/>
<path d="M227.929 165.56L227.929 167.784L226.217 167.784L226.217 169.4L227.929 169.4L227.929 174.408C227.929 176.104 228.777 177.16 230.617 177.16C231.177 177.16 231.833 177.016 232.313 176.872L231.993 175.256C231.625 175.352 231.401 175.4 231.033 175.4C230.217 175.4 229.929 175.032 229.929 174.312L229.929 169.4L232.233 169.4L232.233 167.784L229.929 167.784L229.929 165.24L227.929 165.56Z" fill="#FF5B24"/>
<path d="M238.61 169.688C239.106 169.688 239.458 169.752 239.81 169.896L240.002 167.656C239.81 167.56 239.538 167.528 239.298 167.528C238.386 167.528 236.946 168.056 236.194 169.992L236.194 167.784L234.194 167.784L234.194 177L236.194 177L236.194 172.968C236.194 170.408 237.314 169.688 238.61 169.688Z" fill="#FF5B24"/>
<path d="M242.323 180.2C244.115 180.2 245.267 179.256 245.987 177.384L249.667 167.784L247.443 167.784L245.123 174.984L242.691 167.784L240.467 167.784L243.859 176.296C244.323 177.464 243.891 178.536 242.515 178.536C241.795 178.536 241.347 178.312 241.059 178.136L240.739 179.864C241.171 180.072 241.715 180.2 242.323 180.2Z" fill="#FF5B24"/>
<path d="M268.787 167.784L266.563 167.784L264.595 174.504L262.371 167.784L260.883 167.784L258.675 174.472L256.691 167.784L254.467 167.784L257.779 177L259.507 177L261.635 171.176L263.747 177L265.475 177L268.787 167.784Z" fill="#FF5B24"/>
<path d="M273.839 177.24C275.487 177.24 276.495 176.232 276.959 175.096L276.959 177L278.959 177L278.959 167.784L276.959 167.784L276.959 169.592C276.303 168.136 275.295 167.528 273.855 167.528C271.919 167.528 269.791 169.08 269.791 172.296C269.791 175.672 271.935 177.24 273.839 177.24ZM274.399 169.256C275.743 169.256 276.959 170.28 276.959 172.408C276.959 174.6 275.743 175.496 274.383 175.496C273.119 175.496 271.807 174.552 271.807 172.408C271.807 170.232 273.135 169.256 274.399 169.256Z" fill="#FF5B24"/>
<path d="M281.33 170.376C281.33 171.656 282.066 172.6 283.634 172.936L285.314 173.304C286.466 173.56 286.786 173.896 286.786 174.44C286.786 175.208 286.034 175.64 284.93 175.64C283.634 175.64 282.786 175.032 282.658 173.896L280.882 174.216C281.186 176.36 283.186 177.24 284.978 177.24C286.754 177.24 288.642 176.248 288.642 174.248C288.642 172.968 287.89 172.104 286.258 171.752L284.434 171.352C283.506 171.144 283.186 170.696 283.186 170.216C283.186 169.544 283.826 169.128 284.738 169.128C285.842 169.128 286.658 169.528 286.722 170.728L288.498 170.408C287.97 168.344 286.578 167.528 284.722 167.528C283.218 167.528 281.33 168.36 281.33 170.376Z" fill="#FF5B24"/>
<path d="M290.6 164.6L290.6 177L292.6 177L292.6 171.736C292.6 170.088 293.544 169.336 294.888 169.336C295.96 169.336 296.824 169.976 296.824 171.688L296.824 177L298.824 177L298.824 170.824C298.824 168.344 297.304 167.528 295.544 167.528C294.568 167.528 293.256 167.96 292.6 169.144L292.6 164.6L290.6 164.6Z" fill="#FF5B24"/>
<path d="M301.303 167.784L301.303 177L303.303 177L303.303 167.784L301.303 167.784ZM302.295 163.8C301.623 163.8 301.095 164.344 301.095 165C301.095 165.656 301.623 166.2 302.295 166.2C302.967 166.2 303.495 165.656 303.495 165C303.495 164.344 302.967 163.8 302.295 163.8Z" fill="#FF5B24"/>
<path d="M310.138 169.336C311.226 169.336 312.09 169.976 312.09 171.688L312.09 177L314.09 177L314.09 170.824C314.09 168.344 312.522 167.528 310.874 167.528C309.786 167.528 308.522 167.976 307.866 169.144L307.866 167.784L305.866 167.784L305.866 177L307.866 177L307.866 171.736C307.866 170.088 308.81 169.336 310.138 169.336Z" fill="#FF5B24"/>
<path d="M319.961 176.472C321.577 176.472 322.425 175.416 322.921 174.408L322.921 175.784C322.921 177.736 322.105 178.536 320.329 178.536C319.209 178.536 318.137 178.216 317.961 176.888L316.025 177.208C316.489 179.544 318.585 180.328 320.249 180.328C323.193 180.328 324.921 178.792 324.921 175.704L324.921 167.768L322.921 167.768L322.921 169.56C322.217 168.136 321.337 167.528 320.121 167.528C318.041 167.528 316.073 168.936 316.073 171.864C316.073 175 318.073 176.472 319.961 176.472ZM320.473 169.256C321.817 169.256 322.921 170.232 322.921 171.992C322.921 173.848 321.817 174.728 320.473 174.728C319.177 174.728 318.089 173.848 318.089 171.976C318.089 170.168 319.225 169.256 320.473 169.256Z" fill="#FF5B24"/>
<path d="M202.949 204.24C204.597 204.24 205.605 203.232 206.069 202.096L206.069 204L208.069 204L208.069 194.784L206.069 194.784L206.069 196.592C205.413 195.136 204.405 194.528 202.965 194.528C201.029 194.528 198.901 196.08 198.901 199.296C198.901 202.672 201.045 204.24 202.949 204.24ZM203.509 196.256C204.853 196.256 206.069 197.28 206.069 199.408C206.069 201.6 204.853 202.496 203.493 202.496C202.229 202.496 200.917 201.552 200.917 199.408C200.917 197.232 202.245 196.256 203.509 196.256Z" fill="#FF5B24"/>
<path d="M214.904 196.336C215.992 196.336 216.856 196.976 216.856 198.688L216.856 204L218.856 204L218.856 197.824C218.856 195.344 217.288 194.528 215.64 194.528C214.552 194.528 213.288 194.976 212.632 196.144L212.632 194.784L210.632 194.784L210.632 204L212.632 204L212.632 198.736C212.632 197.088 213.576 196.336 214.904 196.336Z" fill="#FF5B24"/>
<path d="M229.991 191.6L227.991 191.6L227.991 196.592C227.335 195.136 226.343 194.528 225.095 194.528C222.951 194.528 220.823 196.08 220.823 199.296C220.823 202.672 222.967 204.24 224.839 204.24C226.519 204.24 227.527 203.36 227.991 202.256L227.991 204L229.991 204L229.991 191.6ZM225.431 196.256C226.775 196.256 227.991 197.328 227.991 199.408C227.991 201.552 226.775 202.496 225.415 202.496C224.151 202.496 222.839 201.504 222.839 199.408C222.839 197.28 224.167 196.256 225.431 196.256Z" fill="#FF5B24"/>
<path d="M245.378 198.368C245.042 195.888 243.074 194.528 240.93 194.528C238.29 194.528 236.29 196.4 236.29 199.376C236.29 202.224 238.258 204.24 241.074 204.24C242.85 204.24 244.93 203.264 245.362 200.448L243.538 200.128C243.33 201.696 242.466 202.496 241.058 202.496C239.186 202.496 238.306 201.072 238.306 199.376C238.306 197.328 239.426 196.256 240.834 196.256C242.114 196.256 243.186 196.944 243.41 198.688L245.378 198.368Z" fill="#FF5B24"/>
<path d="M255.433 204L255.433 194.784L253.433 194.784L253.433 200.144C253.433 201.712 252.393 202.432 251.049 202.432C249.817 202.432 249.209 201.888 249.209 200.464L249.209 194.784L247.209 194.784L247.209 201.216C247.209 203.344 248.745 204.24 250.281 204.24C251.433 204.24 252.713 203.712 253.433 202.448L253.433 204L255.433 204Z" fill="#FF5B24"/>
<path d="M258.664 192.56L258.664 194.784L256.952 194.784L256.952 196.4L258.664 196.4L258.664 201.408C258.664 203.104 259.512 204.16 261.352 204.16C261.912 204.16 262.568 204.016 263.048 203.872L262.728 202.256C262.36 202.352 262.136 202.4 261.768 202.4C260.952 202.4 260.664 202.032 260.664 201.312L260.664 196.4L262.968 196.4L262.968 194.784L260.664 194.784L260.664 192.24L258.664 192.56Z" fill="#FF5B24"/>
<path d="M268.912 194.528C266.416 194.528 264.352 196.352 264.352 199.376C264.352 202.4 266.416 204.24 268.912 204.24C271.408 204.24 273.472 202.4 273.472 199.376C273.472 196.352 271.408 194.528 268.912 194.528ZM268.912 196.256C270.288 196.256 271.456 197.264 271.456 199.376C271.456 201.488 270.288 202.512 268.912 202.512C267.536 202.512 266.368 201.488 266.368 199.376C266.368 197.264 267.536 196.256 268.912 196.256Z" fill="#FF5B24"/>
<path d="M285.652 196.336C286.788 196.336 287.652 196.976 287.652 198.688L287.652 204L289.652 204L289.652 197.824C289.652 195.344 288.132 194.528 286.452 194.528C285.428 194.528 284.132 194.944 283.444 196.32C282.948 195.008 281.78 194.528 280.548 194.528C279.444 194.528 278.116 194.96 277.46 196.144L277.46 194.784L275.46 194.784L275.46 204L277.46 204L277.46 198.736C277.46 197.088 278.404 196.336 279.684 196.336C280.82 196.336 281.684 196.976 281.684 198.688L281.684 204L283.684 204L283.684 198.736C283.684 197.088 284.516 196.336 285.652 196.336Z" fill="#FF5B24"/>
<path d="M296.18 196.256C297.476 196.256 298.5 196.864 298.66 198.4L293.652 198.4C293.924 196.976 294.852 196.256 296.18 196.256ZM300.548 199.824L300.548 199.168C300.548 196.448 298.756 194.528 296.26 194.528C293.588 194.528 291.556 196.4 291.556 199.36C291.556 202.4 293.668 204.24 296.388 204.24C298.084 204.24 300.132 203.264 300.484 201.136L298.628 200.816C298.42 201.872 297.812 202.512 296.308 202.512C294.644 202.512 293.732 201.44 293.588 199.824L300.548 199.824Z" fill="#FF5B24"/>
<path d="M306.938 196.688C307.434 196.688 307.786 196.752 308.138 196.896L308.33 194.656C308.138 194.56 307.866 194.528 307.626 194.528C306.714 194.528 305.274 195.056 304.522 196.992L304.522 194.784L302.522 194.784L302.522 204L304.522 204L304.522 199.968C304.522 197.408 305.642 196.688 306.938 196.688Z" fill="#FF5B24"/>
<path d="M228.1 218.6L228.1 231L230.1 231L230.1 218.6L228.1 218.6Z" fill="#FF5B24"/>
<path d="M236.647 221.528C234.151 221.528 232.087 223.352 232.087 226.376C232.087 229.4 234.151 231.24 236.647 231.24C239.143 231.24 241.207 229.4 241.207 226.376C241.207 223.352 239.143 221.528 236.647 221.528ZM236.647 223.256C238.023 223.256 239.191 224.264 239.191 226.376C239.191 228.488 238.023 229.512 236.647 229.512C235.271 229.512 234.103 228.488 234.103 226.376C234.103 224.264 235.271 223.256 236.647 223.256Z" fill="#FF5B24"/>
<path d="M247.178 221.528C244.682 221.528 242.618 223.352 242.618 226.376C242.618 229.4 244.682 231.24 247.178 231.24C249.674 231.24 251.738 229.4 251.738 226.376C251.738 223.352 249.674 221.528 247.178 221.528ZM247.178 223.256C248.554 223.256 249.722 224.264 249.722 226.376C249.722 228.488 248.554 229.512 247.178 229.512C245.802 229.512 244.634 228.488 244.634 226.376C244.634 224.264 245.802 223.256 247.178 223.256Z" fill="#FF5B24"/>
<path d="M253.725 231L255.725 231L255.725 228.792L257.421 226.888L260.173 231L262.253 231L258.557 225.592L261.949 221.784L259.773 221.784L255.725 226.552L255.725 218.6L253.725 218.6L253.725 231Z" fill="#FF5B24"/>
<path d="M271.714 231L271.714 221.784L269.714 221.784L269.714 227.144C269.714 228.712 268.674 229.432 267.33 229.432C266.098 229.432 265.49 228.888 265.49 227.464L265.49 221.784L263.49 221.784L263.49 228.216C263.49 230.344 265.026 231.24 266.562 231.24C267.714 231.24 268.994 230.712 269.714 229.448L269.714 231L271.714 231Z" fill="#FF5B24"/>
<path d="M279.361 221.528C277.793 221.528 276.833 222.52 276.241 223.592L276.241 221.784L274.241 221.784L274.241 234.2L276.241 234.2L276.241 229.256C277.009 230.568 278.001 231.24 279.169 231.24C281.313 231.24 283.409 229.608 283.409 226.248C283.409 223.032 281.233 221.528 279.361 221.528ZM278.817 223.256C280.081 223.256 281.393 224.264 281.393 226.36C281.393 228.488 280.081 229.496 278.801 229.496C277.457 229.496 276.241 228.408 276.241 226.36C276.241 224.216 277.457 223.256 278.817 223.256Z" fill="#FF5B24"/>
<path d="M15.1099 172.488L15.0939 172.616C14.9019 174.136 13.6699 175.192 11.7819 175.192C9.79786 175.192 7.81386 174.008 7.81386 171.048C7.81386 168.232 9.46186 166.808 11.6699 166.808C13.3499 166.808 14.7739 167.448 15.0459 169.448L17.1579 169.128C16.6939 165.784 13.7979 164.76 11.7979 164.76C8.21386 164.76 5.55786 167.336 5.55786 171.048C5.55786 174.6 8.16586 177.24 11.2059 177.24C13.1419 177.24 14.5179 176.04 15.1579 174.76L15.1739 174.76L15.5419 177L17.3179 177L17.3179 170.6L11.9579 170.6L11.9579 172.488L15.1099 172.488Z" fill="#FF5B24"/>
<path d="M23.9452 169.256C25.2412 169.256 26.2652 169.864 26.4252 171.4L21.4172 171.4C21.6892 169.976 22.6172 169.256 23.9452 169.256ZM28.3132 172.824L28.3132 172.168C28.3132 169.448 26.5212 167.528 24.0252 167.528C21.3532 167.528 19.3212 169.4 19.3212 172.36C19.3212 175.4 21.4332 177.24 24.1532 177.24C25.8492 177.24 27.8972 176.264 28.2492 174.136L26.3932 173.816C26.1852 174.872 25.5772 175.512 24.0732 175.512C22.4092 175.512 21.4972 174.44 21.3532 172.824L28.3132 172.824Z" fill="#FF5B24"/>
<path d="M30.9919 165.56L30.9919 167.784L29.2799 167.784L29.2799 169.4L30.9919 169.4L30.9919 174.408C30.9919 176.104 31.8399 177.16 33.6799 177.16C34.2399 177.16 34.8959 177.016 35.3759 176.872L35.0559 175.256C34.6879 175.352 34.4639 175.4 34.0959 175.4C33.2799 175.4 32.9919 175.032 32.9919 174.312L32.9919 169.4L35.2959 169.4L35.2959 167.784L32.9919 167.784L32.9919 165.24L30.9919 165.56Z" fill="#FF5B24"/>
<path d="M45.1051 177.24C46.7531 177.24 47.7611 176.232 48.2251 175.096L48.2251 177L50.2251 177L50.2251 167.784L48.2251 167.784L48.2251 169.592C47.5691 168.136 46.5611 167.528 45.1211 167.528C43.1851 167.528 41.0571 169.08 41.0571 172.296C41.0571 175.672 43.2011 177.24 45.1051 177.24ZM45.6651 169.256C47.0091 169.256 48.2251 170.28 48.2251 172.408C48.2251 174.6 47.0091 175.496 45.6491 175.496C44.3851 175.496 43.0731 174.552 43.0731 172.408C43.0731 170.232 44.4011 169.256 45.6651 169.256Z" fill="#FF5B24"/>
<path d="M61.2999 171.368C60.9639 168.888 58.9959 167.528 56.8519 167.528C54.2119 167.528 52.2119 169.4 52.2119 172.376C52.2119 175.224 54.1799 177.24 56.9959 177.24C58.7719 177.24 60.8519 176.264 61.2839 173.448L59.4599 173.128C59.2519 174.696 58.3879 175.496 56.9799 175.496C55.1079 175.496 54.2279 174.072 54.2279 172.376C54.2279 170.328 55.3479 169.256 56.7559 169.256C58.0359 169.256 59.1079 169.944 59.3319 171.688L61.2999 171.368Z" fill="#FF5B24"/>
<path d="M71.6905 171.368C71.3545 168.888 69.3865 167.528 67.2425 167.528C64.6025 167.528 62.6025 169.4 62.6025 172.376C62.6025 175.224 64.5705 177.24 67.3865 177.24C69.1625 177.24 71.2425 176.264 71.6745 173.448L69.8505 173.128C69.6425 174.696 68.7785 175.496 67.3705 175.496C65.4985 175.496 64.6185 174.072 64.6185 172.376C64.6185 170.328 65.7385 169.256 67.1465 169.256C68.4265 169.256 69.4985 169.944 69.7225 171.688L71.6905 171.368Z" fill="#FF5B24"/>
<path d="M77.6171 169.256C78.9131 169.256 79.9371 169.864 80.0971 171.4L75.0891 171.4C75.3611 169.976 76.2891 169.256 77.6171 169.256ZM81.9851 172.824L81.9851 172.168C81.9851 169.448 80.1931 167.528 77.6971 167.528C75.0251 167.528 72.9931 169.4 72.9931 172.36C72.9931 175.4 75.1051 177.24 77.8251 177.24C79.5211 177.24 81.5691 176.264 81.9211 174.136L80.0651 173.816C79.8571 174.872 79.2491 175.512 77.7451 175.512C76.0811 175.512 75.1691 174.44 75.0251 172.824L81.9851 172.824Z" fill="#FF5B24"/>
<path d="M83.7677 170.376C83.7677 171.656 84.5037 172.6 86.0717 172.936L87.7517 173.304C88.9037 173.56 89.2237 173.896 89.2237 174.44C89.2237 175.208 88.4717 175.64 87.3677 175.64C86.0717 175.64 85.2237 175.032 85.0957 173.896L83.3197 174.216C83.6237 176.36 85.6237 177.24 87.4157 177.24C89.1917 177.24 91.0797 176.248 91.0797 174.248C91.0797 172.968 90.3277 172.104 88.6957 171.752L86.8717 171.352C85.9437 171.144 85.6237 170.696 85.6237 170.216C85.6237 169.544 86.2637 169.128 87.1757 169.128C88.2797 169.128 89.0957 169.528 89.1597 170.728L90.9357 170.408C90.4077 168.344 89.0157 167.528 87.1597 167.528C85.6557 167.528 83.7677 168.36 83.7677 170.376Z" fill="#FF5B24"/>
<path d="M92.8459 170.376C92.8459 171.656 93.5819 172.6 95.1499 172.936L96.8299 173.304C97.9819 173.56 98.3019 173.896 98.3019 174.44C98.3019 175.208 97.5499 175.64 96.4459 175.64C95.1499 175.64 94.3019 175.032 94.1739 173.896L92.3979 174.216C92.7019 176.36 94.7019 177.24 96.4939 177.24C98.2699 177.24 100.158 176.248 100.158 174.248C100.158 172.968 99.4059 172.104 97.7739 171.752L95.9499 171.352C95.0219 171.144 94.7019 170.696 94.7019 170.216C94.7019 169.544 95.3419 169.128 96.2539 169.128C97.3579 169.128 98.1739 169.528 98.2379 170.728L100.014 170.408C99.4859 168.344 98.0939 167.528 96.2379 167.528C94.7339 167.528 92.8459 168.36 92.8459 170.376Z" fill="#FF5B24"/>
<path d="M107.132 165.56L107.132 167.784L105.42 167.784L105.42 169.4L107.132 169.4L107.132 174.408C107.132 176.104 107.98 177.16 109.82 177.16C110.38 177.16 111.036 177.016 111.516 176.872L111.196 175.256C110.828 175.352 110.604 175.4 110.236 175.4C109.42 175.4 109.132 175.032 109.132 174.312L109.132 169.4L111.436 169.4L111.436 167.784L109.132 167.784L109.132 165.24L107.132 165.56Z" fill="#FF5B24"/>
<path d="M117.381 167.528C114.885 167.528 112.821 169.352 112.821 172.376C112.821 175.4 114.885 177.24 117.381 177.24C119.877 177.24 121.941 175.4 121.941 172.376C121.941 169.352 119.877 167.528 117.381 167.528ZM117.381 169.256C118.757 169.256 119.925 170.264 119.925 172.376C119.925 174.488 118.757 175.512 117.381 175.512C116.005 175.512 114.837 174.488 114.837 172.376C114.837 170.264 116.005 169.256 117.381 169.256Z" fill="#FF5B24"/>
<path d="M123.928 177L125.928 177L125.928 174.792L127.624 172.888L130.376 177L132.456 177L128.76 171.592L132.152 167.784L129.976 167.784L125.928 172.552L125.928 164.6L123.928 164.6L123.928 177Z" fill="#FF5B24"/>
<path d="M137.789 169.256C139.085 169.256 140.109 169.864 140.269 171.4L135.261 171.4C135.533 169.976 136.461 169.256 137.789 169.256ZM142.157 172.824L142.157 172.168C142.157 169.448 140.365 167.528 137.869 167.528C135.197 167.528 133.165 169.4 133.165 172.36C133.165 175.4 135.277 177.24 137.997 177.24C139.693 177.24 141.741 176.264 142.093 174.136L140.237 173.816C140.029 174.872 139.421 175.512 137.917 175.512C136.253 175.512 135.341 174.44 135.197 172.824L142.157 172.824Z" fill="#FF5B24"/>
<path d="M148.404 169.336C149.492 169.336 150.356 169.976 150.356 171.688L150.356 177L152.356 177L152.356 170.824C152.356 168.344 150.788 167.528 149.14 167.528C148.052 167.528 146.788 167.976 146.132 169.144L146.132 167.784L144.132 167.784L144.132 177L146.132 177L146.132 171.736C146.132 170.088 147.076 169.336 148.404 169.336Z" fill="#FF5B24"/>
<path d="M790 62C795.523 62 800 66.4772 800 72C800 77.5228 795.523 82 790 82C784.477 82 780 77.5228 780 72C780 66.4772 784.477 62 790 62Z" fill="white" stroke="#FF5B24" stroke-width="4"/>
<mask id="path-12-inside-1" fill="white">
<path fill-rule="evenodd" clip-rule="evenodd" d="M798 72C798 67.5817 794.418 64 790 64C785.582 64 782 67.5817 782 72C782 76.4183 785.582 80 790 80C794.418 80 798 76.4183 798 72ZM802 72C802 65.3726 796.627 60 790 60C783.373 60 778 65.3726 778 72C778 78.6274 783.373 84 790 84C796.627 84 802 78.6274 802 72Z"/>
</mask>
<path fill-rule="evenodd" clip-rule="evenodd" d="M798 72C798 67.5817 794.418 64 790 64C785.582 64 782 67.5817 782 72C782 76.4183 785.582 80 790 80C794.418 80 798 76.4183 798 72ZM802 72C802 65.3726 796.627 60 790 60C783.373 60 778 65.3726 778 72C778 78.6274 783.373 84 790 84C796.627 84 802 78.6274 802 72Z" fill="#FF5B24"/>
<path d="M790 68C792.209 68 794 69.7909 794 72L802 72C802 65.3726 796.627 60 790 60L790 68ZM786 72C786 69.7909 787.791 68 790 68L790 60C783.373 60 778 65.3726 778 72L786 72ZM790 76C787.791 76 786 74.2091 786 72L778 72C778 78.6274 783.373 84 790 84L790 76ZM794 72C794 74.2091 792.209 76 790 76L790 84C796.627 84 802 78.6274 802 72L794 72ZM790 64C794.418 64 798 67.5817 798 72L806 72C806 63.1634 798.837 56 790 56L790 64ZM782 72C782 67.5817 785.582 64 790 64L790 56C781.163 56 774 63.1634 774 72L782 72ZM790 80C785.582 80 782 76.4183 782 72L774 72C774 80.8366 781.163 88 790 88L790 80ZM798 72C798 76.4183 794.418 80 790 80L790 88C798.837 88 806 80.8366 806 72L798 72Z" fill="#FF5B24" mask="url(#path-12-inside-1)"/>
<path d="M434 62C439.523 62 444 66.4772 444 72C444 77.5228 439.523 82 434 82C428.477 82 424 77.5228 424 72C424 66.4772 428.477 62 434 62Z" fill="white" stroke="#FF5B24" stroke-width="4"/>
<path fill-rule="evenodd" clip-rule="evenodd" d="M442 72C442 67.5817 438.418 64 434 64C429.582 64 426 67.5817 426 72C426 76.4183 429.582 80 434 80C438.418 80 442 76.4183 442 72ZM446 72C446 65.3726 440.627 60 434 60C427.373 60 422 65.3726 422 72C422 78.6274 427.373 84 434 84C440.627 84 446 78.6274 446 72Z" fill="#FF5B24"/>
<path d="M256 62C261.523 62 266 66.4772 266 72C266 77.5228 261.523 82 256 82C250.477 82 246 77.5228 246 72C246 66.4772 250.477 62 256 62Z" fill="white" stroke="#FF5B24" stroke-width="4"/>
<path fill-rule="evenodd" clip-rule="evenodd" d="M264 72C264 67.5817 260.418 64 256 64C251.582 64 248 67.5817 248 72C248 76.4183 251.582 80 256 80C260.418 80 264 76.4183 264 72ZM268 72C268 65.3726 262.627 60 256 60C249.373 60 244 65.3726 244 72C244 78.6274 249.373 84 256 84C262.627 84 268 78.6274 268 72Z" fill="#FF5B24"/>
<path d="M77.5 62C83.3767 62 88 66.5533 88 72C88 77.4467 83.3767 82 77.5 82C71.6233 82 67 77.4467 67 72C67 66.5533 71.6233 62 77.5 62Z" fill="white" stroke="#FF5B24" stroke-width="4"/>
<path fill-rule="evenodd" clip-rule="evenodd" d="M86 72C86 67.734 82.3499 64 77.5 64C72.6501 64 69 67.734 69 72C69 76.266 72.6501 80 77.5 80C82.3499 80 86 76.266 86 72ZM90 72C90 65.3726 84.4036 60 77.5 60C70.5964 60 65 65.3726 65 72C65 78.6274 70.5964 84 77.5 84C84.4036 84 90 78.6274 90 72Z" fill="#FF5B24"/>
<path d="M1023.7 194.888C1023.7 225.714 998.714 250.705 967.887 250.705C937.06 250.705 912.07 225.714 912.07 194.888C912.07 164.061 937.06 139.071 967.887 139.071C998.714 139.071 1023.7 164.061 1023.7 194.888Z" fill="#EEEDF3"/>
<path fill-rule="evenodd" clip-rule="evenodd" d="M971.738 250.637C971.737 235.61 971.754 221.432 971.818 217.688C972.131 199.425 990.138 203.316 990.138 203.316L1011.98 217.688L1011.97 229.259C1002.49 241.415 988.075 249.541 971.738 250.637Z" fill="#FFD3BB"/>
<path d="M1007.38 229.405L975.099 229.264C971.992 229.251 969.483 226.72 969.496 223.613L969.78 158.535C969.794 155.428 972.325 152.919 975.432 152.933L1007.71 153.074C1010.82 153.087 1013.33 155.618 1013.32 158.725L1013.03 223.803C1013.02 226.91 1010.49 229.419 1007.38 229.405Z" fill="#FF5A23"/>
<path d="M1013.13 219.538L969.592 219.348L969.837 163.162L1013.37 163.352L1013.13 219.538Z" fill="#FF985F"/>
<path fill-rule="evenodd" clip-rule="evenodd" d="M993.53 183.533C992.726 183.272 992.287 182.409 992.548 181.605L993.881 177.503C994.142 176.699 995.005 176.259 995.809 176.52C996.612 176.781 997.052 177.645 996.791 178.448L995.458 182.551C995.197 183.354 994.334 183.794 993.53 183.533Z" fill="#FFF4EC"/>
<path fill-rule="evenodd" clip-rule="evenodd" d="M988.82 186.744C988.324 187.428 987.367 187.58 986.683 187.083L983.193 184.548C982.51 184.051 982.358 183.094 982.855 182.41C983.352 181.727 984.308 181.575 984.992 182.072L988.482 184.607C989.165 185.104 989.317 186.061 988.82 186.744Z" fill="#FFF4EC"/>
<path fill-rule="evenodd" clip-rule="evenodd" d="M995.732 191.657C995.134 192.255 995.134 193.223 995.732 193.821L998.782 196.871C999.379 197.468 1000.35 197.468 1000.95 196.871C1001.54 196.273 1001.54 195.305 1000.95 194.707L997.895 191.657C997.298 191.06 996.329 191.06 995.732 191.657Z" fill="#FFF4EC"/>
<path fill-rule="evenodd" clip-rule="evenodd" d="M990.648 190.905C990.152 190.222 989.195 190.07 988.511 190.567L985.022 193.102C984.338 193.599 984.186 194.556 984.683 195.239C985.18 195.923 986.137 196.074 986.82 195.578L990.31 193.042C990.993 192.546 991.145 191.589 990.648 190.905Z" fill="#FFF4EC"/>
<path fill-rule="evenodd" clip-rule="evenodd" d="M997.597 188.188C997.597 189.033 998.282 189.718 999.127 189.718L1003.44 189.718C1004.29 189.718 1004.97 189.033 1004.97 188.188C1004.97 187.343 1004.29 186.658 1003.44 186.658L999.127 186.658C998.282 186.658 997.597 187.343 997.597 188.188Z" fill="#FFF4EC"/>
<path d="M976.036 198.905L964.783 197.294C961.76 196.862 959.661 194.061 960.094 191.038C960.526 188.015 963.328 185.916 966.349 186.349L977.603 187.96C980.625 188.392 982.724 191.193 982.292 194.215C981.859 197.238 979.059 199.338 976.036 198.905Z" fill="#FFD3BB"/>
<path d="M974.699 209.22L963.446 207.609C960.423 207.176 958.324 204.375 958.757 201.353C959.189 198.33 961.99 196.231 965.012 196.664L976.266 198.275C979.288 198.707 981.387 201.508 980.955 204.53C980.523 207.553 977.722 209.652 974.699 209.22Z" fill="#FFD3BB"/>
<path d="M974.345 219.542L963.091 217.931C960.069 217.498 957.969 214.697 958.401 211.675C958.834 208.653 961.635 206.554 964.657 206.986L975.911 208.597C978.933 209.029 981.033 211.83 980.6 214.852C980.168 217.875 977.367 219.975 974.345 219.542Z" fill="#FFD3BB"/>
<path fill-rule="evenodd" clip-rule="evenodd" d="M1019.79 215.468C1017.75 220.611 1014.96 225.379 1011.57 229.639L1003.38 234.238L999.654 237.593C999.265 236.992 998.927 236.508 998.634 236.09C997.411 234.34 996.988 233.736 997.002 230.519C997.049 219.606 1005.93 210.797 1016.85 210.845L1019.79 215.468Z" fill="#FFD3BB"/>
<path fill-rule="evenodd" clip-rule="evenodd" d="M1003.58 237.738C1001.94 236.538 1001.29 234.363 1002.23 231.013C1004.44 223.108 1007.16 220.133 1010.39 218.178C1013.62 216.223 1013.11 211.038 1013.11 211.038C1013.11 211.038 1009.28 205.938 1009.37 200.668C1009.38 199.9 1009.38 199.124 1009.39 198.352C1009.41 193.816 1009.43 189.384 1011.15 187.408C1012.85 185.453 1015.49 184.093 1018.29 184.858C1021.1 185.623 1022.57 188.337 1022.37 190.638C1022.29 191.576 1022.14 192.464 1021.98 193.36C1021.63 195.303 1021.28 197.284 1021.69 199.903C1021.98 201.741 1022.45 202.876 1023.01 203.947C1020.78 217.469 1013.68 229.35 1003.58 237.738Z" fill="#FFD3BB"/>
<path d="M667.817 71.0566C667.817 101.883 642.827 126.873 612 126.873C581.173 126.873 556.183 101.883 556.183 71.0566C556.183 40.2292 581.173 15.2395 612 15.2395C642.827 15.2395 667.817 40.2292 667.817 71.0566Z" fill="#EEEDF3"/>
<path d="M638.733 100.251H612.531C609.197 100.251 606.496 97.5484 606.496 94.2159V39.1815C606.496 35.8484 609.197 33.1465 612.531 33.1465H638.733C642.065 33.1465 644.768 35.8484 644.768 39.1815V94.2159C644.768 97.5484 642.065 100.251 638.733 100.251Z" fill="#FF5B23"/>
<path d="M644.768 91.4264H606.496V42.0317H644.768V91.4264Z" fill="#FF975E"/>
<path d="M624.031 74.4223L563.093 101.856L575.046 126.844L602.606 102.477C602.752 102.342 624.212 74.3395 624.031 74.4223Z" fill="#48367D"/>
<path d="M625.016 73.6582L579.01 108.093L605.099 117.073C606.345 117.502 607.725 117.078 608.517 116.024L625.511 74.3477C625.957 73.7896 625.298 73.4744 625.016 73.6582Z" fill="#C8C5D6"/>
<path d="M579.01 108.093L575.045 126.845L594.358 113.377L579.01 108.093Z" fill="white"/>
<path d="M625.091 73.6311L545.43 93.2289C543.997 93.6496 543.969 95.6703 545.391 96.1305L563.094 101.858L625.335 74.0039C625.486 73.9348 625.533 73.5498 625.091 73.6311Z" fill="#C8C5D6"/>
<path d="M1201.7 70.8884C1201.7 101.715 1176.71 126.706 1145.89 126.706C1115.06 126.706 1090.07 101.715 1090.07 70.8884C1090.07 40.0616 1115.06 15.0713 1145.89 15.0713C1176.71 15.0713 1201.7 40.0616 1201.7 70.8884Z" fill="#EEEDF3"/>
<path fill-rule="evenodd" clip-rule="evenodd" d="M1152.3 126.339C1152.29 106.014 1152.3 83.6005 1152.39 78.5063C1152.73 58.1348 1172.82 62.4751 1172.82 62.4751L1197.18 78.5063L1197.17 92.9475C1189.43 110.93 1172.5 124.028 1152.3 126.339Z" fill="#FFD3BB"/>
<path d="M1189.94 84.3796L1154.6 91.3011C1151.2 91.9673 1147.9 89.7493 1147.23 86.348L1133.28 15.1105C1132.61 11.7086 1134.83 8.41067 1138.23 7.74445L1173.57 0.822899C1176.97 0.156562 1180.27 2.37407 1180.94 5.77601L1194.89 77.0135C1195.55 80.4148 1193.34 83.7132 1189.94 84.3796Z" fill="#FF5A23"/>
<path d="M1194.06 72.3245L1146.4 81.659L1134.35 20.1543L1182.01 10.8198L1194.06 72.3245Z" fill="#FF985F"/>
<path d="M1152.92 58.002L1148.12 33.4678C1148.09 33.2919 1148.11 33.1117 1148.19 32.9668L1152.27 25.5526C1152.35 25.4079 1152.47 25.3105 1152.62 25.2816L1170.19 21.8409C1171.07 21.6691 1171.95 22.3809 1172.15 23.4291L1177.96 53.098C1178.17 54.1469 1177.62 55.1368 1176.75 55.3085L1154.88 59.5908C1154 59.7625 1153.12 59.051 1152.92 58.002Z" fill="#EEEDF3"/>
<path d="M1148.3 31.728L1151.37 26.1505C1151.6 25.7252 1151.97 25.4374 1152.4 25.3274L1153.47 30.8212C1153.61 31.5203 1153.25 32.1798 1152.66 32.2943L1148.07 33.1936C1147.99 32.6759 1148.07 32.1533 1148.3 31.728Z" fill="#C8C5D6"/>
<path fill-rule="evenodd" clip-rule="evenodd" d="M1169.74 33.4412C1170.2 33.6556 1170.41 34.2056 1170.19 34.6697L1163.98 48.1125C1163.88 48.3361 1163.69 48.5093 1163.46 48.5938C1163.23 48.6783 1162.97 48.6671 1162.75 48.5627L1157.13 45.9306C1156.66 45.7139 1156.46 45.1629 1156.68 44.6998C1156.9 44.2368 1157.45 44.0372 1157.91 44.2539L1162.69 46.4916L1168.51 33.8934C1168.73 33.4293 1169.28 33.2268 1169.74 33.4412Z" fill="#48367D"/>
<path d="M1146.45 60.7301L1133.81 61.7131C1130.42 61.9776 1127.45 59.4392 1127.19 56.0435C1126.92 52.6478 1129.46 49.6813 1132.86 49.4178L1145.5 48.434C1148.89 48.1691 1151.86 50.7081 1152.12 54.1031C1152.39 57.4994 1149.85 60.4656 1146.45 60.7301Z" fill="#FFD3BB"/>
<path d="M1147.51 72.2838L1134.87 73.2668C1131.47 73.5313 1128.5 70.9929 1128.24 67.5972C1127.97 64.2009 1130.51 61.2353 1133.91 60.9709L1146.55 59.9878C1149.95 59.7228 1152.91 62.2618 1153.18 65.6568C1153.44 69.0525 1150.9 72.0193 1147.51 72.2838Z" fill="#FFD3BB"/>
<path d="M1149.63 83.607L1136.99 84.5908C1133.59 84.8543 1130.63 82.3163 1130.36 78.9211C1130.1 75.5253 1132.64 72.5591 1136.03 72.2948L1148.68 71.3116C1152.07 71.0467 1155.04 73.5856 1155.3 76.9806C1155.57 80.3763 1153.03 83.3433 1149.63 83.607Z" fill="#FFD3BB"/>
<path fill-rule="evenodd" clip-rule="evenodd" d="M1194.33 98.6382C1193.52 98.9524 1192.65 99.2548 1191.71 99.533C1184.98 101.524 1174.93 92.8013 1174.93 92.8013C1174.93 92.8013 1175.21 89.1984 1175.69 85.3111C1176.16 81.4237 1178.63 77.9156 1179.86 76.7779C1174.93 75.7349 1171.42 74.0283 1168.86 70.615C1166.2 67.0735 1164.31 63.9781 1163.83 58.4789C1163.36 52.9797 1165.35 50.9886 1167.72 49.8509C1170.09 48.7131 1172.18 49.282 1174.45 50.4198C1176.22 51.3051 1177.27 54.6941 1177.49 57.1515C1177.77 60.3752 1178.5 61.1631 1179.95 62.5559C1181.07 63.628 1183.46 63.5988 1185.07 63.4092C1186.68 63.2196 1188.15 63.3051 1190.95 63.9781C1193.32 64.5469 1195.69 66.1588 1197.68 68.8135C1199.85 71.7041 1200.57 75.2107 1201.05 79.4687C1199.99 86.3547 1197.66 92.8254 1194.33 98.6382Z" fill="#FFD3BB"/>
<path d="M1380.82 71.0573C1380.82 101.884 1355.83 126.874 1325 126.874C1294.17 126.874 1269.18 101.884 1269.18 71.0573C1269.18 40.2306 1294.17 15.2402 1325 15.2402C1355.83 15.2402 1380.82 40.2306 1380.82 71.0573Z" fill="#EEEDF3"/>
<path d="M1285.71 47.1671C1284.02 44.2396 1282.33 41.3151 1280.65 38.3815C1278.47 34.5647 1280.62 29.9168 1284.94 29.0978C1285.31 29.0275 1285.69 29 1286.07 29C1290.59 29.0031 1295.11 29 1299.63 29C1304.46 29 1307.46 34.1094 1305.08 38.3112C1303.46 41.1898 1301.78 44.041 1300.13 46.9043C1300.08 46.9868 1300.04 47.0785 1300 47.164C1296.11 47.1671 1292.23 47.1702 1288.35 47.1732C1287.47 47.1763 1286.59 47.1702 1285.71 47.1671Z" fill="#FF985F"/>
<path d="M1285.71 47.1733C1286.59 47.1764 1287.47 47.1856 1288.35 47.1856C1292.24 47.1825 1296.12 47.1795 1300 47.1764C1300.23 47.1795 1300.47 47.1856 1300.7 47.1856C1301.77 47.1917 1302.58 47.9709 1302.59 49.0069C1302.6 50.0153 1301.8 50.822 1300.75 50.8526C1300.68 50.8557 1300.61 50.8587 1300.53 50.8648C1297.87 50.8618 1295.2 50.8557 1292.54 50.8526C1291.94 50.8526 1291.34 50.8679 1290.74 50.8465C1290.46 50.8373 1290.39 50.9229 1290.39 51.1979C1290.41 52.5425 1290.4 53.8871 1290.4 55.2316C1290.4 58.5809 1290.4 61.9301 1290.4 65.2793C1290.39 66.7523 1288.94 67.6598 1287.69 66.9784C1287 66.6056 1286.71 65.9883 1286.71 65.2182C1286.71 60.9644 1286.71 56.7107 1286.71 52.4569C1286.71 52.0291 1286.7 51.6013 1286.71 51.1735C1286.72 50.9473 1286.66 50.8373 1286.41 50.8495C1286 50.8709 1285.58 50.8618 1285.16 50.8648C1284 50.819 1283.27 50.2384 1283.14 49.2574C1282.99 48.1757 1283.81 47.2131 1284.9 47.1886C1285.18 47.1795 1285.45 47.1764 1285.71 47.1733Z" fill="#FD5B24"/>
<path d="M1322.19 78.1719C1321.01 71.7821 1318.05 66.3335 1313.3 61.9147C1310.32 59.1461 1307.15 56.5914 1304.07 53.9267C1302.89 52.903 1301.71 51.8793 1300.53 50.8555C1297.87 50.8525 1295.2 50.8494 1292.54 50.8403C1291.94 50.8403 1291.34 50.8555 1290.74 50.8342C1290.47 50.825 1290.39 50.9105 1290.39 51.1856C1290.41 52.5302 1290.4 53.8747 1290.4 55.2193C1290.4 58.5685 1290.4 61.9178 1290.4 65.267C1290.39 66.7399 1288.94 67.6475 1287.69 66.966C1286.99 66.5932 1286.71 65.979 1286.71 65.2059C1286.71 60.9521 1286.71 56.6984 1286.71 52.4446C1286.71 52.0168 1286.7 51.5889 1286.71 51.1611C1286.72 50.935 1286.66 50.825 1286.41 50.8372C1286 50.8586 1285.58 50.8494 1285.16 50.8525C1285.1 50.9228 1285.04 50.9961 1284.96 51.0603C1281.92 53.6792 1278.87 56.295 1275.82 58.92C1274.08 60.4296 1272.27 61.875 1270.72 63.5985C1266.35 68.4573 1263.84 74.1443 1263.16 80.6349C1262.82 83.8283 1263.02 87.0003 1263.73 90.1356C1265.05 95.9784 1267.83 101.011 1272.26 105.06C1278.49 110.757 1285.89 113.299 1294.3 112.972C1298.78 112.798 1303.02 111.679 1307 109.601C1312.58 106.683 1316.84 102.432 1319.63 96.7729C1322.54 90.869 1323.37 84.6442 1322.19 78.1719Z" fill="#FF985F"/>
<path d="M1286.24 87.8125H1288.37V85.6567L1289.57 84.2145L1291.97 87.8125H1294.33L1290.84 82.6963L1293.86 79.068H1291.46L1288.37 83.1062V76.0469H1286.24V87.8125Z" fill="#FFF4EC"/>
<path d="M1299.28 81.2086C1299.59 81.2086 1299.95 81.2845 1300.29 81.4059L1300.42 78.9465C1300.22 78.8706 1299.98 78.8251 1299.75 78.8251C1298.92 78.8251 1297.89 79.2502 1297.2 80.9201V79.068H1295.06V87.8125H1297.2V83.5313C1297.2 81.664 1298.27 81.2086 1299.28 81.2086Z" fill="#FFF4EC"/>
<path fill-rule="evenodd" clip-rule="evenodd" d="M1325 126.875C1355.83 126.875 1380.82 101.885 1380.82 71.0583C1380.82 69.6281 1380.76 68.2105 1380.66 66.8074H1306.9C1304.32 66.8074 1302.22 68.9035 1302.22 71.4898V122.03C1309.18 125.144 1316.89 126.875 1325 126.875Z" fill="#C8C5D6"/>
<path fill-rule="evenodd" clip-rule="evenodd" d="M1380.33 78.4852C1380.65 76.0555 1380.82 73.5764 1380.82 71.0583C1380.82 69.6281 1380.76 68.2105 1380.66 66.8074H1307.07C1304.39 66.8074 1302.22 68.9784 1302.22 71.6568V78.4852H1380.33Z" fill="#48367D"/>
<path d="M1314.35 72.6925C1314.35 74.0317 1313.27 75.1172 1311.93 75.1172C1310.59 75.1172 1309.5 74.0317 1309.5 72.6925C1309.5 71.3534 1310.59 70.2678 1311.93 70.2678C1313.27 70.2678 1314.35 71.3534 1314.35 72.6925Z" fill="white"/>
<path d="M1322.31 72.6469C1322.31 73.986 1321.23 75.0716 1319.89 75.0716C1318.55 75.0716 1317.46 73.986 1317.46 72.6469C1317.46 71.3077 1318.55 70.2222 1319.89 70.2222C1321.23 70.2222 1322.31 71.3077 1322.31 72.6469Z" fill="white"/>
<path d="M1330.4 72.6469C1330.4 73.986 1329.31 75.0716 1327.97 75.0716C1326.63 75.0716 1325.55 73.986 1325.55 72.6469C1325.55 71.3077 1326.63 70.2222 1327.97 70.2222C1329.31 70.2222 1330.4 71.3077 1330.4 72.6469Z" fill="white"/>
</g>
<defs>
<clipPath id="clip0">
<rect width="1381" height="320" fill="white"/>
</clipPath>
</defs>
</svg>
