<svg width="243" height="591" viewBox="0 0 243 591" fill="none" xmlns="http://www.w3.org/2000/svg">
<g clip-path="url(#clip0)">
<line x1="40" y1="400.25" x2="103" y2="400.25" stroke="#49367E" stroke-width="1.5" stroke-dasharray="4 4"/>
<line x1="40.75" y1="20" x2="40.75" y2="527" stroke="#FF5B24" stroke-width="1.5"/>
<path d="M99.056 243L99.056 252L100.628 252L100.628 243L99.056 243ZM102.496 245.412C102.496 248.88 107.476 247.74 107.476 249.648C107.476 250.332 106.948 250.788 105.928 250.788C104.956 250.788 103.84 250.464 103.684 248.928L102.136 249.288C102.376 251.22 104.08 252.18 105.88 252.18C107.476 252.18 109.048 251.268 109.048 249.552C109.048 246.192 104.092 247.416 104.092 245.352C104.092 244.644 104.632 244.212 105.556 244.212C106.36 244.212 107.26 244.572 107.332 245.82L108.916 245.46C108.652 243.6 107.044 242.82 105.628 242.82C104.056 242.82 102.496 243.684 102.496 245.412ZM112.194 244.404L113.802 244.404C114.822 244.404 115.398 245.004 115.398 246.12C115.398 247.176 114.822 247.776 113.778 247.776L112.194 247.776L112.194 244.404ZM110.622 243L110.622 252L112.194 252L112.194 249.18L113.934 249.18C115.854 249.18 117.078 247.836 117.078 246.096C117.078 244.08 115.926 243 113.922 243L110.622 243ZM121.703 247.032C121.703 247.992 122.255 248.7 123.431 248.952L124.691 249.228C125.555 249.42 125.795 249.672 125.795 250.08C125.795 250.656 125.231 250.98 124.403 250.98C123.431 250.98 122.795 250.524 122.699 249.672L121.367 249.912C121.595 251.52 123.095 252.18 124.439 252.18C125.771 252.18 127.187 251.436 127.187 249.936C127.187 248.976 126.623 248.328 125.399 248.064L124.031 247.764C123.335 247.608 123.095 247.272 123.095 246.912C123.095 246.408 123.575 246.096 124.259 246.096C125.087 246.096 125.699 246.396 125.747 247.296L127.079 247.056C126.683 245.508 125.639 244.896 124.247 244.896C123.119 244.896 121.703 245.52 121.703 247.032ZM131.691 246.192C132.663 246.192 133.431 246.648 133.551 247.8L129.795 247.8C129.999 246.732 130.695 246.192 131.691 246.192ZM134.967 248.868L134.967 248.376C134.967 246.336 133.623 244.896 131.751 244.896C129.747 244.896 128.223 246.3 128.223 248.52C128.223 250.8 129.807 252.18 131.847 252.18C133.119 252.18 134.655 251.448 134.919 249.852L133.527 249.612C133.371 250.404 132.915 250.884 131.787 250.884C130.539 250.884 129.855 250.08 129.747 248.868L134.967 248.868ZM139.652 246.252C140.468 246.252 141.116 246.732 141.116 248.016L141.116 252L142.616 252L142.616 247.368C142.616 245.508 141.44 244.896 140.204 244.896C139.388 244.896 138.44 245.232 137.948 246.108L137.948 245.088L136.448 245.088L136.448 252L137.948 252L137.948 248.052C137.948 246.816 138.656 246.252 139.652 246.252ZM150.968 242.7L149.468 242.7L149.468 246.444C148.976 245.352 148.232 244.896 147.296 244.896C145.688 244.896 144.092 246.06 144.092 248.472C144.092 251.004 145.7 252.18 147.104 252.18C148.364 252.18 149.12 251.52 149.468 250.692L149.468 252L150.968 252L150.968 242.7ZM147.548 246.192C148.556 246.192 149.468 246.996 149.468 248.556C149.468 250.164 148.556 250.872 147.536 250.872C146.588 250.872 145.604 250.128 145.604 248.556C145.604 246.96 146.6 246.192 147.548 246.192ZM152.746 247.032C152.746 247.992 153.298 248.7 154.474 248.952L155.734 249.228C156.598 249.42 156.838 249.672 156.838 250.08C156.838 250.656 156.274 250.98 155.446 250.98C154.474 250.98 153.838 250.524 153.742 249.672L152.41 249.912C152.638 251.52 154.138 252.18 155.482 252.18C156.814 252.18 158.23 251.436 158.23 249.936C158.23 248.976 157.666 248.328 156.442 248.064L155.074 247.764C154.378 247.608 154.138 247.272 154.138 246.912C154.138 246.408 154.618 246.096 155.302 246.096C156.13 246.096 156.742 246.396 156.79 247.296L158.122 247.056C157.726 245.508 156.682 244.896 155.29 244.896C154.162 244.896 152.746 245.52 152.746 247.032ZM162.933 245.088L162.933 252L164.433 252L164.433 245.088L162.933 245.088ZM163.677 242.1C163.173 242.1 162.777 242.508 162.777 243C162.777 243.492 163.173 243.9 163.677 243.9C164.181 243.9 164.577 243.492 164.577 243C164.577 242.508 164.181 242.1 163.677 242.1ZM169.559 246.252C170.375 246.252 171.023 246.732 171.023 248.016L171.023 252L172.523 252L172.523 247.368C172.523 245.508 171.347 244.896 170.111 244.896C169.295 244.896 168.347 245.232 167.855 246.108L167.855 245.088L166.355 245.088L166.355 252L167.855 252L167.855 248.052C167.855 246.816 168.563 246.252 169.559 246.252ZM180.502 245.088L178.834 245.088L177.058 250.308L175.27 245.088L173.602 245.088L176.362 252L177.742 252L180.502 245.088ZM184.636 244.896C182.763 244.896 181.215 246.264 181.215 248.532C181.215 250.8 182.763 252.18 184.635 252.18C186.507 252.18 188.055 250.8 188.055 248.532C188.055 246.264 186.507 244.896 184.636 244.896ZM184.635 246.192C185.667 246.192 186.543 246.948 186.543 248.532C186.543 250.116 185.667 250.884 184.635 250.884C183.603 250.884 182.727 250.116 182.727 248.532C182.727 246.948 183.603 246.192 184.635 246.192ZM189.546 245.088L189.546 252L191.046 252L191.046 245.088L189.546 245.088ZM190.29 242.1C189.786 242.1 189.39 242.508 189.39 243C189.39 243.492 189.786 243.9 190.29 243.9C190.794 243.9 191.19 243.492 191.19 243C191.19 242.508 190.794 242.1 190.29 242.1ZM199.352 247.776C199.1 245.916 197.624 244.896 196.016 244.896C194.036 244.896 192.536 246.3 192.536 248.532C192.536 250.668 194.012 252.18 196.124 252.18C197.456 252.18 199.016 251.448 199.34 249.336L197.972 249.096C197.816 250.272 197.168 250.872 196.112 250.872C194.708 250.872 194.048 249.804 194.048 248.532C194.048 246.996 194.888 246.192 195.944 246.192C196.904 246.192 197.708 246.708 197.876 248.016L199.352 247.776ZM203.797 246.192C204.769 246.192 205.537 246.648 205.657 247.8L201.901 247.8C202.105 246.732 202.801 246.192 203.797 246.192ZM207.073 248.868L207.073 248.376C207.073 246.336 205.729 244.896 203.857 244.896C201.853 244.896 200.329 246.3 200.329 248.52C200.329 250.8 201.913 252.18 203.953 252.18C205.225 252.18 206.761 251.448 207.025 249.852L205.633 249.612C205.477 250.404 205.021 250.884 203.893 250.884C202.645 250.884 201.961 250.08 201.853 248.868L207.073 248.868Z" fill="#FF5B24"/>
<path d="M107.432 475.216C107.072 473.008 105.176 471.82 103.292 471.82C100.724 471.82 98.6 473.68 98.6 476.44C98.6 479.392 100.748 481.18 103.328 481.18C105.068 481.18 107.24 480.016 107.504 477.544L105.884 477.304C105.752 479.092 104.528 479.644 103.328 479.644C101.624 479.644 100.292 478.672 100.292 476.44C100.292 474.412 101.624 473.356 103.232 473.356C104.336 473.356 105.548 473.812 105.812 475.456L107.432 475.216ZM115.194 481L115.194 474.088L113.694 474.088L113.694 478.108C113.694 479.284 112.914 479.824 111.906 479.824C110.982 479.824 110.526 479.416 110.526 478.348L110.526 474.088L109.026 474.088L109.026 478.912C109.026 480.508 110.178 481.18 111.33 481.18C112.194 481.18 113.154 480.784 113.694 479.836L113.694 481L115.194 481ZM116.945 476.032C116.945 476.992 117.497 477.7 118.673 477.952L119.933 478.228C120.797 478.42 121.037 478.672 121.037 479.08C121.037 479.656 120.473 479.98 119.645 479.98C118.673 479.98 118.037 479.524 117.941 478.672L116.609 478.912C116.837 480.52 118.337 481.18 119.681 481.18C121.013 481.18 122.429 480.436 122.429 478.936C122.429 477.976 121.865 477.328 120.641 477.064L119.273 476.764C118.577 476.608 118.337 476.272 118.337 475.912C118.337 475.408 118.817 475.096 119.501 475.096C120.329 475.096 120.941 475.396 120.989 476.296L122.321 476.056C121.925 474.508 120.881 473.896 119.489 473.896C118.361 473.896 116.945 474.52 116.945 476.032ZM124.425 472.42L124.425 474.088L123.141 474.088L123.141 475.3L124.425 475.3L124.425 479.056C124.425 480.328 125.061 481.12 126.441 481.12C126.861 481.12 127.353 481.012 127.713 480.904L127.473 479.692C127.197 479.764 127.029 479.8 126.753 479.8C126.141 479.8 125.925 479.524 125.925 478.984L125.925 475.3L127.653 475.3L127.653 474.088L125.925 474.088L125.925 472.18L124.425 472.42ZM132.112 473.896C130.24 473.896 128.692 475.264 128.692 477.532C128.692 479.8 130.24 481.18 132.112 481.18C133.984 481.18 135.532 479.8 135.532 477.532C135.532 475.264 133.984 473.896 132.112 473.896ZM132.112 475.192C133.144 475.192 134.02 475.948 134.02 477.532C134.02 479.116 133.144 479.884 132.112 479.884C131.08 479.884 130.204 479.116 130.204 477.532C130.204 475.948 131.08 475.192 132.112 475.192ZM144.666 475.252C145.518 475.252 146.166 475.732 146.166 477.016L146.166 481L147.666 481L147.666 476.368C147.666 474.508 146.526 473.896 145.266 473.896C144.498 473.896 143.526 474.208 143.01 475.24C142.638 474.256 141.762 473.896 140.838 473.896C140.01 473.896 139.014 474.22 138.522 475.108L138.522 474.088L137.022 474.088L137.022 481L138.522 481L138.522 477.052C138.522 475.816 139.23 475.252 140.19 475.252C141.042 475.252 141.69 475.732 141.69 477.016L141.69 481L143.19 481L143.19 477.052C143.19 475.816 143.814 475.252 144.666 475.252ZM152.562 475.192C153.534 475.192 154.302 475.648 154.422 476.8L150.666 476.8C150.87 475.732 151.566 475.192 152.562 475.192ZM155.838 477.868L155.838 477.376C155.838 475.336 154.494 473.896 152.622 473.896C150.618 473.896 149.094 475.3 149.094 477.52C149.094 479.8 150.678 481.18 152.718 481.18C153.99 481.18 155.526 480.448 155.79 478.852L154.398 478.612C154.242 479.404 153.786 479.884 152.658 479.884C151.41 479.884 150.726 479.08 150.618 477.868L155.838 477.868ZM160.631 475.516C161.003 475.516 161.267 475.564 161.531 475.672L161.675 473.992C161.531 473.92 161.327 473.896 161.147 473.896C160.463 473.896 159.383 474.292 158.819 475.744L158.819 474.088L157.319 474.088L157.319 481L158.819 481L158.819 477.976C158.819 476.056 159.659 475.516 160.631 475.516ZM168.69 481.18C169.926 481.18 170.682 480.424 171.03 479.572L171.03 481L172.53 481L172.53 474.088L171.03 474.088L171.03 475.444C170.538 474.352 169.782 473.896 168.702 473.896C167.25 473.896 165.654 475.06 165.654 477.472C165.654 480.004 167.262 481.18 168.69 481.18ZM169.11 475.192C170.118 475.192 171.03 475.96 171.03 477.556C171.03 479.2 170.118 479.872 169.098 479.872C168.15 479.872 167.166 479.164 167.166 477.556C167.166 475.924 168.162 475.192 169.11 475.192ZM178.292 473.896C177.116 473.896 176.396 474.64 175.952 475.444L175.952 474.088L174.452 474.088L174.452 483.4L175.952 483.4L175.952 479.692C176.528 480.676 177.272 481.18 178.148 481.18C179.756 481.18 181.328 479.956 181.328 477.436C181.328 475.024 179.696 473.896 178.292 473.896ZM177.884 475.192C178.832 475.192 179.816 475.948 179.816 477.52C179.816 479.116 178.832 479.872 177.872 479.872C176.864 479.872 175.952 479.056 175.952 477.52C175.952 475.912 176.864 475.192 177.884 475.192ZM186.706 473.896C185.53 473.896 184.81 474.64 184.366 475.444L184.366 474.088L182.866 474.088L182.866 483.4L184.366 483.4L184.366 479.692C184.942 480.676 185.686 481.18 186.562 481.18C188.17 481.18 189.742 479.956 189.742 477.436C189.742 475.024 188.11 473.896 186.706 473.896ZM186.298 475.192C187.246 475.192 188.23 475.948 188.23 477.52C188.23 479.116 187.246 479.872 186.286 479.872C185.278 479.872 184.366 479.056 184.366 477.52C184.366 475.912 185.278 475.192 186.298 475.192ZM194.592 475.516C194.964 475.516 195.228 475.564 195.492 475.672L195.636 473.992C195.492 473.92 195.288 473.896 195.108 473.896C194.424 473.896 193.344 474.292 192.78 475.744L192.78 474.088L191.28 474.088L191.28 481L192.78 481L192.78 477.976C192.78 476.056 193.62 475.516 194.592 475.516ZM199.753 473.896C197.881 473.896 196.333 475.264 196.333 477.532C196.333 479.8 197.881 481.18 199.753 481.18C201.625 481.18 203.173 479.8 203.173 477.532C203.173 475.264 201.625 473.896 199.753 473.896ZM199.753 475.192C200.785 475.192 201.661 475.948 201.661 477.532C201.661 479.116 200.785 479.884 199.753 479.884C198.721 479.884 197.845 479.116 197.845 477.532C197.845 475.948 198.721 475.192 199.753 475.192ZM210.783 474.088L209.115 474.088L207.339 479.308L205.551 474.088L203.883 474.088L206.643 481L208.023 481L210.783 474.088ZM214.965 475.192C215.937 475.192 216.705 475.648 216.825 476.8L213.069 476.8C213.273 475.732 213.969 475.192 214.965 475.192ZM218.241 477.868L218.241 477.376C218.241 475.336 216.897 473.896 215.025 473.896C213.021 473.896 211.497 475.3 211.497 477.52C211.497 479.8 213.081 481.18 215.121 481.18C216.393 481.18 217.929 480.448 218.193 478.852L216.801 478.612C216.645 479.404 216.189 479.884 215.061 479.884C213.813 479.884 213.129 479.08 213.021 477.868L218.241 477.868ZM219.578 476.032C219.578 476.992 220.13 477.7 221.306 477.952L222.566 478.228C223.43 478.42 223.67 478.672 223.67 479.08C223.67 479.656 223.106 479.98 222.278 479.98C221.306 479.98 220.67 479.524 220.574 478.672L219.242 478.912C219.47 480.52 220.97 481.18 222.314 481.18C223.646 481.18 225.062 480.436 225.062 478.936C225.062 477.976 224.498 477.328 223.274 477.064L221.906 476.764C221.21 476.608 220.97 476.272 220.97 475.912C220.97 475.408 221.45 475.096 222.134 475.096C222.962 475.096 223.574 475.396 223.622 476.296L224.954 476.056C224.558 474.508 223.514 473.896 222.122 473.896C220.994 473.896 219.578 474.52 219.578 476.032Z" fill="#FF5B24"/>
<path d="M105.764 20.616L105.752 20.712C105.608 21.852 104.684 22.644 103.268 22.644C101.78 22.644 100.292 21.756 100.292 19.536C100.292 17.424 101.528 16.356 103.184 16.356C104.444 16.356 105.512 16.836 105.716 18.336L107.3 18.096C106.952 15.588 104.78 14.82 103.28 14.82C100.592 14.82 98.6 16.752 98.6 19.536C98.6 22.2 100.556 24.18 102.836 24.18C104.288 24.18 105.32 23.28 105.8 22.32L105.812 22.32L106.088 24L107.42 24L107.42 19.2L103.4 19.2L103.4 20.616L105.764 20.616ZM112.391 18.192C113.363 18.192 114.131 18.648 114.251 19.8L110.495 19.8C110.699 18.732 111.395 18.192 112.391 18.192ZM115.667 20.868L115.667 20.376C115.667 18.336 114.323 16.896 112.451 16.896C110.447 16.896 108.923 18.3 108.923 20.52C108.923 22.8 110.507 24.18 112.547 24.18C113.819 24.18 115.355 23.448 115.619 21.852L114.227 21.612C114.071 22.404 113.615 22.884 112.487 22.884C111.239 22.884 110.555 22.08 110.447 20.868L115.667 20.868ZM117.675 15.42L117.675 17.088L116.391 17.088L116.391 18.3L117.675 18.3L117.675 22.056C117.675 23.328 118.311 24.12 119.691 24.12C120.111 24.12 120.603 24.012 120.963 23.904L120.723 22.692C120.447 22.764 120.279 22.8 120.003 22.8C119.391 22.8 119.175 22.524 119.175 21.984L119.175 18.3L120.903 18.3L120.903 17.088L119.175 17.088L119.175 15.18L117.675 15.42ZM128.26 24.18C129.496 24.18 130.252 23.424 130.6 22.572L130.6 24L132.1 24L132.1 17.088L130.6 17.088L130.6 18.444C130.108 17.352 129.352 16.896 128.272 16.896C126.82 16.896 125.224 18.06 125.224 20.472C125.224 23.004 126.832 24.18 128.26 24.18ZM128.68 18.192C129.688 18.192 130.6 18.96 130.6 20.556C130.6 22.2 129.688 22.872 128.668 22.872C127.72 22.872 126.736 22.164 126.736 20.556C126.736 18.924 127.732 18.192 128.68 18.192ZM140.406 19.776C140.154 17.916 138.678 16.896 137.07 16.896C135.09 16.896 133.59 18.3 133.59 20.532C133.59 22.668 135.066 24.18 137.178 24.18C138.51 24.18 140.07 23.448 140.394 21.336L139.026 21.096C138.87 22.272 138.222 22.872 137.166 22.872C135.762 22.872 135.102 21.804 135.102 20.532C135.102 18.996 135.942 18.192 136.998 18.192C137.958 18.192 138.762 18.708 138.93 20.016L140.406 19.776ZM148.199 19.776C147.947 17.916 146.471 16.896 144.863 16.896C142.883 16.896 141.383 18.3 141.383 20.532C141.383 22.668 142.859 24.18 144.971 24.18C146.303 24.18 147.863 23.448 148.187 21.336L146.819 21.096C146.663 22.272 146.015 22.872 144.959 22.872C143.555 22.872 142.895 21.804 142.895 20.532C142.895 18.996 143.735 18.192 144.791 18.192C145.751 18.192 146.555 18.708 146.723 20.016L148.199 19.776ZM152.644 18.192C153.616 18.192 154.384 18.648 154.504 19.8L150.748 19.8C150.952 18.732 151.648 18.192 152.644 18.192ZM155.92 20.868L155.92 20.376C155.92 18.336 154.576 16.896 152.704 16.896C150.7 16.896 149.176 18.3 149.176 20.52C149.176 22.8 150.76 24.18 152.8 24.18C154.072 24.18 155.608 23.448 155.872 21.852L154.48 21.612C154.324 22.404 153.868 22.884 152.74 22.884C151.492 22.884 150.808 22.08 150.7 20.868L155.92 20.868ZM157.257 19.032C157.257 19.992 157.809 20.7 158.985 20.952L160.245 21.228C161.109 21.42 161.349 21.672 161.349 22.08C161.349 22.656 160.785 22.98 159.957 22.98C158.985 22.98 158.349 22.524 158.253 21.672L156.921 21.912C157.149 23.52 158.649 24.18 159.993 24.18C161.325 24.18 162.741 23.436 162.741 21.936C162.741 20.976 162.177 20.328 160.953 20.064L159.585 19.764C158.889 19.608 158.649 19.272 158.649 18.912C158.649 18.408 159.129 18.096 159.813 18.096C160.641 18.096 161.253 18.396 161.301 19.296L162.633 19.056C162.237 17.508 161.193 16.896 159.801 16.896C158.673 16.896 157.257 17.52 157.257 19.032ZM164.066 19.032C164.066 19.992 164.618 20.7 165.794 20.952L167.054 21.228C167.918 21.42 168.158 21.672 168.158 22.08C168.158 22.656 167.594 22.98 166.766 22.98C165.794 22.98 165.158 22.524 165.062 21.672L163.73 21.912C163.958 23.52 165.458 24.18 166.802 24.18C168.134 24.18 169.55 23.436 169.55 21.936C169.55 20.976 168.986 20.328 167.762 20.064L166.394 19.764C165.698 19.608 165.458 19.272 165.458 18.912C165.458 18.408 165.938 18.096 166.622 18.096C167.45 18.096 168.062 18.396 168.11 19.296L169.442 19.056C169.046 17.508 168.002 16.896 166.61 16.896C165.482 16.896 164.066 17.52 164.066 19.032ZM174.781 15.42L174.781 17.088L173.497 17.088L173.497 18.3L174.781 18.3L174.781 22.056C174.781 23.328 175.417 24.12 176.797 24.12C177.217 24.12 177.709 24.012 178.069 23.904L177.829 22.692C177.553 22.764 177.385 22.8 177.109 22.8C176.497 22.8 176.281 22.524 176.281 21.984L176.281 18.3L178.009 18.3L178.009 17.088L176.281 17.088L176.281 15.18L174.781 15.42ZM182.468 16.896C180.596 16.896 179.048 18.264 179.048 20.532C179.048 22.8 180.596 24.18 182.468 24.18C184.34 24.18 185.888 22.8 185.888 20.532C185.888 18.264 184.34 16.896 182.468 16.896ZM182.468 18.192C183.5 18.192 184.376 18.948 184.376 20.532C184.376 22.116 183.5 22.884 182.468 22.884C181.436 22.884 180.56 22.116 180.56 20.532C180.56 18.948 181.436 18.192 182.468 18.192ZM187.378 24L188.878 24L188.878 22.344L190.15 20.916L192.214 24L193.774 24L191.002 19.944L193.546 17.088L191.914 17.088L188.878 20.664L188.878 14.7L187.378 14.7L187.378 24ZM197.773 18.192C198.745 18.192 199.513 18.648 199.633 19.8L195.877 19.8C196.081 18.732 196.777 18.192 197.773 18.192ZM201.049 20.868L201.049 20.376C201.049 18.336 199.705 16.896 197.833 16.896C195.829 16.896 194.305 18.3 194.305 20.52C194.305 22.8 195.889 24.18 197.929 24.18C199.201 24.18 200.737 23.448 201.001 21.852L199.609 21.612C199.453 22.404 198.997 22.884 197.869 22.884C196.621 22.884 195.937 22.08 195.829 20.868L201.049 20.868ZM205.734 18.252C206.55 18.252 207.198 18.732 207.198 20.016L207.198 24L208.698 24L208.698 19.368C208.698 17.508 207.522 16.896 206.286 16.896C205.47 16.896 204.522 17.232 204.03 18.108L204.03 17.088L202.53 17.088L202.53 24L204.03 24L204.03 20.052C204.03 18.816 204.738 18.252 205.734 18.252Z" fill="#FF5B24"/>
<path d="M99.056 71L99.056 80L100.628 80L100.628 76.568L101.768 76.568C102.74 76.568 103.304 76.952 103.448 77.78L103.688 79.172C103.76 79.616 103.964 79.856 104.204 80L106.1 80C105.764 79.796 105.5 79.436 105.392 79.016L105.02 77.564C104.804 76.712 104.396 76.316 103.808 76.076C104.636 75.596 105.272 74.768 105.272 73.724C105.272 72.044 104.144 71 102.176 71L99.056 71ZM102.14 72.404C102.98 72.404 103.592 72.896 103.592 73.796C103.592 74.588 103.04 75.164 102.152 75.164L100.628 75.164L100.628 72.404L102.14 72.404ZM109.883 74.192C110.855 74.192 111.623 74.648 111.743 75.8L107.987 75.8C108.191 74.732 108.887 74.192 109.883 74.192ZM113.159 76.868L113.159 76.376C113.159 74.336 111.815 72.896 109.943 72.896C107.939 72.896 106.415 74.3 106.415 76.52C106.415 78.8 107.999 80.18 110.039 80.18C111.311 80.18 112.847 79.448 113.111 77.852L111.719 77.612C111.563 78.404 111.107 78.884 109.979 78.884C108.731 78.884 108.047 78.08 107.939 76.868L113.159 76.868ZM117.184 79.604C118.396 79.604 119.032 78.812 119.404 78.056L119.404 79.088C119.404 80.552 118.792 81.152 117.46 81.152C116.62 81.152 115.816 80.912 115.684 79.916L114.232 80.156C114.58 81.908 116.152 82.496 117.4 82.496C119.608 82.496 120.904 81.344 120.904 79.028L120.904 73.076L119.404 73.076L119.404 74.42C118.876 73.352 118.216 72.896 117.304 72.896C115.744 72.896 114.268 73.952 114.268 76.148C114.268 78.5 115.768 79.604 117.184 79.604ZM117.568 74.192C118.576 74.192 119.404 74.924 119.404 76.244C119.404 77.636 118.576 78.296 117.568 78.296C116.596 78.296 115.78 77.636 115.78 76.232C115.78 74.876 116.632 74.192 117.568 74.192ZM122.819 73.088L122.819 80L124.319 80L124.319 73.088L122.819 73.088ZM123.563 70.1C123.059 70.1 122.663 70.508 122.663 71C122.663 71.492 123.059 71.9 123.563 71.9C124.067 71.9 124.463 71.492 124.463 71C124.463 70.508 124.067 70.1 123.563 70.1ZM126.097 75.032C126.097 75.992 126.649 76.7 127.825 76.952L129.085 77.228C129.949 77.42 130.189 77.672 130.189 78.08C130.189 78.656 129.625 78.98 128.797 78.98C127.825 78.98 127.189 78.524 127.093 77.672L125.761 77.912C125.989 79.52 127.489 80.18 128.833 80.18C130.165 80.18 131.581 79.436 131.581 77.936C131.581 76.976 131.017 76.328 129.793 76.064L128.425 75.764C127.729 75.608 127.489 75.272 127.489 74.912C127.489 74.408 127.969 74.096 128.653 74.096C129.481 74.096 130.093 74.396 130.141 75.296L131.473 75.056C131.077 73.508 130.033 72.896 128.641 72.896C127.513 72.896 126.097 73.52 126.097 75.032ZM133.578 71.42L133.578 73.088L132.294 73.088L132.294 74.3L133.578 74.3L133.578 78.056C133.578 79.328 134.214 80.12 135.594 80.12C136.014 80.12 136.506 80.012 136.866 79.904L136.626 78.692C136.35 78.764 136.182 78.8 135.906 78.8C135.294 78.8 135.078 78.524 135.078 77.984L135.078 74.3L136.806 74.3L136.806 73.088L135.078 73.088L135.078 71.18L133.578 71.42ZM141.588 74.516C141.96 74.516 142.224 74.564 142.488 74.672L142.632 72.992C142.488 72.92 142.284 72.896 142.104 72.896C141.42 72.896 140.34 73.292 139.776 74.744L139.776 73.088L138.276 73.088L138.276 80L139.776 80L139.776 76.976C139.776 75.056 140.616 74.516 141.588 74.516ZM144.373 82.4C145.717 82.4 146.581 81.692 147.121 80.288L149.881 73.088L148.213 73.088L146.473 78.488L144.649 73.088L142.981 73.088L145.525 79.472C145.873 80.348 145.549 81.152 144.517 81.152C143.977 81.152 143.641 80.984 143.425 80.852L143.185 82.148C143.509 82.304 143.917 82.4 144.373 82.4ZM164.221 73.088L162.553 73.088L161.077 78.128L159.409 73.088L158.293 73.088L156.637 78.104L155.149 73.088L153.481 73.088L155.965 80L157.261 80L158.857 75.632L160.441 80L161.737 80L164.221 73.088ZM168.01 80.18C169.246 80.18 170.002 79.424 170.35 78.572L170.35 80L171.85 80L171.85 73.088L170.35 73.088L170.35 74.444C169.858 73.352 169.102 72.896 168.022 72.896C166.57 72.896 164.974 74.06 164.974 76.472C164.974 79.004 166.582 80.18 168.01 80.18ZM168.43 74.192C169.438 74.192 170.35 74.96 170.35 76.556C170.35 78.2 169.438 78.872 168.418 78.872C167.47 78.872 166.486 78.164 166.486 76.556C166.486 74.924 167.482 74.192 168.43 74.192ZM173.628 75.032C173.628 75.992 174.18 76.7 175.356 76.952L176.616 77.228C177.48 77.42 177.72 77.672 177.72 78.08C177.72 78.656 177.156 78.98 176.328 78.98C175.356 78.98 174.72 78.524 174.624 77.672L173.292 77.912C173.52 79.52 175.02 80.18 176.364 80.18C177.696 80.18 179.112 79.436 179.112 77.936C179.112 76.976 178.548 76.328 177.324 76.064L175.956 75.764C175.26 75.608 175.02 75.272 175.02 74.912C175.02 74.408 175.5 74.096 176.184 74.096C177.012 74.096 177.624 74.396 177.672 75.296L179.004 75.056C178.608 73.508 177.564 72.896 176.172 72.896C175.044 72.896 173.628 73.52 173.628 75.032ZM180.581 70.7L180.581 80L182.081 80L182.081 76.052C182.081 74.816 182.789 74.252 183.797 74.252C184.601 74.252 185.249 74.732 185.249 76.016L185.249 80L186.749 80L186.749 75.368C186.749 73.508 185.609 72.896 184.289 72.896C183.557 72.896 182.573 73.22 182.081 74.108L182.081 70.7L180.581 70.7ZM188.608 73.088L188.608 80L190.108 80L190.108 73.088L188.608 73.088ZM189.352 70.1C188.848 70.1 188.452 70.508 188.452 71C188.452 71.492 188.848 71.9 189.352 71.9C189.856 71.9 190.252 71.492 190.252 71C190.252 70.508 189.856 70.1 189.352 70.1ZM195.234 74.252C196.05 74.252 196.698 74.732 196.698 76.016L196.698 80L198.198 80L198.198 75.368C198.198 73.508 197.022 72.896 195.786 72.896C194.97 72.896 194.022 73.232 193.53 74.108L193.53 73.088L192.03 73.088L192.03 80L193.53 80L193.53 76.052C193.53 74.816 194.238 74.252 195.234 74.252ZM202.602 79.604C203.814 79.604 204.45 78.812 204.822 78.056L204.822 79.088C204.822 80.552 204.21 81.152 202.878 81.152C202.038 81.152 201.234 80.912 201.102 79.916L199.65 80.156C199.998 81.908 201.57 82.496 202.818 82.496C205.026 82.496 206.322 81.344 206.322 79.028L206.322 73.076L204.822 73.076L204.822 74.42C204.294 73.352 203.634 72.896 202.722 72.896C201.162 72.896 199.686 73.952 199.686 76.148C199.686 78.5 201.186 79.604 202.602 79.604ZM202.986 74.192C203.994 74.192 204.822 74.924 204.822 76.244C204.822 77.636 203.994 78.296 202.986 78.296C202.014 78.296 201.198 77.636 201.198 76.232C201.198 74.876 202.05 74.192 202.986 74.192ZM101.612 100.18C102.848 100.18 103.604 99.424 103.952 98.572L103.952 100L105.452 100L105.452 93.088L103.952 93.088L103.952 94.444C103.46 93.352 102.704 92.896 101.624 92.896C100.172 92.896 98.576 94.06 98.576 96.472C98.576 99.004 100.184 100.18 101.612 100.18ZM102.032 94.192C103.04 94.192 103.952 94.96 103.952 96.556C103.952 98.2 103.04 98.872 102.02 98.872C101.072 98.872 100.088 98.164 100.088 96.556C100.088 94.924 101.084 94.192 102.032 94.192ZM110.578 94.252C111.394 94.252 112.042 94.732 112.042 96.016L112.042 100L113.542 100L113.542 95.368C113.542 93.508 112.366 92.896 111.13 92.896C110.314 92.896 109.366 93.232 108.874 94.108L108.874 93.088L107.374 93.088L107.374 100L108.874 100L108.874 96.052C108.874 94.816 109.582 94.252 110.578 94.252ZM121.893 90.7L120.393 90.7L120.393 94.444C119.901 93.352 119.157 92.896 118.221 92.896C116.613 92.896 115.017 94.06 115.017 96.472C115.017 99.004 116.625 100.18 118.029 100.18C119.289 100.18 120.045 99.52 120.393 98.692L120.393 100L121.893 100L121.893 90.7ZM118.473 94.192C119.481 94.192 120.393 94.996 120.393 96.556C120.393 98.164 119.481 98.872 118.461 98.872C117.513 98.872 116.529 98.128 116.529 96.556C116.529 94.96 117.525 94.192 118.473 94.192ZM133.434 95.776C133.182 93.916 131.706 92.896 130.098 92.896C128.118 92.896 126.618 94.3 126.618 96.532C126.618 98.668 128.094 100.18 130.206 100.18C131.538 100.18 133.098 99.448 133.422 97.336L132.054 97.096C131.898 98.272 131.25 98.872 130.194 98.872C128.79 98.872 128.13 97.804 128.13 96.532C128.13 94.996 128.97 94.192 130.026 94.192C130.986 94.192 131.79 94.708 131.958 96.016L133.434 95.776ZM140.975 100L140.975 93.088L139.475 93.088L139.475 97.108C139.475 98.284 138.695 98.824 137.687 98.824C136.763 98.824 136.307 98.416 136.307 97.348L136.307 93.088L134.807 93.088L134.807 97.912C134.807 99.508 135.959 100.18 137.111 100.18C137.975 100.18 138.935 99.784 139.475 98.836L139.475 100L140.975 100ZM142.726 95.032C142.726 95.992 143.278 96.7 144.454 96.952L145.714 97.228C146.578 97.42 146.818 97.672 146.818 98.08C146.818 98.656 146.254 98.98 145.426 98.98C144.454 98.98 143.818 98.524 143.722 97.672L142.39 97.912C142.618 99.52 144.118 100.18 145.462 100.18C146.794 100.18 148.21 99.436 148.21 97.936C148.21 96.976 147.646 96.328 146.422 96.064L145.054 95.764C144.358 95.608 144.118 95.272 144.118 94.912C144.118 94.408 144.598 94.096 145.282 94.096C146.11 94.096 146.722 94.396 146.77 95.296L148.102 95.056C147.706 93.508 146.662 92.896 145.27 92.896C144.142 92.896 142.726 93.52 142.726 95.032ZM150.207 91.42L150.207 93.088L148.923 93.088L148.923 94.3L150.207 94.3L150.207 98.056C150.207 99.328 150.843 100.12 152.223 100.12C152.643 100.12 153.135 100.012 153.495 99.904L153.255 98.692C152.979 98.764 152.811 98.8 152.535 98.8C151.923 98.8 151.707 98.524 151.707 97.984L151.707 94.3L153.435 94.3L153.435 93.088L151.707 93.088L151.707 91.18L150.207 91.42ZM157.893 92.896C156.021 92.896 154.473 94.264 154.473 96.532C154.473 98.8 156.021 100.18 157.893 100.18C159.765 100.18 161.313 98.8 161.313 96.532C161.313 94.264 159.765 92.896 157.893 92.896ZM157.893 94.192C158.925 94.192 159.801 94.948 159.801 96.532C159.801 98.116 158.925 98.884 157.893 98.884C156.861 98.884 155.985 98.116 155.985 96.532C155.985 94.948 156.861 94.192 157.893 94.192ZM170.448 94.252C171.3 94.252 171.948 94.732 171.948 96.016L171.948 100L173.448 100L173.448 95.368C173.448 93.508 172.308 92.896 171.048 92.896C170.28 92.896 169.308 93.208 168.792 94.24C168.42 93.256 167.544 92.896 166.62 92.896C165.792 92.896 164.796 93.22 164.304 94.108L164.304 93.088L162.804 93.088L162.804 100L164.304 100L164.304 96.052C164.304 94.816 165.012 94.252 165.972 94.252C166.824 94.252 167.472 94.732 167.472 96.016L167.472 100L168.972 100L168.972 96.052C168.972 94.816 169.596 94.252 170.448 94.252ZM178.344 94.192C179.316 94.192 180.084 94.648 180.204 95.8L176.448 95.8C176.652 94.732 177.348 94.192 178.344 94.192ZM181.62 96.868L181.62 96.376C181.62 94.336 180.276 92.896 178.404 92.896C176.4 92.896 174.876 94.3 174.876 96.52C174.876 98.8 176.46 100.18 178.5 100.18C179.772 100.18 181.308 99.448 181.572 97.852L180.18 97.612C180.024 98.404 179.568 98.884 178.44 98.884C177.192 98.884 176.508 98.08 176.4 96.868L181.62 96.868ZM186.413 94.516C186.785 94.516 187.049 94.564 187.313 94.672L187.457 92.992C187.313 92.92 187.109 92.896 186.929 92.896C186.245 92.896 185.165 93.292 184.601 94.744L184.601 93.088L183.101 93.088L183.101 100L184.601 100L184.601 96.976C184.601 95.056 185.441 94.516 186.413 94.516ZM98.96 110.7L98.96 120L100.46 120L100.46 110.7L98.96 110.7ZM105.37 112.896C103.498 112.896 101.95 114.264 101.95 116.532C101.95 118.8 103.498 120.18 105.37 120.18C107.242 120.18 108.79 118.8 108.79 116.532C108.79 114.264 107.242 112.896 105.37 112.896ZM105.37 114.192C106.402 114.192 107.278 114.948 107.278 116.532C107.278 118.116 106.402 118.884 105.37 118.884C104.338 118.884 103.462 118.116 103.462 116.532C103.462 114.948 104.338 114.192 105.37 114.192ZM113.268 112.896C111.396 112.896 109.848 114.264 109.848 116.532C109.848 118.8 111.396 120.18 113.268 120.18C115.14 120.18 116.688 118.8 116.688 116.532C116.688 114.264 115.14 112.896 113.268 112.896ZM113.268 114.192C114.3 114.192 115.176 114.948 115.176 116.532C115.176 118.116 114.3 118.884 113.268 118.884C112.236 118.884 111.36 118.116 111.36 116.532C111.36 114.948 112.236 114.192 113.268 114.192ZM118.179 120L119.679 120L119.679 118.344L120.951 116.916L123.015 120L124.575 120L121.803 115.944L124.347 113.088L122.715 113.088L119.679 116.664L119.679 110.7L118.179 110.7L118.179 120ZM131.67 120L131.67 113.088L130.17 113.088L130.17 117.108C130.17 118.284 129.39 118.824 128.382 118.824C127.458 118.824 127.002 118.416 127.002 117.348L127.002 113.088L125.502 113.088L125.502 117.912C125.502 119.508 126.654 120.18 127.806 120.18C128.67 120.18 129.63 119.784 130.17 118.836L130.17 120L131.67 120ZM137.405 112.896C136.229 112.896 135.509 113.64 135.065 114.444L135.065 113.088L133.565 113.088L133.565 122.4L135.065 122.4L135.065 118.692C135.641 119.676 136.385 120.18 137.261 120.18C138.869 120.18 140.441 118.956 140.441 116.436C140.441 114.024 138.809 112.896 137.405 112.896ZM136.997 114.192C137.945 114.192 138.929 114.948 138.929 116.52C138.929 118.116 137.945 118.872 136.985 118.872C135.977 118.872 135.065 118.056 135.065 116.52C135.065 114.912 135.977 114.192 136.997 114.192Z" fill="#FF5B24"/>
<path d="M105.764 173.616L105.752 173.712C105.608 174.852 104.684 175.644 103.268 175.644C101.78 175.644 100.292 174.756 100.292 172.536C100.292 170.424 101.528 169.356 103.184 169.356C104.444 169.356 105.512 169.836 105.716 171.336L107.3 171.096C106.952 168.588 104.78 167.82 103.28 167.82C100.592 167.82 98.6 169.752 98.6 172.536C98.6 175.2 100.556 177.18 102.836 177.18C104.288 177.18 105.32 176.28 105.8 175.32L105.812 175.32L106.088 177L107.42 177L107.42 172.2L103.4 172.2L103.4 173.616L105.764 173.616ZM112.391 171.192C113.363 171.192 114.131 171.648 114.251 172.8L110.495 172.8C110.699 171.732 111.395 171.192 112.391 171.192ZM115.667 173.868L115.667 173.376C115.667 171.336 114.323 169.896 112.451 169.896C110.447 169.896 108.923 171.3 108.923 173.52C108.923 175.8 110.507 177.18 112.547 177.18C113.819 177.18 115.355 176.448 115.619 174.852L114.227 174.612C114.071 175.404 113.615 175.884 112.487 175.884C111.239 175.884 110.555 175.08 110.447 173.868L115.667 173.868ZM117.675 168.42L117.675 170.088L116.391 170.088L116.391 171.3L117.675 171.3L117.675 175.056C117.675 176.328 118.311 177.12 119.691 177.12C120.111 177.12 120.603 177.012 120.963 176.904L120.723 175.692C120.447 175.764 120.279 175.8 120.003 175.8C119.391 175.8 119.175 175.524 119.175 174.984L119.175 171.3L120.903 171.3L120.903 170.088L119.175 170.088L119.175 168.18L117.675 168.42ZM128.92 171.516C129.292 171.516 129.556 171.564 129.82 171.672L129.964 169.992C129.82 169.92 129.616 169.896 129.436 169.896C128.752 169.896 127.672 170.292 127.108 171.744L127.108 170.088L125.608 170.088L125.608 177L127.108 177L127.108 173.976C127.108 172.056 127.948 171.516 128.92 171.516ZM134.129 171.192C135.101 171.192 135.869 171.648 135.989 172.8L132.233 172.8C132.437 171.732 133.133 171.192 134.129 171.192ZM137.405 173.868L137.405 173.376C137.405 171.336 136.061 169.896 134.189 169.896C132.185 169.896 130.661 171.3 130.661 173.52C130.661 175.8 132.245 177.18 134.285 177.18C135.557 177.18 137.093 176.448 137.357 174.852L135.965 174.612C135.809 175.404 135.353 175.884 134.225 175.884C132.977 175.884 132.293 175.08 132.185 173.868L137.405 173.868ZM145.27 172.776C145.018 170.916 143.542 169.896 141.934 169.896C139.954 169.896 138.454 171.3 138.454 173.532C138.454 175.668 139.93 177.18 142.042 177.18C143.374 177.18 144.934 176.448 145.258 174.336L143.89 174.096C143.734 175.272 143.086 175.872 142.03 175.872C140.626 175.872 139.966 174.804 139.966 173.532C139.966 171.996 140.806 171.192 141.862 171.192C142.822 171.192 143.626 171.708 143.794 173.016L145.27 172.776ZM146.679 170.088L146.679 177L148.179 177L148.179 170.088L146.679 170.088ZM147.423 167.1C146.919 167.1 146.523 167.508 146.523 168C146.523 168.492 146.919 168.9 147.423 168.9C147.927 168.9 148.323 168.492 148.323 168C148.323 167.508 147.927 167.1 147.423 167.1ZM153.941 169.896C152.765 169.896 152.045 170.64 151.601 171.444L151.601 170.088L150.101 170.088L150.101 179.4L151.601 179.4L151.601 175.692C152.177 176.676 152.921 177.18 153.797 177.18C155.405 177.18 156.977 175.956 156.977 173.436C156.977 171.024 155.345 169.896 153.941 169.896ZM153.533 171.192C154.481 171.192 155.465 171.948 155.465 173.52C155.465 175.116 154.481 175.872 153.521 175.872C152.513 175.872 151.601 175.056 151.601 173.52C151.601 171.912 152.513 171.192 153.533 171.192ZM158.515 170.088L158.515 177L160.015 177L160.015 170.088L158.515 170.088ZM159.259 167.1C158.755 167.1 158.359 167.508 158.359 168C158.359 168.492 158.755 168.9 159.259 168.9C159.763 168.9 160.159 168.492 160.159 168C160.159 167.508 159.763 167.1 159.259 167.1ZM164.973 171.192C165.945 171.192 166.713 171.648 166.833 172.8L163.077 172.8C163.281 171.732 163.977 171.192 164.973 171.192ZM168.249 173.868L168.249 173.376C168.249 171.336 166.905 169.896 165.033 169.896C163.029 169.896 161.505 171.3 161.505 173.52C161.505 175.8 163.089 177.18 165.129 177.18C166.401 177.18 167.937 176.448 168.201 174.852L166.809 174.612C166.653 175.404 166.197 175.884 165.069 175.884C163.821 175.884 163.137 175.08 163.029 173.868L168.249 173.868ZM172.934 171.252C173.75 171.252 174.398 171.732 174.398 173.016L174.398 177L175.898 177L175.898 172.368C175.898 170.508 174.722 169.896 173.486 169.896C172.67 169.896 171.722 170.232 171.23 171.108L171.23 170.088L169.73 170.088L169.73 177L171.23 177L171.23 173.052C171.23 171.816 171.938 171.252 172.934 171.252ZM178.285 168.42L178.285 170.088L177.001 170.088L177.001 171.3L178.285 171.3L178.285 175.056C178.285 176.328 178.921 177.12 180.301 177.12C180.721 177.12 181.213 177.012 181.573 176.904L181.333 175.692C181.057 175.764 180.889 175.8 180.613 175.8C180.001 175.8 179.785 175.524 179.785 174.984L179.785 171.3L181.513 171.3L181.513 170.088L179.785 170.088L179.785 168.18L178.285 168.42ZM186.746 168.42L186.746 170.088L185.462 170.088L185.462 171.3L186.746 171.3L186.746 175.056C186.746 176.328 187.382 177.12 188.762 177.12C189.182 177.12 189.674 177.012 190.034 176.904L189.794 175.692C189.518 175.764 189.35 175.8 189.074 175.8C188.462 175.8 188.246 175.524 188.246 174.984L188.246 171.3L189.974 171.3L189.974 170.088L188.246 170.088L188.246 168.18L186.746 168.42ZM194.432 169.896C192.56 169.896 191.012 171.264 191.012 173.532C191.012 175.8 192.56 177.18 194.432 177.18C196.304 177.18 197.852 175.8 197.852 173.532C197.852 171.264 196.304 169.896 194.432 169.896ZM194.432 171.192C195.464 171.192 196.34 171.948 196.34 173.532C196.34 175.116 195.464 175.884 194.432 175.884C193.4 175.884 192.524 175.116 192.524 173.532C192.524 171.948 193.4 171.192 194.432 171.192ZM199.343 177L200.843 177L200.843 175.344L202.115 173.916L204.179 177L205.739 177L202.967 172.944L205.511 170.088L203.879 170.088L200.843 173.664L200.843 167.7L199.343 167.7L199.343 177ZM209.738 171.192C210.71 171.192 211.478 171.648 211.598 172.8L207.842 172.8C208.046 171.732 208.742 171.192 209.738 171.192ZM213.014 173.868L213.014 173.376C213.014 171.336 211.67 169.896 209.798 169.896C207.794 169.896 206.27 171.3 206.27 173.52C206.27 175.8 207.854 177.18 209.894 177.18C211.166 177.18 212.702 176.448 212.966 174.852L211.574 174.612C211.418 175.404 210.962 175.884 209.834 175.884C208.586 175.884 207.902 175.08 207.794 173.868L213.014 173.868ZM217.699 171.252C218.515 171.252 219.163 171.732 219.163 173.016L219.163 177L220.663 177L220.663 172.368C220.663 170.508 219.487 169.896 218.251 169.896C217.435 169.896 216.487 170.232 215.995 171.108L215.995 170.088L214.495 170.088L214.495 177L215.995 177L215.995 173.052C215.995 171.816 216.703 171.252 217.699 171.252Z" fill="#FF5B24"/>
<path d="M100.628 539.404L102.236 539.404C103.256 539.404 103.832 540.004 103.832 541.12C103.832 542.176 103.256 542.776 102.212 542.776L100.628 542.776L100.628 539.404ZM99.056 538L99.056 547L100.628 547L100.628 544.18L102.368 544.18C104.288 544.18 105.512 542.836 105.512 541.096C105.512 539.08 104.36 538 102.356 538L99.056 538ZM109.464 547.18C110.7 547.18 111.456 546.424 111.804 545.572L111.804 547L113.304 547L113.304 540.088L111.804 540.088L111.804 541.444C111.312 540.352 110.556 539.896 109.476 539.896C108.024 539.896 106.428 541.06 106.428 543.472C106.428 546.004 108.036 547.18 109.464 547.18ZM109.884 541.192C110.892 541.192 111.804 541.96 111.804 543.556C111.804 545.2 110.892 545.872 109.872 545.872C108.924 545.872 107.94 545.164 107.94 543.556C107.94 541.924 108.936 541.192 109.884 541.192ZM115.838 549.4C117.182 549.4 118.046 548.692 118.586 547.288L121.346 540.088L119.678 540.088L117.938 545.488L116.114 540.088L114.446 540.088L116.99 546.472C117.338 547.348 117.014 548.152 115.982 548.152C115.442 548.152 115.106 547.984 114.89 547.852L114.65 549.148C114.974 549.304 115.382 549.4 115.838 549.4ZM130.135 541.252C130.987 541.252 131.635 541.732 131.635 543.016L131.635 547L133.135 547L133.135 542.368C133.135 540.508 131.995 539.896 130.735 539.896C129.967 539.896 128.995 540.208 128.479 541.24C128.107 540.256 127.231 539.896 126.307 539.896C125.479 539.896 124.483 540.22 123.991 541.108L123.991 540.088L122.491 540.088L122.491 547L123.991 547L123.991 543.052C123.991 541.816 124.699 541.252 125.659 541.252C126.511 541.252 127.159 541.732 127.159 543.016L127.159 547L128.659 547L128.659 543.052C128.659 541.816 129.283 541.252 130.135 541.252ZM138.031 541.192C139.003 541.192 139.771 541.648 139.891 542.8L136.135 542.8C136.339 541.732 137.035 541.192 138.031 541.192ZM141.307 543.868L141.307 543.376C141.307 541.336 139.963 539.896 138.091 539.896C136.087 539.896 134.563 541.3 134.563 543.52C134.563 545.8 136.147 547.18 138.187 547.18C139.459 547.18 140.995 546.448 141.259 544.852L139.867 544.612C139.711 545.404 139.255 545.884 138.127 545.884C136.879 545.884 136.195 545.08 136.087 543.868L141.307 543.868ZM145.992 541.252C146.808 541.252 147.456 541.732 147.456 543.016L147.456 547L148.956 547L148.956 542.368C148.956 540.508 147.78 539.896 146.544 539.896C145.728 539.896 144.78 540.232 144.288 541.108L144.288 540.088L142.788 540.088L142.788 547L144.288 547L144.288 543.052C144.288 541.816 144.996 541.252 145.992 541.252ZM151.343 538.42L151.343 540.088L150.059 540.088L150.059 541.3L151.343 541.3L151.343 545.056C151.343 546.328 151.979 547.12 153.359 547.12C153.779 547.12 154.271 547.012 154.631 546.904L154.391 545.692C154.115 545.764 153.947 545.8 153.671 545.8C153.059 545.8 152.843 545.524 152.843 544.984L152.843 541.3L154.571 541.3L154.571 540.088L152.843 540.088L152.843 538.18L151.343 538.42ZM159.276 540.088L159.276 547L160.776 547L160.776 540.088L159.276 540.088ZM160.02 537.1C159.516 537.1 159.12 537.508 159.12 538C159.12 538.492 159.516 538.9 160.02 538.9C160.524 538.9 160.92 538.492 160.92 538C160.92 537.508 160.524 537.1 160.02 537.1ZM162.554 542.032C162.554 542.992 163.106 543.7 164.282 543.952L165.542 544.228C166.406 544.42 166.646 544.672 166.646 545.08C166.646 545.656 166.082 545.98 165.254 545.98C164.282 545.98 163.646 545.524 163.55 544.672L162.218 544.912C162.446 546.52 163.946 547.18 165.29 547.18C166.622 547.18 168.038 546.436 168.038 544.936C168.038 543.976 167.474 543.328 166.25 543.064L164.882 542.764C164.186 542.608 163.946 542.272 163.946 541.912C163.946 541.408 164.426 541.096 165.11 541.096C165.938 541.096 166.55 541.396 166.598 542.296L167.93 542.056C167.534 540.508 166.49 539.896 165.098 539.896C163.97 539.896 162.554 540.52 162.554 542.032ZM99.488 558.42L99.488 560.088L98.204 560.088L98.204 561.3L99.488 561.3L99.488 565.056C99.488 566.328 100.124 567.12 101.504 567.12C101.924 567.12 102.416 567.012 102.776 566.904L102.536 565.692C102.26 565.764 102.092 565.8 101.816 565.8C101.204 565.8 100.988 565.524 100.988 564.984L100.988 561.3L102.716 561.3L102.716 560.088L100.988 560.088L100.988 558.18L99.488 558.42ZM107.499 561.516C107.871 561.516 108.135 561.564 108.399 561.672L108.543 559.992C108.399 559.92 108.195 559.896 108.015 559.896C107.331 559.896 106.251 560.292 105.687 561.744L105.687 560.088L104.187 560.088L104.187 567L105.687 567L105.687 563.976C105.687 562.056 106.527 561.516 107.499 561.516ZM112.323 567.18C113.559 567.18 114.315 566.424 114.663 565.572L114.663 567L116.163 567L116.163 560.088L114.663 560.088L114.663 561.444C114.171 560.352 113.415 559.896 112.335 559.896C110.883 559.896 109.287 561.06 109.287 563.472C109.287 566.004 110.895 567.18 112.323 567.18ZM112.743 561.192C113.751 561.192 114.663 561.96 114.663 563.556C114.663 565.2 113.751 565.872 112.731 565.872C111.783 565.872 110.799 565.164 110.799 563.556C110.799 561.924 111.795 561.192 112.743 561.192ZM121.289 561.252C122.105 561.252 122.753 561.732 122.753 563.016L122.753 567L124.253 567L124.253 562.368C124.253 560.508 123.077 559.896 121.841 559.896C121.025 559.896 120.077 560.232 119.585 561.108L119.585 560.088L118.085 560.088L118.085 567L119.585 567L119.585 563.052C119.585 561.816 120.293 561.252 121.289 561.252ZM125.968 562.032C125.968 562.992 126.52 563.7 127.696 563.952L128.956 564.228C129.82 564.42 130.06 564.672 130.06 565.08C130.06 565.656 129.496 565.98 128.668 565.98C127.696 565.98 127.06 565.524 126.964 564.672L125.632 564.912C125.86 566.52 127.36 567.18 128.704 567.18C130.036 567.18 131.452 566.436 131.452 564.936C131.452 563.976 130.888 563.328 129.664 563.064L128.296 562.764C127.6 562.608 127.36 562.272 127.36 561.912C127.36 561.408 127.84 561.096 128.524 561.096C129.352 561.096 129.964 561.396 130.012 562.296L131.344 562.056C130.948 560.508 129.904 559.896 128.512 559.896C127.384 559.896 125.968 560.52 125.968 562.032ZM133.317 567L134.817 567L134.817 561.3L136.533 561.3L136.533 560.088L134.817 560.088L134.817 559.812C134.817 559.104 135.153 558.732 135.765 558.732C136.089 558.732 136.365 558.78 136.653 558.864L136.857 557.7C136.521 557.58 136.113 557.472 135.609 557.472C134.229 557.472 133.317 558.36 133.317 559.824L133.317 560.088L132.369 560.088L132.369 561.3L133.317 561.3L133.317 567ZM140.633 561.192C141.605 561.192 142.373 561.648 142.493 562.8L138.737 562.8C138.941 561.732 139.637 561.192 140.633 561.192ZM143.909 563.868L143.909 563.376C143.909 561.336 142.565 559.896 140.693 559.896C138.689 559.896 137.165 561.3 137.165 563.52C137.165 565.8 138.749 567.18 140.789 567.18C142.061 567.18 143.597 566.448 143.861 564.852L142.469 564.612C142.313 565.404 141.857 565.884 140.729 565.884C139.481 565.884 138.797 565.08 138.689 563.868L143.909 563.868ZM148.702 561.516C149.074 561.516 149.338 561.564 149.602 561.672L149.746 559.992C149.602 559.92 149.398 559.896 149.218 559.896C148.534 559.896 147.454 560.292 146.89 561.744L146.89 560.088L145.39 560.088L145.39 567L146.89 567L146.89 563.976C146.89 562.056 147.73 561.516 148.702 561.516ZM154.186 561.516C154.558 561.516 154.822 561.564 155.086 561.672L155.23 559.992C155.086 559.92 154.882 559.896 154.702 559.896C154.018 559.896 152.938 560.292 152.374 561.744L152.374 560.088L150.874 560.088L150.874 567L152.374 567L152.374 563.976C152.374 562.056 153.214 561.516 154.186 561.516ZM159.394 561.192C160.366 561.192 161.134 561.648 161.254 562.8L157.498 562.8C157.702 561.732 158.398 561.192 159.394 561.192ZM162.67 563.868L162.67 563.376C162.67 561.336 161.326 559.896 159.454 559.896C157.45 559.896 155.926 561.3 155.926 563.52C155.926 565.8 157.51 567.18 159.55 567.18C160.822 567.18 162.358 566.448 162.622 564.852L161.23 564.612C161.074 565.404 160.618 565.884 159.49 565.884C158.242 565.884 157.558 565.08 157.45 563.868L162.67 563.868ZM170.643 557.7L169.143 557.7L169.143 561.444C168.651 560.352 167.907 559.896 166.971 559.896C165.363 559.896 163.767 561.06 163.767 563.472C163.767 566.004 165.375 567.18 166.779 567.18C168.039 567.18 168.795 566.52 169.143 565.692L169.143 567L170.643 567L170.643 557.7ZM167.223 561.192C168.231 561.192 169.143 561.996 169.143 563.556C169.143 565.164 168.231 565.872 167.211 565.872C166.263 565.872 165.279 565.128 165.279 563.556C165.279 561.96 166.275 561.192 167.223 561.192Z" fill="#FF5B24"/>
<path d="M155.056 376L155.056 385L156.628 385L156.628 376L155.056 376ZM158.496 378.412C158.496 381.88 163.476 380.74 163.476 382.648C163.476 383.332 162.948 383.788 161.928 383.788C160.956 383.788 159.84 383.464 159.684 381.928L158.136 382.288C158.376 384.22 160.08 385.18 161.88 385.18C163.476 385.18 165.048 384.268 165.048 382.552C165.048 379.192 160.092 380.416 160.092 378.352C160.092 377.644 160.632 377.212 161.556 377.212C162.36 377.212 163.26 377.572 163.332 378.82L164.916 378.46C164.652 376.6 163.044 375.82 161.628 375.82C160.056 375.82 158.496 376.684 158.496 378.412ZM168.194 377.404L169.802 377.404C170.822 377.404 171.398 378.004 171.398 379.12C171.398 380.176 170.822 380.776 169.778 380.776L168.194 380.776L168.194 377.404ZM166.622 376L166.622 385L168.194 385L168.194 382.18L169.934 382.18C171.854 382.18 173.078 380.836 173.078 379.096C173.078 377.08 171.926 376 169.922 376L166.622 376ZM181.159 379.516C181.531 379.516 181.795 379.564 182.059 379.672L182.203 377.992C182.059 377.92 181.855 377.896 181.675 377.896C180.991 377.896 179.911 378.292 179.347 379.744L179.347 378.088L177.847 378.088L177.847 385L179.347 385L179.347 381.976C179.347 380.056 180.187 379.516 181.159 379.516ZM186.367 379.192C187.339 379.192 188.107 379.648 188.227 380.8L184.471 380.8C184.675 379.732 185.371 379.192 186.367 379.192ZM189.643 381.868L189.643 381.376C189.643 379.336 188.299 377.896 186.427 377.896C184.423 377.896 182.899 379.3 182.899 381.52C182.899 383.8 184.483 385.18 186.523 385.18C187.795 385.18 189.331 384.448 189.595 382.852L188.203 382.612C188.047 383.404 187.591 383.884 186.463 383.884C185.215 383.884 184.531 383.08 184.423 381.868L189.643 381.868ZM197.244 378.088L195.576 378.088L193.8 383.308L192.012 378.088L190.344 378.088L193.104 385L194.484 385L197.244 378.088ZM201.378 377.896C199.506 377.896 197.958 379.264 197.958 381.532C197.958 383.8 199.506 385.18 201.378 385.18C203.25 385.18 204.798 383.8 204.798 381.532C204.798 379.264 203.25 377.896 201.378 377.896ZM201.378 379.192C202.41 379.192 203.286 379.948 203.286 381.532C203.286 383.116 202.41 383.884 201.378 383.884C200.346 383.884 199.47 383.116 199.47 381.532C199.47 379.948 200.346 379.192 201.378 379.192ZM206.288 385L207.788 385L207.788 383.344L209.06 381.916L211.124 385L212.684 385L209.912 380.944L212.456 378.088L210.824 378.088L207.788 381.664L207.788 375.7L206.288 375.7L206.288 385ZM216.683 379.192C217.655 379.192 218.423 379.648 218.543 380.8L214.787 380.8C214.991 379.732 215.687 379.192 216.683 379.192ZM219.959 381.868L219.959 381.376C219.959 379.336 218.615 377.896 216.743 377.896C214.739 377.896 213.215 379.3 213.215 381.52C213.215 383.8 214.799 385.18 216.839 385.18C218.111 385.18 219.647 384.448 219.911 382.852L218.519 382.612C218.363 383.404 217.907 383.884 216.779 383.884C215.531 383.884 214.847 383.08 214.739 381.868L219.959 381.868ZM221.296 380.032C221.296 380.992 221.848 381.7 223.024 381.952L224.284 382.228C225.148 382.42 225.388 382.672 225.388 383.08C225.388 383.656 224.824 383.98 223.996 383.98C223.024 383.98 222.388 383.524 222.292 382.672L220.96 382.912C221.188 384.52 222.688 385.18 224.032 385.18C225.364 385.18 226.78 384.436 226.78 382.936C226.78 381.976 226.216 381.328 224.992 381.064L223.624 380.764C222.928 380.608 222.688 380.272 222.688 379.912C222.688 379.408 223.168 379.096 223.852 379.096C224.68 379.096 225.292 379.396 225.34 380.296L226.672 380.056C226.276 378.508 225.232 377.896 223.84 377.896C222.712 377.896 221.296 378.52 221.296 380.032ZM154.96 398.088L154.96 405L156.46 405L156.46 398.088L154.96 398.088ZM155.704 395.1C155.2 395.1 154.804 395.508 154.804 396C154.804 396.492 155.2 396.9 155.704 396.9C156.208 396.9 156.604 396.492 156.604 396C156.604 395.508 156.208 395.1 155.704 395.1ZM161.586 399.252C162.402 399.252 163.05 399.732 163.05 401.016L163.05 405L164.55 405L164.55 400.368C164.55 398.508 163.374 397.896 162.138 397.896C161.322 397.896 160.374 398.232 159.882 399.108L159.882 398.088L158.382 398.088L158.382 405L159.882 405L159.882 401.052C159.882 399.816 160.59 399.252 161.586 399.252ZM172.529 398.088L170.861 398.088L169.085 403.308L167.297 398.088L165.629 398.088L168.389 405L169.769 405L172.529 398.088ZM176.663 397.896C174.791 397.896 173.243 399.264 173.243 401.532C173.243 403.8 174.791 405.18 176.663 405.18C178.535 405.18 180.083 403.8 180.083 401.532C180.083 399.264 178.535 397.896 176.663 397.896ZM176.663 399.192C177.695 399.192 178.571 399.948 178.571 401.532C178.571 403.116 177.695 403.884 176.663 403.884C175.631 403.884 174.755 403.116 174.755 401.532C174.755 399.948 175.631 399.192 176.663 399.192ZM181.573 398.088L181.573 405L183.073 405L183.073 398.088L181.573 398.088ZM182.317 395.1C181.813 395.1 181.417 395.508 181.417 396C181.417 396.492 181.813 396.9 182.317 396.9C182.821 396.9 183.217 396.492 183.217 396C183.217 395.508 182.821 395.1 182.317 395.1ZM191.379 400.776C191.127 398.916 189.651 397.896 188.043 397.896C186.063 397.896 184.563 399.3 184.563 401.532C184.563 403.668 186.039 405.18 188.151 405.18C189.483 405.18 191.043 404.448 191.367 402.336L189.999 402.096C189.843 403.272 189.195 403.872 188.139 403.872C186.735 403.872 186.075 402.804 186.075 401.532C186.075 399.996 186.915 399.192 187.971 399.192C188.931 399.192 189.735 399.708 189.903 401.016L191.379 400.776ZM195.824 399.192C196.796 399.192 197.564 399.648 197.684 400.8L193.928 400.8C194.132 399.732 194.828 399.192 195.824 399.192ZM199.1 401.868L199.1 401.376C199.1 399.336 197.756 397.896 195.884 397.896C193.88 397.896 192.356 399.3 192.356 401.52C192.356 403.8 193.94 405.18 195.98 405.18C197.252 405.18 198.788 404.448 199.052 402.852L197.66 402.612C197.504 403.404 197.048 403.884 195.92 403.884C194.672 403.884 193.988 403.08 193.88 401.868L199.1 401.868Z" fill="#49367E"/>
<path d="M99.056 310L99.056 319L100.628 319L100.628 310L99.056 310ZM102.496 312.412C102.496 315.88 107.476 314.74 107.476 316.648C107.476 317.332 106.948 317.788 105.928 317.788C104.956 317.788 103.84 317.464 103.684 315.928L102.136 316.288C102.376 318.22 104.08 319.18 105.88 319.18C107.476 319.18 109.048 318.268 109.048 316.552C109.048 313.192 104.092 314.416 104.092 312.352C104.092 311.644 104.632 311.212 105.556 311.212C106.36 311.212 107.26 311.572 107.332 312.82L108.916 312.46C108.652 310.6 107.044 309.82 105.628 309.82C104.056 309.82 102.496 310.684 102.496 312.412ZM112.194 311.404L113.802 311.404C114.822 311.404 115.398 312.004 115.398 313.12C115.398 314.176 114.822 314.776 113.778 314.776L112.194 314.776L112.194 311.404ZM110.622 310L110.622 319L112.194 319L112.194 316.18L113.934 316.18C115.854 316.18 117.078 314.836 117.078 313.096C117.078 311.08 115.926 310 113.922 310L110.622 310ZM128.231 314.776C127.979 312.916 126.503 311.896 124.895 311.896C122.915 311.896 121.415 313.3 121.415 315.532C121.415 317.668 122.891 319.18 125.003 319.18C126.335 319.18 127.895 318.448 128.219 316.336L126.851 316.096C126.695 317.272 126.047 317.872 124.991 317.872C123.587 317.872 122.927 316.804 122.927 315.532C122.927 313.996 123.767 313.192 124.823 313.192C125.783 313.192 126.587 313.708 126.755 315.016L128.231 314.776ZM129.64 309.7L129.64 319L131.14 319L131.14 315.052C131.14 313.816 131.848 313.252 132.856 313.252C133.66 313.252 134.308 313.732 134.308 315.016L134.308 319L135.808 319L135.808 314.368C135.808 312.508 134.668 311.896 133.348 311.896C132.616 311.896 131.632 312.22 131.14 313.108L131.14 309.7L129.64 309.7ZM140.703 313.192C141.675 313.192 142.443 313.648 142.563 314.8L138.807 314.8C139.011 313.732 139.707 313.192 140.703 313.192ZM143.979 315.868L143.979 315.376C143.979 313.336 142.635 311.896 140.763 311.896C138.759 311.896 137.235 313.3 137.235 315.52C137.235 317.8 138.819 319.18 140.859 319.18C142.131 319.18 143.667 318.448 143.931 316.852L142.539 316.612C142.383 317.404 141.927 317.884 140.799 317.884C139.551 317.884 138.867 317.08 138.759 315.868L143.979 315.868ZM151.844 314.776C151.592 312.916 150.116 311.896 148.508 311.896C146.528 311.896 145.028 313.3 145.028 315.532C145.028 317.668 146.504 319.18 148.616 319.18C149.948 319.18 151.508 318.448 151.832 316.336L150.464 316.096C150.308 317.272 149.66 317.872 148.604 317.872C147.2 317.872 146.54 316.804 146.54 315.532C146.54 313.996 147.38 313.192 148.436 313.192C149.396 313.192 150.2 313.708 150.368 315.016L151.844 314.776ZM153.253 319L154.753 319L154.753 317.344L156.025 315.916L158.089 319L159.649 319L156.877 314.944L159.421 312.088L157.789 312.088L154.753 315.664L154.753 309.7L153.253 309.7L153.253 319ZM160.468 314.032C160.468 314.992 161.02 315.7 162.196 315.952L163.456 316.228C164.32 316.42 164.56 316.672 164.56 317.08C164.56 317.656 163.996 317.98 163.168 317.98C162.196 317.98 161.56 317.524 161.464 316.672L160.132 316.912C160.36 318.52 161.86 319.18 163.204 319.18C164.536 319.18 165.952 318.436 165.952 316.936C165.952 315.976 165.388 315.328 164.164 315.064L162.796 314.764C162.1 314.608 161.86 314.272 161.86 313.912C161.86 313.408 162.34 313.096 163.024 313.096C163.852 313.096 164.464 313.396 164.512 314.296L165.844 314.056C165.448 312.508 164.404 311.896 163.012 311.896C161.884 311.896 160.468 312.52 160.468 314.032ZM170.511 314.032C170.511 314.992 171.063 315.7 172.239 315.952L173.499 316.228C174.363 316.42 174.603 316.672 174.603 317.08C174.603 317.656 174.039 317.98 173.211 317.98C172.239 317.98 171.603 317.524 171.507 316.672L170.175 316.912C170.403 318.52 171.903 319.18 173.247 319.18C174.579 319.18 175.995 318.436 175.995 316.936C175.995 315.976 175.431 315.328 174.207 315.064L172.839 314.764C172.143 314.608 171.903 314.272 171.903 313.912C171.903 313.408 172.383 313.096 173.067 313.096C173.895 313.096 174.507 313.396 174.555 314.296L175.887 314.056C175.491 312.508 174.447 311.896 173.055 311.896C171.927 311.896 170.511 312.52 170.511 314.032ZM177.992 310.42L177.992 312.088L176.708 312.088L176.708 313.3L177.992 313.3L177.992 317.056C177.992 318.328 178.628 319.12 180.008 319.12C180.428 319.12 180.92 319.012 181.28 318.904L181.04 317.692C180.764 317.764 180.596 317.8 180.32 317.8C179.708 317.8 179.492 317.524 179.492 316.984L179.492 313.3L181.22 313.3L181.22 312.088L179.492 312.088L179.492 310.18L177.992 310.42ZM185.342 319.18C186.578 319.18 187.334 318.424 187.682 317.572L187.682 319L189.182 319L189.182 312.088L187.682 312.088L187.682 313.444C187.19 312.352 186.434 311.896 185.354 311.896C183.902 311.896 182.306 313.06 182.306 315.472C182.306 318.004 183.914 319.18 185.342 319.18ZM185.762 313.192C186.77 313.192 187.682 313.96 187.682 315.556C187.682 317.2 186.77 317.872 185.75 317.872C184.802 317.872 183.818 317.164 183.818 315.556C183.818 313.924 184.814 313.192 185.762 313.192ZM191.633 310.42L191.633 312.088L190.349 312.088L190.349 313.3L191.633 313.3L191.633 317.056C191.633 318.328 192.269 319.12 193.649 319.12C194.069 319.12 194.561 319.012 194.921 318.904L194.681 317.692C194.405 317.764 194.237 317.8 193.961 317.8C193.349 317.8 193.133 317.524 193.133 316.984L193.133 313.3L194.861 313.3L194.861 312.088L193.133 312.088L193.133 310.18L191.633 310.42ZM199.367 313.192C200.339 313.192 201.107 313.648 201.227 314.8L197.471 314.8C197.675 313.732 198.371 313.192 199.367 313.192ZM202.643 315.868L202.643 315.376C202.643 313.336 201.299 311.896 199.427 311.896C197.423 311.896 195.899 313.3 195.899 315.52C195.899 317.8 197.483 319.18 199.523 319.18C200.795 319.18 202.331 318.448 202.595 316.852L201.203 316.612C201.047 317.404 200.591 317.884 199.463 317.884C198.215 317.884 197.531 317.08 197.423 315.868L202.643 315.868ZM210.346 311.896C208.474 311.896 206.926 313.264 206.926 315.532C206.926 317.8 208.474 319.18 210.346 319.18C212.218 319.18 213.766 317.8 213.766 315.532C213.766 313.264 212.218 311.896 210.346 311.896ZM210.346 313.192C211.378 313.192 212.254 313.948 212.254 315.532C212.254 317.116 211.378 317.884 210.346 317.884C209.314 317.884 208.438 317.116 208.438 315.532C208.438 313.948 209.314 313.192 210.346 313.192ZM215.653 319L217.153 319L217.153 313.3L218.869 313.3L218.869 312.088L217.153 312.088L217.153 311.812C217.153 311.104 217.489 310.732 218.101 310.732C218.425 310.732 218.701 310.78 218.989 310.864L219.193 309.7C218.857 309.58 218.449 309.472 217.945 309.472C216.565 309.472 215.653 310.36 215.653 311.824L215.653 312.088L214.705 312.088L214.705 313.3L215.653 313.3L215.653 319ZM98.96 332.088L98.96 339L100.46 339L100.46 332.088L98.96 332.088ZM99.704 329.1C99.2 329.1 98.804 329.508 98.804 330C98.804 330.492 99.2 330.9 99.704 330.9C100.208 330.9 100.604 330.492 100.604 330C100.604 329.508 100.208 329.1 99.704 329.1ZM105.586 333.252C106.402 333.252 107.05 333.732 107.05 335.016L107.05 339L108.55 339L108.55 334.368C108.55 332.508 107.374 331.896 106.138 331.896C105.322 331.896 104.374 332.232 103.882 333.108L103.882 332.088L102.382 332.088L102.382 339L103.882 339L103.882 335.052C103.882 333.816 104.59 333.252 105.586 333.252ZM116.529 332.088L114.861 332.088L113.085 337.308L111.297 332.088L109.629 332.088L112.389 339L113.769 339L116.529 332.088ZM120.663 331.896C118.791 331.896 117.243 333.264 117.243 335.532C117.243 337.8 118.791 339.18 120.663 339.18C122.535 339.18 124.083 337.8 124.083 335.532C124.083 333.264 122.535 331.896 120.663 331.896ZM120.663 333.192C121.695 333.192 122.571 333.948 122.571 335.532C122.571 337.116 121.695 337.884 120.663 337.884C119.631 337.884 118.755 337.116 118.755 335.532C118.755 333.948 119.631 333.192 120.663 333.192ZM125.573 332.088L125.573 339L127.073 339L127.073 332.088L125.573 332.088ZM126.317 329.1C125.813 329.1 125.417 329.508 125.417 330C125.417 330.492 125.813 330.9 126.317 330.9C126.821 330.9 127.217 330.492 127.217 330C127.217 329.508 126.821 329.1 126.317 329.1ZM135.379 334.776C135.127 332.916 133.651 331.896 132.043 331.896C130.063 331.896 128.563 333.3 128.563 335.532C128.563 337.668 130.039 339.18 132.151 339.18C133.483 339.18 135.043 338.448 135.367 336.336L133.999 336.096C133.843 337.272 133.195 337.872 132.139 337.872C130.735 337.872 130.075 336.804 130.075 335.532C130.075 333.996 130.915 333.192 131.971 333.192C132.931 333.192 133.735 333.708 133.903 335.016L135.379 334.776ZM139.824 333.192C140.796 333.192 141.564 333.648 141.684 334.8L137.928 334.8C138.132 333.732 138.828 333.192 139.824 333.192ZM143.1 335.868L143.1 335.376C143.1 333.336 141.756 331.896 139.884 331.896C137.88 331.896 136.356 333.3 136.356 335.52C136.356 337.8 137.94 339.18 139.98 339.18C141.252 339.18 142.788 338.448 143.052 336.852L141.66 336.612C141.504 337.404 141.048 337.884 139.92 337.884C138.672 337.884 137.988 337.08 137.88 335.868L143.1 335.868Z" fill="#FF5B24"/>
<path d="M66.2669 552.242C66.2669 566.464 54.5067 577.994 40 577.994C25.4933 577.994 13.7331 566.464 13.7331 552.242C13.7331 538.02 25.4933 526.49 40 526.49C54.5067 526.49 66.2669 538.02 66.2669 552.242Z" fill="#EEEDF3"/>
<path d="M28.4308 543.046C28.9824 543.515 29.5354 543.985 30.087 544.454C31.5231 545.676 33.0064 546.847 34.3996 548.116C36.6231 550.142 38.0078 552.64 38.5565 555.569C39.1109 558.536 38.7208 561.39 37.3619 564.097C36.0586 566.691 34.0667 568.64 31.4545 569.978C29.5954 570.931 27.612 571.443 25.5157 571.523C21.5831 571.673 18.1222 570.508 15.2099 567.896C13.1408 566.04 11.839 563.732 11.2217 561.054C10.8901 559.616 10.7972 558.162 10.9544 556.698C11.2731 553.723 12.4463 551.115 14.4911 548.888C15.2171 548.098 16.0602 547.435 16.8761 546.743C18.2994 545.54 19.7255 544.34 21.1502 543.14C21.1845 543.11 21.213 543.077 21.2445 543.045C21.4388 543.043 21.6332 543.047 21.8275 543.038C21.9461 543.032 21.9718 543.082 21.969 543.186C21.9633 543.382 21.9675 543.578 21.9675 543.774C21.9675 545.725 21.9675 547.675 21.9675 549.625C21.9675 549.979 22.1004 550.261 22.4234 550.432C23.0121 550.744 23.6895 550.328 23.6909 549.653C23.6937 548.117 23.6923 546.582 23.6923 545.047C23.6923 544.43 23.6952 543.814 23.6895 543.197C23.688 543.071 23.7237 543.032 23.8524 543.036C24.1324 543.046 24.4125 543.039 24.6926 543.039C25.9387 543.043 27.1847 543.045 28.4308 543.046ZM25.127 563.384C25.3842 563.384 25.6414 563.378 25.8986 563.386C26.0144 563.391 26.0401 563.351 26.0387 563.245C26.033 562.881 26.0473 562.516 26.0315 562.152C26.0244 561.981 26.073 561.914 26.2445 561.871C26.8575 561.719 27.4076 561.442 27.8678 561.01C28.5851 560.335 28.8452 559.499 28.7866 558.543C28.7223 557.498 28.2422 556.717 27.299 556.211C26.6517 555.863 25.9429 555.69 25.2456 555.482C24.8355 555.36 24.4239 555.243 24.0624 555.007C23.708 554.778 23.5308 554.458 23.5708 554.039C23.6109 553.623 23.8381 553.335 24.2253 553.165C24.5354 553.031 24.8641 552.997 25.197 553.019C25.9515 553.07 26.3645 553.386 26.5988 554.091C26.6431 554.223 26.6746 554.36 26.7003 554.497C26.7174 554.594 26.7389 554.635 26.8589 554.616C27.4119 554.532 27.9664 554.464 28.5208 554.385C28.9138 554.329 28.9138 554.325 28.8223 553.938C28.4808 552.491 27.682 551.467 26.1301 551.139C26.0373 551.12 26.0344 551.068 26.0358 550.995C26.0387 550.625 26.0287 550.255 26.0401 549.885C26.0444 549.74 25.9958 549.71 25.8572 549.713C25.3656 549.722 24.8741 549.72 24.3825 549.713C24.2539 549.712 24.2039 549.738 24.2082 549.877C24.2182 550.247 24.2082 550.617 24.2139 550.987C24.2153 551.085 24.1839 551.125 24.0867 551.145C23.9467 551.173 23.8081 551.207 23.6737 551.25C22.8006 551.532 22.0976 552.015 21.7403 552.878C21.446 553.587 21.4374 554.318 21.6374 555.052C21.8847 555.956 22.532 556.508 23.3579 556.897C23.9881 557.194 24.6626 557.371 25.3171 557.599C25.6772 557.725 26.0358 557.857 26.3359 558.101C26.5217 558.252 26.6546 558.435 26.6917 558.675C26.7703 559.172 26.5403 559.612 26.0644 559.852C25.4842 560.143 24.8741 560.124 24.261 559.989C23.6151 559.848 23.215 559.451 23.0478 558.824C22.9921 558.616 22.9692 558.405 22.9621 558.193C22.9578 558.071 22.9092 558.059 22.8063 558.074C22.2033 558.164 21.5989 558.253 20.9944 558.335C20.8929 558.349 20.8758 558.386 20.8844 558.475C20.9172 558.817 20.9915 559.15 21.123 559.467C21.666 560.778 22.6777 561.561 24.0453 561.932C24.171 561.967 24.2196 562.007 24.2167 562.14C24.2067 562.504 24.2196 562.868 24.2096 563.232C24.2053 563.363 24.2496 563.391 24.3739 563.386C24.624 563.377 24.8755 563.384 25.127 563.384Z" fill="#FF985F"/>
<path d="M21.5003 541.355C20.7115 540.013 19.9184 538.672 19.1339 537.327C18.115 535.577 19.1196 533.446 21.1373 533.071C21.3117 533.039 21.4888 533.026 21.666 533.026C23.7809 533.028 25.8944 533.026 28.0093 533.026C30.2656 533.026 31.6703 535.369 30.5585 537.295C29.7983 538.615 29.0152 539.922 28.2422 541.234C28.2193 541.272 28.2007 541.314 28.1807 541.353C26.3645 541.355 24.5483 541.356 22.7335 541.358C22.3219 541.359 21.9118 541.356 21.5003 541.355Z" fill="#FF985F"/>
<path d="M21.5002 541.355C21.9117 541.356 22.3218 541.36 22.7334 541.36C24.5496 541.359 26.3658 541.358 28.1806 541.356C28.2892 541.358 28.3978 541.36 28.5064 541.36C29.0066 541.363 29.3867 541.72 29.391 542.195C29.3967 542.658 29.0208 543.027 28.5321 543.041C28.4978 543.043 28.4635 543.044 28.4292 543.047C27.1832 543.046 25.9371 543.043 24.6911 543.041C24.411 543.041 24.1309 543.048 23.8508 543.039C23.7208 543.034 23.6865 543.074 23.6879 543.2C23.6936 543.816 23.6908 544.433 23.6908 545.049C23.6908 546.585 23.6922 548.12 23.6893 549.655C23.6879 550.331 23.0106 550.747 22.4218 550.434C22.0989 550.263 21.966 549.98 21.966 549.627C21.9674 547.677 21.966 545.727 21.966 543.777C21.966 543.581 21.9617 543.385 21.9674 543.189C21.9703 543.085 21.9446 543.034 21.826 543.04C21.6316 543.05 21.4373 543.046 21.2429 543.047C20.6971 543.026 20.3555 542.76 20.2941 542.31C20.2269 541.814 20.6113 541.373 21.1215 541.362C21.2487 541.358 21.3744 541.356 21.5002 541.355Z" fill="#FD5B24"/>
<path d="M25.1267 563.384C24.8752 563.384 24.6237 563.377 24.3722 563.387C24.2479 563.391 24.205 563.363 24.2079 563.233C24.2179 562.868 24.205 562.504 24.215 562.14C24.2193 562.007 24.1707 561.966 24.0436 561.932C22.676 561.561 21.6643 560.778 21.1213 559.467C20.9898 559.149 20.9155 558.817 20.8827 558.475C20.8741 558.387 20.8912 558.349 20.9927 558.335C21.5972 558.252 22.2016 558.164 22.8046 558.074C22.9075 558.059 22.9561 558.071 22.9604 558.193C22.9675 558.405 22.9904 558.616 23.0461 558.824C23.2133 559.451 23.6134 559.848 24.2593 559.989C24.8724 560.124 25.4825 560.143 26.0627 559.852C26.5385 559.612 26.7686 559.171 26.69 558.675C26.6514 558.436 26.52 558.252 26.3342 558.101C26.0341 557.857 25.6754 557.725 25.3153 557.599C24.6609 557.371 23.985 557.194 23.3562 556.897C22.5317 556.508 21.8829 555.956 21.6357 555.052C21.4357 554.32 21.4443 553.587 21.7386 552.878C22.0973 552.015 22.8003 551.532 23.672 551.25C23.8078 551.207 23.9464 551.172 24.085 551.145C24.1807 551.127 24.2136 551.086 24.2122 550.987C24.2065 550.617 24.2165 550.247 24.2065 549.877C24.2022 549.739 24.2508 549.711 24.3808 549.713C24.8724 549.72 25.3639 549.72 25.8555 549.713C25.9941 549.711 26.0427 549.74 26.0384 549.886C26.027 550.255 26.0355 550.625 26.0341 550.995C26.0341 551.068 26.037 551.121 26.1284 551.139C27.6789 551.467 28.4791 552.491 28.8206 553.939C28.9121 554.327 28.9121 554.329 28.5191 554.386C27.9661 554.464 27.4102 554.533 26.8572 554.617C26.7372 554.635 26.7157 554.594 26.6986 554.498C26.6729 554.36 26.6414 554.223 26.5971 554.091C26.3614 553.387 25.9498 553.07 25.1953 553.02C24.8609 552.997 24.5337 553.031 24.2236 553.165C23.8364 553.333 23.6091 553.623 23.5691 554.039C23.5291 554.458 23.7063 554.778 24.0607 555.008C24.4237 555.243 24.8352 555.361 25.2439 555.482C25.9412 555.69 26.65 555.865 27.2973 556.211C28.2405 556.717 28.7206 557.498 28.7849 558.544C28.8435 559.499 28.5834 560.337 27.8661 561.011C27.4059 561.444 26.8558 561.72 26.2427 561.871C26.0698 561.913 26.0213 561.981 26.0298 562.152C26.0455 562.517 26.0313 562.881 26.037 563.245C26.0384 563.352 26.0127 563.391 25.8969 563.387C25.6411 563.377 25.3839 563.384 25.1267 563.384Z" fill="#FF985F"/>
<path d="M21.7608 559.972L22.761 559.972L22.761 558.978L23.3254 558.312L24.4542 559.972L25.5687 559.972L23.9255 557.612L25.3472 555.938L24.2184 555.938L22.761 557.801L22.761 554.544L21.7608 554.544L21.7608 559.972Z" fill="#FFF4EC"/>
<path d="M27.8981 556.925C28.0409 556.925 28.2124 556.96 28.3696 557.016L28.4339 555.882C28.341 555.847 28.2267 555.826 28.1195 555.826C27.7266 555.826 27.2408 556.022 26.9193 556.792L26.9193 555.938L25.912 555.938L25.912 559.972L26.9193 559.972L26.9193 557.997C26.9193 557.135 27.4194 556.925 27.8981 556.925Z" fill="#FFF4EC"/>
<path fill-rule="evenodd" clip-rule="evenodd" d="M40 577.994C54.5067 577.994 66.2669 566.465 66.2669 552.243C66.2669 551.583 66.2415 550.929 66.1918 550.282L31.4834 550.281C30.2664 550.281 29.28 551.249 29.28 552.442L29.28 575.759C32.5534 577.196 36.1816 577.994 40 577.994Z" fill="#C8C5D6"/>
<path fill-rule="evenodd" clip-rule="evenodd" d="M66.0363 555.669C66.1884 554.548 66.2669 553.404 66.2669 552.243C66.2669 551.583 66.2415 550.929 66.1918 550.282L31.5624 550.281C30.3016 550.281 29.28 551.283 29.28 552.519L29.28 555.669L66.0363 555.669Z" fill="#48367D"/>
<path d="M34.99 552.997C34.99 553.614 34.4796 554.115 33.8494 554.115C33.2192 554.115 32.708 553.614 32.708 552.997C32.708 552.379 33.2192 551.878 33.8494 551.878C34.4796 551.878 34.99 552.379 34.99 552.997Z" fill="white"/>
<path d="M38.7349 552.976C38.7349 553.593 38.224 554.094 37.5942 554.094C36.9636 554.094 36.4528 553.593 36.4528 552.976C36.4528 552.358 36.9636 551.857 37.5942 551.857C38.224 551.857 38.7349 552.358 38.7349 552.976Z" fill="white"/>
<path d="M42.5395 552.976C42.5395 553.593 42.0286 554.094 41.3988 554.094C40.7686 554.094 40.2574 553.593 40.2574 552.976C40.2574 552.358 40.7686 551.857 41.3988 551.857C42.0286 551.857 42.5395 552.358 42.5395 552.976Z" fill="white"/>
<path d="M66.2667 248.027C66.2667 262.534 54.5069 274.293 39.9999 274.293C25.4931 274.293 13.733 262.534 13.733 248.027C13.733 233.52 25.4932 221.76 39.9999 221.76C54.5069 221.76 66.2668 233.52 66.2667 248.027Z" fill="#EEEDF3"/>
<path d="M52.5801 261.766L40.2497 261.766C38.6812 261.766 37.4097 260.494 37.4097 258.926L37.4097 233.027C37.4097 231.458 38.6812 230.187 40.2497 230.187L52.5801 230.187C54.1484 230.187 55.4201 231.458 55.4201 233.027L55.4201 258.926C55.4201 260.494 54.1484 261.766 52.5801 261.766Z" fill="#FF5B23"/>
<path d="M55.4201 257.613L37.4097 257.613L37.4097 234.368L55.4201 234.368L55.4201 257.613Z" fill="#FF975E"/>
<path d="M45.6618 249.611L16.985 262.521L22.6098 274.28L35.5795 262.813C35.6481 262.75 45.7468 249.572 45.6618 249.611Z" fill="#48367D"/>
<path d="M46.1253 249.251L24.4755 265.456L36.7523 269.682C37.3387 269.884 37.9884 269.684 38.3607 269.188L46.3579 249.576C46.568 249.313 46.2579 249.165 46.1253 249.251Z" fill="#C8C5D6"/>
<path d="M24.4751 265.456L22.6094 274.28L31.6979 267.942L24.4751 265.456Z" fill="white"/>
<path d="M46.1603 249.238L8.67309 258.461C7.99877 258.659 7.98555 259.61 8.65451 259.826L16.9854 262.522L46.275 249.414C46.3462 249.381 46.3683 249.2 46.1603 249.238Z" fill="#C8C5D6"/>
<path d="M124.214 399.947C124.214 414.454 112.454 426.214 97.9469 426.214C83.4401 426.214 71.68 414.454 71.68 399.947C71.68 385.44 83.4401 373.68 97.9469 373.68C112.454 373.68 124.214 385.44 124.214 399.947Z" fill="#EEEDF3"/>
<path fill-rule="evenodd" clip-rule="evenodd" d="M99.7589 426.182C99.7584 419.111 99.7667 412.439 99.7968 410.677C99.9438 402.082 108.418 403.913 108.418 403.913L118.696 410.677L118.693 416.122C114.229 421.842 107.447 425.666 99.7589 426.182Z" fill="#FFD3BB"/>
<path d="M116.532 416.191L101.341 416.124C99.8784 416.118 98.6978 414.927 98.7042 413.465L98.8378 382.84C98.8442 381.378 100.035 380.197 101.497 380.204L116.689 380.27C118.151 380.276 119.332 381.467 119.325 382.93L119.192 413.554C119.185 415.016 117.995 416.197 116.532 416.191Z" fill="#FF5A23"/>
<path d="M119.237 411.547L98.7493 411.458L98.8646 385.017L119.352 385.107L119.237 411.547Z" fill="#FF985F"/>
<path fill-rule="evenodd" clip-rule="evenodd" d="M110.014 394.604C109.636 394.481 109.429 394.075 109.552 393.697L110.179 391.766C110.302 391.388 110.708 391.181 111.086 391.304C111.465 391.427 111.672 391.833 111.549 392.211L110.921 394.142C110.799 394.52 110.392 394.727 110.014 394.604Z" fill="#FFF4EC"/>
<path fill-rule="evenodd" clip-rule="evenodd" d="M107.798 396.115C107.564 396.437 107.114 396.508 106.792 396.274L105.15 395.081C104.828 394.847 104.757 394.397 104.991 394.075C105.224 393.754 105.675 393.682 105.996 393.916L107.638 395.109C107.96 395.343 108.031 395.793 107.798 396.115Z" fill="#FFF4EC"/>
<path fill-rule="evenodd" clip-rule="evenodd" d="M111.05 398.427C110.769 398.708 110.769 399.164 111.05 399.445L112.485 400.88C112.767 401.162 113.223 401.162 113.504 400.88C113.785 400.599 113.785 400.143 113.504 399.862L112.068 398.427C111.787 398.146 111.331 398.146 111.05 398.427Z" fill="#FFF4EC"/>
<path fill-rule="evenodd" clip-rule="evenodd" d="M108.658 398.073C108.424 397.752 107.974 397.68 107.652 397.914L106.01 399.107C105.689 399.341 105.617 399.791 105.851 400.113C106.085 400.434 106.535 400.506 106.857 400.272L108.499 399.079C108.821 398.845 108.892 398.395 108.658 398.073Z" fill="#FFF4EC"/>
<path fill-rule="evenodd" clip-rule="evenodd" d="M111.928 396.794C111.928 397.192 112.25 397.514 112.648 397.514L114.678 397.514C115.075 397.514 115.398 397.192 115.398 396.794C115.398 396.397 115.075 396.074 114.678 396.074L112.648 396.074C112.25 396.074 111.928 396.397 111.928 396.794Z" fill="#FFF4EC"/>
<path d="M101.782 401.838L96.4861 401.079C95.0637 400.876 94.0759 399.558 94.2794 398.136C94.4828 396.713 95.8014 395.725 97.2233 395.929L102.519 396.687C103.941 396.89 104.929 398.208 104.726 399.631C104.522 401.053 103.204 402.041 101.782 401.838Z" fill="#FFD3BB"/>
<path d="M101.153 406.692L95.8569 405.933C94.4345 405.73 93.4467 404.412 93.6502 402.989C93.8537 401.567 95.1717 400.579 96.5941 400.783L101.89 401.541C103.312 401.744 104.3 403.062 104.096 404.485C103.893 405.907 102.575 406.895 101.153 406.692Z" fill="#FFD3BB"/>
<path d="M100.986 411.549L95.6898 410.791C94.2679 410.587 93.2793 409.269 93.4831 407.847C93.6868 406.425 95.0048 405.437 96.427 405.64L101.723 406.399C103.145 406.602 104.133 407.92 103.93 409.342C103.726 410.765 102.408 411.753 100.986 411.549Z" fill="#FFD3BB"/>
<path fill-rule="evenodd" clip-rule="evenodd" d="M122.37 409.632C121.409 412.052 120.099 414.296 118.502 416.301L114.651 418.465L112.896 420.044C112.713 419.761 112.554 419.533 112.416 419.336C111.84 418.513 111.641 418.229 111.648 416.715C111.67 411.579 115.852 407.434 120.987 407.456L122.37 409.632Z" fill="#FFD3BB"/>
<path fill-rule="evenodd" clip-rule="evenodd" d="M114.743 420.112C113.973 419.547 113.666 418.524 114.107 416.947C115.147 413.227 116.427 411.827 117.947 410.907C119.467 409.987 119.227 407.547 119.227 407.547C119.227 407.547 117.427 405.147 117.467 402.667C117.473 402.306 117.475 401.941 117.476 401.577C117.487 399.443 117.498 397.357 118.307 396.427C119.107 395.507 120.347 394.867 121.667 395.227C122.987 395.587 123.68 396.864 123.587 397.947C123.549 398.389 123.475 398.807 123.401 399.228C123.24 400.143 123.075 401.075 123.267 402.307C123.402 403.172 123.622 403.706 123.888 404.211C122.836 410.574 119.497 416.165 114.743 420.112Z" fill="#FFD3BB"/>
<path d="M66.2137 475.947C66.2137 490.454 54.4536 502.214 39.9469 502.214C25.4401 502.214 13.68 490.454 13.68 475.947C13.68 461.441 25.4401 449.68 39.9469 449.68C54.4536 449.68 66.2138 461.441 66.2137 475.947Z" fill="#EEEDF3"/>
<path fill-rule="evenodd" clip-rule="evenodd" d="M42.9643 502.042C42.9593 492.477 42.9639 481.93 43.005 479.532C43.1689 469.946 52.6214 471.988 52.6214 471.988L64.0862 479.532L64.0823 486.328C60.4373 494.791 52.472 500.954 42.9643 502.042Z" fill="#FFD3BB"/>
<path d="M60.6755 482.296L44.046 485.554C42.4454 485.867 40.8932 484.823 40.5797 483.223L34.0134 449.699C33.6999 448.098 34.7437 446.546 36.3443 446.233L52.9738 442.976C54.5747 442.662 56.1266 443.706 56.4401 445.306L63.0064 478.83C63.3199 480.431 62.2764 481.983 60.6755 482.296Z" fill="#FF5A23"/>
<path d="M62.6155 476.623L40.1888 481.016L34.5197 452.073L56.9464 447.68L62.6155 476.623Z" fill="#FF985F"/>
<path d="M43.2561 469.883L40.9975 458.338C40.9813 458.255 40.9932 458.17 41.0309 458.102L42.9497 454.613C42.9869 454.545 43.0469 454.499 43.1163 454.486L51.3845 452.866C51.7973 452.786 52.2099 453.12 52.3065 453.614L55.0406 467.576C55.1373 468.069 54.8816 468.535 54.4687 468.616L44.1782 470.631C43.7656 470.712 43.3525 470.377 43.2561 469.883Z" fill="#EEEDF3"/>
<path d="M41.0832 457.519L42.5268 454.894C42.6369 454.694 42.8099 454.559 43.0095 454.507L43.5158 457.092C43.5802 457.421 43.4095 457.732 43.1345 457.785L40.9735 458.209C40.9364 457.965 40.9731 457.719 41.0832 457.519Z" fill="#C8C5D6"/>
<path fill-rule="evenodd" clip-rule="evenodd" d="M51.1717 458.325C51.3901 458.426 51.4854 458.685 51.3845 458.903L48.4624 465.229C48.4138 465.335 48.3253 465.416 48.2164 465.456C48.1075 465.496 47.9873 465.49 47.8823 465.441L45.236 464.203C45.0182 464.101 44.9242 463.841 45.0262 463.623C45.1282 463.406 45.3875 463.312 45.6054 463.414L47.8551 464.467L50.5936 458.538C50.6945 458.32 50.9533 458.224 51.1717 458.325Z" fill="#48367D"/>
<path d="M40.2137 471.167L34.2644 471.63C32.6665 471.754 31.2706 470.56 31.1462 468.962C31.0217 467.364 32.2168 465.968 33.8143 465.844L39.7638 465.381C41.3614 465.256 42.7574 466.451 42.8817 468.048C43.0062 469.647 41.8117 471.043 40.2137 471.167Z" fill="#FFD3BB"/>
<path d="M40.7094 476.604L34.7601 477.067C33.1621 477.191 31.7662 475.997 31.6418 474.399C31.5173 472.801 32.7119 471.405 34.3098 471.281L40.2591 470.818C41.857 470.693 43.253 471.888 43.3774 473.486C43.5018 475.084 42.3073 476.48 40.7094 476.604Z" fill="#FFD3BB"/>
<path d="M41.7091 481.933L35.7596 482.396C34.1621 482.52 32.7654 481.325 32.6413 479.728C32.5171 478.13 33.7117 476.734 35.3093 476.609L41.2589 476.147C42.8565 476.022 44.2528 477.217 44.3772 478.814C44.5016 480.412 43.3068 481.809 41.7091 481.933Z" fill="#FFD3BB"/>
<path fill-rule="evenodd" clip-rule="evenodd" d="M62.7423 489.006C62.3636 489.154 61.9531 489.296 61.5104 489.427C58.3425 490.364 53.613 486.259 53.613 486.259C53.613 486.259 53.7469 484.564 53.9699 482.735C54.193 480.905 55.3531 479.254 55.9331 478.719C53.613 478.228 51.9621 477.425 50.7574 475.819C49.5075 474.152 48.6158 472.696 48.3927 470.108C48.1696 467.52 49.1066 466.583 50.222 466.047C51.3375 465.512 52.3191 465.78 53.3899 466.315C54.2232 466.732 54.7157 468.327 54.8177 469.483C54.9515 471 55.2939 471.371 55.9778 472.026C56.5043 472.531 57.6286 472.517 58.3871 472.428C59.1456 472.339 59.8339 472.379 61.1534 472.696C62.2689 472.963 63.3844 473.722 64.3213 474.971C65.3415 476.331 65.6821 477.982 65.9052 479.985C65.4051 483.226 64.3128 486.271 62.7423 489.006Z" fill="#FFD3BB"/>
<circle cx="40.5" cy="95.5" r="4.5" fill="white" stroke="#FF5B24" stroke-width="2"/>
<circle cx="40.5" cy="19.5" r="4.5" fill="white" stroke="#FF5B24" stroke-width="2"/>
<circle cx="40.5" cy="171.5" r="4.5" fill="white" stroke="#FF5B24" stroke-width="2"/>
<circle cx="40.5" cy="323.5" r="4.5" fill="white" stroke="#FF5B24" stroke-width="2"/>
</g>
<defs>
<clipPath id="clip0">
<rect width="243" height="591" fill="white"/>
</clipPath>
</defs>
</svg>
