<svg width="270" height="376" viewBox="0 0 270 376" fill="none" xmlns="http://www.w3.org/2000/svg">
<path d="M17.6458 37.0587C15.4761 29.4452 21.6156 22.1479 29.5194 22.5995C34.0865 22.8604 38.1308 25.7385 39.6904 30.0389C49.9451 58.3142 44.3056 62.3595 87.1019 92.7342C133.205 125.456 98.449 129.755 67.0581 108.212C39.5906 89.3622 27.2269 70.678 17.6458 37.0587Z" fill="#FFAD91"/>
<path d="M202.9 26.9345C204.507 19.5057 198.513 12.6817 190.923 13.0818C184.474 13.4217 179.603 18.9089 179.062 25.3438C176.047 61.254 151.697 76.2407 139.298 88.3356C125.635 101.663 136.733 129.287 159.342 103.814C180.075 80.4534 192.163 76.554 202.9 26.9345Z" fill="#FFAD91"/>
<circle cx="116.638" cy="121.993" r="37.6535" fill="#FF5B24"/>
<rect x="58.5396" y="106.941" width="36.1988" height="38.219" rx="10.6629" transform="rotate(-55.7897 58.5396 106.941)" fill="#FF5B24"/>
<path d="M155.957 133.323L153.958 119.661L138.963 122.326L127.301 109.997L115.305 103C103.198 101.001 78.9844 101.734 78.9844 120.661C78.9844 139.587 85.2044 163.423 88.3144 172.976L124.635 170.31L155.957 133.323Z" fill="#FF5B24"/>
<rect x="144.797" y="73.0073" width="36.1988" height="38.219" rx="10.6629" transform="rotate(49.7219 144.797 73.0073)" fill="#FF5B24"/>
<path fill-rule="evenodd" clip-rule="evenodd" d="M247.255 165.978L247.38 166.212C242.603 139.003 218.854 118.328 190.277 118.328C158.255 118.328 132.297 144.286 132.297 176.307C132.297 192.426 138.874 207.009 149.492 217.517C140.607 208.086 138.293 198.287 138.293 194.301C142.292 193.635 148.623 190.636 156.287 185.304C163.951 179.973 168.616 171.309 170.282 166.977C171.948 162.646 176.28 152.316 191.941 152.316C207.602 152.316 215.266 167.311 215.266 173.975C215.266 179.306 213.711 183.749 212.933 185.304L247.255 165.978ZM206.22 219.093L201.604 222.291C188.959 231.846 172.047 232.632 158.865 225.049C167.916 230.894 178.7 234.287 190.277 234.287C197.804 234.287 204.997 232.852 211.596 230.242L206.22 219.093Z" fill="#49367E"/>
<rect x="195.609" y="223.078" width="18.1704" height="62.7429" rx="9.08519" transform="rotate(-28.9145 195.609 223.078)" fill="black"/>
<rect x="261.199" y="156.98" width="18.1704" height="62.7429" rx="9.08519" transform="rotate(61.0948 261.199 156.98)" fill="black"/>
<path d="M88.3164 173.306C95.5139 183.436 104.422 188.19 107.976 189.3L154.626 162.643L155.626 129.988L88.3164 173.306Z" fill="#49367E"/>
<path fill-rule="evenodd" clip-rule="evenodd" d="M110.617 161.518L155.625 130.655L155.626 130.653L165.621 128.321L191.946 118.991L192.337 118.484C217.746 123.713 238.311 142.212 246.47 166.418L212.937 185.3C213.714 183.745 215.269 179.303 215.269 173.971C215.269 167.307 207.605 152.312 191.944 152.312C176.283 152.312 171.951 162.642 170.285 166.974C168.619 171.305 163.954 179.969 156.29 185.3C148.626 190.632 142.295 193.631 138.296 194.297C138.296 198.629 141.029 209.825 151.958 219.955C165.62 232.617 186.613 233.617 201.608 222.287L201.609 222.287V225.287L212.508 253.361C202.153 259.043 190.262 262.274 177.617 262.274C137.499 262.274 104.976 229.752 104.976 189.633C104.976 179.665 106.984 170.166 110.617 161.518Z" fill="#49367E"/>
<circle cx="107.309" cy="49.351" r="7.66398" fill="#FF5B24"/>
<circle cx="116.304" cy="55.0146" r="5.33146" fill="#FF5B24"/>
<rect x="100.312" y="51.0151" width="24.658" height="30.6559" rx="11.9958" fill="#FFAD91"/>
<rect x="98.3125" y="51.6836" width="8.66363" height="13.9951" rx="4.33181" fill="#FF5B24"/>
<circle cx="100.646" cy="65.3446" r="3.66538" fill="#FFAD91"/>
<ellipse cx="161.5" cy="359.5" rx="64.5" ry="16.5" fill="#F8ECE4"/>
</svg>
