<svg width="1049" height="340" viewBox="0 0 1049 340" fill="none" xmlns="http://www.w3.org/2000/svg">
<g clip-path="url(#clip0)">
<line x1="964" y1="84" x2="964" y2="172" stroke="#49367E" stroke-width="2" stroke-dasharray="8 8"/>
<line x1="810" y1="85" x2="965" y2="85" stroke="#49367E" stroke-width="2" stroke-dasharray="8 8"/>
<line x1="73" y1="85" x2="786" y2="84.9999" stroke="#FF5B24" stroke-width="2"/>
<path d="M922.067 301.488L922.051 301.616C921.859 303.136 920.627 304.192 918.739 304.192C916.755 304.192 914.771 303.008 914.771 300.048C914.771 297.232 916.419 295.808 918.627 295.808C920.307 295.808 921.731 296.448 922.003 298.448L924.115 298.128C923.651 294.784 920.755 293.76 918.755 293.76C915.171 293.76 912.515 296.336 912.515 300.048C912.515 303.6 915.123 306.24 918.163 306.24C920.099 306.24 921.475 305.04 922.115 303.76L922.131 303.76L922.499 306L924.275 306L924.275 299.6L918.915 299.6L918.915 301.488L922.067 301.488ZM930.934 298.256C932.23 298.256 933.254 298.864 933.414 300.4L928.406 300.4C928.678 298.976 929.606 298.256 930.934 298.256ZM935.302 301.824L935.302 301.168C935.302 298.448 933.51 296.528 931.014 296.528C928.342 296.528 926.31 298.4 926.31 301.36C926.31 304.4 928.422 306.24 931.142 306.24C932.838 306.24 934.886 305.264 935.238 303.136L933.382 302.816C933.174 303.872 932.566 304.512 931.062 304.512C929.398 304.512 928.486 303.44 928.342 301.824L935.302 301.824ZM938.013 294.56L938.013 296.784L936.301 296.784L936.301 298.4L938.013 298.4L938.013 303.408C938.013 305.104 938.861 306.16 940.701 306.16C941.261 306.16 941.917 306.016 942.397 305.872L942.077 304.256C941.709 304.352 941.485 304.4 941.117 304.4C940.301 304.4 940.013 304.032 940.013 303.312L940.013 298.4L942.317 298.4L942.317 296.784L940.013 296.784L940.013 294.24L938.013 294.56ZM956.83 306L956.83 296.784L954.83 296.784L954.83 302.144C954.83 303.712 953.79 304.432 952.446 304.432C951.214 304.432 950.606 303.888 950.606 302.464L950.606 296.784L948.606 296.784L948.606 303.216C948.606 305.344 950.142 306.24 951.678 306.24C952.83 306.24 954.11 305.712 954.83 304.448L954.83 306L956.83 306ZM964.509 296.528C962.941 296.528 961.981 297.52 961.389 298.592L961.389 296.784L959.389 296.784L959.389 309.2L961.389 309.2L961.389 304.256C962.157 305.568 963.149 306.24 964.317 306.24C966.461 306.24 968.557 304.608 968.557 301.248C968.557 298.032 966.381 296.528 964.509 296.528ZM963.965 298.256C965.229 298.256 966.541 299.264 966.541 301.36C966.541 303.488 965.229 304.496 963.949 304.496C962.605 304.496 961.389 303.408 961.389 301.36C961.389 299.216 962.605 298.256 963.965 298.256ZM979.296 293.6L977.296 293.6L977.296 298.592C976.64 297.136 975.648 296.528 974.4 296.528C972.256 296.528 970.128 298.08 970.128 301.296C970.128 304.672 972.272 306.24 974.144 306.24C975.824 306.24 976.832 305.36 977.296 304.256L977.296 306L979.296 306L979.296 293.6ZM974.736 298.256C976.08 298.256 977.296 299.328 977.296 301.408C977.296 303.552 976.08 304.496 974.72 304.496C973.456 304.496 972.144 303.504 972.144 301.408C972.144 299.28 973.472 298.256 974.736 298.256ZM985.427 306.24C987.075 306.24 988.083 305.232 988.547 304.096L988.547 306L990.547 306L990.547 296.784L988.547 296.784L988.547 298.592C987.891 297.136 986.883 296.528 985.443 296.528C983.507 296.528 981.379 298.08 981.379 301.296C981.379 304.672 983.523 306.24 985.427 306.24ZM985.987 298.256C987.331 298.256 988.547 299.28 988.547 301.408C988.547 303.6 987.331 304.496 985.971 304.496C984.707 304.496 983.395 303.552 983.395 301.408C983.395 299.232 984.723 298.256 985.987 298.256ZM993.845 294.56L993.845 296.784L992.133 296.784L992.133 298.4L993.845 298.4L993.845 303.408C993.845 305.104 994.693 306.16 996.533 306.16C997.093 306.16 997.749 306.016 998.229 305.872L997.909 304.256C997.541 304.352 997.317 304.4 996.949 304.4C996.133 304.4 995.845 304.032 995.845 303.312L995.845 298.4L998.149 298.4L998.149 296.784L995.845 296.784L995.845 294.24L993.845 294.56ZM1004.19 298.256C1005.49 298.256 1006.51 298.864 1006.67 300.4L1001.66 300.4C1001.93 298.976 1002.86 298.256 1004.19 298.256ZM1008.56 301.824L1008.56 301.168C1008.56 298.448 1006.77 296.528 1004.27 296.528C1001.6 296.528 999.566 298.4 999.566 301.36C999.566 304.4 1001.68 306.24 1004.4 306.24C1006.09 306.24 1008.14 305.264 1008.49 303.136L1006.64 302.816C1006.43 303.872 1005.82 304.512 1004.32 304.512C1002.65 304.512 1001.74 303.44 1001.6 301.824L1008.56 301.824ZM1011.27 294.56L1011.27 296.784L1009.56 296.784L1009.56 298.4L1011.27 298.4L1011.27 303.408C1011.27 305.104 1012.12 306.16 1013.96 306.16C1014.52 306.16 1015.17 306.016 1015.65 305.872L1015.33 304.256C1014.96 304.352 1014.74 304.4 1014.37 304.4C1013.56 304.4 1013.27 304.032 1013.27 303.312L1013.27 298.4L1015.57 298.4L1015.57 296.784L1013.27 296.784L1013.27 294.24L1011.27 294.56ZM915.12 323.784L915.12 333L917.12 333L917.12 323.784L915.12 323.784ZM916.112 319.8C915.44 319.8 914.912 320.344 914.912 321C914.912 321.656 915.44 322.2 916.112 322.2C916.784 322.2 917.312 321.656 917.312 321C917.312 320.344 916.784 319.8 916.112 319.8ZM923.986 325.336C925.074 325.336 925.938 325.976 925.938 327.688L925.938 333L927.938 333L927.939 326.824C927.939 324.344 926.37 323.528 924.722 323.528C923.634 323.528 922.37 323.976 921.714 325.144L921.714 323.784L919.714 323.784L919.714 333L921.714 333L921.714 327.736C921.714 326.088 922.658 325.336 923.986 325.336ZM930.978 333L932.978 333L932.978 325.4L935.266 325.4L935.266 323.784L932.978 323.784L932.978 323.416C932.978 322.472 933.426 321.976 934.242 321.976C934.674 321.976 935.042 322.04 935.426 322.152L935.698 320.6C935.25 320.44 934.706 320.296 934.034 320.296C932.194 320.296 930.978 321.48 930.978 323.432L930.978 323.784L929.714 323.784L929.714 325.4L930.978 325.4L930.978 333ZM940.7 323.528C938.204 323.528 936.14 325.352 936.14 328.376C936.14 331.4 938.204 333.24 940.7 333.24C943.196 333.24 945.26 331.4 945.26 328.376C945.26 325.352 943.196 323.528 940.7 323.528ZM940.7 325.256C942.076 325.256 943.244 326.264 943.244 328.376C943.244 330.488 942.076 331.512 940.7 331.512C939.324 331.512 938.156 330.488 938.156 328.376C938.156 326.264 939.324 325.256 940.7 325.256ZM951.695 325.688C952.191 325.688 952.543 325.752 952.895 325.896L953.087 323.656C952.895 323.56 952.623 323.528 952.383 323.528C951.471 323.528 950.031 324.056 949.279 325.992L949.279 323.784L947.279 323.784L947.279 333L949.279 333L949.279 328.968C949.279 326.408 950.399 325.688 951.695 325.688ZM964.816 325.336C965.952 325.336 966.816 325.976 966.816 327.688L966.816 333L968.816 333L968.816 326.824C968.816 324.344 967.296 323.528 965.616 323.528C964.592 323.528 963.296 323.944 962.608 325.32C962.112 324.008 960.944 323.528 959.712 323.528C958.608 323.528 957.28 323.96 956.624 325.144L956.624 323.784L954.624 323.784L954.624 333L956.624 333L956.624 327.736C956.624 326.088 957.568 325.336 958.848 325.336C959.984 325.336 960.848 325.976 960.848 327.688L960.848 333L962.848 333L962.848 327.736C962.848 326.088 963.68 325.336 964.816 325.336ZM974.864 333.24C976.512 333.24 977.52 332.232 977.984 331.096L977.984 333L979.984 333L979.984 323.784L977.984 323.784L977.984 325.592C977.328 324.136 976.32 323.528 974.88 323.528C972.944 323.528 970.816 325.08 970.816 328.296C970.816 331.672 972.96 333.24 974.864 333.24ZM975.424 325.256C976.768 325.256 977.984 326.28 977.984 328.408C977.984 330.6 976.768 331.496 975.408 331.496C974.144 331.496 972.832 330.552 972.832 328.408C972.832 326.232 974.16 325.256 975.424 325.256ZM983.282 321.56L983.282 323.784L981.57 323.784L981.57 325.4L983.282 325.4L983.282 330.408C983.282 332.104 984.13 333.16 985.97 333.16C986.53 333.16 987.186 333.016 987.666 332.872L987.346 331.256C986.978 331.352 986.754 331.4 986.386 331.4C985.57 331.4 985.282 331.032 985.282 330.312L985.282 325.4L987.586 325.4L987.586 323.784L985.282 323.784L985.282 321.24L983.282 321.56ZM989.579 323.784L989.579 333L991.579 333L991.579 323.784L989.579 323.784ZM990.571 319.8C989.899 319.8 989.371 320.344 989.371 321C989.371 321.656 989.899 322.2 990.571 322.2C991.243 322.2 991.771 321.656 991.771 321C991.771 320.344 991.243 319.8 990.571 319.8ZM998.158 323.528C995.662 323.528 993.598 325.352 993.598 328.376C993.598 331.4 995.662 333.24 998.158 333.24C1000.65 333.24 1002.72 331.4 1002.72 328.376C1002.72 325.352 1000.65 323.528 998.158 323.528ZM998.158 325.256C999.534 325.256 1000.7 326.264 1000.7 328.376C1000.7 330.488 999.534 331.512 998.158 331.512C996.782 331.512 995.614 330.488 995.614 328.376C995.614 326.264 996.782 325.256 998.158 325.256ZM1009.01 325.336C1010.1 325.336 1010.96 325.976 1010.96 327.688L1010.96 333L1012.96 333L1012.96 326.824C1012.96 324.344 1011.39 323.528 1009.74 323.528C1008.66 323.528 1007.39 323.976 1006.74 325.144L1006.74 323.784L1004.74 323.784L1004.74 333L1006.74 333L1006.74 327.736C1006.74 326.088 1007.68 325.336 1009.01 325.336Z" fill="#49367E"/>
<path d="M725.43 178.488L725.414 178.616C725.222 180.136 723.99 181.192 722.102 181.192C720.118 181.192 718.134 180.008 718.134 177.048C718.134 174.232 719.782 172.808 721.99 172.808C723.67 172.808 725.094 173.448 725.366 175.448L727.478 175.128C727.014 171.784 724.118 170.76 722.118 170.76C718.534 170.76 715.878 173.336 715.878 177.048C715.878 180.6 718.486 183.24 721.526 183.24C723.462 183.24 724.838 182.04 725.478 180.76L725.494 180.76L725.862 183L727.638 183L727.638 176.6L722.278 176.6L722.278 178.488L725.43 178.488ZM734.265 175.256C735.561 175.256 736.585 175.864 736.745 177.4L731.737 177.4C732.009 175.976 732.937 175.256 734.265 175.256ZM738.633 178.824L738.633 178.168C738.633 175.448 736.841 173.528 734.345 173.528C731.673 173.528 729.641 175.4 729.641 178.36C729.641 181.4 731.753 183.24 734.473 183.24C736.169 183.24 738.217 182.264 738.569 180.136L736.713 179.816C736.505 180.872 735.897 181.512 734.393 181.512C732.729 181.512 731.817 180.44 731.673 178.824L738.633 178.824ZM741.312 171.56L741.312 173.784L739.6 173.784L739.6 175.4L741.312 175.4L741.312 180.408C741.312 182.104 742.16 183.16 744 183.16C744.56 183.16 745.216 183.016 745.696 182.872L745.376 181.256C745.008 181.352 744.784 181.4 744.416 181.4C743.6 181.4 743.312 181.032 743.312 180.312L743.312 175.4L745.616 175.4L745.616 173.784L743.312 173.784L743.312 171.24L741.312 171.56ZM751.889 173.784L751.889 183L753.889 183L753.889 173.784L751.889 173.784ZM752.881 169.8C752.209 169.8 751.681 170.344 751.681 171C751.681 171.656 752.209 172.2 752.881 172.2C753.553 172.2 754.081 171.656 754.081 171C754.081 170.344 753.553 169.8 752.881 169.8ZM760.724 175.336C761.812 175.336 762.676 175.976 762.676 177.688L762.676 183L764.676 183L764.676 176.824C764.676 174.344 763.108 173.528 761.46 173.528C760.372 173.528 759.108 173.976 758.452 175.144L758.452 173.784L756.452 173.784L756.452 183L758.452 183L758.452 177.736C758.452 176.088 759.396 175.336 760.724 175.336ZM767.683 183L769.683 183L769.683 175.4L771.971 175.4L771.971 173.784L769.683 173.784L769.683 173.416C769.683 172.472 770.131 171.976 770.947 171.976C771.379 171.976 771.747 172.04 772.131 172.152L772.403 170.6C771.955 170.44 771.411 170.296 770.739 170.296C768.899 170.296 767.683 171.48 767.683 173.432L767.683 173.784L766.419 173.784L766.419 175.4L767.683 175.4L767.683 183ZM777.373 173.528C774.877 173.528 772.813 175.352 772.813 178.376C772.813 181.4 774.877 183.24 777.373 183.24C779.869 183.24 781.933 181.4 781.933 178.376C781.933 175.352 779.869 173.528 777.373 173.528ZM777.373 175.256C778.749 175.256 779.917 176.264 779.917 178.376C779.917 180.488 778.749 181.512 777.373 181.512C775.997 181.512 774.829 180.488 774.829 178.376C774.829 176.264 775.997 175.256 777.373 175.256ZM788.337 175.688C788.833 175.688 789.185 175.752 789.537 175.896L789.729 173.656C789.537 173.56 789.265 173.528 789.025 173.528C788.113 173.528 786.673 174.056 785.921 175.992L785.921 173.784L783.921 173.784L783.921 183L785.921 183L785.921 178.968C785.921 176.408 787.041 175.688 788.337 175.688ZM801.425 175.336C802.561 175.336 803.425 175.976 803.425 177.688L803.425 183L805.425 183L805.425 176.824C805.425 174.344 803.905 173.528 802.225 173.528C801.201 173.528 799.905 173.944 799.217 175.32C798.721 174.008 797.553 173.528 796.321 173.528C795.217 173.528 793.889 173.96 793.233 175.144L793.233 173.784L791.233 173.784L791.233 183L793.233 183L793.233 177.736C793.233 176.088 794.177 175.336 795.457 175.336C796.593 175.336 797.457 175.976 797.457 177.688L797.457 183L799.457 183L799.457 177.736C799.457 176.088 800.289 175.336 801.425 175.336ZM811.441 183.24C813.089 183.24 814.097 182.232 814.561 181.096L814.561 183L816.561 183L816.561 173.784L814.561 173.784L814.561 175.592C813.905 174.136 812.897 173.528 811.457 173.528C809.521 173.528 807.393 175.08 807.393 178.296C807.393 181.672 809.537 183.24 811.441 183.24ZM812.001 175.256C813.345 175.256 814.561 176.28 814.561 178.408C814.561 180.6 813.345 181.496 811.985 181.496C810.721 181.496 809.409 180.552 809.409 178.408C809.409 176.232 810.737 175.256 812.001 175.256ZM819.828 171.56L819.828 173.784L818.116 173.784L818.116 175.4L819.828 175.4L819.828 180.408C819.828 182.104 820.676 183.16 822.516 183.16C823.076 183.16 823.732 183.016 824.212 182.872L823.892 181.256C823.524 181.352 823.3 181.4 822.932 181.4C822.116 181.4 821.828 181.032 821.828 180.312L821.828 175.4L824.132 175.4L824.132 173.784L821.828 173.784L821.828 171.24L819.828 171.56ZM826.092 173.784L826.092 183L828.092 183L828.092 173.784L826.092 173.784ZM827.084 169.8C826.412 169.8 825.884 170.344 825.884 171C825.884 171.656 826.412 172.2 827.084 172.2C827.756 172.2 828.284 171.656 828.284 171C828.284 170.344 827.756 169.8 827.084 169.8ZM834.639 173.528C832.143 173.528 830.079 175.352 830.079 178.376C830.079 181.4 832.143 183.24 834.639 183.24C837.135 183.24 839.199 181.4 839.199 178.376C839.199 175.352 837.135 173.528 834.639 173.528ZM834.639 175.256C836.015 175.256 837.183 176.264 837.183 178.376C837.183 180.488 836.015 181.512 834.639 181.512C833.263 181.512 832.095 180.488 832.095 178.376C832.095 176.264 833.263 175.256 834.639 175.256ZM845.458 175.336C846.546 175.336 847.41 175.976 847.41 177.688L847.41 183L849.41 183L849.41 176.824C849.41 174.344 847.842 173.528 846.194 173.528C845.106 173.528 843.842 173.976 843.186 175.144L843.186 173.784L841.186 173.784L841.186 183L843.186 183L843.186 177.736C843.186 176.088 844.13 175.336 845.458 175.336ZM743.597 210.24C745.245 210.24 746.253 209.232 746.717 208.096L746.717 210L748.717 210L748.717 200.784L746.717 200.784L746.717 202.592C746.061 201.136 745.053 200.528 743.613 200.528C741.677 200.528 739.549 202.08 739.549 205.296C739.549 208.672 741.693 210.24 743.597 210.24ZM744.157 202.256C745.501 202.256 746.717 203.28 746.717 205.408C746.717 207.6 745.501 208.496 744.141 208.496C742.877 208.496 741.565 207.552 741.565 205.408C741.565 203.232 742.893 202.256 744.157 202.256ZM751.28 197.6L751.28 210L753.28 210L753.28 208.48C753.936 209.552 754.96 210.24 756.208 210.24C758.352 210.24 760.448 208.608 760.448 205.248C760.448 202.032 758.272 200.528 756.4 200.528C754.768 200.528 753.792 201.536 753.28 202.384L753.28 197.6L751.28 197.6ZM755.856 202.256C757.12 202.256 758.432 203.264 758.432 205.36C758.432 207.488 757.104 208.496 755.84 208.496C754.496 208.496 753.28 207.408 753.28 205.36C753.28 203.216 754.496 202.256 755.856 202.256ZM766.483 200.528C763.987 200.528 761.923 202.352 761.923 205.376C761.923 208.4 763.987 210.24 766.483 210.24C768.979 210.24 771.043 208.4 771.043 205.376C771.043 202.352 768.979 200.528 766.483 200.528ZM766.483 202.256C767.859 202.256 769.027 203.264 769.027 205.376C769.027 207.488 767.859 208.512 766.483 208.512C765.107 208.512 763.939 207.488 763.939 205.376C763.939 203.264 765.107 202.256 766.483 202.256ZM781.206 210L781.206 200.784L779.206 200.784L779.206 206.144C779.206 207.712 778.166 208.432 776.822 208.432C775.59 208.432 774.982 207.888 774.982 206.464L774.982 200.784L772.982 200.784L772.982 207.216C772.982 209.344 774.518 210.24 776.054 210.24C777.206 210.24 778.486 209.712 779.206 208.448L779.206 210L781.206 210ZM784.437 198.56L784.437 200.784L782.725 200.784L782.725 202.4L784.437 202.4L784.437 207.408C784.437 209.104 785.285 210.16 787.125 210.16C787.685 210.16 788.341 210.016 788.821 209.872L788.501 208.256C788.133 208.352 787.909 208.4 787.541 208.4C786.725 208.4 786.437 208.032 786.437 207.312L786.437 202.4L788.741 202.4L788.741 200.784L786.437 200.784L786.437 198.24L784.437 198.56ZM803.19 210L803.19 200.784L801.19 200.784L801.19 206.144C801.19 207.712 800.15 208.432 798.806 208.432C797.574 208.432 796.966 207.888 796.966 206.464L796.966 200.784L794.966 200.784L794.966 207.216C794.966 209.344 796.502 210.24 798.038 210.24C799.19 210.24 800.47 209.712 801.19 208.448L801.19 210L803.19 210ZM805.525 203.376C805.525 204.656 806.261 205.6 807.829 205.936L809.509 206.304C810.661 206.56 810.981 206.896 810.981 207.44C810.981 208.208 810.229 208.64 809.125 208.64C807.829 208.64 806.981 208.032 806.853 206.896L805.077 207.216C805.381 209.36 807.381 210.24 809.173 210.24C810.949 210.24 812.837 209.248 812.837 207.248C812.837 205.968 812.085 205.104 810.453 204.752L808.629 204.352C807.701 204.144 807.381 203.696 807.381 203.216C807.381 202.544 808.021 202.128 808.933 202.128C810.037 202.128 810.853 202.528 810.917 203.728L812.693 203.408C812.165 201.344 810.773 200.528 808.917 200.528C807.413 200.528 805.525 201.36 805.525 203.376ZM818.844 202.256C820.14 202.256 821.164 202.864 821.324 204.4L816.316 204.4C816.588 202.976 817.516 202.256 818.844 202.256ZM823.212 205.824L823.212 205.168C823.212 202.448 821.42 200.528 818.924 200.528C816.252 200.528 814.22 202.4 814.22 205.36C814.22 208.4 816.332 210.24 819.052 210.24C820.748 210.24 822.796 209.264 823.148 207.136L821.292 206.816C821.084 207.872 820.476 208.512 818.972 208.512C817.308 208.512 816.396 207.44 816.252 205.824L823.212 205.824ZM829.602 202.688C830.098 202.688 830.45 202.752 830.802 202.896L830.994 200.656C830.802 200.56 830.53 200.528 830.29 200.528C829.378 200.528 827.938 201.056 827.186 202.992L827.186 200.784L825.186 200.784L825.186 210L827.186 210L827.186 205.968C827.186 203.408 828.306 202.688 829.602 202.688Z" fill="#FF5B24"/>
<path d="M556.833 173L556.833 180.696C556.833 182.6 555.729 183.192 554.209 183.192C552.689 183.192 551.585 182.6 551.585 180.696L551.585 173L549.489 173L549.489 180.792C549.489 183.832 551.617 185.24 554.209 185.24C556.801 185.24 558.929 183.832 558.929 180.792L558.929 173L556.833 173ZM561.236 178.376C561.236 179.656 561.972 180.6 563.54 180.936L565.22 181.304C566.372 181.56 566.692 181.896 566.692 182.44C566.692 183.208 565.94 183.64 564.836 183.64C563.54 183.64 562.692 183.032 562.564 181.896L560.788 182.216C561.092 184.36 563.092 185.24 564.884 185.24C566.66 185.24 568.548 184.248 568.548 182.248C568.548 180.968 567.796 180.104 566.164 179.752L564.34 179.352C563.412 179.144 563.092 178.696 563.092 178.216C563.092 177.544 563.732 177.128 564.644 177.128C565.748 177.128 566.564 177.528 566.628 178.728L568.404 178.408C567.876 176.344 566.484 175.528 564.628 175.528C563.124 175.528 561.236 176.36 561.236 178.376ZM574.555 177.256C575.851 177.256 576.875 177.864 577.035 179.4L572.027 179.4C572.299 177.976 573.227 177.256 574.555 177.256ZM578.923 180.824L578.923 180.168C578.923 177.448 577.131 175.528 574.635 175.528C571.963 175.528 569.931 177.4 569.931 180.36C569.931 183.4 572.043 185.24 574.763 185.24C576.459 185.24 578.507 184.264 578.859 182.136L577.003 181.816C576.795 182.872 576.187 183.512 574.683 183.512C573.019 183.512 572.107 182.44 571.963 180.824L578.923 180.824ZM585.313 177.688C585.809 177.688 586.161 177.752 586.513 177.896L586.705 175.656C586.513 175.56 586.241 175.528 586.001 175.528C585.089 175.528 583.649 176.056 582.897 177.992L582.897 175.784L580.897 175.784L580.897 185L582.897 185L582.897 180.968C582.897 178.408 584.017 177.688 585.313 177.688ZM601.034 179.368C600.698 176.888 598.73 175.528 596.586 175.528C593.946 175.528 591.946 177.4 591.946 180.376C591.946 183.224 593.914 185.24 596.73 185.24C598.506 185.24 600.586 184.264 601.018 181.448L599.194 181.128C598.986 182.696 598.122 183.496 596.714 183.496C594.842 183.496 593.962 182.072 593.962 180.376C593.962 178.328 595.082 177.256 596.49 177.256C597.77 177.256 598.842 177.944 599.066 179.688L601.034 179.368ZM606.897 175.528C604.401 175.528 602.337 177.352 602.337 180.376C602.337 183.4 604.401 185.24 606.897 185.24C609.393 185.24 611.457 183.4 611.457 180.376C611.457 177.352 609.393 175.528 606.897 175.528ZM606.897 177.256C608.273 177.256 609.441 178.264 609.441 180.376C609.441 182.488 608.273 183.512 606.897 183.512C605.521 183.512 604.353 182.488 604.353 180.376C604.353 178.264 605.521 177.256 606.897 177.256ZM617.716 177.336C618.804 177.336 619.668 177.976 619.668 179.688L619.668 185L621.668 185L621.668 178.824C621.668 176.344 620.1 175.528 618.452 175.528C617.364 175.528 616.1 175.976 615.444 177.144L615.444 175.784L613.444 175.784L613.444 185L615.444 185L615.444 179.736C615.444 178.088 616.388 177.336 617.716 177.336ZM624.675 185L626.675 185L626.675 177.4L628.963 177.4L628.963 175.784L626.675 175.784L626.675 175.416C626.675 174.536 626.931 174.072 627.779 174.072C628.003 174.072 628.195 174.088 628.387 174.12L628.531 172.424C628.275 172.344 627.939 172.296 627.555 172.296C625.827 172.296 624.675 173.384 624.675 175.432L624.675 175.784L623.411 175.784L623.411 177.4L624.675 177.4L624.675 185ZM630.382 175.784L630.382 185L632.382 185L632.382 175.784L630.382 175.784ZM631.374 171.8C630.702 171.8 630.174 172.344 630.174 173C630.174 173.656 630.702 174.2 631.374 174.2C632.046 174.2 632.574 173.656 632.574 173C632.574 172.344 632.046 171.8 631.374 171.8ZM639.36 177.688C639.856 177.688 640.208 177.752 640.56 177.896L640.752 175.656C640.56 175.56 640.288 175.528 640.048 175.528C639.136 175.528 637.696 176.056 636.944 177.992L636.944 175.784L634.944 175.784L634.944 185L636.944 185L636.944 180.968C636.944 178.408 638.064 177.688 639.36 177.688ZM652.449 177.336C653.585 177.336 654.449 177.976 654.449 179.688L654.449 185L656.449 185L656.449 178.824C656.449 176.344 654.929 175.528 653.249 175.528C652.225 175.528 650.929 175.944 650.241 177.32C649.745 176.008 648.577 175.528 647.345 175.528C646.241 175.528 644.913 175.96 644.257 177.144L644.257 175.784L642.257 175.784L642.257 185L644.257 185L644.257 179.736C644.257 178.088 645.201 177.336 646.481 177.336C647.617 177.336 648.481 177.976 648.481 179.688L648.481 185L650.481 185L650.481 179.736C650.481 178.088 651.313 177.336 652.449 177.336ZM658.736 178.376C658.736 179.656 659.472 180.6 661.04 180.936L662.72 181.304C663.872 181.56 664.192 181.896 664.192 182.44C664.192 183.208 663.44 183.64 662.336 183.64C661.04 183.64 660.192 183.032 660.064 181.896L658.288 182.216C658.592 184.36 660.592 185.24 662.384 185.24C664.16 185.24 666.048 184.248 666.048 182.248C666.048 180.968 665.296 180.104 663.664 179.752L661.84 179.352C660.912 179.144 660.592 178.696 660.592 178.216C660.592 177.544 661.232 177.128 662.144 177.128C663.248 177.128 664.064 177.528 664.128 178.728L665.904 178.408C665.376 176.344 663.984 175.528 662.128 175.528C660.624 175.528 658.736 176.36 658.736 178.376Z" fill="#FF5B24"/>
<path d="M361.818 171L361.818 178.696C361.818 180.6 360.714 181.192 359.194 181.192C357.674 181.192 356.57 180.6 356.57 178.696L356.57 171L354.474 171L354.474 178.792C354.474 181.832 356.602 183.24 359.194 183.24C361.786 183.24 363.914 181.832 363.914 178.792L363.914 171L361.818 171ZM366.221 176.376C366.221 177.656 366.957 178.6 368.525 178.936L370.205 179.304C371.357 179.56 371.677 179.896 371.677 180.44C371.677 181.208 370.925 181.64 369.821 181.64C368.525 181.64 367.677 181.032 367.549 179.896L365.773 180.216C366.077 182.36 368.077 183.24 369.869 183.24C371.645 183.24 373.533 182.248 373.533 180.248C373.533 178.968 372.781 178.104 371.149 177.752L369.325 177.352C368.397 177.144 368.077 176.696 368.077 176.216C368.077 175.544 368.717 175.128 369.629 175.128C370.733 175.128 371.549 175.528 371.613 176.728L373.389 176.408C372.861 174.344 371.469 173.528 369.613 173.528C368.109 173.528 366.221 174.36 366.221 176.376ZM379.539 175.256C380.835 175.256 381.859 175.864 382.019 177.4L377.011 177.4C377.283 175.976 378.211 175.256 379.539 175.256ZM383.907 178.824L383.907 178.168C383.907 175.448 382.115 173.528 379.619 173.528C376.947 173.528 374.915 175.4 374.915 178.36C374.915 181.4 377.027 183.24 379.747 183.24C381.443 183.24 383.491 182.264 383.843 180.136L381.987 179.816C381.779 180.872 381.171 181.512 379.667 181.512C378.003 181.512 377.091 180.44 376.947 178.824L383.907 178.824ZM390.298 175.688C390.794 175.688 391.146 175.752 391.498 175.896L391.69 173.656C391.498 173.56 391.226 173.528 390.986 173.528C390.074 173.528 388.634 174.056 387.882 175.992L387.882 173.784L385.882 173.784L385.882 183L387.882 183L387.882 178.968C387.882 176.408 389.002 175.688 390.298 175.688ZM406.019 177.368C405.683 174.888 403.715 173.528 401.571 173.528C398.931 173.528 396.931 175.4 396.931 178.376C396.931 181.224 398.899 183.24 401.715 183.24C403.491 183.24 405.571 182.264 406.003 179.448L404.179 179.128C403.971 180.696 403.107 181.496 401.699 181.496C399.827 181.496 398.947 180.072 398.947 178.376C398.947 176.328 400.067 175.256 401.475 175.256C402.755 175.256 403.827 175.944 404.051 177.688L406.019 177.368ZM407.897 170.6L407.897 183L409.897 183L409.897 177.736C409.897 176.088 410.841 175.336 412.185 175.336C413.257 175.336 414.121 175.976 414.121 177.688L414.121 183L416.121 183L416.121 176.824C416.121 174.344 414.601 173.528 412.841 173.528C411.865 173.528 410.553 173.96 409.897 175.144L409.897 170.6L407.897 170.6ZM422.584 173.528C420.088 173.528 418.024 175.352 418.024 178.376C418.024 181.4 420.088 183.24 422.584 183.24C425.08 183.24 427.144 181.4 427.144 178.376C427.144 175.352 425.08 173.528 422.584 173.528ZM422.584 175.256C423.96 175.256 425.128 176.264 425.128 178.376C425.128 180.488 423.96 181.512 422.584 181.512C421.208 181.512 420.04 180.488 420.04 178.376C420.04 176.264 421.208 175.256 422.584 175.256ZM433.116 173.528C430.62 173.528 428.556 175.352 428.556 178.376C428.556 181.4 430.62 183.24 433.116 183.24C435.612 183.24 437.676 181.4 437.676 178.376C437.676 175.352 435.612 173.528 433.116 173.528ZM433.116 175.256C434.492 175.256 435.66 176.264 435.66 178.376C435.66 180.488 434.492 181.512 433.116 181.512C431.74 181.512 430.572 180.488 430.572 178.376C430.572 176.264 431.74 175.256 433.116 175.256ZM439.471 176.376C439.471 177.656 440.207 178.6 441.775 178.936L443.455 179.304C444.607 179.56 444.927 179.896 444.927 180.44C444.927 181.208 444.175 181.64 443.071 181.64C441.775 181.64 440.927 181.032 440.799 179.896L439.023 180.216C439.327 182.36 441.327 183.24 443.119 183.24C444.895 183.24 446.783 182.248 446.783 180.248C446.783 178.968 446.031 178.104 444.399 177.752L442.575 177.352C441.647 177.144 441.327 176.696 441.327 176.216C441.327 175.544 441.967 175.128 442.879 175.128C443.983 175.128 444.799 175.528 444.863 176.728L446.639 176.408C446.111 174.344 444.719 173.528 442.863 173.528C441.359 173.528 439.471 174.36 439.471 176.376ZM452.789 175.256C454.085 175.256 455.109 175.864 455.269 177.4L450.261 177.4C450.533 175.976 451.461 175.256 452.789 175.256ZM457.157 178.824L457.157 178.168C457.157 175.448 455.365 173.528 452.869 173.528C450.197 173.528 448.165 175.4 448.165 178.36C448.165 181.4 450.277 183.24 452.997 183.24C454.693 183.24 456.741 182.264 457.093 180.136L455.237 179.816C455.029 180.872 454.421 181.512 452.917 181.512C451.253 181.512 450.341 180.44 450.197 178.824L457.157 178.824ZM463.444 170.6L463.444 183L465.444 183L465.444 170.6L463.444 170.6ZM471.991 173.528C469.495 173.528 467.431 175.352 467.431 178.376C467.431 181.4 469.495 183.24 471.991 183.24C474.487 183.24 476.551 181.4 476.551 178.376C476.551 175.352 474.487 173.528 471.991 173.528ZM471.991 175.256C473.367 175.256 474.535 176.264 474.535 178.376C474.535 180.488 473.367 181.512 471.991 181.512C470.615 181.512 469.447 180.488 469.447 178.376C469.447 176.264 470.615 175.256 471.991 175.256ZM481.93 182.472C483.546 182.472 484.394 181.416 484.89 180.408L484.89 181.784C484.89 183.736 484.074 184.536 482.298 184.536C481.178 184.536 480.106 184.216 479.93 182.888L477.994 183.208C478.458 185.544 480.554 186.328 482.218 186.328C485.162 186.328 486.89 184.792 486.89 181.704L486.89 173.768L484.89 173.768L484.89 175.56C484.186 174.136 483.306 173.528 482.09 173.528C480.01 173.528 478.042 174.936 478.042 177.864C478.042 181 480.042 182.472 481.93 182.472ZM482.442 175.256C483.786 175.256 484.89 176.232 484.89 177.992C484.89 179.848 483.786 180.728 482.442 180.728C481.146 180.728 480.058 179.848 480.058 177.976C480.058 176.168 481.194 175.256 482.442 175.256ZM489.444 173.784L489.444 183L491.444 183L491.444 173.784L489.444 173.784ZM490.436 169.8C489.764 169.8 489.236 170.344 489.236 171C489.236 171.656 489.764 172.2 490.436 172.2C491.108 172.2 491.636 171.656 491.636 171C491.636 170.344 491.108 169.8 490.436 169.8ZM498.279 175.336C499.367 175.336 500.231 175.976 500.231 177.688L500.231 183L502.231 183L502.231 176.824C502.231 174.344 500.663 173.528 499.015 173.528C497.927 173.528 496.663 173.976 496.007 175.144L496.007 173.784L494.007 173.784L494.007 183L496.007 183L496.007 177.736C496.007 176.088 496.951 175.336 498.279 175.336ZM401.505 200.784L399.281 200.784L397.313 207.504L395.089 200.784L393.601 200.784L391.393 207.472L389.409 200.784L387.185 200.784L390.497 210L392.225 210L394.353 204.176L396.465 210L398.193 210L401.505 200.784ZM403.022 200.784L403.022 210L405.022 210L405.022 200.784L403.022 200.784ZM404.014 196.8C403.342 196.8 402.814 197.344 402.814 198C402.814 198.656 403.342 199.2 404.014 199.2C404.686 199.2 405.214 198.656 405.214 198C405.214 197.344 404.686 196.8 404.014 196.8ZM408.289 198.56L408.289 200.784L406.577 200.784L406.577 202.4L408.289 202.4L408.289 207.408C408.289 209.104 409.137 210.16 410.977 210.16C411.537 210.16 412.193 210.016 412.673 209.872L412.353 208.256C411.985 208.352 411.761 208.4 411.393 208.4C410.577 208.4 410.289 208.032 410.289 207.312L410.289 202.4L412.593 202.4L412.593 200.784L410.289 200.784L410.289 198.24L408.289 198.56ZM414.553 197.6L414.553 210L416.553 210L416.553 204.736C416.553 203.088 417.497 202.336 418.841 202.336C419.913 202.336 420.777 202.976 420.777 204.688L420.777 210L422.777 210L422.777 203.824C422.777 201.344 421.257 200.528 419.497 200.528C418.521 200.528 417.209 200.96 416.553 202.144L416.553 197.6L414.553 197.6ZM437.729 200.784L435.505 200.784L433.137 207.744L430.753 200.784L428.529 200.784L432.209 210L434.049 210L437.729 200.784ZM439.257 200.784L439.257 210L441.257 210L441.257 200.784L439.257 200.784ZM440.249 196.8C439.577 196.8 439.049 197.344 439.049 198C439.049 198.656 439.577 199.2 440.249 199.2C440.921 199.2 441.449 198.656 441.449 198C441.449 197.344 440.921 196.8 440.249 196.8ZM448.939 200.528C447.371 200.528 446.411 201.52 445.819 202.592L445.819 200.784L443.819 200.784L443.819 213.2L445.819 213.2L445.819 208.256C446.587 209.568 447.579 210.24 448.747 210.24C450.891 210.24 452.987 208.608 452.987 205.248C452.987 202.032 450.811 200.528 448.939 200.528ZM448.395 202.256C449.659 202.256 450.971 203.264 450.971 205.36C450.971 207.488 449.659 208.496 448.379 208.496C447.035 208.496 445.819 207.408 445.819 205.36C445.819 203.216 447.035 202.256 448.395 202.256ZM460.158 200.528C458.59 200.528 457.63 201.52 457.038 202.592L457.038 200.784L455.038 200.784L455.038 213.2L457.038 213.2L457.038 208.256C457.806 209.568 458.798 210.24 459.966 210.24C462.11 210.24 464.206 208.608 464.206 205.248C464.206 202.032 462.03 200.528 460.158 200.528ZM459.614 202.256C460.878 202.256 462.19 203.264 462.19 205.36C462.19 207.488 460.878 208.496 459.598 208.496C458.254 208.496 457.038 207.408 457.038 205.36C457.038 203.216 458.254 202.256 459.614 202.256ZM466.065 203.376C466.065 204.656 466.801 205.6 468.369 205.936L470.049 206.304C471.201 206.56 471.521 206.896 471.521 207.44C471.521 208.208 470.769 208.64 469.665 208.64C468.369 208.64 467.521 208.032 467.393 206.896L465.617 207.216C465.921 209.36 467.921 210.24 469.713 210.24C471.489 210.24 473.377 209.248 473.377 207.248C473.377 205.968 472.625 205.104 470.993 204.752L469.169 204.352C468.241 204.144 467.921 203.696 467.921 203.216C467.921 202.544 468.561 202.128 469.473 202.128C470.577 202.128 471.393 202.528 471.457 203.728L473.233 203.408C472.705 201.344 471.313 200.528 469.457 200.528C467.953 200.528 466.065 201.36 466.065 203.376Z" fill="#FF5B24"/>
<path d="M232.092 173.288C231.612 170.344 229.084 168.76 226.572 168.76C223.148 168.76 220.316 171.24 220.316 174.92C220.316 178.856 223.18 181.24 226.62 181.24C228.94 181.24 231.836 179.688 232.188 176.392L230.028 176.072C229.852 178.456 228.22 179.192 226.62 179.192C224.348 179.192 222.572 177.896 222.572 174.92C222.572 172.216 224.348 170.808 226.492 170.808C227.964 170.808 229.58 171.416 229.932 173.608L232.092 173.288ZM234.264 168.6V181H236.264V168.6H234.264ZM238.827 171.784V181H240.827V171.784H238.827ZM239.819 167.8C239.147 167.8 238.619 168.344 238.619 169C238.619 169.656 239.147 170.2 239.819 170.2C240.491 170.2 241.019 169.656 241.019 169C241.019 168.344 240.491 167.8 239.819 167.8ZM247.437 173.256C248.733 173.256 249.757 173.864 249.917 175.4H244.909C245.181 173.976 246.109 173.256 247.437 173.256ZM251.805 176.824V176.168C251.805 173.448 250.013 171.528 247.517 171.528C244.845 171.528 242.813 173.4 242.813 176.36C242.813 179.4 244.925 181.24 247.645 181.24C249.341 181.24 251.389 180.264 251.741 178.136L249.885 177.816C249.677 178.872 249.069 179.512 247.565 179.512C245.901 179.512 244.989 178.44 244.845 176.824H251.805ZM258.052 173.336C259.14 173.336 260.004 173.976 260.004 175.688V181H262.004V174.824C262.004 172.344 260.436 171.528 258.788 171.528C257.7 171.528 256.436 171.976 255.78 173.144V171.784H253.78V181H255.78V175.736C255.78 174.088 256.724 173.336 258.052 173.336ZM265.187 169.56V171.784H263.475V173.4H265.187V178.408C265.187 180.104 266.035 181.16 267.875 181.16C268.435 181.16 269.091 181.016 269.571 180.872L269.251 179.256C268.883 179.352 268.659 179.4 268.291 179.4C267.475 179.4 267.187 179.032 267.187 178.312V173.4H269.491V171.784H267.187V169.24L265.187 169.56ZM199.128 195.368C198.792 192.888 196.824 191.528 194.68 191.528C192.04 191.528 190.04 193.4 190.04 196.376C190.04 199.224 192.008 201.24 194.824 201.24C196.6 201.24 198.68 200.264 199.112 197.448L197.288 197.128C197.08 198.696 196.216 199.496 194.808 199.496C192.936 199.496 192.056 198.072 192.056 196.376C192.056 194.328 193.176 193.256 194.584 193.256C195.864 193.256 196.936 193.944 197.16 195.688L199.128 195.368ZM204.991 191.528C202.495 191.528 200.431 193.352 200.431 196.376C200.431 199.4 202.495 201.24 204.991 201.24C207.487 201.24 209.551 199.4 209.551 196.376C209.551 193.352 207.487 191.528 204.991 191.528ZM204.991 193.256C206.367 193.256 207.535 194.264 207.535 196.376C207.535 198.488 206.367 199.512 204.991 199.512C203.615 199.512 202.447 198.488 202.447 196.376C202.447 194.264 203.615 193.256 204.991 193.256ZM215.81 193.336C216.898 193.336 217.762 193.976 217.762 195.688V201H219.762V194.824C219.762 192.344 218.194 191.528 216.546 191.528C215.458 191.528 214.194 191.976 213.538 193.144V191.784H211.538V201H213.538V195.736C213.538 194.088 214.482 193.336 215.81 193.336ZM222.769 201H224.769V193.4H227.057V191.784H224.769V191.416C224.769 190.536 225.025 190.072 225.873 190.072C226.097 190.072 226.289 190.088 226.481 190.12L226.625 188.424C226.369 188.344 226.033 188.296 225.649 188.296C223.921 188.296 222.769 189.384 222.769 191.432V191.784H221.505V193.4H222.769V201ZM228.475 191.784V201H230.475V191.784H228.475ZM229.467 187.8C228.795 187.8 228.267 188.344 228.267 189C228.267 189.656 228.795 190.2 229.467 190.2C230.139 190.2 230.667 189.656 230.667 189C230.667 188.344 230.139 187.8 229.467 187.8ZM236.43 200.472C238.046 200.472 238.894 199.416 239.39 198.408V199.784C239.39 201.736 238.574 202.536 236.798 202.536C235.678 202.536 234.606 202.216 234.43 200.888L232.494 201.208C232.958 203.544 235.054 204.328 236.718 204.328C239.662 204.328 241.39 202.792 241.39 199.704V191.768H239.39V193.56C238.686 192.136 237.806 191.528 236.59 191.528C234.51 191.528 232.542 192.936 232.542 195.864C232.542 199 234.542 200.472 236.43 200.472ZM236.942 193.256C238.286 193.256 239.39 194.232 239.39 195.992C239.39 197.848 238.286 198.728 236.942 198.728C235.646 198.728 234.558 197.848 234.558 195.976C234.558 194.168 235.694 193.256 236.942 193.256ZM252.12 201V191.784H250.12V197.144C250.12 198.712 249.08 199.432 247.736 199.432C246.504 199.432 245.896 198.888 245.896 197.464V191.784H243.896V198.216C243.896 200.344 245.432 201.24 246.968 201.24C248.12 201.24 249.4 200.712 250.12 199.448V201H252.12ZM259.063 193.688C259.559 193.688 259.911 193.752 260.263 193.896L260.455 191.656C260.263 191.56 259.991 191.528 259.751 191.528C258.839 191.528 257.399 192.056 256.647 193.992V191.784H254.647V201H256.647V196.968C256.647 194.408 257.767 193.688 259.063 193.688ZM265.496 201.24C267.144 201.24 268.152 200.232 268.616 199.096V201H270.616V191.784H268.616V193.592C267.96 192.136 266.952 191.528 265.512 191.528C263.576 191.528 261.448 193.08 261.448 196.296C261.448 199.672 263.592 201.24 265.496 201.24ZM266.056 193.256C267.4 193.256 268.616 194.28 268.616 196.408C268.616 198.6 267.4 199.496 266.04 199.496C264.776 199.496 263.464 198.552 263.464 196.408C263.464 194.232 264.792 193.256 266.056 193.256ZM273.882 189.56V191.784H272.17V193.4H273.882V198.408C273.882 200.104 274.73 201.16 276.57 201.16C277.13 201.16 277.786 201.016 278.266 200.872L277.946 199.256C277.578 199.352 277.354 199.4 276.986 199.4C276.17 199.4 275.882 199.032 275.882 198.312V193.4H278.186V191.784H275.882V189.24L273.882 189.56ZM280.147 191.784V201H282.147V191.784H280.147ZM281.139 187.8C280.467 187.8 279.939 188.344 279.939 189C279.939 189.656 280.467 190.2 281.139 190.2C281.811 190.2 282.339 189.656 282.339 189C282.339 188.344 281.811 187.8 281.139 187.8ZM288.694 191.528C286.198 191.528 284.134 193.352 284.134 196.376C284.134 199.4 286.198 201.24 288.694 201.24C291.19 201.24 293.254 199.4 293.254 196.376C293.254 193.352 291.19 191.528 288.694 191.528ZM288.694 193.256C290.07 193.256 291.238 194.264 291.238 196.376C291.238 198.488 290.07 199.512 288.694 199.512C287.318 199.512 286.15 198.488 286.15 196.376C286.15 194.264 287.318 193.256 288.694 193.256ZM299.513 193.336C300.601 193.336 301.465 193.976 301.465 195.688V201H303.465V194.824C303.465 192.344 301.897 191.528 300.249 191.528C299.161 191.528 297.897 191.976 297.241 193.144V191.784H295.241V201H297.241V195.736C297.241 194.088 298.185 193.336 299.513 193.336Z" fill="#FF5B24"/>
<path d="M10.352 176.488L10.336 176.616C10.144 178.136 8.912 179.192 7.024 179.192C5.04 179.192 3.056 178.008 3.056 175.048C3.056 172.232 4.704 170.808 6.912 170.808C8.592 170.808 10.016 171.448 10.288 173.448L12.4 173.128C11.936 169.784 9.04 168.76 7.04 168.76C3.456 168.76 0.8 171.336 0.799999 175.048C0.799999 178.6 3.408 181.24 6.448 181.24C8.384 181.24 9.76 180.04 10.4 178.76L10.416 178.76L10.784 181L12.56 181L12.56 174.6L7.2 174.6L7.2 176.488L10.352 176.488ZM19.1874 173.256C20.4834 173.256 21.5074 173.864 21.6674 175.4L16.6594 175.4C16.9314 173.976 17.8594 173.256 19.1874 173.256ZM23.5554 176.824L23.5554 176.168C23.5554 173.448 21.7634 171.528 19.2674 171.528C16.5954 171.528 14.5634 173.4 14.5634 176.36C14.5634 179.4 16.6754 181.24 19.3954 181.24C21.0914 181.24 23.1394 180.264 23.4914 178.136L21.6354 177.816C21.4274 178.872 20.8194 179.512 19.3154 179.512C17.6514 179.512 16.7394 178.44 16.5954 176.824L23.5554 176.824ZM26.234 169.56L26.234 171.784L24.522 171.784L24.522 173.4L26.234 173.4L26.234 178.408C26.234 180.104 27.082 181.16 28.922 181.16C29.482 181.16 30.138 181.016 30.618 180.872L30.298 179.256C29.93 179.352 29.706 179.4 29.338 179.4C28.522 179.4 28.234 179.032 28.234 178.312L28.234 173.4L30.538 173.4L30.538 171.784L28.234 171.784L28.234 169.24L26.234 169.56ZM36.6192 174.376C36.6192 175.656 37.3552 176.6 38.9232 176.936L40.6032 177.304C41.7552 177.56 42.0752 177.896 42.0752 178.44C42.0752 179.208 41.3232 179.64 40.2192 179.64C38.9232 179.64 38.0752 179.032 37.9472 177.896L36.1712 178.216C36.4752 180.36 38.4752 181.24 40.2672 181.24C42.0432 181.24 43.9312 180.248 43.9312 178.248C43.9312 176.968 43.1792 176.104 41.5472 175.752L39.7232 175.352C38.7952 175.144 38.4752 174.696 38.4752 174.216C38.4752 173.544 39.1152 173.128 40.0272 173.128C41.1312 173.128 41.9472 173.528 42.0112 174.728L43.7872 174.408C43.2592 172.344 41.8673 171.528 40.0112 171.528C38.5072 171.528 36.6192 172.36 36.6192 174.376ZM46.5934 169.56L46.5934 171.784L44.8814 171.784L44.8814 173.4L46.5934 173.4L46.5934 178.408C46.5934 180.104 47.4414 181.16 49.2814 181.16C49.8414 181.16 50.4974 181.016 50.9774 180.872L50.6574 179.256C50.2894 179.352 50.0654 179.4 49.6974 179.4C48.8814 179.4 48.5934 179.032 48.5934 178.312L48.5934 173.4L50.8974 173.4L50.8974 171.784L48.5934 171.784L48.5934 169.24L46.5934 169.56ZM56.3941 181.24C58.0421 181.24 59.0501 180.232 59.5141 179.096L59.5141 181L61.5141 181L61.5141 171.784L59.5141 171.784L59.5141 173.592C58.8581 172.136 57.8501 171.528 56.4101 171.528C54.4741 171.528 52.3461 173.08 52.3461 176.296C52.3461 179.672 54.4901 181.24 56.3941 181.24ZM56.9541 173.256C58.2981 173.256 59.5141 174.28 59.5141 176.408C59.5141 178.6 58.2981 179.496 56.9381 179.496C55.6741 179.496 54.3621 178.552 54.3621 176.408C54.3621 174.232 55.6901 173.256 56.9541 173.256ZM68.4929 173.688C68.9889 173.688 69.3409 173.752 69.6929 173.896L69.8849 171.656C69.6929 171.56 69.4209 171.528 69.1809 171.528C68.2689 171.528 66.8289 172.056 66.0769 173.992L66.0769 171.784L64.0769 171.784L64.0769 181L66.0769 181L66.0769 176.968C66.0769 174.408 67.1969 173.688 68.4929 173.688ZM72.0934 169.56L72.0934 171.784L70.3814 171.784L70.3814 173.4L72.0934 173.4L72.0934 178.408C72.0934 180.104 72.9414 181.16 74.7814 181.16C75.3414 181.16 75.9974 181.016 76.4774 180.872L76.1574 179.256C75.7894 179.352 75.5654 179.4 75.1974 179.4C74.3814 179.4 74.0934 179.032 74.0934 178.312L74.0934 173.4L76.3974 173.4L76.3974 171.784L74.0934 171.784L74.0934 169.24L72.0934 169.56ZM82.4061 173.256C83.7021 173.256 84.7261 173.864 84.8861 175.4L79.8781 175.4C80.1501 173.976 81.0781 173.256 82.4061 173.256ZM86.7741 176.824L86.7741 176.168C86.7741 173.448 84.9821 171.528 82.4861 171.528C79.8141 171.528 77.7821 173.4 77.7821 176.36C77.7821 179.4 79.8941 181.24 82.6141 181.24C84.3101 181.24 86.3581 180.264 86.7101 178.136L84.8541 177.816C84.6461 178.872 84.0381 179.512 82.5341 179.512C80.8701 179.512 79.9581 178.44 79.8141 176.824L86.7741 176.824ZM97.4048 168.6L95.4048 168.6L95.4047 173.592C94.7487 172.136 93.7567 171.528 92.5088 171.528C90.3647 171.528 88.2367 173.08 88.2367 176.296C88.2367 179.672 90.3807 181.24 92.2527 181.24C93.9327 181.24 94.9407 180.36 95.4047 179.256L95.4047 181L97.4047 181L97.4048 168.6ZM92.8447 173.256C94.1887 173.256 95.4047 174.328 95.4047 176.408C95.4047 178.552 94.1887 179.496 92.8287 179.496C91.5647 179.496 90.2527 178.504 90.2527 176.408C90.2527 174.28 91.5807 173.256 92.8447 173.256ZM117.56 171.784L115.336 171.784L113.368 178.504L111.144 171.784L109.656 171.784L107.448 178.472L105.464 171.784L103.24 171.784L106.552 181L108.28 181L110.408 175.176L112.52 181L114.248 181L117.56 171.784ZM119.077 171.784L119.077 181L121.077 181L121.077 171.784L119.077 171.784ZM120.069 167.8C119.397 167.8 118.869 168.344 118.869 169C118.869 169.656 119.397 170.2 120.069 170.2C120.741 170.2 121.269 169.656 121.269 169C121.269 168.344 120.741 167.8 120.069 167.8ZM124.343 169.56L124.343 171.784L122.631 171.784L122.631 173.4L124.343 173.4L124.343 178.408C124.343 180.104 125.191 181.16 127.031 181.16C127.591 181.16 128.247 181.016 128.727 180.872L128.407 179.256C128.039 179.352 127.815 179.4 127.447 179.4C126.631 179.4 126.343 179.032 126.343 178.312L126.343 173.4L128.647 173.4L128.647 171.784L126.343 171.784L126.343 169.24L124.343 169.56ZM130.608 168.6L130.608 181L132.608 181L132.608 175.736C132.608 174.088 133.552 173.336 134.896 173.336C135.968 173.336 136.832 173.976 136.832 175.688L136.832 181L138.832 181L138.832 174.824C138.832 172.344 137.312 171.528 135.552 171.528C134.576 171.528 133.264 171.96 132.608 173.144L132.608 168.6L130.608 168.6ZM21.3154 195.368C20.9794 192.888 19.0114 191.528 16.8674 191.528C14.2274 191.528 12.2274 193.4 12.2274 196.376C12.2274 199.224 14.1954 201.24 17.0114 201.24C18.7874 201.24 20.8674 200.264 21.2994 197.448L19.4754 197.128C19.2674 198.696 18.4034 199.496 16.9954 199.496C15.1234 199.496 14.2434 198.072 14.2434 196.376C14.2434 194.328 15.3634 193.256 16.7714 193.256C18.0514 193.256 19.1234 193.944 19.3474 195.688L21.3154 195.368ZM27.1781 191.528C24.6821 191.528 22.6181 193.352 22.6181 196.376C22.6181 199.4 24.6821 201.24 27.1781 201.24C29.6741 201.24 31.7381 199.4 31.7381 196.376C31.7381 193.352 29.6741 191.528 27.1781 191.528ZM27.1781 193.256C28.5541 193.256 29.7221 194.264 29.7221 196.376C29.7221 198.488 28.5541 199.512 27.1781 199.512C25.8021 199.512 24.6341 198.488 24.6341 196.376C24.6341 194.264 25.8021 193.256 27.1781 193.256ZM38.1413 193.688C38.6373 193.688 38.9893 193.752 39.3413 193.896L39.5333 191.656C39.3413 191.56 39.0693 191.528 38.8293 191.528C37.9173 191.528 36.4773 192.056 35.7253 193.992L35.7253 191.784L33.7253 191.784L33.7253 201L35.7253 201L35.7253 196.968C35.7253 194.408 36.8453 193.688 38.1413 193.688ZM45.0858 193.256C46.3818 193.256 47.4058 193.864 47.5658 195.4L42.5578 195.4C42.8298 193.976 43.7578 193.256 45.0858 193.256ZM49.4538 196.824L49.4538 196.168C49.4538 193.448 47.6618 191.528 45.1658 191.528C42.4938 191.528 40.4618 193.4 40.4618 196.36C40.4618 199.4 42.5738 201.24 45.2938 201.24C46.9898 201.24 49.0378 200.264 49.3898 198.136L47.5338 197.816C47.3258 198.872 46.7178 199.512 45.2138 199.512C43.5498 199.512 42.6378 198.44 42.4938 196.824L49.4538 196.824ZM64.2529 195.368C63.9169 192.888 61.9489 191.528 59.8049 191.528C57.1649 191.528 55.1649 193.4 55.1649 196.376C55.1649 199.224 57.1329 201.24 59.9489 201.24C61.7249 201.24 63.8049 200.264 64.2369 197.448L62.4129 197.128C62.2049 198.696 61.3409 199.496 59.9329 199.496C58.0609 199.496 57.1809 198.072 57.1809 196.376C57.1809 194.328 58.3009 193.256 59.7089 193.256C60.9889 193.256 62.0609 193.944 62.2849 195.688L64.2529 195.368ZM70.1156 191.528C67.6196 191.528 65.5556 193.352 65.5556 196.376C65.5556 199.4 67.6196 201.24 70.1156 201.24C72.6116 201.24 74.6756 199.4 74.6756 196.376C74.6756 193.352 72.6116 191.528 70.1156 191.528ZM70.1156 193.256C71.4916 193.256 72.6596 194.264 72.6596 196.376C72.6596 198.488 71.4916 199.512 70.1156 199.512C68.7396 199.512 67.5716 198.488 67.5716 196.376C67.5716 194.264 68.7396 193.256 70.1156 193.256ZM80.9348 193.336C82.0228 193.336 82.8868 193.976 82.8868 195.688L82.8868 201L84.8868 201L84.8868 194.824C84.8868 192.344 83.3188 191.528 81.6708 191.528C80.5828 191.528 79.3188 191.976 78.6628 193.144L78.6628 191.784L76.6628 191.784L76.6628 201L78.6628 201L78.6628 195.736C78.6628 194.088 79.6068 193.336 80.9348 193.336ZM87.1739 194.376C87.1739 195.656 87.9099 196.6 89.4779 196.936L91.1579 197.304C92.3099 197.56 92.6299 197.896 92.6299 198.44C92.6299 199.208 91.8779 199.64 90.7739 199.64C89.4779 199.64 88.6299 199.032 88.5019 197.896L86.7259 198.216C87.0299 200.36 89.0299 201.24 90.8219 201.24C92.5979 201.24 94.4859 200.248 94.4859 198.248C94.4859 196.968 93.7339 196.104 92.1019 195.752L90.2779 195.352C89.3499 195.144 89.0299 194.696 89.0299 194.216C89.0299 193.544 89.6699 193.128 90.5819 193.128C91.6859 193.128 92.5019 193.528 92.5659 194.728L94.3419 194.408C93.8139 192.344 92.4219 191.528 90.5659 191.528C89.0619 191.528 87.1739 192.36 87.1739 194.376ZM100.492 193.256C101.788 193.256 102.812 193.864 102.972 195.4L97.9641 195.4C98.2361 193.976 99.1641 193.256 100.492 193.256ZM104.86 196.824L104.86 196.168C104.86 193.448 103.068 191.528 100.572 191.528C97.9001 191.528 95.8681 193.4 95.8681 196.36C95.8681 199.4 97.9801 201.24 100.7 201.24C102.396 201.24 104.444 200.264 104.796 198.136L102.94 197.816C102.732 198.872 102.124 199.512 100.62 199.512C98.9561 199.512 98.0441 198.44 97.9001 196.824L104.86 196.824ZM111.955 191.528C110.387 191.528 109.427 192.52 108.835 193.592L108.835 191.784L106.835 191.784L106.835 204.2L108.835 204.2L108.835 199.256C109.603 200.568 110.595 201.24 111.763 201.24C113.907 201.24 116.003 199.608 116.003 196.248C116.003 193.032 113.827 191.528 111.955 191.528ZM111.411 193.256C112.675 193.256 113.987 194.264 113.987 196.36C113.987 198.488 112.675 199.496 111.395 199.496C110.051 199.496 108.835 198.408 108.835 196.36C108.835 194.216 110.051 193.256 111.411 193.256ZM118.757 189.56L118.757 191.784L117.045 191.784L117.045 193.4L118.757 193.4L118.757 198.408C118.757 200.104 119.605 201.16 121.445 201.16C122.005 201.16 122.661 201.016 123.141 200.872L122.821 199.256C122.453 199.352 122.229 199.4 121.861 199.4C121.045 199.4 120.757 199.032 120.757 198.312L120.757 193.4L123.061 193.4L123.061 191.784L120.757 191.784L120.757 189.24L118.757 189.56ZM124.83 194.376C124.83 195.656 125.566 196.6 127.134 196.936L128.814 197.304C129.966 197.56 130.286 197.896 130.286 198.44C130.286 199.208 129.534 199.64 128.43 199.64C127.134 199.64 126.286 199.032 126.158 197.896L124.382 198.216C124.686 200.36 126.686 201.24 128.478 201.24C130.254 201.24 132.142 200.248 132.142 198.248C132.142 196.968 131.39 196.104 129.758 195.752L127.934 195.352C127.006 195.144 126.686 194.696 126.686 194.216C126.686 193.544 127.326 193.128 128.238 193.128C129.342 193.128 130.158 193.528 130.222 194.728L131.998 194.408C131.47 192.344 130.078 191.528 128.222 191.528C126.718 191.528 124.83 192.36 124.83 194.376Z" fill="#FF5B24"/>
<circle cx="247" cy="84.8052" r="10.5" transform="rotate(-90 247 84.8052)" fill="white" stroke="#FF5B24" stroke-width="3"/>
<path d="M72.5 74.3052C78.6334 74.3052 83.5 79.0633 83.5 84.8052C83.5 90.547 78.6334 95.3052 72.5 95.3052C66.3666 95.3052 61.5 90.547 61.5 84.8052C61.5 79.0633 66.3666 74.3052 72.5 74.3052Z" fill="white" stroke="#FF5B24" stroke-width="3"/>
<path d="M1019.98 203.058C1019.98 233.885 994.989 258.874 964.162 258.874C933.335 258.874 908.345 233.885 908.345 203.058C908.345 172.231 933.335 147.241 964.162 147.241C994.989 147.241 1019.98 172.231 1019.98 203.058Z" fill="#EEEDF3"/>
<path d="M997.686 236.249L951.978 223.617C950.439 223.192 949.538 221.6 949.963 220.063L968.282 153.778C968.707 152.239 970.298 151.338 971.836 151.762L1017.54 164.395C1019.08 164.82 1019.98 166.412 1019.56 167.949L1001.24 234.234C1000.82 235.772 999.223 236.674 997.686 236.249Z" fill="#C8C5D6"/>
<path d="M998.064 234.863L951.315 226.895C949.743 226.627 948.686 225.134 948.954 223.562L960.508 155.77C960.776 154.197 962.269 153.139 963.842 153.407L1010.59 161.374C1012.16 161.642 1013.22 163.135 1012.95 164.708L1001.4 232.5C1001.13 234.073 999.637 235.131 998.064 234.863Z" fill="white"/>
<path d="M983.488 178.015C976.467 177.061 970.043 180.738 968.216 186.431C967.897 187.424 968.637 188.386 969.671 188.526L993.999 191.832C995.033 191.973 996.002 191.244 995.96 190.202C995.718 184.227 990.509 178.969 983.488 178.015Z" fill="#59CBE8"/>
<path d="M991.309 169.548C990.888 172.649 988.033 174.821 984.932 174.4C981.831 173.978 979.659 171.123 980.081 168.023C980.502 164.922 983.357 162.75 986.458 163.171C989.558 163.593 991.73 166.448 991.309 169.548Z" fill="#59CBE8"/>
<path d="M962.34 197.484L994.296 202.186" stroke="#C8C5D6" stroke-width="0.610363" stroke-miterlimit="10" stroke-linecap="round"/>
<path d="M961.219 204.216L993.175 208.919" stroke="#C8C5D6" stroke-width="0.610363" stroke-miterlimit="10" stroke-linecap="round"/>
<path d="M966.098 217.408C966.098 217.408 977.725 211.467 977.045 215.337C976.367 219.209 976.624 221.518 982.637 220.261C988.652 219.003 988.083 221.392 988.083 221.392" stroke="#5E3DC2" stroke-width="0.610363" stroke-miterlimit="10" stroke-linecap="round"/>
<path d="M730.021 85.0578C730.021 115.885 755.011 140.874 785.838 140.874C816.665 140.874 841.655 115.885 841.655 85.0578C841.655 54.2304 816.665 29.2407 785.838 29.2407C755.011 29.2407 730.021 54.2304 730.021 85.0578Z" fill="#EEEDF3"/>
<path d="M750.484 118.249L796.192 105.616C797.731 105.191 798.632 103.6 798.207 102.062L779.888 35.7774C779.463 34.2389 777.872 33.3375 776.334 33.7618L730.626 46.395C729.088 46.8201 728.186 48.4113 728.61 49.949L746.93 116.234C747.355 117.772 748.947 118.674 750.484 118.249Z" fill="#C8C5D6"/>
<path d="M750.571 116.264L797.562 109.878C799.143 109.663 800.25 108.207 800.035 106.627L790.775 38.4832C790.56 36.902 789.104 35.7948 787.523 36.0096L740.533 42.3939C738.952 42.6094 737.845 44.065 738.059 45.6463L747.32 113.79C747.534 115.371 748.99 116.478 750.571 116.264Z" fill="white"/>
<path d="M766.512 60.0133C773.533 59.0594 779.957 62.7365 781.784 68.43C782.103 69.4229 781.363 70.3843 780.329 70.5243L756.001 73.8307C754.967 73.9714 753.998 73.2428 754.04 72.2006C754.281 66.2258 759.491 60.9672 766.512 60.0133Z" fill="#49367E"/>
<path d="M758.691 51.5491C759.112 54.6499 761.967 56.8218 765.068 56.4004C768.169 55.979 770.341 53.1241 769.919 50.0233C769.498 46.9225 766.643 44.7506 763.542 45.172C760.442 45.5934 758.27 48.4484 758.691 51.5491Z" fill="#49367E"/>
<path d="M787.66 79.4797L755.704 84.182" stroke="#C8C5D6" stroke-width="0.610363" stroke-miterlimit="10" stroke-linecap="round"/>
<path d="M788.781 86.2136L756.825 90.9159" stroke="#C8C5D6" stroke-width="0.610363" stroke-miterlimit="10" stroke-linecap="round"/>
<path d="M762.462 103.186C762.462 103.186 771.356 93.6264 772.041 97.496C772.727 101.366 773.759 103.448 778.98 100.21C784.201 96.9714 784.484 99.4103 784.484 99.4103" stroke="#49367E" stroke-width="0.610363" stroke-miterlimit="10" stroke-linecap="round"/>
<path d="M663.704 84.885C663.704 115.712 638.714 140.702 607.887 140.702C577.06 140.702 552.07 115.712 552.07 84.885C552.07 54.0582 577.06 29.0679 607.887 29.0679C638.714 29.0679 663.704 54.0582 663.704 84.885Z" fill="#EEEDF3"/>
<path fill-rule="evenodd" clip-rule="evenodd" d="M614.299 140.345C614.289 120.02 614.298 97.6057 614.386 92.5114C614.734 72.14 634.82 76.4803 634.82 76.4803L659.183 92.5114L659.175 106.954C651.429 124.936 634.503 138.034 614.299 140.345Z" fill="#FFD3BB"/>
<path d="M651.935 98.3771L616.598 105.299C613.196 105.965 609.898 103.747 609.232 100.346L595.278 29.1081C594.612 25.7061 596.83 22.4082 600.232 21.742L635.569 14.8205C638.971 14.1541 642.269 16.3716 642.935 19.7736L656.889 91.0111C657.555 94.4124 655.337 97.7108 651.935 98.3771Z" fill="#FF5A23"/>
<path d="M656.058 86.3248L608.401 95.6593L596.354 34.1545L644.011 24.82L656.058 86.3248Z" fill="#FF985F"/>
<path d="M608.458 74.7237L595.815 75.7068C592.42 75.9712 589.454 73.4328 589.189 70.0372C588.925 66.6415 591.464 63.675 594.859 63.4114L607.502 62.4276C610.897 62.1627 613.863 64.7017 614.127 68.0968C614.392 71.493 611.853 74.4593 608.458 74.7237Z" fill="#FFD3BB"/>
<path d="M609.511 86.2769L596.869 87.26C593.473 87.5244 590.507 84.986 590.242 81.5904C589.978 78.1941 592.516 75.2285 595.912 74.964L608.554 73.981C611.95 73.7159 614.916 76.2549 615.18 79.65C615.445 83.0456 612.907 86.0125 609.511 86.2769Z" fill="#FFD3BB"/>
<path d="M611.635 97.5999L598.993 98.5837C595.598 98.8472 592.63 96.3092 592.366 92.9141C592.102 89.5183 594.641 86.552 598.036 86.2877L610.679 85.3045C614.074 85.0396 617.041 87.5785 617.305 90.9735C617.569 94.3692 615.031 97.3362 611.635 97.5999Z" fill="#FFD3BB"/>
<path d="M638.355 73.4961L623.184 76.467C620.743 76.9449 618.377 75.3539 617.899 72.9137L615.166 58.9557C614.688 56.5156 616.279 54.1501 618.72 53.6722L633.891 50.7013C636.331 50.2235 638.697 51.814 639.175 54.2541L641.908 68.2121C642.386 70.6523 640.795 73.0183 638.355 73.4961Z" fill="#FFF4EB"/>
<path d="M633.074 56.3506L630.831 44.896C630.096 41.142 626.457 38.6948 622.702 39.43C618.949 40.1651 616.502 43.8042 617.237 47.5582L617.316 48.0929" stroke="#FFF4EB" stroke-width="1.02" stroke-miterlimit="10" stroke-linecap="round"/>
<path fill-rule="evenodd" clip-rule="evenodd" d="M656.328 112.637C655.523 112.951 654.651 113.254 653.71 113.532C646.978 115.523 636.928 106.8 636.928 106.8C636.928 106.8 637.212 103.197 637.686 99.3098C638.16 95.4225 640.625 91.9144 641.858 90.7766C636.928 89.7337 633.42 88.0271 630.86 84.6138C628.204 81.0723 626.309 77.9768 625.835 72.4777C625.36 66.9785 627.352 64.9874 629.722 63.8497C632.092 62.7119 634.178 63.2808 636.454 64.4185C638.224 65.3039 639.271 68.6929 639.488 71.1503C639.772 74.3739 640.499 75.1618 641.953 76.5546C643.072 77.6268 645.461 77.5976 647.073 77.408C648.685 77.2183 650.147 77.3039 652.951 77.9768C655.321 78.5457 657.692 80.1576 659.683 82.8123C661.851 85.703 662.574 89.2097 663.049 93.4678C661.986 100.354 659.665 106.824 656.328 112.637Z" fill="#FFD3BB"/>
<path d="M483.833 85.06C483.833 115.887 458.844 140.876 428.016 140.876C397.19 140.876 372.199 115.887 372.199 85.06C372.199 54.2326 397.19 29.2429 428.016 29.2429C458.844 29.2429 483.833 54.2326 483.833 85.06Z" fill="#EEEDF3"/>
<path d="M432.604 99.1628H363.431C361.431 99.1628 359.81 97.5418 359.81 95.5418V41.2582C359.81 39.2582 361.431 37.6372 363.431 37.6372H432.604C434.604 37.6372 436.225 39.2582 436.225 41.2582V95.5418C436.225 97.5418 434.604 99.1628 432.604 99.1628Z" fill="#C8C5D6"/>
<path d="M432.474 37.6372H363.561C361.489 37.6372 359.81 39.3161 359.81 41.3874V46.668H436.225V41.3874C436.225 39.3161 434.546 37.6372 432.474 37.6372Z" fill="#48367D"/>
<path d="M369.193 42.1886C369.193 43.2242 368.354 44.0636 367.319 44.0636C366.283 44.0636 365.443 43.2242 365.443 42.1886C365.443 41.1529 366.283 40.3135 367.319 40.3135C368.354 40.3135 369.193 41.1529 369.193 42.1886Z" fill="white"/>
<path d="M375.347 42.1527C375.347 43.1883 374.508 44.0277 373.473 44.0277C372.437 44.0277 371.597 43.1883 371.597 42.1527C371.597 41.1171 372.437 40.2776 373.473 40.2776C374.508 40.2776 375.347 41.1171 375.347 42.1527Z" fill="white"/>
<path d="M381.599 42.1527C381.599 43.1883 380.76 44.0277 379.725 44.0277C378.689 44.0277 377.849 43.1883 377.849 42.1527C377.849 41.1171 378.689 40.2776 379.725 40.2776C380.76 40.2776 381.599 41.1171 381.599 42.1527Z" fill="white"/>
<g filter="url(#filter0_d)">
<rect x="373.106" y="65.3386" width="49.98" height="16.15" rx="1.19" fill="#FF5B24"/>
</g>
<path d="M383.97 70.8889V75.9889H386.983V75.0981H384.956V70.8889H383.97Z" fill="white"/>
<path d="M389.13 71.9633C388.069 71.9633 387.192 72.7385 387.192 74.0237C387.192 75.3089 388.069 76.0909 389.13 76.0909C390.191 76.0909 391.068 75.3089 391.068 74.0237C391.068 72.7385 390.191 71.9633 389.13 71.9633ZM389.13 72.8065C389.66 72.8065 390.102 73.2009 390.102 74.0237C390.102 74.8465 389.66 75.2477 389.13 75.2477C388.599 75.2477 388.157 74.8465 388.157 74.0237C388.157 73.2009 388.599 72.8065 389.13 72.8065Z" fill="white"/>
<path d="M393.12 75.7645C393.739 75.7645 394.106 75.4789 394.337 75.1389V75.4721C394.337 76.2269 394.058 76.5329 393.378 76.5329C392.964 76.5329 392.617 76.4037 392.447 75.9413L391.515 76.0773C391.712 77.0701 392.603 77.4033 393.31 77.4033C394.562 77.4033 395.296 76.7505 395.296 75.4381V72.0653H394.337V72.5413C394.038 72.1401 393.637 71.9633 393.188 71.9633C392.338 71.9633 391.536 72.5617 391.536 73.8061C391.536 75.1389 392.352 75.7645 393.12 75.7645ZM393.406 72.8065C393.916 72.8065 394.337 73.1805 394.337 73.8605C394.337 74.5745 393.916 74.9145 393.406 74.9145C392.916 74.9145 392.501 74.5745 392.501 73.8537C392.501 73.1601 392.93 72.8065 393.406 72.8065Z" fill="white"/>
<path d="M397.596 75.7645C398.214 75.7645 398.582 75.4789 398.813 75.1389V75.4721C398.813 76.2269 398.534 76.5329 397.854 76.5329C397.439 76.5329 397.092 76.4037 396.922 75.9413L395.991 76.0773C396.188 77.0701 397.079 77.4033 397.786 77.4033C399.037 77.4033 399.772 76.7505 399.772 75.4381V72.0653H398.813V72.5413C398.514 72.1401 398.112 71.9633 397.664 71.9633C396.814 71.9633 396.011 72.5617 396.011 73.8061C396.011 75.1389 396.827 75.7645 397.596 75.7645ZM397.881 72.8065C398.391 72.8065 398.813 73.1805 398.813 73.8605C398.813 74.5745 398.391 74.9145 397.881 74.9145C397.392 74.9145 396.977 74.5745 396.977 73.8537C396.977 73.1601 397.405 72.8065 397.881 72.8065Z" fill="white"/>
<path d="M402.531 72.0721V75.9889H403.483V72.0721H402.531ZM403.007 70.3721C402.687 70.3721 402.469 70.5897 402.469 70.9025C402.469 71.2153 402.687 71.4329 403.007 71.4329C403.326 71.4329 403.544 71.2153 403.544 70.9025C403.544 70.5897 403.326 70.3721 403.007 70.3721Z" fill="white"/>
<path d="M406.172 72.8405C406.594 72.8405 406.913 73.0785 406.913 73.7313V75.9889H407.872V73.3641C407.872 72.3101 407.226 71.9633 406.546 71.9633C406.111 71.9633 405.608 72.1537 405.336 72.6501V72.0721H404.377V75.9889H405.336V73.7517C405.336 73.1261 405.689 72.8405 406.172 72.8405Z" fill="white"/>
<path d="M410.555 72.8405C410.976 72.8405 411.296 73.0785 411.296 73.7313V75.9889H412.255V73.3641C412.255 72.3101 411.609 71.9633 410.929 71.9633C410.494 71.9633 409.99 72.1537 409.718 72.6501V72.0721H408.76V75.9889H409.718V73.7517C409.718 73.1261 410.072 72.8405 410.555 72.8405Z" fill="white"/>
<path d="M465.646 125.02L465.893 123.567L468.76 101.058L455.188 90.9042L436.083 96.3326L437.857 125.8C446.844 127.959 455.754 127.64 465.646 125.02Z" fill="#FFD3BA"/>
<path d="M440.789 107.991C439.244 106.72 438.566 104.579 439.25 102.574C441.448 96.1356 441.744 92.4485 441.858 89.2234C441.955 86.4955 444.245 84.3625 446.973 84.4596C449.7 84.5565 451.833 86.8456 451.737 89.5736C451.57 94.2756 450.974 98.8291 448.605 105.768C447.723 108.351 444.914 109.73 442.331 108.848C441.753 108.651 441.235 108.357 440.789 107.991Z" fill="#FFD3BA"/>
<path d="M450.376 106.619C448.786 105.312 448.124 103.09 448.89 101.057C450.212 97.5514 450.798 94.316 450.631 91.4378C450.474 88.7127 452.556 86.3765 455.28 86.219C458.005 86.0614 460.342 88.1422 460.499 90.8675C460.746 95.1341 459.952 99.736 458.14 104.543C457.177 107.098 454.326 108.388 451.772 107.425C451.252 107.229 450.783 106.953 450.376 106.619Z" fill="#FFD3BA"/>
<path d="M460.679 108.919C458.91 107.866 457.921 105.77 458.372 103.643C459.151 99.9798 459.243 96.6924 458.645 93.8717C458.08 91.2018 459.785 88.5776 462.456 88.0121C465.126 87.4461 467.749 89.1518 468.315 91.8223C469.202 96.0037 469.11 100.672 468.042 105.697C467.474 108.367 464.85 110.072 462.18 109.504C461.637 109.389 461.133 109.188 460.679 108.919Z" fill="#FFD3BA"/>
<path d="M436.956 139.262C435.623 129.371 432.303 126.121 431.816 125.468C431.353 124.849 427.025 119.974 425.428 117.072C423.45 113.475 421.119 108.346 423.14 104.152C425.119 100.046 430.066 100.869 433.908 97.8011L442.141 94.7934C445.411 94.233 448.517 96.4294 449.078 99.6998C449.639 102.971 447.442 106.077 444.171 106.638L442.549 108.381C441.955 108.624 442.46 110.299 442.615 111.001C443.555 112.678 440.244 115.802 441.778 117.859C443.763 120.518 443.215 124.283 440.556 126.267C438.549 127.765 437.271 141.598 436.956 139.262Z" fill="#FFD3BA"/>
<path fill-rule="evenodd" clip-rule="evenodd" d="M466.204 125.766C458.025 133.441 447.533 138.68 435.886 140.323C435.6 128.254 434.983 117.646 433.733 114.9C430.458 107.701 461.573 117.426 461.573 117.426C461.573 117.426 466.459 105.616 466.204 125.766Z" fill="#FFD3BA"/>
<path d="M424.145 75.8608C424.145 75.8608 432.376 78.4027 435.395 82.5366C439.861 88.6526 438.486 98.0267 434.507 105.019" stroke="#FFD2BA" stroke-width="13.09" stroke-linecap="round" stroke-linejoin="round"/>
</g>
<defs>
<filter id="filter0_d" x="372.63" y="65.1006" width="50.932" height="17.102" filterUnits="userSpaceOnUse" color-interpolation-filters="sRGB">
<feFlood flood-opacity="0" result="BackgroundImageFix"/>
<feColorMatrix in="SourceAlpha" type="matrix" values="0 0 0 0 0 0 0 0 0 0 0 0 0 0 0 0 0 0 127 0"/>
<feOffset dy="0.238"/>
<feGaussianBlur stdDeviation="0.238"/>
<feColorMatrix type="matrix" values="0 0 0 0 0.0862745 0 0 0 0 0.0705882 0 0 0 0 0.145098 0 0 0 0.07 0"/>
<feBlend mode="normal" in2="BackgroundImageFix" result="effect1_dropShadow"/>
<feBlend mode="normal" in="SourceGraphic" in2="effect1_dropShadow" result="shape"/>
</filter>
<clipPath id="clip0">
<rect width="1049" height="340" fill="white"/>
</clipPath>
</defs>
</svg>
