<svg width="243" height="434" viewBox="0 0 243 434" fill="none" xmlns="http://www.w3.org/2000/svg">
<line x1="40" y1="393.5" x2="99" y2="393.5" stroke="#49367E" stroke-dasharray="3 3"/>
<line x1="40.5" y1="332" x2="40.5" y2="394" stroke="#49367E" stroke-dasharray="3 3"/>
<line x1="40.75" y1="29" x2="40.75" y2="332" stroke="#FF5B24" stroke-width="1.5"/>
<circle cx="41.2454" cy="105.245" r="4.24543" fill="white" stroke="#FF5B24" stroke-width="2"/>
<ellipse cx="41.2454" cy="29.4223" rx="4.24543" ry="4.42232" fill="white" stroke="#FF5B24" stroke-width="2"/>
<path d="M104.764 22.616L104.752 22.712C104.608 23.852 103.684 24.644 102.268 24.644C100.78 24.644 99.292 23.756 99.292 21.536C99.292 19.424 100.528 18.356 102.184 18.356C103.444 18.356 104.512 18.836 104.716 20.336L106.3 20.096C105.952 17.588 103.78 16.82 102.28 16.82C99.592 16.82 97.6 18.752 97.6 21.536C97.6 24.2 99.556 26.18 101.836 26.18C103.288 26.18 104.32 25.28 104.8 24.32L104.812 24.32L105.088 26L106.42 26L106.42 21.2L102.4 21.2L102.4 22.616L104.764 22.616ZM111.391 20.192C112.363 20.192 113.131 20.648 113.251 21.8L109.495 21.8C109.699 20.732 110.395 20.192 111.391 20.192ZM114.667 22.868L114.667 22.376C114.667 20.336 113.323 18.896 111.451 18.896C109.447 18.896 107.923 20.3 107.923 22.52C107.923 24.8 109.507 26.18 111.547 26.18C112.819 26.18 114.355 25.448 114.619 23.852L113.227 23.612C113.071 24.404 112.615 24.884 111.487 24.884C110.239 24.884 109.555 24.08 109.447 22.868L114.667 22.868ZM116.675 17.42L116.675 19.088L115.391 19.088L115.391 20.3L116.675 20.3L116.675 24.056C116.675 25.328 117.311 26.12 118.691 26.12C119.111 26.12 119.603 26.012 119.963 25.904L119.723 24.692C119.447 24.764 119.279 24.8 119.003 24.8C118.391 24.8 118.175 24.524 118.175 23.984L118.175 20.3L119.903 20.3L119.903 19.088L118.175 19.088L118.175 17.18L116.675 17.42ZM124.464 21.032C124.464 21.992 125.016 22.7 126.192 22.952L127.452 23.228C128.316 23.42 128.556 23.672 128.556 24.08C128.556 24.656 127.992 24.98 127.164 24.98C126.192 24.98 125.556 24.524 125.46 23.672L124.128 23.912C124.356 25.52 125.856 26.18 127.2 26.18C128.532 26.18 129.948 25.436 129.948 23.936C129.948 22.976 129.384 22.328 128.16 22.064L126.792 21.764C126.096 21.608 125.856 21.272 125.856 20.912C125.856 20.408 126.336 20.096 127.02 20.096C127.848 20.096 128.46 20.396 128.508 21.296L129.84 21.056C129.444 19.508 128.4 18.896 127.008 18.896C125.88 18.896 124.464 19.52 124.464 21.032ZM131.945 17.42L131.945 19.088L130.661 19.088L130.661 20.3L131.945 20.3L131.945 24.056C131.945 25.328 132.581 26.12 133.961 26.12C134.381 26.12 134.873 26.012 135.233 25.904L134.993 24.692C134.717 24.764 134.549 24.8 134.273 24.8C133.661 24.8 133.445 24.524 133.445 23.984L133.445 20.3L135.173 20.3L135.173 19.088L133.445 19.088L133.445 17.18L131.945 17.42ZM139.296 26.18C140.532 26.18 141.288 25.424 141.636 24.572L141.636 26L143.136 26L143.136 19.088L141.636 19.088L141.636 20.444C141.144 19.352 140.388 18.896 139.308 18.896C137.856 18.896 136.26 20.06 136.26 22.472C136.26 25.004 137.868 26.18 139.296 26.18ZM139.716 20.192C140.724 20.192 141.636 20.96 141.636 22.556C141.636 24.2 140.724 24.872 139.704 24.872C138.756 24.872 137.772 24.164 137.772 22.556C137.772 20.924 138.768 20.192 139.716 20.192ZM148.37 20.516C148.742 20.516 149.006 20.564 149.27 20.672L149.414 18.992C149.27 18.92 149.066 18.896 148.886 18.896C148.202 18.896 147.122 19.292 146.558 20.744L146.558 19.088L145.058 19.088L145.058 26L146.558 26L146.558 22.976C146.558 21.056 147.398 20.516 148.37 20.516ZM151.07 17.42L151.07 19.088L149.786 19.088L149.786 20.3L151.07 20.3L151.07 24.056C151.07 25.328 151.706 26.12 153.086 26.12C153.506 26.12 153.998 26.012 154.358 25.904L154.118 24.692C153.842 24.764 153.674 24.8 153.398 24.8C152.786 24.8 152.57 24.524 152.57 23.984L152.57 20.3L154.298 20.3L154.298 19.088L152.57 19.088L152.57 17.18L151.07 17.42ZM158.805 20.192C159.777 20.192 160.545 20.648 160.665 21.8L156.909 21.8C157.113 20.732 157.809 20.192 158.805 20.192ZM162.081 22.868L162.081 22.376C162.081 20.336 160.737 18.896 158.865 18.896C156.861 18.896 155.337 20.3 155.337 22.52C155.337 24.8 156.921 26.18 158.961 26.18C160.233 26.18 161.769 25.448 162.033 23.852L160.641 23.612C160.485 24.404 160.029 24.884 158.901 24.884C157.653 24.884 156.969 24.08 156.861 22.868L162.081 22.868ZM170.054 16.7L168.554 16.7L168.554 20.444C168.062 19.352 167.318 18.896 166.382 18.896C164.774 18.896 163.178 20.06 163.178 22.472C163.178 25.004 164.786 26.18 166.19 26.18C167.45 26.18 168.206 25.52 168.554 24.692L168.554 26L170.054 26L170.054 16.7ZM166.634 20.192C167.642 20.192 168.554 20.996 168.554 22.556C168.554 24.164 167.642 24.872 166.622 24.872C165.674 24.872 164.69 24.128 164.69 22.556C164.69 20.96 165.686 20.192 166.634 20.192ZM185.17 19.088L183.502 19.088L182.026 24.128L180.358 19.088L179.242 19.088L177.586 24.104L176.098 19.088L174.43 19.088L176.914 26L178.21 26L179.806 21.632L181.39 26L182.686 26L185.17 19.088ZM186.308 19.088L186.308 26L187.808 26L187.808 19.088L186.308 19.088ZM187.052 16.1C186.548 16.1 186.152 16.508 186.152 17C186.152 17.492 186.548 17.9 187.052 17.9C187.556 17.9 187.952 17.492 187.952 17C187.952 16.508 187.556 16.1 187.052 16.1ZM190.258 17.42L190.258 19.088L188.974 19.088L188.974 20.3L190.258 20.3L190.258 24.056C190.258 25.328 190.894 26.12 192.274 26.12C192.694 26.12 193.186 26.012 193.546 25.904L193.306 24.692C193.03 24.764 192.862 24.8 192.586 24.8C191.974 24.8 191.758 24.524 191.758 23.984L191.758 20.3L193.486 20.3L193.486 19.088L191.758 19.088L191.758 17.18L190.258 17.42ZM194.956 16.7L194.956 26L196.456 26L196.456 22.052C196.456 20.816 197.164 20.252 198.172 20.252C198.976 20.252 199.624 20.732 199.624 22.016L199.624 26L201.124 26L201.124 21.368C201.124 19.508 199.984 18.896 198.664 18.896C197.932 18.896 196.948 19.22 196.456 20.108L196.456 16.7L194.956 16.7ZM104.344 36.776C104.092 34.916 102.616 33.896 101.008 33.896C99.028 33.896 97.528 35.3 97.528 37.532C97.528 39.668 99.004 41.18 101.116 41.18C102.448 41.18 104.008 40.448 104.332 38.336L102.964 38.096C102.808 39.272 102.16 39.872 101.104 39.872C99.7 39.872 99.04 38.804 99.04 37.532C99.04 35.996 99.88 35.192 100.936 35.192C101.896 35.192 102.7 35.708 102.868 37.016L104.344 36.776ZM108.741 33.896C106.869 33.896 105.321 35.264 105.321 37.532C105.321 39.8 106.869 41.18 108.741 41.18C110.613 41.18 112.161 39.8 112.161 37.532C112.161 35.264 110.613 33.896 108.741 33.896ZM108.741 35.192C109.773 35.192 110.649 35.948 110.649 37.532C110.649 39.116 109.773 39.884 108.741 39.884C107.709 39.884 106.833 39.116 106.833 37.532C106.833 35.948 107.709 35.192 108.741 35.192ZM116.963 35.516C117.335 35.516 117.599 35.564 117.863 35.672L118.007 33.992C117.863 33.92 117.659 33.896 117.479 33.896C116.795 33.896 115.715 34.292 115.151 35.744L115.151 34.088L113.651 34.088L113.651 41L115.151 41L115.151 37.976C115.151 36.056 115.991 35.516 116.963 35.516ZM122.172 35.192C123.144 35.192 123.912 35.648 124.032 36.8L120.276 36.8C120.48 35.732 121.176 35.192 122.172 35.192ZM125.448 37.868L125.448 37.376C125.448 35.336 124.104 33.896 122.232 33.896C120.228 33.896 118.704 35.3 118.704 37.52C118.704 39.8 120.288 41.18 122.328 41.18C123.6 41.18 125.136 40.448 125.4 38.852L124.008 38.612C123.852 39.404 123.396 39.884 122.268 39.884C121.02 39.884 120.336 39.08 120.228 37.868L125.448 37.868ZM136.547 36.776C136.295 34.916 134.819 33.896 133.211 33.896C131.231 33.896 129.731 35.3 129.731 37.532C129.731 39.668 131.207 41.18 133.319 41.18C134.651 41.18 136.211 40.448 136.535 38.336L135.167 38.096C135.011 39.272 134.363 39.872 133.307 39.872C131.903 39.872 131.243 38.804 131.243 37.532C131.243 35.996 132.083 35.192 133.139 35.192C134.099 35.192 134.903 35.708 135.071 37.016L136.547 36.776ZM140.944 33.896C139.072 33.896 137.524 35.264 137.524 37.532C137.524 39.8 139.072 41.18 140.944 41.18C142.816 41.18 144.364 39.8 144.364 37.532C144.364 35.264 142.816 33.896 140.944 33.896ZM140.944 35.192C141.976 35.192 142.852 35.948 142.852 37.532C142.852 39.116 141.976 39.884 140.944 39.884C139.912 39.884 139.036 39.116 139.036 37.532C139.036 35.948 139.912 35.192 140.944 35.192ZM149.059 35.252C149.875 35.252 150.523 35.732 150.523 37.016L150.523 41L152.023 41L152.023 36.368C152.023 34.508 150.847 33.896 149.611 33.896C148.795 33.896 147.847 34.232 147.355 35.108L147.355 34.088L145.855 34.088L145.855 41L147.355 41L147.355 37.052C147.355 35.816 148.063 35.252 149.059 35.252ZM153.738 36.032C153.738 36.992 154.29 37.7 155.466 37.952L156.726 38.228C157.59 38.42 157.83 38.672 157.83 39.08C157.83 39.656 157.266 39.98 156.438 39.98C155.466 39.98 154.83 39.524 154.734 38.672L153.402 38.912C153.63 40.52 155.13 41.18 156.474 41.18C157.806 41.18 159.222 40.436 159.222 38.936C159.222 37.976 158.658 37.328 157.434 37.064L156.066 36.764C155.37 36.608 155.13 36.272 155.13 35.912C155.13 35.408 155.61 35.096 156.294 35.096C157.122 35.096 157.734 35.396 157.782 36.296L159.114 36.056C158.718 34.508 157.674 33.896 156.282 33.896C155.154 33.896 153.738 34.52 153.738 36.032ZM163.726 35.192C164.698 35.192 165.466 35.648 165.586 36.8L161.83 36.8C162.034 35.732 162.73 35.192 163.726 35.192ZM167.002 37.868L167.002 37.376C167.002 35.336 165.658 33.896 163.786 33.896C161.782 33.896 160.258 35.3 160.258 37.52C160.258 39.8 161.842 41.18 163.882 41.18C165.154 41.18 166.69 40.448 166.954 38.852L165.562 38.612C165.406 39.404 164.95 39.884 163.822 39.884C162.574 39.884 161.89 39.08 161.782 37.868L167.002 37.868ZM172.323 33.896C171.147 33.896 170.427 34.64 169.983 35.444L169.983 34.088L168.483 34.088L168.483 43.4L169.983 43.4L169.983 39.692C170.559 40.676 171.303 41.18 172.179 41.18C173.787 41.18 175.359 39.956 175.359 37.436C175.359 35.024 173.727 33.896 172.323 33.896ZM171.915 35.192C172.863 35.192 173.847 35.948 173.847 37.52C173.847 39.116 172.863 39.872 171.903 39.872C170.895 39.872 169.983 39.056 169.983 37.52C169.983 35.912 170.895 35.192 171.915 35.192ZM177.425 32.42L177.425 34.088L176.141 34.088L176.141 35.3L177.425 35.3L177.425 39.056C177.425 40.328 178.061 41.12 179.441 41.12C179.861 41.12 180.353 41.012 180.713 40.904L180.473 39.692C180.197 39.764 180.029 39.8 179.753 39.8C179.141 39.8 178.925 39.524 178.925 38.984L178.925 35.3L180.653 35.3L180.653 34.088L178.925 34.088L178.925 32.18L177.425 32.42ZM181.98 36.032C181.98 36.992 182.532 37.7 183.708 37.952L184.968 38.228C185.832 38.42 186.072 38.672 186.072 39.08C186.072 39.656 185.508 39.98 184.68 39.98C183.708 39.98 183.072 39.524 182.976 38.672L181.644 38.912C181.872 40.52 183.372 41.18 184.716 41.18C186.048 41.18 187.464 40.436 187.464 38.936C187.464 37.976 186.9 37.328 185.676 37.064L184.308 36.764C183.612 36.608 183.372 36.272 183.372 35.912C183.372 35.408 183.852 35.096 184.536 35.096C185.364 35.096 185.976 35.396 186.024 36.296L187.356 36.056C186.96 34.508 185.916 33.896 184.524 33.896C183.396 33.896 181.98 34.52 181.98 36.032Z" fill="#FF5B24"/>
<path d="M104.42 167L104.42 172.772C104.42 174.2 103.592 174.644 102.452 174.644C101.312 174.644 100.484 174.2 100.484 172.772L100.484 167L98.912 167L98.912 172.844C98.912 175.124 100.508 176.18 102.452 176.18C104.396 176.18 105.992 175.124 105.992 172.844L105.992 167L104.42 167ZM107.722 171.032C107.722 171.992 108.274 172.7 109.45 172.952L110.71 173.228C111.574 173.42 111.814 173.672 111.814 174.08C111.814 174.656 111.25 174.98 110.422 174.98C109.45 174.98 108.814 174.524 108.718 173.672L107.386 173.912C107.614 175.52 109.114 176.18 110.458 176.18C111.79 176.18 113.206 175.436 113.206 173.936C113.206 172.976 112.642 172.328 111.418 172.064L110.05 171.764C109.354 171.608 109.114 171.272 109.114 170.912C109.114 170.408 109.594 170.096 110.278 170.096C111.106 170.096 111.718 170.396 111.766 171.296L113.098 171.056C112.702 169.508 111.658 168.896 110.266 168.896C109.138 168.896 107.722 169.52 107.722 171.032ZM117.711 170.192C118.683 170.192 119.451 170.648 119.571 171.8L115.815 171.8C116.019 170.732 116.715 170.192 117.711 170.192ZM120.987 172.868L120.987 172.376C120.987 170.336 119.643 168.896 117.771 168.896C115.767 168.896 114.243 170.3 114.243 172.52C114.243 174.8 115.827 176.18 117.867 176.18C119.139 176.18 120.675 175.448 120.939 173.852L119.547 173.612C119.391 174.404 118.935 174.884 117.807 174.884C116.559 174.884 115.875 174.08 115.767 172.868L120.987 172.868ZM125.78 170.516C126.152 170.516 126.416 170.564 126.68 170.672L126.824 168.992C126.68 168.92 126.476 168.896 126.296 168.896C125.612 168.896 124.532 169.292 123.968 170.744L123.968 169.088L122.468 169.088L122.468 176L123.968 176L123.968 172.976C123.968 171.056 124.808 170.516 125.78 170.516ZM137.571 171.776C137.319 169.916 135.843 168.896 134.235 168.896C132.255 168.896 130.755 170.3 130.755 172.532C130.755 174.668 132.231 176.18 134.343 176.18C135.675 176.18 137.235 175.448 137.559 173.336L136.191 173.096C136.035 174.272 135.387 174.872 134.331 174.872C132.927 174.872 132.267 173.804 132.267 172.532C132.267 170.996 133.107 170.192 134.163 170.192C135.123 170.192 135.927 170.708 136.095 172.016L137.571 171.776ZM138.98 166.7L138.98 176L140.48 176L140.48 172.052C140.48 170.816 141.188 170.252 142.196 170.252C143 170.252 143.648 170.732 143.648 172.016L143.648 176L145.148 176L145.148 171.368C145.148 169.508 144.008 168.896 142.688 168.896C141.956 168.896 140.972 169.22 140.48 170.108L140.48 166.7L138.98 166.7ZM149.995 168.896C148.123 168.896 146.575 170.264 146.575 172.532C146.575 174.8 148.123 176.18 149.995 176.18C151.867 176.18 153.415 174.8 153.415 172.532C153.415 170.264 151.867 168.896 149.995 168.896ZM149.995 170.192C151.027 170.192 151.903 170.948 151.903 172.532C151.903 174.116 151.027 174.884 149.995 174.884C148.963 174.884 148.087 174.116 148.087 172.532C148.087 170.948 148.963 170.192 149.995 170.192ZM157.893 168.896C156.021 168.896 154.473 170.264 154.473 172.532C154.473 174.8 156.021 176.18 157.893 176.18C159.765 176.18 161.313 174.8 161.313 172.532C161.313 170.264 159.765 168.896 157.893 168.896ZM157.893 170.192C158.925 170.192 159.801 170.948 159.801 172.532C159.801 174.116 158.925 174.884 157.893 174.884C156.861 174.884 155.985 174.116 155.985 172.532C155.985 170.948 156.861 170.192 157.893 170.192ZM162.66 171.032C162.66 171.992 163.212 172.7 164.388 172.952L165.648 173.228C166.512 173.42 166.752 173.672 166.752 174.08C166.752 174.656 166.188 174.98 165.36 174.98C164.388 174.98 163.752 174.524 163.656 173.672L162.324 173.912C162.552 175.52 164.052 176.18 165.396 176.18C166.728 176.18 168.144 175.436 168.144 173.936C168.144 172.976 167.58 172.328 166.356 172.064L164.988 171.764C164.292 171.608 164.052 171.272 164.052 170.912C164.052 170.408 164.532 170.096 165.216 170.096C166.044 170.096 166.656 170.396 166.704 171.296L168.036 171.056C167.64 169.508 166.596 168.896 165.204 168.896C164.076 168.896 162.66 169.52 162.66 171.032ZM172.648 170.192C173.62 170.192 174.388 170.648 174.508 171.8L170.752 171.8C170.956 170.732 171.652 170.192 172.648 170.192ZM175.924 172.868L175.924 172.376C175.924 170.336 174.58 168.896 172.708 168.896C170.704 168.896 169.18 170.3 169.18 172.52C169.18 174.8 170.764 176.18 172.804 176.18C174.076 176.18 175.612 175.448 175.876 173.852L174.484 173.612C174.328 174.404 173.872 174.884 172.744 174.884C171.496 174.884 170.812 174.08 170.704 172.868L175.924 172.868ZM180.64 166.7L180.64 176L182.14 176L182.14 166.7L180.64 166.7ZM187.05 168.896C185.178 168.896 183.63 170.264 183.63 172.532C183.63 174.8 185.178 176.18 187.05 176.18C188.922 176.18 190.47 174.8 190.47 172.532C190.47 170.264 188.922 168.896 187.05 168.896ZM187.05 170.192C188.082 170.192 188.958 170.948 188.958 172.532C188.958 174.116 188.082 174.884 187.05 174.884C186.018 174.884 185.142 174.116 185.142 172.532C185.142 170.948 186.018 170.192 187.05 170.192ZM194.504 175.604C195.716 175.604 196.352 174.812 196.724 174.056L196.724 175.088C196.724 176.552 196.112 177.152 194.78 177.152C193.94 177.152 193.136 176.912 193.004 175.916L191.552 176.156C191.9 177.908 193.472 178.496 194.72 178.496C196.928 178.496 198.224 177.344 198.224 175.028L198.224 169.076L196.724 169.076L196.724 170.42C196.196 169.352 195.536 168.896 194.624 168.896C193.064 168.896 191.588 169.952 191.588 172.148C191.588 174.5 193.088 175.604 194.504 175.604ZM194.888 170.192C195.896 170.192 196.724 170.924 196.724 172.244C196.724 173.636 195.896 174.296 194.888 174.296C193.916 174.296 193.1 173.636 193.1 172.232C193.1 170.876 193.952 170.192 194.888 170.192ZM200.14 169.088L200.14 176L201.64 176L201.64 169.088L200.14 169.088ZM200.884 166.1C200.38 166.1 199.984 166.508 199.984 167C199.984 167.492 200.38 167.9 200.884 167.9C201.388 167.9 201.784 167.492 201.784 167C201.784 166.508 201.388 166.1 200.884 166.1ZM206.766 170.252C207.582 170.252 208.23 170.732 208.23 172.016L208.23 176L209.73 176L209.73 171.368C209.73 169.508 208.554 168.896 207.318 168.896C206.502 168.896 205.554 169.232 205.062 170.108L205.062 169.088L203.562 169.088L203.562 176L205.062 176L205.062 172.052C205.062 170.816 205.77 170.252 206.766 170.252ZM108.92 189.088L107.252 189.088L105.776 194.128L104.108 189.088L102.992 189.088L101.336 194.104L99.848 189.088L98.18 189.088L100.664 196L101.96 196L103.556 191.632L105.14 196L106.436 196L108.92 189.088ZM110.058 189.088L110.058 196L111.558 196L111.558 189.088L110.058 189.088ZM110.802 186.1C110.298 186.1 109.902 186.508 109.902 187C109.902 187.492 110.298 187.9 110.802 187.9C111.306 187.9 111.702 187.492 111.702 187C111.702 186.508 111.306 186.1 110.802 186.1ZM114.008 187.42L114.008 189.088L112.724 189.088L112.724 190.3L114.008 190.3L114.008 194.056C114.008 195.328 114.644 196.12 116.024 196.12C116.444 196.12 116.936 196.012 117.296 195.904L117.056 194.692C116.78 194.764 116.612 194.8 116.336 194.8C115.724 194.8 115.508 194.524 115.508 193.984L115.508 190.3L117.236 190.3L117.236 189.088L115.508 189.088L115.508 187.18L114.008 187.42ZM118.706 186.7L118.706 196L120.206 196L120.206 192.052C120.206 190.816 120.914 190.252 121.922 190.252C122.726 190.252 123.374 190.732 123.374 192.016L123.374 196L124.874 196L124.874 191.368C124.874 189.508 123.734 188.896 122.414 188.896C121.682 188.896 120.698 189.22 120.206 190.108L120.206 186.7L118.706 186.7ZM136.088 189.088L134.42 189.088L132.644 194.308L130.856 189.088L129.188 189.088L131.948 196L133.328 196L136.088 189.088ZM137.233 189.088L137.233 196L138.733 196L138.733 189.088L137.233 189.088ZM137.977 186.1C137.473 186.1 137.077 186.508 137.077 187C137.077 187.492 137.473 187.9 137.977 187.9C138.481 187.9 138.877 187.492 138.877 187C138.877 186.508 138.481 186.1 137.977 186.1ZM144.495 188.896C143.319 188.896 142.599 189.64 142.155 190.444L142.155 189.088L140.655 189.088L140.655 198.4L142.155 198.4L142.155 194.692C142.731 195.676 143.475 196.18 144.351 196.18C145.959 196.18 147.531 194.956 147.531 192.436C147.531 190.024 145.899 188.896 144.495 188.896ZM144.087 190.192C145.035 190.192 146.019 190.948 146.019 192.52C146.019 194.116 145.035 194.872 144.075 194.872C143.067 194.872 142.155 194.056 142.155 192.52C142.155 190.912 143.067 190.192 144.087 190.192ZM152.909 188.896C151.733 188.896 151.013 189.64 150.569 190.444L150.569 189.088L149.069 189.088L149.069 198.4L150.569 198.4L150.569 194.692C151.145 195.676 151.889 196.18 152.765 196.18C154.373 196.18 155.945 194.956 155.945 192.436C155.945 190.024 154.313 188.896 152.909 188.896ZM152.501 190.192C153.449 190.192 154.433 190.948 154.433 192.52C154.433 194.116 153.449 194.872 152.489 194.872C151.481 194.872 150.569 194.056 150.569 192.52C150.569 190.912 151.481 190.192 152.501 190.192ZM157.339 191.032C157.339 191.992 157.891 192.7 159.067 192.952L160.327 193.228C161.191 193.42 161.431 193.672 161.431 194.08C161.431 194.656 160.867 194.98 160.039 194.98C159.067 194.98 158.431 194.524 158.335 193.672L157.003 193.912C157.231 195.52 158.731 196.18 160.075 196.18C161.407 196.18 162.823 195.436 162.823 193.936C162.823 192.976 162.259 192.328 161.035 192.064L159.667 191.764C158.971 191.608 158.731 191.272 158.731 190.912C158.731 190.408 159.211 190.096 159.895 190.096C160.723 190.096 161.335 190.396 161.383 191.296L162.715 191.056C162.319 189.508 161.275 188.896 159.883 188.896C158.755 188.896 157.339 189.52 157.339 191.032Z" fill="#FF5B24"/>
<path d="M103.42 253L103.42 258.772C103.42 260.2 102.592 260.644 101.452 260.644C100.312 260.644 99.484 260.2 99.484 258.772L99.484 253L97.912 253L97.912 258.844C97.912 261.124 99.508 262.18 101.452 262.18C103.396 262.18 104.992 261.124 104.992 258.844L104.992 253L103.42 253ZM106.722 257.032C106.722 257.992 107.274 258.7 108.45 258.952L109.71 259.228C110.574 259.42 110.814 259.672 110.814 260.08C110.814 260.656 110.25 260.98 109.422 260.98C108.45 260.98 107.814 260.524 107.718 259.672L106.386 259.912C106.614 261.52 108.114 262.18 109.458 262.18C110.79 262.18 112.206 261.436 112.206 259.936C112.206 258.976 111.642 258.328 110.418 258.064L109.05 257.764C108.354 257.608 108.114 257.272 108.114 256.912C108.114 256.408 108.594 256.096 109.278 256.096C110.106 256.096 110.718 256.396 110.766 257.296L112.098 257.056C111.702 255.508 110.658 254.896 109.266 254.896C108.138 254.896 106.722 255.52 106.722 257.032ZM116.711 256.192C117.683 256.192 118.451 256.648 118.571 257.8L114.815 257.8C115.019 256.732 115.715 256.192 116.711 256.192ZM119.987 258.868L119.987 258.376C119.987 256.336 118.643 254.896 116.771 254.896C114.767 254.896 113.243 256.3 113.243 258.52C113.243 260.8 114.827 262.18 116.867 262.18C118.139 262.18 119.675 261.448 119.939 259.852L118.547 259.612C118.391 260.404 117.935 260.884 116.807 260.884C115.559 260.884 114.875 260.08 114.767 258.868L119.987 258.868ZM124.78 256.516C125.152 256.516 125.416 256.564 125.68 256.672L125.824 254.992C125.68 254.92 125.476 254.896 125.296 254.896C124.612 254.896 123.532 255.292 122.968 256.744L122.968 255.088L121.468 255.088L121.468 262L122.968 262L122.968 258.976C122.968 257.056 123.808 256.516 124.78 256.516ZM136.571 257.776C136.319 255.916 134.843 254.896 133.235 254.896C131.255 254.896 129.755 256.3 129.755 258.532C129.755 260.668 131.231 262.18 133.343 262.18C134.675 262.18 136.235 261.448 136.559 259.336L135.191 259.096C135.035 260.272 134.387 260.872 133.331 260.872C131.927 260.872 131.267 259.804 131.267 258.532C131.267 256.996 132.107 256.192 133.163 256.192C134.123 256.192 134.927 256.708 135.095 258.016L136.571 257.776ZM140.968 254.896C139.096 254.896 137.548 256.264 137.548 258.532C137.548 260.8 139.096 262.18 140.968 262.18C142.84 262.18 144.388 260.8 144.388 258.532C144.388 256.264 142.84 254.896 140.968 254.896ZM140.968 256.192C142 256.192 142.876 256.948 142.876 258.532C142.876 260.116 142 260.884 140.968 260.884C139.936 260.884 139.06 260.116 139.06 258.532C139.06 256.948 139.936 256.192 140.968 256.192ZM149.082 256.252C149.898 256.252 150.546 256.732 150.546 258.016L150.546 262L152.046 262L152.046 257.368C152.046 255.508 150.87 254.896 149.634 254.896C148.818 254.896 147.87 255.232 147.378 256.108L147.378 255.088L145.878 255.088L145.878 262L147.378 262L147.378 258.052C147.378 256.816 148.086 256.252 149.082 256.252ZM154.301 262L155.801 262L155.801 256.3L157.517 256.3L157.517 255.088L155.801 255.088L155.801 254.812C155.801 254.152 155.993 253.804 156.629 253.804C156.797 253.804 156.941 253.816 157.085 253.84L157.193 252.568C157.001 252.508 156.749 252.472 156.461 252.472C155.165 252.472 154.301 253.288 154.301 254.824L154.301 255.088L153.353 255.088L153.353 256.3L154.301 256.3L154.301 262ZM158.581 255.088L158.581 262L160.081 262L160.081 255.088L158.581 255.088ZM159.325 252.1C158.821 252.1 158.425 252.508 158.425 253C158.425 253.492 158.821 253.9 159.325 253.9C159.829 253.9 160.225 253.492 160.225 253C160.225 252.508 159.829 252.1 159.325 252.1ZM165.315 256.516C165.687 256.516 165.951 256.564 166.215 256.672L166.359 254.992C166.215 254.92 166.011 254.896 165.831 254.896C165.147 254.896 164.067 255.292 163.503 256.744L163.503 255.088L162.003 255.088L162.003 262L163.503 262L163.503 258.976C163.503 257.056 164.343 256.516 165.315 256.516ZM175.131 256.252C175.983 256.252 176.631 256.732 176.631 258.016L176.631 262L178.131 262L178.131 257.368C178.131 255.508 176.991 254.896 175.731 254.896C174.963 254.896 173.991 255.208 173.475 256.24C173.103 255.256 172.227 254.896 171.303 254.896C170.475 254.896 169.479 255.22 168.987 256.108L168.987 255.088L167.487 255.088L167.487 262L168.987 262L168.987 258.052C168.987 256.816 169.695 256.252 170.655 256.252C171.507 256.252 172.155 256.732 172.155 258.016L172.155 262L173.655 262L173.655 258.052C173.655 256.816 174.279 256.252 175.131 256.252ZM179.847 257.032C179.847 257.992 180.399 258.7 181.575 258.952L182.835 259.228C183.699 259.42 183.939 259.672 183.939 260.08C183.939 260.656 183.375 260.98 182.547 260.98C181.575 260.98 180.939 260.524 180.843 259.672L179.511 259.912C179.739 261.52 181.239 262.18 182.583 262.18C183.915 262.18 185.331 261.436 185.331 259.936C185.331 258.976 184.767 258.328 183.543 258.064L182.175 257.764C181.479 257.608 181.239 257.272 181.239 256.912C181.239 256.408 181.719 256.096 182.403 256.096C183.231 256.096 183.843 256.396 183.891 257.296L185.223 257.056C184.827 255.508 183.783 254.896 182.391 254.896C181.263 254.896 179.847 255.52 179.847 257.032Z" fill="#FF5B24"/>
<path d="M105.764 324.616L105.752 324.712C105.608 325.852 104.684 326.644 103.268 326.644C101.78 326.644 100.292 325.756 100.292 323.536C100.292 321.424 101.528 320.356 103.184 320.356C104.444 320.356 105.512 320.836 105.716 322.336L107.3 322.096C106.952 319.588 104.78 318.82 103.28 318.82C100.592 318.82 98.6 320.752 98.6 323.536C98.6 326.2 100.556 328.18 102.836 328.18C104.288 328.18 105.32 327.28 105.8 326.32L105.812 326.32L106.088 328L107.42 328L107.42 323.2L103.4 323.2L103.4 324.616L105.764 324.616ZM112.391 322.192C113.363 322.192 114.131 322.648 114.251 323.8L110.495 323.8C110.699 322.732 111.395 322.192 112.391 322.192ZM115.667 324.868L115.667 324.376C115.667 322.336 114.323 320.896 112.451 320.896C110.447 320.896 108.923 322.3 108.923 324.52C108.923 326.8 110.507 328.18 112.547 328.18C113.819 328.18 115.355 327.448 115.619 325.852L114.227 325.612C114.071 326.404 113.615 326.884 112.487 326.884C111.239 326.884 110.555 326.08 110.447 324.868L115.667 324.868ZM117.675 319.42L117.675 321.088L116.391 321.088L116.391 322.3L117.675 322.3L117.675 326.056C117.675 327.328 118.311 328.12 119.691 328.12C120.111 328.12 120.603 328.012 120.963 327.904L120.723 326.692C120.447 326.764 120.279 326.8 120.003 326.8C119.391 326.8 119.175 326.524 119.175 325.984L119.175 322.3L120.903 322.3L120.903 321.088L119.175 321.088L119.175 319.18L117.675 319.42ZM125.608 321.088L125.608 328L127.108 328L127.108 321.088L125.608 321.088ZM126.352 318.1C125.848 318.1 125.452 318.508 125.452 319C125.452 319.492 125.848 319.9 126.352 319.9C126.856 319.9 127.252 319.492 127.252 319C127.252 318.508 126.856 318.1 126.352 318.1ZM132.234 322.252C133.05 322.252 133.698 322.732 133.698 324.016L133.698 328L135.198 328L135.198 323.368C135.198 321.508 134.022 320.896 132.786 320.896C131.97 320.896 131.022 321.232 130.53 322.108L130.53 321.088L129.03 321.088L129.03 328L130.53 328L130.53 324.052C130.53 322.816 131.238 322.252 132.234 322.252ZM137.454 328L138.954 328L138.954 322.3L140.67 322.3L140.67 321.088L138.954 321.088L138.954 320.812C138.954 320.104 139.29 319.732 139.902 319.732C140.226 319.732 140.502 319.78 140.79 319.864L140.994 318.7C140.658 318.58 140.25 318.472 139.746 318.472C138.366 318.472 137.454 319.36 137.454 320.824L137.454 321.088L136.506 321.088L136.506 322.3L137.454 322.3L137.454 328ZM144.721 320.896C142.849 320.896 141.301 322.264 141.301 324.532C141.301 326.8 142.849 328.18 144.721 328.18C146.593 328.18 148.141 326.8 148.141 324.532C148.141 322.264 146.593 320.896 144.721 320.896ZM144.721 322.192C145.753 322.192 146.629 322.948 146.629 324.532C146.629 326.116 145.753 326.884 144.721 326.884C143.689 326.884 142.813 326.116 142.813 324.532C142.813 322.948 143.689 322.192 144.721 322.192ZM152.944 322.516C153.316 322.516 153.58 322.564 153.844 322.672L153.988 320.992C153.844 320.92 153.64 320.896 153.46 320.896C152.776 320.896 151.696 321.292 151.132 322.744L151.132 321.088L149.632 321.088L149.632 328L151.132 328L151.132 324.976C151.132 323.056 151.972 322.516 152.944 322.516ZM162.76 322.252C163.612 322.252 164.26 322.732 164.26 324.016L164.26 328L165.76 328L165.76 323.368C165.76 321.508 164.62 320.896 163.36 320.896C162.592 320.896 161.62 321.208 161.104 322.24C160.732 321.256 159.856 320.896 158.932 320.896C158.104 320.896 157.108 321.22 156.616 322.108L156.616 321.088L155.116 321.088L155.116 328L156.616 328L156.616 324.052C156.616 322.816 157.324 322.252 158.284 322.252C159.136 322.252 159.784 322.732 159.784 324.016L159.784 328L161.284 328L161.284 324.052C161.284 322.816 161.908 322.252 162.76 322.252ZM170.272 328.18C171.508 328.18 172.264 327.424 172.612 326.572L172.612 328L174.112 328L174.112 321.088L172.612 321.088L172.612 322.444C172.12 321.352 171.364 320.896 170.284 320.896C168.832 320.896 167.236 322.06 167.236 324.472C167.236 327.004 168.844 328.18 170.272 328.18ZM170.692 322.192C171.7 322.192 172.612 322.96 172.612 324.556C172.612 326.2 171.7 326.872 170.68 326.872C169.732 326.872 168.748 326.164 168.748 324.556C168.748 322.924 169.744 322.192 170.692 322.192ZM176.562 319.42L176.562 321.088L175.278 321.088L175.278 322.3L176.562 322.3L176.562 326.056C176.562 327.328 177.198 328.12 178.578 328.12C178.998 328.12 179.49 328.012 179.85 327.904L179.61 326.692C179.334 326.764 179.166 326.8 178.89 326.8C178.278 326.8 178.062 326.524 178.062 325.984L178.062 322.3L179.79 322.3L179.79 321.088L178.062 321.088L178.062 319.18L176.562 319.42ZM181.261 321.088L181.261 328L182.761 328L182.761 321.088L181.261 321.088ZM182.005 318.1C181.501 318.1 181.105 318.508 181.105 319C181.105 319.492 181.501 319.9 182.005 319.9C182.509 319.9 182.905 319.492 182.905 319C182.905 318.508 182.509 318.1 182.005 318.1ZM187.671 320.896C185.799 320.896 184.251 322.264 184.251 324.532C184.251 326.8 185.799 328.18 187.671 328.18C189.543 328.18 191.091 326.8 191.091 324.532C191.091 322.264 189.543 320.896 187.671 320.896ZM187.671 322.192C188.703 322.192 189.579 322.948 189.579 324.532C189.579 326.116 188.703 326.884 187.671 326.884C186.639 326.884 185.763 326.116 185.763 324.532C185.763 322.948 186.639 322.192 187.671 322.192ZM195.785 322.252C196.601 322.252 197.249 322.732 197.249 324.016L197.249 328L198.749 328L198.749 323.368C198.749 321.508 197.573 320.896 196.337 320.896C195.521 320.896 194.573 321.232 194.081 322.108L194.081 321.088L192.581 321.088L192.581 328L194.081 328L194.081 324.052C194.081 322.816 194.789 322.252 195.785 322.252ZM101.612 348.18C102.848 348.18 103.604 347.424 103.952 346.572L103.952 348L105.452 348L105.452 341.088L103.952 341.088L103.952 342.444C103.46 341.352 102.704 340.896 101.624 340.896C100.172 340.896 98.576 342.06 98.576 344.472C98.576 347.004 100.184 348.18 101.612 348.18ZM102.032 342.192C103.04 342.192 103.952 342.96 103.952 344.556C103.952 346.2 103.04 346.872 102.02 346.872C101.072 346.872 100.088 346.164 100.088 344.556C100.088 342.924 101.084 342.192 102.032 342.192ZM107.374 338.7L107.374 348L108.874 348L108.874 346.86C109.366 347.664 110.134 348.18 111.07 348.18C112.678 348.18 114.25 346.956 114.25 344.436C114.25 342.024 112.618 340.896 111.214 340.896C109.99 340.896 109.258 341.652 108.874 342.288L108.874 338.7L107.374 338.7ZM110.806 342.192C111.754 342.192 112.738 342.948 112.738 344.52C112.738 346.116 111.742 346.872 110.794 346.872C109.786 346.872 108.874 346.056 108.874 344.52C108.874 342.912 109.786 342.192 110.806 342.192ZM118.776 340.896C116.904 340.896 115.356 342.264 115.356 344.532C115.356 346.8 116.904 348.18 118.776 348.18C120.648 348.18 122.196 346.8 122.196 344.532C122.196 342.264 120.648 340.896 118.776 340.896ZM118.776 342.192C119.808 342.192 120.684 342.948 120.684 344.532C120.684 346.116 119.808 346.884 118.776 346.884C117.744 346.884 116.868 346.116 116.868 344.532C116.868 342.948 117.744 342.192 118.776 342.192ZM129.819 348L129.819 341.088L128.319 341.088L128.319 345.108C128.319 346.284 127.539 346.824 126.531 346.824C125.607 346.824 125.151 346.416 125.151 345.348L125.151 341.088L123.651 341.088L123.651 345.912C123.651 347.508 124.803 348.18 125.955 348.18C126.819 348.18 127.779 347.784 128.319 346.836L128.319 348L129.819 348ZM132.242 339.42L132.242 341.088L130.958 341.088L130.958 342.3L132.242 342.3L132.242 346.056C132.242 347.328 132.878 348.12 134.258 348.12C134.678 348.12 135.17 348.012 135.53 347.904L135.29 346.692C135.014 346.764 134.846 346.8 134.57 346.8C133.958 346.8 133.742 346.524 133.742 345.984L133.742 342.3L135.47 342.3L135.47 341.088L133.742 341.088L133.742 339.18L132.242 339.42ZM146.307 348L146.307 341.088L144.807 341.088L144.807 345.108C144.807 346.284 144.027 346.824 143.019 346.824C142.095 346.824 141.639 346.416 141.639 345.348L141.639 341.088L140.139 341.088L140.139 345.912C140.139 347.508 141.291 348.18 142.443 348.18C143.307 348.18 144.267 347.784 144.807 346.836L144.807 348L146.307 348ZM148.058 343.032C148.058 343.992 148.61 344.7 149.786 344.952L151.046 345.228C151.91 345.42 152.15 345.672 152.15 346.08C152.15 346.656 151.586 346.98 150.758 346.98C149.786 346.98 149.15 346.524 149.054 345.672L147.722 345.912C147.95 347.52 149.45 348.18 150.794 348.18C152.126 348.18 153.542 347.436 153.542 345.936C153.542 344.976 152.978 344.328 151.754 344.064L150.386 343.764C149.69 343.608 149.45 343.272 149.45 342.912C149.45 342.408 149.93 342.096 150.614 342.096C151.442 342.096 152.054 342.396 152.102 343.296L153.434 343.056C153.038 341.508 151.994 340.896 150.602 340.896C149.474 340.896 148.058 341.52 148.058 343.032ZM158.047 342.192C159.019 342.192 159.787 342.648 159.907 343.8L156.151 343.8C156.355 342.732 157.051 342.192 158.047 342.192ZM161.323 344.868L161.323 344.376C161.323 342.336 159.979 340.896 158.107 340.896C156.103 340.896 154.579 342.3 154.579 344.52C154.579 346.8 156.163 348.18 158.203 348.18C159.475 348.18 161.011 347.448 161.275 345.852L159.883 345.612C159.727 346.404 159.271 346.884 158.143 346.884C156.895 346.884 156.211 346.08 156.103 344.868L161.323 344.868ZM166.116 342.516C166.488 342.516 166.752 342.564 167.016 342.672L167.16 340.992C167.016 340.92 166.812 340.896 166.632 340.896C165.948 340.896 164.868 341.292 164.304 342.744L164.304 341.088L162.804 341.088L162.804 348L164.304 348L164.304 344.976C164.304 343.056 165.144 342.516 166.116 342.516Z" fill="#FF5B24"/>
<path d="M107.432 104.216C107.072 102.008 105.176 100.82 103.292 100.82C100.724 100.82 98.6 102.68 98.6 105.44C98.6 108.392 100.748 110.18 103.328 110.18C105.068 110.18 107.24 109.016 107.504 106.544L105.884 106.304C105.752 108.092 104.528 108.644 103.328 108.644C101.624 108.644 100.292 107.672 100.292 105.44C100.292 103.412 101.624 102.356 103.232 102.356C104.336 102.356 105.548 102.812 105.812 104.456L107.432 104.216ZM109.062 100.7L109.062 110L110.562 110L110.562 100.7L109.062 100.7ZM112.483 103.088L112.483 110L113.983 110L113.983 103.088L112.483 103.088ZM113.227 100.1C112.723 100.1 112.327 100.508 112.327 101C112.327 101.492 112.723 101.9 113.227 101.9C113.731 101.9 114.127 101.492 114.127 101C114.127 100.508 113.731 100.1 113.227 100.1ZM118.941 104.192C119.913 104.192 120.681 104.648 120.801 105.8L117.045 105.8C117.249 104.732 117.945 104.192 118.941 104.192ZM122.217 106.868L122.217 106.376C122.217 104.336 120.873 102.896 119.001 102.896C116.997 102.896 115.473 104.3 115.473 106.52C115.473 108.8 117.057 110.18 119.097 110.18C120.369 110.18 121.905 109.448 122.169 107.852L120.777 107.612C120.621 108.404 120.165 108.884 119.037 108.884C117.789 108.884 117.105 108.08 116.997 106.868L122.217 106.868ZM126.902 104.252C127.718 104.252 128.366 104.732 128.366 106.016L128.366 110L129.866 110L129.866 105.368C129.866 103.508 128.69 102.896 127.454 102.896C126.638 102.896 125.69 103.232 125.198 104.108L125.198 103.088L123.698 103.088L123.698 110L125.198 110L125.198 106.052C125.198 104.816 125.906 104.252 126.902 104.252ZM132.254 101.42L132.254 103.088L130.97 103.088L130.97 104.3L132.254 104.3L132.254 108.056C132.254 109.328 132.89 110.12 134.27 110.12C134.69 110.12 135.182 110.012 135.542 109.904L135.302 108.692C135.026 108.764 134.858 108.8 134.582 108.8C133.97 108.8 133.754 108.524 133.754 107.984L133.754 104.3L135.482 104.3L135.482 103.088L133.754 103.088L133.754 101.18L132.254 101.42ZM146.571 105.776C146.319 103.916 144.843 102.896 143.235 102.896C141.255 102.896 139.755 104.3 139.755 106.532C139.755 108.668 141.231 110.18 143.343 110.18C144.675 110.18 146.235 109.448 146.559 107.336L145.191 107.096C145.035 108.272 144.387 108.872 143.331 108.872C141.927 108.872 141.267 107.804 141.267 106.532C141.267 104.996 142.107 104.192 143.163 104.192C144.123 104.192 144.927 104.708 145.095 106.016L146.571 105.776ZM150.968 102.896C149.096 102.896 147.548 104.264 147.548 106.532C147.548 108.8 149.096 110.18 150.968 110.18C152.84 110.18 154.388 108.8 154.388 106.532C154.388 104.264 152.84 102.896 150.968 102.896ZM150.968 104.192C152 104.192 152.876 104.948 152.876 106.532C152.876 108.116 152 108.884 150.968 108.884C149.936 108.884 149.06 108.116 149.06 106.532C149.06 104.948 149.936 104.192 150.968 104.192ZM159.082 104.252C159.898 104.252 160.546 104.732 160.546 106.016L160.546 110L162.046 110L162.046 105.368C162.046 103.508 160.87 102.896 159.634 102.896C158.818 102.896 157.87 103.232 157.378 104.108L157.378 103.088L155.878 103.088L155.878 110L157.378 110L157.378 106.052C157.378 104.816 158.086 104.252 159.082 104.252ZM164.301 110L165.801 110L165.801 104.3L167.517 104.3L167.517 103.088L165.801 103.088L165.801 102.812C165.801 102.152 165.993 101.804 166.629 101.804C166.797 101.804 166.941 101.816 167.085 101.84L167.193 100.568C167.001 100.508 166.749 100.472 166.461 100.472C165.165 100.472 164.301 101.288 164.301 102.824L164.301 103.088L163.353 103.088L163.353 104.3L164.301 104.3L164.301 110ZM168.581 103.088L168.581 110L170.081 110L170.081 103.088L168.581 103.088ZM169.325 100.1C168.821 100.1 168.425 100.508 168.425 101C168.425 101.492 168.821 101.9 169.325 101.9C169.829 101.9 170.225 101.492 170.225 101C170.225 100.508 169.829 100.1 169.325 100.1ZM174.547 109.604C175.759 109.604 176.395 108.812 176.767 108.056L176.767 109.088C176.767 110.552 176.155 111.152 174.823 111.152C173.983 111.152 173.179 110.912 173.047 109.916L171.595 110.156C171.943 111.908 173.515 112.496 174.763 112.496C176.971 112.496 178.267 111.344 178.267 109.028L178.267 103.076L176.767 103.076L176.767 104.42C176.239 103.352 175.579 102.896 174.667 102.896C173.107 102.896 171.631 103.952 171.631 106.148C171.631 108.5 173.131 109.604 174.547 109.604ZM174.931 104.192C175.939 104.192 176.767 104.924 176.767 106.244C176.767 107.636 175.939 108.296 174.931 108.296C173.959 108.296 173.143 107.636 173.143 106.232C173.143 104.876 173.995 104.192 174.931 104.192ZM186.315 110L186.315 103.088L184.815 103.088L184.815 107.108C184.815 108.284 184.035 108.824 183.027 108.824C182.103 108.824 181.647 108.416 181.647 107.348L181.647 103.088L180.147 103.088L180.147 107.912C180.147 109.508 181.299 110.18 182.451 110.18C183.315 110.18 184.275 109.784 184.815 108.836L184.815 110L186.315 110ZM191.522 104.516C191.894 104.516 192.158 104.564 192.422 104.672L192.566 102.992C192.422 102.92 192.218 102.896 192.038 102.896C191.354 102.896 190.274 103.292 189.71 104.744L189.71 103.088L188.21 103.088L188.21 110L189.71 110L189.71 106.976C189.71 105.056 190.55 104.516 191.522 104.516ZM196.346 110.18C197.582 110.18 198.338 109.424 198.686 108.572L198.686 110L200.186 110L200.186 103.088L198.686 103.088L198.686 104.444C198.194 103.352 197.438 102.896 196.358 102.896C194.906 102.896 193.31 104.06 193.31 106.472C193.31 109.004 194.918 110.18 196.346 110.18ZM196.766 104.192C197.774 104.192 198.686 104.96 198.686 106.556C198.686 108.2 197.774 108.872 196.754 108.872C195.806 108.872 194.822 108.164 194.822 106.556C194.822 104.924 195.818 104.192 196.766 104.192ZM202.636 101.42L202.636 103.088L201.352 103.088L201.352 104.3L202.636 104.3L202.636 108.056C202.636 109.328 203.272 110.12 204.652 110.12C205.072 110.12 205.564 110.012 205.924 109.904L205.684 108.692C205.408 108.764 205.24 108.8 204.964 108.8C204.352 108.8 204.136 108.524 204.136 107.984L204.136 104.3L205.864 104.3L205.864 103.088L204.136 103.088L204.136 101.18L202.636 101.42ZM207.335 103.088L207.335 110L208.835 110L208.835 103.088L207.335 103.088ZM208.079 100.1C207.575 100.1 207.179 100.508 207.179 101C207.179 101.492 207.575 101.9 208.079 101.9C208.583 101.9 208.979 101.492 208.979 101C208.979 100.508 208.583 100.1 208.079 100.1ZM213.745 102.896C211.873 102.896 210.325 104.264 210.325 106.532C210.325 108.8 211.873 110.18 213.745 110.18C215.617 110.18 217.165 108.8 217.165 106.532C217.165 104.264 215.617 102.896 213.745 102.896ZM213.745 104.192C214.777 104.192 215.653 104.948 215.653 106.532C215.653 108.116 214.777 108.884 213.745 108.884C212.713 108.884 211.837 108.116 211.837 106.532C211.837 104.948 212.713 104.192 213.745 104.192ZM221.859 104.252C222.675 104.252 223.323 104.732 223.323 106.016L223.323 110L224.823 110L224.823 105.368C224.823 103.508 223.647 102.896 222.411 102.896C221.595 102.896 220.647 103.232 220.155 104.108L220.155 103.088L218.655 103.088L218.655 110L220.155 110L220.155 106.052C220.155 104.816 220.863 104.252 221.859 104.252Z" fill="#FF5B24"/>
<path d="M66.8039 181.028C66.8039 195.535 55.0441 207.294 40.537 207.294C26.0303 207.294 14.2702 195.535 14.2702 181.028C14.2702 166.521 26.0303 154.761 40.537 154.761C55.0441 154.761 66.8039 166.521 66.8039 181.028Z" fill="#EEEDF3"/>
<path d="M42.6961 187.665H10.144C9.20283 187.665 8.44 186.902 8.44 185.961L8.44 160.415C8.44 159.474 9.20283 158.711 10.144 158.711H42.6961C43.637 158.711 44.4001 159.474 44.4001 160.415L44.4001 185.961C44.4001 186.902 43.637 187.665 42.6961 187.665Z" fill="#C8C5D6"/>
<path d="M42.635 158.711H10.2051C9.23009 158.711 8.44 159.502 8.44 160.476V162.961H44.4001V160.476C44.4001 159.502 43.61 158.711 42.635 158.711Z" fill="#48367D"/>
<path d="M12.8556 160.853C12.8556 161.34 12.4609 161.735 11.9735 161.735C11.4862 161.735 11.0909 161.34 11.0909 160.853C11.0909 160.366 11.4862 159.971 11.9735 159.971C12.4609 159.971 12.8556 160.366 12.8556 160.853Z" fill="white"/>
<path d="M15.7516 160.836C15.7516 161.324 15.3565 161.719 14.8695 161.719C14.3819 161.719 13.9868 161.324 13.9868 160.836C13.9868 160.349 14.3819 159.954 14.8695 159.954C15.3565 159.954 15.7516 160.349 15.7516 160.836Z" fill="white"/>
<path d="M18.6938 160.836C18.6938 161.324 18.2988 161.719 17.8117 161.719C17.3244 161.719 16.929 161.324 16.929 160.836C16.929 160.349 17.3244 159.954 17.8117 159.954C18.2988 159.954 18.6938 160.349 18.6938 160.836Z" fill="white"/>
<g filter="url(#filter0_d)">
<rect x="14.6971" y="171.748" width="23.52" height="7.6" rx="0.56" fill="#FF5B24"/>
</g>
<path d="M19.8096 174.359V176.759H21.2272V176.34H20.2736V174.359H19.8096Z" fill="white"/>
<path d="M22.2375 174.865C21.7383 174.865 21.3255 175.23 21.3255 175.834C21.3255 176.439 21.7383 176.807 22.2375 176.807C22.7367 176.807 23.1495 176.439 23.1495 175.834C23.1495 175.23 22.7367 174.865 22.2375 174.865ZM22.2375 175.262C22.4871 175.262 22.6951 175.447 22.6951 175.834C22.6951 176.222 22.4871 176.41 22.2375 176.41C21.9879 176.41 21.7799 176.222 21.7799 175.834C21.7799 175.447 21.9879 175.262 22.2375 175.262Z" fill="white"/>
<path d="M24.1153 176.654C24.4065 176.654 24.5793 176.519 24.6881 176.359V176.516C24.6881 176.871 24.5569 177.015 24.2369 177.015C24.0417 177.015 23.8785 176.954 23.7985 176.737L23.3601 176.801C23.4529 177.268 23.8721 177.425 24.2049 177.425C24.7937 177.425 25.1393 177.118 25.1393 176.5V174.913H24.6881V175.137C24.5473 174.948 24.3585 174.865 24.1473 174.865C23.7473 174.865 23.3697 175.146 23.3697 175.732C23.3697 176.359 23.7537 176.654 24.1153 176.654ZM24.2497 175.262C24.4897 175.262 24.6881 175.438 24.6881 175.758C24.6881 176.094 24.4897 176.254 24.2497 176.254C24.0193 176.254 23.8241 176.094 23.8241 175.754C23.8241 175.428 24.0257 175.262 24.2497 175.262Z" fill="white"/>
<path d="M26.2215 176.654C26.5127 176.654 26.6855 176.519 26.7943 176.359V176.516C26.7943 176.871 26.6631 177.015 26.3431 177.015C26.1479 177.015 25.9847 176.954 25.9047 176.737L25.4663 176.801C25.5591 177.268 25.9783 177.425 26.3111 177.425C26.8999 177.425 27.2455 177.118 27.2455 176.5V174.913H26.7943V175.137C26.6535 174.948 26.4647 174.865 26.2535 174.865C25.8535 174.865 25.4759 175.146 25.4759 175.732C25.4759 176.359 25.8599 176.654 26.2215 176.654ZM26.3559 175.262C26.5959 175.262 26.7943 175.438 26.7943 175.758C26.7943 176.094 26.5959 176.254 26.3559 176.254C26.1255 176.254 25.9303 176.094 25.9303 175.754C25.9303 175.428 26.1319 175.262 26.3559 175.262Z" fill="white"/>
<path d="M28.5439 174.916V176.759H28.9919V174.916H28.5439ZM28.7679 174.116C28.6175 174.116 28.5151 174.218 28.5151 174.366C28.5151 174.513 28.6175 174.615 28.7679 174.615C28.9183 174.615 29.0207 174.513 29.0207 174.366C29.0207 174.218 28.9183 174.116 28.7679 174.116Z" fill="white"/>
<path d="M30.2574 175.278C30.4558 175.278 30.6062 175.39 30.6062 175.697V176.759H31.0574V175.524C31.0574 175.028 30.7534 174.865 30.4334 174.865C30.2286 174.865 29.9918 174.954 29.8638 175.188V174.916H29.4126V176.759H29.8638V175.706C29.8638 175.412 30.0302 175.278 30.2574 175.278Z" fill="white"/>
<path d="M32.3199 175.278C32.5183 175.278 32.6687 175.39 32.6687 175.697V176.759H33.1199V175.524C33.1199 175.028 32.8159 174.865 32.4959 174.865C32.2911 174.865 32.0543 174.954 31.9263 175.188V174.916H31.4751V176.759H31.9263V175.706C31.9263 175.412 32.0927 175.278 32.3199 175.278Z" fill="white"/>
<path d="M58.245 199.833L58.3612 199.149L59.7103 188.556L53.3238 183.778L44.333 186.333L45.1678 200.2C49.3973 201.216 53.5901 201.066 58.245 199.833Z" fill="#FFD3BA"/>
<path d="M46.5479 191.819C45.8206 191.221 45.5015 190.213 45.8234 189.27C46.8581 186.24 46.997 184.505 47.0508 182.987C47.0965 181.704 48.174 180.7 49.4577 180.745C50.7411 180.791 51.745 181.868 51.6996 183.152C51.6214 185.365 51.3407 187.508 50.2257 190.773C49.8107 191.988 48.4888 192.637 47.2732 192.222C47.0015 192.13 46.7577 191.991 46.5479 191.819Z" fill="#FFD3BA"/>
<path d="M51.0595 191.173C50.3109 190.558 49.9997 189.513 50.3602 188.556C50.9821 186.906 51.2577 185.384 51.1792 184.029C51.1053 182.747 52.085 181.647 53.3672 181.573C54.6494 181.499 55.7492 182.478 55.8233 183.761C55.9392 185.769 55.5657 187.934 54.7127 190.197C54.2598 191.399 52.9182 192.006 51.7162 191.553C51.4715 191.46 51.251 191.331 51.0595 191.173Z" fill="#FFD3BA"/>
<path d="M55.9078 192.256C55.0751 191.76 54.6097 190.774 54.822 189.773C55.1884 188.049 55.2319 186.502 54.9506 185.175C54.6845 183.918 55.4872 182.683 56.7439 182.417C58.0003 182.151 59.2349 182.954 59.501 184.21C59.9183 186.178 59.8751 188.375 59.3726 190.74C59.1055 191.996 57.8707 192.798 56.6142 192.531C56.3584 192.477 56.1211 192.382 55.9078 192.256Z" fill="#FFD3BA"/>
<path d="M44.7442 206.535C44.1167 201.88 42.5542 200.351 42.3249 200.044C42.1073 199.752 40.0705 197.458 39.3191 196.092C38.3883 194.4 37.2915 191.986 38.2422 190.013C39.1738 188.08 41.5016 188.468 43.3097 187.024L47.1838 185.608C48.7228 185.345 50.1843 186.378 50.4486 187.917C50.7123 189.457 49.6785 190.918 48.1395 191.182L47.3758 192.003C47.0963 192.117 47.3342 192.905 47.4069 193.235C47.8493 194.025 46.2912 195.495 47.0131 196.463C47.9471 197.714 47.6895 199.486 46.4379 200.42C45.4936 201.124 44.8923 207.634 44.7442 206.535Z" fill="#FFD3BA"/>
<path fill-rule="evenodd" clip-rule="evenodd" d="M58.5078 200.184C54.659 203.796 49.7214 206.261 44.2402 207.034C44.1058 201.354 43.8153 196.363 43.2272 195.07C41.6861 191.683 56.3284 196.259 56.3284 196.259C56.3284 196.259 58.6277 190.702 58.5078 200.184Z" fill="#FFD3BA"/>
<path d="M38.7152 176.699C38.7152 176.699 42.5888 177.895 44.0094 179.841C46.1111 182.719 45.4639 187.13 43.5914 190.42" stroke="#FFD2BA" stroke-width="6.16" stroke-linecap="round" stroke-linejoin="round"/>
<path d="M66.2138 256.946C66.2138 271.453 54.4536 283.213 39.9469 283.213C25.4402 283.213 13.68 271.453 13.68 256.946C13.68 242.439 25.4402 230.679 39.9469 230.679C54.4536 230.679 66.2138 242.439 66.2138 256.946Z" fill="#EEEDF3"/>
<path fill-rule="evenodd" clip-rule="evenodd" d="M42.9643 283.045C42.9593 273.48 42.964 262.932 43.005 260.535C43.1689 250.948 52.6214 252.991 52.6214 252.991L64.0862 260.535L64.0823 267.331C60.4373 275.794 52.472 281.957 42.9643 283.045Z" fill="#FFD3BB"/>
<path d="M60.6756 263.295L44.0461 266.552C42.4455 266.866 40.8932 265.822 40.5797 264.221L34.0135 230.698C33.6999 229.097 34.7437 227.545 36.3444 227.232L52.9738 223.974C54.5747 223.661 56.1266 224.704 56.4402 226.305L63.0064 259.829C63.3199 261.429 62.2765 262.982 60.6756 263.295Z" fill="#FF5A23"/>
<path d="M62.6156 257.623L40.1889 262.016L34.5197 233.073L56.9464 228.68L62.6156 257.623Z" fill="#FF985F"/>
<path d="M40.2155 252.164L34.2661 252.626C32.6682 252.751 31.2723 251.556 31.1479 249.958C31.0234 248.36 32.2185 246.964 33.816 246.84L39.7655 246.377C41.3631 246.253 42.7591 247.448 42.8834 249.045C43.0079 250.644 41.8134 252.039 40.2155 252.164Z" fill="#FFD3BB"/>
<path d="M40.7111 257.601L34.7618 258.063C33.1638 258.188 31.7679 256.993 31.6435 255.395C31.519 253.797 32.7136 252.401 34.3115 252.277L40.2609 251.814C41.8588 251.69 43.2547 252.884 43.3791 254.482C43.5035 256.08 42.309 257.476 40.7111 257.601Z" fill="#FFD3BB"/>
<path d="M41.7108 262.929L35.7613 263.392C34.1639 263.516 32.7671 262.322 32.643 260.724C32.5189 259.126 33.7134 257.73 35.3111 257.606L41.2607 257.143C42.8583 257.018 44.2545 258.213 44.3789 259.811C44.5033 261.409 43.3086 262.805 41.7108 262.929Z" fill="#FFD3BB"/>
<path d="M54.2845 251.587L47.1454 252.985C45.9968 253.21 44.8834 252.461 44.6586 251.313L43.3723 244.744C43.1474 243.596 43.8962 242.483 45.0447 242.258L52.1839 240.86C53.3322 240.635 54.4455 241.383 54.6704 242.532L55.9567 249.1C56.1816 250.248 55.4328 251.362 54.2845 251.587Z" fill="#FFF4EB"/>
<path d="M51.7997 243.518L50.7441 238.128C50.3982 236.361 48.6857 235.209 46.9188 235.555C45.1525 235.901 44.0008 237.614 44.3468 239.38L44.384 239.632" stroke="#FFF4EB" stroke-width="0.48" stroke-miterlimit="10" stroke-linecap="round"/>
<path fill-rule="evenodd" clip-rule="evenodd" d="M62.7423 270.006C62.3637 270.154 61.9532 270.296 61.5104 270.427C58.3425 271.364 53.613 267.259 53.613 267.259C53.613 267.259 53.7469 265.563 53.97 263.734C54.1931 261.905 55.3531 260.254 55.9332 259.718C53.613 259.228 51.9622 258.425 50.7575 256.818C49.5076 255.152 48.6158 253.695 48.3927 251.107C48.1696 248.519 49.1066 247.582 50.2221 247.047C51.3375 246.512 52.3191 246.779 53.3899 247.315C54.2232 247.731 54.7157 249.326 54.8177 250.483C54.9516 252 55.2939 252.37 55.9778 253.026C56.5043 253.53 57.6287 253.517 58.3872 253.427C59.1457 253.338 59.8339 253.378 61.1535 253.695C62.2689 253.963 63.3844 254.721 64.3214 255.971C65.3415 257.331 65.6821 258.981 65.9052 260.985C65.4051 264.225 64.3128 267.27 62.7423 270.006Z" fill="#FFD3BB"/>
<path d="M165.764 394.616L165.752 394.712C165.608 395.852 164.684 396.644 163.268 396.644C161.78 396.644 160.292 395.756 160.292 393.536C160.292 391.424 161.528 390.356 163.184 390.356C164.444 390.356 165.512 390.836 165.716 392.336L167.3 392.096C166.952 389.588 164.78 388.82 163.28 388.82C160.592 388.82 158.6 390.752 158.6 393.536C158.6 396.2 160.556 398.18 162.836 398.18C164.288 398.18 165.32 397.28 165.8 396.32L165.812 396.32L166.088 398L167.42 398L167.42 393.2L163.4 393.2L163.4 394.616L165.764 394.616ZM172.391 392.192C173.363 392.192 174.131 392.648 174.251 393.8L170.495 393.8C170.699 392.732 171.395 392.192 172.391 392.192ZM175.667 394.868L175.667 394.376C175.667 392.336 174.323 390.896 172.451 390.896C170.447 390.896 168.923 392.3 168.923 394.52C168.923 396.8 170.507 398.18 172.547 398.18C173.819 398.18 175.355 397.448 175.619 395.852L174.227 395.612C174.071 396.404 173.615 396.884 172.487 396.884C171.239 396.884 170.555 396.08 170.447 394.868L175.667 394.868ZM177.675 389.42L177.675 391.088L176.391 391.088L176.391 392.3L177.675 392.3L177.675 396.056C177.675 397.328 178.311 398.12 179.691 398.12C180.111 398.12 180.603 398.012 180.963 397.904L180.723 396.692C180.447 396.764 180.279 396.8 180.003 396.8C179.391 396.8 179.175 396.524 179.175 395.984L179.175 392.3L180.903 392.3L180.903 391.088L179.175 391.088L179.175 389.18L177.675 389.42ZM191.74 398L191.74 391.088L190.24 391.088L190.24 395.108C190.24 396.284 189.46 396.824 188.452 396.824C187.528 396.824 187.072 396.416 187.072 395.348L187.072 391.088L185.572 391.088L185.572 395.912C185.572 397.508 186.724 398.18 187.876 398.18C188.74 398.18 189.7 397.784 190.24 396.836L190.24 398L191.74 398ZM197.476 390.896C196.3 390.896 195.58 391.64 195.136 392.444L195.136 391.088L193.636 391.088L193.636 400.4L195.136 400.4L195.136 396.692C195.712 397.676 196.456 398.18 197.332 398.18C198.94 398.18 200.512 396.956 200.512 394.436C200.512 392.024 198.88 390.896 197.476 390.896ZM197.068 392.192C198.016 392.192 199 392.948 199 394.52C199 396.116 198.016 396.872 197.056 396.872C196.048 396.872 195.136 396.056 195.136 394.52C195.136 392.912 196.048 392.192 197.068 392.192ZM208.542 388.7L207.042 388.7L207.042 392.444C206.55 391.352 205.806 390.896 204.87 390.896C203.262 390.896 201.666 392.06 201.666 394.472C201.666 397.004 203.274 398.18 204.678 398.18C205.938 398.18 206.694 397.52 207.042 396.692L207.042 398L208.542 398L208.542 388.7ZM205.122 392.192C206.13 392.192 207.042 392.996 207.042 394.556C207.042 396.164 206.13 396.872 205.11 396.872C204.162 396.872 203.178 396.128 203.178 394.556C203.178 392.96 204.174 392.192 205.122 392.192ZM213.116 398.18C214.352 398.18 215.108 397.424 215.456 396.572L215.456 398L216.956 398L216.956 391.088L215.456 391.088L215.456 392.444C214.964 391.352 214.208 390.896 213.128 390.896C211.676 390.896 210.08 392.06 210.08 394.472C210.08 397.004 211.688 398.18 213.116 398.18ZM213.536 392.192C214.544 392.192 215.456 392.96 215.456 394.556C215.456 396.2 214.544 396.872 213.524 396.872C212.576 396.872 211.592 396.164 211.592 394.556C211.592 392.924 212.588 392.192 213.536 392.192ZM219.406 389.42L219.406 391.088L218.122 391.088L218.122 392.3L219.406 392.3L219.406 396.056C219.406 397.328 220.042 398.12 221.422 398.12C221.842 398.12 222.334 398.012 222.694 397.904L222.454 396.692C222.178 396.764 222.01 396.8 221.734 396.8C221.122 396.8 220.906 396.524 220.906 395.984L220.906 392.3L222.634 392.3L222.634 391.088L220.906 391.088L220.906 389.18L219.406 389.42ZM227.141 392.192C228.113 392.192 228.881 392.648 229.001 393.8L225.245 393.8C225.449 392.732 226.145 392.192 227.141 392.192ZM230.417 394.868L230.417 394.376C230.417 392.336 229.073 390.896 227.201 390.896C225.197 390.896 223.673 392.3 223.673 394.52C223.673 396.8 225.257 398.18 227.297 398.18C228.569 398.18 230.105 397.448 230.369 395.852L228.977 395.612C228.821 396.404 228.365 396.884 227.237 396.884C225.989 396.884 225.305 396.08 225.197 394.868L230.417 394.868ZM232.425 389.42L232.425 391.088L231.141 391.088L231.141 392.3L232.425 392.3L232.425 396.056C232.425 397.328 233.061 398.12 234.441 398.12C234.861 398.12 235.353 398.012 235.713 397.904L235.473 396.692C235.197 396.764 235.029 396.8 234.753 396.8C234.141 396.8 233.925 396.524 233.925 395.984L233.925 392.3L235.653 392.3L235.653 391.088L233.925 391.088L233.925 389.18L232.425 389.42ZM158.96 411.088L158.96 418L160.46 418L160.46 411.088L158.96 411.088ZM159.704 408.1C159.2 408.1 158.804 408.508 158.804 409C158.804 409.492 159.2 409.9 159.704 409.9C160.208 409.9 160.604 409.492 160.604 409C160.604 408.508 160.208 408.1 159.704 408.1ZM165.586 412.252C166.402 412.252 167.05 412.732 167.05 414.016L167.05 418L168.55 418L168.55 413.368C168.55 411.508 167.374 410.896 166.138 410.896C165.322 410.896 164.374 411.232 163.882 412.108L163.882 411.088L162.382 411.088L162.382 418L163.882 418L163.882 414.052C163.882 412.816 164.59 412.252 165.586 412.252ZM170.805 418L172.305 418L172.305 412.3L174.021 412.3L174.021 411.088L172.305 411.088L172.305 410.812C172.305 410.104 172.641 409.732 173.253 409.732C173.577 409.732 173.853 409.78 174.141 409.864L174.345 408.7C174.009 408.58 173.601 408.472 173.097 408.472C171.717 408.472 170.805 409.36 170.805 410.824L170.805 411.088L169.857 411.088L169.857 412.3L170.805 412.3L170.805 418ZM178.073 410.896C176.201 410.896 174.653 412.264 174.653 414.532C174.653 416.8 176.201 418.18 178.073 418.18C179.945 418.18 181.493 416.8 181.493 414.532C181.493 412.264 179.945 410.896 178.073 410.896ZM178.073 412.192C179.105 412.192 179.981 412.948 179.981 414.532C179.981 416.116 179.105 416.884 178.073 416.884C177.041 416.884 176.165 416.116 176.165 414.532C176.165 412.948 177.041 412.192 178.073 412.192ZM186.295 412.516C186.667 412.516 186.931 412.564 187.195 412.672L187.339 410.992C187.195 410.92 186.991 410.896 186.811 410.896C186.127 410.896 185.047 411.292 184.483 412.744L184.483 411.088L182.983 411.088L182.983 418L184.483 418L184.483 414.976C184.483 413.056 185.323 412.516 186.295 412.516ZM196.112 412.252C196.964 412.252 197.612 412.732 197.612 414.016L197.612 418L199.112 418L199.112 413.368C199.112 411.508 197.972 410.896 196.712 410.896C195.944 410.896 194.972 411.208 194.456 412.24C194.084 411.256 193.208 410.896 192.284 410.896C191.456 410.896 190.46 411.22 189.968 412.108L189.968 411.088L188.468 411.088L188.468 418L189.968 418L189.968 414.052C189.968 412.816 190.676 412.252 191.636 412.252C192.488 412.252 193.136 412.732 193.136 414.016L193.136 418L194.636 418L194.636 414.052C194.636 412.816 195.26 412.252 196.112 412.252ZM203.624 418.18C204.86 418.18 205.616 417.424 205.964 416.572L205.964 418L207.464 418L207.464 411.088L205.964 411.088L205.964 412.444C205.472 411.352 204.716 410.896 203.636 410.896C202.184 410.896 200.588 412.06 200.588 414.472C200.588 417.004 202.196 418.18 203.624 418.18ZM204.044 412.192C205.052 412.192 205.964 412.96 205.964 414.556C205.964 416.2 205.052 416.872 204.032 416.872C203.084 416.872 202.1 416.164 202.1 414.556C202.1 412.924 203.096 412.192 204.044 412.192ZM209.914 409.42L209.914 411.088L208.63 411.088L208.63 412.3L209.914 412.3L209.914 416.056C209.914 417.328 210.55 418.12 211.93 418.12C212.35 418.12 212.842 418.012 213.202 417.904L212.962 416.692C212.686 416.764 212.518 416.8 212.242 416.8C211.63 416.8 211.414 416.524 211.414 415.984L211.414 412.3L213.142 412.3L213.142 411.088L211.414 411.088L211.414 409.18L209.914 409.42ZM214.612 411.088L214.612 418L216.112 418L216.112 411.088L214.612 411.088ZM215.356 408.1C214.852 408.1 214.456 408.508 214.456 409C214.456 409.492 214.852 409.9 215.356 409.9C215.86 409.9 216.256 409.492 216.256 409C216.256 408.508 215.86 408.1 215.356 408.1ZM221.022 410.896C219.15 410.896 217.602 412.264 217.602 414.532C217.602 416.8 219.15 418.18 221.022 418.18C222.894 418.18 224.442 416.8 224.442 414.532C224.442 412.264 222.894 410.896 221.022 410.896ZM221.022 412.192C222.054 412.192 222.93 412.948 222.93 414.532C222.93 416.116 222.054 416.884 221.022 416.884C219.99 416.884 219.114 416.116 219.114 414.532C219.114 412.948 219.99 412.192 221.022 412.192ZM229.137 412.252C229.953 412.252 230.601 412.732 230.601 414.016L230.601 418L232.101 418L232.101 413.368C232.101 411.508 230.925 410.896 229.689 410.896C228.873 410.896 227.925 411.232 227.433 412.108L227.433 411.088L225.933 411.088L225.933 418L227.433 418L227.433 414.052C227.433 412.816 228.141 412.252 229.137 412.252Z" fill="#49367E"/>
<path d="M123.343 394.027C123.343 408.534 111.583 420.294 97.0762 420.294C82.5695 420.294 70.8093 408.534 70.8093 394.027C70.8093 379.52 82.5695 367.76 97.0762 367.76C111.583 367.76 123.343 379.52 123.343 394.027Z" fill="#EEEDF3"/>
<path d="M112.852 409.647L91.3424 403.702C90.6184 403.502 90.1942 402.753 90.3943 402.03L99.0149 370.837C99.2149 370.113 99.9637 369.688 100.688 369.888L122.197 375.833C122.921 376.033 123.346 376.782 123.146 377.506L114.525 408.699C114.325 409.422 113.576 409.847 112.852 409.647Z" fill="#C8C5D6"/>
<path d="M113.03 408.994L91.0308 405.244C90.2908 405.118 89.7932 404.416 89.9193 403.676L95.3569 371.774C95.483 371.034 96.1852 370.536 96.9255 370.662L118.924 374.411C119.665 374.538 120.162 375.24 120.036 375.98L114.599 407.882C114.473 408.623 113.77 409.12 113.03 408.994Z" fill="white"/>
<path d="M106.171 382.242C102.867 381.793 99.8439 383.524 98.9839 386.203C98.8337 386.67 99.1823 387.123 99.6688 387.189L111.117 388.745C111.604 388.811 112.06 388.468 112.04 387.978C111.926 385.166 109.475 382.691 106.171 382.242Z" fill="#59CBE8"/>
<path d="M109.851 378.258C109.653 379.717 108.309 380.739 106.85 380.541C105.391 380.343 104.369 378.999 104.567 377.54C104.766 376.081 106.109 375.059 107.568 375.257C109.027 375.455 110.05 376.799 109.851 378.258Z" fill="#59CBE8"/>
<path d="M96.2188 391.404L111.257 393.617" stroke="#C8C5D6" stroke-width="0.287229" stroke-miterlimit="10" stroke-linecap="round"/>
<path d="M95.6912 394.572L110.729 396.785" stroke="#C8C5D6" stroke-width="0.287229" stroke-miterlimit="10" stroke-linecap="round"/>
<path d="M97.9874 400.78C97.9874 400.78 103.459 397.984 103.139 399.806C102.82 401.628 102.941 402.714 105.771 402.123C108.601 401.531 108.333 402.655 108.333 402.655" stroke="#5E3DC2" stroke-width="0.287229" stroke-miterlimit="10" stroke-linecap="round"/>
<path d="M13.657 333.027C13.657 347.534 25.4169 359.293 39.9239 359.293C54.4306 359.293 66.1907 347.534 66.1907 333.027C66.1907 318.52 54.4306 306.76 39.9239 306.76C25.4169 306.76 13.657 318.52 13.657 333.027Z" fill="#EEEDF3"/>
<path d="M23.2865 348.646L44.7964 342.702C45.5204 342.502 45.9446 341.753 45.7446 341.029L37.1239 309.836C36.9239 309.112 36.1751 308.688 35.4511 308.888L13.9415 314.833C13.2179 315.033 12.7933 315.782 12.993 316.505L21.614 347.698C21.814 348.422 22.5632 348.847 23.2865 348.646Z" fill="#C8C5D6"/>
<path d="M23.3277 347.712L45.441 344.707C46.1848 344.606 46.7058 343.921 46.6047 343.177L42.2469 311.11C42.1459 310.366 41.4609 309.845 40.7168 309.946L18.6039 312.95C17.8597 313.052 17.3387 313.737 17.4398 314.481L21.7976 346.548C21.8986 347.292 22.5836 347.813 23.3277 347.712Z" fill="white"/>
<path d="M30.8293 321.242C34.1333 320.793 37.1561 322.523 38.0161 325.202C38.1663 325.67 37.8177 326.122 37.3312 326.188L25.8829 327.744C25.3964 327.81 24.9403 327.467 24.96 326.977C25.0736 324.165 27.5252 321.69 30.8293 321.242Z" fill="#49367E"/>
<path d="M27.1487 317.258C27.3471 318.718 28.6906 319.74 30.1497 319.541C31.6089 319.343 32.631 318 32.4327 316.54C32.2344 315.081 30.8909 314.059 29.4317 314.257C27.9729 314.456 26.9504 315.799 27.1487 317.258Z" fill="#49367E"/>
<path d="M40.7812 330.402L25.7429 332.615" stroke="#C8C5D6" stroke-width="0.287229" stroke-miterlimit="10" stroke-linecap="round"/>
<path d="M41.3088 333.571L26.2705 335.784" stroke="#C8C5D6" stroke-width="0.287229" stroke-miterlimit="10" stroke-linecap="round"/>
<path d="M28.9235 341.558C28.9235 341.558 33.1085 337.06 33.4309 338.881C33.7541 340.702 34.2395 341.681 36.6964 340.158C39.1536 338.634 39.2867 339.781 39.2867 339.781" stroke="#49367E" stroke-width="0.287229" stroke-miterlimit="10" stroke-linecap="round"/>
<defs>
<filter id="filter0_d" x="14.4731" y="171.636" width="23.968" height="8.048" filterUnits="userSpaceOnUse" color-interpolation-filters="sRGB">
<feFlood flood-opacity="0" result="BackgroundImageFix"/>
<feColorMatrix in="SourceAlpha" type="matrix" values="0 0 0 0 0 0 0 0 0 0 0 0 0 0 0 0 0 0 127 0"/>
<feOffset dy="0.112"/>
<feGaussianBlur stdDeviation="0.112"/>
<feColorMatrix type="matrix" values="0 0 0 0 0.0862745 0 0 0 0 0.0705882 0 0 0 0 0.145098 0 0 0 0.07 0"/>
<feBlend mode="normal" in2="BackgroundImageFix" result="effect1_dropShadow"/>
<feBlend mode="normal" in="SourceGraphic" in2="effect1_dropShadow" result="shape"/>
</filter>
</defs>
</svg>
