<svg width="243" height="434" viewBox="0 0 243 434" fill="none" xmlns="http://www.w3.org/2000/svg">
<path fill-rule="evenodd" clip-rule="evenodd" d="M41.475 394L40 394L40 393L41.475 393L41.475 394ZM47.375 394L44.425 394L44.425 393L47.375 393L47.375 394ZM53.275 394L50.325 394L50.325 393L53.275 393L53.275 394ZM59.175 394L56.225 394L56.225 393L59.175 393L59.175 394ZM65.075 394L62.125 394L62.125 393L65.075 393L65.075 394ZM70.975 394L68.025 394L68.025 393L70.975 393L70.975 394ZM76.875 394L73.925 394L73.925 393L76.875 393L76.875 394ZM82.775 394L79.825 394L79.825 393L82.775 393L82.775 394ZM88.675 394L85.725 394L85.725 393L88.675 393L88.675 394ZM94.575 394L91.625 394L91.625 393L94.575 393L94.575 394ZM99 394L97.525 394L97.525 393L99 393L99 394Z" fill="#49367E"/>
<path fill-rule="evenodd" clip-rule="evenodd" d="M40 333.55L40 332L41 332L41 333.55L40 333.55ZM40 339.75L40 336.65L41 336.65L41 339.75L40 339.75ZM40 345.95L40 342.85L41 342.85L41 345.95L40 345.95ZM40 352.15L40 349.05L41 349.05L41 352.15L40 352.15ZM40 358.35L40 355.25L41 355.25L41 358.35L40 358.35ZM40 364.55L40 361.45L41 361.45L41 364.55L40 364.55ZM40 370.75L40 367.65L41 367.65L41 370.75L40 370.75ZM40 376.95L40 373.85L41 373.85L41 376.95L40 376.95ZM40 383.15L40 380.05L41 380.05L41 383.15L40 383.15ZM40 389.35L40 386.25L41 386.25L41 389.35L40 389.35ZM40 394L40 392.45L41 392.45L41 394L40 394Z" fill="#49367E"/>
<path fill-rule="evenodd" clip-rule="evenodd" d="M40 332L40 29L41.5 29L41.5 332L40 332Z" fill="#FF5B24"/>
<path d="M45.4909 105.245C45.4909 107.59 43.5901 109.491 41.2454 109.491C38.9007 109.491 37 107.59 37 105.245C37 102.901 38.9007 101 41.2454 101C43.5901 101 45.4909 102.901 45.4909 105.245Z" fill="white" stroke="#FF5B24" stroke-width="2"/>
<path fill-rule="evenodd" clip-rule="evenodd" d="M41.2454 102C39.453 102 38 103.453 38 105.245C38 107.038 39.453 108.491 41.2454 108.491C43.0378 108.491 44.4909 107.038 44.4909 105.245C44.4909 103.453 43.0378 102 41.2454 102ZM36 105.245C36 102.348 38.3485 100 41.2454 100C44.1424 100 46.4909 102.348 46.4909 105.245C46.4909 108.142 44.1424 110.491 41.2454 110.491C38.3485 110.491 36 108.142 36 105.245Z" fill="#FF5B24"/>
<path d="M45.4909 29.4223C45.4909 31.8647 43.5901 33.8446 41.2454 33.8446C38.9007 33.8446 37 31.8647 37 29.4223C37 26.9799 38.9007 25 41.2454 25C43.5901 25 45.4909 26.9799 45.4909 29.4223Z" fill="white"/>
<path fill-rule="evenodd" clip-rule="evenodd" d="M41.2454 26C39.4911 26 38 27.4934 38 29.4223C38 31.3513 39.4911 32.8446 41.2454 32.8446C42.9998 32.8446 44.4909 31.3513 44.4909 29.4223C44.4909 27.4934 42.9998 26 41.2454 26ZM36 29.4223C36 26.4665 38.3104 24 41.2454 24C44.1805 24 46.4909 26.4665 46.4909 29.4223C46.4909 32.3781 44.1805 34.8446 41.2454 34.8446C38.3104 34.8446 36 32.3781 36 29.4223Z" fill="#FF5B24"/>
<path d="M104.764 22.6161L104.752 22.7121C104.608 23.8521 103.684 24.6441 102.268 24.6441C100.78 24.6441 99.2921 23.7561 99.2921 21.5361C99.2921 19.4241 100.528 18.3561 102.184 18.3561C103.444 18.3561 104.512 18.8361 104.716 20.3361L106.3 20.0961C105.952 17.5881 103.78 16.8201 102.28 16.8201C99.5921 16.8201 97.6001 18.7521 97.6001 21.5361C97.6001 24.2001 99.5561 26.1801 101.836 26.1801C103.288 26.1801 104.32 25.2801 104.8 24.3201L104.812 24.3201L105.088 26.0001L106.42 26.0001L106.42 21.2001L102.4 21.2001L102.4 22.6161L104.764 22.6161Z" fill="#FF5B24"/>
<path d="M111.391 20.1921C112.363 20.1921 113.131 20.6481 113.251 21.8001L109.495 21.8001C109.699 20.7321 110.395 20.1921 111.391 20.1921ZM114.667 22.8681L114.667 22.3761C114.667 20.3361 113.323 18.8961 111.451 18.8961C109.447 18.8961 107.923 20.3001 107.923 22.5201C107.923 24.8001 109.507 26.1801 111.547 26.1801C112.819 26.1801 114.355 25.4481 114.619 23.8521L113.227 23.6121C113.071 24.4041 112.615 24.8841 111.487 24.8841C110.239 24.8841 109.555 24.0801 109.447 22.8681L114.667 22.8681Z" fill="#FF5B24"/>
<path d="M116.676 17.4201L116.676 19.0881L115.392 19.0881L115.392 20.3001L116.676 20.3001L116.676 24.0561C116.676 25.3281 117.312 26.1201 118.692 26.1201C119.112 26.1201 119.604 26.0121 119.964 25.9041L119.724 24.6921C119.448 24.7641 119.28 24.8001 119.004 24.8001C118.392 24.8001 118.176 24.5241 118.176 23.9841L118.176 20.3001L119.904 20.3001L119.904 19.0881L118.176 19.0881L118.176 17.1801L116.676 17.4201Z" fill="#FF5B24"/>
<path d="M124.465 21.0321C124.465 21.9921 125.017 22.7001 126.193 22.9521L127.453 23.2281C128.317 23.4201 128.557 23.6721 128.557 24.0801C128.557 24.6561 127.993 24.9801 127.165 24.9801C126.193 24.9801 125.557 24.5241 125.461 23.6721L124.129 23.9121C124.357 25.5201 125.857 26.1801 127.201 26.1801C128.533 26.1801 129.949 25.4361 129.949 23.9361C129.949 22.9761 129.385 22.3281 128.161 22.0641L126.793 21.7641C126.097 21.6081 125.857 21.2721 125.857 20.9121C125.857 20.4081 126.337 20.0961 127.021 20.0961C127.849 20.0961 128.461 20.3961 128.509 21.2961L129.841 21.0561C129.445 19.5081 128.401 18.8961 127.009 18.8961C125.881 18.8961 124.465 19.5201 124.465 21.0321Z" fill="#FF5B24"/>
<path d="M131.945 17.4201L131.945 19.0881L130.661 19.0881L130.661 20.3001L131.945 20.3001L131.945 24.0561C131.945 25.3281 132.581 26.1201 133.961 26.1201C134.381 26.1201 134.873 26.0121 135.233 25.9041L134.993 24.6921C134.717 24.7641 134.549 24.8001 134.273 24.8001C133.661 24.8001 133.445 24.5241 133.445 23.9841L133.445 20.3001L135.173 20.3001L135.173 19.0881L133.445 19.0881L133.445 17.1801L131.945 17.4201Z" fill="#FF5B24"/>
<path d="M139.296 26.1801C140.532 26.1801 141.288 25.4241 141.636 24.5721L141.636 26.0001L143.136 26.0001L143.136 19.0881L141.636 19.0881L141.636 20.4441C141.144 19.3521 140.388 18.8961 139.308 18.8961C137.856 18.8961 136.26 20.0601 136.26 22.4721C136.26 25.0041 137.868 26.1801 139.296 26.1801ZM139.716 20.1921C140.724 20.1921 141.636 20.9601 141.636 22.5561C141.636 24.2001 140.724 24.8721 139.704 24.8721C138.756 24.8721 137.772 24.1641 137.772 22.5561C137.772 20.9241 138.768 20.1921 139.716 20.1921Z" fill="#FF5B24"/>
<path d="M148.37 20.5161C148.742 20.5161 149.006 20.5641 149.27 20.6721L149.414 18.9921C149.27 18.9201 149.066 18.8961 148.886 18.8961C148.202 18.8961 147.122 19.2921 146.558 20.7441L146.558 19.0881L145.058 19.0881L145.058 26.0001L146.558 26.0001L146.558 22.9761C146.558 21.0561 147.398 20.5161 148.37 20.5161Z" fill="#FF5B24"/>
<path d="M151.07 17.4201L151.07 19.0881L149.786 19.0881L149.786 20.3001L151.07 20.3001L151.07 24.0561C151.07 25.3281 151.706 26.1201 153.086 26.1201C153.506 26.1201 153.998 26.0121 154.358 25.9041L154.118 24.6921C153.842 24.7641 153.674 24.8001 153.398 24.8001C152.786 24.8001 152.57 24.5241 152.57 23.9841L152.57 20.3001L154.298 20.3001L154.298 19.0881L152.57 19.0881L152.57 17.1801L151.07 17.4201Z" fill="#FF5B24"/>
<path d="M158.805 20.1921C159.777 20.1921 160.545 20.6481 160.665 21.8001L156.909 21.8001C157.113 20.7321 157.809 20.1921 158.805 20.1921ZM162.081 22.8681L162.081 22.3761C162.081 20.3361 160.737 18.8961 158.865 18.8961C156.861 18.8961 155.337 20.3001 155.337 22.5201C155.337 24.8001 156.921 26.1801 158.961 26.1801C160.233 26.1801 161.769 25.4481 162.033 23.8521L160.641 23.6121C160.485 24.4041 160.029 24.8841 158.901 24.8841C157.653 24.8841 156.969 24.0801 156.861 22.8681L162.081 22.8681Z" fill="#FF5B24"/>
<path d="M170.054 16.7001L168.554 16.7001L168.554 20.4441C168.062 19.3521 167.318 18.8961 166.382 18.8961C164.774 18.8961 163.178 20.0601 163.178 22.4721C163.178 25.0041 164.786 26.1801 166.19 26.1801C167.45 26.1801 168.206 25.5201 168.554 24.6921L168.554 26.0001L170.054 26.0001L170.054 16.7001ZM166.634 20.1921C167.642 20.1921 168.554 20.9961 168.554 22.5561C168.554 24.1641 167.642 24.8721 166.622 24.8721C165.674 24.8721 164.69 24.1281 164.69 22.5561C164.69 20.9601 165.686 20.1921 166.634 20.1921Z" fill="#FF5B24"/>
<path d="M185.17 19.0881L183.502 19.0881L182.026 24.1281L180.358 19.0881L179.242 19.0881L177.586 24.1041L176.098 19.0881L174.43 19.0881L176.914 26.0001L178.21 26.0001L179.806 21.6321L181.39 26.0001L182.686 26.0001L185.17 19.0881Z" fill="#FF5B24"/>
<path d="M186.308 19.0881L186.308 26.0001L187.808 26.0001L187.808 19.0881L186.308 19.0881ZM187.052 16.1001C186.548 16.1001 186.152 16.5081 186.152 17.0001C186.152 17.4921 186.548 17.9001 187.052 17.9001C187.556 17.9001 187.952 17.4921 187.952 17.0001C187.952 16.5081 187.556 16.1001 187.052 16.1001Z" fill="#FF5B24"/>
<path d="M190.258 17.4201L190.258 19.0881L188.974 19.0881L188.974 20.3001L190.258 20.3001L190.258 24.0561C190.258 25.3281 190.894 26.1201 192.274 26.1201C192.694 26.1201 193.186 26.0121 193.546 25.9041L193.306 24.6921C193.03 24.7641 192.862 24.8001 192.586 24.8001C191.974 24.8001 191.758 24.5241 191.758 23.9841L191.758 20.3001L193.486 20.3001L193.486 19.0881L191.758 19.0881L191.758 17.1801L190.258 17.4201Z" fill="#FF5B24"/>
<path d="M194.956 16.7001L194.956 26.0001L196.456 26.0001L196.456 22.0521C196.456 20.8161 197.164 20.2521 198.172 20.2521C198.976 20.2521 199.624 20.7321 199.624 22.0161L199.624 26.0001L201.124 26.0001L201.124 21.3681C201.124 19.5081 199.984 18.8961 198.664 18.8961C197.932 18.8961 196.948 19.2201 196.456 20.1081L196.456 16.7001L194.956 16.7001Z" fill="#FF5B24"/>
<path d="M104.344 36.7761C104.092 34.9161 102.616 33.8961 101.008 33.8961C99.0281 33.8961 97.5281 35.3001 97.5281 37.5321C97.5281 39.6681 99.0041 41.1801 101.116 41.1801C102.448 41.1801 104.008 40.4481 104.332 38.3361L102.964 38.0961C102.808 39.2721 102.16 39.8721 101.104 39.8721C99.7001 39.8721 99.0401 38.8041 99.0401 37.5321C99.0401 35.9961 99.8801 35.1921 100.936 35.1921C101.896 35.1921 102.7 35.7081 102.868 37.0161L104.344 36.7761Z" fill="#FF5B24"/>
<path d="M108.741 33.8961C106.869 33.8961 105.321 35.2641 105.321 37.5321C105.321 39.8001 106.869 41.1801 108.741 41.1801C110.613 41.1801 112.161 39.8001 112.161 37.5321C112.161 35.2641 110.613 33.8961 108.741 33.8961ZM108.741 35.1921C109.773 35.1921 110.649 35.9481 110.649 37.5321C110.649 39.1161 109.773 39.8841 108.741 39.8841C107.709 39.8841 106.833 39.1161 106.833 37.5321C106.833 35.9481 107.709 35.1921 108.741 35.1921Z" fill="#FF5B24"/>
<path d="M116.963 35.5161C117.335 35.5161 117.599 35.5641 117.863 35.6721L118.007 33.9921C117.863 33.9201 117.659 33.8961 117.479 33.8961C116.795 33.8961 115.715 34.2921 115.151 35.7441L115.151 34.0881L113.651 34.0881L113.651 41.0001L115.151 41.0001L115.151 37.9761C115.151 36.0561 115.991 35.5161 116.963 35.5161Z" fill="#FF5B24"/>
<path d="M122.172 35.1921C123.144 35.1921 123.912 35.6481 124.032 36.8001L120.276 36.8001C120.48 35.7321 121.176 35.1921 122.172 35.1921ZM125.448 37.8681L125.448 37.3761C125.448 35.3361 124.104 33.8961 122.232 33.8961C120.228 33.8961 118.704 35.3001 118.704 37.5201C118.704 39.8001 120.288 41.1801 122.328 41.1801C123.6 41.1801 125.136 40.4481 125.4 38.8521L124.008 38.6121C123.852 39.4041 123.396 39.8841 122.268 39.8841C121.02 39.8841 120.336 39.0801 120.228 37.8681L125.448 37.8681Z" fill="#FF5B24"/>
<path d="M136.547 36.7761C136.295 34.9161 134.819 33.8961 133.211 33.8961C131.231 33.8961 129.731 35.3001 129.731 37.5321C129.731 39.6681 131.207 41.1801 133.319 41.1801C134.651 41.1801 136.211 40.4481 136.535 38.3361L135.167 38.0961C135.011 39.2721 134.363 39.8721 133.307 39.8721C131.903 39.8721 131.243 38.8041 131.243 37.5321C131.243 35.9961 132.083 35.1921 133.139 35.1921C134.099 35.1921 134.903 35.7081 135.071 37.0161L136.547 36.7761Z" fill="#FF5B24"/>
<path d="M140.944 33.8961C139.072 33.8961 137.524 35.2641 137.524 37.5321C137.524 39.8001 139.072 41.1801 140.944 41.1801C142.816 41.1801 144.364 39.8001 144.364 37.5321C144.364 35.2641 142.816 33.8961 140.944 33.8961ZM140.944 35.1921C141.976 35.1921 142.852 35.9481 142.852 37.5321C142.852 39.1161 141.976 39.8841 140.944 39.8841C139.912 39.8841 139.036 39.1161 139.036 37.5321C139.036 35.9481 139.912 35.1921 140.944 35.1921Z" fill="#FF5B24"/>
<path d="M149.059 35.2521C149.875 35.2521 150.523 35.7321 150.523 37.0161L150.523 41.0001L152.023 41.0001L152.023 36.3681C152.023 34.5081 150.847 33.8961 149.611 33.8961C148.795 33.8961 147.847 34.2321 147.355 35.1081L147.355 34.0881L145.855 34.0881L145.855 41.0001L147.355 41.0001L147.355 37.0521C147.355 35.8161 148.063 35.2521 149.059 35.2521Z" fill="#FF5B24"/>
<path d="M153.738 36.0321C153.738 36.9921 154.29 37.7001 155.466 37.9521L156.726 38.2281C157.59 38.4201 157.83 38.6721 157.83 39.0801C157.83 39.6561 157.266 39.9801 156.438 39.9801C155.466 39.9801 154.83 39.5241 154.734 38.6721L153.402 38.9121C153.63 40.5201 155.13 41.1801 156.474 41.1801C157.806 41.1801 159.222 40.4361 159.222 38.9361C159.222 37.9761 158.658 37.3281 157.434 37.0641L156.066 36.7641C155.37 36.6081 155.13 36.2721 155.13 35.9121C155.13 35.4081 155.61 35.0961 156.294 35.0961C157.122 35.0961 157.734 35.3961 157.782 36.2961L159.114 36.0561C158.718 34.5081 157.674 33.8961 156.282 33.8961C155.154 33.8961 153.738 34.5201 153.738 36.0321Z" fill="#FF5B24"/>
<path d="M163.727 35.1921C164.699 35.1921 165.467 35.6481 165.587 36.8001L161.831 36.8001C162.035 35.7321 162.731 35.1921 163.727 35.1921ZM167.003 37.8681L167.003 37.3761C167.003 35.3361 165.659 33.8961 163.787 33.8961C161.783 33.8961 160.259 35.3001 160.259 37.5201C160.259 39.8001 161.843 41.1801 163.883 41.1801C165.155 41.1801 166.691 40.4481 166.955 38.8521L165.563 38.6121C165.407 39.4041 164.951 39.8841 163.823 39.8841C162.575 39.8841 161.891 39.0801 161.783 37.8681L167.003 37.8681Z" fill="#FF5B24"/>
<path d="M172.324 33.8961C171.148 33.8961 170.428 34.6401 169.984 35.4441L169.984 34.0881L168.484 34.0881L168.484 43.4001L169.984 43.4001L169.984 39.6921C170.56 40.6761 171.304 41.1801 172.18 41.1801C173.788 41.1801 175.36 39.9561 175.36 37.4361C175.36 35.0241 173.728 33.8961 172.324 33.8961ZM171.916 35.1921C172.864 35.1921 173.848 35.9481 173.848 37.5201C173.848 39.1161 172.864 39.8721 171.904 39.8721C170.896 39.8721 169.984 39.0561 169.984 37.5201C169.984 35.9121 170.896 35.1921 171.916 35.1921Z" fill="#FF5B24"/>
<path d="M177.426 32.4201L177.426 34.0881L176.142 34.0881L176.142 35.3001L177.426 35.3001L177.426 39.0561C177.426 40.3281 178.062 41.1201 179.442 41.1201C179.862 41.1201 180.354 41.0121 180.714 40.9041L180.474 39.6921C180.198 39.7641 180.03 39.8001 179.754 39.8001C179.142 39.8001 178.926 39.5241 178.926 38.9841L178.926 35.3001L180.654 35.3001L180.654 34.0881L178.926 34.0881L178.926 32.1801L177.426 32.4201Z" fill="#FF5B24"/>
<path d="M181.98 36.0321C181.98 36.9921 182.532 37.7001 183.708 37.9521L184.968 38.2281C185.832 38.4201 186.072 38.6721 186.072 39.0801C186.072 39.6561 185.508 39.9801 184.68 39.9801C183.708 39.9801 183.072 39.5241 182.976 38.6721L181.644 38.9121C181.872 40.5201 183.372 41.1801 184.716 41.1801C186.048 41.1801 187.464 40.4361 187.464 38.9361C187.464 37.9761 186.9 37.3281 185.676 37.0641L184.308 36.7641C183.612 36.6081 183.372 36.2721 183.372 35.9121C183.372 35.4081 183.852 35.0961 184.536 35.0961C185.364 35.0961 185.976 35.3961 186.024 36.2961L187.356 36.0561C186.96 34.5081 185.916 33.8961 184.524 33.8961C183.396 33.8961 181.98 34.5201 181.98 36.0321Z" fill="#FF5B24"/>
<path d="M104.42 167L104.42 172.772C104.42 174.2 103.592 174.644 102.452 174.644C101.312 174.644 100.484 174.2 100.484 172.772L100.484 167L98.9119 167L98.9119 172.844C98.9119 175.124 100.508 176.18 102.452 176.18C104.396 176.18 105.992 175.124 105.992 172.844L105.992 167L104.42 167Z" fill="#FF5B24"/>
<path d="M107.722 171.032C107.722 171.992 108.274 172.7 109.45 172.952L110.71 173.228C111.574 173.42 111.814 173.672 111.814 174.08C111.814 174.656 111.25 174.98 110.422 174.98C109.45 174.98 108.814 174.524 108.718 173.672L107.386 173.912C107.614 175.52 109.114 176.18 110.458 176.18C111.79 176.18 113.206 175.436 113.206 173.936C113.206 172.976 112.642 172.328 111.418 172.064L110.05 171.764C109.354 171.608 109.114 171.272 109.114 170.912C109.114 170.408 109.594 170.096 110.278 170.096C111.106 170.096 111.718 170.396 111.766 171.296L113.098 171.056C112.702 169.508 111.658 168.896 110.266 168.896C109.138 168.896 107.722 169.52 107.722 171.032Z" fill="#FF5B24"/>
<path d="M117.711 170.192C118.683 170.192 119.451 170.648 119.571 171.8L115.815 171.8C116.019 170.732 116.715 170.192 117.711 170.192ZM120.987 172.868L120.987 172.376C120.987 170.336 119.643 168.896 117.771 168.896C115.767 168.896 114.243 170.3 114.243 172.52C114.243 174.8 115.827 176.18 117.867 176.18C119.139 176.18 120.675 175.448 120.939 173.852L119.547 173.612C119.391 174.404 118.935 174.884 117.807 174.884C116.559 174.884 115.875 174.08 115.767 172.868L120.987 172.868Z" fill="#FF5B24"/>
<path d="M125.78 170.516C126.152 170.516 126.416 170.564 126.68 170.672L126.824 168.992C126.68 168.92 126.476 168.896 126.296 168.896C125.612 168.896 124.532 169.292 123.968 170.744L123.968 169.088L122.468 169.088L122.468 176L123.968 176L123.968 172.976C123.968 171.056 124.808 170.516 125.78 170.516Z" fill="#FF5B24"/>
<path d="M137.57 171.776C137.318 169.916 135.842 168.896 134.234 168.896C132.254 168.896 130.754 170.3 130.754 172.532C130.754 174.668 132.23 176.18 134.342 176.18C135.674 176.18 137.234 175.448 137.558 173.336L136.19 173.096C136.034 174.272 135.386 174.872 134.33 174.872C132.926 174.872 132.266 173.804 132.266 172.532C132.266 170.996 133.106 170.192 134.162 170.192C135.122 170.192 135.926 170.708 136.094 172.016L137.57 171.776Z" fill="#FF5B24"/>
<path d="M138.979 166.7L138.979 176L140.479 176L140.479 172.052C140.479 170.816 141.187 170.252 142.195 170.252C142.999 170.252 143.647 170.732 143.647 172.016L143.647 176L145.147 176L145.147 171.368C145.147 169.508 144.007 168.896 142.687 168.896C141.955 168.896 140.971 169.22 140.479 170.108L140.479 166.7L138.979 166.7Z" fill="#FF5B24"/>
<path d="M149.995 168.896C148.123 168.896 146.575 170.264 146.575 172.532C146.575 174.8 148.123 176.18 149.995 176.18C151.867 176.18 153.415 174.8 153.415 172.532C153.415 170.264 151.867 168.896 149.995 168.896ZM149.995 170.192C151.027 170.192 151.903 170.948 151.903 172.532C151.903 174.116 151.027 174.884 149.995 174.884C148.963 174.884 148.087 174.116 148.087 172.532C148.087 170.948 148.963 170.192 149.995 170.192Z" fill="#FF5B24"/>
<path d="M157.893 168.896C156.021 168.896 154.473 170.264 154.473 172.532C154.473 174.8 156.021 176.18 157.893 176.18C159.765 176.18 161.313 174.8 161.313 172.532C161.313 170.264 159.765 168.896 157.893 168.896ZM157.893 170.192C158.925 170.192 159.801 170.948 159.801 172.532C159.801 174.116 158.925 174.884 157.893 174.884C156.861 174.884 155.985 174.116 155.985 172.532C155.985 170.948 156.861 170.192 157.893 170.192Z" fill="#FF5B24"/>
<path d="M162.66 171.032C162.66 171.992 163.212 172.7 164.388 172.952L165.648 173.228C166.512 173.42 166.752 173.672 166.752 174.08C166.752 174.656 166.188 174.98 165.36 174.98C164.388 174.98 163.752 174.524 163.656 173.672L162.324 173.912C162.552 175.52 164.052 176.18 165.396 176.18C166.728 176.18 168.144 175.436 168.144 173.936C168.144 172.976 167.58 172.328 166.356 172.064L164.988 171.764C164.292 171.608 164.052 171.272 164.052 170.912C164.052 170.408 164.532 170.096 165.216 170.096C166.044 170.096 166.656 170.396 166.704 171.296L168.036 171.056C167.64 169.508 166.596 168.896 165.204 168.896C164.076 168.896 162.66 169.52 162.66 171.032Z" fill="#FF5B24"/>
<path d="M172.648 170.192C173.62 170.192 174.388 170.648 174.508 171.8L170.752 171.8C170.956 170.732 171.652 170.192 172.648 170.192ZM175.924 172.868L175.924 172.376C175.924 170.336 174.58 168.896 172.708 168.896C170.704 168.896 169.18 170.3 169.18 172.52C169.18 174.8 170.764 176.18 172.804 176.18C174.076 176.18 175.612 175.448 175.876 173.852L174.484 173.612C174.328 174.404 173.872 174.884 172.744 174.884C171.496 174.884 170.812 174.08 170.704 172.868L175.924 172.868Z" fill="#FF5B24"/>
<path d="M180.64 166.7L180.64 176L182.14 176L182.14 166.7L180.64 166.7Z" fill="#FF5B24"/>
<path d="M187.049 168.896C185.177 168.896 183.629 170.264 183.629 172.532C183.629 174.8 185.177 176.18 187.049 176.18C188.921 176.18 190.469 174.8 190.469 172.532C190.469 170.264 188.921 168.896 187.049 168.896ZM187.049 170.192C188.081 170.192 188.957 170.948 188.957 172.532C188.957 174.116 188.081 174.884 187.049 174.884C186.017 174.884 185.141 174.116 185.141 172.532C185.141 170.948 186.017 170.192 187.049 170.192Z" fill="#FF5B24"/>
<path d="M194.504 175.604C195.716 175.604 196.352 174.812 196.724 174.056L196.724 175.088C196.724 176.552 196.112 177.152 194.78 177.152C193.94 177.152 193.136 176.912 193.004 175.916L191.552 176.156C191.9 177.908 193.472 178.496 194.72 178.496C196.928 178.496 198.224 177.344 198.224 175.028L198.224 169.076L196.724 169.076L196.724 170.42C196.196 169.352 195.536 168.896 194.624 168.896C193.064 168.896 191.588 169.952 191.588 172.148C191.588 174.5 193.088 175.604 194.504 175.604ZM194.888 170.192C195.896 170.192 196.724 170.924 196.724 172.244C196.724 173.636 195.896 174.296 194.888 174.296C193.916 174.296 193.1 173.636 193.1 172.232C193.1 170.876 193.952 170.192 194.888 170.192Z" fill="#FF5B24"/>
<path d="M200.14 169.088L200.14 176L201.64 176L201.64 169.088L200.14 169.088ZM200.884 166.1C200.38 166.1 199.984 166.508 199.984 167C199.984 167.492 200.38 167.9 200.884 167.9C201.388 167.9 201.784 167.492 201.784 167C201.784 166.508 201.388 166.1 200.884 166.1Z" fill="#FF5B24"/>
<path d="M206.765 170.252C207.581 170.252 208.229 170.732 208.229 172.016L208.229 176L209.729 176L209.729 171.368C209.729 169.508 208.553 168.896 207.317 168.896C206.501 168.896 205.553 169.232 205.061 170.108L205.061 169.088L203.561 169.088L203.561 176L205.061 176L205.061 172.052C205.061 170.816 205.769 170.252 206.765 170.252Z" fill="#FF5B24"/>
<path d="M108.92 189.088L107.252 189.088L105.776 194.128L104.108 189.088L102.992 189.088L101.336 194.104L99.8479 189.088L98.1799 189.088L100.664 196L101.96 196L103.556 191.632L105.14 196L106.436 196L108.92 189.088Z" fill="#FF5B24"/>
<path d="M110.058 189.088L110.058 196L111.558 196L111.558 189.088L110.058 189.088ZM110.802 186.1C110.298 186.1 109.902 186.508 109.902 187C109.902 187.492 110.298 187.9 110.802 187.9C111.306 187.9 111.702 187.492 111.702 187C111.702 186.508 111.306 186.1 110.802 186.1Z" fill="#FF5B24"/>
<path d="M114.007 187.42L114.007 189.088L112.723 189.088L112.723 190.3L114.007 190.3L114.007 194.056C114.007 195.328 114.643 196.12 116.023 196.12C116.443 196.12 116.935 196.012 117.295 195.904L117.055 194.692C116.779 194.764 116.611 194.8 116.335 194.8C115.723 194.8 115.507 194.524 115.507 193.984L115.507 190.3L117.235 190.3L117.235 189.088L115.507 189.088L115.507 187.18L114.007 187.42Z" fill="#FF5B24"/>
<path d="M118.706 186.7L118.706 196L120.206 196L120.206 192.052C120.206 190.816 120.914 190.252 121.922 190.252C122.726 190.252 123.374 190.732 123.374 192.016L123.374 196L124.874 196L124.874 191.368C124.874 189.508 123.734 188.896 122.414 188.896C121.682 188.896 120.698 189.22 120.206 190.108L120.206 186.7L118.706 186.7Z" fill="#FF5B24"/>
<path d="M136.088 189.088L134.42 189.088L132.644 194.308L130.856 189.088L129.188 189.088L131.948 196L133.328 196L136.088 189.088Z" fill="#FF5B24"/>
<path d="M137.233 189.088L137.233 196L138.733 196L138.733 189.088L137.233 189.088ZM137.977 186.1C137.473 186.1 137.077 186.508 137.077 187C137.077 187.492 137.473 187.9 137.977 187.9C138.481 187.9 138.877 187.492 138.877 187C138.877 186.508 138.481 186.1 137.977 186.1Z" fill="#FF5B24"/>
<path d="M144.495 188.896C143.319 188.896 142.599 189.64 142.155 190.444L142.155 189.088L140.655 189.088L140.655 198.4L142.155 198.4L142.155 194.692C142.731 195.676 143.475 196.18 144.351 196.18C145.959 196.18 147.531 194.956 147.531 192.436C147.531 190.024 145.899 188.896 144.495 188.896ZM144.087 190.192C145.035 190.192 146.019 190.948 146.019 192.52C146.019 194.116 145.035 194.872 144.075 194.872C143.067 194.872 142.155 194.056 142.155 192.52C142.155 190.912 143.067 190.192 144.087 190.192Z" fill="#FF5B24"/>
<path d="M152.909 188.896C151.733 188.896 151.013 189.64 150.569 190.444L150.569 189.088L149.069 189.088L149.069 198.4L150.569 198.4L150.569 194.692C151.145 195.676 151.889 196.18 152.765 196.18C154.373 196.18 155.945 194.956 155.945 192.436C155.945 190.024 154.313 188.896 152.909 188.896ZM152.501 190.192C153.449 190.192 154.433 190.948 154.433 192.52C154.433 194.116 153.449 194.872 152.489 194.872C151.481 194.872 150.569 194.056 150.569 192.52C150.569 190.912 151.481 190.192 152.501 190.192Z" fill="#FF5B24"/>
<path d="M157.339 191.032C157.339 191.992 157.891 192.7 159.067 192.952L160.327 193.228C161.191 193.42 161.431 193.672 161.431 194.08C161.431 194.656 160.867 194.98 160.039 194.98C159.067 194.98 158.431 194.524 158.335 193.672L157.003 193.912C157.231 195.52 158.731 196.18 160.075 196.18C161.407 196.18 162.823 195.436 162.823 193.936C162.823 192.976 162.259 192.328 161.035 192.064L159.667 191.764C158.971 191.608 158.731 191.272 158.731 190.912C158.731 190.408 159.211 190.096 159.895 190.096C160.723 190.096 161.335 190.396 161.383 191.296L162.715 191.056C162.319 189.508 161.275 188.896 159.883 188.896C158.755 188.896 157.339 189.52 157.339 191.032Z" fill="#FF5B24"/>
<path d="M103.42 253L103.42 258.772C103.42 260.2 102.592 260.644 101.452 260.644C100.312 260.644 99.4841 260.2 99.4841 258.772L99.4841 253L97.9121 253L97.9121 258.844C97.9121 261.124 99.5081 262.18 101.452 262.18C103.396 262.18 104.992 261.124 104.992 258.844L104.992 253L103.42 253Z" fill="#FF5B24"/>
<path d="M106.722 257.032C106.722 257.992 107.274 258.7 108.45 258.952L109.71 259.228C110.574 259.42 110.814 259.672 110.814 260.08C110.814 260.656 110.25 260.98 109.422 260.98C108.45 260.98 107.814 260.524 107.718 259.672L106.386 259.912C106.614 261.52 108.114 262.18 109.458 262.18C110.79 262.18 112.206 261.436 112.206 259.936C112.206 258.976 111.642 258.328 110.418 258.064L109.05 257.764C108.354 257.608 108.114 257.272 108.114 256.912C108.114 256.408 108.594 256.096 109.278 256.096C110.106 256.096 110.718 256.396 110.766 257.296L112.098 257.056C111.702 255.508 110.658 254.896 109.266 254.896C108.138 254.896 106.722 255.52 106.722 257.032Z" fill="#FF5B24"/>
<path d="M116.711 256.192C117.683 256.192 118.451 256.648 118.571 257.8L114.815 257.8C115.019 256.732 115.715 256.192 116.711 256.192ZM119.987 258.868L119.987 258.376C119.987 256.336 118.643 254.896 116.771 254.896C114.767 254.896 113.243 256.3 113.243 258.52C113.243 260.8 114.827 262.18 116.867 262.18C118.139 262.18 119.675 261.448 119.939 259.852L118.547 259.612C118.391 260.404 117.935 260.884 116.807 260.884C115.559 260.884 114.875 260.08 114.767 258.868L119.987 258.868Z" fill="#FF5B24"/>
<path d="M124.78 256.516C125.152 256.516 125.416 256.564 125.68 256.672L125.824 254.992C125.68 254.92 125.476 254.896 125.296 254.896C124.612 254.896 123.532 255.292 122.968 256.744L122.968 255.088L121.468 255.088L121.468 262L122.968 262L122.968 258.976C122.968 257.056 123.808 256.516 124.78 256.516Z" fill="#FF5B24"/>
<path d="M136.571 257.776C136.319 255.916 134.843 254.896 133.235 254.896C131.255 254.896 129.755 256.3 129.755 258.532C129.755 260.668 131.231 262.18 133.343 262.18C134.675 262.18 136.235 261.448 136.559 259.336L135.191 259.096C135.035 260.272 134.387 260.872 133.331 260.872C131.927 260.872 131.267 259.804 131.267 258.532C131.267 256.996 132.107 256.192 133.163 256.192C134.123 256.192 134.927 256.708 135.095 258.016L136.571 257.776Z" fill="#FF5B24"/>
<path d="M140.968 254.896C139.096 254.896 137.548 256.264 137.548 258.532C137.548 260.8 139.096 262.18 140.968 262.18C142.84 262.18 144.388 260.8 144.388 258.532C144.388 256.264 142.84 254.896 140.968 254.896ZM140.968 256.192C142 256.192 142.876 256.948 142.876 258.532C142.876 260.116 142 260.884 140.968 260.884C139.936 260.884 139.06 260.116 139.06 258.532C139.06 256.948 139.936 256.192 140.968 256.192Z" fill="#FF5B24"/>
<path d="M149.082 256.252C149.898 256.252 150.546 256.732 150.546 258.016L150.546 262L152.046 262L152.046 257.368C152.046 255.508 150.87 254.896 149.634 254.896C148.818 254.896 147.87 255.232 147.378 256.108L147.378 255.088L145.878 255.088L145.878 262L147.378 262L147.378 258.052C147.378 256.816 148.086 256.252 149.082 256.252Z" fill="#FF5B24"/>
<path d="M154.301 262L155.801 262L155.801 256.3L157.517 256.3L157.517 255.088L155.801 255.088L155.801 254.812C155.801 254.152 155.993 253.804 156.629 253.804C156.797 253.804 156.941 253.816 157.085 253.84L157.193 252.568C157.001 252.508 156.749 252.472 156.461 252.472C155.165 252.472 154.301 253.288 154.301 254.824L154.301 255.088L153.353 255.088L153.353 256.3L154.301 256.3L154.301 262Z" fill="#FF5B24"/>
<path d="M158.581 255.088L158.581 262L160.081 262L160.081 255.088L158.581 255.088ZM159.325 252.1C158.821 252.1 158.425 252.508 158.425 253C158.425 253.492 158.821 253.9 159.325 253.9C159.829 253.9 160.225 253.492 160.225 253C160.225 252.508 159.829 252.1 159.325 252.1Z" fill="#FF5B24"/>
<path d="M165.315 256.516C165.687 256.516 165.951 256.564 166.215 256.672L166.359 254.992C166.215 254.92 166.011 254.896 165.831 254.896C165.147 254.896 164.067 255.292 163.503 256.744L163.503 255.088L162.003 255.088L162.003 262L163.503 262L163.503 258.976C163.503 257.056 164.343 256.516 165.315 256.516Z" fill="#FF5B24"/>
<path d="M175.131 256.252C175.983 256.252 176.631 256.732 176.631 258.016L176.631 262L178.131 262L178.131 257.368C178.131 255.508 176.991 254.896 175.731 254.896C174.963 254.896 173.991 255.208 173.475 256.24C173.103 255.256 172.227 254.896 171.303 254.896C170.475 254.896 169.479 255.22 168.987 256.108L168.987 255.088L167.487 255.088L167.487 262L168.987 262L168.987 258.052C168.987 256.816 169.695 256.252 170.655 256.252C171.507 256.252 172.155 256.732 172.155 258.016L172.155 262L173.655 262L173.655 258.052C173.655 256.816 174.279 256.252 175.131 256.252Z" fill="#FF5B24"/>
<path d="M179.847 257.032C179.847 257.992 180.399 258.7 181.575 258.952L182.835 259.228C183.699 259.42 183.939 259.672 183.939 260.08C183.939 260.656 183.375 260.98 182.547 260.98C181.575 260.98 180.939 260.524 180.843 259.672L179.511 259.912C179.739 261.52 181.239 262.18 182.583 262.18C183.915 262.18 185.331 261.436 185.331 259.936C185.331 258.976 184.767 258.328 183.543 258.064L182.175 257.764C181.479 257.608 181.239 257.272 181.239 256.912C181.239 256.408 181.719 256.096 182.403 256.096C183.231 256.096 183.843 256.396 183.891 257.296L185.223 257.056C184.827 255.508 183.783 254.896 182.391 254.896C181.263 254.896 179.847 255.52 179.847 257.032Z" fill="#FF5B24"/>
<path d="M105.764 324.616L105.752 324.712C105.608 325.852 104.684 326.644 103.268 326.644C101.78 326.644 100.292 325.756 100.292 323.536C100.292 321.424 101.528 320.356 103.184 320.356C104.444 320.356 105.512 320.836 105.716 322.336L107.3 322.096C106.952 319.588 104.78 318.82 103.28 318.82C100.592 318.82 98.5999 320.752 98.5999 323.536C98.5999 326.2 100.556 328.18 102.836 328.18C104.288 328.18 105.32 327.28 105.8 326.32L105.812 326.32L106.088 328L107.42 328L107.42 323.2L103.4 323.2L103.4 324.616L105.764 324.616Z" fill="#FF5B24"/>
<path d="M112.39 322.192C113.362 322.192 114.13 322.648 114.25 323.8L110.494 323.8C110.698 322.732 111.394 322.192 112.39 322.192ZM115.666 324.868L115.666 324.376C115.666 322.336 114.322 320.896 112.45 320.896C110.446 320.896 108.922 322.3 108.922 324.52C108.922 326.8 110.506 328.18 112.546 328.18C113.818 328.18 115.354 327.448 115.618 325.852L114.226 325.612C114.07 326.404 113.614 326.884 112.486 326.884C111.238 326.884 110.554 326.08 110.446 324.868L115.666 324.868Z" fill="#FF5B24"/>
<path d="M117.675 319.42L117.675 321.088L116.391 321.088L116.391 322.3L117.675 322.3L117.675 326.056C117.675 327.328 118.311 328.12 119.691 328.12C120.111 328.12 120.603 328.012 120.963 327.904L120.723 326.692C120.447 326.764 120.279 326.8 120.003 326.8C119.391 326.8 119.175 326.524 119.175 325.984L119.175 322.3L120.903 322.3L120.903 321.088L119.175 321.088L119.175 319.18L117.675 319.42Z" fill="#FF5B24"/>
<path d="M125.608 321.088L125.608 328L127.108 328L127.108 321.088L125.608 321.088ZM126.352 318.1C125.848 318.1 125.452 318.508 125.452 319C125.452 319.492 125.848 319.9 126.352 319.9C126.856 319.9 127.252 319.492 127.252 319C127.252 318.508 126.856 318.1 126.352 318.1Z" fill="#FF5B24"/>
<path d="M132.234 322.252C133.05 322.252 133.698 322.732 133.698 324.016L133.698 328L135.198 328L135.198 323.368C135.198 321.508 134.022 320.896 132.786 320.896C131.97 320.896 131.022 321.232 130.53 322.108L130.53 321.088L129.03 321.088L129.03 328L130.53 328L130.53 324.052C130.53 322.816 131.238 322.252 132.234 322.252Z" fill="#FF5B24"/>
<path d="M137.454 328L138.954 328L138.954 322.3L140.67 322.3L140.67 321.088L138.954 321.088L138.954 320.812C138.954 320.104 139.29 319.732 139.902 319.732C140.226 319.732 140.502 319.78 140.79 319.864L140.994 318.7C140.658 318.58 140.25 318.472 139.746 318.472C138.366 318.472 137.454 319.36 137.454 320.824L137.454 321.088L136.506 321.088L136.506 322.3L137.454 322.3L137.454 328Z" fill="#FF5B24"/>
<path d="M144.721 320.896C142.849 320.896 141.301 322.264 141.301 324.532C141.301 326.8 142.849 328.18 144.721 328.18C146.593 328.18 148.141 326.8 148.141 324.532C148.141 322.264 146.593 320.896 144.721 320.896ZM144.721 322.192C145.753 322.192 146.629 322.948 146.629 324.532C146.629 326.116 145.753 326.884 144.721 326.884C143.689 326.884 142.813 326.116 142.813 324.532C142.813 322.948 143.689 322.192 144.721 322.192Z" fill="#FF5B24"/>
<path d="M152.944 322.516C153.316 322.516 153.58 322.564 153.844 322.672L153.988 320.992C153.844 320.92 153.64 320.896 153.46 320.896C152.776 320.896 151.696 321.292 151.132 322.744L151.132 321.088L149.632 321.088L149.632 328L151.132 328L151.132 324.976C151.132 323.056 151.972 322.516 152.944 322.516Z" fill="#FF5B24"/>
<path d="M162.76 322.252C163.612 322.252 164.26 322.732 164.26 324.016L164.26 328L165.76 328L165.76 323.368C165.76 321.508 164.62 320.896 163.36 320.896C162.592 320.896 161.62 321.208 161.104 322.24C160.732 321.256 159.856 320.896 158.932 320.896C158.104 320.896 157.108 321.22 156.616 322.108L156.616 321.088L155.116 321.088L155.116 328L156.616 328L156.616 324.052C156.616 322.816 157.324 322.252 158.284 322.252C159.136 322.252 159.784 322.732 159.784 324.016L159.784 328L161.284 328L161.284 324.052C161.284 322.816 161.908 322.252 162.76 322.252Z" fill="#FF5B24"/>
<path d="M170.272 328.18C171.508 328.18 172.264 327.424 172.612 326.572L172.612 328L174.112 328L174.112 321.088L172.612 321.088L172.612 322.444C172.12 321.352 171.364 320.896 170.284 320.896C168.832 320.896 167.236 322.06 167.236 324.472C167.236 327.004 168.844 328.18 170.272 328.18ZM170.692 322.192C171.7 322.192 172.612 322.96 172.612 324.556C172.612 326.2 171.7 326.872 170.68 326.872C169.732 326.872 168.748 326.164 168.748 324.556C168.748 322.924 169.744 322.192 170.692 322.192Z" fill="#FF5B24"/>
<path d="M176.562 319.42L176.562 321.088L175.278 321.088L175.278 322.3L176.562 322.3L176.562 326.056C176.562 327.328 177.198 328.12 178.578 328.12C178.998 328.12 179.49 328.012 179.85 327.904L179.61 326.692C179.334 326.764 179.166 326.8 178.89 326.8C178.278 326.8 178.062 326.524 178.062 325.984L178.062 322.3L179.79 322.3L179.79 321.088L178.062 321.088L178.062 319.18L176.562 319.42Z" fill="#FF5B24"/>
<path d="M181.261 321.088L181.261 328L182.761 328L182.761 321.088L181.261 321.088ZM182.005 318.1C181.501 318.1 181.105 318.508 181.105 319C181.105 319.492 181.501 319.9 182.005 319.9C182.509 319.9 182.905 319.492 182.905 319C182.905 318.508 182.509 318.1 182.005 318.1Z" fill="#FF5B24"/>
<path d="M187.671 320.896C185.799 320.896 184.251 322.264 184.251 324.532C184.251 326.8 185.799 328.18 187.671 328.18C189.543 328.18 191.091 326.8 191.091 324.532C191.091 322.264 189.543 320.896 187.671 320.896ZM187.671 322.192C188.703 322.192 189.579 322.948 189.579 324.532C189.579 326.116 188.703 326.884 187.671 326.884C186.639 326.884 185.763 326.116 185.763 324.532C185.763 322.948 186.639 322.192 187.671 322.192Z" fill="#FF5B24"/>
<path d="M195.785 322.252C196.601 322.252 197.249 322.732 197.249 324.016L197.249 328L198.749 328L198.749 323.368C198.749 321.508 197.573 320.896 196.337 320.896C195.521 320.896 194.573 321.232 194.081 322.108L194.081 321.088L192.581 321.088L192.581 328L194.081 328L194.081 324.052C194.081 322.816 194.789 322.252 195.785 322.252Z" fill="#FF5B24"/>
<path d="M101.612 348.18C102.848 348.18 103.604 347.424 103.952 346.572L103.952 348L105.452 348L105.452 341.088L103.952 341.088L103.952 342.444C103.46 341.352 102.704 340.896 101.624 340.896C100.172 340.896 98.5759 342.06 98.5759 344.472C98.5759 347.004 100.184 348.18 101.612 348.18ZM102.032 342.192C103.04 342.192 103.952 342.96 103.952 344.556C103.952 346.2 103.04 346.872 102.02 346.872C101.072 346.872 100.088 346.164 100.088 344.556C100.088 342.924 101.084 342.192 102.032 342.192Z" fill="#FF5B24"/>
<path d="M107.374 338.7L107.374 348L108.874 348L108.874 346.86C109.366 347.664 110.134 348.18 111.07 348.18C112.678 348.18 114.25 346.956 114.25 344.436C114.25 342.024 112.618 340.896 111.214 340.896C109.99 340.896 109.258 341.652 108.874 342.288L108.874 338.7L107.374 338.7ZM110.806 342.192C111.754 342.192 112.738 342.948 112.738 344.52C112.738 346.116 111.742 346.872 110.794 346.872C109.786 346.872 108.874 346.056 108.874 344.52C108.874 342.912 109.786 342.192 110.806 342.192Z" fill="#FF5B24"/>
<path d="M118.776 340.896C116.904 340.896 115.356 342.264 115.356 344.532C115.356 346.8 116.904 348.18 118.776 348.18C120.648 348.18 122.196 346.8 122.196 344.532C122.196 342.264 120.648 340.896 118.776 340.896ZM118.776 342.192C119.808 342.192 120.684 342.948 120.684 344.532C120.684 346.116 119.808 346.884 118.776 346.884C117.744 346.884 116.868 346.116 116.868 344.532C116.868 342.948 117.744 342.192 118.776 342.192Z" fill="#FF5B24"/>
<path d="M129.818 348L129.818 341.088L128.318 341.088L128.318 345.108C128.318 346.284 127.538 346.824 126.53 346.824C125.606 346.824 125.15 346.416 125.15 345.348L125.15 341.088L123.65 341.088L123.65 345.912C123.65 347.508 124.802 348.18 125.954 348.18C126.818 348.18 127.778 347.784 128.318 346.836L128.318 348L129.818 348Z" fill="#FF5B24"/>
<path d="M132.242 339.42L132.242 341.088L130.958 341.088L130.958 342.3L132.242 342.3L132.242 346.056C132.242 347.328 132.878 348.12 134.258 348.12C134.678 348.12 135.17 348.012 135.53 347.904L135.29 346.692C135.014 346.764 134.846 346.8 134.57 346.8C133.958 346.8 133.742 346.524 133.742 345.984L133.742 342.3L135.47 342.3L135.47 341.088L133.742 341.088L133.742 339.18L132.242 339.42Z" fill="#FF5B24"/>
<path d="M146.307 348L146.307 341.088L144.807 341.088L144.807 345.108C144.807 346.284 144.027 346.824 143.019 346.824C142.095 346.824 141.639 346.416 141.639 345.348L141.639 341.088L140.139 341.088L140.139 345.912C140.139 347.508 141.291 348.18 142.443 348.18C143.307 348.18 144.267 347.784 144.807 346.836L144.807 348L146.307 348Z" fill="#FF5B24"/>
<path d="M148.058 343.032C148.058 343.992 148.61 344.7 149.786 344.952L151.046 345.228C151.91 345.42 152.15 345.672 152.15 346.08C152.15 346.656 151.586 346.98 150.758 346.98C149.786 346.98 149.15 346.524 149.054 345.672L147.722 345.912C147.95 347.52 149.45 348.18 150.794 348.18C152.126 348.18 153.542 347.436 153.542 345.936C153.542 344.976 152.978 344.328 151.754 344.064L150.386 343.764C149.69 343.608 149.45 343.272 149.45 342.912C149.45 342.408 149.93 342.096 150.614 342.096C151.442 342.096 152.054 342.396 152.102 343.296L153.434 343.056C153.038 341.508 151.994 340.896 150.602 340.896C149.474 340.896 148.058 341.52 148.058 343.032Z" fill="#FF5B24"/>
<path d="M158.047 342.192C159.019 342.192 159.787 342.648 159.907 343.8L156.151 343.8C156.355 342.732 157.051 342.192 158.047 342.192ZM161.323 344.868L161.323 344.376C161.323 342.336 159.979 340.896 158.107 340.896C156.103 340.896 154.579 342.3 154.579 344.52C154.579 346.8 156.163 348.18 158.203 348.18C159.475 348.18 161.011 347.448 161.275 345.852L159.883 345.612C159.727 346.404 159.271 346.884 158.143 346.884C156.895 346.884 156.211 346.08 156.103 344.868L161.323 344.868Z" fill="#FF5B24"/>
<path d="M166.116 342.516C166.488 342.516 166.752 342.564 167.016 342.672L167.16 340.992C167.016 340.92 166.812 340.896 166.632 340.896C165.948 340.896 164.868 341.292 164.304 342.744L164.304 341.088L162.804 341.088L162.804 348L164.304 348L164.304 344.976C164.304 343.056 165.144 342.516 166.116 342.516Z" fill="#FF5B24"/>
<path d="M107.432 104.216C107.072 102.008 105.176 100.82 103.292 100.82C100.724 100.82 98.6001 102.68 98.6001 105.44C98.6001 108.392 100.748 110.18 103.328 110.18C105.068 110.18 107.24 109.016 107.504 106.544L105.884 106.304C105.752 108.092 104.528 108.644 103.328 108.644C101.624 108.644 100.292 107.672 100.292 105.44C100.292 103.412 101.624 102.356 103.232 102.356C104.336 102.356 105.548 102.812 105.812 104.456L107.432 104.216Z" fill="#FF5B24"/>
<path d="M109.062 100.7L109.062 110L110.562 110L110.562 100.7L109.062 100.7Z" fill="#FF5B24"/>
<path d="M112.484 103.088L112.484 110L113.984 110L113.984 103.088L112.484 103.088ZM113.228 100.1C112.724 100.1 112.328 100.508 112.328 101C112.328 101.492 112.724 101.9 113.228 101.9C113.732 101.9 114.128 101.492 114.128 101C114.128 100.508 113.732 100.1 113.228 100.1Z" fill="#FF5B24"/>
<path d="M118.941 104.192C119.913 104.192 120.681 104.648 120.801 105.8L117.045 105.8C117.249 104.732 117.945 104.192 118.941 104.192ZM122.217 106.868L122.217 106.376C122.217 104.336 120.873 102.896 119.001 102.896C116.997 102.896 115.473 104.3 115.473 106.52C115.473 108.8 117.057 110.18 119.097 110.18C120.369 110.18 121.905 109.448 122.169 107.852L120.777 107.612C120.621 108.404 120.165 108.884 119.037 108.884C117.789 108.884 117.105 108.08 116.997 106.868L122.217 106.868Z" fill="#FF5B24"/>
<path d="M126.902 104.252C127.718 104.252 128.366 104.732 128.366 106.016L128.366 110L129.866 110L129.866 105.368C129.866 103.508 128.69 102.896 127.454 102.896C126.638 102.896 125.69 103.232 125.198 104.108L125.198 103.088L123.698 103.088L123.698 110L125.198 110L125.198 106.052C125.198 104.816 125.906 104.252 126.902 104.252Z" fill="#FF5B24"/>
<path d="M132.254 101.42L132.254 103.088L130.97 103.088L130.97 104.3L132.254 104.3L132.254 108.056C132.254 109.328 132.89 110.12 134.27 110.12C134.69 110.12 135.182 110.012 135.542 109.904L135.302 108.692C135.026 108.764 134.858 108.8 134.582 108.8C133.97 108.8 133.754 108.524 133.754 107.984L133.754 104.3L135.482 104.3L135.482 103.088L133.754 103.088L133.754 101.18L132.254 101.42Z" fill="#FF5B24"/>
<path d="M146.571 105.776C146.319 103.916 144.843 102.896 143.235 102.896C141.255 102.896 139.755 104.3 139.755 106.532C139.755 108.668 141.231 110.18 143.343 110.18C144.675 110.18 146.235 109.448 146.559 107.336L145.191 107.096C145.035 108.272 144.387 108.872 143.331 108.872C141.927 108.872 141.267 107.804 141.267 106.532C141.267 104.996 142.107 104.192 143.163 104.192C144.123 104.192 144.927 104.708 145.095 106.016L146.571 105.776Z" fill="#FF5B24"/>
<path d="M150.968 102.896C149.096 102.896 147.548 104.264 147.548 106.532C147.548 108.8 149.096 110.18 150.968 110.18C152.84 110.18 154.388 108.8 154.388 106.532C154.388 104.264 152.84 102.896 150.968 102.896ZM150.968 104.192C152 104.192 152.876 104.948 152.876 106.532C152.876 108.116 152 108.884 150.968 108.884C149.936 108.884 149.06 108.116 149.06 106.532C149.06 104.948 149.936 104.192 150.968 104.192Z" fill="#FF5B24"/>
<path d="M159.082 104.252C159.898 104.252 160.546 104.732 160.546 106.016L160.546 110L162.046 110L162.046 105.368C162.046 103.508 160.87 102.896 159.634 102.896C158.818 102.896 157.87 103.232 157.378 104.108L157.378 103.088L155.878 103.088L155.878 110L157.378 110L157.378 106.052C157.378 104.816 158.086 104.252 159.082 104.252Z" fill="#FF5B24"/>
<path d="M164.301 110L165.801 110L165.801 104.3L167.517 104.3L167.517 103.088L165.801 103.088L165.801 102.812C165.801 102.152 165.993 101.804 166.629 101.804C166.797 101.804 166.941 101.816 167.085 101.84L167.193 100.568C167.001 100.508 166.749 100.472 166.461 100.472C165.165 100.472 164.301 101.288 164.301 102.824L164.301 103.088L163.353 103.088L163.353 104.3L164.301 104.3L164.301 110Z" fill="#FF5B24"/>
<path d="M168.581 103.088L168.581 110L170.081 110L170.081 103.088L168.581 103.088ZM169.325 100.1C168.821 100.1 168.425 100.508 168.425 101C168.425 101.492 168.821 101.9 169.325 101.9C169.829 101.9 170.225 101.492 170.225 101C170.225 100.508 169.829 100.1 169.325 100.1Z" fill="#FF5B24"/>
<path d="M174.547 109.604C175.759 109.604 176.395 108.812 176.767 108.056L176.767 109.088C176.767 110.552 176.155 111.152 174.823 111.152C173.983 111.152 173.179 110.912 173.047 109.916L171.595 110.156C171.943 111.908 173.515 112.496 174.763 112.496C176.971 112.496 178.267 111.344 178.267 109.028L178.267 103.076L176.767 103.076L176.767 104.42C176.239 103.352 175.579 102.896 174.667 102.896C173.107 102.896 171.631 103.952 171.631 106.148C171.631 108.5 173.131 109.604 174.547 109.604ZM174.931 104.192C175.939 104.192 176.767 104.924 176.767 106.244C176.767 107.636 175.939 108.296 174.931 108.296C173.959 108.296 173.143 107.636 173.143 106.232C173.143 104.876 173.995 104.192 174.931 104.192Z" fill="#FF5B24"/>
<path d="M186.315 110L186.315 103.088L184.815 103.088L184.815 107.108C184.815 108.284 184.035 108.824 183.027 108.824C182.103 108.824 181.647 108.416 181.647 107.348L181.647 103.088L180.147 103.088L180.147 107.912C180.147 109.508 181.299 110.18 182.451 110.18C183.315 110.18 184.275 109.784 184.815 108.836L184.815 110L186.315 110Z" fill="#FF5B24"/>
<path d="M191.522 104.516C191.894 104.516 192.158 104.564 192.422 104.672L192.566 102.992C192.422 102.92 192.218 102.896 192.038 102.896C191.354 102.896 190.274 103.292 189.71 104.744L189.71 103.088L188.21 103.088L188.21 110L189.71 110L189.71 106.976C189.71 105.056 190.55 104.516 191.522 104.516Z" fill="#FF5B24"/>
<path d="M196.346 110.18C197.582 110.18 198.338 109.424 198.686 108.572L198.686 110L200.186 110L200.186 103.088L198.686 103.088L198.686 104.444C198.194 103.352 197.438 102.896 196.358 102.896C194.906 102.896 193.31 104.06 193.31 106.472C193.31 109.004 194.918 110.18 196.346 110.18ZM196.766 104.192C197.774 104.192 198.686 104.96 198.686 106.556C198.686 108.2 197.774 108.872 196.754 108.872C195.806 108.872 194.822 108.164 194.822 106.556C194.822 104.924 195.818 104.192 196.766 104.192Z" fill="#FF5B24"/>
<path d="M202.637 101.42L202.637 103.088L201.353 103.088L201.353 104.3L202.637 104.3L202.637 108.056C202.637 109.328 203.273 110.12 204.653 110.12C205.073 110.12 205.565 110.012 205.925 109.904L205.685 108.692C205.409 108.764 205.241 108.8 204.965 108.8C204.353 108.8 204.137 108.524 204.137 107.984L204.137 104.3L205.865 104.3L205.865 103.088L204.137 103.088L204.137 101.18L202.637 101.42Z" fill="#FF5B24"/>
<path d="M207.335 103.088L207.335 110L208.835 110L208.835 103.088L207.335 103.088ZM208.079 100.1C207.575 100.1 207.179 100.508 207.179 101C207.179 101.492 207.575 101.9 208.079 101.9C208.583 101.9 208.979 101.492 208.979 101C208.979 100.508 208.583 100.1 208.079 100.1Z" fill="#FF5B24"/>
<path d="M213.745 102.896C211.873 102.896 210.325 104.264 210.325 106.532C210.325 108.8 211.873 110.18 213.745 110.18C215.617 110.18 217.165 108.8 217.165 106.532C217.165 104.264 215.617 102.896 213.745 102.896ZM213.745 104.192C214.777 104.192 215.653 104.948 215.653 106.532C215.653 108.116 214.777 108.884 213.745 108.884C212.713 108.884 211.837 108.116 211.837 106.532C211.837 104.948 212.713 104.192 213.745 104.192Z" fill="#FF5B24"/>
<path d="M221.859 104.252C222.675 104.252 223.323 104.732 223.323 106.016L223.323 110L224.823 110L224.823 105.368C224.823 103.508 223.647 102.896 222.411 102.896C221.595 102.896 220.647 103.232 220.155 104.108L220.155 103.088L218.655 103.088L218.655 110L220.155 110L220.155 106.052C220.155 104.816 220.863 104.252 221.859 104.252Z" fill="#FF5B24"/>
<path d="M66.804 181.028C66.804 195.535 55.0441 207.294 40.5371 207.294C26.0304 207.294 14.2703 195.535 14.2703 181.028C14.2703 166.521 26.0304 154.761 40.5371 154.761C55.0441 154.761 66.804 166.521 66.804 181.028Z" fill="#EEEDF3"/>
<path d="M42.696 187.665H10.1439C9.20277 187.665 8.43994 186.902 8.43994 185.961L8.43994 160.415C8.43994 159.474 9.20277 158.711 10.1439 158.711H42.696C43.6369 158.711 44.4 159.474 44.4 160.415L44.4 185.961C44.4 186.902 43.6369 187.665 42.696 187.665Z" fill="#C8C5D6"/>
<path d="M42.635 158.711H10.205C9.23003 158.711 8.43994 159.502 8.43994 160.476V162.961H44.4V160.476C44.4 159.502 43.6099 158.711 42.635 158.711Z" fill="#48367D"/>
<path d="M12.8556 160.853C12.8556 161.34 12.4608 161.735 11.9735 161.735C11.4861 161.735 11.0908 161.34 11.0908 160.853C11.0908 160.366 11.4861 159.971 11.9735 159.971C12.4608 159.971 12.8556 160.366 12.8556 160.853Z" fill="white"/>
<path d="M15.7516 160.836C15.7516 161.324 15.3565 161.719 14.8695 161.719C14.3819 161.719 13.9868 161.324 13.9868 160.836C13.9868 160.349 14.3819 159.954 14.8695 159.954C15.3565 159.954 15.7516 160.349 15.7516 160.836Z" fill="white"/>
<path d="M18.6937 160.836C18.6937 161.324 18.2987 161.719 17.8116 161.719C17.3243 161.719 16.929 161.324 16.929 160.836C16.929 160.349 17.3243 159.954 17.8116 159.954C18.2987 159.954 18.6937 160.349 18.6937 160.836Z" fill="white"/>
<g filter="url(#filter0_d)">
<path d="M14.697 172.308C14.697 171.999 14.9477 171.748 15.257 171.748H37.657C37.9663 171.748 38.217 171.999 38.217 172.308V178.788C38.217 179.097 37.9663 179.348 37.657 179.348H15.257C14.9477 179.348 14.697 179.097 14.697 178.788L14.697 172.308Z" fill="#FF5B24"/>
</g>
<path d="M19.8096 174.359V176.759H21.2272V176.34H20.2736V174.359H19.8096Z" fill="white"/>
<path d="M22.2375 174.865C21.7383 174.865 21.3255 175.23 21.3255 175.834C21.3255 176.439 21.7383 176.807 22.2375 176.807C22.7367 176.807 23.1495 176.439 23.1495 175.834C23.1495 175.23 22.7367 174.865 22.2375 174.865ZM22.2375 175.262C22.4871 175.262 22.6951 175.447 22.6951 175.834C22.6951 176.222 22.4871 176.41 22.2375 176.41C21.9879 176.41 21.7799 176.222 21.7799 175.834C21.7799 175.447 21.9879 175.262 22.2375 175.262Z" fill="white"/>
<path d="M24.1152 176.654C24.4064 176.654 24.5792 176.519 24.688 176.359V176.516C24.688 176.871 24.5568 177.015 24.2368 177.015C24.0416 177.015 23.8784 176.954 23.7984 176.737L23.36 176.801C23.4528 177.268 23.872 177.425 24.2048 177.425C24.7936 177.425 25.1392 177.118 25.1392 176.5V174.913H24.688V175.137C24.5472 174.948 24.3584 174.865 24.1472 174.865C23.7472 174.865 23.3696 175.146 23.3696 175.732C23.3696 176.359 23.7536 176.654 24.1152 176.654ZM24.2496 175.262C24.4896 175.262 24.688 175.438 24.688 175.758C24.688 176.094 24.4896 176.254 24.2496 176.254C24.0192 176.254 23.824 176.094 23.824 175.754C23.824 175.428 24.0256 175.262 24.2496 175.262Z" fill="white"/>
<path d="M26.2214 176.654C26.5126 176.654 26.6854 176.519 26.7942 176.359V176.516C26.7942 176.871 26.663 177.015 26.343 177.015C26.1478 177.015 25.9846 176.954 25.9046 176.737L25.4662 176.801C25.559 177.268 25.9782 177.425 26.311 177.425C26.8998 177.425 27.2454 177.118 27.2454 176.5V174.913H26.7942V175.137C26.6534 174.948 26.4646 174.865 26.2534 174.865C25.8534 174.865 25.4758 175.146 25.4758 175.732C25.4758 176.359 25.8598 176.654 26.2214 176.654ZM26.3558 175.262C26.5958 175.262 26.7942 175.438 26.7942 175.758C26.7942 176.094 26.5958 176.254 26.3558 176.254C26.1254 176.254 25.9302 176.094 25.9302 175.754C25.9302 175.428 26.1318 175.262 26.3558 175.262Z" fill="white"/>
<path d="M28.5438 174.916V176.759H28.9918V174.916H28.5438ZM28.7678 174.116C28.6174 174.116 28.515 174.218 28.515 174.366C28.515 174.513 28.6174 174.615 28.7678 174.615C28.9182 174.615 29.0206 174.513 29.0206 174.366C29.0206 174.218 28.9182 174.116 28.7678 174.116Z" fill="white"/>
<path d="M30.2573 175.278C30.4557 175.278 30.6061 175.39 30.6061 175.697V176.759H31.0573V175.524C31.0573 175.028 30.7533 174.865 30.4333 174.865C30.2285 174.865 29.9917 174.954 29.8637 175.188V174.916H29.4125V176.759H29.8637V175.706C29.8637 175.412 30.0301 175.278 30.2573 175.278Z" fill="white"/>
<path d="M32.3198 175.278C32.5182 175.278 32.6686 175.39 32.6686 175.697V176.759H33.1198V175.524C33.1198 175.028 32.8158 174.865 32.4958 174.865C32.291 174.865 32.0542 174.954 31.9262 175.188V174.916H31.475V176.759H31.9262V175.706C31.9262 175.412 32.0926 175.278 32.3198 175.278Z" fill="white"/>
<path d="M58.245 199.833L58.3612 199.149L59.7104 188.556L53.3239 183.778L44.3331 186.333L45.1678 200.2C49.3974 201.216 53.5902 201.066 58.245 199.833Z" fill="#FFD3BA"/>
<path d="M46.5478 191.819C45.8205 191.221 45.5014 190.214 45.8234 189.27C46.858 186.24 46.997 184.505 47.0508 182.987C47.0965 181.704 48.1739 180.7 49.4577 180.746C50.7411 180.791 51.7449 181.868 51.6995 183.152C51.6213 185.365 51.3406 187.508 50.2256 190.773C49.8107 191.989 48.4888 192.638 47.2731 192.223C47.0014 192.13 46.7576 191.992 46.5478 191.819Z" fill="#FFD3BA"/>
<path d="M51.0594 191.174C50.3108 190.558 49.9996 189.513 50.3602 188.556C50.9821 186.907 51.2577 185.384 51.1791 184.03C51.1053 182.747 52.085 181.648 53.3672 181.574C54.6494 181.499 55.7492 182.479 55.8232 183.761C55.9392 185.769 55.5657 187.935 54.7127 190.197C54.2597 191.399 52.9182 192.006 51.7162 191.553C51.4715 191.461 51.251 191.331 51.0594 191.174Z" fill="#FFD3BA"/>
<path d="M55.9077 192.256C55.075 191.76 54.6096 190.774 54.822 189.773C55.1884 188.049 55.2318 186.502 54.9505 185.175C54.6844 183.919 55.4871 182.684 56.7438 182.418C58.0002 182.151 59.2349 182.954 59.501 184.211C59.9183 186.178 59.8751 188.375 59.3725 190.74C59.1055 191.996 57.8706 192.799 56.6141 192.531C56.3583 192.477 56.1211 192.383 55.9077 192.256Z" fill="#FFD3BA"/>
<path d="M44.7442 206.535C44.1167 201.881 42.5542 200.351 42.3249 200.044C42.1073 199.753 40.0705 197.458 39.3191 196.093C38.3883 194.4 37.2915 191.986 38.2422 190.013C39.1738 188.08 41.5016 188.468 43.3097 187.024L47.1838 185.609C48.7228 185.345 50.1843 186.379 50.4486 187.918C50.7123 189.457 49.6785 190.918 48.1395 191.182L47.3758 192.003C47.0963 192.117 47.3342 192.906 47.4069 193.236C47.8493 194.025 46.2912 195.495 47.0131 196.463C47.9471 197.714 47.6895 199.486 46.4379 200.42C45.4936 201.125 44.8923 207.634 44.7442 206.535Z" fill="#FFD3BA"/>
<path fill-rule="evenodd" clip-rule="evenodd" d="M58.5078 200.184C54.6589 203.796 49.7213 206.261 44.2401 207.034C44.1057 201.354 43.8152 196.363 43.2272 195.07C41.686 191.683 56.3284 196.259 56.3284 196.259C56.3284 196.259 58.6277 190.702 58.5078 200.184Z" fill="#FFD3BA"/>
<path fill-rule="evenodd" clip-rule="evenodd" d="M35.7724 175.79C36.2744 174.165 37.9988 173.254 39.6241 173.756L38.7153 176.699C39.6241 173.756 39.6246 173.756 39.6252 173.757L39.6289 173.758L39.6352 173.76L39.652 173.765L39.7022 173.781C39.7428 173.794 39.7977 173.812 39.8652 173.835C40 173.88 40.1864 173.944 40.4113 174.028C40.8578 174.193 41.473 174.437 42.147 174.756C43.3509 175.326 45.2981 176.383 46.4968 178.024C48.092 180.209 48.5321 182.816 48.3631 185.194C48.1938 187.576 47.4067 189.944 46.2684 191.944C45.4271 193.422 43.5466 193.939 42.0682 193.097C40.5897 192.256 40.0733 190.376 40.9146 188.897C41.6488 187.607 42.1215 186.124 42.2186 184.758C42.3159 183.388 42.0287 182.351 41.5221 181.657C41.3002 181.353 40.6003 180.839 39.5124 180.324C39.0404 180.101 38.5984 179.925 38.2742 179.805C38.1138 179.746 37.9864 179.702 37.9039 179.674C37.8627 179.66 37.8329 179.65 37.8161 179.645L37.8011 179.64L37.8047 179.641C37.8031 179.641 37.8026 179.641 37.8011 179.64M35.7724 175.79C35.2711 177.414 36.1792 179.136 37.8011 179.64ZM43.9978 179.849L44.0095 179.841Z" fill="#FFD2BA"/>
<path d="M66.2137 256.946C66.2137 271.453 54.4535 283.213 39.9468 283.213C25.4401 283.213 13.6799 271.453 13.6799 256.946C13.6799 242.439 25.4401 230.679 39.9468 230.679C54.4535 230.679 66.2137 242.439 66.2137 256.946Z" fill="#EEEDF3"/>
<path fill-rule="evenodd" clip-rule="evenodd" d="M42.9643 283.045C42.9593 273.48 42.9639 262.932 43.005 260.535C43.1689 250.948 52.6214 252.991 52.6214 252.991L64.0862 260.535L64.0823 267.331C60.4373 275.794 52.472 281.958 42.9643 283.045Z" fill="#FFD3BB"/>
<path d="M60.6756 263.295L44.0462 266.552C42.4456 266.866 40.8933 265.822 40.5798 264.221L34.0136 230.698C33.7 229.097 34.7438 227.545 36.3444 227.232L52.9739 223.974C54.5748 223.661 56.1267 224.704 56.4403 226.305L63.0065 259.829C63.32 261.429 62.2765 262.982 60.6756 263.295Z" fill="#FF5A23"/>
<path d="M62.6156 257.623L40.1889 262.016L34.5198 233.073L56.9465 228.68L62.6156 257.623Z" fill="#FF985F"/>
<path d="M40.2154 252.164L34.2661 252.626C32.6682 252.751 31.2723 251.556 31.1478 249.958C31.0234 248.36 32.2185 246.964 33.816 246.84L39.7655 246.377C41.3631 246.253 42.759 247.447 42.8834 249.045C43.0079 250.643 41.8134 252.039 40.2154 252.164Z" fill="#FFD3BB"/>
<path d="M40.7111 257.6L34.7618 258.063C33.1638 258.187 31.7679 256.993 31.6435 255.395C31.519 253.797 32.7136 252.401 34.3115 252.277L40.2609 251.814C41.8588 251.689 43.2547 252.884 43.3791 254.482C43.5035 256.08 42.309 257.476 40.7111 257.6Z" fill="#FFD3BB"/>
<path d="M41.7109 262.929L35.7613 263.392C34.1639 263.516 32.7671 262.321 32.6431 260.724C32.5189 259.126 33.7134 257.73 35.3111 257.605L41.2607 257.143C42.8583 257.018 44.2545 258.213 44.3789 259.811C44.5034 261.409 43.3086 262.805 41.7109 262.929Z" fill="#FFD3BB"/>
<path d="M54.2845 251.586L47.1454 252.985C45.9968 253.209 44.8834 252.461 44.6585 251.312L43.3722 244.744C43.1474 243.596 43.8962 242.482 45.0447 242.258L52.1839 240.859C53.3322 240.635 54.4455 241.383 54.6704 242.531L55.9567 249.1C56.1816 250.248 55.4328 251.362 54.2845 251.586Z" fill="#FFF4EB"/>
<path fill-rule="evenodd" clip-rule="evenodd" d="M43.5663 239.513C43.1483 237.325 44.5776 235.207 46.7666 234.779C48.9624 234.349 51.0908 235.78 51.5208 237.975L52.5764 243.366C52.6604 243.795 52.3808 244.211 51.9518 244.295C51.5228 244.379 51.1069 244.099 51.0229 243.67L49.9673 238.28C49.7054 236.942 48.4087 236.07 47.0708 236.332C45.7335 236.594 44.8615 237.891 45.1235 239.228L45.1306 239.265L45.1297 239.265L45.1669 239.516C45.2308 239.949 44.932 240.351 44.4996 240.415C44.0671 240.479 43.6648 240.18 43.6009 239.748L43.5663 239.513Z" fill="#FFF4EB"/>
<path fill-rule="evenodd" clip-rule="evenodd" d="M62.7423 270.006C62.3637 270.154 61.9532 270.296 61.5104 270.427C58.3425 271.364 53.613 267.259 53.613 267.259C53.613 267.259 53.7469 265.563 53.97 263.734C54.1931 261.905 55.3531 260.254 55.9332 259.718C53.613 259.228 51.9622 258.425 50.7575 256.818C49.5076 255.152 48.6158 253.695 48.3927 251.107C48.1696 248.519 49.1066 247.582 50.2221 247.047C51.3375 246.512 52.3191 246.779 53.3899 247.315C54.2232 247.731 54.7157 249.326 54.8177 250.483C54.9516 252 55.2939 252.37 55.9778 253.026C56.5043 253.53 57.6287 253.517 58.3872 253.427C59.1457 253.338 59.8339 253.378 61.1535 253.695C62.2689 253.963 63.3844 254.721 64.3214 255.971C65.3415 257.331 65.6821 258.981 65.9052 260.985C65.4051 264.225 64.3128 267.27 62.7423 270.006Z" fill="#FFD3BB"/>
<path d="M165.764 394.616L165.752 394.712C165.608 395.852 164.684 396.644 163.268 396.644C161.78 396.644 160.292 395.756 160.292 393.536C160.292 391.424 161.528 390.356 163.184 390.356C164.444 390.356 165.512 390.836 165.716 392.336L167.3 392.096C166.952 389.588 164.78 388.82 163.28 388.82C160.592 388.82 158.6 390.752 158.6 393.536C158.6 396.2 160.556 398.18 162.836 398.18C164.288 398.18 165.32 397.28 165.8 396.32L165.812 396.32L166.088 398L167.42 398L167.42 393.2L163.4 393.2L163.4 394.616L165.764 394.616Z" fill="#49367E"/>
<path d="M172.391 392.192C173.363 392.192 174.131 392.648 174.251 393.8L170.495 393.8C170.699 392.732 171.395 392.192 172.391 392.192ZM175.667 394.868L175.667 394.376C175.667 392.336 174.323 390.896 172.451 390.896C170.447 390.896 168.923 392.3 168.923 394.52C168.923 396.8 170.507 398.18 172.547 398.18C173.819 398.18 175.355 397.448 175.619 395.852L174.227 395.612C174.071 396.404 173.615 396.884 172.487 396.884C171.239 396.884 170.555 396.08 170.447 394.868L175.667 394.868Z" fill="#49367E"/>
<path d="M177.676 389.42L177.676 391.088L176.392 391.088L176.392 392.3L177.676 392.3L177.676 396.056C177.676 397.328 178.312 398.12 179.692 398.12C180.112 398.12 180.604 398.012 180.964 397.904L180.724 396.692C180.448 396.764 180.28 396.8 180.004 396.8C179.392 396.8 179.176 396.524 179.176 395.984L179.176 392.3L180.904 392.3L180.904 391.088L179.176 391.088L179.176 389.18L177.676 389.42Z" fill="#49367E"/>
<path d="M191.741 398L191.741 391.088L190.241 391.088L190.241 395.108C190.241 396.284 189.461 396.824 188.453 396.824C187.529 396.824 187.073 396.416 187.073 395.348L187.073 391.088L185.573 391.088L185.573 395.912C185.573 397.508 186.725 398.18 187.877 398.18C188.741 398.18 189.701 397.784 190.241 396.836L190.241 398L191.741 398Z" fill="#49367E"/>
<path d="M197.476 390.896C196.3 390.896 195.58 391.64 195.136 392.444L195.136 391.088L193.636 391.088L193.636 400.4L195.136 400.4L195.136 396.692C195.712 397.676 196.456 398.18 197.332 398.18C198.94 398.18 200.512 396.956 200.512 394.436C200.512 392.024 198.88 390.896 197.476 390.896ZM197.068 392.192C198.016 392.192 199 392.948 199 394.52C199 396.116 198.016 396.872 197.056 396.872C196.048 396.872 195.136 396.056 195.136 394.52C195.136 392.912 196.048 392.192 197.068 392.192Z" fill="#49367E"/>
<path d="M208.542 388.7L207.042 388.7L207.042 392.444C206.55 391.352 205.806 390.896 204.87 390.896C203.262 390.896 201.666 392.06 201.666 394.472C201.666 397.004 203.274 398.18 204.678 398.18C205.938 398.18 206.694 397.52 207.042 396.692L207.042 398L208.542 398L208.542 388.7ZM205.122 392.192C206.13 392.192 207.042 392.996 207.042 394.556C207.042 396.164 206.13 396.872 205.11 396.872C204.162 396.872 203.178 396.128 203.178 394.556C203.178 392.96 204.174 392.192 205.122 392.192Z" fill="#49367E"/>
<path d="M213.116 398.18C214.352 398.18 215.108 397.424 215.456 396.572L215.456 398L216.956 398L216.956 391.088L215.456 391.088L215.456 392.444C214.964 391.352 214.208 390.896 213.128 390.896C211.676 390.896 210.08 392.06 210.08 394.472C210.08 397.004 211.688 398.18 213.116 398.18ZM213.536 392.192C214.544 392.192 215.456 392.96 215.456 394.556C215.456 396.2 214.544 396.872 213.524 396.872C212.576 396.872 211.592 396.164 211.592 394.556C211.592 392.924 212.588 392.192 213.536 392.192Z" fill="#49367E"/>
<path d="M219.406 389.42L219.406 391.088L218.122 391.088L218.122 392.3L219.406 392.3L219.406 396.056C219.406 397.328 220.042 398.12 221.422 398.12C221.842 398.12 222.334 398.012 222.694 397.904L222.454 396.692C222.178 396.764 222.01 396.8 221.734 396.8C221.122 396.8 220.906 396.524 220.906 395.984L220.906 392.3L222.634 392.3L222.634 391.088L220.906 391.088L220.906 389.18L219.406 389.42Z" fill="#49367E"/>
<path d="M227.141 392.192C228.113 392.192 228.881 392.648 229.001 393.8L225.245 393.8C225.449 392.732 226.145 392.192 227.141 392.192ZM230.417 394.868L230.417 394.376C230.417 392.336 229.073 390.896 227.201 390.896C225.197 390.896 223.673 392.3 223.673 394.52C223.673 396.8 225.257 398.18 227.297 398.18C228.569 398.18 230.105 397.448 230.369 395.852L228.977 395.612C228.821 396.404 228.365 396.884 227.237 396.884C225.989 396.884 225.305 396.08 225.197 394.868L230.417 394.868Z" fill="#49367E"/>
<path d="M232.426 389.42L232.426 391.088L231.142 391.088L231.142 392.3L232.426 392.3L232.426 396.056C232.426 397.328 233.062 398.12 234.442 398.12C234.862 398.12 235.354 398.012 235.714 397.904L235.474 396.692C235.198 396.764 235.03 396.8 234.754 396.8C234.142 396.8 233.926 396.524 233.926 395.984L233.926 392.3L235.654 392.3L235.654 391.088L233.926 391.088L233.926 389.18L232.426 389.42Z" fill="#49367E"/>
<path d="M158.96 411.088L158.96 418L160.46 418L160.46 411.088L158.96 411.088ZM159.704 408.1C159.2 408.1 158.804 408.508 158.804 409C158.804 409.492 159.2 409.9 159.704 409.9C160.208 409.9 160.604 409.492 160.604 409C160.604 408.508 160.208 408.1 159.704 408.1Z" fill="#49367E"/>
<path d="M165.586 412.252C166.402 412.252 167.05 412.732 167.05 414.016L167.05 418L168.55 418L168.55 413.368C168.55 411.508 167.374 410.896 166.138 410.896C165.322 410.896 164.374 411.232 163.882 412.108L163.882 411.088L162.382 411.088L162.382 418L163.882 418L163.882 414.052C163.882 412.816 164.59 412.252 165.586 412.252Z" fill="#49367E"/>
<path d="M170.805 418L172.305 418L172.305 412.3L174.021 412.3L174.021 411.088L172.305 411.088L172.305 410.812C172.305 410.104 172.641 409.732 173.253 409.732C173.577 409.732 173.853 409.78 174.141 409.864L174.345 408.7C174.009 408.58 173.601 408.472 173.097 408.472C171.717 408.472 170.805 409.36 170.805 410.824L170.805 411.088L169.857 411.088L169.857 412.3L170.805 412.3L170.805 418Z" fill="#49367E"/>
<path d="M178.073 410.896C176.201 410.896 174.653 412.264 174.653 414.532C174.653 416.8 176.201 418.18 178.073 418.18C179.945 418.18 181.493 416.8 181.493 414.532C181.493 412.264 179.945 410.896 178.073 410.896ZM178.073 412.192C179.105 412.192 179.981 412.948 179.981 414.532C179.981 416.116 179.105 416.884 178.073 416.884C177.041 416.884 176.165 416.116 176.165 414.532C176.165 412.948 177.041 412.192 178.073 412.192Z" fill="#49367E"/>
<path d="M186.296 412.516C186.668 412.516 186.932 412.564 187.196 412.672L187.34 410.992C187.196 410.92 186.992 410.896 186.812 410.896C186.128 410.896 185.048 411.292 184.484 412.744L184.484 411.088L182.984 411.088L182.984 418L184.484 418L184.484 414.976C184.484 413.056 185.324 412.516 186.296 412.516Z" fill="#49367E"/>
<path d="M196.112 412.252C196.964 412.252 197.612 412.732 197.612 414.016L197.612 418L199.112 418L199.112 413.368C199.112 411.508 197.972 410.896 196.712 410.896C195.944 410.896 194.972 411.208 194.456 412.24C194.084 411.256 193.208 410.896 192.284 410.896C191.456 410.896 190.46 411.22 189.968 412.108L189.968 411.088L188.468 411.088L188.468 418L189.968 418L189.968 414.052C189.968 412.816 190.676 412.252 191.636 412.252C192.488 412.252 193.136 412.732 193.136 414.016L193.136 418L194.636 418L194.636 414.052C194.636 412.816 195.26 412.252 196.112 412.252Z" fill="#49367E"/>
<path d="M203.624 418.18C204.86 418.18 205.616 417.424 205.964 416.572L205.964 418L207.464 418L207.464 411.088L205.964 411.088L205.964 412.444C205.472 411.352 204.716 410.896 203.636 410.896C202.184 410.896 200.588 412.06 200.588 414.472C200.588 417.004 202.196 418.18 203.624 418.18ZM204.044 412.192C205.052 412.192 205.964 412.96 205.964 414.556C205.964 416.2 205.052 416.872 204.032 416.872C203.084 416.872 202.1 416.164 202.1 414.556C202.1 412.924 203.096 412.192 204.044 412.192Z" fill="#49367E"/>
<path d="M209.914 409.42L209.914 411.088L208.63 411.088L208.63 412.3L209.914 412.3L209.914 416.056C209.914 417.328 210.55 418.12 211.93 418.12C212.35 418.12 212.842 418.012 213.202 417.904L212.962 416.692C212.686 416.764 212.518 416.8 212.242 416.8C211.63 416.8 211.414 416.524 211.414 415.984L211.414 412.3L213.142 412.3L213.142 411.088L211.414 411.088L211.414 409.18L209.914 409.42Z" fill="#49367E"/>
<path d="M214.612 411.088L214.612 418L216.112 418L216.112 411.088L214.612 411.088ZM215.356 408.1C214.852 408.1 214.456 408.508 214.456 409C214.456 409.492 214.852 409.9 215.356 409.9C215.86 409.9 216.256 409.492 216.256 409C216.256 408.508 215.86 408.1 215.356 408.1Z" fill="#49367E"/>
<path d="M221.022 410.896C219.15 410.896 217.602 412.264 217.602 414.532C217.602 416.8 219.15 418.18 221.022 418.18C222.894 418.18 224.442 416.8 224.442 414.532C224.442 412.264 222.894 410.896 221.022 410.896ZM221.022 412.192C222.054 412.192 222.93 412.948 222.93 414.532C222.93 416.116 222.054 416.884 221.022 416.884C219.99 416.884 219.114 416.116 219.114 414.532C219.114 412.948 219.99 412.192 221.022 412.192Z" fill="#49367E"/>
<path d="M229.137 412.252C229.953 412.252 230.601 412.732 230.601 414.016L230.601 418L232.101 418L232.101 413.368C232.101 411.508 230.925 410.896 229.689 410.896C228.873 410.896 227.925 411.232 227.433 412.108L227.433 411.088L225.933 411.088L225.933 418L227.433 418L227.433 414.052C227.433 412.816 228.141 412.252 229.137 412.252Z" fill="#49367E"/>
<path d="M123.343 394.027C123.343 408.534 111.583 420.294 97.0762 420.294C82.5695 420.294 70.8093 408.534 70.8093 394.027C70.8093 379.52 82.5695 367.76 97.0762 367.76C111.583 367.76 123.343 379.52 123.343 394.027Z" fill="#EEEDF3"/>
<path d="M112.852 409.647L91.3424 403.702C90.6184 403.502 90.1942 402.753 90.3943 402.03L99.0149 370.837C99.2149 370.113 99.9637 369.688 100.688 369.888L122.197 375.833C122.921 376.033 123.346 376.782 123.146 377.506L114.525 408.699C114.325 409.422 113.576 409.847 112.852 409.647Z" fill="#C8C5D6"/>
<path d="M113.03 408.994L91.0309 405.244C90.2909 405.118 89.7933 404.416 89.9194 403.676L95.357 371.774C95.4831 371.034 96.1853 370.536 96.9256 370.662L118.924 374.411C119.665 374.538 120.162 375.24 120.036 375.98L114.599 407.882C114.473 408.623 113.77 409.12 113.03 408.994Z" fill="white"/>
<path d="M106.171 382.242C102.867 381.793 99.844 383.524 98.984 386.203C98.8338 386.67 99.1824 387.123 99.6689 387.189L111.117 388.745C111.604 388.811 112.06 388.468 112.04 387.978C111.926 385.166 109.475 382.691 106.171 382.242Z" fill="#59CBE8"/>
<path d="M109.851 378.258C109.653 379.717 108.309 380.739 106.85 380.541C105.391 380.343 104.369 378.999 104.567 377.54C104.766 376.081 106.109 375.059 107.568 375.257C109.027 375.455 110.05 376.799 109.851 378.258Z" fill="#59CBE8"/>
<path fill-rule="evenodd" clip-rule="evenodd" d="M95.7143 391.33C95.7553 391.051 96.0144 390.859 96.293 390.9L111.331 393.113C111.61 393.154 111.802 393.413 111.761 393.691C111.72 393.97 111.461 394.163 111.183 394.122L96.1445 391.909C95.8659 391.868 95.6733 391.609 95.7143 391.33Z" fill="#C8C5D6"/>
<path fill-rule="evenodd" clip-rule="evenodd" d="M95.1867 394.498C95.2277 394.22 95.4868 394.027 95.7654 394.068L110.804 396.281C111.082 396.322 111.275 396.581 111.234 396.86C111.193 397.138 110.934 397.331 110.655 397.29L95.6169 395.077C95.3384 395.036 95.1458 394.777 95.1867 394.498Z" fill="#C8C5D6"/>
<path fill-rule="evenodd" clip-rule="evenodd" d="M98.2195 401.234C97.9687 401.362 97.6616 401.263 97.5335 401.012C97.4054 400.762 97.5047 400.454 97.7555 400.326L97.7603 400.324L97.7729 400.317L97.8205 400.294C97.8618 400.273 97.9219 400.243 97.9979 400.206C98.1498 400.131 98.366 400.028 98.6243 399.909C99.1391 399.672 99.8284 399.372 100.513 399.13C101.18 398.893 101.903 398.687 102.462 398.68C102.733 398.676 103.072 398.717 103.333 398.931C103.639 399.182 103.701 399.55 103.641 399.894M98.2195 401.234L98.2334 401.227L98.2772 401.205L98.446 401.122C98.592 401.05 98.8008 400.95 99.0504 400.835C99.5515 400.605 100.21 400.319 100.854 400.09C101.514 399.856 102.099 399.704 102.475 399.699C102.552 399.698 102.604 399.704 102.638 399.71C102.638 399.712 102.637 399.715 102.637 399.718C102.556 400.18 102.495 400.632 102.508 401.035C102.52 401.437 102.606 401.854 102.877 402.19C103.158 402.537 103.569 402.716 104.062 402.773C104.544 402.829 105.144 402.775 105.875 402.622C106.556 402.479 107.022 402.447 107.335 402.465C107.649 402.484 107.776 402.552 107.815 402.581C107.821 402.585 107.825 402.588 107.828 402.591C107.795 402.846 107.959 403.09 108.215 403.151C108.489 403.216 108.764 403.047 108.829 402.773L108.333 402.655C108.829 402.773 108.829 402.774 108.829 402.773L108.83 402.769L108.832 402.763L108.834 402.751L108.839 402.722C108.843 402.699 108.846 402.671 108.848 402.639C108.852 402.574 108.851 402.488 108.831 402.389C108.79 402.182 108.671 401.941 108.412 401.754C108.164 401.575 107.827 401.473 107.395 401.447C106.962 401.422 106.4 401.47 105.666 401.624M105.666 401.624C104.982 401.767 104.505 401.798 104.18 401.76ZM104.18 401.76C103.863 401.723 103.734 401.627 103.67 401.549ZM103.67 401.549C103.598 401.459 103.536 401.3 103.527 401.004ZM103.527 401.004C103.518 400.71 103.562 400.343 103.641 399.894Z" fill="#5E3DC2"/>
<path d="M98.2195 401.234C97.9687 401.362 97.6616 401.263 97.5335 401.012C97.4054 400.762 97.5047 400.454 97.7555 400.326M98.2195 401.234L103.641 399.894M98.2195 401.234L98.2334 401.227L98.2772 401.205L98.446 401.122C98.592 401.05 98.8008 400.95 99.0504 400.835C99.5515 400.605 100.21 400.319 100.854 400.09C101.514 399.856 102.099 399.704 102.475 399.699C102.552 399.698 102.604 399.704 102.638 399.71C102.638 399.712 102.637 399.715 102.637 399.718C102.556 400.18 102.495 400.632 102.508 401.035C102.52 401.437 102.606 401.854 102.877 402.19C103.158 402.537 103.569 402.716 104.062 402.773C104.544 402.829 105.144 402.775 105.875 402.622C106.556 402.479 107.022 402.447 107.335 402.465C107.649 402.484 107.776 402.552 107.815 402.581C107.821 402.585 107.825 402.588 107.828 402.591C107.795 402.846 107.959 403.09 108.215 403.151C108.489 403.216 108.764 403.047 108.829 402.773M98.2195 401.234L105.666 401.624M97.7555 400.326L97.9875 400.78M97.7555 400.326L97.7603 400.324L97.7729 400.317L97.8205 400.294C97.8618 400.273 97.9219 400.243 97.9979 400.206C98.1498 400.131 98.366 400.028 98.6243 399.909C99.1391 399.672 99.8284 399.372 100.513 399.13C101.18 398.893 101.903 398.687 102.462 398.68C102.733 398.676 103.072 398.717 103.333 398.931C103.639 399.182 103.701 399.55 103.641 399.894M103.641 399.894C103.562 400.343 103.518 400.71 103.527 401.004M103.641 399.894L103.527 401.004M108.829 402.773L108.333 402.655C108.829 402.773 108.829 402.774 108.829 402.773ZM108.829 402.773L108.83 402.769L108.832 402.763L108.834 402.751L108.839 402.722C108.843 402.699 108.846 402.671 108.848 402.639C108.852 402.574 108.851 402.488 108.831 402.389C108.79 402.182 108.671 401.941 108.412 401.754C108.164 401.575 107.827 401.473 107.395 401.447C106.962 401.422 106.4 401.47 105.666 401.624M105.666 401.624C104.982 401.767 104.505 401.798 104.18 401.76M105.666 401.624L104.18 401.76M104.18 401.76C103.863 401.723 103.734 401.627 103.67 401.549M104.18 401.76L103.67 401.549M103.67 401.549C103.598 401.459 103.536 401.3 103.527 401.004M103.67 401.549L103.527 401.004" stroke="#5E3DC2" stroke-width="0.287229" stroke-miterlimit="10" stroke-linecap="round"/>
<path d="M13.6569 333.027C13.6569 347.534 25.4168 359.293 39.9238 359.293C54.4305 359.293 66.1907 347.534 66.1907 333.027C66.1907 318.52 54.4305 306.76 39.9238 306.76C25.4168 306.76 13.6569 318.52 13.6569 333.027Z" fill="#EEEDF3"/>
<path d="M23.2866 348.647L44.7965 342.702C45.5205 342.502 45.9447 341.753 45.7447 341.03L37.124 309.837C36.924 309.113 36.1752 308.688 35.4512 308.888L13.9416 314.833C13.2179 315.033 12.7934 315.782 12.9931 316.506L21.6141 347.699C21.8141 348.422 22.5633 348.847 23.2866 348.647Z" fill="#C8C5D6"/>
<path d="M23.3277 347.713L45.4409 344.707C46.1847 344.606 46.7057 343.921 46.6047 343.178L42.2469 311.11C42.1458 310.366 41.4608 309.845 40.7167 309.946L18.6038 312.95C17.8597 313.052 17.3387 313.737 17.4397 314.481L21.7975 346.548C21.8985 347.293 22.5836 347.814 23.3277 347.713Z" fill="white"/>
<path d="M30.8294 321.242C34.1335 320.793 37.1562 322.523 38.0163 325.203C38.1664 325.67 37.8179 326.122 37.3314 326.188L25.883 327.744C25.3965 327.81 24.9405 327.467 24.9601 326.977C25.0738 324.165 27.5253 321.691 30.8294 321.242Z" fill="#49367E"/>
<path d="M27.1487 317.259C27.3471 318.718 28.6906 319.74 30.1497 319.542C31.6089 319.343 32.631 318 32.4327 316.541C32.2344 315.081 30.8909 314.059 29.4317 314.258C27.9729 314.456 26.9504 315.799 27.1487 317.259Z" fill="#49367E"/>
<path fill-rule="evenodd" clip-rule="evenodd" d="M41.2859 330.328C41.2449 330.05 40.9859 329.857 40.7073 329.898L25.669 332.111C25.3904 332.152 25.1978 332.411 25.2388 332.69C25.2798 332.968 25.5388 333.161 25.8174 333.12L40.8557 330.907C41.1343 330.866 41.3269 330.607 41.2859 330.328Z" fill="#C8C5D6"/>
<path fill-rule="evenodd" clip-rule="evenodd" d="M41.8135 333.497C41.7725 333.218 41.5134 333.026 41.2349 333.067L26.1966 335.28C25.918 335.321 25.7254 335.58 25.7664 335.858C25.8074 336.137 26.0664 336.33 26.345 336.289L41.3833 334.076C41.6619 334.035 41.8545 333.776 41.8135 333.497Z" fill="#C8C5D6"/>
<path fill-rule="evenodd" clip-rule="evenodd" d="M29.297 341.906C29.1052 342.112 28.7826 342.123 28.5765 341.932C28.3703 341.74 28.3586 341.417 28.5504 341.211L28.5541 341.207L28.5638 341.197L28.6003 341.158C28.6321 341.124 28.6783 341.076 28.737 341.015C28.8544 340.893 29.022 340.721 29.224 340.522C29.6268 340.123 30.1721 339.606 30.7319 339.143C31.2779 338.693 31.8872 338.252 32.4103 338.054C32.6637 337.958 32.9962 337.88 33.3145 337.992C33.6875 338.124 33.8722 338.448 33.9331 338.792M29.297 341.906L29.3077 341.894L29.3413 341.858L29.4714 341.722C29.5841 341.605 29.746 341.44 29.9413 341.246C30.3333 340.858 30.8544 340.365 31.3811 339.93C31.9217 339.484 32.4191 339.141 32.7713 339.008C32.8429 338.981 32.8938 338.968 32.9277 338.962C32.9281 338.964 32.9286 338.967 32.9291 338.97C33.011 339.431 33.1091 339.877 33.2587 340.252C33.4078 340.625 33.631 340.988 34.0008 341.21C34.3829 341.44 34.8309 341.468 35.313 341.353C35.786 341.241 36.3308 340.985 36.9653 340.591C37.5568 340.224 37.9836 340.034 38.2836 339.945C38.5851 339.855 38.7278 339.876 38.7742 339.889C38.7808 339.891 38.7858 339.892 38.7895 339.894C38.8459 340.145 39.0841 340.318 39.3456 340.288C39.6253 340.256 39.8257 340.003 39.7933 339.723L39.2869 339.782C39.7933 339.723 39.7934 339.723 39.7933 339.723L39.7927 339.718L39.7921 339.713L39.7903 339.701L39.7851 339.671C39.7807 339.649 39.7744 339.621 39.7651 339.59C39.7467 339.528 39.7158 339.448 39.6635 339.361C39.5536 339.18 39.3601 338.995 39.0521 338.908C38.7581 338.824 38.4069 338.844 37.9923 338.968C37.5764 339.092 37.065 339.33 36.4279 339.725M36.4279 339.725C35.8339 340.093 35.3967 340.285 35.0776 340.361ZM35.0776 340.361C34.7676 340.435 34.6133 340.389 34.5265 340.337ZM34.5265 340.337C34.4275 340.277 34.3153 340.149 34.2057 339.874ZM34.2057 339.874C34.0966 339.601 34.0127 339.24 33.9331 338.792Z" fill="#49367E"/>
<path d="M29.297 341.906C29.1052 342.112 28.7826 342.123 28.5765 341.932C28.3703 341.74 28.3586 341.417 28.5504 341.211M29.297 341.906L33.9331 338.792M29.297 341.906L29.3077 341.894L29.3413 341.858L29.4714 341.722C29.5841 341.605 29.746 341.44 29.9413 341.246C30.3333 340.858 30.8544 340.365 31.3811 339.93C31.9217 339.484 32.4191 339.141 32.7713 339.008C32.8429 338.981 32.8938 338.968 32.9277 338.962C32.9281 338.964 32.9286 338.967 32.9291 338.97C33.011 339.431 33.1091 339.877 33.2587 340.252C33.4078 340.625 33.631 340.988 34.0008 341.21C34.3829 341.44 34.8309 341.468 35.313 341.353C35.786 341.241 36.3308 340.985 36.9653 340.591C37.5568 340.224 37.9836 340.034 38.2836 339.945C38.5851 339.855 38.7278 339.876 38.7742 339.889C38.7808 339.891 38.7858 339.892 38.7895 339.894C38.8459 340.145 39.0841 340.318 39.3456 340.288C39.6253 340.256 39.8257 340.003 39.7933 339.723M29.297 341.906L36.4279 339.725M28.5504 341.211L28.9237 341.558M28.5504 341.211L28.5541 341.207L28.5638 341.197L28.6003 341.158C28.6321 341.124 28.6783 341.076 28.737 341.015C28.8544 340.893 29.022 340.721 29.224 340.522C29.6268 340.123 30.1721 339.606 30.7319 339.143C31.2779 338.693 31.8872 338.252 32.4103 338.054C32.6637 337.958 32.9962 337.88 33.3145 337.992C33.6875 338.124 33.8722 338.448 33.9331 338.792M33.9331 338.792C34.0127 339.24 34.0966 339.601 34.2057 339.874M33.9331 338.792L34.2057 339.874M39.7933 339.723L39.2869 339.782C39.7933 339.723 39.7934 339.723 39.7933 339.723ZM39.7933 339.723L39.7927 339.718L39.7921 339.713L39.7903 339.701L39.7851 339.671C39.7807 339.649 39.7744 339.621 39.7651 339.59C39.7467 339.528 39.7158 339.448 39.6635 339.361C39.5536 339.18 39.3601 338.995 39.0521 338.908C38.7581 338.824 38.4069 338.844 37.9923 338.968C37.5764 339.092 37.065 339.33 36.4279 339.725M36.4279 339.725C35.8339 340.093 35.3967 340.285 35.0776 340.361M36.4279 339.725L35.0776 340.361M35.0776 340.361C34.7676 340.435 34.6133 340.389 34.5265 340.337M35.0776 340.361L34.5265 340.337M34.5265 340.337C34.4275 340.277 34.3153 340.149 34.2057 339.874M34.5265 340.337L34.2057 339.874" stroke="#49367E" stroke-width="0.287229" stroke-miterlimit="10" stroke-linecap="round"/>
<defs>
<filter id="filter0_d" x="14.473" y="171.636" width="23.968" height="8.048" filterUnits="userSpaceOnUse" color-interpolation-filters="sRGB">
<feFlood flood-opacity="0" result="BackgroundImageFix"/>
<feColorMatrix in="SourceAlpha" type="matrix" values="0 0 0 0 0 0 0 0 0 0 0 0 0 0 0 0 0 0 127 0"/>
<feOffset dy="0.112"/>
<feGaussianBlur stdDeviation="0.112"/>
<feColorMatrix type="matrix" values="0 0 0 0 0.0862745 0 0 0 0 0.0705882 0 0 0 0 0.145098 0 0 0 0.07 0"/>
<feBlend mode="normal" in2="BackgroundImageFix" result="effect1_dropShadow"/>
<feBlend mode="normal" in="SourceGraphic" in2="effect1_dropShadow" result="shape"/>
</filter>
</defs>
</svg>
