<svg width="320" height="457" viewBox="0 0 320 457" fill="none" xmlns="http://www.w3.org/2000/svg">
<rect width="320" height="457" fill="white"/>
<line x1="79" y1="388.5" x2="138" y2="388.5" stroke="#49367E" stroke-dasharray="3 3"/>
<line x1="79.5" y1="327" x2="79.5" y2="389" stroke="#49367E" stroke-dasharray="3 3"/>
<line x1="79.75" y1="50" x2="79.75" y2="327" stroke="#FF5B24" stroke-width="1.5"/>
<circle cx="80.2454" cy="100.245" r="4.24543" fill="white" stroke="#FF5B24" stroke-width="2"/>
<ellipse cx="80.2454" cy="50.4223" rx="4.24543" ry="4.42232" fill="white" stroke="#FF5B24" stroke-width="2"/>
<path d="M141.176 50.744L141.168 50.808C141.072 51.568 140.456 52.096 139.512 52.096C138.52 52.096 137.528 51.504 137.528 50.024C137.528 48.616 138.352 47.904 139.456 47.904C140.296 47.904 141.008 48.224 141.144 49.224L142.2 49.064C141.968 47.392 140.52 46.88 139.52 46.88C137.728 46.88 136.4 48.168 136.4 50.024C136.4 51.8 137.704 53.12 139.224 53.12C140.192 53.12 140.88 52.52 141.2 51.88L141.208 51.88L141.392 53L142.28 53L142.28 49.8L139.6 49.8L139.6 50.744L141.176 50.744ZM145.594 49.128C146.242 49.128 146.754 49.432 146.834 50.2L144.33 50.2C144.466 49.488 144.93 49.128 145.594 49.128ZM147.778 50.912L147.778 50.584C147.778 49.224 146.882 48.264 145.634 48.264C144.298 48.264 143.282 49.2 143.282 50.68C143.282 52.2 144.338 53.12 145.698 53.12C146.546 53.12 147.57 52.632 147.746 51.568L146.818 51.408C146.714 51.936 146.41 52.256 145.658 52.256C144.826 52.256 144.37 51.72 144.298 50.912L147.778 50.912ZM149.117 47.28L149.117 48.392L148.261 48.392L148.261 49.2L149.117 49.2L149.117 51.704C149.117 52.552 149.541 53.08 150.461 53.08C150.741 53.08 151.069 53.008 151.309 52.936L151.149 52.128C150.965 52.176 150.853 52.2 150.669 52.2C150.261 52.2 150.117 52.016 150.117 51.656L150.117 49.2L151.269 49.2L151.269 48.392L150.117 48.392L150.117 47.12L149.117 47.28ZM154.31 49.688C154.31 50.328 154.678 50.8 155.462 50.968L156.302 51.152C156.878 51.28 157.038 51.448 157.038 51.72C157.038 52.104 156.662 52.32 156.11 52.32C155.462 52.32 155.038 52.016 154.974 51.448L154.086 51.608C154.238 52.68 155.238 53.12 156.134 53.12C157.022 53.12 157.966 52.624 157.966 51.624C157.966 50.984 157.59 50.552 156.774 50.376L155.862 50.176C155.398 50.072 155.238 49.848 155.238 49.608C155.238 49.272 155.558 49.064 156.014 49.064C156.566 49.064 156.974 49.264 157.006 49.864L157.894 49.704C157.63 48.672 156.934 48.264 156.006 48.264C155.254 48.264 154.31 48.68 154.31 49.688ZM159.297 47.28L159.297 48.392L158.441 48.392L158.441 49.2L159.297 49.2L159.297 51.704C159.297 52.552 159.721 53.08 160.641 53.08C160.921 53.08 161.249 53.008 161.489 52.936L161.329 52.128C161.145 52.176 161.033 52.2 160.849 52.2C160.441 52.2 160.297 52.016 160.297 51.656L160.297 49.2L161.449 49.2L161.449 48.392L160.297 48.392L160.297 47.12L159.297 47.28ZM164.197 53.12C165.021 53.12 165.525 52.616 165.757 52.048L165.757 53L166.757 53L166.757 48.392L165.757 48.392L165.757 49.296C165.429 48.568 164.925 48.264 164.205 48.264C163.237 48.264 162.173 49.04 162.173 50.648C162.173 52.336 163.245 53.12 164.197 53.12ZM164.477 49.128C165.149 49.128 165.757 49.64 165.757 50.704C165.757 51.8 165.149 52.248 164.469 52.248C163.837 52.248 163.181 51.776 163.181 50.704C163.181 49.616 163.845 49.128 164.477 49.128ZM170.246 49.344C170.494 49.344 170.67 49.376 170.846 49.448L170.942 48.328C170.846 48.28 170.71 48.264 170.59 48.264C170.134 48.264 169.414 48.528 169.038 49.496L169.038 48.392L168.038 48.392L168.038 53L169.038 53L169.038 50.984C169.038 49.704 169.598 49.344 170.246 49.344ZM172.047 47.28L172.047 48.392L171.191 48.392L171.191 49.2L172.047 49.2L172.047 51.704C172.047 52.552 172.471 53.08 173.391 53.08C173.671 53.08 173.999 53.008 174.239 52.936L174.079 52.128C173.895 52.176 173.783 52.2 173.599 52.2C173.191 52.2 173.047 52.016 173.047 51.656L173.047 49.2L174.199 49.2L174.199 48.392L173.047 48.392L173.047 47.12L172.047 47.28ZM177.203 49.128C177.851 49.128 178.363 49.432 178.443 50.2L175.939 50.2C176.075 49.488 176.539 49.128 177.203 49.128ZM179.387 50.912L179.387 50.584C179.387 49.224 178.491 48.264 177.243 48.264C175.907 48.264 174.891 49.2 174.891 50.68C174.891 52.2 175.947 53.12 177.307 53.12C178.155 53.12 179.179 52.632 179.355 51.568L178.427 51.408C178.323 51.936 178.019 52.256 177.267 52.256C176.435 52.256 175.979 51.72 175.907 50.912L179.387 50.912ZM184.702 46.8L183.702 46.8L183.702 49.296C183.374 48.568 182.878 48.264 182.254 48.264C181.182 48.264 180.118 49.04 180.118 50.648C180.118 52.336 181.19 53.12 182.126 53.12C182.966 53.12 183.47 52.68 183.702 52.128L183.702 53L184.702 53L184.702 46.8ZM182.422 49.128C183.094 49.128 183.702 49.664 183.702 50.704C183.702 51.776 183.094 52.248 182.414 52.248C181.782 52.248 181.126 51.752 181.126 50.704C181.126 49.64 181.79 49.128 182.422 49.128ZM194.78 48.392L193.668 48.392L192.684 51.752L191.572 48.392L190.828 48.392L189.724 51.736L188.732 48.392L187.62 48.392L189.276 53L190.14 53L191.204 50.088L192.26 53L193.124 53L194.78 48.392ZM195.538 48.392L195.538 53L196.538 53L196.538 48.392L195.538 48.392ZM196.034 46.4C195.698 46.4 195.434 46.672 195.434 47C195.434 47.328 195.698 47.6 196.034 47.6C196.37 47.6 196.634 47.328 196.634 47C196.634 46.672 196.37 46.4 196.034 46.4ZM198.172 47.28L198.172 48.392L197.316 48.392L197.316 49.2L198.172 49.2L198.172 51.704C198.172 52.552 198.596 53.08 199.516 53.08C199.796 53.08 200.124 53.008 200.364 52.936L200.204 52.128C200.02 52.176 199.908 52.2 199.724 52.2C199.316 52.2 199.172 52.016 199.172 51.656L199.172 49.2L200.324 49.2L200.324 48.392L199.172 48.392L199.172 47.12L198.172 47.28ZM201.304 46.8L201.304 53L202.304 53L202.304 50.368C202.304 49.544 202.776 49.168 203.448 49.168C203.984 49.168 204.416 49.488 204.416 50.344L204.416 53L205.416 53L205.416 49.912C205.416 48.672 204.656 48.264 203.776 48.264C203.288 48.264 202.632 48.48 202.304 49.072L202.304 46.8L201.304 46.8ZM140.896 60.184C140.728 58.944 139.744 58.264 138.672 58.264C137.352 58.264 136.352 59.2 136.352 60.688C136.352 62.112 137.336 63.12 138.744 63.12C139.632 63.12 140.672 62.632 140.888 61.224L139.976 61.064C139.872 61.848 139.44 62.248 138.736 62.248C137.8 62.248 137.36 61.536 137.36 60.688C137.36 59.664 137.92 59.128 138.624 59.128C139.264 59.128 139.8 59.472 139.912 60.344L140.896 60.184ZM143.827 58.264C142.579 58.264 141.547 59.176 141.547 60.688C141.547 62.2 142.579 63.12 143.827 63.12C145.075 63.12 146.107 62.2 146.107 60.688C146.107 59.176 145.075 58.264 143.827 58.264ZM143.827 59.128C144.515 59.128 145.099 59.632 145.099 60.688C145.099 61.744 144.515 62.256 143.827 62.256C143.139 62.256 142.555 61.744 142.555 60.688C142.555 59.632 143.139 59.128 143.827 59.128ZM149.309 59.344C149.557 59.344 149.733 59.376 149.909 59.448L150.005 58.328C149.909 58.28 149.773 58.264 149.653 58.264C149.197 58.264 148.477 58.528 148.101 59.496L148.101 58.392L147.101 58.392L147.101 63L148.101 63L148.101 60.984C148.101 59.704 148.661 59.344 149.309 59.344ZM152.781 59.128C153.429 59.128 153.941 59.432 154.021 60.2L151.517 60.2C151.653 59.488 152.117 59.128 152.781 59.128ZM154.965 60.912L154.965 60.584C154.965 59.224 154.069 58.264 152.821 58.264C151.485 58.264 150.469 59.2 150.469 60.68C150.469 62.2 151.525 63.12 152.885 63.12C153.733 63.12 154.757 62.632 154.933 61.568L154.005 61.408C153.901 61.936 153.597 62.256 152.845 62.256C152.013 62.256 151.557 61.72 151.485 60.912L154.965 60.912ZM162.365 60.184C162.197 58.944 161.213 58.264 160.141 58.264C158.821 58.264 157.821 59.2 157.821 60.688C157.821 62.112 158.805 63.12 160.213 63.12C161.101 63.12 162.141 62.632 162.357 61.224L161.445 61.064C161.341 61.848 160.909 62.248 160.205 62.248C159.269 62.248 158.829 61.536 158.829 60.688C158.829 59.664 159.389 59.128 160.093 59.128C160.733 59.128 161.269 59.472 161.381 60.344L162.365 60.184ZM165.296 58.264C164.048 58.264 163.016 59.176 163.016 60.688C163.016 62.2 164.048 63.12 165.296 63.12C166.544 63.12 167.576 62.2 167.576 60.688C167.576 59.176 166.544 58.264 165.296 58.264ZM165.296 59.128C165.984 59.128 166.568 59.632 166.568 60.688C166.568 61.744 165.984 62.256 165.296 62.256C164.608 62.256 164.024 61.744 164.024 60.688C164.024 59.632 164.608 59.128 165.296 59.128ZM170.706 59.168C171.25 59.168 171.682 59.488 171.682 60.344L171.682 63L172.682 63L172.682 59.912C172.682 58.672 171.898 58.264 171.074 58.264C170.53 58.264 169.898 58.488 169.57 59.072L169.57 58.392L168.57 58.392L168.57 63L169.57 63L169.57 60.368C169.57 59.544 170.042 59.168 170.706 59.168ZM173.825 59.688C173.825 60.328 174.193 60.8 174.977 60.968L175.817 61.152C176.393 61.28 176.553 61.448 176.553 61.72C176.553 62.104 176.177 62.32 175.625 62.32C174.977 62.32 174.553 62.016 174.489 61.448L173.601 61.608C173.753 62.68 174.753 63.12 175.649 63.12C176.537 63.12 177.481 62.624 177.481 61.624C177.481 60.984 177.105 60.552 176.289 60.376L175.377 60.176C174.913 60.072 174.753 59.848 174.753 59.608C174.753 59.272 175.073 59.064 175.529 59.064C176.081 59.064 176.489 59.264 176.521 59.864L177.409 59.704C177.145 58.672 176.449 58.264 175.521 58.264C174.769 58.264 173.825 58.68 173.825 59.688ZM180.484 59.128C181.132 59.128 181.644 59.432 181.724 60.2L179.22 60.2C179.356 59.488 179.82 59.128 180.484 59.128ZM182.668 60.912L182.668 60.584C182.668 59.224 181.772 58.264 180.524 58.264C179.188 58.264 178.172 59.2 178.172 60.68C178.172 62.2 179.228 63.12 180.588 63.12C181.436 63.12 182.46 62.632 182.636 61.568L181.708 61.408C181.604 61.936 181.3 62.256 180.548 62.256C179.716 62.256 179.26 61.72 179.188 60.912L182.668 60.912ZM186.216 58.264C185.432 58.264 184.952 58.76 184.656 59.296L184.656 58.392L183.656 58.392L183.656 64.6L184.656 64.6L184.656 62.128C185.04 62.784 185.536 63.12 186.12 63.12C187.192 63.12 188.24 62.304 188.24 60.624C188.24 59.016 187.152 58.264 186.216 58.264ZM185.944 59.128C186.576 59.128 187.232 59.632 187.232 60.68C187.232 61.744 186.576 62.248 185.936 62.248C185.264 62.248 184.656 61.704 184.656 60.68C184.656 59.608 185.264 59.128 185.944 59.128ZM189.617 57.28L189.617 58.392L188.761 58.392L188.761 59.2L189.617 59.2L189.617 61.704C189.617 62.552 190.041 63.08 190.961 63.08C191.241 63.08 191.569 63.008 191.809 62.936L191.649 62.128C191.465 62.176 191.353 62.2 191.169 62.2C190.761 62.2 190.617 62.016 190.617 61.656L190.617 59.2L191.769 59.2L191.769 58.392L190.617 58.392L190.617 57.12L189.617 57.28ZM192.653 59.688C192.653 60.328 193.021 60.8 193.805 60.968L194.645 61.152C195.221 61.28 195.381 61.448 195.381 61.72C195.381 62.104 195.005 62.32 194.453 62.32C193.805 62.32 193.381 62.016 193.317 61.448L192.429 61.608C192.581 62.68 193.581 63.12 194.477 63.12C195.365 63.12 196.309 62.624 196.309 61.624C196.309 60.984 195.933 60.552 195.117 60.376L194.205 60.176C193.741 60.072 193.581 59.848 193.581 59.608C193.581 59.272 193.901 59.064 194.357 59.064C194.909 59.064 195.317 59.264 195.349 59.864L196.237 59.704C195.973 58.672 195.277 58.264 194.349 58.264C193.597 58.264 192.653 58.68 192.653 59.688Z" fill="#FF5B24"/>
<path d="M140.28 173L140.28 176.848C140.28 177.8 139.728 178.096 138.968 178.096C138.208 178.096 137.656 177.8 137.656 176.848L137.656 173L136.608 173L136.608 176.896C136.608 178.416 137.672 179.12 138.968 179.12C140.264 179.12 141.328 178.416 141.328 176.896L141.328 173L140.28 173ZM142.481 175.688C142.481 176.328 142.849 176.8 143.633 176.968L144.473 177.152C145.049 177.28 145.209 177.448 145.209 177.72C145.209 178.104 144.833 178.32 144.281 178.32C143.633 178.32 143.209 178.016 143.145 177.448L142.257 177.608C142.409 178.68 143.409 179.12 144.305 179.12C145.193 179.12 146.137 178.624 146.137 177.624C146.137 176.984 145.761 176.552 144.945 176.376L144.033 176.176C143.569 176.072 143.409 175.848 143.409 175.608C143.409 175.272 143.729 175.064 144.185 175.064C144.737 175.064 145.145 175.264 145.177 175.864L146.065 175.704C145.801 174.672 145.105 174.264 144.177 174.264C143.425 174.264 142.481 174.68 142.481 175.688ZM149.141 175.128C149.789 175.128 150.301 175.432 150.381 176.2L147.877 176.2C148.013 175.488 148.477 175.128 149.141 175.128ZM151.325 176.912L151.325 176.584C151.325 175.224 150.429 174.264 149.181 174.264C147.845 174.264 146.829 175.2 146.829 176.68C146.829 178.2 147.885 179.12 149.245 179.12C150.093 179.12 151.117 178.632 151.293 177.568L150.365 177.408C150.261 177.936 149.957 178.256 149.205 178.256C148.373 178.256 147.917 177.72 147.845 176.912L151.325 176.912ZM154.52 175.344C154.768 175.344 154.944 175.376 155.12 175.448L155.216 174.328C155.12 174.28 154.984 174.264 154.864 174.264C154.408 174.264 153.688 174.528 153.312 175.496L153.312 174.392L152.312 174.392L152.312 179L153.312 179L153.312 176.984C153.312 175.704 153.872 175.344 154.52 175.344ZM162.38 176.184C162.212 174.944 161.228 174.264 160.156 174.264C158.836 174.264 157.836 175.2 157.836 176.688C157.836 178.112 158.82 179.12 160.228 179.12C161.116 179.12 162.156 178.632 162.372 177.224L161.46 177.064C161.356 177.848 160.924 178.248 160.22 178.248C159.284 178.248 158.844 177.536 158.844 176.688C158.844 175.664 159.404 175.128 160.108 175.128C160.748 175.128 161.284 175.472 161.396 176.344L162.38 176.184ZM163.32 172.8L163.32 179L164.32 179L164.32 176.368C164.32 175.544 164.792 175.168 165.464 175.168C166 175.168 166.432 175.488 166.432 176.344L166.432 179L167.432 179L167.432 175.912C167.432 174.672 166.672 174.264 165.792 174.264C165.304 174.264 164.648 174.48 164.32 175.072L164.32 172.8L163.32 172.8ZM170.663 174.264C169.415 174.264 168.383 175.176 168.383 176.688C168.383 178.2 169.415 179.12 170.663 179.12C171.911 179.12 172.943 178.2 172.943 176.688C172.943 175.176 171.911 174.264 170.663 174.264ZM170.663 175.128C171.351 175.128 171.935 175.632 171.935 176.688C171.935 177.744 171.351 178.256 170.663 178.256C169.975 178.256 169.391 177.744 169.391 176.688C169.391 175.632 169.975 175.128 170.663 175.128ZM175.929 174.264C174.681 174.264 173.649 175.176 173.649 176.688C173.649 178.2 174.681 179.12 175.929 179.12C177.177 179.12 178.209 178.2 178.209 176.688C178.209 175.176 177.177 174.264 175.929 174.264ZM175.929 175.128C176.617 175.128 177.201 175.632 177.201 176.688C177.201 177.744 176.617 178.256 175.929 178.256C175.241 178.256 174.657 177.744 174.657 176.688C174.657 175.632 175.241 175.128 175.929 175.128ZM179.106 175.688C179.106 176.328 179.474 176.8 180.258 176.968L181.098 177.152C181.674 177.28 181.834 177.448 181.834 177.72C181.834 178.104 181.458 178.32 180.906 178.32C180.258 178.32 179.834 178.016 179.77 177.448L178.882 177.608C179.034 178.68 180.034 179.12 180.93 179.12C181.818 179.12 182.762 178.624 182.762 177.624C182.762 176.984 182.386 176.552 181.57 176.376L180.658 176.176C180.194 176.072 180.034 175.848 180.034 175.608C180.034 175.272 180.354 175.064 180.81 175.064C181.362 175.064 181.77 175.264 181.802 175.864L182.69 175.704C182.426 174.672 181.73 174.264 180.802 174.264C180.05 174.264 179.106 174.68 179.106 175.688ZM185.766 175.128C186.414 175.128 186.926 175.432 187.006 176.2L184.502 176.2C184.638 175.488 185.102 175.128 185.766 175.128ZM187.95 176.912L187.95 176.584C187.95 175.224 187.054 174.264 185.806 174.264C184.47 174.264 183.454 175.2 183.454 176.68C183.454 178.2 184.51 179.12 185.87 179.12C186.718 179.12 187.742 178.632 187.918 177.568L186.99 177.408C186.886 177.936 186.582 178.256 185.83 178.256C184.998 178.256 184.542 177.72 184.47 176.912L187.95 176.912ZM191.093 172.8L191.093 179L192.093 179L192.093 172.8L191.093 172.8ZM195.366 174.264C194.118 174.264 193.086 175.176 193.086 176.688C193.086 178.2 194.118 179.12 195.366 179.12C196.614 179.12 197.646 178.2 197.646 176.688C197.646 175.176 196.614 174.264 195.366 174.264ZM195.366 175.128C196.054 175.128 196.638 175.632 196.638 176.688C196.638 177.744 196.054 178.256 195.366 178.256C194.678 178.256 194.094 177.744 194.094 176.688C194.094 175.632 194.678 175.128 195.366 175.128ZM200.336 178.736C201.144 178.736 201.568 178.208 201.816 177.704L201.816 178.392C201.816 179.368 201.408 179.768 200.52 179.768C199.96 179.768 199.424 179.608 199.336 178.944L198.368 179.104C198.6 180.272 199.648 180.664 200.48 180.664C201.952 180.664 202.816 179.896 202.816 178.352L202.816 174.384L201.816 174.384L201.816 175.28C201.464 174.568 201.024 174.264 200.416 174.264C199.376 174.264 198.392 174.968 198.392 176.432C198.392 178 199.392 178.736 200.336 178.736ZM200.592 175.128C201.264 175.128 201.816 175.616 201.816 176.496C201.816 177.424 201.264 177.864 200.592 177.864C199.944 177.864 199.4 177.424 199.4 176.488C199.4 175.584 199.968 175.128 200.592 175.128ZM204.093 174.392L204.093 179L205.093 179L205.093 174.392L204.093 174.392ZM204.589 172.4C204.253 172.4 203.989 172.672 203.989 173C203.989 173.328 204.253 173.6 204.589 173.6C204.925 173.6 205.189 173.328 205.189 173C205.189 172.672 204.925 172.4 204.589 172.4ZM208.51 175.168C209.054 175.168 209.486 175.488 209.486 176.344L209.486 179L210.486 179L210.486 175.912C210.486 174.672 209.702 174.264 208.878 174.264C208.334 174.264 207.702 174.488 207.374 175.072L207.374 174.392L206.374 174.392L206.374 179L207.374 179L207.374 176.368C207.374 175.544 207.846 175.168 208.51 175.168ZM143.28 187.392L142.168 187.392L141.184 190.752L140.072 187.392L139.328 187.392L138.224 190.736L137.232 187.392L136.12 187.392L137.776 192L138.64 192L139.704 189.088L140.76 192L141.624 192L143.28 187.392ZM144.038 187.392L144.038 192L145.038 192L145.038 187.392L144.038 187.392ZM144.534 185.4C144.198 185.4 143.934 185.672 143.934 186C143.934 186.328 144.198 186.6 144.534 186.6C144.87 186.6 145.134 186.328 145.134 186C145.134 185.672 144.87 185.4 144.534 185.4ZM146.672 186.28L146.672 187.392L145.816 187.392L145.816 188.2L146.672 188.2L146.672 190.704C146.672 191.552 147.096 192.08 148.016 192.08C148.296 192.08 148.624 192.008 148.864 191.936L148.704 191.128C148.52 191.176 148.408 191.2 148.224 191.2C147.816 191.2 147.672 191.016 147.672 190.656L147.672 188.2L148.824 188.2L148.824 187.392L147.672 187.392L147.672 186.12L146.672 186.28ZM149.804 185.8L149.804 192L150.804 192L150.804 189.368C150.804 188.544 151.276 188.168 151.948 188.168C152.484 188.168 152.916 188.488 152.916 189.344L152.916 192L153.916 192L153.916 188.912C153.916 187.672 153.156 187.264 152.276 187.264C151.788 187.264 151.132 187.48 150.804 188.072L150.804 185.8L149.804 185.8ZM161.392 187.392L160.28 187.392L159.096 190.872L157.904 187.392L156.792 187.392L158.632 192L159.552 192L161.392 187.392ZM162.156 187.392L162.156 192L163.156 192L163.156 187.392L162.156 187.392ZM162.652 185.4C162.316 185.4 162.052 185.672 162.052 186C162.052 186.328 162.316 186.6 162.652 186.6C162.988 186.6 163.252 186.328 163.252 186C163.252 185.672 162.988 185.4 162.652 185.4ZM166.997 187.264C166.213 187.264 165.733 187.76 165.437 188.296L165.437 187.392L164.437 187.392L164.437 193.6L165.437 193.6L165.437 191.128C165.821 191.784 166.317 192.12 166.901 192.12C167.973 192.12 169.021 191.304 169.021 189.624C169.021 188.016 167.933 187.264 166.997 187.264ZM166.725 188.128C167.357 188.128 168.013 188.632 168.013 189.68C168.013 190.744 167.357 191.248 166.717 191.248C166.045 191.248 165.437 190.704 165.437 189.68C165.437 188.608 166.045 188.128 166.725 188.128ZM172.606 187.264C171.822 187.264 171.342 187.76 171.046 188.296L171.046 187.392L170.046 187.392L170.046 193.6L171.046 193.6L171.046 191.128C171.43 191.784 171.926 192.12 172.51 192.12C173.582 192.12 174.63 191.304 174.63 189.624C174.63 188.016 173.542 187.264 172.606 187.264ZM172.334 188.128C172.966 188.128 173.622 188.632 173.622 189.68C173.622 190.744 172.966 191.248 172.326 191.248C171.654 191.248 171.046 190.704 171.046 189.68C171.046 188.608 171.654 188.128 172.334 188.128ZM175.56 188.688C175.56 189.328 175.928 189.8 176.712 189.968L177.552 190.152C178.128 190.28 178.288 190.448 178.288 190.72C178.288 191.104 177.912 191.32 177.36 191.32C176.712 191.32 176.288 191.016 176.224 190.448L175.336 190.608C175.488 191.68 176.488 192.12 177.384 192.12C178.272 192.12 179.216 191.624 179.216 190.624C179.216 189.984 178.84 189.552 178.024 189.376L177.112 189.176C176.648 189.072 176.488 188.848 176.488 188.608C176.488 188.272 176.808 188.064 177.264 188.064C177.816 188.064 178.224 188.264 178.256 188.864L179.144 188.704C178.88 187.672 178.184 187.264 177.256 187.264C176.504 187.264 175.56 187.68 175.56 188.688Z" fill="#FF5B24"/>
<path d="M140.28 249L140.28 252.848C140.28 253.8 139.728 254.096 138.968 254.096C138.208 254.096 137.656 253.8 137.656 252.848L137.656 249L136.608 249L136.608 252.896C136.608 254.416 137.672 255.12 138.968 255.12C140.264 255.12 141.328 254.416 141.328 252.896L141.328 249L140.28 249ZM142.481 251.688C142.481 252.328 142.849 252.8 143.633 252.968L144.473 253.152C145.049 253.28 145.209 253.448 145.209 253.72C145.209 254.104 144.833 254.32 144.281 254.32C143.633 254.32 143.209 254.016 143.145 253.448L142.257 253.608C142.409 254.68 143.409 255.12 144.305 255.12C145.193 255.12 146.137 254.624 146.137 253.624C146.137 252.984 145.761 252.552 144.945 252.376L144.033 252.176C143.569 252.072 143.409 251.848 143.409 251.608C143.409 251.272 143.729 251.064 144.185 251.064C144.737 251.064 145.145 251.264 145.177 251.864L146.065 251.704C145.801 250.672 145.105 250.264 144.177 250.264C143.425 250.264 142.481 250.68 142.481 251.688ZM149.141 251.128C149.789 251.128 150.301 251.432 150.381 252.2L147.877 252.2C148.013 251.488 148.477 251.128 149.141 251.128ZM151.325 252.912L151.325 252.584C151.325 251.224 150.429 250.264 149.181 250.264C147.845 250.264 146.829 251.2 146.829 252.68C146.829 254.2 147.885 255.12 149.245 255.12C150.093 255.12 151.117 254.632 151.293 253.568L150.365 253.408C150.261 253.936 149.957 254.256 149.205 254.256C148.373 254.256 147.917 253.72 147.845 252.912L151.325 252.912ZM154.52 251.344C154.768 251.344 154.944 251.376 155.12 251.448L155.216 250.328C155.12 250.28 154.984 250.264 154.864 250.264C154.408 250.264 153.688 250.528 153.312 251.496L153.312 250.392L152.312 250.392L152.312 255L153.312 255L153.312 252.984C153.312 251.704 153.872 251.344 154.52 251.344ZM162.38 252.184C162.212 250.944 161.228 250.264 160.156 250.264C158.836 250.264 157.836 251.2 157.836 252.688C157.836 254.112 158.82 255.12 160.228 255.12C161.116 255.12 162.156 254.632 162.372 253.224L161.46 253.064C161.356 253.848 160.924 254.248 160.22 254.248C159.284 254.248 158.844 253.536 158.844 252.688C158.844 251.664 159.404 251.128 160.108 251.128C160.748 251.128 161.284 251.472 161.396 252.344L162.38 252.184ZM165.312 250.264C164.064 250.264 163.032 251.176 163.032 252.688C163.032 254.2 164.064 255.12 165.312 255.12C166.56 255.12 167.592 254.2 167.592 252.688C167.592 251.176 166.56 250.264 165.312 250.264ZM165.312 251.128C166 251.128 166.584 251.632 166.584 252.688C166.584 253.744 166 254.256 165.312 254.256C164.624 254.256 164.04 253.744 164.04 252.688C164.04 251.632 164.624 251.128 165.312 251.128ZM170.721 251.168C171.265 251.168 171.697 251.488 171.697 252.344L171.697 255L172.697 255L172.697 251.912C172.697 250.672 171.913 250.264 171.089 250.264C170.545 250.264 169.913 250.488 169.585 251.072L169.585 250.392L168.585 250.392L168.585 255L169.585 255L169.585 252.368C169.585 251.544 170.057 251.168 170.721 251.168ZM174.201 255L175.201 255L175.201 251.2L176.345 251.2L176.345 250.392L175.201 250.392L175.201 250.208C175.201 249.768 175.329 249.536 175.753 249.536C175.865 249.536 175.961 249.544 176.057 249.56L176.129 248.712C176.001 248.672 175.833 248.648 175.641 248.648C174.777 248.648 174.201 249.192 174.201 250.216L174.201 250.392L173.569 250.392L173.569 251.2L174.201 251.2L174.201 255ZM177.054 250.392L177.054 255L178.054 255L178.054 250.392L177.054 250.392ZM177.55 248.4C177.214 248.4 176.95 248.672 176.95 249C176.95 249.328 177.214 249.6 177.55 249.6C177.886 249.6 178.15 249.328 178.15 249C178.15 248.672 177.886 248.4 177.55 248.4ZM181.543 251.344C181.791 251.344 181.967 251.376 182.143 251.448L182.239 250.328C182.143 250.28 182.007 250.264 181.887 250.264C181.431 250.264 180.711 250.528 180.335 251.496L180.335 250.392L179.335 250.392L179.335 255L180.335 255L180.335 252.984C180.335 251.704 180.895 251.344 181.543 251.344ZM188.088 251.168C188.656 251.168 189.088 251.488 189.088 252.344L189.088 255L190.088 255L190.088 251.912C190.088 250.672 189.328 250.264 188.488 250.264C187.976 250.264 187.328 250.472 186.984 251.16C186.736 250.504 186.152 250.264 185.536 250.264C184.984 250.264 184.32 250.48 183.992 251.072L183.992 250.392L182.992 250.392L182.992 255L183.992 255L183.992 252.368C183.992 251.544 184.464 251.168 185.104 251.168C185.672 251.168 186.104 251.488 186.104 252.344L186.104 255L187.104 255L187.104 252.368C187.104 251.544 187.52 251.168 188.088 251.168ZM191.231 251.688C191.231 252.328 191.599 252.8 192.383 252.968L193.223 253.152C193.799 253.28 193.959 253.448 193.959 253.72C193.959 254.104 193.583 254.32 193.031 254.32C192.383 254.32 191.959 254.016 191.895 253.448L191.007 253.608C191.159 254.68 192.159 255.12 193.055 255.12C193.943 255.12 194.887 254.624 194.887 253.624C194.887 252.984 194.511 252.552 193.695 252.376L192.783 252.176C192.319 252.072 192.159 251.848 192.159 251.608C192.159 251.272 192.479 251.064 192.935 251.064C193.487 251.064 193.895 251.264 193.927 251.864L194.815 251.704C194.551 250.672 193.855 250.264 192.927 250.264C192.175 250.264 191.231 250.68 191.231 251.688Z" fill="#FF5B24"/>
<path d="M141.176 328.744L141.168 328.808C141.072 329.568 140.456 330.096 139.512 330.096C138.52 330.096 137.528 329.504 137.528 328.024C137.528 326.616 138.352 325.904 139.456 325.904C140.296 325.904 141.008 326.224 141.144 327.224L142.2 327.064C141.968 325.392 140.52 324.88 139.52 324.88C137.728 324.88 136.4 326.168 136.4 328.024C136.4 329.8 137.704 331.12 139.224 331.12C140.192 331.12 140.88 330.52 141.2 329.88L141.208 329.88L141.392 331L142.28 331L142.28 327.8L139.6 327.8L139.6 328.744L141.176 328.744ZM145.594 327.128C146.242 327.128 146.754 327.432 146.834 328.2L144.33 328.2C144.466 327.488 144.93 327.128 145.594 327.128ZM147.778 328.912L147.778 328.584C147.778 327.224 146.882 326.264 145.634 326.264C144.298 326.264 143.282 327.2 143.282 328.68C143.282 330.2 144.338 331.12 145.698 331.12C146.546 331.12 147.57 330.632 147.746 329.568L146.818 329.408C146.714 329.936 146.41 330.256 145.658 330.256C144.826 330.256 144.37 329.72 144.298 328.912L147.778 328.912ZM149.117 325.28L149.117 326.392L148.261 326.392L148.261 327.2L149.117 327.2L149.117 329.704C149.117 330.552 149.541 331.08 150.461 331.08C150.741 331.08 151.069 331.008 151.309 330.936L151.149 330.128C150.965 330.176 150.853 330.2 150.669 330.2C150.261 330.2 150.117 330.016 150.117 329.656L150.117 327.2L151.269 327.2L151.269 326.392L150.117 326.392L150.117 325.12L149.117 325.28ZM154.406 326.392L154.406 331L155.406 331L155.406 326.392L154.406 326.392ZM154.902 324.4C154.566 324.4 154.302 324.672 154.302 325C154.302 325.328 154.566 325.6 154.902 325.6C155.238 325.6 155.502 325.328 155.502 325C155.502 324.672 155.238 324.4 154.902 324.4ZM158.823 327.168C159.367 327.168 159.799 327.488 159.799 328.344L159.799 331L160.799 331L160.799 327.912C160.799 326.672 160.015 326.264 159.191 326.264C158.647 326.264 158.015 326.488 157.687 327.072L157.687 326.392L156.687 326.392L156.687 331L157.687 331L157.687 328.368C157.687 327.544 158.159 327.168 158.823 327.168ZM162.302 331L163.302 331L163.302 327.2L164.446 327.2L164.446 326.392L163.302 326.392L163.302 326.208C163.302 325.736 163.526 325.488 163.934 325.488C164.15 325.488 164.334 325.52 164.526 325.576L164.662 324.8C164.438 324.72 164.166 324.648 163.83 324.648C162.91 324.648 162.302 325.24 162.302 326.216L162.302 326.392L161.67 326.392L161.67 327.2L162.302 327.2L162.302 331ZM167.148 326.264C165.9 326.264 164.868 327.176 164.868 328.688C164.868 330.2 165.9 331.12 167.148 331.12C168.396 331.12 169.428 330.2 169.428 328.688C169.428 327.176 168.396 326.264 167.148 326.264ZM167.148 327.128C167.836 327.128 168.42 327.632 168.42 328.688C168.42 329.744 167.836 330.256 167.148 330.256C166.46 330.256 165.876 329.744 165.876 328.688C165.876 327.632 166.46 327.128 167.148 327.128ZM172.629 327.344C172.877 327.344 173.053 327.376 173.229 327.448L173.325 326.328C173.229 326.28 173.093 326.264 172.973 326.264C172.517 326.264 171.797 326.528 171.421 327.496L171.421 326.392L170.421 326.392L170.421 331L171.421 331L171.421 328.984C171.421 327.704 171.981 327.344 172.629 327.344ZM179.173 327.168C179.741 327.168 180.173 327.488 180.173 328.344L180.173 331L181.173 331L181.173 327.912C181.173 326.672 180.413 326.264 179.573 326.264C179.061 326.264 178.413 326.472 178.069 327.16C177.821 326.504 177.237 326.264 176.621 326.264C176.069 326.264 175.405 326.48 175.077 327.072L175.077 326.392L174.077 326.392L174.077 331L175.077 331L175.077 328.368C175.077 327.544 175.549 327.168 176.189 327.168C176.757 327.168 177.189 327.488 177.189 328.344L177.189 331L178.189 331L178.189 328.368C178.189 327.544 178.605 327.168 179.173 327.168ZM184.181 331.12C185.005 331.12 185.509 330.616 185.741 330.048L185.741 331L186.741 331L186.741 326.392L185.741 326.392L185.741 327.296C185.413 326.568 184.909 326.264 184.189 326.264C183.221 326.264 182.157 327.04 182.157 328.648C182.157 330.336 183.229 331.12 184.181 331.12ZM184.461 327.128C185.133 327.128 185.741 327.64 185.741 328.704C185.741 329.8 185.133 330.248 184.453 330.248C183.821 330.248 183.165 329.776 183.165 328.704C183.165 327.616 183.829 327.128 184.461 327.128ZM188.375 325.28L188.375 326.392L187.519 326.392L187.519 327.2L188.375 327.2L188.375 329.704C188.375 330.552 188.799 331.08 189.719 331.08C189.999 331.08 190.327 331.008 190.567 330.936L190.407 330.128C190.223 330.176 190.111 330.2 189.927 330.2C189.519 330.2 189.375 330.016 189.375 329.656L189.375 327.2L190.527 327.2L190.527 326.392L189.375 326.392L189.375 325.12L188.375 325.28ZM191.507 326.392L191.507 331L192.507 331L192.507 326.392L191.507 326.392ZM192.003 324.4C191.667 324.4 191.403 324.672 191.403 325C191.403 325.328 191.667 325.6 192.003 325.6C192.339 325.6 192.603 325.328 192.603 325C192.603 324.672 192.339 324.4 192.003 324.4ZM195.78 326.264C194.532 326.264 193.5 327.176 193.5 328.688C193.5 330.2 194.532 331.12 195.78 331.12C197.028 331.12 198.06 330.2 198.06 328.688C198.06 327.176 197.028 326.264 195.78 326.264ZM195.78 327.128C196.468 327.128 197.052 327.632 197.052 328.688C197.052 329.744 196.468 330.256 195.78 330.256C195.092 330.256 194.508 329.744 194.508 328.688C194.508 327.632 195.092 327.128 195.78 327.128ZM201.19 327.168C201.734 327.168 202.166 327.488 202.166 328.344L202.166 331L203.166 331L203.166 327.912C203.166 326.672 202.382 326.264 201.558 326.264C201.014 326.264 200.382 326.488 200.054 327.072L200.054 326.392L199.054 326.392L199.054 331L200.054 331L200.054 328.368C200.054 327.544 200.526 327.168 201.19 327.168ZM208.33 331.12C209.154 331.12 209.658 330.616 209.89 330.048L209.89 331L210.89 331L210.89 326.392L209.89 326.392L209.89 327.296C209.562 326.568 209.058 326.264 208.338 326.264C207.37 326.264 206.306 327.04 206.306 328.648C206.306 330.336 207.378 331.12 208.33 331.12ZM208.61 327.128C209.282 327.128 209.89 327.64 209.89 328.704C209.89 329.8 209.282 330.248 208.602 330.248C207.97 330.248 207.314 329.776 207.314 328.704C207.314 327.616 207.978 327.128 208.61 327.128ZM212.171 324.8L212.171 331L213.171 331L213.171 330.24C213.499 330.776 214.011 331.12 214.635 331.12C215.707 331.12 216.755 330.304 216.755 328.624C216.755 327.016 215.667 326.264 214.731 326.264C213.915 326.264 213.427 326.768 213.171 327.192L213.171 324.8L212.171 324.8ZM214.459 327.128C215.091 327.128 215.747 327.632 215.747 328.68C215.747 329.744 215.083 330.248 214.451 330.248C213.779 330.248 213.171 329.704 213.171 328.68C213.171 327.608 213.779 327.128 214.459 327.128ZM219.773 326.264C218.525 326.264 217.493 327.176 217.493 328.688C217.493 330.2 218.525 331.12 219.773 331.12C221.021 331.12 222.053 330.2 222.053 328.688C222.053 327.176 221.021 326.264 219.773 326.264ZM219.773 327.128C220.461 327.128 221.045 327.632 221.045 328.688C221.045 329.744 220.461 330.256 219.773 330.256C219.085 330.256 218.501 329.744 218.501 328.688C218.501 327.632 219.085 327.128 219.773 327.128ZM227.134 331L227.134 326.392L226.134 326.392L226.134 329.072C226.134 329.856 225.614 330.216 224.942 330.216C224.326 330.216 224.022 329.944 224.022 329.232L224.022 326.392L223.022 326.392L223.022 329.608C223.022 330.672 223.79 331.12 224.558 331.12C225.134 331.12 225.774 330.856 226.134 330.224L226.134 331L227.134 331ZM228.75 325.28L228.75 326.392L227.894 326.392L227.894 327.2L228.75 327.2L228.75 329.704C228.75 330.552 229.174 331.08 230.094 331.08C230.374 331.08 230.702 331.008 230.942 330.936L230.782 330.128C230.598 330.176 230.486 330.2 230.302 330.2C229.894 330.2 229.75 330.016 229.75 329.656L229.75 327.2L230.902 327.2L230.902 326.392L229.75 326.392L229.75 325.12L228.75 325.28ZM238.126 331L238.126 326.392L237.126 326.392L237.126 329.072C237.126 329.856 236.606 330.216 235.934 330.216C235.318 330.216 235.014 329.944 235.014 329.232L235.014 326.392L234.014 326.392L234.014 329.608C234.014 330.672 234.782 331.12 235.55 331.12C236.126 331.12 236.766 330.856 237.126 330.224L237.126 331L238.126 331ZM239.294 327.688C239.294 328.328 239.662 328.8 240.446 328.968L241.286 329.152C241.862 329.28 242.022 329.448 242.022 329.72C242.022 330.104 241.646 330.32 241.094 330.32C240.446 330.32 240.022 330.016 239.958 329.448L239.07 329.608C239.222 330.68 240.222 331.12 241.118 331.12C242.006 331.12 242.95 330.624 242.95 329.624C242.95 328.984 242.574 328.552 241.758 328.376L240.846 328.176C240.382 328.072 240.222 327.848 240.222 327.608C240.222 327.272 240.542 327.064 240.998 327.064C241.55 327.064 241.958 327.264 241.99 327.864L242.878 327.704C242.614 326.672 241.918 326.264 240.99 326.264C240.238 326.264 239.294 326.68 239.294 327.688ZM245.953 327.128C246.601 327.128 247.113 327.432 247.193 328.2L244.689 328.2C244.825 327.488 245.289 327.128 245.953 327.128ZM248.137 328.912L248.137 328.584C248.137 327.224 247.241 326.264 245.993 326.264C244.657 326.264 243.641 327.2 243.641 328.68C243.641 330.2 244.697 331.12 246.057 331.12C246.905 331.12 247.929 330.632 248.105 329.568L247.177 329.408C247.073 329.936 246.769 330.256 246.017 330.256C245.185 330.256 244.729 329.72 244.657 328.912L248.137 328.912ZM251.332 327.344C251.58 327.344 251.756 327.376 251.932 327.448L252.028 326.328C251.932 326.28 251.796 326.264 251.676 326.264C251.22 326.264 250.5 326.528 250.124 327.496L250.124 326.392L249.124 326.392L249.124 331L250.124 331L250.124 328.984C250.124 327.704 250.684 327.344 251.332 327.344Z" fill="#FF5B24"/>
<path d="M142.288 99.144C142.048 97.672 140.784 96.88 139.528 96.88C137.816 96.88 136.4 98.12 136.4 99.96C136.4 101.928 137.832 103.12 139.552 103.12C140.712 103.12 142.16 102.344 142.336 100.696L141.256 100.536C141.168 101.728 140.352 102.096 139.552 102.096C138.416 102.096 137.528 101.448 137.528 99.96C137.528 98.608 138.416 97.904 139.488 97.904C140.224 97.904 141.032 98.208 141.208 99.304L142.288 99.144ZM143.374 96.8L143.374 103L144.374 103L144.374 96.8L143.374 96.8ZM145.656 98.392L145.656 103L146.656 103L146.656 98.392L145.656 98.392ZM146.152 96.4C145.816 96.4 145.552 96.672 145.552 97C145.552 97.328 145.816 97.6 146.152 97.6C146.488 97.6 146.752 97.328 146.752 97C146.752 96.672 146.488 96.4 146.152 96.4ZM149.961 99.128C150.609 99.128 151.121 99.432 151.201 100.2L148.697 100.2C148.833 99.488 149.297 99.128 149.961 99.128ZM152.145 100.912L152.145 100.584C152.145 99.224 151.249 98.264 150.001 98.264C148.665 98.264 147.649 99.2 147.649 100.68C147.649 102.2 148.705 103.12 150.065 103.12C150.913 103.12 151.937 102.632 152.113 101.568L151.185 101.408C151.081 101.936 150.777 102.256 150.025 102.256C149.193 102.256 148.737 101.72 148.665 100.912L152.145 100.912ZM155.268 99.168C155.812 99.168 156.244 99.488 156.244 100.344L156.244 103L157.244 103L157.244 99.912C157.244 98.672 156.46 98.264 155.636 98.264C155.092 98.264 154.46 98.488 154.132 99.072L154.132 98.392L153.132 98.392L153.132 103L154.132 103L154.132 100.368C154.132 99.544 154.604 99.168 155.268 99.168ZM158.836 97.28L158.836 98.392L157.98 98.392L157.98 99.2L158.836 99.2L158.836 101.704C158.836 102.552 159.26 103.08 160.18 103.08C160.46 103.08 160.788 103.008 161.028 102.936L160.868 102.128C160.684 102.176 160.572 102.2 160.388 102.2C159.98 102.2 159.836 102.016 159.836 101.656L159.836 99.2L160.988 99.2L160.988 98.392L159.836 98.392L159.836 97.12L158.836 97.28ZM168.38 100.184C168.212 98.944 167.228 98.264 166.156 98.264C164.836 98.264 163.836 99.2 163.836 100.688C163.836 102.112 164.82 103.12 166.228 103.12C167.116 103.12 168.156 102.632 168.372 101.224L167.46 101.064C167.356 101.848 166.924 102.248 166.22 102.248C165.284 102.248 164.844 101.536 164.844 100.688C164.844 99.664 165.404 99.128 166.108 99.128C166.748 99.128 167.284 99.472 167.396 100.344L168.38 100.184ZM171.312 98.264C170.064 98.264 169.032 99.176 169.032 100.688C169.032 102.2 170.064 103.12 171.312 103.12C172.56 103.12 173.592 102.2 173.592 100.688C173.592 99.176 172.56 98.264 171.312 98.264ZM171.312 99.128C172 99.128 172.584 99.632 172.584 100.688C172.584 101.744 172 102.256 171.312 102.256C170.624 102.256 170.04 101.744 170.04 100.688C170.04 99.632 170.624 99.128 171.312 99.128ZM176.721 99.168C177.265 99.168 177.697 99.488 177.697 100.344L177.697 103L178.697 103L178.697 99.912C178.697 98.672 177.913 98.264 177.089 98.264C176.545 98.264 175.913 98.488 175.585 99.072L175.585 98.392L174.585 98.392L174.585 103L175.585 103L175.585 100.368C175.585 99.544 176.057 99.168 176.721 99.168ZM180.201 103L181.201 103L181.201 99.2L182.345 99.2L182.345 98.392L181.201 98.392L181.201 98.208C181.201 97.768 181.329 97.536 181.753 97.536C181.865 97.536 181.961 97.544 182.057 97.56L182.129 96.712C182.001 96.672 181.833 96.648 181.641 96.648C180.777 96.648 180.201 97.192 180.201 98.216L180.201 98.392L179.569 98.392L179.569 99.2L180.201 99.2L180.201 103ZM183.054 98.392L183.054 103L184.054 103L184.054 98.392L183.054 98.392ZM183.55 96.4C183.214 96.4 182.95 96.672 182.95 97C182.95 97.328 183.214 97.6 183.55 97.6C183.886 97.6 184.15 97.328 184.15 97C184.15 96.672 183.886 96.4 183.55 96.4ZM187.031 102.736C187.839 102.736 188.263 102.208 188.511 101.704L188.511 102.392C188.511 103.368 188.103 103.768 187.215 103.768C186.655 103.768 186.119 103.608 186.031 102.944L185.063 103.104C185.295 104.272 186.343 104.664 187.175 104.664C188.647 104.664 189.511 103.896 189.511 102.352L189.511 98.384L188.511 98.384L188.511 99.28C188.159 98.568 187.719 98.264 187.111 98.264C186.071 98.264 185.087 98.968 185.087 100.432C185.087 102 186.087 102.736 187.031 102.736ZM187.287 99.128C187.959 99.128 188.511 99.616 188.511 100.496C188.511 101.424 187.959 101.864 187.287 101.864C186.639 101.864 186.095 101.424 186.095 100.488C186.095 99.584 186.663 99.128 187.287 99.128ZM194.876 103L194.876 98.392L193.876 98.392L193.876 101.072C193.876 101.856 193.356 102.216 192.684 102.216C192.068 102.216 191.764 101.944 191.764 101.232L191.764 98.392L190.764 98.392L190.764 101.608C190.764 102.672 191.532 103.12 192.3 103.12C192.876 103.12 193.516 102.856 193.876 102.224L193.876 103L194.876 103ZM198.348 99.344C198.596 99.344 198.772 99.376 198.948 99.448L199.044 98.328C198.948 98.28 198.812 98.264 198.692 98.264C198.236 98.264 197.516 98.528 197.14 99.496L197.14 98.392L196.14 98.392L196.14 103L197.14 103L197.14 100.984C197.14 99.704 197.7 99.344 198.348 99.344ZM201.564 103.12C202.388 103.12 202.892 102.616 203.124 102.048L203.124 103L204.124 103L204.124 98.392L203.124 98.392L203.124 99.296C202.796 98.568 202.292 98.264 201.572 98.264C200.604 98.264 199.54 99.04 199.54 100.648C199.54 102.336 200.612 103.12 201.564 103.12ZM201.844 99.128C202.516 99.128 203.124 99.64 203.124 100.704C203.124 101.8 202.516 102.248 201.836 102.248C201.204 102.248 200.548 101.776 200.548 100.704C200.548 99.616 201.212 99.128 201.844 99.128ZM205.758 97.28L205.758 98.392L204.902 98.392L204.902 99.2L205.758 99.2L205.758 101.704C205.758 102.552 206.182 103.08 207.102 103.08C207.382 103.08 207.71 103.008 207.95 102.936L207.79 102.128C207.606 102.176 207.494 102.2 207.31 102.2C206.902 102.2 206.758 102.016 206.758 101.656L206.758 99.2L207.91 99.2L207.91 98.392L206.758 98.392L206.758 97.12L205.758 97.28ZM208.89 98.392L208.89 103L209.89 103L209.89 98.392L208.89 98.392ZM209.386 96.4C209.05 96.4 208.786 96.672 208.786 97C208.786 97.328 209.05 97.6 209.386 97.6C209.722 97.6 209.986 97.328 209.986 97C209.986 96.672 209.722 96.4 209.386 96.4ZM213.163 98.264C211.915 98.264 210.883 99.176 210.883 100.688C210.883 102.2 211.915 103.12 213.163 103.12C214.411 103.12 215.443 102.2 215.443 100.688C215.443 99.176 214.411 98.264 213.163 98.264ZM213.163 99.128C213.851 99.128 214.435 99.632 214.435 100.688C214.435 101.744 213.851 102.256 213.163 102.256C212.475 102.256 211.891 101.744 211.891 100.688C211.891 99.632 212.475 99.128 213.163 99.128ZM218.573 99.168C219.117 99.168 219.549 99.488 219.549 100.344L219.549 103L220.549 103L220.549 99.912C220.549 98.672 219.765 98.264 218.941 98.264C218.397 98.264 217.765 98.488 217.437 99.072L217.437 98.392L216.437 98.392L216.437 103L217.437 103L217.437 100.368C217.437 99.544 217.909 99.168 218.573 99.168Z" fill="#FF5B24"/>
<path d="M105.804 176.028C105.804 190.535 94.0442 202.294 79.5372 202.294C65.0305 202.294 53.2703 190.535 53.2703 176.028C53.2703 161.521 65.0305 149.761 79.5372 149.761C94.0442 149.761 105.804 161.521 105.804 176.028Z" fill="#EEEDF3"/>
<path d="M81.6962 182.665H49.1441C48.2029 182.665 47.4401 181.902 47.4401 180.961L47.4401 155.415C47.4401 154.474 48.2029 153.711 49.1441 153.711H81.6962C82.6371 153.711 83.4002 154.474 83.4002 155.415V180.961C83.4002 181.902 82.6371 182.665 81.6962 182.665Z" fill="#C8C5D6"/>
<path d="M81.6351 153.711H49.2052C48.2302 153.711 47.4401 154.502 47.4401 155.476V157.961H83.4002V155.476C83.4002 154.502 82.6101 153.711 81.6351 153.711Z" fill="#48367D"/>
<path d="M51.8558 155.853C51.8558 156.34 51.4611 156.735 50.9737 156.735C50.4864 156.735 50.0911 156.34 50.0911 155.853C50.0911 155.366 50.4864 154.971 50.9737 154.971C51.4611 154.971 51.8558 155.366 51.8558 155.853Z" fill="white"/>
<path d="M54.7517 155.836C54.7517 156.324 54.3567 156.719 53.8696 156.719C53.382 156.719 52.987 156.324 52.987 155.836C52.987 155.349 53.382 154.954 53.8696 154.954C54.3567 154.954 54.7517 155.349 54.7517 155.836Z" fill="white"/>
<path d="M57.6941 155.836C57.6941 156.324 57.299 156.719 56.812 156.719C56.3246 156.719 55.9293 156.324 55.9293 155.836C55.9293 155.349 56.3246 154.954 56.812 154.954C57.299 154.954 57.6941 155.349 57.6941 155.836Z" fill="white"/>
<g filter="url(#filter0_d)">
<rect x="53.6973" y="166.748" width="23.52" height="7.6" rx="0.56" fill="#FF5B24"/>
</g>
<path d="M58.8097 169.359V171.759H60.2273V171.34H59.2737V169.359H58.8097Z" fill="white"/>
<path d="M61.2376 169.865C60.7384 169.865 60.3256 170.23 60.3256 170.834C60.3256 171.439 60.7384 171.807 61.2376 171.807C61.7368 171.807 62.1496 171.439 62.1496 170.834C62.1496 170.23 61.7368 169.865 61.2376 169.865ZM61.2376 170.262C61.4872 170.262 61.6952 170.447 61.6952 170.834C61.6952 171.222 61.4872 171.41 61.2376 171.41C60.988 171.41 60.78 171.222 60.78 170.834C60.78 170.447 60.988 170.262 61.2376 170.262Z" fill="white"/>
<path d="M63.1153 171.654C63.4065 171.654 63.5793 171.519 63.6881 171.359V171.516C63.6881 171.871 63.5569 172.015 63.2369 172.015C63.0417 172.015 62.8785 171.954 62.7985 171.737L62.3601 171.801C62.4529 172.268 62.8721 172.425 63.2049 172.425C63.7937 172.425 64.1393 172.118 64.1393 171.5V169.913H63.6881V170.137C63.5473 169.948 63.3585 169.865 63.1473 169.865C62.7473 169.865 62.3697 170.146 62.3697 170.732C62.3697 171.359 62.7537 171.654 63.1153 171.654ZM63.2497 170.262C63.4897 170.262 63.6881 170.438 63.6881 170.758C63.6881 171.094 63.4897 171.254 63.2497 171.254C63.0193 171.254 62.8241 171.094 62.8241 170.754C62.8241 170.428 63.0257 170.262 63.2497 170.262Z" fill="white"/>
<path d="M65.2216 171.654C65.5128 171.654 65.6856 171.519 65.7944 171.359V171.516C65.7944 171.871 65.6632 172.015 65.3432 172.015C65.148 172.015 64.9848 171.954 64.9048 171.737L64.4664 171.801C64.5592 172.268 64.9784 172.425 65.3112 172.425C65.9 172.425 66.2456 172.118 66.2456 171.5V169.913H65.7944V170.137C65.6536 169.948 65.4648 169.865 65.2536 169.865C64.8536 169.865 64.476 170.146 64.476 170.732C64.476 171.359 64.86 171.654 65.2216 171.654ZM65.356 170.262C65.596 170.262 65.7944 170.438 65.7944 170.758C65.7944 171.094 65.596 171.254 65.356 171.254C65.1256 171.254 64.9304 171.094 64.9304 170.754C64.9304 170.428 65.132 170.262 65.356 170.262Z" fill="white"/>
<path d="M67.5439 169.916V171.759H67.9919V169.916H67.5439ZM67.7679 169.116C67.6175 169.116 67.5151 169.218 67.5151 169.366C67.5151 169.513 67.6175 169.615 67.7679 169.615C67.9183 169.615 68.0207 169.513 68.0207 169.366C68.0207 169.218 67.9183 169.116 67.7679 169.116Z" fill="white"/>
<path d="M69.2575 170.278C69.4559 170.278 69.6063 170.39 69.6063 170.697V171.759H70.0575V170.524C70.0575 170.028 69.7535 169.865 69.4335 169.865C69.2287 169.865 68.9919 169.954 68.8639 170.188V169.916H68.4127V171.759H68.8639V170.706C68.8639 170.412 69.0303 170.278 69.2575 170.278Z" fill="white"/>
<path d="M71.32 170.278C71.5184 170.278 71.6688 170.39 71.6688 170.697V171.759H72.12V170.524C72.12 170.028 71.816 169.865 71.496 169.865C71.2912 169.865 71.0544 169.954 70.9264 170.188V169.916H70.4752V171.759H70.9264V170.706C70.9264 170.412 71.0928 170.278 71.32 170.278Z" fill="white"/>
<path d="M97.2452 194.833L97.3613 194.149L98.7105 183.556L92.324 178.778L83.3332 181.333L84.1679 195.2C88.3975 196.216 92.5903 196.066 97.2452 194.833Z" fill="#FFD3BA"/>
<path d="M85.548 186.819C84.8207 186.221 84.5016 185.213 84.8235 184.27C85.8581 181.24 85.9971 179.505 86.0509 177.987C86.0966 176.704 87.1741 175.7 88.4578 175.745C89.7412 175.791 90.745 176.868 90.6996 178.152C90.6214 180.365 90.3408 182.508 89.2257 185.773C88.8108 186.988 87.4889 187.637 86.2732 187.222C86.0016 187.13 85.7577 186.991 85.548 186.819Z" fill="#FFD3BA"/>
<path d="M90.0596 186.173C89.311 185.558 88.9998 184.513 89.3603 183.556C89.9822 181.906 90.2578 180.384 90.1792 179.029C90.1054 177.747 91.0851 176.647 92.3673 176.573C93.6495 176.499 94.7493 177.478 94.8234 178.761C94.9393 180.769 94.5658 182.934 93.7128 185.197C93.2599 186.399 91.9183 187.006 90.7163 186.553C90.4716 186.46 90.2511 186.331 90.0596 186.173Z" fill="#FFD3BA"/>
<path d="M94.9079 187.256C94.0752 186.76 93.6098 185.774 93.8221 184.773C94.1885 183.049 94.232 181.502 93.9507 180.175C93.6846 178.918 94.4873 177.683 95.744 177.417C97.0004 177.151 98.235 177.954 98.5011 179.21C98.9184 181.178 98.8752 183.375 98.3727 185.74C98.1056 186.996 96.8708 187.798 95.6143 187.531C95.3585 187.477 95.1212 187.382 94.9079 187.256Z" fill="#FFD3BA"/>
<path d="M83.7443 201.535C83.1168 196.88 81.5543 195.351 81.3251 195.044C81.1075 194.752 79.0706 192.458 78.3193 191.092C77.3885 189.4 76.2916 186.986 77.2423 185.013C78.1739 183.08 80.5017 183.468 82.3099 182.024L86.1839 180.608C87.7229 180.345 89.1845 181.378 89.4488 182.917C89.7125 184.457 88.6786 185.918 87.1396 186.182L86.376 187.003C86.0965 187.117 86.3344 187.905 86.407 188.235C86.8494 189.025 85.2913 190.495 86.0132 191.463C86.9472 192.714 86.6896 194.486 85.438 195.42C84.4937 196.124 83.8924 202.634 83.7443 201.535Z" fill="#FFD3BA"/>
<path fill-rule="evenodd" clip-rule="evenodd" d="M97.5079 195.184C93.6591 198.796 88.7215 201.261 83.2403 202.034C83.1059 196.354 82.8154 191.363 82.2273 190.07C80.6862 186.683 95.3285 191.259 95.3285 191.259C95.3285 191.259 97.6278 185.702 97.5079 195.184Z" fill="#FFD3BA"/>
<path d="M77.7154 171.699C77.7154 171.699 81.5889 172.895 83.0095 174.841C85.1113 177.719 84.4641 182.13 82.5916 185.42" stroke="#FFD2BA" stroke-width="6.16" stroke-linecap="round" stroke-linejoin="round"/>
<path d="M105.214 251.946C105.214 266.453 93.4537 278.213 78.947 278.213C64.4403 278.213 52.6801 266.453 52.6801 251.946C52.6801 237.439 64.4403 225.679 78.947 225.679C93.4537 225.679 105.214 237.439 105.214 251.946Z" fill="#EEEDF3"/>
<path fill-rule="evenodd" clip-rule="evenodd" d="M81.9644 278.045C81.9594 268.48 81.964 257.932 82.0051 255.535C82.169 245.948 91.6215 247.991 91.6215 247.991L103.086 255.535L103.082 262.331C99.4374 270.794 91.4721 276.957 81.9644 278.045Z" fill="#FFD3BB"/>
<path d="M99.6757 258.295L83.0463 261.552C81.4456 261.866 79.8934 260.822 79.5799 259.221L73.0136 225.698C72.7001 224.097 73.7439 222.545 75.3445 222.232L91.974 218.974C93.5749 218.661 95.1268 219.704 95.4403 221.305L102.007 254.829C102.32 256.429 101.277 257.982 99.6757 258.295Z" fill="#FF5A23"/>
<path d="M101.616 252.623L79.189 257.016L73.5199 228.073L95.9466 223.68L101.616 252.623Z" fill="#FF985F"/>
<path d="M79.2161 247.164L73.2668 247.626C71.6688 247.751 70.273 246.556 70.1485 244.958C70.0241 243.36 71.2192 241.964 72.8166 241.84L78.7662 241.377C80.3638 241.253 81.7597 242.448 81.8841 244.045C82.0086 245.644 80.8141 247.039 79.2161 247.164Z" fill="#FFD3BB"/>
<path d="M79.7117 252.601L73.7623 253.063C72.1644 253.188 70.7685 251.993 70.6441 250.395C70.5196 248.797 71.7142 247.401 73.3121 247.277L79.2614 246.814C80.8593 246.69 82.2553 247.884 82.3796 249.482C82.5041 251.08 81.3096 252.476 79.7117 252.601Z" fill="#FFD3BB"/>
<path d="M80.7115 257.929L74.7619 258.392C73.1645 258.516 71.7678 257.322 71.6437 255.724C71.5195 254.126 72.714 252.73 74.3117 252.606L80.2613 252.143C81.8589 252.018 83.2551 253.213 83.3795 254.811C83.504 256.409 82.3092 257.805 80.7115 257.929Z" fill="#FFD3BB"/>
<path d="M93.2847 246.587L86.1456 247.985C84.997 248.21 83.8836 247.461 83.6587 246.313L82.3724 239.744C82.1476 238.596 82.8963 237.483 84.0449 237.258L91.184 235.86C92.3323 235.635 93.4457 236.383 93.6706 237.532L94.9569 244.1C95.1817 245.248 94.433 246.362 93.2847 246.587Z" fill="#FFF4EB"/>
<path d="M90.7999 238.518L89.7443 233.128C89.3984 231.361 87.6858 230.209 85.919 230.555C84.1526 230.901 83.001 232.614 83.347 234.38L83.3841 234.632" stroke="#FFF4EB" stroke-width="0.48" stroke-miterlimit="10" stroke-linecap="round"/>
<path fill-rule="evenodd" clip-rule="evenodd" d="M101.742 265.006C101.364 265.154 100.953 265.296 100.511 265.427C97.3426 266.364 92.6131 262.259 92.6131 262.259C92.6131 262.259 92.747 260.563 92.9701 258.734C93.1932 256.905 94.3532 255.254 94.9333 254.718C92.6131 254.228 90.9623 253.425 89.7576 251.818C88.5076 250.152 87.6159 248.695 87.3928 246.107C87.1697 243.519 88.1067 242.582 89.2222 242.047C90.3376 241.512 91.3192 241.779 92.39 242.315C93.2233 242.731 93.7158 244.326 93.8178 245.483C93.9517 247 94.294 247.37 94.9779 248.026C95.5044 248.53 96.6287 248.517 97.3873 248.427C98.1458 248.338 98.834 248.378 100.154 248.695C101.269 248.963 102.384 249.721 103.321 250.971C104.342 252.331 104.682 253.981 104.905 255.985C104.405 259.225 103.313 262.27 101.742 265.006Z" fill="#FFD3BB"/>
<path d="M198.176 383.744L198.168 383.808C198.072 384.568 197.456 385.096 196.512 385.096C195.52 385.096 194.528 384.504 194.528 383.024C194.528 381.616 195.352 380.904 196.456 380.904C197.296 380.904 198.008 381.224 198.144 382.224L199.2 382.064C198.968 380.392 197.52 379.88 196.52 379.88C194.728 379.88 193.4 381.168 193.4 383.024C193.4 384.8 194.704 386.12 196.224 386.12C197.192 386.12 197.88 385.52 198.2 384.88L198.208 384.88L198.392 386L199.28 386L199.28 382.8L196.6 382.8L196.6 383.744L198.176 383.744ZM202.594 382.128C203.242 382.128 203.754 382.432 203.834 383.2L201.33 383.2C201.466 382.488 201.93 382.128 202.594 382.128ZM204.778 383.912L204.778 383.584C204.778 382.224 203.882 381.264 202.634 381.264C201.298 381.264 200.282 382.2 200.282 383.68C200.282 385.2 201.338 386.12 202.698 386.12C203.546 386.12 204.57 385.632 204.746 384.568L203.818 384.408C203.714 384.936 203.41 385.256 202.658 385.256C201.826 385.256 201.37 384.72 201.298 383.912L204.778 383.912ZM206.117 380.28L206.117 381.392L205.261 381.392L205.261 382.2L206.117 382.2L206.117 384.704C206.117 385.552 206.541 386.08 207.461 386.08C207.741 386.08 208.069 386.008 208.309 385.936L208.149 385.128C207.965 385.176 207.853 385.2 207.669 385.2C207.261 385.2 207.117 385.016 207.117 384.656L207.117 382.2L208.269 382.2L208.269 381.392L207.117 381.392L207.117 380.12L206.117 380.28ZM215.494 386L215.494 381.392L214.494 381.392L214.494 384.072C214.494 384.856 213.974 385.216 213.302 385.216C212.686 385.216 212.382 384.944 212.382 384.232L212.382 381.392L211.382 381.392L211.382 384.608C211.382 385.672 212.15 386.12 212.918 386.12C213.494 386.12 214.134 385.856 214.494 385.224L214.494 386L215.494 386ZM219.317 381.264C218.533 381.264 218.053 381.76 217.757 382.296L217.757 381.392L216.757 381.392L216.757 387.6L217.757 387.6L217.757 385.128C218.141 385.784 218.637 386.12 219.221 386.12C220.293 386.12 221.341 385.304 221.341 383.624C221.341 382.016 220.253 381.264 219.317 381.264ZM219.045 382.128C219.677 382.128 220.333 382.632 220.333 383.68C220.333 384.744 219.677 385.248 219.037 385.248C218.365 385.248 217.757 384.704 217.757 383.68C217.757 382.608 218.365 382.128 219.045 382.128ZM226.695 379.8L225.695 379.8L225.695 382.296C225.367 381.568 224.871 381.264 224.247 381.264C223.175 381.264 222.111 382.04 222.111 383.648C222.111 385.336 223.183 386.12 224.119 386.12C224.959 386.12 225.463 385.68 225.695 385.128L225.695 386L226.695 386L226.695 379.8ZM224.415 382.128C225.087 382.128 225.695 382.664 225.695 383.704C225.695 384.776 225.087 385.248 224.407 385.248C223.775 385.248 223.119 384.752 223.119 383.704C223.119 382.64 223.783 382.128 224.415 382.128ZM229.744 386.12C230.568 386.12 231.072 385.616 231.304 385.048L231.304 386L232.304 386L232.304 381.392L231.304 381.392L231.304 382.296C230.976 381.568 230.472 381.264 229.752 381.264C228.784 381.264 227.72 382.04 227.72 383.648C227.72 385.336 228.792 386.12 229.744 386.12ZM230.024 382.128C230.696 382.128 231.304 382.64 231.304 383.704C231.304 384.8 230.696 385.248 230.016 385.248C229.384 385.248 228.728 384.776 228.728 383.704C228.728 382.616 229.392 382.128 230.024 382.128ZM233.937 380.28L233.937 381.392L233.081 381.392L233.081 382.2L233.937 382.2L233.937 384.704C233.937 385.552 234.361 386.08 235.281 386.08C235.561 386.08 235.889 386.008 236.129 385.936L235.969 385.128C235.785 385.176 235.673 385.2 235.489 385.2C235.081 385.2 234.937 385.016 234.937 384.656L234.937 382.2L236.089 382.2L236.089 381.392L234.937 381.392L234.937 380.12L233.937 380.28ZM239.094 382.128C239.742 382.128 240.254 382.432 240.334 383.2L237.83 383.2C237.966 382.488 238.43 382.128 239.094 382.128ZM241.278 383.912L241.278 383.584C241.278 382.224 240.382 381.264 239.134 381.264C237.798 381.264 236.782 382.2 236.782 383.68C236.782 385.2 237.838 386.12 239.198 386.12C240.046 386.12 241.07 385.632 241.246 384.568L240.318 384.408C240.214 384.936 239.91 385.256 239.158 385.256C238.326 385.256 237.87 384.72 237.798 383.912L241.278 383.912ZM242.617 380.28L242.617 381.392L241.761 381.392L241.761 382.2L242.617 382.2L242.617 384.704C242.617 385.552 243.041 386.08 243.961 386.08C244.241 386.08 244.569 386.008 244.809 385.936L244.649 385.128C244.465 385.176 244.353 385.2 244.169 385.2C243.761 385.2 243.617 385.016 243.617 384.656L243.617 382.2L244.769 382.2L244.769 381.392L243.617 381.392L243.617 380.12L242.617 380.28ZM193.64 394.392L193.64 399L194.64 399L194.64 394.392L193.64 394.392ZM194.136 392.4C193.8 392.4 193.536 392.672 193.536 393C193.536 393.328 193.8 393.6 194.136 393.6C194.472 393.6 194.736 393.328 194.736 393C194.736 392.672 194.472 392.4 194.136 392.4ZM198.057 395.168C198.601 395.168 199.033 395.488 199.033 396.344L199.033 399L200.033 399L200.033 395.912C200.033 394.672 199.249 394.264 198.425 394.264C197.881 394.264 197.249 394.488 196.921 395.072L196.921 394.392L195.921 394.392L195.921 399L196.921 399L196.921 396.368C196.921 395.544 197.393 395.168 198.057 395.168ZM201.537 399L202.537 399L202.537 395.2L203.681 395.2L203.681 394.392L202.537 394.392L202.537 394.208C202.537 393.736 202.761 393.488 203.169 393.488C203.385 393.488 203.569 393.52 203.761 393.576L203.897 392.8C203.673 392.72 203.401 392.648 203.065 392.648C202.145 392.648 201.537 393.24 201.537 394.216L201.537 394.392L200.905 394.392L200.905 395.2L201.537 395.2L201.537 399ZM206.382 394.264C205.134 394.264 204.102 395.176 204.102 396.688C204.102 398.2 205.134 399.12 206.382 399.12C207.63 399.12 208.662 398.2 208.662 396.688C208.662 395.176 207.63 394.264 206.382 394.264ZM206.382 395.128C207.07 395.128 207.654 395.632 207.654 396.688C207.654 397.744 207.07 398.256 206.382 398.256C205.694 398.256 205.11 397.744 205.11 396.688C205.11 395.632 205.694 395.128 206.382 395.128ZM211.864 395.344C212.112 395.344 212.288 395.376 212.464 395.448L212.56 394.328C212.464 394.28 212.328 394.264 212.208 394.264C211.752 394.264 211.032 394.528 210.656 395.496L210.656 394.392L209.656 394.392L209.656 399L210.656 399L210.656 396.984C210.656 395.704 211.216 395.344 211.864 395.344ZM218.408 395.168C218.976 395.168 219.408 395.488 219.408 396.344L219.408 399L220.408 399L220.408 395.912C220.408 394.672 219.648 394.264 218.808 394.264C218.296 394.264 217.648 394.472 217.304 395.16C217.056 394.504 216.472 394.264 215.856 394.264C215.304 394.264 214.64 394.48 214.312 395.072L214.312 394.392L213.312 394.392L213.312 399L214.312 399L214.312 396.368C214.312 395.544 214.784 395.168 215.424 395.168C215.992 395.168 216.424 395.488 216.424 396.344L216.424 399L217.424 399L217.424 396.368C217.424 395.544 217.84 395.168 218.408 395.168ZM223.416 399.12C224.24 399.12 224.744 398.616 224.976 398.048L224.976 399L225.976 399L225.976 394.392L224.976 394.392L224.976 395.296C224.648 394.568 224.144 394.264 223.424 394.264C222.456 394.264 221.392 395.04 221.392 396.648C221.392 398.336 222.464 399.12 223.416 399.12ZM223.696 395.128C224.368 395.128 224.976 395.64 224.976 396.704C224.976 397.8 224.368 398.248 223.688 398.248C223.056 398.248 222.4 397.776 222.4 396.704C222.4 395.616 223.064 395.128 223.696 395.128ZM227.609 393.28L227.609 394.392L226.753 394.392L226.753 395.2L227.609 395.2L227.609 397.704C227.609 398.552 228.033 399.08 228.953 399.08C229.233 399.08 229.561 399.008 229.801 398.936L229.641 398.128C229.457 398.176 229.345 398.2 229.161 398.2C228.753 398.2 228.609 398.016 228.609 397.656L228.609 395.2L229.761 395.2L229.761 394.392L228.609 394.392L228.609 393.12L227.609 393.28ZM230.742 394.392L230.742 399L231.742 399L231.742 394.392L230.742 394.392ZM231.238 392.4C230.902 392.4 230.638 392.672 230.638 393C230.638 393.328 230.902 393.6 231.238 393.6C231.574 393.6 231.838 393.328 231.838 393C231.838 392.672 231.574 392.4 231.238 392.4ZM235.015 394.264C233.767 394.264 232.735 395.176 232.735 396.688C232.735 398.2 233.767 399.12 235.015 399.12C236.263 399.12 237.295 398.2 237.295 396.688C237.295 395.176 236.263 394.264 235.015 394.264ZM235.015 395.128C235.703 395.128 236.287 395.632 236.287 396.688C236.287 397.744 235.703 398.256 235.015 398.256C234.327 398.256 233.743 397.744 233.743 396.688C233.743 395.632 234.327 395.128 235.015 395.128ZM240.424 395.168C240.968 395.168 241.4 395.488 241.4 396.344L241.4 399L242.4 399L242.4 395.912C242.4 394.672 241.616 394.264 240.792 394.264C240.248 394.264 239.616 394.488 239.288 395.072L239.288 394.392L238.288 394.392L238.288 399L239.288 399L239.288 396.368C239.288 395.544 239.76 395.168 240.424 395.168Z" fill="#49367E"/>
<g clip-path="url(#clip0)">
<path d="M162.343 389.027C162.343 403.534 150.583 415.294 136.076 415.294C121.569 415.294 109.809 403.534 109.809 389.027C109.809 374.52 121.569 362.76 136.076 362.76C150.583 362.76 162.343 374.52 162.343 389.027Z" fill="#EEEDF3"/>
<path d="M151.852 404.647L130.342 398.702C129.618 398.502 129.194 397.753 129.394 397.03L138.015 365.837C138.215 365.113 138.964 364.688 139.688 364.888L161.197 370.833C161.921 371.033 162.345 371.782 162.146 372.506L153.525 403.699C153.325 404.422 152.576 404.847 151.852 404.647Z" fill="#C8C5D6"/>
<path d="M152.03 403.994L130.031 400.244C129.291 400.118 128.793 399.416 128.919 398.676L134.357 366.774C134.483 366.034 135.185 365.536 135.925 365.662L157.924 369.411C158.665 369.538 159.162 370.24 159.036 370.98L153.599 402.882C153.473 403.623 152.77 404.12 152.03 403.994Z" fill="white"/>
<path d="M145.171 377.242C141.867 376.793 138.844 378.524 137.984 381.203C137.834 381.67 138.182 382.123 138.669 382.189L150.117 383.745C150.604 383.811 151.06 383.468 151.04 382.978C150.926 380.166 148.475 377.691 145.171 377.242Z" fill="#59CBE8"/>
<path d="M148.851 373.258C148.653 374.717 147.31 375.739 145.85 375.541C144.391 375.343 143.369 373.999 143.567 372.54C143.766 371.081 145.109 370.059 146.568 370.257C148.027 370.455 149.05 371.799 148.851 373.258Z" fill="#59CBE8"/>
<path d="M135.219 386.404L150.257 388.617" stroke="#C8C5D6" stroke-width="0.287229" stroke-miterlimit="10" stroke-linecap="round"/>
<path d="M134.691 389.572L149.729 391.785" stroke="#C8C5D6" stroke-width="0.287229" stroke-miterlimit="10" stroke-linecap="round"/>
<path d="M136.987 395.78C136.987 395.78 142.459 392.984 142.139 394.806C141.82 396.628 141.941 397.714 144.77 397.123C147.601 396.531 147.333 397.655 147.333 397.655" stroke="#5E3DC2" stroke-width="0.287229" stroke-miterlimit="10" stroke-linecap="round"/>
</g>
<g clip-path="url(#clip1)">
<path d="M52.657 328.027C52.657 342.534 64.4169 354.293 78.9239 354.293C93.4306 354.293 105.191 342.534 105.191 328.027C105.191 313.52 93.4306 301.76 78.9239 301.76C64.4169 301.76 52.657 313.52 52.657 328.027Z" fill="#EEEDF3"/>
<path d="M62.2865 343.646L83.7964 337.702C84.5204 337.502 84.9446 336.753 84.7446 336.029L76.1239 304.836C75.9239 304.112 75.1751 303.688 74.4511 303.888L52.9415 309.833C52.2179 310.033 51.7933 310.782 51.993 311.505L60.614 342.698C60.814 343.422 61.5632 343.847 62.2865 343.646Z" fill="#C8C5D6"/>
<path d="M62.3277 342.712L84.441 339.707C85.1848 339.606 85.7058 338.921 85.6047 338.177L81.2469 306.11C81.1459 305.366 80.4609 304.845 79.7168 304.946L57.6039 307.95C56.8597 308.052 56.3387 308.737 56.4398 309.481L60.7976 341.548C60.8986 342.292 61.5836 342.813 62.3277 342.712Z" fill="white"/>
<path d="M69.8293 316.242C73.1333 315.793 76.1561 317.523 77.0161 320.202C77.1663 320.67 76.8177 321.122 76.3312 321.188L64.8829 322.744C64.3964 322.81 63.9403 322.467 63.96 321.977C64.0736 319.165 66.5252 316.69 69.8293 316.242Z" fill="#49367E"/>
<path d="M66.1487 312.258C66.3471 313.718 67.6906 314.74 69.1497 314.541C70.6089 314.343 71.631 313 71.4327 311.54C71.2344 310.081 69.8909 309.059 68.4317 309.257C66.9729 309.456 65.9504 310.799 66.1487 312.258Z" fill="#49367E"/>
<path d="M79.7812 325.402L64.7429 327.615" stroke="#C8C5D6" stroke-width="0.287229" stroke-miterlimit="10" stroke-linecap="round"/>
<path d="M80.3088 328.571L65.2705 330.784" stroke="#C8C5D6" stroke-width="0.287229" stroke-miterlimit="10" stroke-linecap="round"/>
<path d="M67.9235 336.558C67.9235 336.558 72.1085 332.06 72.4309 333.881C72.7541 335.702 73.2395 336.681 75.6964 335.158C78.1536 333.634 78.2867 334.781 78.2867 334.781" stroke="#49367E" stroke-width="0.287229" stroke-miterlimit="10" stroke-linecap="round"/>
</g>
<defs>
<filter id="filter0_d" x="53.4733" y="166.636" width="23.968" height="8.048" filterUnits="userSpaceOnUse" color-interpolation-filters="sRGB">
<feFlood flood-opacity="0" result="BackgroundImageFix"/>
<feColorMatrix in="SourceAlpha" type="matrix" values="0 0 0 0 0 0 0 0 0 0 0 0 0 0 0 0 0 0 127 0"/>
<feOffset dy="0.112"/>
<feGaussianBlur stdDeviation="0.112"/>
<feColorMatrix type="matrix" values="0 0 0 0 0.0862745 0 0 0 0 0.0705882 0 0 0 0 0.145098 0 0 0 0.07 0"/>
<feBlend mode="normal" in2="BackgroundImageFix" result="effect1_dropShadow"/>
<feBlend mode="normal" in="SourceGraphic" in2="effect1_dropShadow" result="shape"/>
</filter>
<clipPath id="clip0">
<rect width="80" height="80" fill="white" transform="translate(96 349)"/>
</clipPath>
<clipPath id="clip1">
<rect width="80" height="80" fill="white" transform="matrix(-1 0 0 1 119 288)"/>
</clipPath>
</defs>
</svg>
