<svg width="1049" height="340" viewBox="0 0 1049 340" fill="none" xmlns="http://www.w3.org/2000/svg">
<path fill-rule="evenodd" clip-rule="evenodd" d="M963 87.6667L963 84L965 84L965 87.6667L963 87.6667ZM963 102.333L963 95L965 95L965 102.333L963 102.333ZM963 117L963 109.667L965 109.667L965 117L963 117ZM963 131.667L963 124.333L965 124.333L965 131.667L963 131.667ZM963 146.333L963 139L965 139L965 146.333L963 146.333ZM963 161L963 153.667L965 153.667L965 161L963 161ZM963 172L963 168.333L965 168.333L965 172L963 172Z" fill="#49367E"/>
<path fill-rule="evenodd" clip-rule="evenodd" d="M813.875 86L810 86L810 84L813.875 84L813.875 86ZM829.375 86L821.625 86L821.625 84L829.375 84L829.375 86ZM844.875 86L837.125 86L837.125 84L844.875 84L844.875 86ZM860.375 86L852.625 86L852.625 84L860.375 84L860.375 86ZM875.875 86L868.125 86L868.125 84L875.875 84L875.875 86ZM891.375 86L883.625 86L883.625 84L891.375 84L891.375 86ZM906.875 86L899.125 86L899.125 84L906.875 84L906.875 86ZM922.375 86L914.625 86L914.625 84L922.375 84L922.375 86ZM937.875 86L930.125 86L930.125 84L937.875 84L937.875 86ZM953.375 86L945.625 86L945.625 84L953.375 84L953.375 86ZM965 86L961.125 86L961.125 84L965 84L965 86Z" fill="#49367E"/>
<path fill-rule="evenodd" clip-rule="evenodd" d="M786 85.9999L73 86L73 84L786 83.9999L786 85.9999Z" fill="#FF5B24"/>
<path d="M922.067 301.488L922.051 301.616C921.859 303.136 920.627 304.192 918.739 304.192C916.755 304.192 914.771 303.008 914.771 300.048C914.771 297.232 916.419 295.808 918.627 295.808C920.307 295.808 921.731 296.448 922.003 298.448L924.115 298.128C923.651 294.784 920.755 293.76 918.755 293.76C915.171 293.76 912.515 296.336 912.515 300.048C912.515 303.6 915.123 306.24 918.163 306.24C920.099 306.24 921.475 305.04 922.115 303.76L922.131 303.76L922.499 306L924.275 306L924.275 299.6L918.915 299.6L918.915 301.488L922.067 301.488Z" fill="#49367E"/>
<path d="M930.934 298.256C932.23 298.256 933.254 298.864 933.414 300.4L928.406 300.4C928.678 298.976 929.606 298.256 930.934 298.256ZM935.302 301.824L935.302 301.168C935.302 298.448 933.51 296.528 931.014 296.528C928.342 296.528 926.31 298.4 926.31 301.36C926.31 304.4 928.422 306.24 931.142 306.24C932.838 306.24 934.886 305.264 935.238 303.136L933.382 302.816C933.174 303.872 932.566 304.512 931.062 304.512C929.398 304.512 928.486 303.44 928.342 301.824L935.302 301.824Z" fill="#49367E"/>
<path d="M938.013 294.56L938.013 296.784L936.301 296.784L936.301 298.4L938.013 298.4L938.013 303.408C938.013 305.104 938.861 306.16 940.701 306.16C941.261 306.16 941.917 306.016 942.397 305.872L942.077 304.256C941.709 304.352 941.485 304.4 941.117 304.4C940.301 304.4 940.013 304.032 940.013 303.312L940.013 298.4L942.317 298.4L942.317 296.784L940.013 296.784L940.013 294.24L938.013 294.56Z" fill="#49367E"/>
<path d="M956.83 306L956.83 296.784L954.83 296.784L954.83 302.144C954.83 303.712 953.79 304.432 952.446 304.432C951.214 304.432 950.606 303.888 950.606 302.464L950.606 296.784L948.606 296.784L948.606 303.216C948.606 305.344 950.142 306.24 951.678 306.24C952.83 306.24 954.11 305.712 954.83 304.448L954.83 306L956.83 306Z" fill="#49367E"/>
<path d="M964.509 296.528C962.941 296.528 961.981 297.52 961.389 298.592L961.389 296.784L959.389 296.784L959.389 309.2L961.389 309.2L961.389 304.256C962.157 305.568 963.149 306.24 964.317 306.24C966.461 306.24 968.557 304.608 968.557 301.248C968.557 298.032 966.381 296.528 964.509 296.528ZM963.965 298.256C965.229 298.256 966.541 299.264 966.541 301.36C966.541 303.488 965.229 304.496 963.949 304.496C962.605 304.496 961.389 303.408 961.389 301.36C961.389 299.216 962.605 298.256 963.965 298.256Z" fill="#49367E"/>
<path d="M979.296 293.6L977.296 293.6L977.296 298.592C976.64 297.136 975.648 296.528 974.4 296.528C972.256 296.528 970.128 298.08 970.128 301.296C970.128 304.672 972.272 306.24 974.144 306.24C975.824 306.24 976.832 305.36 977.296 304.256L977.296 306L979.296 306L979.296 293.6ZM974.736 298.256C976.08 298.256 977.296 299.328 977.296 301.408C977.296 303.552 976.08 304.496 974.72 304.496C973.456 304.496 972.144 303.504 972.144 301.408C972.144 299.28 973.472 298.256 974.736 298.256Z" fill="#49367E"/>
<path d="M985.427 306.24C987.075 306.24 988.083 305.232 988.547 304.096L988.547 306L990.547 306L990.547 296.784L988.547 296.784L988.547 298.592C987.891 297.136 986.883 296.528 985.443 296.528C983.507 296.528 981.379 298.08 981.379 301.296C981.379 304.672 983.523 306.24 985.427 306.24ZM985.987 298.256C987.331 298.256 988.547 299.28 988.547 301.408C988.547 303.6 987.331 304.496 985.971 304.496C984.707 304.496 983.395 303.552 983.395 301.408C983.395 299.232 984.723 298.256 985.987 298.256Z" fill="#49367E"/>
<path d="M993.845 294.56L993.845 296.784L992.133 296.784L992.133 298.4L993.845 298.4L993.845 303.408C993.845 305.104 994.693 306.16 996.533 306.16C997.093 306.16 997.749 306.016 998.229 305.872L997.909 304.256C997.541 304.352 997.317 304.4 996.949 304.4C996.133 304.4 995.845 304.032 995.845 303.312L995.845 298.4L998.149 298.4L998.149 296.784L995.845 296.784L995.845 294.24L993.845 294.56Z" fill="#49367E"/>
<path d="M1004.19 298.256C1005.49 298.256 1006.51 298.864 1006.67 300.4L1001.66 300.4C1001.93 298.976 1002.86 298.256 1004.19 298.256ZM1008.56 301.824L1008.56 301.168C1008.56 298.448 1006.77 296.528 1004.27 296.528C1001.6 296.528 999.566 298.4 999.566 301.36C999.566 304.4 1001.68 306.24 1004.4 306.24C1006.09 306.24 1008.14 305.264 1008.49 303.136L1006.64 302.816C1006.43 303.872 1005.82 304.512 1004.32 304.512C1002.65 304.512 1001.74 303.44 1001.6 301.824L1008.56 301.824Z" fill="#49367E"/>
<path d="M1011.27 294.56L1011.27 296.784L1009.56 296.784L1009.56 298.4L1011.27 298.4L1011.27 303.408C1011.27 305.104 1012.12 306.16 1013.96 306.16C1014.52 306.16 1015.17 306.016 1015.65 305.872L1015.33 304.256C1014.96 304.352 1014.74 304.4 1014.37 304.4C1013.56 304.4 1013.27 304.032 1013.27 303.312L1013.27 298.4L1015.57 298.4L1015.57 296.784L1013.27 296.784L1013.27 294.24L1011.27 294.56Z" fill="#49367E"/>
<path d="M915.12 323.784L915.12 333L917.12 333L917.12 323.784L915.12 323.784ZM916.112 319.8C915.44 319.8 914.912 320.344 914.912 321C914.912 321.656 915.44 322.2 916.112 322.2C916.784 322.2 917.312 321.656 917.312 321C917.312 320.344 916.784 319.8 916.112 319.8Z" fill="#49367E"/>
<path d="M923.987 325.336C925.075 325.336 925.939 325.976 925.939 327.688L925.939 333L927.939 333L927.939 326.824C927.939 324.344 926.371 323.528 924.723 323.528C923.635 323.528 922.371 323.976 921.715 325.144L921.715 323.784L919.715 323.784L919.715 333L921.715 333L921.715 327.736C921.715 326.088 922.659 325.336 923.987 325.336Z" fill="#49367E"/>
<path d="M930.978 333L932.978 333L932.978 325.4L935.266 325.4L935.266 323.784L932.978 323.784L932.978 323.416C932.978 322.472 933.426 321.976 934.242 321.976C934.674 321.976 935.042 322.04 935.426 322.152L935.698 320.6C935.25 320.44 934.706 320.296 934.034 320.296C932.194 320.296 930.978 321.48 930.978 323.432L930.978 323.784L929.714 323.784L929.714 325.4L930.978 325.4L930.978 333Z" fill="#49367E"/>
<path d="M940.7 323.528C938.204 323.528 936.14 325.352 936.14 328.376C936.14 331.4 938.204 333.24 940.7 333.24C943.196 333.24 945.26 331.4 945.26 328.376C945.26 325.352 943.196 323.528 940.7 323.528ZM940.7 325.256C942.076 325.256 943.244 326.264 943.244 328.376C943.244 330.488 942.076 331.512 940.7 331.512C939.324 331.512 938.156 330.488 938.156 328.376C938.156 326.264 939.324 325.256 940.7 325.256Z" fill="#49367E"/>
<path d="M951.695 325.688C952.191 325.688 952.543 325.752 952.895 325.896L953.087 323.656C952.895 323.56 952.623 323.528 952.383 323.528C951.471 323.528 950.031 324.056 949.279 325.992L949.279 323.784L947.279 323.784L947.279 333L949.279 333L949.279 328.968C949.279 326.408 950.399 325.688 951.695 325.688Z" fill="#49367E"/>
<path d="M964.816 325.336C965.952 325.336 966.816 325.976 966.816 327.688L966.816 333L968.816 333L968.816 326.824C968.816 324.344 967.296 323.528 965.616 323.528C964.592 323.528 963.296 323.944 962.608 325.32C962.112 324.008 960.944 323.528 959.712 323.528C958.608 323.528 957.28 323.96 956.624 325.144L956.624 323.784L954.624 323.784L954.624 333L956.624 333L956.624 327.736C956.624 326.088 957.568 325.336 958.848 325.336C959.984 325.336 960.848 325.976 960.848 327.688L960.848 333L962.848 333L962.848 327.736C962.848 326.088 963.68 325.336 964.816 325.336Z" fill="#49367E"/>
<path d="M974.864 333.24C976.512 333.24 977.52 332.232 977.984 331.096L977.984 333L979.984 333L979.984 323.784L977.984 323.784L977.984 325.592C977.328 324.136 976.32 323.528 974.88 323.528C972.944 323.528 970.816 325.08 970.816 328.296C970.816 331.672 972.96 333.24 974.864 333.24ZM975.424 325.256C976.768 325.256 977.984 326.28 977.984 328.408C977.984 330.6 976.768 331.496 975.408 331.496C974.144 331.496 972.832 330.552 972.832 328.408C972.832 326.232 974.16 325.256 975.424 325.256Z" fill="#49367E"/>
<path d="M983.282 321.56L983.282 323.784L981.57 323.784L981.57 325.4L983.282 325.4L983.282 330.408C983.282 332.104 984.13 333.16 985.97 333.16C986.53 333.16 987.186 333.016 987.666 332.872L987.346 331.256C986.978 331.352 986.754 331.4 986.386 331.4C985.57 331.4 985.282 331.032 985.282 330.312L985.282 325.4L987.586 325.4L987.586 323.784L985.282 323.784L985.282 321.24L983.282 321.56Z" fill="#49367E"/>
<path d="M989.579 323.784L989.579 333L991.579 333L991.579 323.784L989.579 323.784ZM990.571 319.8C989.899 319.8 989.371 320.344 989.371 321C989.371 321.656 989.899 322.2 990.571 322.2C991.243 322.2 991.771 321.656 991.771 321C991.771 320.344 991.243 319.8 990.571 319.8Z" fill="#49367E"/>
<path d="M998.158 323.528C995.662 323.528 993.598 325.352 993.598 328.376C993.598 331.4 995.662 333.24 998.158 333.24C1000.65 333.24 1002.72 331.4 1002.72 328.376C1002.72 325.352 1000.65 323.528 998.158 323.528ZM998.158 325.256C999.534 325.256 1000.7 326.264 1000.7 328.376C1000.7 330.488 999.534 331.512 998.158 331.512C996.782 331.512 995.614 330.488 995.614 328.376C995.614 326.264 996.782 325.256 998.158 325.256Z" fill="#49367E"/>
<path d="M1009.01 325.336C1010.1 325.336 1010.96 325.976 1010.96 327.688L1010.96 333L1012.96 333L1012.96 326.824C1012.96 324.344 1011.39 323.528 1009.74 323.528C1008.66 323.528 1007.39 323.976 1006.74 325.144L1006.74 323.784L1004.74 323.784L1004.74 333L1006.74 333L1006.74 327.736C1006.74 326.088 1007.68 325.336 1009.01 325.336Z" fill="#49367E"/>
<path d="M725.43 178.488L725.414 178.616C725.222 180.136 723.99 181.192 722.102 181.192C720.118 181.192 718.134 180.008 718.134 177.048C718.134 174.232 719.782 172.808 721.99 172.808C723.67 172.808 725.094 173.448 725.366 175.448L727.478 175.128C727.014 171.784 724.118 170.76 722.118 170.76C718.534 170.76 715.878 173.336 715.878 177.048C715.878 180.6 718.486 183.24 721.526 183.24C723.462 183.24 724.838 182.04 725.478 180.76L725.494 180.76L725.862 183L727.638 183L727.638 176.6L722.278 176.6L722.278 178.488L725.43 178.488Z" fill="#FF5B24"/>
<path d="M734.266 175.256C735.562 175.256 736.586 175.864 736.746 177.4L731.738 177.4C732.01 175.976 732.938 175.256 734.266 175.256ZM738.634 178.824L738.634 178.168C738.634 175.448 736.842 173.528 734.346 173.528C731.674 173.528 729.642 175.4 729.642 178.36C729.642 181.4 731.754 183.24 734.474 183.24C736.17 183.24 738.218 182.264 738.57 180.136L736.714 179.816C736.506 180.872 735.898 181.512 734.394 181.512C732.73 181.512 731.818 180.44 731.674 178.824L738.634 178.824Z" fill="#FF5B24"/>
<path d="M741.312 171.56L741.312 173.784L739.6 173.784L739.6 175.4L741.312 175.4L741.312 180.408C741.312 182.104 742.16 183.16 744 183.16C744.56 183.16 745.216 183.016 745.696 182.872L745.376 181.256C745.008 181.352 744.784 181.4 744.416 181.4C743.6 181.4 743.312 181.032 743.312 180.312L743.312 175.4L745.616 175.4L745.616 173.784L743.312 173.784L743.312 171.24L741.312 171.56Z" fill="#FF5B24"/>
<path d="M751.889 173.784L751.889 183L753.889 183L753.889 173.784L751.889 173.784ZM752.881 169.8C752.209 169.8 751.681 170.344 751.681 171C751.681 171.656 752.209 172.2 752.881 172.2C753.553 172.2 754.081 171.656 754.081 171C754.081 170.344 753.553 169.8 752.881 169.8Z" fill="#FF5B24"/>
<path d="M760.724 175.336C761.812 175.336 762.676 175.976 762.676 177.688L762.676 183L764.676 183L764.676 176.824C764.676 174.344 763.108 173.528 761.46 173.528C760.372 173.528 759.108 173.976 758.452 175.144L758.452 173.784L756.452 173.784L756.452 183L758.452 183L758.452 177.736C758.452 176.088 759.396 175.336 760.724 175.336Z" fill="#FF5B24"/>
<path d="M767.683 183L769.683 183L769.683 175.4L771.971 175.4L771.971 173.784L769.683 173.784L769.683 173.416C769.683 172.472 770.131 171.976 770.947 171.976C771.379 171.976 771.747 172.04 772.131 172.152L772.403 170.6C771.955 170.44 771.411 170.296 770.739 170.296C768.899 170.296 767.683 171.48 767.683 173.432L767.683 173.784L766.419 173.784L766.419 175.4L767.683 175.4L767.683 183Z" fill="#FF5B24"/>
<path d="M777.373 173.528C774.877 173.528 772.813 175.352 772.813 178.376C772.813 181.4 774.877 183.24 777.373 183.24C779.869 183.24 781.933 181.4 781.933 178.376C781.933 175.352 779.869 173.528 777.373 173.528ZM777.373 175.256C778.749 175.256 779.917 176.264 779.917 178.376C779.917 180.488 778.749 181.512 777.373 181.512C775.997 181.512 774.829 180.488 774.829 178.376C774.829 176.264 775.997 175.256 777.373 175.256Z" fill="#FF5B24"/>
<path d="M788.337 175.688C788.833 175.688 789.185 175.752 789.537 175.896L789.729 173.656C789.537 173.56 789.265 173.528 789.025 173.528C788.113 173.528 786.673 174.056 785.921 175.992L785.921 173.784L783.921 173.784L783.921 183L785.921 183L785.921 178.968C785.921 176.408 787.041 175.688 788.337 175.688Z" fill="#FF5B24"/>
<path d="M801.425 175.336C802.561 175.336 803.425 175.976 803.425 177.688L803.425 183L805.425 183L805.425 176.824C805.425 174.344 803.905 173.528 802.225 173.528C801.201 173.528 799.905 173.944 799.217 175.32C798.721 174.008 797.553 173.528 796.321 173.528C795.217 173.528 793.889 173.96 793.233 175.144L793.233 173.784L791.233 173.784L791.233 183L793.233 183L793.233 177.736C793.233 176.088 794.177 175.336 795.457 175.336C796.593 175.336 797.457 175.976 797.457 177.688L797.457 183L799.457 183L799.457 177.736C799.457 176.088 800.289 175.336 801.425 175.336Z" fill="#FF5B24"/>
<path d="M811.441 183.24C813.089 183.24 814.097 182.232 814.561 181.096L814.561 183L816.561 183L816.561 173.784L814.561 173.784L814.561 175.592C813.905 174.136 812.897 173.528 811.457 173.528C809.521 173.528 807.393 175.08 807.393 178.296C807.393 181.672 809.537 183.24 811.441 183.24ZM812.001 175.256C813.345 175.256 814.561 176.28 814.561 178.408C814.561 180.6 813.345 181.496 811.985 181.496C810.721 181.496 809.409 180.552 809.409 178.408C809.409 176.232 810.737 175.256 812.001 175.256Z" fill="#FF5B24"/>
<path d="M819.828 171.56L819.828 173.784L818.116 173.784L818.116 175.4L819.828 175.4L819.828 180.408C819.828 182.104 820.676 183.16 822.516 183.16C823.076 183.16 823.732 183.016 824.212 182.872L823.892 181.256C823.524 181.352 823.3 181.4 822.932 181.4C822.116 181.4 821.828 181.032 821.828 180.312L821.828 175.4L824.132 175.4L824.132 173.784L821.828 173.784L821.828 171.24L819.828 171.56Z" fill="#FF5B24"/>
<path d="M826.093 173.784L826.093 183L828.093 183L828.093 173.784L826.093 173.784ZM827.085 169.8C826.413 169.8 825.885 170.344 825.885 171C825.885 171.656 826.413 172.2 827.085 172.2C827.757 172.2 828.285 171.656 828.285 171C828.285 170.344 827.757 169.8 827.085 169.8Z" fill="#FF5B24"/>
<path d="M834.639 173.528C832.143 173.528 830.079 175.352 830.079 178.376C830.079 181.4 832.143 183.24 834.639 183.24C837.135 183.24 839.199 181.4 839.199 178.376C839.199 175.352 837.135 173.528 834.639 173.528ZM834.639 175.256C836.015 175.256 837.183 176.264 837.183 178.376C837.183 180.488 836.015 181.512 834.639 181.512C833.263 181.512 832.095 180.488 832.095 178.376C832.095 176.264 833.263 175.256 834.639 175.256Z" fill="#FF5B24"/>
<path d="M845.458 175.336C846.546 175.336 847.41 175.976 847.41 177.688L847.41 183L849.41 183L849.41 176.824C849.41 174.344 847.842 173.528 846.194 173.528C845.106 173.528 843.842 173.976 843.186 175.144L843.186 173.784L841.186 173.784L841.186 183L843.186 183L843.186 177.736C843.186 176.088 844.13 175.336 845.458 175.336Z" fill="#FF5B24"/>
<path d="M743.597 210.24C745.245 210.24 746.253 209.232 746.717 208.096L746.717 210L748.717 210L748.717 200.784L746.717 200.784L746.717 202.592C746.061 201.136 745.053 200.528 743.613 200.528C741.677 200.528 739.549 202.08 739.549 205.296C739.549 208.672 741.693 210.24 743.597 210.24ZM744.157 202.256C745.501 202.256 746.717 203.28 746.717 205.408C746.717 207.6 745.501 208.496 744.141 208.496C742.877 208.496 741.565 207.552 741.565 205.408C741.565 203.232 742.893 202.256 744.157 202.256Z" fill="#FF5B24"/>
<path d="M751.28 197.6L751.28 210L753.28 210L753.28 208.48C753.936 209.552 754.96 210.24 756.208 210.24C758.352 210.24 760.448 208.608 760.448 205.248C760.448 202.032 758.272 200.528 756.4 200.528C754.768 200.528 753.792 201.536 753.28 202.384L753.28 197.6L751.28 197.6ZM755.856 202.256C757.12 202.256 758.432 203.264 758.432 205.36C758.432 207.488 757.104 208.496 755.84 208.496C754.496 208.496 753.28 207.408 753.28 205.36C753.28 203.216 754.496 202.256 755.856 202.256Z" fill="#FF5B24"/>
<path d="M766.483 200.528C763.987 200.528 761.923 202.352 761.923 205.376C761.923 208.4 763.987 210.24 766.483 210.24C768.979 210.24 771.043 208.4 771.043 205.376C771.043 202.352 768.979 200.528 766.483 200.528ZM766.483 202.256C767.859 202.256 769.027 203.264 769.027 205.376C769.027 207.488 767.859 208.512 766.483 208.512C765.107 208.512 763.939 207.488 763.939 205.376C763.939 203.264 765.107 202.256 766.483 202.256Z" fill="#FF5B24"/>
<path d="M781.206 210L781.206 200.784L779.206 200.784L779.206 206.144C779.206 207.712 778.166 208.432 776.822 208.432C775.59 208.432 774.982 207.888 774.982 206.464L774.982 200.784L772.982 200.784L772.982 207.216C772.982 209.344 774.518 210.24 776.054 210.24C777.206 210.24 778.486 209.712 779.206 208.448L779.206 210L781.206 210Z" fill="#FF5B24"/>
<path d="M784.437 198.56L784.437 200.784L782.725 200.784L782.725 202.4L784.437 202.4L784.437 207.408C784.437 209.104 785.285 210.16 787.125 210.16C787.685 210.16 788.341 210.016 788.821 209.872L788.501 208.256C788.133 208.352 787.909 208.4 787.541 208.4C786.725 208.4 786.437 208.032 786.437 207.312L786.437 202.4L788.741 202.4L788.741 200.784L786.437 200.784L786.437 198.24L784.437 198.56Z" fill="#FF5B24"/>
<path d="M803.19 210L803.19 200.784L801.19 200.784L801.19 206.144C801.19 207.712 800.15 208.432 798.806 208.432C797.574 208.432 796.966 207.888 796.966 206.464L796.966 200.784L794.966 200.784L794.966 207.216C794.966 209.344 796.502 210.24 798.038 210.24C799.19 210.24 800.47 209.712 801.19 208.448L801.19 210L803.19 210Z" fill="#FF5B24"/>
<path d="M805.526 203.376C805.526 204.656 806.262 205.6 807.83 205.936L809.51 206.304C810.662 206.56 810.982 206.896 810.982 207.44C810.982 208.208 810.23 208.64 809.126 208.64C807.83 208.64 806.982 208.032 806.854 206.896L805.078 207.216C805.382 209.36 807.382 210.24 809.174 210.24C810.95 210.24 812.838 209.248 812.838 207.248C812.838 205.968 812.086 205.104 810.454 204.752L808.63 204.352C807.702 204.144 807.382 203.696 807.382 203.216C807.382 202.544 808.022 202.128 808.934 202.128C810.038 202.128 810.854 202.528 810.918 203.728L812.694 203.408C812.166 201.344 810.774 200.528 808.918 200.528C807.414 200.528 805.526 201.36 805.526 203.376Z" fill="#FF5B24"/>
<path d="M818.844 202.256C820.14 202.256 821.164 202.864 821.324 204.4L816.316 204.4C816.588 202.976 817.516 202.256 818.844 202.256ZM823.212 205.824L823.212 205.168C823.212 202.448 821.42 200.528 818.924 200.528C816.252 200.528 814.22 202.4 814.22 205.36C814.22 208.4 816.332 210.24 819.052 210.24C820.748 210.24 822.796 209.264 823.148 207.136L821.292 206.816C821.084 207.872 820.476 208.512 818.972 208.512C817.308 208.512 816.396 207.44 816.252 205.824L823.212 205.824Z" fill="#FF5B24"/>
<path d="M829.602 202.688C830.098 202.688 830.45 202.752 830.802 202.896L830.994 200.656C830.802 200.56 830.53 200.528 830.29 200.528C829.378 200.528 827.938 201.056 827.186 202.992L827.186 200.784L825.186 200.784L825.186 210L827.186 210L827.186 205.968C827.186 203.408 828.306 202.688 829.602 202.688Z" fill="#FF5B24"/>
<path d="M556.834 173L556.834 180.696C556.834 182.6 555.73 183.192 554.21 183.192C552.69 183.192 551.586 182.6 551.586 180.696L551.586 173L549.49 173L549.49 180.792C549.49 183.832 551.618 185.24 554.21 185.24C556.802 185.24 558.93 183.832 558.93 180.792L558.93 173L556.834 173Z" fill="#FF5B24"/>
<path d="M561.237 178.376C561.237 179.656 561.973 180.6 563.541 180.936L565.221 181.304C566.373 181.56 566.693 181.896 566.693 182.44C566.693 183.208 565.941 183.64 564.837 183.64C563.541 183.64 562.693 183.032 562.565 181.896L560.789 182.216C561.093 184.36 563.093 185.24 564.885 185.24C566.661 185.24 568.549 184.248 568.549 182.248C568.549 180.968 567.797 180.104 566.165 179.752L564.341 179.352C563.413 179.144 563.093 178.696 563.093 178.216C563.093 177.544 563.733 177.128 564.645 177.128C565.749 177.128 566.565 177.528 566.629 178.728L568.405 178.408C567.877 176.344 566.485 175.528 564.629 175.528C563.125 175.528 561.237 176.36 561.237 178.376Z" fill="#FF5B24"/>
<path d="M574.555 177.256C575.851 177.256 576.875 177.864 577.035 179.4L572.027 179.4C572.299 177.976 573.227 177.256 574.555 177.256ZM578.923 180.824L578.923 180.168C578.923 177.448 577.131 175.528 574.635 175.528C571.963 175.528 569.931 177.4 569.931 180.36C569.931 183.4 572.043 185.24 574.763 185.24C576.459 185.24 578.507 184.264 578.859 182.136L577.003 181.816C576.795 182.872 576.187 183.512 574.683 183.512C573.019 183.512 572.107 182.44 571.963 180.824L578.923 180.824Z" fill="#FF5B24"/>
<path d="M585.313 177.688C585.809 177.688 586.161 177.752 586.513 177.896L586.705 175.656C586.513 175.56 586.241 175.528 586.001 175.528C585.089 175.528 583.649 176.056 582.897 177.992L582.897 175.784L580.897 175.784L580.897 185L582.897 185L582.897 180.968C582.897 178.408 584.017 177.688 585.313 177.688Z" fill="#FF5B24"/>
<path d="M601.034 179.368C600.698 176.888 598.73 175.528 596.586 175.528C593.946 175.528 591.946 177.4 591.946 180.376C591.946 183.224 593.914 185.24 596.73 185.24C598.506 185.24 600.586 184.264 601.018 181.448L599.194 181.128C598.986 182.696 598.122 183.496 596.714 183.496C594.842 183.496 593.962 182.072 593.962 180.376C593.962 178.328 595.082 177.256 596.49 177.256C597.77 177.256 598.842 177.944 599.066 179.688L601.034 179.368Z" fill="#FF5B24"/>
<path d="M606.897 175.528C604.401 175.528 602.337 177.352 602.337 180.376C602.337 183.4 604.401 185.24 606.897 185.24C609.393 185.24 611.457 183.4 611.457 180.376C611.457 177.352 609.393 175.528 606.897 175.528ZM606.897 177.256C608.273 177.256 609.441 178.264 609.441 180.376C609.441 182.488 608.273 183.512 606.897 183.512C605.521 183.512 604.353 182.488 604.353 180.376C604.353 178.264 605.521 177.256 606.897 177.256Z" fill="#FF5B24"/>
<path d="M617.716 177.336C618.804 177.336 619.668 177.976 619.668 179.688L619.668 185L621.668 185L621.668 178.824C621.668 176.344 620.1 175.528 618.452 175.528C617.364 175.528 616.1 175.976 615.444 177.144L615.444 175.784L613.444 175.784L613.444 185L615.444 185L615.444 179.736C615.444 178.088 616.388 177.336 617.716 177.336Z" fill="#FF5B24"/>
<path d="M624.675 185L626.675 185L626.675 177.4L628.963 177.4L628.963 175.784L626.675 175.784L626.675 175.416C626.675 174.536 626.931 174.072 627.779 174.072C628.003 174.072 628.195 174.088 628.387 174.12L628.531 172.424C628.275 172.344 627.939 172.296 627.555 172.296C625.827 172.296 624.675 173.384 624.675 175.432L624.675 175.784L623.411 175.784L623.411 177.4L624.675 177.4L624.675 185Z" fill="#FF5B24"/>
<path d="M630.382 175.784L630.382 185L632.382 185L632.382 175.784L630.382 175.784ZM631.374 171.8C630.702 171.8 630.174 172.344 630.174 173C630.174 173.656 630.702 174.2 631.374 174.2C632.046 174.2 632.574 173.656 632.574 173C632.574 172.344 632.046 171.8 631.374 171.8Z" fill="#FF5B24"/>
<path d="M639.36 177.688C639.856 177.688 640.208 177.752 640.56 177.896L640.752 175.656C640.56 175.56 640.288 175.528 640.048 175.528C639.136 175.528 637.696 176.056 636.944 177.992L636.944 175.784L634.944 175.784L634.944 185L636.944 185L636.944 180.968C636.944 178.408 638.064 177.688 639.36 177.688Z" fill="#FF5B24"/>
<path d="M652.449 177.336C653.585 177.336 654.449 177.976 654.449 179.688L654.449 185L656.449 185L656.449 178.824C656.449 176.344 654.929 175.528 653.249 175.528C652.225 175.528 650.929 175.944 650.241 177.32C649.745 176.008 648.577 175.528 647.345 175.528C646.241 175.528 644.913 175.96 644.257 177.144L644.257 175.784L642.257 175.784L642.257 185L644.257 185L644.257 179.736C644.257 178.088 645.201 177.336 646.481 177.336C647.617 177.336 648.481 177.976 648.481 179.688L648.481 185L650.481 185L650.481 179.736C650.481 178.088 651.313 177.336 652.449 177.336Z" fill="#FF5B24"/>
<path d="M658.736 178.376C658.736 179.656 659.472 180.6 661.04 180.936L662.72 181.304C663.872 181.56 664.192 181.896 664.192 182.44C664.192 183.208 663.441 183.64 662.337 183.64C661.041 183.64 660.192 183.032 660.064 181.896L658.288 182.216C658.592 184.36 660.592 185.24 662.384 185.24C664.16 185.24 666.048 184.248 666.048 182.248C666.048 180.968 665.296 180.104 663.664 179.752L661.84 179.352C660.912 179.144 660.592 178.696 660.592 178.216C660.592 177.544 661.232 177.128 662.145 177.128C663.249 177.128 664.064 177.528 664.129 178.728L665.904 178.408C665.376 176.344 663.985 175.528 662.129 175.528C660.625 175.528 658.736 176.36 658.736 178.376Z" fill="#FF5B24"/>
<path d="M361.818 171L361.818 178.696C361.818 180.6 360.714 181.192 359.194 181.192C357.674 181.192 356.57 180.6 356.57 178.696L356.57 171L354.474 171L354.474 178.792C354.474 181.832 356.602 183.24 359.194 183.24C361.786 183.24 363.914 181.832 363.914 178.792L363.914 171L361.818 171Z" fill="#FF5B24"/>
<path d="M366.221 176.376C366.221 177.656 366.957 178.6 368.525 178.936L370.205 179.304C371.357 179.56 371.677 179.896 371.677 180.44C371.677 181.208 370.925 181.64 369.821 181.64C368.525 181.64 367.677 181.032 367.549 179.896L365.773 180.216C366.077 182.36 368.077 183.24 369.869 183.24C371.645 183.24 373.533 182.248 373.533 180.248C373.533 178.968 372.781 178.104 371.149 177.752L369.325 177.352C368.397 177.144 368.077 176.696 368.077 176.216C368.077 175.544 368.717 175.128 369.629 175.128C370.733 175.128 371.549 175.528 371.613 176.728L373.389 176.408C372.861 174.344 371.469 173.528 369.613 173.528C368.109 173.528 366.221 174.36 366.221 176.376Z" fill="#FF5B24"/>
<path d="M379.539 175.256C380.835 175.256 381.859 175.864 382.019 177.4L377.011 177.4C377.283 175.976 378.211 175.256 379.539 175.256ZM383.907 178.824L383.907 178.168C383.907 175.448 382.115 173.528 379.619 173.528C376.947 173.528 374.915 175.4 374.915 178.36C374.915 181.4 377.027 183.24 379.747 183.24C381.443 183.24 383.491 182.264 383.843 180.136L381.987 179.816C381.779 180.872 381.171 181.512 379.667 181.512C378.003 181.512 377.091 180.44 376.947 178.824L383.907 178.824Z" fill="#FF5B24"/>
<path d="M390.298 175.688C390.794 175.688 391.146 175.752 391.498 175.896L391.69 173.656C391.498 173.56 391.226 173.528 390.986 173.528C390.074 173.528 388.634 174.056 387.882 175.992L387.882 173.784L385.882 173.784L385.882 183L387.882 183L387.882 178.968C387.882 176.408 389.002 175.688 390.298 175.688Z" fill="#FF5B24"/>
<path d="M406.019 177.368C405.683 174.888 403.715 173.528 401.571 173.528C398.931 173.528 396.931 175.4 396.931 178.376C396.931 181.224 398.899 183.24 401.715 183.24C403.491 183.24 405.571 182.264 406.003 179.448L404.179 179.128C403.971 180.696 403.107 181.496 401.699 181.496C399.827 181.496 398.947 180.072 398.947 178.376C398.947 176.328 400.067 175.256 401.475 175.256C402.755 175.256 403.827 175.944 404.051 177.688L406.019 177.368Z" fill="#FF5B24"/>
<path d="M407.897 170.6L407.897 183L409.897 183L409.897 177.736C409.897 176.088 410.841 175.336 412.185 175.336C413.257 175.336 414.121 175.976 414.121 177.688L414.121 183L416.121 183L416.121 176.824C416.121 174.344 414.601 173.528 412.841 173.528C411.865 173.528 410.553 173.96 409.897 175.144L409.897 170.6L407.897 170.6Z" fill="#FF5B24"/>
<path d="M422.584 173.528C420.088 173.528 418.024 175.352 418.024 178.376C418.024 181.4 420.088 183.24 422.584 183.24C425.08 183.24 427.144 181.4 427.144 178.376C427.144 175.352 425.08 173.528 422.584 173.528ZM422.584 175.256C423.96 175.256 425.128 176.264 425.128 178.376C425.128 180.488 423.96 181.512 422.584 181.512C421.208 181.512 420.04 180.488 420.04 178.376C420.04 176.264 421.208 175.256 422.584 175.256Z" fill="#FF5B24"/>
<path d="M433.116 173.528C430.62 173.528 428.556 175.352 428.556 178.376C428.556 181.4 430.62 183.24 433.116 183.24C435.612 183.24 437.676 181.4 437.676 178.376C437.676 175.352 435.612 173.528 433.116 173.528ZM433.116 175.256C434.492 175.256 435.66 176.264 435.66 178.376C435.66 180.488 434.492 181.512 433.116 181.512C431.74 181.512 430.572 180.488 430.572 178.376C430.572 176.264 431.74 175.256 433.116 175.256Z" fill="#FF5B24"/>
<path d="M439.471 176.376C439.471 177.656 440.207 178.6 441.775 178.936L443.455 179.304C444.607 179.56 444.927 179.896 444.927 180.44C444.927 181.208 444.175 181.64 443.071 181.64C441.775 181.64 440.927 181.032 440.799 179.896L439.023 180.216C439.327 182.36 441.327 183.24 443.119 183.24C444.895 183.24 446.783 182.248 446.783 180.248C446.783 178.968 446.031 178.104 444.399 177.752L442.575 177.352C441.647 177.144 441.327 176.696 441.327 176.216C441.327 175.544 441.967 175.128 442.879 175.128C443.983 175.128 444.799 175.528 444.863 176.728L446.639 176.408C446.111 174.344 444.719 173.528 442.863 173.528C441.359 173.528 439.471 174.36 439.471 176.376Z" fill="#FF5B24"/>
<path d="M452.789 175.256C454.085 175.256 455.109 175.864 455.269 177.4L450.261 177.4C450.533 175.976 451.461 175.256 452.789 175.256ZM457.157 178.824L457.157 178.168C457.157 175.448 455.365 173.528 452.869 173.528C450.197 173.528 448.165 175.4 448.165 178.36C448.165 181.4 450.277 183.24 452.997 183.24C454.693 183.24 456.741 182.264 457.093 180.136L455.237 179.816C455.029 180.872 454.421 181.512 452.917 181.512C451.253 181.512 450.341 180.44 450.197 178.824L457.157 178.824Z" fill="#FF5B24"/>
<path d="M463.444 170.6L463.444 183L465.444 183L465.444 170.6L463.444 170.6Z" fill="#FF5B24"/>
<path d="M471.991 173.528C469.495 173.528 467.431 175.352 467.431 178.376C467.431 181.4 469.495 183.24 471.991 183.24C474.487 183.24 476.551 181.4 476.551 178.376C476.551 175.352 474.487 173.528 471.991 173.528ZM471.991 175.256C473.367 175.256 474.535 176.264 474.535 178.376C474.535 180.488 473.367 181.512 471.991 181.512C470.615 181.512 469.447 180.488 469.447 178.376C469.447 176.264 470.615 175.256 471.991 175.256Z" fill="#FF5B24"/>
<path d="M481.93 182.472C483.546 182.472 484.394 181.416 484.89 180.408L484.89 181.784C484.89 183.736 484.074 184.536 482.298 184.536C481.178 184.536 480.106 184.216 479.93 182.888L477.994 183.208C478.458 185.544 480.554 186.328 482.218 186.328C485.162 186.328 486.89 184.792 486.89 181.704L486.89 173.768L484.89 173.768L484.89 175.56C484.186 174.136 483.306 173.528 482.09 173.528C480.01 173.528 478.042 174.936 478.042 177.864C478.042 181 480.042 182.472 481.93 182.472ZM482.442 175.256C483.786 175.256 484.89 176.232 484.89 177.992C484.89 179.848 483.786 180.728 482.442 180.728C481.146 180.728 480.058 179.848 480.058 177.976C480.058 176.168 481.194 175.256 482.442 175.256Z" fill="#FF5B24"/>
<path d="M489.444 173.784L489.444 183L491.444 183L491.444 173.784L489.444 173.784ZM490.436 169.8C489.764 169.8 489.236 170.344 489.236 171C489.236 171.656 489.764 172.2 490.436 172.2C491.108 172.2 491.636 171.656 491.636 171C491.636 170.344 491.108 169.8 490.436 169.8Z" fill="#FF5B24"/>
<path d="M498.279 175.336C499.367 175.336 500.231 175.976 500.231 177.688L500.231 183L502.231 183L502.231 176.824C502.231 174.344 500.663 173.528 499.015 173.528C497.927 173.528 496.663 173.976 496.007 175.144L496.007 173.784L494.007 173.784L494.007 183L496.007 183L496.007 177.736C496.007 176.088 496.951 175.336 498.279 175.336Z" fill="#FF5B24"/>
<path d="M401.505 200.784L399.281 200.784L397.313 207.504L395.089 200.784L393.601 200.784L391.393 207.472L389.409 200.784L387.185 200.784L390.497 210L392.225 210L394.353 204.176L396.465 210L398.193 210L401.505 200.784Z" fill="#FF5B24"/>
<path d="M403.022 200.784L403.022 210L405.022 210L405.022 200.784L403.022 200.784ZM404.014 196.8C403.342 196.8 402.814 197.344 402.814 198C402.814 198.656 403.342 199.2 404.014 199.2C404.686 199.2 405.214 198.656 405.214 198C405.214 197.344 404.686 196.8 404.014 196.8Z" fill="#FF5B24"/>
<path d="M408.289 198.56L408.289 200.784L406.577 200.784L406.577 202.4L408.289 202.4L408.289 207.408C408.289 209.104 409.137 210.16 410.977 210.16C411.537 210.16 412.193 210.016 412.673 209.872L412.353 208.256C411.985 208.352 411.761 208.4 411.393 208.4C410.577 208.4 410.289 208.032 410.289 207.312L410.289 202.4L412.593 202.4L412.593 200.784L410.289 200.784L410.289 198.24L408.289 198.56Z" fill="#FF5B24"/>
<path d="M414.553 197.6L414.553 210L416.553 210L416.553 204.736C416.553 203.088 417.497 202.336 418.841 202.336C419.913 202.336 420.777 202.976 420.777 204.688L420.777 210L422.777 210L422.777 203.824C422.777 201.344 421.257 200.528 419.497 200.528C418.521 200.528 417.209 200.96 416.553 202.144L416.553 197.6L414.553 197.6Z" fill="#FF5B24"/>
<path d="M437.729 200.784L435.505 200.784L433.137 207.744L430.753 200.784L428.529 200.784L432.209 210L434.049 210L437.729 200.784Z" fill="#FF5B24"/>
<path d="M439.257 200.784L439.257 210L441.257 210L441.257 200.784L439.257 200.784ZM440.249 196.8C439.577 196.8 439.049 197.344 439.049 198C439.049 198.656 439.577 199.2 440.249 199.2C440.921 199.2 441.449 198.656 441.449 198C441.449 197.344 440.921 196.8 440.249 196.8Z" fill="#FF5B24"/>
<path d="M448.939 200.528C447.371 200.528 446.411 201.52 445.819 202.592L445.819 200.784L443.819 200.784L443.819 213.2L445.819 213.2L445.819 208.256C446.587 209.568 447.579 210.24 448.747 210.24C450.891 210.24 452.987 208.608 452.987 205.248C452.987 202.032 450.811 200.528 448.939 200.528ZM448.395 202.256C449.659 202.256 450.971 203.264 450.971 205.36C450.971 207.488 449.659 208.496 448.379 208.496C447.035 208.496 445.819 207.408 445.819 205.36C445.819 203.216 447.035 202.256 448.395 202.256Z" fill="#FF5B24"/>
<path d="M460.158 200.528C458.59 200.528 457.63 201.52 457.038 202.592L457.038 200.784L455.038 200.784L455.038 213.2L457.038 213.2L457.038 208.256C457.806 209.568 458.798 210.24 459.966 210.24C462.11 210.24 464.206 208.608 464.206 205.248C464.206 202.032 462.03 200.528 460.158 200.528ZM459.614 202.256C460.878 202.256 462.19 203.264 462.19 205.36C462.19 207.488 460.878 208.496 459.598 208.496C458.254 208.496 457.038 207.408 457.038 205.36C457.038 203.216 458.254 202.256 459.614 202.256Z" fill="#FF5B24"/>
<path d="M466.065 203.376C466.065 204.656 466.801 205.6 468.369 205.936L470.049 206.304C471.201 206.56 471.521 206.896 471.521 207.44C471.521 208.208 470.769 208.64 469.665 208.64C468.369 208.64 467.521 208.032 467.393 206.896L465.617 207.216C465.921 209.36 467.921 210.24 469.713 210.24C471.489 210.24 473.377 209.248 473.377 207.248C473.377 205.968 472.625 205.104 470.993 204.752L469.169 204.352C468.241 204.144 467.921 203.696 467.921 203.216C467.921 202.544 468.561 202.128 469.473 202.128C470.577 202.128 471.393 202.528 471.457 203.728L473.233 203.408C472.705 201.344 471.313 200.528 469.457 200.528C467.953 200.528 466.065 201.36 466.065 203.376Z" fill="#FF5B24"/>
<path d="M232.092 173.288C231.612 170.344 229.084 168.76 226.572 168.76C223.148 168.76 220.316 171.24 220.316 174.92C220.316 178.856 223.18 181.24 226.62 181.24C228.94 181.24 231.836 179.688 232.188 176.392L230.028 176.072C229.852 178.456 228.22 179.192 226.62 179.192C224.348 179.192 222.572 177.896 222.572 174.92C222.572 172.216 224.348 170.808 226.492 170.808C227.964 170.808 229.58 171.416 229.932 173.608L232.092 173.288Z" fill="#FF5B24"/>
<path d="M234.264 168.6V181H236.264V168.6H234.264Z" fill="#FF5B24"/>
<path d="M238.827 171.784V181H240.827V171.784H238.827ZM239.819 167.8C239.147 167.8 238.619 168.344 238.619 169C238.619 169.656 239.147 170.2 239.819 170.2C240.491 170.2 241.019 169.656 241.019 169C241.019 168.344 240.491 167.8 239.819 167.8Z" fill="#FF5B24"/>
<path d="M247.437 173.256C248.733 173.256 249.757 173.864 249.917 175.4H244.909C245.181 173.976 246.109 173.256 247.437 173.256ZM251.805 176.824V176.168C251.805 173.448 250.013 171.528 247.517 171.528C244.845 171.528 242.813 173.4 242.813 176.36C242.813 179.4 244.925 181.24 247.645 181.24C249.341 181.24 251.389 180.264 251.741 178.136L249.885 177.816C249.677 178.872 249.069 179.512 247.565 179.512C245.901 179.512 244.989 178.44 244.845 176.824H251.805Z" fill="#FF5B24"/>
<path d="M258.052 173.336C259.14 173.336 260.004 173.976 260.004 175.688V181H262.004V174.824C262.004 172.344 260.436 171.528 258.788 171.528C257.7 171.528 256.436 171.976 255.78 173.144V171.784H253.78V181H255.78V175.736C255.78 174.088 256.724 173.336 258.052 173.336Z" fill="#FF5B24"/>
<path d="M265.187 169.56V171.784H263.475V173.4H265.187V178.408C265.187 180.104 266.035 181.16 267.875 181.16C268.435 181.16 269.091 181.016 269.571 180.872L269.251 179.256C268.883 179.352 268.659 179.4 268.291 179.4C267.475 179.4 267.187 179.032 267.187 178.312V173.4H269.491V171.784H267.187V169.24L265.187 169.56Z" fill="#FF5B24"/>
<path d="M199.128 195.368C198.792 192.888 196.824 191.528 194.68 191.528C192.04 191.528 190.04 193.4 190.04 196.376C190.04 199.224 192.008 201.24 194.824 201.24C196.6 201.24 198.68 200.264 199.112 197.448L197.288 197.128C197.08 198.696 196.216 199.496 194.808 199.496C192.936 199.496 192.056 198.072 192.056 196.376C192.056 194.328 193.176 193.256 194.584 193.256C195.864 193.256 196.936 193.944 197.16 195.688L199.128 195.368Z" fill="#FF5B24"/>
<path d="M204.991 191.528C202.495 191.528 200.431 193.352 200.431 196.376C200.431 199.4 202.495 201.24 204.991 201.24C207.487 201.24 209.551 199.4 209.551 196.376C209.551 193.352 207.487 191.528 204.991 191.528ZM204.991 193.256C206.367 193.256 207.535 194.264 207.535 196.376C207.535 198.488 206.367 199.512 204.991 199.512C203.615 199.512 202.447 198.488 202.447 196.376C202.447 194.264 203.615 193.256 204.991 193.256Z" fill="#FF5B24"/>
<path d="M215.81 193.336C216.898 193.336 217.762 193.976 217.762 195.688V201H219.762V194.824C219.762 192.344 218.194 191.528 216.546 191.528C215.458 191.528 214.194 191.976 213.538 193.144V191.784H211.538V201H213.538V195.736C213.538 194.088 214.482 193.336 215.81 193.336Z" fill="#FF5B24"/>
<path d="M222.769 201H224.769V193.4H227.057V191.784H224.769V191.416C224.769 190.536 225.025 190.072 225.873 190.072C226.097 190.072 226.289 190.088 226.481 190.12L226.625 188.424C226.369 188.344 226.033 188.296 225.649 188.296C223.921 188.296 222.769 189.384 222.769 191.432V191.784H221.505V193.4H222.769V201Z" fill="#FF5B24"/>
<path d="M228.475 191.784V201H230.475V191.784H228.475ZM229.467 187.8C228.795 187.8 228.267 188.344 228.267 189C228.267 189.656 228.795 190.2 229.467 190.2C230.139 190.2 230.667 189.656 230.667 189C230.667 188.344 230.139 187.8 229.467 187.8Z" fill="#FF5B24"/>
<path d="M236.43 200.472C238.046 200.472 238.894 199.416 239.39 198.408V199.784C239.39 201.736 238.574 202.536 236.798 202.536C235.678 202.536 234.606 202.216 234.43 200.888L232.494 201.208C232.958 203.544 235.054 204.328 236.718 204.328C239.662 204.328 241.39 202.792 241.39 199.704V191.768H239.39V193.56C238.686 192.136 237.806 191.528 236.59 191.528C234.51 191.528 232.542 192.936 232.542 195.864C232.542 199 234.542 200.472 236.43 200.472ZM236.942 193.256C238.286 193.256 239.39 194.232 239.39 195.992C239.39 197.848 238.286 198.728 236.942 198.728C235.646 198.728 234.558 197.848 234.558 195.976C234.558 194.168 235.694 193.256 236.942 193.256Z" fill="#FF5B24"/>
<path d="M252.12 201V191.784H250.12V197.144C250.12 198.712 249.08 199.432 247.736 199.432C246.504 199.432 245.896 198.888 245.896 197.464V191.784H243.896V198.216C243.896 200.344 245.432 201.24 246.968 201.24C248.12 201.24 249.4 200.712 250.12 199.448V201H252.12Z" fill="#FF5B24"/>
<path d="M259.063 193.688C259.559 193.688 259.911 193.752 260.263 193.896L260.455 191.656C260.263 191.56 259.991 191.528 259.751 191.528C258.839 191.528 257.399 192.056 256.647 193.992V191.784H254.647V201H256.647V196.968C256.647 194.408 257.767 193.688 259.063 193.688Z" fill="#FF5B24"/>
<path d="M265.496 201.24C267.144 201.24 268.152 200.232 268.616 199.096V201H270.616V191.784H268.616V193.592C267.96 192.136 266.952 191.528 265.512 191.528C263.576 191.528 261.448 193.08 261.448 196.296C261.448 199.672 263.592 201.24 265.496 201.24ZM266.056 193.256C267.4 193.256 268.616 194.28 268.616 196.408C268.616 198.6 267.4 199.496 266.04 199.496C264.776 199.496 263.464 198.552 263.464 196.408C263.464 194.232 264.792 193.256 266.056 193.256Z" fill="#FF5B24"/>
<path d="M273.883 189.56V191.784H272.171V193.4H273.883V198.408C273.883 200.104 274.731 201.16 276.571 201.16C277.131 201.16 277.787 201.016 278.267 200.872L277.947 199.256C277.579 199.352 277.355 199.4 276.987 199.4C276.171 199.4 275.883 199.032 275.883 198.312V193.4H278.187V191.784H275.883V189.24L273.883 189.56Z" fill="#FF5B24"/>
<path d="M280.147 191.784V201H282.147V191.784H280.147ZM281.139 187.8C280.467 187.8 279.939 188.344 279.939 189C279.939 189.656 280.467 190.2 281.139 190.2C281.811 190.2 282.339 189.656 282.339 189C282.339 188.344 281.811 187.8 281.139 187.8Z" fill="#FF5B24"/>
<path d="M288.694 191.528C286.198 191.528 284.134 193.352 284.134 196.376C284.134 199.4 286.198 201.24 288.694 201.24C291.19 201.24 293.254 199.4 293.254 196.376C293.254 193.352 291.19 191.528 288.694 191.528ZM288.694 193.256C290.07 193.256 291.238 194.264 291.238 196.376C291.238 198.488 290.07 199.512 288.694 199.512C287.318 199.512 286.15 198.488 286.15 196.376C286.15 194.264 287.318 193.256 288.694 193.256Z" fill="#FF5B24"/>
<path d="M299.513 193.336C300.601 193.336 301.465 193.976 301.465 195.688V201H303.465V194.824C303.465 192.344 301.897 191.528 300.249 191.528C299.161 191.528 297.897 191.976 297.241 193.144V191.784H295.241V201H297.241V195.736C297.241 194.088 298.185 193.336 299.513 193.336Z" fill="#FF5B24"/>
<path d="M10.352 176.488L10.336 176.616C10.144 178.136 8.91205 179.192 7.02405 179.192C5.04005 179.192 3.05605 178.008 3.05605 175.048C3.05605 172.232 4.70405 170.808 6.91205 170.808C8.59205 170.808 10.016 171.448 10.288 173.448L12.4 173.128C11.936 169.784 9.04005 168.76 7.04005 168.76C3.45605 168.76 0.800049 171.336 0.800048 175.048C0.800048 178.6 3.40805 181.24 6.44805 181.24C8.38405 181.24 9.76005 180.04 10.4 178.76L10.416 178.76L10.784 181L12.56 181L12.56 174.6L7.20005 174.6L7.20005 176.488L10.352 176.488Z" fill="#FF5B24"/>
<path d="M19.1874 173.256C20.4834 173.256 21.5074 173.864 21.6674 175.4L16.6594 175.4C16.9314 173.976 17.8594 173.256 19.1874 173.256ZM23.5554 176.824L23.5554 176.168C23.5554 173.448 21.7634 171.528 19.2674 171.528C16.5954 171.528 14.5634 173.4 14.5634 176.36C14.5634 179.4 16.6754 181.24 19.3954 181.24C21.0914 181.24 23.1394 180.264 23.4914 178.136L21.6354 177.816C21.4274 178.872 20.8194 179.512 19.3154 179.512C17.6514 179.512 16.7394 178.44 16.5954 176.824L23.5554 176.824Z" fill="#FF5B24"/>
<path d="M26.234 169.56L26.234 171.784L24.522 171.784L24.522 173.4L26.234 173.4L26.234 178.408C26.234 180.104 27.082 181.16 28.922 181.16C29.482 181.16 30.138 181.016 30.618 180.872L30.298 179.256C29.93 179.352 29.7061 179.4 29.3381 179.4C28.5221 179.4 28.2341 179.032 28.2341 178.312L28.2341 173.4L30.538 173.4L30.538 171.784L28.2341 171.784L28.2341 169.24L26.234 169.56Z" fill="#FF5B24"/>
<path d="M36.6193 174.376C36.6193 175.656 37.3553 176.6 38.9233 176.936L40.6033 177.304C41.7553 177.56 42.0753 177.896 42.0753 178.44C42.0753 179.208 41.3233 179.64 40.2193 179.64C38.9233 179.64 38.0753 179.032 37.9473 177.896L36.1713 178.216C36.4753 180.36 38.4753 181.24 40.2673 181.24C42.0433 181.24 43.9313 180.248 43.9313 178.248C43.9313 176.968 43.1793 176.104 41.5473 175.752L39.7233 175.352C38.7953 175.144 38.4753 174.696 38.4753 174.216C38.4753 173.544 39.1153 173.128 40.0273 173.128C41.1313 173.128 41.9473 173.528 42.0113 174.728L43.7873 174.408C43.2593 172.344 41.8673 171.528 40.0113 171.528C38.5073 171.528 36.6193 172.36 36.6193 174.376Z" fill="#FF5B24"/>
<path d="M46.5934 169.56L46.5934 171.784L44.8814 171.784L44.8814 173.4L46.5934 173.4L46.5934 178.408C46.5934 180.104 47.4414 181.16 49.2814 181.16C49.8414 181.16 50.4974 181.016 50.9774 180.872L50.6574 179.256C50.2894 179.352 50.0654 179.4 49.6974 179.4C48.8814 179.4 48.5934 179.032 48.5934 178.312L48.5934 173.4L50.8974 173.4L50.8974 171.784L48.5934 171.784L48.5934 169.24L46.5934 169.56Z" fill="#FF5B24"/>
<path d="M56.3942 181.24C58.0422 181.24 59.0502 180.232 59.5142 179.096L59.5142 181L61.5142 181L61.5142 171.784L59.5142 171.784L59.5142 173.592C58.8582 172.136 57.8502 171.528 56.4102 171.528C54.4742 171.528 52.3462 173.08 52.3462 176.296C52.3462 179.672 54.4902 181.24 56.3942 181.24ZM56.9542 173.256C58.2982 173.256 59.5142 174.28 59.5142 176.408C59.5142 178.6 58.2982 179.496 56.9382 179.496C55.6742 179.496 54.3622 178.552 54.3622 176.408C54.3622 174.232 55.6902 173.256 56.9542 173.256Z" fill="#FF5B24"/>
<path d="M68.4929 173.688C68.9889 173.688 69.3409 173.752 69.6929 173.896L69.8849 171.656C69.6929 171.56 69.4209 171.528 69.1809 171.528C68.2689 171.528 66.8289 172.056 66.0769 173.992L66.0769 171.784L64.0769 171.784L64.0769 181L66.0769 181L66.0769 176.968C66.0769 174.408 67.1969 173.688 68.4929 173.688Z" fill="#FF5B24"/>
<path d="M72.0934 169.56L72.0934 171.784L70.3814 171.784L70.3814 173.4L72.0934 173.4L72.0934 178.408C72.0934 180.104 72.9414 181.16 74.7814 181.16C75.3414 181.16 75.9974 181.016 76.4774 180.872L76.1574 179.256C75.7894 179.352 75.5654 179.4 75.1974 179.4C74.3814 179.4 74.0934 179.032 74.0934 178.312L74.0934 173.4L76.3974 173.4L76.3974 171.784L74.0934 171.784L74.0934 169.24L72.0934 169.56Z" fill="#FF5B24"/>
<path d="M82.4062 173.256C83.7022 173.256 84.7262 173.864 84.8862 175.4L79.8782 175.4C80.1502 173.976 81.0782 173.256 82.4062 173.256ZM86.7742 176.824L86.7742 176.168C86.7742 173.448 84.9822 171.528 82.4862 171.528C79.8142 171.528 77.7822 173.4 77.7822 176.36C77.7822 179.4 79.8942 181.24 82.6142 181.24C84.3102 181.24 86.3582 180.264 86.7102 178.136L84.8542 177.816C84.6462 178.872 84.0382 179.512 82.5342 179.512C80.8702 179.512 79.9582 178.44 79.8142 176.824L86.7742 176.824Z" fill="#FF5B24"/>
<path d="M97.4048 168.6L95.4048 168.6L95.4048 173.592C94.7488 172.136 93.7568 171.528 92.5088 171.528C90.3648 171.528 88.2368 173.08 88.2368 176.296C88.2368 179.672 90.3808 181.24 92.2528 181.24C93.9328 181.24 94.9408 180.36 95.4048 179.256L95.4048 181L97.4048 181L97.4048 168.6ZM92.8448 173.256C94.1888 173.256 95.4048 174.328 95.4048 176.408C95.4048 178.552 94.1888 179.496 92.8288 179.496C91.5648 179.496 90.2528 178.504 90.2528 176.408C90.2528 174.28 91.5808 173.256 92.8448 173.256Z" fill="#FF5B24"/>
<path d="M117.56 171.784L115.336 171.784L113.368 178.504L111.144 171.784L109.656 171.784L107.448 178.472L105.464 171.784L103.24 171.784L106.552 181L108.28 181L110.408 175.176L112.52 181L114.248 181L117.56 171.784Z" fill="#FF5B24"/>
<path d="M119.077 171.784L119.077 181L121.077 181L121.077 171.784L119.077 171.784ZM120.069 167.8C119.397 167.8 118.869 168.344 118.869 169C118.869 169.656 119.397 170.2 120.069 170.2C120.741 170.2 121.269 169.656 121.269 169C121.269 168.344 120.741 167.8 120.069 167.8Z" fill="#FF5B24"/>
<path d="M124.343 169.56L124.343 171.784L122.631 171.784L122.631 173.4L124.343 173.4L124.343 178.408C124.343 180.104 125.191 181.16 127.031 181.16C127.591 181.16 128.247 181.016 128.727 180.872L128.407 179.256C128.039 179.352 127.815 179.4 127.447 179.4C126.631 179.4 126.343 179.032 126.343 178.312L126.343 173.4L128.647 173.4L128.647 171.784L126.343 171.784L126.343 169.24L124.343 169.56Z" fill="#FF5B24"/>
<path d="M130.608 168.6L130.608 181L132.608 181L132.608 175.736C132.608 174.088 133.552 173.336 134.896 173.336C135.968 173.336 136.832 173.976 136.832 175.688L136.832 181L138.832 181L138.832 174.824C138.832 172.344 137.312 171.528 135.552 171.528C134.576 171.528 133.264 171.96 132.608 173.144L132.608 168.6L130.608 168.6Z" fill="#FF5B24"/>
<path d="M21.3155 195.368C20.9795 192.888 19.0115 191.528 16.8675 191.528C14.2275 191.528 12.2275 193.4 12.2275 196.376C12.2275 199.224 14.1955 201.24 17.0115 201.24C18.7875 201.24 20.8675 200.264 21.2995 197.448L19.4755 197.128C19.2675 198.696 18.4035 199.496 16.9955 199.496C15.1235 199.496 14.2435 198.072 14.2435 196.376C14.2435 194.328 15.3635 193.256 16.7715 193.256C18.0515 193.256 19.1235 193.944 19.3475 195.688L21.3155 195.368Z" fill="#FF5B24"/>
<path d="M27.1781 191.528C24.6821 191.528 22.6181 193.352 22.6181 196.376C22.6181 199.4 24.6821 201.24 27.1781 201.24C29.6741 201.24 31.7381 199.4 31.7381 196.376C31.7381 193.352 29.6741 191.528 27.1781 191.528ZM27.1781 193.256C28.5541 193.256 29.7221 194.264 29.7221 196.376C29.7221 198.488 28.5541 199.512 27.1781 199.512C25.8021 199.512 24.6341 198.488 24.6341 196.376C24.6341 194.264 25.8021 193.256 27.1781 193.256Z" fill="#FF5B24"/>
<path d="M38.1414 193.688C38.6374 193.688 38.9894 193.752 39.3414 193.896L39.5334 191.656C39.3414 191.56 39.0694 191.528 38.8294 191.528C37.9174 191.528 36.4774 192.056 35.7254 193.992L35.7254 191.784L33.7254 191.784L33.7254 201L35.7254 201L35.7254 196.968C35.7254 194.408 36.8454 193.688 38.1414 193.688Z" fill="#FF5B24"/>
<path d="M45.0859 193.256C46.3819 193.256 47.4059 193.864 47.5659 195.4L42.5579 195.4C42.8299 193.976 43.7579 193.256 45.0859 193.256ZM49.4539 196.824L49.4539 196.168C49.4539 193.448 47.6619 191.528 45.1659 191.528C42.4939 191.528 40.4619 193.4 40.4619 196.36C40.4619 199.4 42.5739 201.24 45.2939 201.24C46.9899 201.24 49.0379 200.264 49.3899 198.136L47.5339 197.816C47.3259 198.872 46.7179 199.512 45.2139 199.512C43.5499 199.512 42.6379 198.44 42.4939 196.824L49.4539 196.824Z" fill="#FF5B24"/>
<path d="M64.253 195.368C63.917 192.888 61.949 191.528 59.805 191.528C57.165 191.528 55.165 193.4 55.165 196.376C55.165 199.224 57.133 201.24 59.949 201.24C61.725 201.24 63.805 200.264 64.237 197.448L62.413 197.128C62.205 198.696 61.341 199.496 59.933 199.496C58.061 199.496 57.181 198.072 57.181 196.376C57.181 194.328 58.301 193.256 59.709 193.256C60.989 193.256 62.061 193.944 62.285 195.688L64.253 195.368Z" fill="#FF5B24"/>
<path d="M70.1156 191.528C67.6196 191.528 65.5556 193.352 65.5556 196.376C65.5556 199.4 67.6196 201.24 70.1156 201.24C72.6116 201.24 74.6756 199.4 74.6756 196.376C74.6756 193.352 72.6116 191.528 70.1156 191.528ZM70.1156 193.256C71.4916 193.256 72.6596 194.264 72.6596 196.376C72.6596 198.488 71.4916 199.512 70.1156 199.512C68.7396 199.512 67.5716 198.488 67.5716 196.376C67.5716 194.264 68.7396 193.256 70.1156 193.256Z" fill="#FF5B24"/>
<path d="M80.9349 193.336C82.0229 193.336 82.8869 193.976 82.8869 195.688L82.8869 201L84.8869 201L84.8869 194.824C84.8869 192.344 83.3189 191.528 81.6709 191.528C80.5829 191.528 79.3189 191.976 78.6629 193.144L78.6629 191.784L76.6629 191.784L76.6629 201L78.6629 201L78.6629 195.736C78.6629 194.088 79.6069 193.336 80.9349 193.336Z" fill="#FF5B24"/>
<path d="M87.174 194.376C87.174 195.656 87.91 196.6 89.478 196.936L91.158 197.304C92.31 197.56 92.63 197.896 92.63 198.44C92.63 199.208 91.878 199.64 90.774 199.64C89.478 199.64 88.63 199.032 88.502 197.896L86.726 198.216C87.03 200.36 89.03 201.24 90.822 201.24C92.598 201.24 94.486 200.248 94.486 198.248C94.486 196.968 93.734 196.104 92.102 195.752L90.278 195.352C89.35 195.144 89.03 194.696 89.03 194.216C89.03 193.544 89.67 193.128 90.582 193.128C91.686 193.128 92.502 193.528 92.566 194.728L94.342 194.408C93.814 192.344 92.422 191.528 90.566 191.528C89.062 191.528 87.174 192.36 87.174 194.376Z" fill="#FF5B24"/>
<path d="M100.492 193.256C101.788 193.256 102.812 193.864 102.972 195.4L97.9641 195.4C98.2361 193.976 99.1641 193.256 100.492 193.256ZM104.86 196.824L104.86 196.168C104.86 193.448 103.068 191.528 100.572 191.528C97.9001 191.528 95.8681 193.4 95.8681 196.36C95.8681 199.4 97.9801 201.24 100.7 201.24C102.396 201.24 104.444 200.264 104.796 198.136L102.94 197.816C102.732 198.872 102.124 199.512 100.62 199.512C98.9561 199.512 98.0441 198.44 97.9001 196.824L104.86 196.824Z" fill="#FF5B24"/>
<path d="M111.955 191.528C110.387 191.528 109.427 192.52 108.835 193.592L108.835 191.784L106.835 191.784L106.835 204.2L108.835 204.2L108.835 199.256C109.603 200.568 110.595 201.24 111.763 201.24C113.907 201.24 116.003 199.608 116.003 196.248C116.003 193.032 113.827 191.528 111.955 191.528ZM111.411 193.256C112.675 193.256 113.987 194.264 113.987 196.36C113.987 198.488 112.675 199.496 111.395 199.496C110.051 199.496 108.835 198.408 108.835 196.36C108.835 194.216 110.051 193.256 111.411 193.256Z" fill="#FF5B24"/>
<path d="M118.757 189.56L118.757 191.784L117.045 191.784L117.045 193.4L118.757 193.4L118.757 198.408C118.757 200.104 119.605 201.16 121.445 201.16C122.005 201.16 122.661 201.016 123.141 200.872L122.821 199.256C122.453 199.352 122.229 199.4 121.861 199.4C121.045 199.4 120.757 199.032 120.757 198.312L120.757 193.4L123.061 193.4L123.061 191.784L120.757 191.784L120.757 189.24L118.757 189.56Z" fill="#FF5B24"/>
<path d="M124.83 194.376C124.83 195.656 125.566 196.6 127.134 196.936L128.814 197.304C129.966 197.56 130.286 197.896 130.286 198.44C130.286 199.208 129.534 199.64 128.43 199.64C127.134 199.64 126.286 199.032 126.158 197.896L124.382 198.216C124.686 200.36 126.686 201.24 128.478 201.24C130.254 201.24 132.142 200.248 132.142 198.248C132.142 196.968 131.39 196.104 129.758 195.752L127.934 195.352C127.006 195.144 126.686 194.696 126.686 194.216C126.686 193.544 127.326 193.128 128.238 193.128C129.342 193.128 130.158 193.528 130.222 194.728L131.998 194.408C131.47 192.344 130.078 191.528 128.222 191.528C126.718 191.528 124.83 192.36 124.83 194.376Z" fill="#FF5B24"/>
<path d="M247 74.3052C252.799 74.3052 257.5 79.0062 257.5 84.8052C257.5 90.6042 252.799 95.3052 247 95.3052C241.201 95.3052 236.5 90.6042 236.5 84.8052C236.5 79.0062 241.201 74.3052 247 74.3052Z" fill="white" stroke="#FF5B24" stroke-width="3"/>
<path fill-rule="evenodd" clip-rule="evenodd" d="M256 84.8052C256 79.8346 251.971 75.8052 247 75.8052C242.029 75.8052 238 79.8346 238 84.8052C238 89.7757 242.029 93.8052 247 93.8052C251.971 93.8052 256 89.7757 256 84.8052ZM259 84.8052C259 78.1778 253.627 72.8052 247 72.8052C240.373 72.8052 235 78.1778 235 84.8052C235 91.4326 240.373 96.8052 247 96.8052C253.627 96.8052 259 91.4326 259 84.8052Z" fill="#FF5B24"/>
<path d="M72.5 72.8052C79.4036 72.8052 85 78.1778 85 84.8052C85 91.4326 79.4036 96.8052 72.5 96.8052C65.5964 96.8052 60 91.4326 60 84.8052C60 78.1778 65.5964 72.8052 72.5 72.8052Z" fill="white"/>
<path fill-rule="evenodd" clip-rule="evenodd" d="M82 84.8052C82 79.9489 77.8633 75.8052 72.5 75.8052C67.1367 75.8052 63 79.9489 63 84.8052C63 89.6615 67.1367 93.8052 72.5 93.8052C77.8633 93.8052 82 89.6615 82 84.8052ZM85 84.8052C85 78.1778 79.4036 72.8052 72.5 72.8052C65.5964 72.8052 60 78.1778 60 84.8052C60 91.4326 65.5964 96.8052 72.5 96.8052C79.4036 96.8052 85 91.4326 85 84.8052Z" fill="#FF5B24"/>
<path d="M1019.98 203.058C1019.98 233.885 994.989 258.874 964.162 258.874C933.335 258.874 908.345 233.885 908.345 203.058C908.345 172.231 933.335 147.241 964.162 147.241C994.989 147.241 1019.98 172.231 1019.98 203.058Z" fill="#EEEDF3"/>
<path d="M997.686 236.249L951.977 223.617C950.439 223.192 949.538 221.6 949.963 220.063L968.282 153.778C968.707 152.239 970.298 151.338 971.836 151.762L1017.54 164.395C1019.08 164.82 1019.98 166.412 1019.56 167.949L1001.24 234.234C1000.82 235.772 999.223 236.674 997.686 236.249Z" fill="#C8C5D6"/>
<path d="M998.064 234.863L951.315 226.895C949.743 226.627 948.686 225.134 948.954 223.562L960.508 155.77C960.776 154.197 962.269 153.139 963.842 153.407L1010.59 161.374C1012.16 161.642 1013.22 163.135 1012.95 164.708L1001.4 232.5C1001.13 234.073 999.637 235.131 998.064 234.863Z" fill="white"/>
<path d="M983.488 178.015C976.467 177.061 970.043 180.738 968.216 186.431C967.897 187.424 968.637 188.386 969.671 188.526L993.999 191.832C995.033 191.973 996.002 191.244 995.96 190.202C995.719 184.227 990.509 178.969 983.488 178.015Z" fill="#59CBE8"/>
<path d="M991.309 169.548C990.888 172.649 988.033 174.821 984.932 174.4C981.831 173.978 979.659 171.123 980.081 168.023C980.502 164.922 983.357 162.75 986.458 163.171C989.558 163.593 991.73 166.448 991.309 169.548Z" fill="#59CBE8"/>
<path fill-rule="evenodd" clip-rule="evenodd" d="M961.268 197.326C961.355 196.734 961.906 196.325 962.497 196.412L994.454 201.115C995.046 201.202 995.455 201.752 995.368 202.344C995.281 202.936 994.73 203.345 994.138 203.258L962.182 198.556C961.59 198.469 961.181 197.918 961.268 197.326Z" fill="#C8C5D6"/>
<path fill-rule="evenodd" clip-rule="evenodd" d="M960.147 204.059C960.234 203.467 960.784 203.057 961.376 203.144L993.333 207.847C993.925 207.934 994.334 208.484 994.247 209.076C994.16 209.668 993.609 210.078 993.017 209.99L961.061 205.288C960.469 205.201 960.06 204.651 960.147 204.059Z" fill="#C8C5D6"/>
<path fill-rule="evenodd" clip-rule="evenodd" d="M966.591 218.373C966.058 218.645 965.406 218.434 965.134 217.901C964.861 217.368 965.072 216.715 965.605 216.443L966.098 217.407C965.605 216.443 965.605 216.443 965.605 216.443L965.616 216.438L965.642 216.424L965.743 216.373C965.831 216.329 965.959 216.266 966.12 216.187C966.443 216.029 966.903 215.808 967.451 215.556C968.545 215.053 970.01 214.416 971.464 213.9C972.882 213.397 974.419 212.96 975.607 212.945C976.183 212.937 976.904 213.022 977.458 213.478C978.107 214.012 978.24 214.794 978.112 215.524M966.591 218.373L966.598 218.369L966.621 218.358L966.714 218.311C966.796 218.27 966.918 218.209 967.073 218.133C967.383 217.982 967.826 217.768 968.357 217.524C969.422 217.034 970.821 216.428 972.189 215.942C973.593 215.444 974.835 215.121 975.635 215.111C975.798 215.109 975.909 215.121 975.981 215.133C975.98 215.139 975.979 215.144 975.978 215.15C975.806 216.131 975.678 217.092 975.704 217.95C975.73 218.804 975.913 219.69 976.489 220.403C977.085 221.14 977.96 221.52 979.006 221.642C980.032 221.762 981.306 221.646 982.859 221.321C984.307 221.019 985.297 220.949 985.961 220.989C986.629 221.028 986.899 221.173 986.982 221.233C986.994 221.242 987.002 221.249 987.008 221.255C986.938 221.797 987.288 222.316 987.832 222.446C988.414 222.584 988.999 222.225 989.137 221.643L988.107 221.398C989.137 221.643 989.137 221.644 989.137 221.643L989.138 221.638L989.139 221.633L989.142 221.622L989.147 221.597C989.151 221.578 989.155 221.557 989.158 221.533C989.166 221.486 989.173 221.426 989.177 221.357C989.186 221.22 989.182 221.037 989.141 220.827C989.053 220.385 988.801 219.874 988.25 219.476C987.723 219.096 987.008 218.88 986.09 218.826C985.169 218.771 983.975 218.874 982.416 219.2C982.416 219.2 982.416 219.2 982.416 219.2" fill="#5E3DC2"/>
<path d="M966.591 218.373C966.058 218.645 965.406 218.434 965.134 217.901C964.861 217.368 965.072 216.715 965.605 216.443M966.591 218.373L978.112 215.524C978.24 214.794 978.107 214.012 977.458 213.478C976.904 213.022 976.183 212.937 975.607 212.945C974.419 212.96 972.882 213.397 971.464 213.9C970.01 214.416 968.545 215.053 967.451 215.556C966.903 215.808 966.443 216.029 966.12 216.187C965.959 216.266 965.831 216.329 965.743 216.373L965.642 216.424L965.616 216.438L965.605 216.443M966.591 218.373L982.416 219.2M966.591 218.373L966.598 218.369L966.621 218.358L966.714 218.311C966.796 218.27 966.918 218.209 967.073 218.133C967.383 217.982 967.826 217.768 968.357 217.524C969.422 217.034 970.821 216.428 972.189 215.942C973.593 215.444 974.835 215.121 975.635 215.111C975.798 215.109 975.909 215.121 975.981 215.133C975.98 215.139 975.979 215.144 975.978 215.15C975.806 216.131 975.678 217.092 975.704 217.95C975.73 218.804 975.913 219.69 976.489 220.403C977.085 221.14 977.96 221.52 979.006 221.642C980.032 221.762 981.306 221.646 982.859 221.321C984.307 221.019 985.297 220.949 985.961 220.989C986.629 221.028 986.899 221.173 986.982 221.233C986.994 221.242 987.002 221.249 987.008 221.255C986.938 221.797 987.288 222.316 987.832 222.446C988.414 222.584 988.999 222.225 989.137 221.643M965.605 216.443L966.098 217.407C965.605 216.443 965.605 216.443 965.605 216.443ZM989.137 221.643L988.107 221.398C989.137 221.643 989.137 221.644 989.137 221.643ZM989.137 221.643L989.138 221.638L989.139 221.633L989.142 221.622L989.147 221.597C989.151 221.578 989.155 221.557 989.158 221.533C989.166 221.486 989.173 221.426 989.177 221.357C989.186 221.22 989.182 221.037 989.141 220.827C989.053 220.385 988.801 219.874 988.25 219.476C987.723 219.096 987.008 218.88 986.09 218.826C985.169 218.771 983.975 218.874 982.416 219.2M982.416 219.2C982.416 219.2 982.416 219.2 982.416 219.2ZM982.416 219.2L982.637 220.26" stroke="#5E3DC2" stroke-width="0.610363" stroke-miterlimit="10" stroke-linecap="round"/>
<path d="M730.021 85.0578C730.021 115.885 755.011 140.874 785.838 140.874C816.665 140.874 841.655 115.885 841.655 85.0578C841.655 54.2305 816.665 29.2407 785.838 29.2407C755.011 29.2407 730.021 54.2305 730.021 85.0578Z" fill="#EEEDF3"/>
<path d="M750.484 118.249L796.192 105.616C797.731 105.191 798.632 103.6 798.207 102.062L779.888 35.7774C779.463 34.2389 777.872 33.3375 776.334 33.7618L730.626 46.395C729.088 46.8201 728.186 48.4113 728.61 49.949L746.93 116.234C747.355 117.772 748.947 118.674 750.484 118.249Z" fill="#C8C5D6"/>
<path d="M750.571 116.264L797.562 109.878C799.143 109.663 800.25 108.207 800.035 106.627L790.775 38.4832C790.56 36.902 789.104 35.7948 787.523 36.0096L740.533 42.3939C738.952 42.6094 737.845 44.065 738.06 45.6463L747.32 113.79C747.535 115.371 748.99 116.478 750.571 116.264Z" fill="white"/>
<path d="M766.512 60.0133C773.534 59.0594 779.957 62.7365 781.784 68.43C782.104 69.4229 781.363 70.3843 780.329 70.5243L756.001 73.8307C754.968 73.9714 753.998 73.2428 754.04 72.2006C754.282 66.2258 759.491 60.9672 766.512 60.0133Z" fill="#49367E"/>
<path d="M758.691 51.5491C759.113 54.6499 761.968 56.8218 765.068 56.4004C768.169 55.979 770.341 53.1241 769.92 50.0233C769.498 46.9225 766.643 44.7506 763.543 45.172C760.442 45.5934 758.27 48.4484 758.691 51.5491Z" fill="#49367E"/>
<path fill-rule="evenodd" clip-rule="evenodd" d="M788.732 79.322C788.645 78.7301 788.094 78.3208 787.503 78.4079L755.546 83.1102C754.954 83.1973 754.545 83.7478 754.632 84.3398C754.719 84.9317 755.27 85.341 755.862 85.2539L787.818 80.5516C788.41 80.4645 788.819 79.914 788.732 79.322Z" fill="#C8C5D6"/>
<path fill-rule="evenodd" clip-rule="evenodd" d="M789.853 86.0559C789.766 85.4639 789.216 85.0547 788.624 85.1418L756.667 89.8441C756.075 89.9312 755.666 90.4817 755.753 91.0737C755.84 91.6656 756.391 92.0749 756.983 91.9878L788.939 87.2855C789.531 87.1984 789.94 86.6479 789.853 86.0559Z" fill="#C8C5D6"/>
<path fill-rule="evenodd" clip-rule="evenodd" d="M763.256 103.924C762.848 104.362 762.163 104.387 761.725 103.979C761.286 103.571 761.262 102.886 761.669 102.448L762.462 103.185C761.669 102.448 761.669 102.448 761.669 102.448L761.677 102.439L761.698 102.417L761.775 102.335C761.843 102.264 761.941 102.161 762.066 102.031C762.315 101.772 762.671 101.408 763.101 100.983C763.956 100.136 765.115 99.0365 766.305 98.0543C767.465 97.0966 768.76 96.1601 769.872 95.7393C770.41 95.5355 771.116 95.3691 771.793 95.6078C772.586 95.8875 772.978 96.5768 773.107 97.3067M763.256 103.924L763.261 103.918L763.278 103.9L763.35 103.824C763.413 103.757 763.506 103.659 763.626 103.534C763.866 103.285 764.21 102.933 764.625 102.523C765.458 101.698 766.565 100.649 767.684 99.7253C768.833 98.7769 769.89 98.049 770.639 97.7658C770.791 97.7082 770.899 97.6812 770.971 97.6685C770.972 97.6737 770.973 97.6792 770.974 97.6849C771.148 98.666 771.356 99.6129 771.674 100.409C771.991 101.203 772.465 101.974 773.251 102.447C774.063 102.935 775.015 102.993 776.04 102.75C777.045 102.512 778.203 101.967 779.551 101.131C780.808 100.351 781.715 99.9471 782.352 99.757C782.993 99.566 783.296 99.6101 783.395 99.638C783.409 99.642 783.419 99.6457 783.427 99.6488C783.547 100.183 784.053 100.551 784.609 100.486C785.203 100.418 785.629 99.8798 785.56 99.2855L784.509 99.4074C785.56 99.2855 785.56 99.2867 785.56 99.2855L785.56 99.2806L785.559 99.2754L785.558 99.2642L785.554 99.2387C785.551 99.2203 785.548 99.199 785.543 99.1753C785.534 99.1279 785.52 99.0696 785.5 99.0033C785.461 98.8718 785.396 98.7005 785.284 98.5175C785.051 98.1329 784.64 97.7386 783.985 97.5532C783.361 97.3763 782.614 97.4179 781.733 97.6805C780.849 97.944 779.763 98.4497 778.409 99.2893C778.409 99.2893 778.409 99.2893 778.409 99.2893" fill="#49367E"/>
<path d="M763.256 103.924C762.848 104.362 762.163 104.387 761.725 103.979C761.286 103.571 761.262 102.886 761.669 102.448M763.256 103.924L773.107 97.3067C772.978 96.5768 772.586 95.8875 771.793 95.6078C771.116 95.3691 770.41 95.5355 769.872 95.7393C768.76 96.1601 767.465 97.0966 766.305 98.0543C765.115 99.0365 763.956 100.136 763.101 100.983C762.671 101.408 762.315 101.772 762.066 102.031C761.941 102.161 761.843 102.264 761.775 102.335L761.698 102.417L761.677 102.439L761.669 102.448M763.256 103.924L778.409 99.2893M763.256 103.924L763.261 103.918L763.278 103.9L763.35 103.824C763.413 103.757 763.506 103.659 763.626 103.534C763.866 103.285 764.21 102.933 764.625 102.523C765.458 101.698 766.565 100.649 767.684 99.7253C768.833 98.7769 769.89 98.049 770.639 97.7658C770.791 97.7082 770.899 97.6812 770.971 97.6685C770.972 97.6737 770.973 97.6792 770.974 97.6849C771.148 98.666 771.356 99.6129 771.674 100.409C771.991 101.203 772.465 101.974 773.251 102.447C774.063 102.935 775.015 102.993 776.04 102.75C777.045 102.512 778.203 101.967 779.551 101.131C780.808 100.351 781.715 99.9471 782.352 99.757C782.993 99.566 783.296 99.6101 783.395 99.638C783.409 99.642 783.419 99.6457 783.427 99.6488C783.547 100.183 784.053 100.551 784.609 100.486C785.203 100.418 785.629 99.8798 785.56 99.2855M761.669 102.448L762.462 103.185C761.669 102.448 761.669 102.448 761.669 102.448ZM785.56 99.2855L784.509 99.4074C785.56 99.2855 785.56 99.2867 785.56 99.2855ZM785.56 99.2855L785.56 99.2806L785.559 99.2754L785.558 99.2642L785.554 99.2387C785.551 99.2203 785.548 99.199 785.543 99.1753C785.534 99.1279 785.52 99.0696 785.5 99.0033C785.461 98.8718 785.396 98.7005 785.284 98.5175C785.051 98.1329 784.64 97.7386 783.985 97.5532C783.361 97.3763 782.614 97.4179 781.733 97.6805C780.849 97.944 779.763 98.4497 778.409 99.2893M778.409 99.2893C778.409 99.2893 778.409 99.2893 778.409 99.2893ZM778.409 99.2893L778.98 100.21" stroke="#49367E" stroke-width="0.610363" stroke-miterlimit="10" stroke-linecap="round"/>
<path d="M663.704 84.8852C663.704 115.712 638.714 140.702 607.887 140.702C577.06 140.702 552.07 115.712 552.07 84.8852C552.07 54.0584 577.06 29.0681 607.887 29.0681C638.714 29.0681 663.704 54.0584 663.704 84.8852Z" fill="#EEEDF3"/>
<path fill-rule="evenodd" clip-rule="evenodd" d="M614.299 140.345C614.289 120.02 614.298 97.6057 614.386 92.5114C614.734 72.14 634.82 76.4803 634.82 76.4803L659.183 92.5114L659.175 106.954C651.429 124.936 634.503 138.034 614.299 140.345Z" fill="#FFD3BB"/>
<path d="M651.936 98.3771L616.598 105.299C613.197 105.965 609.898 103.747 609.232 100.346L595.279 29.1081C594.612 25.7061 596.831 22.4082 600.232 21.742L635.569 14.8205C638.971 14.1541 642.269 16.3716 642.935 19.7736L656.889 91.0111C657.555 94.4124 655.338 97.7108 651.936 98.3771Z" fill="#FF5A23"/>
<path d="M656.058 86.3248L608.401 95.6593L596.354 34.1545L644.011 24.82L656.058 86.3248Z" fill="#FF985F"/>
<path d="M608.458 74.7237L595.816 75.7068C592.42 75.9712 589.454 73.4328 589.189 70.0372C588.925 66.6415 591.465 63.675 594.859 63.4114L607.502 62.4276C610.897 62.1627 613.863 64.7017 614.128 68.0968C614.392 71.493 611.854 74.4593 608.458 74.7237Z" fill="#FFD3BB"/>
<path d="M609.511 86.2769L596.869 87.26C593.473 87.5244 590.507 84.986 590.243 81.5904C589.978 78.1941 592.516 75.2285 595.912 74.964L608.554 73.981C611.95 73.7159 614.916 76.2549 615.181 79.65C615.445 83.0456 612.907 86.0125 609.511 86.2769Z" fill="#FFD3BB"/>
<path d="M611.636 97.5999L598.993 98.5837C595.598 98.8472 592.63 96.3092 592.367 92.9141C592.103 89.5183 594.641 86.552 598.036 86.2877L610.679 85.3045C614.074 85.0396 617.041 87.5785 617.305 90.9735C617.57 94.3692 615.031 97.3362 611.636 97.5999Z" fill="#FFD3BB"/>
<path d="M638.355 73.4959L623.184 76.4667C620.743 76.9447 618.377 75.3536 617.899 72.9135L615.166 58.9555C614.688 56.5153 616.279 54.1499 618.72 53.6719L633.891 50.7011C636.331 50.2232 638.697 51.8137 639.175 54.2539L641.908 68.2119C642.386 70.652 640.795 73.018 638.355 73.4959Z" fill="#FFF4EB"/>
<path fill-rule="evenodd" clip-rule="evenodd" d="M615.578 47.8408C614.69 43.1897 617.728 38.6903 622.379 37.7794C627.045 36.8656 631.568 39.907 632.482 44.5727L634.725 56.0274C634.904 56.939 634.309 57.8227 633.398 58.0012C632.486 58.1797 631.602 57.5854 631.424 56.6738L629.181 45.2192C628.624 42.3769 625.869 40.5239 623.026 41.0806C620.184 41.6371 618.331 44.3924 618.888 47.2349L618.895 47.2735L618.98 47.847C619.116 48.766 618.481 49.621 617.562 49.7567C616.643 49.8925 615.788 49.2576 615.652 48.3387L615.578 47.8408Z" fill="#FFF4EB"/>
<path fill-rule="evenodd" clip-rule="evenodd" d="M656.328 112.637C655.523 112.951 654.651 113.254 653.71 113.532C646.978 115.523 636.928 106.8 636.928 106.8C636.928 106.8 637.212 103.197 637.686 99.3098C638.16 95.4225 640.625 91.9144 641.858 90.7766C636.928 89.7337 633.42 88.0271 630.86 84.6138C628.204 81.0723 626.309 77.9768 625.835 72.4777C625.36 66.9785 627.352 64.9874 629.722 63.8497C632.092 62.7119 634.178 63.2808 636.454 64.4185C638.224 65.3039 639.271 68.6929 639.488 71.1503C639.772 74.3739 640.499 75.1618 641.953 76.5546C643.072 77.6268 645.461 77.5976 647.073 77.408C648.685 77.2183 650.147 77.3039 652.951 77.9768C655.321 78.5457 657.692 80.1576 659.683 82.8123C661.851 85.703 662.574 89.2097 663.049 93.4678C661.986 100.354 659.665 106.824 656.328 112.637Z" fill="#FFD3BB"/>
<path d="M483.833 85.06C483.833 115.887 458.844 140.876 428.016 140.876C397.19 140.876 372.199 115.887 372.199 85.06C372.199 54.2326 397.19 29.2429 428.016 29.2429C458.844 29.2429 483.833 54.2326 483.833 85.06Z" fill="#EEEDF3"/>
<path d="M432.604 99.1628H363.431C361.431 99.1628 359.81 97.5418 359.81 95.5418V41.2582C359.81 39.2582 361.431 37.6372 363.431 37.6372H432.604C434.604 37.6372 436.225 39.2582 436.225 41.2582V95.5418C436.225 97.5418 434.604 99.1628 432.604 99.1628Z" fill="#C8C5D6"/>
<path d="M432.474 37.6372H363.561C361.489 37.6372 359.81 39.3161 359.81 41.3874V46.668H436.225V41.3874C436.225 39.3161 434.546 37.6372 432.474 37.6372Z" fill="#48367D"/>
<path d="M369.193 42.1886C369.193 43.2242 368.354 44.0636 367.319 44.0636C366.283 44.0636 365.443 43.2242 365.443 42.1886C365.443 41.1529 366.283 40.3135 367.319 40.3135C368.354 40.3135 369.193 41.1529 369.193 42.1886Z" fill="white"/>
<path d="M375.347 42.1527C375.347 43.1883 374.508 44.0277 373.473 44.0277C372.436 44.0277 371.597 43.1883 371.597 42.1527C371.597 41.1171 372.436 40.2776 373.473 40.2776C374.508 40.2776 375.347 41.1171 375.347 42.1527Z" fill="white"/>
<path d="M381.6 42.1527C381.6 43.1883 380.76 44.0277 379.725 44.0277C378.689 44.0277 377.849 43.1883 377.849 42.1527C377.849 41.1171 378.689 40.2776 379.725 40.2776C380.76 40.2776 381.6 41.1171 381.6 42.1527Z" fill="white"/>
<g filter="url(#filter0_d)">
<path d="M373.106 66.5286C373.106 65.8714 373.639 65.3386 374.296 65.3386H421.896C422.554 65.3386 423.086 65.8714 423.086 66.5286V80.2986C423.086 80.9558 422.554 81.4886 421.896 81.4886H374.296C373.639 81.4886 373.106 80.9558 373.106 80.2986V66.5286Z" fill="#FF5B24"/>
</g>
<path d="M383.97 70.8889V75.9889H386.983V75.0981H384.956V70.8889H383.97Z" fill="white"/>
<path d="M389.13 71.9633C388.069 71.9633 387.192 72.7385 387.192 74.0237C387.192 75.3089 388.069 76.0909 389.13 76.0909C390.191 76.0909 391.068 75.3089 391.068 74.0237C391.068 72.7385 390.191 71.9633 389.13 71.9633ZM389.13 72.8065C389.66 72.8065 390.102 73.2009 390.102 74.0237C390.102 74.8465 389.66 75.2477 389.13 75.2477C388.599 75.2477 388.157 74.8465 388.157 74.0237C388.157 73.2009 388.599 72.8065 389.13 72.8065Z" fill="white"/>
<path d="M393.12 75.7645C393.739 75.7645 394.106 75.4789 394.337 75.1389V75.4721C394.337 76.2269 394.058 76.5329 393.378 76.5329C392.964 76.5329 392.617 76.4037 392.447 75.9413L391.515 76.0773C391.712 77.0701 392.603 77.4033 393.31 77.4033C394.562 77.4033 395.296 76.7505 395.296 75.4381V72.0653H394.337V72.5413C394.038 72.1401 393.637 71.9633 393.188 71.9633C392.338 71.9633 391.536 72.5617 391.536 73.8061C391.536 75.1389 392.352 75.7645 393.12 75.7645ZM393.406 72.8065C393.916 72.8065 394.337 73.1805 394.337 73.8605C394.337 74.5745 393.916 74.9145 393.406 74.9145C392.916 74.9145 392.501 74.5745 392.501 73.8537C392.501 73.1601 392.93 72.8065 393.406 72.8065Z" fill="white"/>
<path d="M397.596 75.7645C398.214 75.7645 398.582 75.4789 398.813 75.1389V75.4721C398.813 76.2269 398.534 76.5329 397.854 76.5329C397.439 76.5329 397.092 76.4037 396.922 75.9413L395.991 76.0773C396.188 77.0701 397.079 77.4033 397.786 77.4033C399.037 77.4033 399.772 76.7505 399.772 75.4381V72.0653H398.813V72.5413C398.514 72.1401 398.112 71.9633 397.664 71.9633C396.814 71.9633 396.011 72.5617 396.011 73.8061C396.011 75.1389 396.827 75.7645 397.596 75.7645ZM397.881 72.8065C398.391 72.8065 398.813 73.1805 398.813 73.8605C398.813 74.5745 398.391 74.9145 397.881 74.9145C397.392 74.9145 396.977 74.5745 396.977 73.8537C396.977 73.1601 397.405 72.8065 397.881 72.8065Z" fill="white"/>
<path d="M402.531 72.0721V75.9889H403.483V72.0721H402.531ZM403.007 70.3721C402.687 70.3721 402.469 70.5897 402.469 70.9025C402.469 71.2153 402.687 71.4329 403.007 71.4329C403.326 71.4329 403.544 71.2153 403.544 70.9025C403.544 70.5897 403.326 70.3721 403.007 70.3721Z" fill="white"/>
<path d="M406.172 72.8405C406.594 72.8405 406.913 73.0785 406.913 73.7313V75.9889H407.872V73.3641C407.872 72.3101 407.226 71.9633 406.546 71.9633C406.111 71.9633 405.608 72.1537 405.336 72.6501V72.0721H404.377V75.9889H405.336V73.7517C405.336 73.1261 405.689 72.8405 406.172 72.8405Z" fill="white"/>
<path d="M410.555 72.8405C410.976 72.8405 411.296 73.0785 411.296 73.7313V75.9889H412.255V73.3641C412.255 72.3101 411.609 71.9633 410.929 71.9633C410.494 71.9633 409.99 72.1537 409.718 72.6501V72.0721H408.76V75.9889H409.718V73.7517C409.718 73.1261 410.072 72.8405 410.555 72.8405Z" fill="white"/>
<path d="M465.646 125.02L465.893 123.567L468.76 101.058L455.188 90.9042L436.083 96.3326L437.857 125.8C446.845 127.959 455.754 127.64 465.646 125.02Z" fill="#FFD3BA"/>
<path d="M440.789 107.991C439.244 106.72 438.566 104.579 439.25 102.574C441.449 96.1356 441.744 92.4485 441.858 89.2234C441.955 86.4955 444.245 84.3625 446.973 84.4596C449.7 84.5565 451.833 86.8456 451.737 89.5736C451.571 94.2756 450.974 98.8291 448.605 105.768C447.723 108.351 444.914 109.73 442.331 108.848C441.753 108.651 441.235 108.357 440.789 107.991Z" fill="#FFD3BA"/>
<path d="M450.376 106.619C448.786 105.312 448.124 103.09 448.89 101.057C450.212 97.5514 450.798 94.316 450.631 91.4378C450.474 88.7127 452.556 86.3765 455.28 86.219C458.005 86.0614 460.342 88.1422 460.499 90.8675C460.746 95.1341 459.952 99.736 458.14 104.543C457.177 107.098 454.326 108.388 451.772 107.425C451.252 107.229 450.783 106.953 450.376 106.619Z" fill="#FFD3BA"/>
<path d="M460.679 108.919C458.91 107.866 457.921 105.77 458.372 103.643C459.15 99.9798 459.243 96.6924 458.645 93.8717C458.08 91.2018 459.785 88.5776 462.456 88.0121C465.126 87.4461 467.749 89.1518 468.315 91.8223C469.201 96.0037 469.11 100.672 468.042 105.697C467.474 108.367 464.85 110.072 462.18 109.504C461.637 109.389 461.132 109.188 460.679 108.919Z" fill="#FFD3BA"/>
<path d="M436.956 139.262C435.623 129.371 432.303 126.121 431.816 125.468C431.353 124.849 427.025 119.974 425.428 117.072C423.45 113.475 421.119 108.346 423.14 104.152C425.119 100.046 430.066 100.869 433.908 97.8011L442.141 94.7934C445.411 94.233 448.517 96.4294 449.078 99.6998C449.639 102.971 447.442 106.077 444.171 106.638L442.549 108.381C441.955 108.624 442.46 110.299 442.615 111.001C443.555 112.678 440.244 115.802 441.778 117.859C443.763 120.518 443.215 124.283 440.556 126.267C438.549 127.765 437.271 141.598 436.956 139.262Z" fill="#FFD3BA"/>
<path fill-rule="evenodd" clip-rule="evenodd" d="M466.204 125.766C458.025 133.441 447.533 138.68 435.885 140.323C435.6 128.254 434.982 117.646 433.733 114.9C430.458 107.701 461.573 117.426 461.573 117.426C461.573 117.426 466.459 105.616 466.204 125.766Z" fill="#FFD3BA"/>
<path fill-rule="evenodd" clip-rule="evenodd" d="M417.891 73.9298C418.958 70.476 422.622 68.5408 426.076 69.6073L424.145 75.861C426.076 69.6073 426.077 69.6077 426.078 69.608L426.086 69.6105L426.1 69.6147L426.135 69.6258C426.163 69.6346 426.199 69.6459 426.242 69.6598C426.328 69.6876 426.445 69.7257 426.588 69.7739C426.875 69.8701 427.271 70.0074 427.749 70.1842C428.698 70.5352 430.005 71.0548 431.437 71.7325C433.996 72.943 438.133 75.1886 440.681 78.6768C444.07 83.3187 445.005 88.8594 444.646 93.9131C444.287 98.9747 442.614 104.005 440.195 108.256C438.407 111.398 434.411 112.495 431.27 110.707C428.128 108.92 427.03 104.924 428.818 101.782C430.378 99.0404 431.383 95.8879 431.589 92.9854C431.796 90.075 431.186 87.8707 430.109 86.3966C429.638 85.751 428.15 84.6587 425.839 83.5648C424.836 83.0903 423.896 82.716 423.207 82.4612C422.867 82.3351 422.596 82.2416 422.42 82.1826C422.333 82.1532 422.27 82.1327 422.234 82.1212L422.202 82.111L422.206 82.1123L422.21 82.1133M417.891 73.9298C416.826 77.3797 418.756 81.0398 422.202 82.111L417.891 73.9298ZM422.202 82.111C422.2 82.1104 422.2 82.1104 422.202 82.111V82.111Z" fill="#FFD2BA"/>
<defs>
<filter id="filter0_d" x="372.63" y="65.1006" width="50.932" height="17.102" filterUnits="userSpaceOnUse" color-interpolation-filters="sRGB">
<feFlood flood-opacity="0" result="BackgroundImageFix"/>
<feColorMatrix in="SourceAlpha" type="matrix" values="0 0 0 0 0 0 0 0 0 0 0 0 0 0 0 0 0 0 127 0"/>
<feOffset dy="0.238"/>
<feGaussianBlur stdDeviation="0.238"/>
<feColorMatrix type="matrix" values="0 0 0 0 0.0862745 0 0 0 0 0.0705882 0 0 0 0 0.145098 0 0 0 0.07 0"/>
<feBlend mode="normal" in2="BackgroundImageFix" result="effect1_dropShadow"/>
<feBlend mode="normal" in="SourceGraphic" in2="effect1_dropShadow" result="shape"/>
</filter>
</defs>
</svg>
