<svg width="1167" height="506" viewBox="0 0 1167 506" fill="none" xmlns="http://www.w3.org/2000/svg">
<rect width="1167" height="506" fill="white"/>
<line x1="1017" y1="172" x2="1017" y2="260" stroke="#49367E" stroke-width="2" stroke-dasharray="8 8"/>
<line x1="863" y1="173" x2="1018" y2="173" stroke="#49367E" stroke-width="2" stroke-dasharray="8 8"/>
<line x1="126" y1="173" x2="839" y2="173" stroke="#FF5B24" stroke-width="2"/>
<circle cx="300" cy="172.805" r="10.5" transform="rotate(-90 300 172.805)" fill="white" stroke="#FF5B24" stroke-width="3"/>
<path d="M125.5 162.305C131.633 162.305 136.5 167.063 136.5 172.805C136.5 178.547 131.633 183.305 125.5 183.305C119.367 183.305 114.5 178.547 114.5 172.805C114.5 167.063 119.367 162.305 125.5 162.305Z" fill="white" stroke="#FF5B24" stroke-width="3"/>
<path d="M63.352 264.488L63.336 264.616C63.144 266.136 61.912 267.192 60.024 267.192C58.04 267.192 56.056 266.008 56.056 263.048C56.056 260.232 57.704 258.808 59.912 258.808C61.592 258.808 63.016 259.448 63.288 261.448L65.4 261.128C64.936 257.784 62.04 256.76 60.04 256.76C56.456 256.76 53.8 259.336 53.8 263.048C53.8 266.6 56.408 269.24 59.448 269.24C61.384 269.24 62.76 268.04 63.4 266.76L63.416 266.76L63.784 269L65.56 269L65.56 262.6L60.2 262.6L60.2 264.488L63.352 264.488ZM72.1874 261.256C73.4834 261.256 74.5074 261.864 74.6674 263.4L69.6594 263.4C69.9314 261.976 70.8594 261.256 72.1874 261.256ZM76.5554 264.824L76.5554 264.168C76.5554 261.448 74.7634 259.528 72.2674 259.528C69.5954 259.528 67.5634 261.4 67.5634 264.36C67.5634 267.4 69.6754 269.24 72.3954 269.24C74.0914 269.24 76.1394 268.264 76.4914 266.136L74.6354 265.816C74.4274 266.872 73.8194 267.512 72.3154 267.512C70.6514 267.512 69.7394 266.44 69.5954 264.824L76.5554 264.824ZM79.234 257.56L79.234 259.784L77.522 259.784L77.522 261.4L79.234 261.4L79.234 266.408C79.234 268.104 80.082 269.16 81.922 269.16C82.482 269.16 83.138 269.016 83.618 268.872L83.298 267.256C82.93 267.352 82.706 267.4 82.338 267.4C81.522 267.4 81.234 267.032 81.234 266.312L81.234 261.4L83.538 261.4L83.538 259.784L81.234 259.784L81.234 257.24L79.234 257.56ZM89.6192 262.376C89.6192 263.656 90.3552 264.6 91.9232 264.936L93.6032 265.304C94.7552 265.56 95.0752 265.896 95.0752 266.44C95.0752 267.208 94.3232 267.64 93.2192 267.64C91.9232 267.64 91.0752 267.032 90.9472 265.896L89.1712 266.216C89.4752 268.36 91.4752 269.24 93.2672 269.24C95.0432 269.24 96.9312 268.248 96.9312 266.248C96.9312 264.968 96.1792 264.104 94.5472 263.752L92.7232 263.352C91.7952 263.144 91.4752 262.696 91.4752 262.216C91.4752 261.544 92.1152 261.128 93.0272 261.128C94.1312 261.128 94.9472 261.528 95.0112 262.728L96.7872 262.408C96.2592 260.344 94.8673 259.528 93.0112 259.528C91.5072 259.528 89.6192 260.36 89.6192 262.376ZM99.5934 257.56L99.5934 259.784L97.8814 259.784L97.8814 261.4L99.5934 261.4L99.5934 266.408C99.5934 268.104 100.441 269.16 102.281 269.16C102.841 269.16 103.497 269.016 103.977 268.872L103.657 267.256C103.289 267.352 103.065 267.4 102.697 267.4C101.881 267.4 101.593 267.032 101.593 266.312L101.593 261.4L103.897 261.4L103.897 259.784L101.593 259.784L101.593 257.24L99.5934 257.56ZM109.394 269.24C111.042 269.24 112.05 268.232 112.514 267.096L112.514 269L114.514 269L114.514 259.784L112.514 259.784L112.514 261.592C111.858 260.136 110.85 259.528 109.41 259.528C107.474 259.528 105.346 261.08 105.346 264.296C105.346 267.672 107.49 269.24 109.394 269.24ZM109.954 261.256C111.298 261.256 112.514 262.28 112.514 264.408C112.514 266.6 111.298 267.496 109.938 267.496C108.674 267.496 107.362 266.552 107.362 264.408C107.362 262.232 108.69 261.256 109.954 261.256ZM121.493 261.688C121.989 261.688 122.341 261.752 122.693 261.896L122.885 259.656C122.693 259.56 122.421 259.528 122.181 259.528C121.269 259.528 119.829 260.056 119.077 261.992L119.077 259.784L117.077 259.784L117.077 269L119.077 269L119.077 264.968C119.077 262.408 120.197 261.688 121.493 261.688ZM125.093 257.56L125.093 259.784L123.381 259.784L123.381 261.4L125.093 261.4L125.093 266.408C125.093 268.104 125.941 269.16 127.781 269.16C128.341 269.16 128.997 269.016 129.477 268.872L129.157 267.256C128.789 267.352 128.565 267.4 128.197 267.4C127.381 267.4 127.093 267.032 127.093 266.312L127.093 261.4L129.397 261.4L129.397 259.784L127.093 259.784L127.093 257.24L125.093 257.56ZM135.406 261.256C136.702 261.256 137.726 261.864 137.886 263.4L132.878 263.4C133.15 261.976 134.078 261.256 135.406 261.256ZM139.774 264.824L139.774 264.168C139.774 261.448 137.982 259.528 135.486 259.528C132.814 259.528 130.782 261.4 130.782 264.36C130.782 267.4 132.894 269.24 135.614 269.24C137.31 269.24 139.358 268.264 139.71 266.136L137.854 265.816C137.646 266.872 137.038 267.512 135.534 267.512C133.87 267.512 132.958 266.44 132.814 264.824L139.774 264.824ZM150.405 256.6L148.405 256.6L148.405 261.592C147.749 260.136 146.757 259.528 145.509 259.528C143.365 259.528 141.237 261.08 141.237 264.296C141.237 267.672 143.381 269.24 145.253 269.24C146.933 269.24 147.941 268.36 148.405 267.256L148.405 269L150.405 269L150.405 256.6ZM145.845 261.256C147.189 261.256 148.405 262.328 148.405 264.408C148.405 266.552 147.189 267.496 145.829 267.496C144.565 267.496 143.253 266.504 143.253 264.408C143.253 262.28 144.581 261.256 145.845 261.256ZM170.56 259.784L168.336 259.784L166.368 266.504L164.144 259.784L162.656 259.784L160.448 266.472L158.464 259.784L156.24 259.784L159.552 269L161.28 269L163.408 263.176L165.52 269L167.248 269L170.56 259.784ZM172.077 259.784L172.077 269L174.077 269L174.077 259.784L172.077 259.784ZM173.069 255.8C172.397 255.8 171.869 256.344 171.869 257C171.869 257.656 172.397 258.2 173.069 258.2C173.741 258.2 174.269 257.656 174.269 257C174.269 256.344 173.741 255.8 173.069 255.8ZM177.343 257.56L177.343 259.784L175.631 259.784L175.631 261.4L177.343 261.4L177.343 266.408C177.343 268.104 178.191 269.16 180.031 269.16C180.591 269.16 181.247 269.016 181.727 268.872L181.407 267.256C181.039 267.352 180.815 267.4 180.447 267.4C179.631 267.4 179.343 267.032 179.343 266.312L179.343 261.4L181.647 261.4L181.647 259.784L179.343 259.784L179.343 257.24L177.343 257.56ZM183.608 256.6L183.608 269L185.608 269L185.608 263.736C185.608 262.088 186.552 261.336 187.896 261.336C188.968 261.336 189.832 261.976 189.832 263.688L189.832 269L191.832 269L191.832 262.824C191.832 260.344 190.312 259.528 188.552 259.528C187.576 259.528 186.264 259.96 185.608 261.144L185.608 256.6L183.608 256.6ZM74.3154 283.368C73.9794 280.888 72.0114 279.528 69.8674 279.528C67.2274 279.528 65.2274 281.4 65.2274 284.376C65.2274 287.224 67.1954 289.24 70.0114 289.24C71.7874 289.24 73.8674 288.264 74.2994 285.448L72.4754 285.128C72.2674 286.696 71.4034 287.496 69.9954 287.496C68.1234 287.496 67.2434 286.072 67.2434 284.376C67.2434 282.328 68.3634 281.256 69.7714 281.256C71.0514 281.256 72.1234 281.944 72.3474 283.688L74.3154 283.368ZM80.1781 279.528C77.6821 279.528 75.6181 281.352 75.6181 284.376C75.6181 287.4 77.6821 289.24 80.1781 289.24C82.6741 289.24 84.7381 287.4 84.7381 284.376C84.7381 281.352 82.6741 279.528 80.1781 279.528ZM80.1781 281.256C81.5541 281.256 82.7221 282.264 82.7221 284.376C82.7221 286.488 81.5541 287.512 80.1781 287.512C78.8021 287.512 77.6341 286.488 77.6341 284.376C77.6341 282.264 78.8021 281.256 80.1781 281.256ZM91.1413 281.688C91.6373 281.688 91.9893 281.752 92.3413 281.896L92.5333 279.656C92.3413 279.56 92.0693 279.528 91.8293 279.528C90.9173 279.528 89.4773 280.056 88.7253 281.992L88.7253 279.784L86.7253 279.784L86.7253 289L88.7253 289L88.7253 284.968C88.7253 282.408 89.8453 281.688 91.1413 281.688ZM98.0858 281.256C99.3818 281.256 100.406 281.864 100.566 283.4L95.5578 283.4C95.8298 281.976 96.7578 281.256 98.0858 281.256ZM102.454 284.824L102.454 284.168C102.454 281.448 100.662 279.528 98.1658 279.528C95.4938 279.528 93.4618 281.4 93.4618 284.36C93.4618 287.4 95.5738 289.24 98.2938 289.24C99.9898 289.24 102.038 288.264 102.39 286.136L100.534 285.816C100.326 286.872 99.7178 287.512 98.2138 287.512C96.5498 287.512 95.6378 286.44 95.4938 284.824L102.454 284.824ZM117.253 283.368C116.917 280.888 114.949 279.528 112.805 279.528C110.165 279.528 108.165 281.4 108.165 284.376C108.165 287.224 110.133 289.24 112.949 289.24C114.725 289.24 116.805 288.264 117.237 285.448L115.413 285.128C115.205 286.696 114.341 287.496 112.933 287.496C111.061 287.496 110.181 286.072 110.181 284.376C110.181 282.328 111.301 281.256 112.709 281.256C113.989 281.256 115.061 281.944 115.285 283.688L117.253 283.368ZM123.116 279.528C120.62 279.528 118.556 281.352 118.556 284.376C118.556 287.4 120.62 289.24 123.116 289.24C125.612 289.24 127.676 287.4 127.676 284.376C127.676 281.352 125.612 279.528 123.116 279.528ZM123.116 281.256C124.492 281.256 125.66 282.264 125.66 284.376C125.66 286.488 124.492 287.512 123.116 287.512C121.74 287.512 120.572 286.488 120.572 284.376C120.572 282.264 121.74 281.256 123.116 281.256ZM133.935 281.336C135.023 281.336 135.887 281.976 135.887 283.688L135.887 289L137.887 289L137.887 282.824C137.887 280.344 136.319 279.528 134.671 279.528C133.583 279.528 132.319 279.976 131.663 281.144L131.663 279.784L129.663 279.784L129.663 289L131.663 289L131.663 283.736C131.663 282.088 132.607 281.336 133.935 281.336ZM140.174 282.376C140.174 283.656 140.91 284.6 142.478 284.936L144.158 285.304C145.31 285.56 145.63 285.896 145.63 286.44C145.63 287.208 144.878 287.64 143.774 287.64C142.478 287.64 141.63 287.032 141.502 285.896L139.726 286.216C140.03 288.36 142.03 289.24 143.822 289.24C145.598 289.24 147.486 288.248 147.486 286.248C147.486 284.968 146.734 284.104 145.102 283.752L143.278 283.352C142.35 283.144 142.03 282.696 142.03 282.216C142.03 281.544 142.67 281.128 143.582 281.128C144.686 281.128 145.502 281.528 145.566 282.728L147.342 282.408C146.814 280.344 145.422 279.528 143.566 279.528C142.062 279.528 140.174 280.36 140.174 282.376ZM153.492 281.256C154.788 281.256 155.812 281.864 155.972 283.4L150.964 283.4C151.236 281.976 152.164 281.256 153.492 281.256ZM157.86 284.824L157.86 284.168C157.86 281.448 156.068 279.528 153.572 279.528C150.9 279.528 148.868 281.4 148.868 284.36C148.868 287.4 150.98 289.24 153.7 289.24C155.396 289.24 157.444 288.264 157.796 286.136L155.94 285.816C155.732 286.872 155.124 287.512 153.62 287.512C151.956 287.512 151.044 286.44 150.9 284.824L157.86 284.824ZM164.955 279.528C163.387 279.528 162.427 280.52 161.835 281.592L161.835 279.784L159.835 279.784L159.835 292.2L161.835 292.2L161.835 287.256C162.603 288.568 163.595 289.24 164.763 289.24C166.907 289.24 169.003 287.608 169.003 284.248C169.003 281.032 166.827 279.528 164.955 279.528ZM164.411 281.256C165.675 281.256 166.987 282.264 166.987 284.36C166.987 286.488 165.675 287.496 164.395 287.496C163.051 287.496 161.835 286.408 161.835 284.36C161.835 282.216 163.051 281.256 164.411 281.256ZM171.757 277.56L171.757 279.784L170.045 279.784L170.045 281.4L171.757 281.4L171.757 286.408C171.757 288.104 172.605 289.16 174.445 289.16C175.005 289.16 175.661 289.016 176.141 288.872L175.821 287.256C175.453 287.352 175.229 287.4 174.861 287.4C174.045 287.4 173.757 287.032 173.757 286.312L173.757 281.4L176.061 281.4L176.061 279.784L173.757 279.784L173.757 277.24L171.757 277.56ZM177.83 282.376C177.83 283.656 178.566 284.6 180.134 284.936L181.814 285.304C182.966 285.56 183.286 285.896 183.286 286.44C183.286 287.208 182.534 287.64 181.43 287.64C180.134 287.64 179.286 287.032 179.158 285.896L177.382 286.216C177.686 288.36 179.686 289.24 181.478 289.24C183.254 289.24 185.142 288.248 185.142 286.248C185.142 284.968 184.39 284.104 182.758 283.752L180.934 283.352C180.006 283.144 179.686 282.696 179.686 282.216C179.686 281.544 180.326 281.128 181.238 281.128C182.342 281.128 183.158 281.528 183.222 282.728L184.998 282.408C184.47 280.344 183.078 279.528 181.222 279.528C179.718 279.528 177.83 280.36 177.83 282.376Z" fill="#FF5B24"/>
<path d="M414.818 259L414.818 266.696C414.818 268.6 413.714 269.192 412.194 269.192C410.674 269.192 409.57 268.6 409.57 266.696L409.57 259L407.474 259L407.474 266.792C407.474 269.832 409.602 271.24 412.194 271.24C414.786 271.24 416.914 269.832 416.914 266.792L416.914 259L414.818 259ZM419.221 264.376C419.221 265.656 419.957 266.6 421.525 266.936L423.205 267.304C424.357 267.56 424.677 267.896 424.677 268.44C424.677 269.208 423.925 269.64 422.821 269.64C421.525 269.64 420.677 269.032 420.549 267.896L418.773 268.216C419.077 270.36 421.077 271.24 422.869 271.24C424.645 271.24 426.533 270.248 426.533 268.248C426.533 266.968 425.781 266.104 424.149 265.752L422.325 265.352C421.397 265.144 421.077 264.696 421.077 264.216C421.077 263.544 421.717 263.128 422.629 263.128C423.733 263.128 424.549 263.528 424.613 264.728L426.389 264.408C425.861 262.344 424.469 261.528 422.613 261.528C421.109 261.528 419.221 262.36 419.221 264.376ZM432.539 263.256C433.835 263.256 434.859 263.864 435.019 265.4L430.011 265.4C430.283 263.976 431.211 263.256 432.539 263.256ZM436.907 266.824L436.907 266.168C436.907 263.448 435.115 261.528 432.619 261.528C429.947 261.528 427.915 263.4 427.915 266.36C427.915 269.4 430.027 271.24 432.747 271.24C434.443 271.24 436.491 270.264 436.843 268.136L434.987 267.816C434.779 268.872 434.171 269.512 432.667 269.512C431.003 269.512 430.091 268.44 429.947 266.824L436.907 266.824ZM443.298 263.688C443.794 263.688 444.146 263.752 444.498 263.896L444.69 261.656C444.498 261.56 444.226 261.528 443.986 261.528C443.074 261.528 441.634 262.056 440.882 263.992L440.882 261.784L438.882 261.784L438.882 271L440.882 271L440.882 266.968C440.882 264.408 442.002 263.688 443.298 263.688ZM459.019 265.368C458.683 262.888 456.715 261.528 454.571 261.528C451.931 261.528 449.931 263.4 449.931 266.376C449.931 269.224 451.899 271.24 454.715 271.24C456.491 271.24 458.571 270.264 459.003 267.448L457.179 267.128C456.971 268.696 456.107 269.496 454.699 269.496C452.827 269.496 451.947 268.072 451.947 266.376C451.947 264.328 453.067 263.256 454.475 263.256C455.755 263.256 456.827 263.944 457.051 265.688L459.019 265.368ZM460.897 258.6L460.897 271L462.897 271L462.897 265.736C462.897 264.088 463.841 263.336 465.185 263.336C466.257 263.336 467.121 263.976 467.121 265.688L467.121 271L469.121 271L469.121 264.824C469.121 262.344 467.601 261.528 465.841 261.528C464.865 261.528 463.553 261.96 462.897 263.144L462.897 258.6L460.897 258.6ZM475.584 261.528C473.088 261.528 471.024 263.352 471.024 266.376C471.024 269.4 473.088 271.24 475.584 271.24C478.08 271.24 480.144 269.4 480.144 266.376C480.144 263.352 478.08 261.528 475.584 261.528ZM475.584 263.256C476.96 263.256 478.128 264.264 478.128 266.376C478.128 268.488 476.96 269.512 475.584 269.512C474.208 269.512 473.04 268.488 473.04 266.376C473.04 264.264 474.208 263.256 475.584 263.256ZM486.116 261.528C483.62 261.528 481.556 263.352 481.556 266.376C481.556 269.4 483.62 271.24 486.116 271.24C488.612 271.24 490.676 269.4 490.676 266.376C490.676 263.352 488.612 261.528 486.116 261.528ZM486.116 263.256C487.492 263.256 488.66 264.264 488.66 266.376C488.66 268.488 487.492 269.512 486.116 269.512C484.74 269.512 483.572 268.488 483.572 266.376C483.572 264.264 484.74 263.256 486.116 263.256ZM492.471 264.376C492.471 265.656 493.207 266.6 494.775 266.936L496.455 267.304C497.607 267.56 497.927 267.896 497.927 268.44C497.927 269.208 497.175 269.64 496.071 269.64C494.775 269.64 493.927 269.032 493.799 267.896L492.023 268.216C492.327 270.36 494.327 271.24 496.119 271.24C497.895 271.24 499.783 270.248 499.783 268.248C499.783 266.968 499.031 266.104 497.399 265.752L495.575 265.352C494.647 265.144 494.327 264.696 494.327 264.216C494.327 263.544 494.967 263.128 495.879 263.128C496.983 263.128 497.799 263.528 497.863 264.728L499.639 264.408C499.111 262.344 497.719 261.528 495.863 261.528C494.359 261.528 492.471 262.36 492.471 264.376ZM505.789 263.256C507.085 263.256 508.109 263.864 508.269 265.4L503.261 265.4C503.533 263.976 504.461 263.256 505.789 263.256ZM510.157 266.824L510.157 266.168C510.157 263.448 508.365 261.528 505.869 261.528C503.197 261.528 501.165 263.4 501.165 266.36C501.165 269.4 503.277 271.24 505.997 271.24C507.693 271.24 509.741 270.264 510.093 268.136L508.237 267.816C508.029 268.872 507.421 269.512 505.917 269.512C504.253 269.512 503.341 268.44 503.197 266.824L510.157 266.824ZM516.444 258.6L516.444 271L518.444 271L518.444 258.6L516.444 258.6ZM524.991 261.528C522.495 261.528 520.431 263.352 520.431 266.376C520.431 269.4 522.495 271.24 524.991 271.24C527.487 271.24 529.551 269.4 529.551 266.376C529.551 263.352 527.487 261.528 524.991 261.528ZM524.991 263.256C526.367 263.256 527.535 264.264 527.535 266.376C527.535 268.488 526.367 269.512 524.991 269.512C523.615 269.512 522.447 268.488 522.447 266.376C522.447 264.264 523.615 263.256 524.991 263.256ZM534.93 270.472C536.546 270.472 537.394 269.416 537.89 268.408L537.89 269.784C537.89 271.736 537.074 272.536 535.298 272.536C534.178 272.536 533.106 272.216 532.93 270.888L530.994 271.208C531.458 273.544 533.554 274.328 535.218 274.328C538.162 274.328 539.89 272.792 539.89 269.704L539.89 261.768L537.89 261.768L537.89 263.56C537.186 262.136 536.306 261.528 535.09 261.528C533.01 261.528 531.042 262.936 531.042 265.864C531.042 269 533.042 270.472 534.93 270.472ZM535.442 263.256C536.786 263.256 537.89 264.232 537.89 265.992C537.89 267.848 536.786 268.728 535.442 268.728C534.146 268.728 533.058 267.848 533.058 265.976C533.058 264.168 534.194 263.256 535.442 263.256ZM542.444 261.784L542.444 271L544.444 271L544.444 261.784L542.444 261.784ZM543.436 257.8C542.764 257.8 542.236 258.344 542.236 259C542.236 259.656 542.764 260.2 543.436 260.2C544.108 260.2 544.636 259.656 544.636 259C544.636 258.344 544.108 257.8 543.436 257.8ZM551.279 263.336C552.367 263.336 553.231 263.976 553.231 265.688L553.231 271L555.231 271L555.231 264.824C555.231 262.344 553.663 261.528 552.015 261.528C550.927 261.528 549.663 261.976 549.007 263.144L549.007 261.784L547.007 261.784L547.007 271L549.007 271L549.007 265.736C549.007 264.088 549.951 263.336 551.279 263.336ZM454.505 288.784L452.281 288.784L450.313 295.504L448.089 288.784L446.601 288.784L444.393 295.472L442.409 288.784L440.185 288.784L443.497 298L445.225 298L447.353 292.176L449.465 298L451.193 298L454.505 288.784ZM456.022 288.784L456.022 298L458.022 298L458.022 288.784L456.022 288.784ZM457.014 284.8C456.342 284.8 455.814 285.344 455.814 286C455.814 286.656 456.342 287.2 457.014 287.2C457.686 287.2 458.214 286.656 458.214 286C458.214 285.344 457.686 284.8 457.014 284.8ZM461.289 286.56L461.289 288.784L459.577 288.784L459.577 290.4L461.289 290.4L461.289 295.408C461.289 297.104 462.137 298.16 463.977 298.16C464.537 298.16 465.193 298.016 465.673 297.872L465.353 296.256C464.985 296.352 464.761 296.4 464.393 296.4C463.577 296.4 463.289 296.032 463.289 295.312L463.289 290.4L465.593 290.4L465.593 288.784L463.289 288.784L463.289 286.24L461.289 286.56ZM467.553 285.6L467.553 298L469.553 298L469.553 292.736C469.553 291.088 470.497 290.336 471.841 290.336C472.913 290.336 473.777 290.976 473.777 292.688L473.777 298L475.777 298L475.777 291.824C475.777 289.344 474.257 288.528 472.497 288.528C471.521 288.528 470.209 288.96 469.553 290.144L469.553 285.6L467.553 285.6ZM490.729 288.784L488.505 288.784L486.137 295.744L483.753 288.784L481.529 288.784L485.209 298L487.049 298L490.729 288.784ZM492.257 288.784L492.257 298L494.257 298L494.257 288.784L492.257 288.784ZM493.249 284.8C492.577 284.8 492.049 285.344 492.049 286C492.049 286.656 492.577 287.2 493.249 287.2C493.921 287.2 494.449 286.656 494.449 286C494.449 285.344 493.921 284.8 493.249 284.8ZM501.939 288.528C500.371 288.528 499.411 289.52 498.819 290.592L498.819 288.784L496.819 288.784L496.819 301.2L498.819 301.2L498.819 296.256C499.587 297.568 500.579 298.24 501.747 298.24C503.891 298.24 505.987 296.608 505.987 293.248C505.987 290.032 503.811 288.528 501.939 288.528ZM501.395 290.256C502.659 290.256 503.971 291.264 503.971 293.36C503.971 295.488 502.659 296.496 501.379 296.496C500.035 296.496 498.819 295.408 498.819 293.36C498.819 291.216 500.035 290.256 501.395 290.256ZM513.158 288.528C511.59 288.528 510.63 289.52 510.038 290.592L510.038 288.784L508.038 288.784L508.038 301.2L510.038 301.2L510.038 296.256C510.806 297.568 511.798 298.24 512.966 298.24C515.11 298.24 517.206 296.608 517.206 293.248C517.206 290.032 515.03 288.528 513.158 288.528ZM512.614 290.256C513.878 290.256 515.19 291.264 515.19 293.36C515.19 295.488 513.878 296.496 512.598 296.496C511.254 296.496 510.038 295.408 510.038 293.36C510.038 291.216 511.254 290.256 512.614 290.256ZM519.065 291.376C519.065 292.656 519.801 293.6 521.369 293.936L523.049 294.304C524.201 294.56 524.521 294.896 524.521 295.44C524.521 296.208 523.769 296.64 522.665 296.64C521.369 296.64 520.521 296.032 520.393 294.896L518.617 295.216C518.921 297.36 520.921 298.24 522.713 298.24C524.489 298.24 526.377 297.248 526.377 295.248C526.377 293.968 525.625 293.104 523.993 292.752L522.169 292.352C521.241 292.144 520.921 291.696 520.921 291.216C520.921 290.544 521.561 290.128 522.473 290.128C523.577 290.128 524.393 290.528 524.457 291.728L526.233 291.408C525.705 289.344 524.313 288.528 522.457 288.528C520.953 288.528 519.065 289.36 519.065 291.376Z" fill="#FF5B24"/>
<path d="M609.833 261L609.833 268.696C609.833 270.6 608.729 271.192 607.209 271.192C605.689 271.192 604.585 270.6 604.585 268.696L604.585 261L602.489 261L602.489 268.792C602.489 271.832 604.617 273.24 607.209 273.24C609.801 273.24 611.929 271.832 611.929 268.792L611.929 261L609.833 261ZM614.236 266.376C614.236 267.656 614.972 268.6 616.54 268.936L618.22 269.304C619.372 269.56 619.692 269.896 619.692 270.44C619.692 271.208 618.94 271.64 617.836 271.64C616.54 271.64 615.692 271.032 615.564 269.896L613.788 270.216C614.092 272.36 616.092 273.24 617.884 273.24C619.66 273.24 621.548 272.248 621.548 270.248C621.548 268.968 620.796 268.104 619.164 267.752L617.34 267.352C616.412 267.144 616.092 266.696 616.092 266.216C616.092 265.544 616.732 265.128 617.644 265.128C618.748 265.128 619.564 265.528 619.628 266.728L621.404 266.408C620.876 264.344 619.484 263.528 617.628 263.528C616.124 263.528 614.236 264.36 614.236 266.376ZM627.555 265.256C628.851 265.256 629.875 265.864 630.035 267.4L625.027 267.4C625.299 265.976 626.227 265.256 627.555 265.256ZM631.923 268.824L631.923 268.168C631.923 265.448 630.131 263.528 627.635 263.528C624.963 263.528 622.931 265.4 622.931 268.36C622.931 271.4 625.043 273.24 627.763 273.24C629.459 273.24 631.507 272.264 631.859 270.136L630.003 269.816C629.795 270.872 629.187 271.512 627.683 271.512C626.019 271.512 625.107 270.44 624.963 268.824L631.923 268.824ZM638.313 265.688C638.809 265.688 639.161 265.752 639.513 265.896L639.705 263.656C639.513 263.56 639.241 263.528 639.001 263.528C638.089 263.528 636.649 264.056 635.897 265.992L635.897 263.784L633.897 263.784L633.897 273L635.897 273L635.897 268.968C635.897 266.408 637.017 265.688 638.313 265.688ZM654.034 267.368C653.698 264.888 651.73 263.528 649.586 263.528C646.946 263.528 644.946 265.4 644.946 268.376C644.946 271.224 646.914 273.24 649.73 273.24C651.506 273.24 653.586 272.264 654.018 269.448L652.194 269.128C651.986 270.696 651.122 271.496 649.714 271.496C647.842 271.496 646.962 270.072 646.962 268.376C646.962 266.328 648.082 265.256 649.49 265.256C650.77 265.256 651.842 265.944 652.066 267.688L654.034 267.368ZM659.897 263.528C657.401 263.528 655.337 265.352 655.337 268.376C655.337 271.4 657.401 273.24 659.897 273.24C662.393 273.24 664.457 271.4 664.457 268.376C664.457 265.352 662.393 263.528 659.897 263.528ZM659.897 265.256C661.273 265.256 662.441 266.264 662.441 268.376C662.441 270.488 661.273 271.512 659.897 271.512C658.521 271.512 657.353 270.488 657.353 268.376C657.353 266.264 658.521 265.256 659.897 265.256ZM670.716 265.336C671.804 265.336 672.668 265.976 672.668 267.688L672.668 273L674.668 273L674.668 266.824C674.668 264.344 673.1 263.528 671.452 263.528C670.364 263.528 669.1 263.976 668.444 265.144L668.444 263.784L666.444 263.784L666.444 273L668.444 273L668.444 267.736C668.444 266.088 669.388 265.336 670.716 265.336ZM677.675 273L679.675 273L679.675 265.4L681.963 265.4L681.963 263.784L679.675 263.784L679.675 263.416C679.675 262.536 679.931 262.072 680.779 262.072C681.003 262.072 681.195 262.088 681.387 262.12L681.531 260.424C681.275 260.344 680.939 260.296 680.555 260.296C678.827 260.296 677.675 261.384 677.675 263.432L677.675 263.784L676.411 263.784L676.411 265.4L677.675 265.4L677.675 273ZM683.382 263.784L683.382 273L685.382 273L685.382 263.784L683.382 263.784ZM684.374 259.8C683.702 259.8 683.174 260.344 683.174 261C683.174 261.656 683.702 262.2 684.374 262.2C685.046 262.2 685.574 261.656 685.574 261C685.574 260.344 685.046 259.8 684.374 259.8ZM692.36 265.688C692.856 265.688 693.208 265.752 693.56 265.896L693.752 263.656C693.56 263.56 693.288 263.528 693.048 263.528C692.136 263.528 690.696 264.056 689.944 265.992L689.944 263.784L687.944 263.784L687.944 273L689.944 273L689.944 268.968C689.944 266.408 691.064 265.688 692.36 265.688ZM705.449 265.336C706.585 265.336 707.449 265.976 707.449 267.688L707.449 273L709.449 273L709.449 266.824C709.449 264.344 707.929 263.528 706.249 263.528C705.225 263.528 703.929 263.944 703.241 265.32C702.745 264.008 701.577 263.528 700.345 263.528C699.241 263.528 697.913 263.96 697.257 265.144L697.257 263.784L695.257 263.784L695.257 273L697.257 273L697.257 267.736C697.257 266.088 698.201 265.336 699.481 265.336C700.617 265.336 701.481 265.976 701.481 267.688L701.481 273L703.481 273L703.481 267.736C703.481 266.088 704.313 265.336 705.449 265.336ZM711.736 266.376C711.736 267.656 712.472 268.6 714.04 268.936L715.72 269.304C716.872 269.56 717.192 269.896 717.192 270.44C717.192 271.208 716.44 271.64 715.336 271.64C714.04 271.64 713.192 271.032 713.064 269.896L711.288 270.216C711.592 272.36 713.592 273.24 715.384 273.24C717.16 273.24 719.048 272.248 719.048 270.248C719.048 268.968 718.296 268.104 716.664 267.752L714.84 267.352C713.912 267.144 713.592 266.696 713.592 266.216C713.592 265.544 714.232 265.128 715.144 265.128C716.248 265.128 717.064 265.528 717.128 266.728L718.904 266.408C718.376 264.344 716.984 263.528 715.128 263.528C713.624 263.528 711.736 264.36 711.736 266.376Z" fill="#FF5B24"/>
<path d="M778.43 266.488L778.414 266.616C778.222 268.136 776.99 269.192 775.102 269.192C773.118 269.192 771.134 268.008 771.134 265.048C771.134 262.232 772.782 260.808 774.99 260.808C776.67 260.808 778.094 261.448 778.366 263.448L780.478 263.128C780.014 259.784 777.118 258.76 775.118 258.76C771.534 258.76 768.878 261.336 768.878 265.048C768.878 268.6 771.486 271.24 774.526 271.24C776.462 271.24 777.838 270.04 778.478 268.76L778.494 268.76L778.862 271L780.638 271L780.638 264.6L775.278 264.6L775.278 266.488L778.43 266.488ZM787.265 263.256C788.561 263.256 789.585 263.864 789.745 265.4L784.737 265.4C785.009 263.976 785.937 263.256 787.265 263.256ZM791.633 266.824L791.633 266.168C791.633 263.448 789.841 261.528 787.345 261.528C784.673 261.528 782.641 263.4 782.641 266.36C782.641 269.4 784.753 271.24 787.473 271.24C789.169 271.24 791.217 270.264 791.569 268.136L789.713 267.816C789.505 268.872 788.897 269.512 787.393 269.512C785.729 269.512 784.817 268.44 784.673 266.824L791.633 266.824ZM794.312 259.56L794.312 261.784L792.6 261.784L792.6 263.4L794.312 263.4L794.312 268.408C794.312 270.104 795.16 271.16 797 271.16C797.56 271.16 798.216 271.016 798.696 270.872L798.376 269.256C798.008 269.352 797.784 269.4 797.416 269.4C796.6 269.4 796.312 269.032 796.312 268.312L796.312 263.4L798.616 263.4L798.616 261.784L796.312 261.784L796.312 259.24L794.312 259.56ZM804.889 261.784L804.889 271L806.889 271L806.889 261.784L804.889 261.784ZM805.881 257.8C805.209 257.8 804.681 258.344 804.681 259C804.681 259.656 805.209 260.2 805.881 260.2C806.553 260.2 807.081 259.656 807.081 259C807.081 258.344 806.553 257.8 805.881 257.8ZM813.724 263.336C814.812 263.336 815.676 263.976 815.676 265.688L815.676 271L817.676 271L817.676 264.824C817.676 262.344 816.108 261.528 814.46 261.528C813.372 261.528 812.108 261.976 811.452 263.144L811.452 261.784L809.452 261.784L809.452 271L811.452 271L811.452 265.736C811.452 264.088 812.396 263.336 813.724 263.336ZM820.683 271L822.683 271L822.683 263.4L824.971 263.4L824.971 261.784L822.683 261.784L822.683 261.416C822.683 260.472 823.131 259.976 823.947 259.976C824.379 259.976 824.747 260.04 825.131 260.152L825.403 258.6C824.955 258.44 824.411 258.296 823.739 258.296C821.899 258.296 820.683 259.48 820.683 261.432L820.683 261.784L819.419 261.784L819.419 263.4L820.683 263.4L820.683 271ZM830.373 261.528C827.877 261.528 825.813 263.352 825.813 266.376C825.813 269.4 827.877 271.24 830.373 271.24C832.869 271.24 834.933 269.4 834.933 266.376C834.933 263.352 832.869 261.528 830.373 261.528ZM830.373 263.256C831.749 263.256 832.917 264.264 832.917 266.376C832.917 268.488 831.749 269.512 830.373 269.512C828.997 269.512 827.829 268.488 827.829 266.376C827.829 264.264 828.997 263.256 830.373 263.256ZM841.337 263.688C841.833 263.688 842.185 263.752 842.537 263.896L842.729 261.656C842.537 261.56 842.265 261.528 842.025 261.528C841.113 261.528 839.673 262.056 838.921 263.992L838.921 261.784L836.921 261.784L836.921 271L838.921 271L838.921 266.968C838.921 264.408 840.041 263.688 841.337 263.688ZM854.425 263.336C855.561 263.336 856.425 263.976 856.425 265.688L856.425 271L858.425 271L858.425 264.824C858.425 262.344 856.905 261.528 855.225 261.528C854.201 261.528 852.905 261.944 852.217 263.32C851.721 262.008 850.553 261.528 849.321 261.528C848.217 261.528 846.889 261.96 846.233 263.144L846.233 261.784L844.233 261.784L844.233 271L846.233 271L846.233 265.736C846.233 264.088 847.177 263.336 848.457 263.336C849.593 263.336 850.457 263.976 850.457 265.688L850.457 271L852.457 271L852.457 265.736C852.457 264.088 853.289 263.336 854.425 263.336ZM864.441 271.24C866.089 271.24 867.097 270.232 867.561 269.096L867.561 271L869.561 271L869.561 261.784L867.561 261.784L867.561 263.592C866.905 262.136 865.897 261.528 864.457 261.528C862.521 261.528 860.393 263.08 860.393 266.296C860.393 269.672 862.537 271.24 864.441 271.24ZM865.001 263.256C866.345 263.256 867.561 264.28 867.561 266.408C867.561 268.6 866.345 269.496 864.985 269.496C863.721 269.496 862.409 268.552 862.409 266.408C862.409 264.232 863.737 263.256 865.001 263.256ZM872.828 259.56L872.828 261.784L871.116 261.784L871.116 263.4L872.828 263.4L872.828 268.408C872.828 270.104 873.676 271.16 875.516 271.16C876.076 271.16 876.732 271.016 877.212 270.872L876.892 269.256C876.524 269.352 876.3 269.4 875.932 269.4C875.116 269.4 874.828 269.032 874.828 268.312L874.828 263.4L877.132 263.4L877.132 261.784L874.828 261.784L874.828 259.24L872.828 259.56ZM879.092 261.784L879.092 271L881.092 271L881.092 261.784L879.092 261.784ZM880.084 257.8C879.412 257.8 878.884 258.344 878.884 259C878.884 259.656 879.412 260.2 880.084 260.2C880.756 260.2 881.284 259.656 881.284 259C881.284 258.344 880.756 257.8 880.084 257.8ZM887.639 261.528C885.143 261.528 883.079 263.352 883.079 266.376C883.079 269.4 885.143 271.24 887.639 271.24C890.135 271.24 892.199 269.4 892.199 266.376C892.199 263.352 890.135 261.528 887.639 261.528ZM887.639 263.256C889.015 263.256 890.183 264.264 890.183 266.376C890.183 268.488 889.015 269.512 887.639 269.512C886.263 269.512 885.095 268.488 885.095 266.376C885.095 264.264 886.263 263.256 887.639 263.256ZM898.458 263.336C899.546 263.336 900.41 263.976 900.41 265.688L900.41 271L902.41 271L902.41 264.824C902.41 262.344 900.842 261.528 899.194 261.528C898.106 261.528 896.842 261.976 896.186 263.144L896.186 261.784L894.186 261.784L894.186 271L896.186 271L896.186 265.736C896.186 264.088 897.13 263.336 898.458 263.336ZM796.597 298.24C798.245 298.24 799.253 297.232 799.717 296.096L799.717 298L801.717 298L801.717 288.784L799.717 288.784L799.717 290.592C799.061 289.136 798.053 288.528 796.613 288.528C794.677 288.528 792.549 290.08 792.549 293.296C792.549 296.672 794.693 298.24 796.597 298.24ZM797.157 290.256C798.501 290.256 799.717 291.28 799.717 293.408C799.717 295.6 798.501 296.496 797.141 296.496C795.877 296.496 794.565 295.552 794.565 293.408C794.565 291.232 795.893 290.256 797.157 290.256ZM804.28 285.6L804.28 298L806.28 298L806.28 296.48C806.936 297.552 807.96 298.24 809.208 298.24C811.352 298.24 813.448 296.608 813.448 293.248C813.448 290.032 811.272 288.528 809.4 288.528C807.768 288.528 806.792 289.536 806.28 290.384L806.28 285.6L804.28 285.6ZM808.856 290.256C810.12 290.256 811.432 291.264 811.432 293.36C811.432 295.488 810.104 296.496 808.84 296.496C807.496 296.496 806.28 295.408 806.28 293.36C806.28 291.216 807.496 290.256 808.856 290.256ZM819.483 288.528C816.987 288.528 814.923 290.352 814.923 293.376C814.923 296.4 816.987 298.24 819.483 298.24C821.979 298.24 824.043 296.4 824.043 293.376C824.043 290.352 821.979 288.528 819.483 288.528ZM819.483 290.256C820.859 290.256 822.027 291.264 822.027 293.376C822.027 295.488 820.859 296.512 819.483 296.512C818.107 296.512 816.939 295.488 816.939 293.376C816.939 291.264 818.107 290.256 819.483 290.256ZM834.206 298L834.206 288.784L832.206 288.784L832.206 294.144C832.206 295.712 831.166 296.432 829.822 296.432C828.59 296.432 827.982 295.888 827.982 294.464L827.982 288.784L825.982 288.784L825.982 295.216C825.982 297.344 827.518 298.24 829.054 298.24C830.206 298.24 831.486 297.712 832.206 296.448L832.206 298L834.206 298ZM837.437 286.56L837.437 288.784L835.725 288.784L835.725 290.4L837.437 290.4L837.437 295.408C837.437 297.104 838.285 298.16 840.125 298.16C840.685 298.16 841.341 298.016 841.821 297.872L841.501 296.256C841.133 296.352 840.909 296.4 840.541 296.4C839.725 296.4 839.437 296.032 839.437 295.312L839.437 290.4L841.741 290.4L841.741 288.784L839.437 288.784L839.437 286.24L837.437 286.56ZM856.19 298L856.19 288.784L854.19 288.784L854.19 294.144C854.19 295.712 853.15 296.432 851.806 296.432C850.574 296.432 849.966 295.888 849.966 294.464L849.966 288.784L847.966 288.784L847.966 295.216C847.966 297.344 849.502 298.24 851.038 298.24C852.19 298.24 853.47 297.712 854.19 296.448L854.19 298L856.19 298ZM858.525 291.376C858.525 292.656 859.261 293.6 860.829 293.936L862.509 294.304C863.661 294.56 863.981 294.896 863.981 295.44C863.981 296.208 863.229 296.64 862.125 296.64C860.829 296.64 859.981 296.032 859.853 294.896L858.077 295.216C858.381 297.36 860.381 298.24 862.173 298.24C863.949 298.24 865.837 297.248 865.837 295.248C865.837 293.968 865.085 293.104 863.453 292.752L861.629 292.352C860.701 292.144 860.381 291.696 860.381 291.216C860.381 290.544 861.021 290.128 861.933 290.128C863.037 290.128 863.853 290.528 863.917 291.728L865.693 291.408C865.165 289.344 863.773 288.528 861.917 288.528C860.413 288.528 858.525 289.36 858.525 291.376ZM871.844 290.256C873.14 290.256 874.164 290.864 874.324 292.4L869.316 292.4C869.588 290.976 870.516 290.256 871.844 290.256ZM876.212 293.824L876.212 293.168C876.212 290.448 874.42 288.528 871.924 288.528C869.252 288.528 867.22 290.4 867.22 293.36C867.22 296.4 869.332 298.24 872.052 298.24C873.748 298.24 875.796 297.264 876.148 295.136L874.292 294.816C874.084 295.872 873.476 296.512 871.972 296.512C870.308 296.512 869.396 295.44 869.252 293.824L876.212 293.824ZM882.602 290.688C883.098 290.688 883.45 290.752 883.802 290.896L883.994 288.656C883.802 288.56 883.53 288.528 883.29 288.528C882.378 288.528 880.938 289.056 880.186 290.992L880.186 288.784L878.186 288.784L878.186 298L880.186 298L880.186 293.968C880.186 291.408 881.306 290.688 882.602 290.688Z" fill="#FF5B24"/>
<path d="M285.092 261.288C284.612 258.344 282.084 256.76 279.572 256.76C276.148 256.76 273.316 259.24 273.316 262.92C273.316 266.856 276.18 269.24 279.62 269.24C281.94 269.24 284.836 267.688 285.188 264.392L283.028 264.072C282.852 266.456 281.22 267.192 279.62 267.192C277.348 267.192 275.572 265.896 275.572 262.92C275.572 260.216 277.348 258.808 279.492 258.808C280.964 258.808 282.58 259.416 282.932 261.608L285.092 261.288ZM287.264 256.6V269H289.264V256.6H287.264ZM291.827 259.784V269H293.827V259.784H291.827ZM292.819 255.8C292.147 255.8 291.619 256.344 291.619 257C291.619 257.656 292.147 258.2 292.819 258.2C293.491 258.2 294.019 257.656 294.019 257C294.019 256.344 293.491 255.8 292.819 255.8ZM300.437 261.256C301.733 261.256 302.757 261.864 302.917 263.4H297.909C298.181 261.976 299.109 261.256 300.437 261.256ZM304.805 264.824V264.168C304.805 261.448 303.013 259.528 300.517 259.528C297.845 259.528 295.813 261.4 295.813 264.36C295.813 267.4 297.925 269.24 300.645 269.24C302.341 269.24 304.389 268.264 304.741 266.136L302.885 265.816C302.677 266.872 302.069 267.512 300.565 267.512C298.901 267.512 297.989 266.44 297.845 264.824H304.805ZM311.052 261.336C312.14 261.336 313.004 261.976 313.004 263.688V269H315.004V262.824C315.004 260.344 313.436 259.528 311.788 259.528C310.7 259.528 309.436 259.976 308.78 261.144V259.784H306.78V269H308.78V263.736C308.78 262.088 309.724 261.336 311.052 261.336ZM318.187 257.56V259.784H316.475V261.4H318.187V266.408C318.187 268.104 319.035 269.16 320.875 269.16C321.435 269.16 322.091 269.016 322.571 268.872L322.251 267.256C321.883 267.352 321.659 267.4 321.291 267.4C320.475 267.4 320.187 267.032 320.187 266.312V261.4H322.491V259.784H320.187V257.24L318.187 257.56ZM252.128 283.368C251.792 280.888 249.824 279.528 247.68 279.528C245.04 279.528 243.04 281.4 243.04 284.376C243.04 287.224 245.008 289.24 247.824 289.24C249.6 289.24 251.68 288.264 252.112 285.448L250.288 285.128C250.08 286.696 249.216 287.496 247.808 287.496C245.936 287.496 245.056 286.072 245.056 284.376C245.056 282.328 246.176 281.256 247.584 281.256C248.864 281.256 249.936 281.944 250.16 283.688L252.128 283.368ZM257.991 279.528C255.495 279.528 253.431 281.352 253.431 284.376C253.431 287.4 255.495 289.24 257.991 289.24C260.487 289.24 262.551 287.4 262.551 284.376C262.551 281.352 260.487 279.528 257.991 279.528ZM257.991 281.256C259.367 281.256 260.535 282.264 260.535 284.376C260.535 286.488 259.367 287.512 257.991 287.512C256.615 287.512 255.447 286.488 255.447 284.376C255.447 282.264 256.615 281.256 257.991 281.256ZM268.81 281.336C269.898 281.336 270.762 281.976 270.762 283.688V289H272.762V282.824C272.762 280.344 271.194 279.528 269.546 279.528C268.458 279.528 267.194 279.976 266.538 281.144V279.784H264.538V289H266.538V283.736C266.538 282.088 267.482 281.336 268.81 281.336ZM275.769 289H277.769V281.4H280.057V279.784H277.769V279.416C277.769 278.536 278.025 278.072 278.873 278.072C279.097 278.072 279.289 278.088 279.481 278.12L279.625 276.424C279.369 276.344 279.033 276.296 278.649 276.296C276.921 276.296 275.769 277.384 275.769 279.432V279.784H274.505V281.4H275.769V289ZM281.475 279.784V289H283.475V279.784H281.475ZM282.467 275.8C281.795 275.8 281.267 276.344 281.267 277C281.267 277.656 281.795 278.2 282.467 278.2C283.139 278.2 283.667 277.656 283.667 277C283.667 276.344 283.139 275.8 282.467 275.8ZM289.43 288.472C291.046 288.472 291.894 287.416 292.39 286.408V287.784C292.39 289.736 291.574 290.536 289.798 290.536C288.678 290.536 287.606 290.216 287.43 288.888L285.494 289.208C285.958 291.544 288.054 292.328 289.718 292.328C292.662 292.328 294.39 290.792 294.39 287.704V279.768H292.39V281.56C291.686 280.136 290.806 279.528 289.59 279.528C287.51 279.528 285.542 280.936 285.542 283.864C285.542 287 287.542 288.472 289.43 288.472ZM289.942 281.256C291.286 281.256 292.39 282.232 292.39 283.992C292.39 285.848 291.286 286.728 289.942 286.728C288.646 286.728 287.558 285.848 287.558 283.976C287.558 282.168 288.694 281.256 289.942 281.256ZM305.12 289V279.784H303.12V285.144C303.12 286.712 302.08 287.432 300.736 287.432C299.504 287.432 298.896 286.888 298.896 285.464V279.784H296.896V286.216C296.896 288.344 298.432 289.24 299.968 289.24C301.12 289.24 302.4 288.712 303.12 287.448V289H305.12ZM312.063 281.688C312.559 281.688 312.911 281.752 313.263 281.896L313.455 279.656C313.263 279.56 312.991 279.528 312.751 279.528C311.839 279.528 310.399 280.056 309.647 281.992V279.784H307.647V289H309.647V284.968C309.647 282.408 310.767 281.688 312.063 281.688ZM318.496 289.24C320.144 289.24 321.152 288.232 321.616 287.096V289H323.616V279.784H321.616V281.592C320.96 280.136 319.952 279.528 318.512 279.528C316.576 279.528 314.448 281.08 314.448 284.296C314.448 287.672 316.592 289.24 318.496 289.24ZM319.056 281.256C320.4 281.256 321.616 282.28 321.616 284.408C321.616 286.6 320.4 287.496 319.04 287.496C317.776 287.496 316.464 286.552 316.464 284.408C316.464 282.232 317.792 281.256 319.056 281.256ZM326.882 277.56V279.784H325.17V281.4H326.882V286.408C326.882 288.104 327.73 289.16 329.57 289.16C330.13 289.16 330.786 289.016 331.266 288.872L330.946 287.256C330.578 287.352 330.354 287.4 329.986 287.4C329.17 287.4 328.882 287.032 328.882 286.312V281.4H331.186V279.784H328.882V277.24L326.882 277.56ZM333.147 279.784V289H335.147V279.784H333.147ZM334.139 275.8C333.467 275.8 332.939 276.344 332.939 277C332.939 277.656 333.467 278.2 334.139 278.2C334.811 278.2 335.339 277.656 335.339 277C335.339 276.344 334.811 275.8 334.139 275.8ZM341.694 279.528C339.198 279.528 337.134 281.352 337.134 284.376C337.134 287.4 339.198 289.24 341.694 289.24C344.19 289.24 346.254 287.4 346.254 284.376C346.254 281.352 344.19 279.528 341.694 279.528ZM341.694 281.256C343.07 281.256 344.238 282.264 344.238 284.376C344.238 286.488 343.07 287.512 341.694 287.512C340.318 287.512 339.15 286.488 339.15 284.376C339.15 282.264 340.318 281.256 341.694 281.256ZM352.513 281.336C353.601 281.336 354.465 281.976 354.465 283.688V289H356.465V282.824C356.465 280.344 354.897 279.528 353.249 279.528C352.161 279.528 350.897 279.976 350.241 281.144V279.784H348.241V289H350.241V283.736C350.241 282.088 351.185 281.336 352.513 281.336Z" fill="#FF5B24"/>
<path d="M537.833 173.06C537.833 203.887 512.844 228.876 482.016 228.876C451.19 228.876 426.199 203.887 426.199 173.06C426.199 142.233 451.19 117.243 482.016 117.243C512.844 117.243 537.833 142.233 537.833 173.06Z" fill="#EEEDF3"/>
<path d="M486.604 187.163H417.431C415.431 187.163 413.81 185.542 413.81 183.542V129.258C413.81 127.258 415.431 125.637 417.431 125.637H486.604C488.604 125.637 490.225 127.258 490.225 129.258V183.542C490.225 185.542 488.604 187.163 486.604 187.163Z" fill="#C8C5D6"/>
<path d="M486.474 125.637H417.561C415.489 125.637 413.81 127.316 413.81 129.387V134.668H490.225V129.387C490.225 127.316 488.546 125.637 486.474 125.637Z" fill="#48367D"/>
<path d="M423.193 130.189C423.193 131.224 422.354 132.064 421.319 132.064C420.283 132.064 419.443 131.224 419.443 130.189C419.443 129.153 420.283 128.313 421.319 128.313C422.354 128.313 423.193 129.153 423.193 130.189Z" fill="white"/>
<path d="M429.347 130.153C429.347 131.188 428.508 132.028 427.473 132.028C426.437 132.028 425.597 131.188 425.597 130.153C425.597 129.117 426.437 128.278 427.473 128.278C428.508 128.278 429.347 129.117 429.347 130.153Z" fill="white"/>
<path d="M435.599 130.153C435.599 131.188 434.76 132.028 433.725 132.028C432.689 132.028 431.849 131.188 431.849 130.153C431.849 129.117 432.689 128.278 433.725 128.278C434.76 128.278 435.599 129.117 435.599 130.153Z" fill="white"/>
<g filter="url(#filter0_d)">
<rect x="427.106" y="153.339" width="49.98" height="16.15" rx="1.19" fill="#FF5B24"/>
</g>
<path d="M437.97 158.889V163.989H440.983V163.098H438.956V158.889H437.97Z" fill="white"/>
<path d="M443.13 159.963C442.069 159.963 441.192 160.738 441.192 162.024C441.192 163.309 442.069 164.091 443.13 164.091C444.191 164.091 445.068 163.309 445.068 162.024C445.068 160.738 444.191 159.963 443.13 159.963ZM443.13 160.806C443.66 160.806 444.102 161.201 444.102 162.024C444.102 162.846 443.66 163.248 443.13 163.248C442.599 163.248 442.157 162.846 442.157 162.024C442.157 161.201 442.599 160.806 443.13 160.806Z" fill="white"/>
<path d="M447.12 163.764C447.739 163.764 448.106 163.479 448.337 163.139V163.472C448.337 164.227 448.058 164.533 447.378 164.533C446.964 164.533 446.617 164.404 446.447 163.941L445.515 164.077C445.712 165.07 446.603 165.403 447.31 165.403C448.562 165.403 449.296 164.75 449.296 163.438V160.065H448.337V160.541C448.038 160.14 447.637 159.963 447.188 159.963C446.338 159.963 445.536 160.562 445.536 161.806C445.536 163.139 446.352 163.764 447.12 163.764ZM447.406 160.806C447.916 160.806 448.337 161.18 448.337 161.86C448.337 162.574 447.916 162.914 447.406 162.914C446.916 162.914 446.501 162.574 446.501 161.854C446.501 161.16 446.93 160.806 447.406 160.806Z" fill="white"/>
<path d="M451.596 163.764C452.214 163.764 452.582 163.479 452.813 163.139V163.472C452.813 164.227 452.534 164.533 451.854 164.533C451.439 164.533 451.092 164.404 450.922 163.941L449.991 164.077C450.188 165.07 451.079 165.403 451.786 165.403C453.037 165.403 453.772 164.75 453.772 163.438V160.065H452.813V160.541C452.514 160.14 452.112 159.963 451.664 159.963C450.814 159.963 450.011 160.562 450.011 161.806C450.011 163.139 450.827 163.764 451.596 163.764ZM451.881 160.806C452.391 160.806 452.813 161.18 452.813 161.86C452.813 162.574 452.391 162.914 451.881 162.914C451.392 162.914 450.977 162.574 450.977 161.854C450.977 161.16 451.405 160.806 451.881 160.806Z" fill="white"/>
<path d="M456.531 160.072V163.989H457.483V160.072H456.531ZM457.007 158.372C456.687 158.372 456.469 158.59 456.469 158.902C456.469 159.215 456.687 159.433 457.007 159.433C457.326 159.433 457.544 159.215 457.544 158.902C457.544 158.59 457.326 158.372 457.007 158.372Z" fill="white"/>
<path d="M460.172 160.84C460.594 160.84 460.913 161.078 460.913 161.731V163.989H461.872V161.364C461.872 160.31 461.226 159.963 460.546 159.963C460.111 159.963 459.608 160.154 459.336 160.65V160.072H458.377V163.989H459.336V161.752C459.336 161.126 459.689 160.84 460.172 160.84Z" fill="white"/>
<path d="M464.555 160.84C464.976 160.84 465.296 161.078 465.296 161.731V163.989H466.255V161.364C466.255 160.31 465.609 159.963 464.929 159.963C464.494 159.963 463.99 160.154 463.718 160.65V160.072H462.76V163.989H463.718V161.752C463.718 161.126 464.072 160.84 464.555 160.84Z" fill="white"/>
<path d="M519.646 213.02L519.893 211.567L522.76 189.058L509.188 178.904L490.083 184.333L491.857 213.8C500.844 215.959 509.754 215.64 519.646 213.02Z" fill="#FFD3BA"/>
<path d="M494.789 195.991C493.244 194.72 492.566 192.579 493.25 190.574C495.448 184.136 495.744 180.449 495.858 177.223C495.955 174.496 498.245 172.363 500.973 172.46C503.7 172.557 505.833 174.846 505.737 177.574C505.57 182.276 504.974 186.829 502.605 193.768C501.723 196.351 498.914 197.73 496.331 196.848C495.753 196.651 495.235 196.357 494.789 195.991Z" fill="#FFD3BA"/>
<path d="M504.376 194.619C502.786 193.312 502.124 191.09 502.89 189.057C504.212 185.551 504.798 182.316 504.631 179.438C504.474 176.713 506.556 174.377 509.28 174.219C512.005 174.061 514.342 176.142 514.499 178.867C514.746 183.134 513.952 187.736 512.14 192.543C511.177 195.098 508.326 196.388 505.772 195.425C505.252 195.229 504.783 194.953 504.376 194.619Z" fill="#FFD3BA"/>
<path d="M514.679 196.919C512.91 195.866 511.921 193.77 512.372 191.643C513.151 187.98 513.243 184.692 512.645 181.872C512.08 179.202 513.785 176.578 516.456 176.012C519.126 175.446 521.749 177.152 522.315 179.822C523.202 184.004 523.11 188.672 522.042 193.697C521.474 196.367 518.85 198.072 516.18 197.504C515.637 197.389 515.133 197.188 514.679 196.919Z" fill="#FFD3BA"/>
<path d="M490.956 227.262C489.623 217.371 486.303 214.121 485.816 213.468C485.353 212.849 481.025 207.974 479.428 205.072C477.45 201.475 475.119 196.346 477.14 192.152C479.119 188.046 484.066 188.869 487.908 185.801L496.141 182.793C499.411 182.233 502.517 184.429 503.078 187.7C503.639 190.971 501.442 194.077 498.171 194.638L496.549 196.381C495.955 196.624 496.46 198.299 496.615 199.001C497.555 200.678 494.244 203.802 495.778 205.859C497.763 208.518 497.215 212.283 494.556 214.267C492.549 215.765 491.271 229.598 490.956 227.262Z" fill="#FFD3BA"/>
<path fill-rule="evenodd" clip-rule="evenodd" d="M520.204 213.766C512.025 221.441 501.533 226.68 489.886 228.323C489.6 216.254 488.983 205.646 487.733 202.9C484.458 195.701 515.573 205.426 515.573 205.426C515.573 205.426 520.459 193.616 520.204 213.766Z" fill="#FFD3BA"/>
<path d="M478.145 163.861C478.145 163.861 486.376 166.403 489.395 170.537C493.861 176.653 492.486 186.027 488.507 193.019" stroke="#FFD2BA" stroke-width="13.09" stroke-linecap="round" stroke-linejoin="round"/>
<path d="M716.704 172.885C716.704 203.712 691.714 228.702 660.887 228.702C630.06 228.702 605.07 203.712 605.07 172.885C605.07 142.058 630.06 117.068 660.887 117.068C691.714 117.068 716.704 142.058 716.704 172.885Z" fill="#EEEDF3"/>
<path fill-rule="evenodd" clip-rule="evenodd" d="M667.299 228.345C667.289 208.02 667.298 185.606 667.386 180.511C667.734 160.14 687.82 164.48 687.82 164.48L712.183 180.511L712.175 194.954C704.429 212.936 687.503 226.034 667.299 228.345Z" fill="#FFD3BB"/>
<path d="M704.935 186.377L669.598 193.299C666.196 193.965 662.898 191.747 662.232 188.346L648.278 117.108C647.612 113.706 649.83 110.408 653.232 109.742L688.569 102.82C691.971 102.154 695.269 104.372 695.935 107.774L709.889 179.011C710.555 182.412 708.337 185.711 704.935 186.377Z" fill="#FF5A23"/>
<path d="M709.058 174.325L661.401 183.659L649.354 122.155L697.011 112.82L709.058 174.325Z" fill="#FF985F"/>
<path d="M661.458 162.724L648.815 163.707C645.42 163.971 642.454 161.433 642.189 158.037C641.925 154.641 644.464 151.675 647.859 151.411L660.502 150.428C663.897 150.163 666.863 152.702 667.127 156.097C667.392 159.493 664.853 162.459 661.458 162.724Z" fill="#FFD3BB"/>
<path d="M662.511 174.277L649.869 175.26C646.473 175.524 643.507 172.986 643.242 169.59C642.978 166.194 645.516 163.228 648.912 162.964L661.554 161.981C664.95 161.716 667.916 164.255 668.18 167.65C668.445 171.046 665.907 174.012 662.511 174.277Z" fill="#FFD3BB"/>
<path d="M664.635 185.6L651.993 186.584C648.598 186.847 645.63 184.309 645.366 180.914C645.102 177.518 647.641 174.552 651.036 174.288L663.679 173.305C667.074 173.04 670.041 175.579 670.305 178.974C670.569 182.369 668.031 185.336 664.635 185.6Z" fill="#FFD3BB"/>
<path d="M691.355 161.496L676.184 164.467C673.743 164.945 671.377 163.354 670.899 160.914L668.166 146.956C667.688 144.516 669.279 142.15 671.72 141.672L686.891 138.701C689.331 138.223 691.697 139.814 692.175 142.254L694.908 156.212C695.386 158.652 693.795 161.018 691.355 161.496Z" fill="#FFF4EB"/>
<path d="M686.074 144.351L683.831 132.896C683.096 129.142 679.457 126.695 675.702 127.43C671.949 128.165 669.502 131.804 670.237 135.558L670.316 136.093" stroke="#FFF4EB" stroke-width="1.02" stroke-miterlimit="10" stroke-linecap="round"/>
<path fill-rule="evenodd" clip-rule="evenodd" d="M709.328 200.637C708.523 200.951 707.651 201.254 706.71 201.532C699.978 203.523 689.928 194.8 689.928 194.8C689.928 194.8 690.212 191.197 690.686 187.31C691.16 183.422 693.625 179.914 694.858 178.777C689.928 177.734 686.42 176.027 683.86 172.614C681.204 169.072 679.309 165.977 678.835 160.478C678.36 154.979 680.352 152.987 682.722 151.85C685.092 150.712 687.178 151.281 689.454 152.419C691.224 153.304 692.271 156.693 692.488 159.15C692.772 162.374 693.499 163.162 694.953 164.555C696.072 165.627 698.461 165.598 700.073 165.408C701.685 165.218 703.147 165.304 705.951 165.977C708.321 166.546 710.692 168.158 712.683 170.812C714.851 173.703 715.574 177.21 716.049 181.468C714.986 188.354 712.665 194.824 709.328 200.637Z" fill="#FFD3BB"/>
<g clip-path="url(#clip0)">
<path d="M1072.98 297.058C1072.98 327.885 1047.99 352.874 1017.16 352.874C986.335 352.874 961.345 327.885 961.345 297.058C961.345 266.231 986.335 241.241 1017.16 241.241C1047.99 241.241 1072.98 266.231 1072.98 297.058Z" fill="#EEEDF3"/>
<path d="M1050.69 330.249L1004.98 317.617C1003.44 317.192 1002.54 315.6 1002.96 314.063L1021.28 247.778C1021.71 246.239 1023.3 245.338 1024.84 245.762L1070.54 258.395C1072.08 258.82 1072.98 260.412 1072.56 261.949L1054.24 328.234C1053.82 329.772 1052.22 330.674 1050.69 330.249Z" fill="#C8C5D6"/>
<path d="M1051.06 328.863L1004.32 320.895C1002.74 320.627 1001.69 319.134 1001.95 317.562L1013.51 249.77C1013.78 248.197 1015.27 247.139 1016.84 247.407L1063.59 255.374C1065.16 255.642 1066.22 257.135 1065.95 258.708L1054.4 326.5C1054.13 328.073 1052.64 329.131 1051.06 328.863Z" fill="white"/>
<path d="M1036.49 272.015C1029.47 271.061 1023.04 274.738 1021.22 280.431C1020.9 281.424 1021.64 282.386 1022.67 282.526L1047 285.832C1048.03 285.973 1049 285.244 1048.96 284.202C1048.72 278.227 1043.51 272.969 1036.49 272.015Z" fill="#59CBE8"/>
<path d="M1044.31 263.548C1043.89 266.649 1041.03 268.821 1037.93 268.4C1034.83 267.978 1032.66 265.123 1033.08 262.023C1033.5 258.922 1036.36 256.75 1039.46 257.171C1042.56 257.593 1044.73 260.448 1044.31 263.548Z" fill="#59CBE8"/>
<path d="M1015.34 291.484L1047.3 296.186" stroke="#C8C5D6" stroke-width="0.610363" stroke-miterlimit="10" stroke-linecap="round"/>
<path d="M1014.22 298.216L1046.18 302.919" stroke="#C8C5D6" stroke-width="0.610363" stroke-miterlimit="10" stroke-linecap="round"/>
</g>
<g clip-path="url(#clip1)">
<path d="M783.021 173.058C783.021 203.885 808.011 228.874 838.838 228.874C869.665 228.874 894.655 203.885 894.655 173.058C894.655 142.23 869.665 117.241 838.838 117.241C808.011 117.241 783.021 142.23 783.021 173.058Z" fill="#EEEDF3"/>
<path d="M803.484 206.249L849.192 193.616C850.731 193.191 851.632 191.6 851.207 190.062L832.888 123.777C832.463 122.239 830.872 121.337 829.334 121.762L783.626 134.395C782.088 134.82 781.186 136.411 781.61 137.949L799.93 204.234C800.355 205.772 801.947 206.674 803.484 206.249Z" fill="#C8C5D6"/>
<path d="M803.571 204.264L850.562 197.878C852.143 197.663 853.25 196.207 853.035 194.627L843.775 126.483C843.56 124.902 842.104 123.795 840.523 124.01L793.533 130.394C791.952 130.609 790.845 132.065 791.06 133.646L800.32 201.79C800.535 203.371 801.99 204.478 803.571 204.264Z" fill="white"/>
<path d="M819.512 148.013C826.533 147.059 832.957 150.736 834.784 156.43C835.103 157.423 834.363 158.384 833.329 158.524L809.001 161.831C807.967 161.971 806.998 161.243 807.04 160.201C807.282 154.226 812.491 148.967 819.512 148.013Z" fill="#49367E"/>
<path d="M811.691 139.549C812.112 142.65 814.967 144.822 818.068 144.4C821.169 143.979 823.341 141.124 822.919 138.023C822.498 134.923 819.643 132.751 816.542 133.172C813.442 133.593 811.27 136.448 811.691 139.549Z" fill="#49367E"/>
<path d="M840.66 167.48L808.704 172.182" stroke="#C8C5D6" stroke-width="0.610363" stroke-miterlimit="10" stroke-linecap="round"/>
<path d="M841.781 174.214L809.825 178.916" stroke="#C8C5D6" stroke-width="0.610363" stroke-miterlimit="10" stroke-linecap="round"/>
<path d="M815.463 191.186C815.463 191.186 824.356 181.626 825.041 185.496C825.728 189.366 826.759 191.448 831.98 188.21C837.201 184.971 837.484 187.41 837.484 187.41" stroke="#49367E" stroke-width="0.610363" stroke-miterlimit="10" stroke-linecap="round"/>
</g>
<path d="M975.067 389.488L975.051 389.616C974.859 391.136 973.627 392.192 971.739 392.192C969.755 392.192 967.771 391.008 967.771 388.048C967.771 385.232 969.419 383.808 971.627 383.808C973.307 383.808 974.731 384.448 975.003 386.448L977.115 386.128C976.651 382.784 973.755 381.76 971.755 381.76C968.171 381.76 965.515 384.336 965.515 388.048C965.515 391.6 968.123 394.24 971.163 394.24C973.099 394.24 974.475 393.04 975.115 391.76L975.131 391.76L975.499 394L977.275 394L977.275 387.6L971.915 387.6L971.915 389.488L975.067 389.488ZM983.934 386.256C985.23 386.256 986.254 386.864 986.414 388.4L981.406 388.4C981.678 386.976 982.606 386.256 983.934 386.256ZM988.302 389.824L988.302 389.168C988.302 386.448 986.51 384.528 984.014 384.528C981.342 384.528 979.31 386.4 979.31 389.36C979.31 392.4 981.422 394.24 984.142 394.24C985.838 394.24 987.886 393.264 988.238 391.136L986.382 390.816C986.174 391.872 985.566 392.512 984.062 392.512C982.398 392.512 981.486 391.44 981.342 389.824L988.302 389.824ZM991.013 382.56L991.013 384.784L989.301 384.784L989.301 386.4L991.013 386.4L991.013 391.408C991.013 393.104 991.861 394.16 993.701 394.16C994.261 394.16 994.917 394.016 995.397 393.872L995.077 392.256C994.709 392.352 994.485 392.4 994.117 392.4C993.301 392.4 993.013 392.032 993.013 391.312L993.013 386.4L995.317 386.4L995.317 384.784L993.013 384.784L993.013 382.24L991.013 382.56ZM1009.83 394L1009.83 384.784L1007.83 384.784L1007.83 390.144C1007.83 391.712 1006.79 392.432 1005.45 392.432C1004.21 392.432 1003.61 391.888 1003.61 390.464L1003.61 384.784L1001.61 384.784L1001.61 391.216C1001.61 393.344 1003.14 394.24 1004.68 394.24C1005.83 394.24 1007.11 393.712 1007.83 392.448L1007.83 394L1009.83 394ZM1017.51 384.528C1015.94 384.528 1014.98 385.52 1014.39 386.592L1014.39 384.784L1012.39 384.784L1012.39 397.2L1014.39 397.2L1014.39 392.256C1015.16 393.568 1016.15 394.24 1017.32 394.24C1019.46 394.24 1021.56 392.608 1021.56 389.248C1021.56 386.032 1019.38 384.528 1017.51 384.528ZM1016.97 386.256C1018.23 386.256 1019.54 387.264 1019.54 389.36C1019.54 391.488 1018.23 392.496 1016.95 392.496C1015.61 392.496 1014.39 391.408 1014.39 389.36C1014.39 387.216 1015.61 386.256 1016.97 386.256ZM1032.3 381.6L1030.3 381.6L1030.3 386.592C1029.64 385.136 1028.65 384.528 1027.4 384.528C1025.26 384.528 1023.13 386.08 1023.13 389.296C1023.13 392.672 1025.27 394.24 1027.14 394.24C1028.82 394.24 1029.83 393.36 1030.3 392.256L1030.3 394L1032.3 394L1032.3 381.6ZM1027.74 386.256C1029.08 386.256 1030.3 387.328 1030.3 389.408C1030.3 391.552 1029.08 392.496 1027.72 392.496C1026.46 392.496 1025.14 391.504 1025.14 389.408C1025.14 387.28 1026.47 386.256 1027.74 386.256ZM1038.43 394.24C1040.07 394.24 1041.08 393.232 1041.55 392.096L1041.55 394L1043.55 394L1043.55 384.784L1041.55 384.784L1041.55 386.592C1040.89 385.136 1039.88 384.528 1038.44 384.528C1036.51 384.528 1034.38 386.08 1034.38 389.296C1034.38 392.672 1036.52 394.24 1038.43 394.24ZM1038.99 386.256C1040.33 386.256 1041.55 387.28 1041.55 389.408C1041.55 391.6 1040.33 392.496 1038.97 392.496C1037.71 392.496 1036.39 391.552 1036.39 389.408C1036.39 387.232 1037.72 386.256 1038.99 386.256ZM1046.85 382.56L1046.85 384.784L1045.13 384.784L1045.13 386.4L1046.85 386.4L1046.85 391.408C1046.85 393.104 1047.69 394.16 1049.53 394.16C1050.09 394.16 1050.75 394.016 1051.23 393.872L1050.91 392.256C1050.54 392.352 1050.32 392.4 1049.95 392.4C1049.13 392.4 1048.85 392.032 1048.85 391.312L1048.85 386.4L1051.15 386.4L1051.15 384.784L1048.85 384.784L1048.85 382.24L1046.85 382.56ZM1057.19 386.256C1058.49 386.256 1059.51 386.864 1059.67 388.4L1054.66 388.4C1054.93 386.976 1055.86 386.256 1057.19 386.256ZM1061.56 389.824L1061.56 389.168C1061.56 386.448 1059.77 384.528 1057.27 384.528C1054.6 384.528 1052.57 386.4 1052.57 389.36C1052.57 392.4 1054.68 394.24 1057.4 394.24C1059.09 394.24 1061.14 393.264 1061.49 391.136L1059.64 390.816C1059.43 391.872 1058.82 392.512 1057.32 392.512C1055.65 392.512 1054.74 391.44 1054.6 389.824L1061.56 389.824ZM1064.27 382.56L1064.27 384.784L1062.56 384.784L1062.56 386.4L1064.27 386.4L1064.27 391.408C1064.27 393.104 1065.12 394.16 1066.96 394.16C1067.52 394.16 1068.17 394.016 1068.65 393.872L1068.33 392.256C1067.96 392.352 1067.74 392.4 1067.37 392.4C1066.56 392.4 1066.27 392.032 1066.27 391.312L1066.27 386.4L1068.57 386.4L1068.57 384.784L1066.27 384.784L1066.27 382.24L1064.27 382.56ZM968.12 411.784L968.12 421L970.12 421L970.12 411.784L968.12 411.784ZM969.112 407.8C968.44 407.8 967.912 408.344 967.912 409C967.912 409.656 968.44 410.2 969.112 410.2C969.784 410.2 970.312 409.656 970.312 409C970.312 408.344 969.784 407.8 969.112 407.8ZM976.986 413.336C978.074 413.336 978.938 413.976 978.938 415.688L978.938 421L980.938 421L980.939 414.824C980.939 412.344 979.37 411.528 977.722 411.528C976.634 411.528 975.37 411.976 974.714 413.144L974.714 411.784L972.714 411.784L972.714 421L974.714 421L974.714 415.736C974.714 414.088 975.658 413.336 976.986 413.336ZM983.978 421L985.978 421L985.978 413.4L988.266 413.4L988.266 411.784L985.978 411.784L985.978 411.416C985.978 410.472 986.426 409.976 987.242 409.976C987.674 409.976 988.042 410.04 988.426 410.152L988.698 408.6C988.25 408.44 987.706 408.296 987.034 408.296C985.194 408.296 983.978 409.48 983.978 411.432L983.978 411.784L982.714 411.784L982.714 413.4L983.978 413.4L983.978 421ZM993.7 411.528C991.204 411.528 989.14 413.352 989.14 416.376C989.14 419.4 991.204 421.24 993.7 421.24C996.196 421.24 998.26 419.4 998.26 416.376C998.26 413.352 996.196 411.528 993.7 411.528ZM993.7 413.256C995.076 413.256 996.244 414.264 996.244 416.376C996.244 418.488 995.076 419.512 993.7 419.512C992.324 419.512 991.156 418.488 991.156 416.376C991.156 414.264 992.324 413.256 993.7 413.256ZM1004.7 413.688C1005.19 413.688 1005.54 413.752 1005.9 413.896L1006.09 411.656C1005.9 411.56 1005.62 411.528 1005.38 411.528C1004.47 411.528 1003.03 412.056 1002.28 413.992L1002.28 411.784L1000.28 411.784L1000.28 421L1002.28 421L1002.28 416.968C1002.28 414.408 1003.4 413.688 1004.7 413.688ZM1017.82 413.336C1018.95 413.336 1019.82 413.976 1019.82 415.688L1019.82 421L1021.82 421L1021.82 414.824C1021.82 412.344 1020.3 411.528 1018.62 411.528C1017.59 411.528 1016.3 411.944 1015.61 413.32C1015.11 412.008 1013.94 411.528 1012.71 411.528C1011.61 411.528 1010.28 411.96 1009.62 413.144L1009.62 411.784L1007.62 411.784L1007.62 421L1009.62 421L1009.62 415.736C1009.62 414.088 1010.57 413.336 1011.85 413.336C1012.98 413.336 1013.85 413.976 1013.85 415.688L1013.85 421L1015.85 421L1015.85 415.736C1015.85 414.088 1016.68 413.336 1017.82 413.336ZM1027.86 421.24C1029.51 421.24 1030.52 420.232 1030.98 419.096L1030.98 421L1032.98 421L1032.98 411.784L1030.98 411.784L1030.98 413.592C1030.33 412.136 1029.32 411.528 1027.88 411.528C1025.94 411.528 1023.82 413.08 1023.82 416.296C1023.82 419.672 1025.96 421.24 1027.86 421.24ZM1028.42 413.256C1029.77 413.256 1030.98 414.28 1030.98 416.408C1030.98 418.6 1029.77 419.496 1028.41 419.496C1027.14 419.496 1025.83 418.552 1025.83 416.408C1025.83 414.232 1027.16 413.256 1028.42 413.256ZM1036.28 409.56L1036.28 411.784L1034.57 411.784L1034.57 413.4L1036.28 413.4L1036.28 418.408C1036.28 420.104 1037.13 421.16 1038.97 421.16C1039.53 421.16 1040.19 421.016 1040.67 420.872L1040.35 419.256C1039.98 419.352 1039.75 419.4 1039.39 419.4C1038.57 419.4 1038.28 419.032 1038.28 418.312L1038.28 413.4L1040.59 413.4L1040.59 411.784L1038.28 411.784L1038.28 409.24L1036.28 409.56ZM1042.58 411.784L1042.58 421L1044.58 421L1044.58 411.784L1042.58 411.784ZM1043.57 407.8C1042.9 407.8 1042.37 408.344 1042.37 409C1042.37 409.656 1042.9 410.2 1043.57 410.2C1044.24 410.2 1044.77 409.656 1044.77 409C1044.77 408.344 1044.24 407.8 1043.57 407.8ZM1051.16 411.528C1048.66 411.528 1046.6 413.352 1046.6 416.376C1046.6 419.4 1048.66 421.24 1051.16 421.24C1053.65 421.24 1055.72 419.4 1055.72 416.376C1055.72 413.352 1053.65 411.528 1051.16 411.528ZM1051.16 413.256C1052.53 413.256 1053.7 414.264 1053.7 416.376C1053.7 418.488 1052.53 419.512 1051.16 419.512C1049.78 419.512 1048.61 418.488 1048.61 416.376C1048.61 414.264 1049.78 413.256 1051.16 413.256ZM1062.01 413.336C1063.1 413.336 1063.96 413.976 1063.96 415.688L1063.96 421L1065.96 421L1065.96 414.824C1065.96 412.344 1064.39 411.528 1062.74 411.528C1061.66 411.528 1060.39 411.976 1059.74 413.144L1059.74 411.784L1057.74 411.784L1057.74 421L1059.74 421L1059.74 415.736C1059.74 414.088 1060.68 413.336 1062.01 413.336Z" fill="#49367E"/>
<defs>
<filter id="filter0_d" x="426.63" y="153.101" width="50.932" height="17.102" filterUnits="userSpaceOnUse" color-interpolation-filters="sRGB">
<feFlood flood-opacity="0" result="BackgroundImageFix"/>
<feColorMatrix in="SourceAlpha" type="matrix" values="0 0 0 0 0 0 0 0 0 0 0 0 0 0 0 0 0 0 127 0"/>
<feOffset dy="0.238"/>
<feGaussianBlur stdDeviation="0.238"/>
<feColorMatrix type="matrix" values="0 0 0 0 0.0862745 0 0 0 0 0.0705882 0 0 0 0 0.145098 0 0 0 0.07 0"/>
<feBlend mode="normal" in2="BackgroundImageFix" result="effect1_dropShadow"/>
<feBlend mode="normal" in="SourceGraphic" in2="effect1_dropShadow" result="shape"/>
</filter>
<clipPath id="clip0">
<rect width="170" height="170" fill="white" transform="translate(932 212)"/>
</clipPath>
<clipPath id="clip1">
<rect width="170" height="170" fill="white" transform="matrix(-1 0 0 1 924 88)"/>
</clipPath>
</defs>
</svg>
