<svg width="1149" height="506" viewBox="0 0 1149 506" fill="none" xmlns="http://www.w3.org/2000/svg">
<rect width="1149" height="506" fill="white"/>
<line x1="978" y1="172" x2="978" y2="260" stroke="#49367E" stroke-width="2" stroke-dasharray="8 8"/>
<line x1="824" y1="173" x2="979" y2="173" stroke="#49367E" stroke-width="2" stroke-dasharray="8 8"/>
<line x1="133" y1="173" x2="800" y2="173" stroke="#FF5B24" stroke-width="2"/>
<circle cx="266" cy="172.805" r="10.5" transform="rotate(-90 266 172.805)" fill="white" stroke="#FF5B24" stroke-width="3"/>
<path d="M133.5 162.305C139.633 162.305 144.5 167.063 144.5 172.805C144.5 178.547 139.633 183.305 133.5 183.305C127.367 183.305 122.5 178.547 122.5 172.805C122.5 167.063 127.367 162.305 133.5 162.305Z" fill="white" stroke="#FF5B24" stroke-width="3"/>
<path d="M87.7523 266.616L87.7403 266.712C87.5963 267.852 86.6723 268.644 85.2563 268.644C83.7683 268.644 82.2803 267.756 82.2803 265.536C82.2803 263.424 83.5163 262.356 85.1723 262.356C86.4323 262.356 87.5003 262.836 87.7043 264.336L89.2883 264.096C88.9403 261.588 86.7683 260.82 85.2683 260.82C82.5803 260.82 80.5883 262.752 80.5883 265.536C80.5883 268.2 82.5443 270.18 84.8243 270.18C86.2763 270.18 87.3083 269.28 87.7883 268.32L87.8003 268.32L88.0763 270L89.4083 270L89.4083 265.2L85.3883 265.2L85.3883 266.616L87.7523 266.616ZM94.3788 264.192C95.3508 264.192 96.1188 264.648 96.2388 265.8L92.4828 265.8C92.6868 264.732 93.3828 264.192 94.3788 264.192ZM97.6548 266.868L97.6548 266.376C97.6548 264.336 96.3108 262.896 94.4388 262.896C92.4348 262.896 90.9108 264.3 90.9108 266.52C90.9108 268.8 92.4948 270.18 94.5348 270.18C95.8068 270.18 97.3428 269.448 97.6068 267.852L96.2148 267.612C96.0588 268.404 95.6028 268.884 94.4748 268.884C93.2268 268.884 92.5428 268.08 92.4348 266.868L97.6548 266.868ZM99.6638 261.42L99.6638 263.088L98.3798 263.088L98.3798 264.3L99.6638 264.3L99.6638 268.056C99.6638 269.328 100.3 270.12 101.68 270.12C102.1 270.12 102.592 270.012 102.952 269.904L102.712 268.692C102.436 268.764 102.268 268.8 101.992 268.8C101.38 268.8 101.164 268.524 101.164 267.984L101.164 264.3L102.892 264.3L102.892 263.088L101.164 263.088L101.164 261.18L99.6638 261.42ZM107.453 265.032C107.453 265.992 108.005 266.7 109.181 266.952L110.441 267.228C111.305 267.42 111.545 267.672 111.545 268.08C111.545 268.656 110.981 268.98 110.153 268.98C109.181 268.98 108.545 268.524 108.449 267.672L107.117 267.912C107.345 269.52 108.845 270.18 110.189 270.18C111.521 270.18 112.937 269.436 112.937 267.936C112.937 266.976 112.373 266.328 111.149 266.064L109.781 265.764C109.085 265.608 108.845 265.272 108.845 264.912C108.845 264.408 109.325 264.096 110.009 264.096C110.837 264.096 111.449 264.396 111.497 265.296L112.829 265.056C112.433 263.508 111.389 262.896 109.997 262.896C108.869 262.896 107.453 263.52 107.453 265.032ZM114.933 261.42L114.933 263.088L113.649 263.088L113.649 264.3L114.933 264.3L114.933 268.056C114.933 269.328 115.569 270.12 116.949 270.12C117.369 270.12 117.861 270.012 118.221 269.904L117.981 268.692C117.705 268.764 117.537 268.8 117.261 268.8C116.649 268.8 116.433 268.524 116.433 267.984L116.433 264.3L118.161 264.3L118.161 263.088L116.433 263.088L116.433 261.18L114.933 261.42ZM122.284 270.18C123.52 270.18 124.276 269.424 124.624 268.572L124.624 270L126.124 270L126.124 263.088L124.624 263.088L124.624 264.444C124.132 263.352 123.376 262.896 122.296 262.896C120.844 262.896 119.248 264.06 119.248 266.472C119.248 269.004 120.856 270.18 122.284 270.18ZM122.704 264.192C123.712 264.192 124.624 264.96 124.624 266.556C124.624 268.2 123.712 268.872 122.692 268.872C121.744 268.872 120.76 268.164 120.76 266.556C120.76 264.924 121.756 264.192 122.704 264.192ZM131.358 264.516C131.73 264.516 131.994 264.564 132.258 264.672L132.402 262.992C132.258 262.92 132.054 262.896 131.874 262.896C131.19 262.896 130.11 263.292 129.546 264.744L129.546 263.088L128.046 263.088L128.046 270L129.546 270L129.546 266.976C129.546 265.056 130.386 264.516 131.358 264.516ZM134.058 261.42L134.058 263.088L132.774 263.088L132.774 264.3L134.058 264.3L134.058 268.056C134.058 269.328 134.694 270.12 136.074 270.12C136.494 270.12 136.986 270.012 137.346 269.904L137.106 268.692C136.83 268.764 136.662 268.8 136.386 268.8C135.774 268.8 135.558 268.524 135.558 267.984L135.558 264.3L137.286 264.3L137.286 263.088L135.558 263.088L135.558 261.18L134.058 261.42ZM141.793 264.192C142.765 264.192 143.533 264.648 143.653 265.8L139.897 265.8C140.101 264.732 140.797 264.192 141.793 264.192ZM145.069 266.868L145.069 266.376C145.069 264.336 143.725 262.896 141.853 262.896C139.849 262.896 138.325 264.3 138.325 266.52C138.325 268.8 139.909 270.18 141.949 270.18C143.221 270.18 144.757 269.448 145.021 267.852L143.629 267.612C143.473 268.404 143.017 268.884 141.889 268.884C140.641 268.884 139.957 268.08 139.849 266.868L145.069 266.868ZM153.042 260.7L151.542 260.7L151.542 264.444C151.05 263.352 150.306 262.896 149.37 262.896C147.762 262.896 146.166 264.06 146.166 266.472C146.166 269.004 147.774 270.18 149.178 270.18C150.438 270.18 151.194 269.52 151.542 268.692L151.542 270L153.042 270L153.042 260.7ZM149.622 264.192C150.63 264.192 151.542 264.996 151.542 266.556C151.542 268.164 150.63 268.872 149.61 268.872C148.662 268.872 147.678 268.128 147.678 266.556C147.678 264.96 148.674 264.192 149.622 264.192ZM168.158 263.088L166.49 263.088L165.014 268.128L163.346 263.088L162.23 263.088L160.574 268.104L159.086 263.088L157.418 263.088L159.902 270L161.198 270L162.794 265.632L164.378 270L165.674 270L168.158 263.088ZM169.296 263.088L169.296 270L170.796 270L170.796 263.088L169.296 263.088ZM170.04 260.1C169.536 260.1 169.14 260.508 169.14 261C169.14 261.492 169.536 261.9 170.04 261.9C170.544 261.9 170.94 261.492 170.94 261C170.94 260.508 170.544 260.1 170.04 260.1ZM173.246 261.42L173.246 263.088L171.962 263.088L171.962 264.3L173.246 264.3L173.246 268.056C173.246 269.328 173.882 270.12 175.262 270.12C175.682 270.12 176.174 270.012 176.534 269.904L176.294 268.692C176.018 268.764 175.85 268.8 175.574 268.8C174.962 268.8 174.746 268.524 174.746 267.984L174.746 264.3L176.474 264.3L176.474 263.088L174.746 263.088L174.746 261.18L173.246 261.42ZM177.944 260.7L177.944 270L179.444 270L179.444 266.052C179.444 264.816 180.152 264.252 181.16 264.252C181.964 264.252 182.612 264.732 182.612 266.016L182.612 270L184.112 270L184.112 265.368C184.112 263.508 182.972 262.896 181.652 262.896C180.92 262.896 179.936 263.22 179.444 264.108L179.444 260.7L177.944 260.7ZM94.3577 280.776C94.1057 278.916 92.6297 277.896 91.0217 277.896C89.0417 277.896 87.5417 279.3 87.5417 281.532C87.5417 283.668 89.0177 285.18 91.1297 285.18C92.4617 285.18 94.0217 284.448 94.3457 282.336L92.9777 282.096C92.8217 283.272 92.1737 283.872 91.1177 283.872C89.7137 283.872 89.0537 282.804 89.0537 281.532C89.0537 279.996 89.8937 279.192 90.9497 279.192C91.9097 279.192 92.7137 279.708 92.8817 281.016L94.3577 280.776ZM98.7546 277.896C96.8826 277.896 95.3346 279.264 95.3346 281.532C95.3346 283.8 96.8826 285.18 98.7546 285.18C100.627 285.18 102.175 283.8 102.175 281.532C102.175 279.264 100.627 277.896 98.7546 277.896ZM98.7546 279.192C99.7866 279.192 100.663 279.948 100.663 281.532C100.663 283.116 99.7866 283.884 98.7546 283.884C97.7226 283.884 96.8466 283.116 96.8466 281.532C96.8466 279.948 97.7226 279.192 98.7546 279.192ZM106.977 279.516C107.349 279.516 107.613 279.564 107.877 279.672L108.021 277.992C107.877 277.92 107.673 277.896 107.493 277.896C106.809 277.896 105.729 278.292 105.165 279.744L105.165 278.088L103.665 278.088L103.665 285L105.165 285L105.165 281.976C105.165 280.056 106.005 279.516 106.977 279.516ZM112.185 279.192C113.157 279.192 113.925 279.648 114.045 280.8L110.289 280.8C110.493 279.732 111.189 279.192 112.185 279.192ZM115.461 281.868L115.461 281.376C115.461 279.336 114.117 277.896 112.245 277.896C110.241 277.896 108.717 279.3 108.717 281.52C108.717 283.8 110.301 285.18 112.341 285.18C113.613 285.18 115.149 284.448 115.413 282.852L114.021 282.612C113.865 283.404 113.409 283.884 112.281 283.884C111.033 283.884 110.349 283.08 110.241 281.868L115.461 281.868ZM126.561 280.776C126.309 278.916 124.833 277.896 123.225 277.896C121.245 277.896 119.745 279.3 119.745 281.532C119.745 283.668 121.221 285.18 123.333 285.18C124.665 285.18 126.225 284.448 126.549 282.336L125.181 282.096C125.025 283.272 124.377 283.872 123.321 283.872C121.917 283.872 121.257 282.804 121.257 281.532C121.257 279.996 122.097 279.192 123.153 279.192C124.113 279.192 124.917 279.708 125.085 281.016L126.561 280.776ZM130.958 277.896C129.086 277.896 127.538 279.264 127.538 281.532C127.538 283.8 129.086 285.18 130.958 285.18C132.83 285.18 134.378 283.8 134.378 281.532C134.378 279.264 132.83 277.896 130.958 277.896ZM130.958 279.192C131.99 279.192 132.866 279.948 132.866 281.532C132.866 283.116 131.99 283.884 130.958 283.884C129.926 283.884 129.05 283.116 129.05 281.532C129.05 279.948 129.926 279.192 130.958 279.192ZM139.072 279.252C139.888 279.252 140.536 279.732 140.536 281.016L140.536 285L142.036 285L142.036 280.368C142.036 278.508 140.86 277.896 139.624 277.896C138.808 277.896 137.86 278.232 137.368 279.108L137.368 278.088L135.868 278.088L135.868 285L137.368 285L137.368 281.052C137.368 279.816 138.076 279.252 139.072 279.252ZM143.752 280.032C143.752 280.992 144.304 281.7 145.48 281.952L146.74 282.228C147.604 282.42 147.844 282.672 147.844 283.08C147.844 283.656 147.28 283.98 146.452 283.98C145.48 283.98 144.844 283.524 144.748 282.672L143.416 282.912C143.644 284.52 145.144 285.18 146.488 285.18C147.82 285.18 149.236 284.436 149.236 282.936C149.236 281.976 148.672 281.328 147.448 281.064L146.08 280.764C145.384 280.608 145.144 280.272 145.144 279.912C145.144 279.408 145.624 279.096 146.308 279.096C147.136 279.096 147.748 279.396 147.796 280.296L149.128 280.056C148.732 278.508 147.688 277.896 146.296 277.896C145.168 277.896 143.752 278.52 143.752 280.032ZM153.74 279.192C154.712 279.192 155.48 279.648 155.6 280.8L151.844 280.8C152.048 279.732 152.744 279.192 153.74 279.192ZM157.016 281.868L157.016 281.376C157.016 279.336 155.672 277.896 153.8 277.896C151.796 277.896 150.272 279.3 150.272 281.52C150.272 283.8 151.856 285.18 153.896 285.18C155.168 285.18 156.704 284.448 156.968 282.852L155.576 282.612C155.42 283.404 154.964 283.884 153.836 283.884C152.588 283.884 151.904 283.08 151.796 281.868L157.016 281.868ZM162.337 277.896C161.161 277.896 160.441 278.64 159.997 279.444L159.997 278.088L158.497 278.088L158.497 287.4L159.997 287.4L159.997 283.692C160.573 284.676 161.317 285.18 162.193 285.18C163.801 285.18 165.373 283.956 165.373 281.436C165.373 279.024 163.741 277.896 162.337 277.896ZM161.929 279.192C162.877 279.192 163.861 279.948 163.861 281.52C163.861 283.116 162.877 283.872 161.917 283.872C160.909 283.872 159.997 283.056 159.997 281.52C159.997 279.912 160.909 279.192 161.929 279.192ZM167.439 276.42L167.439 278.088L166.155 278.088L166.155 279.3L167.439 279.3L167.439 283.056C167.439 284.328 168.075 285.12 169.455 285.12C169.875 285.12 170.367 285.012 170.727 284.904L170.487 283.692C170.211 283.764 170.043 283.8 169.767 283.8C169.155 283.8 168.939 283.524 168.939 282.984L168.939 279.3L170.667 279.3L170.667 278.088L168.939 278.088L168.939 276.18L167.439 276.42ZM171.994 280.032C171.994 280.992 172.546 281.7 173.722 281.952L174.982 282.228C175.846 282.42 176.086 282.672 176.086 283.08C176.086 283.656 175.522 283.98 174.694 283.98C173.722 283.98 173.086 283.524 172.99 282.672L171.658 282.912C171.886 284.52 173.386 285.18 174.73 285.18C176.062 285.18 177.478 284.436 177.478 282.936C177.478 281.976 176.914 281.328 175.69 281.064L174.322 280.764C173.626 280.608 173.386 280.272 173.386 279.912C173.386 279.408 173.866 279.096 174.55 279.096C175.378 279.096 175.99 279.396 176.038 280.296L177.37 280.056C176.974 278.508 175.93 277.896 174.538 277.896C173.41 277.896 171.994 278.52 171.994 280.032Z" fill="#FF5B24"/>
<path d="M392.488 264L392.488 269.772C392.488 271.2 391.66 271.644 390.52 271.644C389.38 271.644 388.552 271.2 388.552 269.772L388.552 264L386.98 264L386.98 269.844C386.98 272.124 388.576 273.18 390.52 273.18C392.464 273.18 394.06 272.124 394.06 269.844L394.06 264L392.488 264ZM395.791 268.032C395.791 268.992 396.343 269.7 397.519 269.952L398.779 270.228C399.643 270.42 399.883 270.672 399.883 271.08C399.883 271.656 399.319 271.98 398.491 271.98C397.519 271.98 396.883 271.524 396.787 270.672L395.455 270.912C395.683 272.52 397.183 273.18 398.527 273.18C399.859 273.18 401.275 272.436 401.275 270.936C401.275 269.976 400.711 269.328 399.487 269.064L398.119 268.764C397.423 268.608 397.183 268.272 397.183 267.912C397.183 267.408 397.663 267.096 398.347 267.096C399.175 267.096 399.787 267.396 399.835 268.296L401.167 268.056C400.771 266.508 399.727 265.896 398.335 265.896C397.207 265.896 395.791 266.52 395.791 268.032ZM405.779 267.192C406.751 267.192 407.519 267.648 407.639 268.8L403.883 268.8C404.087 267.732 404.783 267.192 405.779 267.192ZM409.055 269.868L409.055 269.376C409.055 267.336 407.711 265.896 405.839 265.896C403.835 265.896 402.311 267.3 402.311 269.52C402.311 271.8 403.895 273.18 405.935 273.18C407.207 273.18 408.743 272.448 409.007 270.852L407.615 270.612C407.459 271.404 407.003 271.884 405.875 271.884C404.627 271.884 403.943 271.08 403.835 269.868L409.055 269.868ZM413.848 267.516C414.22 267.516 414.484 267.564 414.748 267.672L414.892 265.992C414.748 265.92 414.544 265.896 414.364 265.896C413.68 265.896 412.6 266.292 412.036 267.744L412.036 266.088L410.536 266.088L410.536 273L412.036 273L412.036 269.976C412.036 268.056 412.876 267.516 413.848 267.516ZM425.639 268.776C425.387 266.916 423.911 265.896 422.303 265.896C420.323 265.896 418.823 267.3 418.823 269.532C418.823 271.668 420.299 273.18 422.411 273.18C423.743 273.18 425.303 272.448 425.627 270.336L424.259 270.096C424.103 271.272 423.455 271.872 422.399 271.872C420.995 271.872 420.335 270.804 420.335 269.532C420.335 267.996 421.175 267.192 422.231 267.192C423.191 267.192 423.995 267.708 424.163 269.016L425.639 268.776ZM427.048 263.7L427.048 273L428.548 273L428.548 269.052C428.548 267.816 429.256 267.252 430.264 267.252C431.068 267.252 431.716 267.732 431.716 269.016L431.716 273L433.216 273L433.216 268.368C433.216 266.508 432.076 265.896 430.756 265.896C430.024 265.896 429.04 266.22 428.548 267.108L428.548 263.7L427.048 263.7ZM438.063 265.896C436.191 265.896 434.643 267.264 434.643 269.532C434.643 271.8 436.191 273.18 438.063 273.18C439.935 273.18 441.483 271.8 441.483 269.532C441.483 267.264 439.935 265.896 438.063 265.896ZM438.063 267.192C439.095 267.192 439.971 267.948 439.971 269.532C439.971 271.116 439.095 271.884 438.063 271.884C437.031 271.884 436.155 271.116 436.155 269.532C436.155 267.948 437.031 267.192 438.063 267.192ZM445.962 265.896C444.09 265.896 442.542 267.264 442.542 269.532C442.542 271.8 444.09 273.18 445.962 273.18C447.834 273.18 449.382 271.8 449.382 269.532C449.382 267.264 447.834 265.896 445.962 265.896ZM445.962 267.192C446.994 267.192 447.87 267.948 447.87 269.532C447.87 271.116 446.994 271.884 445.962 271.884C444.93 271.884 444.054 271.116 444.054 269.532C444.054 267.948 444.93 267.192 445.962 267.192ZM450.728 268.032C450.728 268.992 451.28 269.7 452.456 269.952L453.716 270.228C454.58 270.42 454.82 270.672 454.82 271.08C454.82 271.656 454.256 271.98 453.428 271.98C452.456 271.98 451.82 271.524 451.724 270.672L450.392 270.912C450.62 272.52 452.12 273.18 453.464 273.18C454.796 273.18 456.212 272.436 456.212 270.936C456.212 269.976 455.648 269.328 454.424 269.064L453.056 268.764C452.36 268.608 452.12 268.272 452.12 267.912C452.12 267.408 452.6 267.096 453.284 267.096C454.112 267.096 454.724 267.396 454.772 268.296L456.104 268.056C455.708 266.508 454.664 265.896 453.272 265.896C452.144 265.896 450.728 266.52 450.728 268.032ZM460.717 267.192C461.689 267.192 462.457 267.648 462.577 268.8L458.821 268.8C459.025 267.732 459.721 267.192 460.717 267.192ZM463.993 269.868L463.993 269.376C463.993 267.336 462.649 265.896 460.777 265.896C458.773 265.896 457.249 267.3 457.249 269.52C457.249 271.8 458.833 273.18 460.873 273.18C462.145 273.18 463.681 272.448 463.945 270.852L462.553 270.612C462.397 271.404 461.941 271.884 460.813 271.884C459.565 271.884 458.881 271.08 458.773 269.868L463.993 269.868ZM468.708 263.7L468.708 273L470.208 273L470.208 263.7L468.708 263.7ZM475.118 265.896C473.246 265.896 471.698 267.264 471.698 269.532C471.698 271.8 473.246 273.18 475.118 273.18C476.99 273.18 478.538 271.8 478.538 269.532C478.538 267.264 476.99 265.896 475.118 265.896ZM475.118 267.192C476.15 267.192 477.026 267.948 477.026 269.532C477.026 271.116 476.15 271.884 475.118 271.884C474.086 271.884 473.21 271.116 473.21 269.532C473.21 267.948 474.086 267.192 475.118 267.192ZM482.572 272.604C483.784 272.604 484.42 271.812 484.792 271.056L484.792 272.088C484.792 273.552 484.18 274.152 482.848 274.152C482.008 274.152 481.204 273.912 481.072 272.916L479.62 273.156C479.968 274.908 481.54 275.496 482.788 275.496C484.996 275.496 486.292 274.344 486.292 272.028L486.292 266.076L484.792 266.076L484.792 267.42C484.264 266.352 483.604 265.896 482.692 265.896C481.132 265.896 479.656 266.952 479.656 269.148C479.656 271.5 481.156 272.604 482.572 272.604ZM482.956 267.192C483.964 267.192 484.792 267.924 484.792 269.244C484.792 270.636 483.964 271.296 482.956 271.296C481.984 271.296 481.168 270.636 481.168 269.232C481.168 267.876 482.02 267.192 482.956 267.192ZM488.208 266.088L488.208 273L489.708 273L489.708 266.088L488.208 266.088ZM488.952 263.1C488.448 263.1 488.052 263.508 488.052 264C488.052 264.492 488.448 264.9 488.952 264.9C489.456 264.9 489.852 264.492 489.852 264C489.852 263.508 489.456 263.1 488.952 263.1ZM494.834 267.252C495.65 267.252 496.298 267.732 496.298 269.016L496.298 273L497.798 273L497.798 268.368C497.798 266.508 496.622 265.896 495.386 265.896C494.57 265.896 493.622 266.232 493.13 267.108L493.13 266.088L491.63 266.088L491.63 273L493.13 273L493.13 269.052C493.13 267.816 493.838 267.252 494.834 267.252ZM422.254 286.088L420.586 286.088L419.11 291.128L417.442 286.088L416.326 286.088L414.67 291.104L413.182 286.088L411.514 286.088L413.998 293L415.294 293L416.89 288.632L418.474 293L419.77 293L422.254 286.088ZM423.392 286.088L423.392 293L424.892 293L424.892 286.088L423.392 286.088ZM424.136 283.1C423.632 283.1 423.236 283.508 423.236 284C423.236 284.492 423.632 284.9 424.136 284.9C424.64 284.9 425.036 284.492 425.036 284C425.036 283.508 424.64 283.1 424.136 283.1ZM427.342 284.42L427.342 286.088L426.058 286.088L426.058 287.3L427.342 287.3L427.342 291.056C427.342 292.328 427.978 293.12 429.358 293.12C429.778 293.12 430.27 293.012 430.63 292.904L430.39 291.692C430.114 291.764 429.946 291.8 429.67 291.8C429.058 291.8 428.842 291.524 428.842 290.984L428.842 287.3L430.57 287.3L430.57 286.088L428.842 286.088L428.842 284.18L427.342 284.42ZM432.04 283.7L432.04 293L433.54 293L433.54 289.052C433.54 287.816 434.248 287.252 435.256 287.252C436.06 287.252 436.708 287.732 436.708 289.016L436.708 293L438.208 293L438.208 288.368C438.208 286.508 437.068 285.896 435.748 285.896C435.016 285.896 434.032 286.22 433.54 287.108L433.54 283.7L432.04 283.7ZM449.422 286.088L447.754 286.088L445.978 291.308L444.19 286.088L442.522 286.088L445.282 293L446.662 293L449.422 286.088ZM450.567 286.088L450.567 293L452.067 293L452.067 286.088L450.567 286.088ZM451.311 283.1C450.807 283.1 450.411 283.508 450.411 284C450.411 284.492 450.807 284.9 451.311 284.9C451.815 284.9 452.211 284.492 452.211 284C452.211 283.508 451.815 283.1 451.311 283.1ZM457.829 285.896C456.653 285.896 455.933 286.64 455.489 287.444L455.489 286.088L453.989 286.088L453.989 295.4L455.489 295.4L455.489 291.692C456.065 292.676 456.809 293.18 457.685 293.18C459.293 293.18 460.865 291.956 460.865 289.436C460.865 287.024 459.233 285.896 457.829 285.896ZM457.421 287.192C458.369 287.192 459.353 287.948 459.353 289.52C459.353 291.116 458.369 291.872 457.409 291.872C456.401 291.872 455.489 291.056 455.489 289.52C455.489 287.912 456.401 287.192 457.421 287.192ZM466.243 285.896C465.067 285.896 464.347 286.64 463.903 287.444L463.903 286.088L462.403 286.088L462.403 295.4L463.903 295.4L463.903 291.692C464.479 292.676 465.223 293.18 466.099 293.18C467.707 293.18 469.279 291.956 469.279 289.436C469.279 287.024 467.647 285.896 466.243 285.896ZM465.835 287.192C466.783 287.192 467.767 287.948 467.767 289.52C467.767 291.116 466.783 291.872 465.823 291.872C464.815 291.872 463.903 291.056 463.903 289.52C463.903 287.912 464.815 287.192 465.835 287.192ZM470.673 288.032C470.673 288.992 471.225 289.7 472.401 289.952L473.661 290.228C474.525 290.42 474.765 290.672 474.765 291.08C474.765 291.656 474.201 291.98 473.373 291.98C472.401 291.98 471.765 291.524 471.669 290.672L470.337 290.912C470.565 292.52 472.065 293.18 473.409 293.18C474.741 293.18 476.157 292.436 476.157 290.936C476.157 289.976 475.593 289.328 474.369 289.064L473.001 288.764C472.305 288.608 472.065 288.272 472.065 287.912C472.065 287.408 472.545 287.096 473.229 287.096C474.057 287.096 474.669 287.396 474.717 288.296L476.049 288.056C475.653 286.508 474.609 285.896 473.217 285.896C472.089 285.896 470.673 286.52 470.673 288.032Z" fill="#FF5B24"/>
<path d="M583.5 264L583.5 269.772C583.5 271.2 582.672 271.644 581.532 271.644C580.392 271.644 579.564 271.2 579.564 269.772L579.564 264L577.992 264L577.992 269.844C577.992 272.124 579.588 273.18 581.532 273.18C583.476 273.18 585.072 272.124 585.072 269.844L585.072 264L583.5 264ZM586.802 268.032C586.802 268.992 587.354 269.7 588.53 269.952L589.79 270.228C590.654 270.42 590.894 270.672 590.894 271.08C590.894 271.656 590.33 271.98 589.502 271.98C588.53 271.98 587.894 271.524 587.798 270.672L586.466 270.912C586.694 272.52 588.194 273.18 589.538 273.18C590.87 273.18 592.286 272.436 592.286 270.936C592.286 269.976 591.722 269.328 590.498 269.064L589.13 268.764C588.434 268.608 588.194 268.272 588.194 267.912C588.194 267.408 588.674 267.096 589.358 267.096C590.186 267.096 590.798 267.396 590.846 268.296L592.178 268.056C591.782 266.508 590.738 265.896 589.346 265.896C588.218 265.896 586.802 266.52 586.802 268.032ZM596.791 267.192C597.763 267.192 598.531 267.648 598.651 268.8L594.895 268.8C595.099 267.732 595.795 267.192 596.791 267.192ZM600.067 269.868L600.067 269.376C600.067 267.336 598.723 265.896 596.851 265.896C594.847 265.896 593.323 267.3 593.323 269.52C593.323 271.8 594.907 273.18 596.947 273.18C598.219 273.18 599.755 272.448 600.019 270.852L598.627 270.612C598.471 271.404 598.015 271.884 596.887 271.884C595.639 271.884 594.955 271.08 594.847 269.868L600.067 269.868ZM604.86 267.516C605.232 267.516 605.496 267.564 605.76 267.672L605.904 265.992C605.76 265.92 605.556 265.896 605.376 265.896C604.692 265.896 603.612 266.292 603.048 267.744L603.048 266.088L601.548 266.088L601.548 273L603.048 273L603.048 269.976C603.048 268.056 603.888 267.516 604.86 267.516ZM616.651 268.776C616.399 266.916 614.923 265.896 613.315 265.896C611.335 265.896 609.835 267.3 609.835 269.532C609.835 271.668 611.311 273.18 613.423 273.18C614.755 273.18 616.315 272.448 616.639 270.336L615.271 270.096C615.115 271.272 614.467 271.872 613.411 271.872C612.007 271.872 611.347 270.804 611.347 269.532C611.347 267.996 612.187 267.192 613.243 267.192C614.203 267.192 615.007 267.708 615.175 269.016L616.651 268.776ZM621.048 265.896C619.176 265.896 617.628 267.264 617.628 269.532C617.628 271.8 619.176 273.18 621.048 273.18C622.92 273.18 624.468 271.8 624.468 269.532C624.468 267.264 622.92 265.896 621.048 265.896ZM621.048 267.192C622.08 267.192 622.956 267.948 622.956 269.532C622.956 271.116 622.08 271.884 621.048 271.884C620.016 271.884 619.14 271.116 619.14 269.532C619.14 267.948 620.016 267.192 621.048 267.192ZM629.162 267.252C629.978 267.252 630.626 267.732 630.626 269.016L630.626 273L632.126 273L632.126 268.368C632.126 266.508 630.95 265.896 629.714 265.896C628.898 265.896 627.95 266.232 627.458 267.108L627.458 266.088L625.958 266.088L625.958 273L627.458 273L627.458 269.052C627.458 267.816 628.166 267.252 629.162 267.252ZM634.381 273L635.881 273L635.881 267.3L637.597 267.3L637.597 266.088L635.881 266.088L635.881 265.812C635.881 265.152 636.073 264.804 636.709 264.804C636.877 264.804 637.021 264.816 637.165 264.84L637.273 263.568C637.081 263.508 636.829 263.472 636.541 263.472C635.245 263.472 634.381 264.288 634.381 265.824L634.381 266.088L633.433 266.088L633.433 267.3L634.381 267.3L634.381 273ZM638.661 266.088L638.661 273L640.161 273L640.161 266.088L638.661 266.088ZM639.405 263.1C638.901 263.1 638.505 263.508 638.505 264C638.505 264.492 638.901 264.9 639.405 264.9C639.909 264.9 640.305 264.492 640.305 264C640.305 263.508 639.909 263.1 639.405 263.1ZM645.395 267.516C645.767 267.516 646.031 267.564 646.295 267.672L646.439 265.992C646.295 265.92 646.091 265.896 645.911 265.896C645.227 265.896 644.147 266.292 643.583 267.744L643.583 266.088L642.083 266.088L642.083 273L643.583 273L643.583 269.976C643.583 268.056 644.423 267.516 645.395 267.516ZM655.211 267.252C656.063 267.252 656.711 267.732 656.711 269.016L656.711 273L658.211 273L658.211 268.368C658.211 266.508 657.071 265.896 655.811 265.896C655.043 265.896 654.071 266.208 653.555 267.24C653.183 266.256 652.307 265.896 651.383 265.896C650.555 265.896 649.559 266.22 649.067 267.108L649.067 266.088L647.567 266.088L647.567 273L649.067 273L649.067 269.052C649.067 267.816 649.775 267.252 650.735 267.252C651.587 267.252 652.235 267.732 652.235 269.016L652.235 273L653.735 273L653.735 269.052C653.735 267.816 654.359 267.252 655.211 267.252ZM659.927 268.032C659.927 268.992 660.479 269.7 661.655 269.952L662.915 270.228C663.779 270.42 664.019 270.672 664.019 271.08C664.019 271.656 663.455 271.98 662.627 271.98C661.655 271.98 661.019 271.524 660.923 270.672L659.591 270.912C659.819 272.52 661.319 273.18 662.663 273.18C663.995 273.18 665.411 272.436 665.411 270.936C665.411 269.976 664.847 269.328 663.623 269.064L662.255 268.764C661.559 268.608 661.319 268.272 661.319 267.912C661.319 267.408 661.799 267.096 662.483 267.096C663.311 267.096 663.923 267.396 663.971 268.296L665.303 268.056C664.907 266.508 663.863 265.896 662.471 265.896C661.343 265.896 659.927 266.52 659.927 268.032Z" fill="#FF5B24"/>
<path d="M754.823 269.616L754.811 269.712C754.667 270.852 753.743 271.644 752.327 271.644C750.839 271.644 749.351 270.756 749.351 268.536C749.351 266.424 750.587 265.356 752.243 265.356C753.503 265.356 754.571 265.836 754.775 267.336L756.359 267.096C756.011 264.588 753.839 263.82 752.339 263.82C749.651 263.82 747.659 265.752 747.659 268.536C747.659 271.2 749.615 273.18 751.895 273.18C753.347 273.18 754.379 272.28 754.859 271.32L754.871 271.32L755.147 273L756.479 273L756.479 268.2L752.459 268.2L752.459 269.616L754.823 269.616ZM761.449 267.192C762.421 267.192 763.189 267.648 763.309 268.8L759.553 268.8C759.757 267.732 760.453 267.192 761.449 267.192ZM764.725 269.868L764.725 269.376C764.725 267.336 763.381 265.896 761.509 265.896C759.505 265.896 757.981 267.3 757.981 269.52C757.981 271.8 759.565 273.18 761.605 273.18C762.877 273.18 764.413 272.448 764.677 270.852L763.285 270.612C763.129 271.404 762.673 271.884 761.545 271.884C760.297 271.884 759.613 271.08 759.505 269.868L764.725 269.868ZM766.734 264.42L766.734 266.088L765.45 266.088L765.45 267.3L766.734 267.3L766.734 271.056C766.734 272.328 767.37 273.12 768.75 273.12C769.17 273.12 769.662 273.012 770.022 272.904L769.782 271.692C769.506 271.764 769.338 271.8 769.062 271.8C768.45 271.8 768.234 271.524 768.234 270.984L768.234 267.3L769.962 267.3L769.962 266.088L768.234 266.088L768.234 264.18L766.734 264.42ZM774.667 266.088L774.667 273L776.167 273L776.167 266.088L774.667 266.088ZM775.411 263.1C774.907 263.1 774.511 263.508 774.511 264C774.511 264.492 774.907 264.9 775.411 264.9C775.915 264.9 776.311 264.492 776.311 264C776.311 263.508 775.915 263.1 775.411 263.1ZM781.293 267.252C782.109 267.252 782.757 267.732 782.757 269.016L782.757 273L784.257 273L784.257 268.368C784.257 266.508 783.081 265.896 781.845 265.896C781.029 265.896 780.081 266.232 779.589 267.108L779.589 266.088L778.089 266.088L778.089 273L779.589 273L779.589 269.052C779.589 267.816 780.297 267.252 781.293 267.252ZM786.512 273L788.012 273L788.012 267.3L789.728 267.3L789.728 266.088L788.012 266.088L788.012 265.812C788.012 265.104 788.348 264.732 788.96 264.732C789.284 264.732 789.56 264.78 789.848 264.864L790.052 263.7C789.716 263.58 789.308 263.472 788.804 263.472C787.424 263.472 786.512 264.36 786.512 265.824L786.512 266.088L785.564 266.088L785.564 267.3L786.512 267.3L786.512 273ZM793.78 265.896C791.908 265.896 790.36 267.264 790.36 269.532C790.36 271.8 791.908 273.18 793.78 273.18C795.652 273.18 797.2 271.8 797.2 269.532C797.2 267.264 795.652 265.896 793.78 265.896ZM793.78 267.192C794.812 267.192 795.688 267.948 795.688 269.532C795.688 271.116 794.812 271.884 793.78 271.884C792.748 271.884 791.872 271.116 791.872 269.532C791.872 267.948 792.748 267.192 793.78 267.192ZM802.002 267.516C802.374 267.516 802.638 267.564 802.902 267.672L803.046 265.992C802.902 265.92 802.698 265.896 802.518 265.896C801.834 265.896 800.754 266.292 800.19 267.744L800.19 266.088L798.69 266.088L798.69 273L800.19 273L800.19 269.976C800.19 268.056 801.03 267.516 802.002 267.516ZM811.819 267.252C812.671 267.252 813.319 267.732 813.319 269.016L813.319 273L814.819 273L814.819 268.368C814.819 266.508 813.679 265.896 812.419 265.896C811.651 265.896 810.679 266.208 810.163 267.24C809.791 266.256 808.915 265.896 807.991 265.896C807.163 265.896 806.167 266.22 805.675 267.108L805.675 266.088L804.175 266.088L804.175 273L805.675 273L805.675 269.052C805.675 267.816 806.383 267.252 807.343 267.252C808.195 267.252 808.843 267.732 808.843 269.016L808.843 273L810.343 273L810.343 269.052C810.343 267.816 810.967 267.252 811.819 267.252ZM819.331 273.18C820.567 273.18 821.323 272.424 821.671 271.572L821.671 273L823.171 273L823.171 266.088L821.671 266.088L821.671 267.444C821.179 266.352 820.423 265.896 819.343 265.896C817.891 265.896 816.295 267.06 816.295 269.472C816.295 272.004 817.903 273.18 819.331 273.18ZM819.751 267.192C820.759 267.192 821.671 267.96 821.671 269.556C821.671 271.2 820.759 271.872 819.739 271.872C818.791 271.872 817.807 271.164 817.807 269.556C817.807 267.924 818.803 267.192 819.751 267.192ZM825.621 264.42L825.621 266.088L824.337 266.088L824.337 267.3L825.621 267.3L825.621 271.056C825.621 272.328 826.257 273.12 827.637 273.12C828.057 273.12 828.549 273.012 828.909 272.904L828.669 271.692C828.393 271.764 828.225 271.8 827.949 271.8C827.337 271.8 827.121 271.524 827.121 270.984L827.121 267.3L828.849 267.3L828.849 266.088L827.121 266.088L827.121 264.18L825.621 264.42ZM830.319 266.088L830.319 273L831.819 273L831.819 266.088L830.319 266.088ZM831.063 263.1C830.559 263.1 830.163 263.508 830.163 264C830.163 264.492 830.559 264.9 831.063 264.9C831.567 264.9 831.963 264.492 831.963 264C831.963 263.508 831.567 263.1 831.063 263.1ZM836.729 265.896C834.857 265.896 833.309 267.264 833.309 269.532C833.309 271.8 834.857 273.18 836.729 273.18C838.601 273.18 840.149 271.8 840.149 269.532C840.149 267.264 838.601 265.896 836.729 265.896ZM836.729 267.192C837.761 267.192 838.637 267.948 838.637 269.532C838.637 271.116 837.761 271.884 836.729 271.884C835.697 271.884 834.821 271.116 834.821 269.532C834.821 267.948 835.697 267.192 836.729 267.192ZM844.844 267.252C845.66 267.252 846.308 267.732 846.308 269.016L846.308 273L847.808 273L847.808 268.368C847.808 266.508 846.632 265.896 845.396 265.896C844.58 265.896 843.632 266.232 843.14 267.108L843.14 266.088L841.64 266.088L841.64 273L843.14 273L843.14 269.052C843.14 267.816 843.848 267.252 844.844 267.252ZM768.448 293.18C769.684 293.18 770.44 292.424 770.788 291.572L770.788 293L772.288 293L772.288 286.088L770.788 286.088L770.788 287.444C770.296 286.352 769.54 285.896 768.46 285.896C767.008 285.896 765.412 287.06 765.412 289.472C765.412 292.004 767.02 293.18 768.448 293.18ZM768.868 287.192C769.876 287.192 770.788 287.96 770.788 289.556C770.788 291.2 769.876 291.872 768.856 291.872C767.908 291.872 766.924 291.164 766.924 289.556C766.924 287.924 767.92 287.192 768.868 287.192ZM774.21 283.7L774.21 293L775.71 293L775.71 291.86C776.202 292.664 776.97 293.18 777.906 293.18C779.514 293.18 781.086 291.956 781.086 289.436C781.086 287.024 779.454 285.896 778.05 285.896C776.826 285.896 776.094 286.652 775.71 287.288L775.71 283.7L774.21 283.7ZM777.642 287.192C778.59 287.192 779.574 287.948 779.574 289.52C779.574 291.116 778.578 291.872 777.63 291.872C776.622 291.872 775.71 291.056 775.71 289.52C775.71 287.912 776.622 287.192 777.642 287.192ZM785.612 285.896C783.74 285.896 782.192 287.264 782.192 289.532C782.192 291.8 783.74 293.18 785.612 293.18C787.484 293.18 789.032 291.8 789.032 289.532C789.032 287.264 787.484 285.896 785.612 285.896ZM785.612 287.192C786.644 287.192 787.52 287.948 787.52 289.532C787.52 291.116 786.644 291.884 785.612 291.884C784.58 291.884 783.704 291.116 783.704 289.532C783.704 287.948 784.58 287.192 785.612 287.192ZM796.654 293L796.654 286.088L795.154 286.088L795.154 290.108C795.154 291.284 794.374 291.824 793.366 291.824C792.442 291.824 791.986 291.416 791.986 290.348L791.986 286.088L790.486 286.088L790.486 290.912C790.486 292.508 791.638 293.18 792.79 293.18C793.654 293.18 794.614 292.784 795.154 291.836L795.154 293L796.654 293ZM799.078 284.42L799.078 286.088L797.794 286.088L797.794 287.3L799.078 287.3L799.078 291.056C799.078 292.328 799.714 293.12 801.094 293.12C801.514 293.12 802.006 293.012 802.366 292.904L802.126 291.692C801.85 291.764 801.682 291.8 801.406 291.8C800.794 291.8 800.578 291.524 800.578 290.984L800.578 287.3L802.306 287.3L802.306 286.088L800.578 286.088L800.578 284.18L799.078 284.42ZM813.143 293L813.143 286.088L811.643 286.088L811.643 290.108C811.643 291.284 810.863 291.824 809.855 291.824C808.931 291.824 808.475 291.416 808.475 290.348L808.475 286.088L806.975 286.088L806.975 290.912C806.975 292.508 808.127 293.18 809.279 293.18C810.143 293.18 811.103 292.784 811.643 291.836L811.643 293L813.143 293ZM814.894 288.032C814.894 288.992 815.446 289.7 816.622 289.952L817.882 290.228C818.746 290.42 818.986 290.672 818.986 291.08C818.986 291.656 818.422 291.98 817.594 291.98C816.622 291.98 815.986 291.524 815.89 290.672L814.558 290.912C814.786 292.52 816.286 293.18 817.63 293.18C818.962 293.18 820.378 292.436 820.378 290.936C820.378 289.976 819.814 289.328 818.59 289.064L817.222 288.764C816.526 288.608 816.286 288.272 816.286 287.912C816.286 287.408 816.766 287.096 817.45 287.096C818.278 287.096 818.89 287.396 818.938 288.296L820.27 288.056C819.874 286.508 818.83 285.896 817.438 285.896C816.31 285.896 814.894 286.52 814.894 288.032ZM824.883 287.192C825.855 287.192 826.623 287.648 826.743 288.8L822.987 288.8C823.191 287.732 823.887 287.192 824.883 287.192ZM828.159 289.868L828.159 289.376C828.159 287.336 826.815 285.896 824.943 285.896C822.939 285.896 821.415 287.3 821.415 289.52C821.415 291.8 822.999 293.18 825.039 293.18C826.311 293.18 827.847 292.448 828.111 290.852L826.719 290.612C826.563 291.404 826.107 291.884 824.979 291.884C823.731 291.884 823.047 291.08 822.939 289.868L828.159 289.868ZM832.952 287.516C833.324 287.516 833.588 287.564 833.852 287.672L833.996 285.992C833.852 285.92 833.648 285.896 833.468 285.896C832.784 285.896 831.704 286.292 831.14 287.744L831.14 286.088L829.64 286.088L829.64 293L831.14 293L831.14 289.976C831.14 288.056 831.98 287.516 832.952 287.516Z" fill="#FF5B24"/>
<path d="M255.319 264.216C254.959 262.008 253.063 260.82 251.179 260.82C248.611 260.82 246.487 262.68 246.487 265.44C246.487 268.392 248.635 270.18 251.215 270.18C252.955 270.18 255.127 269.016 255.391 266.544L253.771 266.304C253.639 268.092 252.415 268.644 251.215 268.644C249.511 268.644 248.179 267.672 248.179 265.44C248.179 263.412 249.511 262.356 251.119 262.356C252.223 262.356 253.435 262.812 253.699 264.456L255.319 264.216ZM256.948 260.7V270H258.448V260.7H256.948ZM260.37 263.088V270H261.87V263.088H260.37ZM261.114 260.1C260.61 260.1 260.214 260.508 260.214 261C260.214 261.492 260.61 261.9 261.114 261.9C261.618 261.9 262.014 261.492 262.014 261C262.014 260.508 261.618 260.1 261.114 260.1ZM266.828 264.192C267.8 264.192 268.568 264.648 268.688 265.8H264.932C265.136 264.732 265.832 264.192 266.828 264.192ZM270.104 266.868V266.376C270.104 264.336 268.76 262.896 266.888 262.896C264.884 262.896 263.36 264.3 263.36 266.52C263.36 268.8 264.944 270.18 266.984 270.18C268.256 270.18 269.792 269.448 270.056 267.852L268.664 267.612C268.508 268.404 268.052 268.884 266.924 268.884C265.676 268.884 264.992 268.08 264.884 266.868H270.104ZM274.789 264.252C275.605 264.252 276.253 264.732 276.253 266.016V270H277.753V265.368C277.753 263.508 276.577 262.896 275.341 262.896C274.525 262.896 273.577 263.232 273.085 264.108V263.088H271.585V270H273.085V266.052C273.085 264.816 273.793 264.252 274.789 264.252ZM280.14 261.42V263.088H278.856V264.3H280.14V268.056C280.14 269.328 280.776 270.12 282.156 270.12C282.576 270.12 283.068 270.012 283.428 269.904L283.188 268.692C282.912 268.764 282.744 268.8 282.468 268.8C281.856 268.8 281.64 268.524 281.64 267.984V264.3H283.368V263.088H281.64V261.18L280.14 261.42ZM230.596 280.776C230.344 278.916 228.868 277.896 227.26 277.896C225.28 277.896 223.78 279.3 223.78 281.532C223.78 283.668 225.256 285.18 227.368 285.18C228.7 285.18 230.26 284.448 230.584 282.336L229.216 282.096C229.06 283.272 228.412 283.872 227.356 283.872C225.952 283.872 225.292 282.804 225.292 281.532C225.292 279.996 226.132 279.192 227.188 279.192C228.148 279.192 228.952 279.708 229.12 281.016L230.596 280.776ZM234.993 277.896C233.121 277.896 231.573 279.264 231.573 281.532C231.573 283.8 233.121 285.18 234.993 285.18C236.865 285.18 238.413 283.8 238.413 281.532C238.413 279.264 236.865 277.896 234.993 277.896ZM234.993 279.192C236.025 279.192 236.901 279.948 236.901 281.532C236.901 283.116 236.025 283.884 234.993 283.884C233.961 283.884 233.085 283.116 233.085 281.532C233.085 279.948 233.961 279.192 234.993 279.192ZM243.107 279.252C243.923 279.252 244.571 279.732 244.571 281.016V285H246.071V280.368C246.071 278.508 244.895 277.896 243.659 277.896C242.843 277.896 241.895 278.232 241.403 279.108V278.088H239.903V285H241.403V281.052C241.403 279.816 242.111 279.252 243.107 279.252ZM248.327 285H249.827V279.3H251.543V278.088H249.827V277.812C249.827 277.152 250.019 276.804 250.655 276.804C250.823 276.804 250.967 276.816 251.111 276.84L251.219 275.568C251.027 275.508 250.775 275.472 250.487 275.472C249.191 275.472 248.327 276.288 248.327 277.824V278.088H247.379V279.3H248.327V285ZM252.606 278.088V285H254.106V278.088H252.606ZM253.35 275.1C252.846 275.1 252.45 275.508 252.45 276C252.45 276.492 252.846 276.9 253.35 276.9C253.854 276.9 254.25 276.492 254.25 276C254.25 275.508 253.854 275.1 253.35 275.1ZM258.572 284.604C259.784 284.604 260.42 283.812 260.792 283.056V284.088C260.792 285.552 260.18 286.152 258.848 286.152C258.008 286.152 257.204 285.912 257.072 284.916L255.62 285.156C255.968 286.908 257.54 287.496 258.788 287.496C260.996 287.496 262.292 286.344 262.292 284.028V278.076H260.792V279.42C260.264 278.352 259.604 277.896 258.692 277.896C257.132 277.896 255.656 278.952 255.656 281.148C255.656 283.5 257.156 284.604 258.572 284.604ZM258.956 279.192C259.964 279.192 260.792 279.924 260.792 281.244C260.792 282.636 259.964 283.296 258.956 283.296C257.984 283.296 257.168 282.636 257.168 281.232C257.168 279.876 258.02 279.192 258.956 279.192ZM270.34 285V278.088H268.84V282.108C268.84 283.284 268.06 283.824 267.052 283.824C266.128 283.824 265.672 283.416 265.672 282.348V278.088H264.172V282.912C264.172 284.508 265.324 285.18 266.476 285.18C267.34 285.18 268.3 284.784 268.84 283.836V285H270.34ZM275.547 279.516C275.919 279.516 276.183 279.564 276.447 279.672L276.591 277.992C276.447 277.92 276.243 277.896 276.063 277.896C275.379 277.896 274.299 278.292 273.735 279.744V278.088H272.235V285H273.735V281.976C273.735 280.056 274.575 279.516 275.547 279.516ZM280.372 285.18C281.608 285.18 282.364 284.424 282.712 283.572V285H284.212V278.088H282.712V279.444C282.22 278.352 281.464 277.896 280.384 277.896C278.932 277.896 277.336 279.06 277.336 281.472C277.336 284.004 278.944 285.18 280.372 285.18ZM280.792 279.192C281.8 279.192 282.712 279.96 282.712 281.556C282.712 283.2 281.8 283.872 280.78 283.872C279.832 283.872 278.848 283.164 278.848 281.556C278.848 279.924 279.844 279.192 280.792 279.192ZM286.662 276.42V278.088H285.378V279.3H286.662V283.056C286.662 284.328 287.298 285.12 288.678 285.12C289.098 285.12 289.59 285.012 289.95 284.904L289.71 283.692C289.434 283.764 289.266 283.8 288.99 283.8C288.378 283.8 288.162 283.524 288.162 282.984V279.3H289.89V278.088H288.162V276.18L286.662 276.42ZM291.36 278.088V285H292.86V278.088H291.36ZM292.104 275.1C291.6 275.1 291.204 275.508 291.204 276C291.204 276.492 291.6 276.9 292.104 276.9C292.608 276.9 293.004 276.492 293.004 276C293.004 275.508 292.608 275.1 292.104 275.1ZM297.77 277.896C295.898 277.896 294.35 279.264 294.35 281.532C294.35 283.8 295.898 285.18 297.77 285.18C299.642 285.18 301.19 283.8 301.19 281.532C301.19 279.264 299.642 277.896 297.77 277.896ZM297.77 279.192C298.802 279.192 299.678 279.948 299.678 281.532C299.678 283.116 298.802 283.884 297.77 283.884C296.738 283.884 295.862 283.116 295.862 281.532C295.862 279.948 296.738 279.192 297.77 279.192ZM305.885 279.252C306.701 279.252 307.349 279.732 307.349 281.016V285H308.849V280.368C308.849 278.508 307.673 277.896 306.437 277.896C305.621 277.896 304.673 278.232 304.181 279.108V278.088H302.681V285H304.181V281.052C304.181 279.816 304.889 279.252 305.885 279.252Z" fill="#FF5B24"/>
<path d="M498.833 173.06C498.833 203.887 473.844 228.876 443.016 228.876C412.19 228.876 387.199 203.887 387.199 173.06C387.199 142.233 412.19 117.243 443.016 117.243C473.844 117.243 498.833 142.233 498.833 173.06Z" fill="#EEEDF3"/>
<path d="M447.604 187.163H378.431C376.431 187.163 374.81 185.542 374.81 183.542V129.258C374.81 127.258 376.431 125.637 378.431 125.637H447.604C449.604 125.637 451.225 127.258 451.225 129.258V183.542C451.225 185.542 449.604 187.163 447.604 187.163Z" fill="#C8C5D6"/>
<path d="M447.474 125.637H378.561C376.489 125.637 374.81 127.316 374.81 129.387V134.668H451.225V129.387C451.225 127.316 449.546 125.637 447.474 125.637Z" fill="#48367D"/>
<path d="M384.193 130.189C384.193 131.224 383.354 132.064 382.319 132.064C381.283 132.064 380.443 131.224 380.443 130.189C380.443 129.153 381.283 128.313 382.319 128.313C383.354 128.313 384.193 129.153 384.193 130.189Z" fill="white"/>
<path d="M390.347 130.153C390.347 131.188 389.508 132.028 388.473 132.028C387.437 132.028 386.597 131.188 386.597 130.153C386.597 129.117 387.437 128.278 388.473 128.278C389.508 128.278 390.347 129.117 390.347 130.153Z" fill="white"/>
<path d="M396.599 130.153C396.599 131.188 395.76 132.028 394.725 132.028C393.689 132.028 392.849 131.188 392.849 130.153C392.849 129.117 393.689 128.278 394.725 128.278C395.76 128.278 396.599 129.117 396.599 130.153Z" fill="white"/>
<g filter="url(#filter0_d)">
<rect x="388.106" y="153.339" width="49.98" height="16.15" rx="1.19" fill="#FF5B24"/>
</g>
<path d="M398.97 158.889V163.989H401.983V163.098H399.956V158.889H398.97Z" fill="white"/>
<path d="M404.13 159.963C403.069 159.963 402.192 160.738 402.192 162.024C402.192 163.309 403.069 164.091 404.13 164.091C405.191 164.091 406.068 163.309 406.068 162.024C406.068 160.738 405.191 159.963 404.13 159.963ZM404.13 160.806C404.66 160.806 405.102 161.201 405.102 162.024C405.102 162.846 404.66 163.248 404.13 163.248C403.599 163.248 403.157 162.846 403.157 162.024C403.157 161.201 403.599 160.806 404.13 160.806Z" fill="white"/>
<path d="M408.12 163.764C408.739 163.764 409.106 163.479 409.337 163.139V163.472C409.337 164.227 409.058 164.533 408.378 164.533C407.964 164.533 407.617 164.404 407.447 163.941L406.515 164.077C406.712 165.07 407.603 165.403 408.31 165.403C409.562 165.403 410.296 164.75 410.296 163.438V160.065H409.337V160.541C409.038 160.14 408.637 159.963 408.188 159.963C407.338 159.963 406.536 160.562 406.536 161.806C406.536 163.139 407.352 163.764 408.12 163.764ZM408.406 160.806C408.916 160.806 409.337 161.18 409.337 161.86C409.337 162.574 408.916 162.914 408.406 162.914C407.916 162.914 407.501 162.574 407.501 161.854C407.501 161.16 407.93 160.806 408.406 160.806Z" fill="white"/>
<path d="M412.596 163.764C413.214 163.764 413.582 163.479 413.813 163.139V163.472C413.813 164.227 413.534 164.533 412.854 164.533C412.439 164.533 412.092 164.404 411.922 163.941L410.991 164.077C411.188 165.07 412.079 165.403 412.786 165.403C414.037 165.403 414.772 164.75 414.772 163.438V160.065H413.813V160.541C413.514 160.14 413.112 159.963 412.664 159.963C411.814 159.963 411.011 160.562 411.011 161.806C411.011 163.139 411.827 163.764 412.596 163.764ZM412.881 160.806C413.391 160.806 413.813 161.18 413.813 161.86C413.813 162.574 413.391 162.914 412.881 162.914C412.392 162.914 411.977 162.574 411.977 161.854C411.977 161.16 412.405 160.806 412.881 160.806Z" fill="white"/>
<path d="M417.531 160.072V163.989H418.483V160.072H417.531ZM418.007 158.372C417.687 158.372 417.469 158.59 417.469 158.902C417.469 159.215 417.687 159.433 418.007 159.433C418.326 159.433 418.544 159.215 418.544 158.902C418.544 158.59 418.326 158.372 418.007 158.372Z" fill="white"/>
<path d="M421.172 160.84C421.594 160.84 421.913 161.078 421.913 161.731V163.989H422.872V161.364C422.872 160.31 422.226 159.963 421.546 159.963C421.111 159.963 420.608 160.154 420.336 160.65V160.072H419.377V163.989H420.336V161.752C420.336 161.126 420.689 160.84 421.172 160.84Z" fill="white"/>
<path d="M425.555 160.84C425.976 160.84 426.296 161.078 426.296 161.731V163.989H427.255V161.364C427.255 160.31 426.609 159.963 425.929 159.963C425.494 159.963 424.99 160.154 424.718 160.65V160.072H423.76V163.989H424.718V161.752C424.718 161.126 425.072 160.84 425.555 160.84Z" fill="white"/>
<path d="M480.646 213.02L480.893 211.567L483.76 189.058L470.188 178.904L451.083 184.333L452.857 213.8C461.844 215.959 470.754 215.64 480.646 213.02Z" fill="#FFD3BA"/>
<path d="M455.789 195.991C454.244 194.72 453.566 192.579 454.25 190.574C456.448 184.136 456.744 180.449 456.858 177.223C456.955 174.496 459.245 172.363 461.973 172.46C464.7 172.557 466.833 174.846 466.737 177.574C466.57 182.276 465.974 186.829 463.605 193.768C462.723 196.351 459.914 197.73 457.331 196.848C456.753 196.651 456.235 196.357 455.789 195.991Z" fill="#FFD3BA"/>
<path d="M465.376 194.619C463.786 193.312 463.124 191.09 463.89 189.057C465.212 185.551 465.798 182.316 465.631 179.438C465.474 176.713 467.556 174.377 470.28 174.219C473.005 174.061 475.342 176.142 475.499 178.867C475.746 183.134 474.952 187.736 473.14 192.543C472.177 195.098 469.326 196.388 466.772 195.425C466.252 195.229 465.783 194.953 465.376 194.619Z" fill="#FFD3BA"/>
<path d="M475.679 196.919C473.91 195.866 472.921 193.77 473.372 191.643C474.151 187.98 474.243 184.692 473.645 181.872C473.08 179.202 474.785 176.578 477.456 176.012C480.126 175.446 482.749 177.152 483.315 179.822C484.202 184.004 484.11 188.672 483.042 193.697C482.474 196.367 479.85 198.072 477.18 197.504C476.637 197.389 476.133 197.188 475.679 196.919Z" fill="#FFD3BA"/>
<path d="M451.956 227.262C450.623 217.371 447.303 214.121 446.816 213.468C446.353 212.849 442.025 207.974 440.428 205.072C438.45 201.475 436.119 196.346 438.14 192.152C440.119 188.046 445.066 188.869 448.908 185.801L457.141 182.793C460.411 182.233 463.517 184.429 464.078 187.7C464.639 190.971 462.442 194.077 459.171 194.638L457.549 196.381C456.955 196.624 457.46 198.299 457.615 199.001C458.555 200.678 455.244 203.802 456.778 205.859C458.763 208.518 458.215 212.283 455.556 214.267C453.549 215.765 452.271 229.598 451.956 227.262Z" fill="#FFD3BA"/>
<path fill-rule="evenodd" clip-rule="evenodd" d="M481.204 213.766C473.025 221.441 462.533 226.68 450.886 228.323C450.6 216.254 449.983 205.646 448.733 202.9C445.458 195.701 476.573 205.426 476.573 205.426C476.573 205.426 481.459 193.616 481.204 213.766Z" fill="#FFD3BA"/>
<path d="M439.145 163.861C439.145 163.861 447.376 166.403 450.395 170.537C454.861 176.653 453.486 186.027 449.507 193.019" stroke="#FFD2BA" stroke-width="13.09" stroke-linecap="round" stroke-linejoin="round"/>
<path d="M677.704 172.885C677.704 203.712 652.714 228.702 621.887 228.702C591.06 228.702 566.07 203.712 566.07 172.885C566.07 142.058 591.06 117.068 621.887 117.068C652.714 117.068 677.704 142.058 677.704 172.885Z" fill="#EEEDF3"/>
<path fill-rule="evenodd" clip-rule="evenodd" d="M628.299 228.345C628.289 208.02 628.298 185.606 628.386 180.511C628.734 160.14 648.82 164.48 648.82 164.48L673.183 180.511L673.175 194.954C665.429 212.936 648.503 226.034 628.299 228.345Z" fill="#FFD3BB"/>
<path d="M665.935 186.377L630.598 193.299C627.196 193.965 623.898 191.747 623.232 188.346L609.278 117.108C608.612 113.706 610.83 110.408 614.232 109.742L649.569 102.82C652.971 102.154 656.269 104.372 656.935 107.774L670.889 179.011C671.555 182.412 669.337 185.711 665.935 186.377Z" fill="#FF5A23"/>
<path d="M670.058 174.325L622.401 183.659L610.354 122.155L658.011 112.82L670.058 174.325Z" fill="#FF985F"/>
<path d="M622.458 162.724L609.815 163.707C606.42 163.971 603.454 161.433 603.189 158.037C602.925 154.641 605.464 151.675 608.859 151.411L621.502 150.428C624.897 150.163 627.863 152.702 628.127 156.097C628.392 159.493 625.853 162.459 622.458 162.724Z" fill="#FFD3BB"/>
<path d="M623.511 174.277L610.869 175.26C607.473 175.524 604.507 172.986 604.242 169.59C603.978 166.194 606.516 163.228 609.912 162.964L622.554 161.981C625.95 161.716 628.916 164.255 629.18 167.65C629.445 171.046 626.907 174.012 623.511 174.277Z" fill="#FFD3BB"/>
<path d="M625.635 185.6L612.993 186.584C609.598 186.847 606.63 184.309 606.366 180.914C606.102 177.518 608.641 174.552 612.036 174.288L624.679 173.305C628.074 173.04 631.041 175.578 631.305 178.974C631.569 182.369 629.031 185.336 625.635 185.6Z" fill="#FFD3BB"/>
<path d="M652.355 161.496L637.184 164.467C634.743 164.945 632.377 163.354 631.899 160.914L629.166 146.956C628.688 144.516 630.279 142.15 632.72 141.672L647.891 138.701C650.331 138.223 652.697 139.814 653.175 142.254L655.908 156.212C656.386 158.652 654.795 161.018 652.355 161.496Z" fill="#FFF4EB"/>
<path d="M647.074 144.351L644.831 132.896C644.096 129.142 640.457 126.695 636.702 127.43C632.949 128.165 630.502 131.804 631.237 135.558L631.316 136.093" stroke="#FFF4EB" stroke-width="1.02" stroke-miterlimit="10" stroke-linecap="round"/>
<path fill-rule="evenodd" clip-rule="evenodd" d="M670.328 200.637C669.523 200.951 668.651 201.254 667.71 201.532C660.978 203.523 650.928 194.8 650.928 194.8C650.928 194.8 651.212 191.197 651.686 187.31C652.16 183.422 654.625 179.914 655.858 178.777C650.928 177.734 647.42 176.027 644.86 172.614C642.204 169.072 640.309 165.977 639.835 160.478C639.36 154.979 641.352 152.987 643.722 151.85C646.092 150.712 648.178 151.281 650.454 152.419C652.224 153.304 653.271 156.693 653.488 159.15C653.772 162.374 654.499 163.162 655.953 164.555C657.072 165.627 659.461 165.598 661.073 165.408C662.685 165.218 664.147 165.304 666.951 165.977C669.321 166.546 671.692 168.158 673.683 170.812C675.851 173.703 676.574 177.21 677.049 181.468C675.986 188.354 673.665 194.824 670.328 200.637Z" fill="#FFD3BB"/>
<g clip-path="url(#clip0)">
<path d="M1033.98 297.058C1033.98 327.885 1008.99 352.874 978.162 352.874C947.335 352.874 922.345 327.885 922.345 297.058C922.345 266.231 947.335 241.241 978.162 241.241C1008.99 241.241 1033.98 266.231 1033.98 297.058Z" fill="#EEEDF3"/>
<path d="M1011.69 330.249L965.978 317.617C964.439 317.192 963.538 315.6 963.963 314.063L982.282 247.778C982.707 246.239 984.298 245.338 985.836 245.762L1031.54 258.395C1033.08 258.82 1033.98 260.412 1033.56 261.949L1015.24 328.234C1014.82 329.772 1013.22 330.674 1011.69 330.249Z" fill="#C8C5D6"/>
<path d="M1012.06 328.863L965.316 320.895C963.743 320.627 962.686 319.134 962.954 317.562L974.508 249.77C974.776 248.197 976.269 247.139 977.842 247.407L1024.59 255.374C1026.16 255.642 1027.22 257.135 1026.95 258.708L1015.4 326.5C1015.13 328.073 1013.64 329.131 1012.06 328.863Z" fill="white"/>
<path d="M997.488 272.015C990.467 271.061 984.043 274.738 982.216 280.431C981.897 281.424 982.637 282.386 983.671 282.526L1008 285.832C1009.03 285.973 1010 285.244 1009.96 284.202C1009.72 278.227 1004.51 272.969 997.488 272.015Z" fill="#59CBE8"/>
<path d="M1005.31 263.548C1004.89 266.649 1002.03 268.821 998.932 268.4C995.831 267.978 993.659 265.123 994.081 262.023C994.502 258.922 997.357 256.75 1000.46 257.171C1003.56 257.593 1005.73 260.448 1005.31 263.548Z" fill="#59CBE8"/>
<path d="M976.34 291.484L1008.3 296.186" stroke="#C8C5D6" stroke-width="0.610363" stroke-miterlimit="10" stroke-linecap="round"/>
<path d="M975.219 298.216L1007.18 302.919" stroke="#C8C5D6" stroke-width="0.610363" stroke-miterlimit="10" stroke-linecap="round"/>
</g>
<g clip-path="url(#clip1)">
<path d="M744.021 173.058C744.021 203.885 769.011 228.874 799.838 228.874C830.665 228.874 855.655 203.885 855.655 173.058C855.655 142.23 830.665 117.241 799.838 117.241C769.011 117.241 744.021 142.23 744.021 173.058Z" fill="#EEEDF3"/>
<path d="M764.484 206.249L810.192 193.616C811.731 193.191 812.632 191.6 812.207 190.062L793.888 123.777C793.463 122.239 791.872 121.337 790.334 121.762L744.626 134.395C743.088 134.82 742.186 136.411 742.61 137.949L760.93 204.234C761.355 205.772 762.947 206.674 764.484 206.249Z" fill="#C8C5D6"/>
<path d="M764.571 204.264L811.562 197.878C813.143 197.663 814.25 196.207 814.035 194.627L804.775 126.483C804.56 124.902 803.104 123.795 801.523 124.01L754.533 130.394C752.952 130.609 751.845 132.065 752.06 133.646L761.32 201.79C761.535 203.371 762.99 204.478 764.571 204.264Z" fill="white"/>
<path d="M780.512 148.013C787.533 147.059 793.957 150.736 795.784 156.43C796.103 157.423 795.363 158.384 794.329 158.524L770.001 161.831C768.967 161.971 767.998 161.243 768.04 160.201C768.282 154.226 773.491 148.967 780.512 148.013Z" fill="#49367E"/>
<path d="M772.691 139.549C773.112 142.65 775.967 144.822 779.068 144.4C782.169 143.979 784.341 141.124 783.919 138.023C783.498 134.923 780.643 132.751 777.542 133.172C774.442 133.593 772.27 136.448 772.691 139.549Z" fill="#49367E"/>
<path d="M801.66 167.48L769.704 172.182" stroke="#C8C5D6" stroke-width="0.610363" stroke-miterlimit="10" stroke-linecap="round"/>
<path d="M802.781 174.214L770.825 178.916" stroke="#C8C5D6" stroke-width="0.610363" stroke-miterlimit="10" stroke-linecap="round"/>
<path d="M776.463 191.186C776.463 191.186 785.356 181.626 786.041 185.496C786.728 189.366 787.759 191.448 792.98 188.21C798.201 184.971 798.484 187.41 798.484 187.41" stroke="#49367E" stroke-width="0.610363" stroke-miterlimit="10" stroke-linecap="round"/>
</g>
<path d="M906.801 388.616L906.789 388.712C906.645 389.852 905.721 390.644 904.305 390.644C902.817 390.644 901.329 389.756 901.329 387.536C901.329 385.424 902.565 384.356 904.221 384.356C905.481 384.356 906.549 384.836 906.753 386.336L908.337 386.096C907.989 383.588 905.817 382.82 904.317 382.82C901.629 382.82 899.637 384.752 899.637 387.536C899.637 390.2 901.593 392.18 903.873 392.18C905.325 392.18 906.357 391.28 906.837 390.32L906.849 390.32L907.125 392L908.457 392L908.457 387.2L904.437 387.2L904.437 388.616L906.801 388.616ZM913.451 386.192C914.423 386.192 915.191 386.648 915.311 387.8L911.555 387.8C911.759 386.732 912.455 386.192 913.451 386.192ZM916.727 388.868L916.727 388.376C916.727 386.336 915.383 384.896 913.511 384.896C911.507 384.896 909.983 386.3 909.983 388.52C909.983 390.8 911.567 392.18 913.607 392.18C914.879 392.18 916.415 391.448 916.679 389.852L915.287 389.612C915.131 390.404 914.675 390.884 913.547 390.884C912.299 390.884 911.615 390.08 911.507 388.868L916.727 388.868ZM918.76 383.42L918.76 385.088L917.476 385.088L917.476 386.3L918.76 386.3L918.76 390.056C918.76 391.328 919.396 392.12 920.776 392.12C921.196 392.12 921.688 392.012 922.048 391.904L921.808 390.692C921.532 390.764 921.364 390.8 921.088 390.8C920.476 390.8 920.26 390.524 920.26 389.984L920.26 386.3L921.988 386.3L921.988 385.088L920.26 385.088L920.26 383.18L918.76 383.42ZM932.873 392L932.873 385.088L931.373 385.088L931.373 389.108C931.373 390.284 930.593 390.824 929.585 390.824C928.661 390.824 928.205 390.416 928.205 389.348L928.205 385.088L926.705 385.088L926.705 389.912C926.705 391.508 927.857 392.18 929.009 392.18C929.873 392.18 930.833 391.784 931.373 390.836L931.373 392L932.873 392ZM938.633 384.896C937.457 384.896 936.737 385.64 936.293 386.444L936.293 385.088L934.793 385.088L934.793 394.4L936.293 394.4L936.293 390.692C936.869 391.676 937.613 392.18 938.489 392.18C940.097 392.18 941.669 390.956 941.669 388.436C941.669 386.024 940.037 384.896 938.633 384.896ZM938.225 386.192C939.173 386.192 940.157 386.948 940.157 388.52C940.157 390.116 939.173 390.872 938.213 390.872C937.205 390.872 936.293 390.056 936.293 388.52C936.293 386.912 937.205 386.192 938.225 386.192ZM949.723 382.7L948.223 382.7L948.223 386.444C947.731 385.352 946.987 384.896 946.051 384.896C944.443 384.896 942.847 386.06 942.847 388.472C942.847 391.004 944.455 392.18 945.859 392.18C947.119 392.18 947.875 391.52 948.223 390.692L948.223 392L949.723 392L949.723 382.7ZM946.303 386.192C947.311 386.192 948.223 386.996 948.223 388.556C948.223 390.164 947.311 390.872 946.291 390.872C945.343 390.872 944.359 390.128 944.359 388.556C944.359 386.96 945.355 386.192 946.303 386.192ZM954.321 392.18C955.557 392.18 956.313 391.424 956.661 390.572L956.661 392L958.161 392L958.161 385.088L956.661 385.088L956.661 386.444C956.169 385.352 955.413 384.896 954.333 384.896C952.881 384.896 951.285 386.06 951.285 388.472C951.285 391.004 952.893 392.18 954.321 392.18ZM954.741 386.192C955.749 386.192 956.661 386.96 956.661 388.556C956.661 390.2 955.749 390.872 954.729 390.872C953.781 390.872 952.797 390.164 952.797 388.556C952.797 386.924 953.793 386.192 954.741 386.192ZM960.635 383.42L960.635 385.088L959.351 385.088L959.351 386.3L960.635 386.3L960.635 390.056C960.635 391.328 961.271 392.12 962.651 392.12C963.071 392.12 963.563 392.012 963.923 391.904L963.683 390.692C963.407 390.764 963.239 390.8 962.963 390.8C962.351 390.8 962.135 390.524 962.135 389.984L962.135 386.3L963.863 386.3L963.863 385.088L962.135 385.088L962.135 383.18L960.635 383.42ZM968.393 386.192C969.365 386.192 970.133 386.648 970.253 387.8L966.497 387.8C966.701 386.732 967.397 386.192 968.393 386.192ZM971.669 388.868L971.669 388.376C971.669 386.336 970.325 384.896 968.453 384.896C966.449 384.896 964.925 386.3 964.925 388.52C964.925 390.8 966.509 392.18 968.549 392.18C969.821 392.18 971.357 391.448 971.621 389.852L970.229 389.612C970.073 390.404 969.617 390.884 968.489 390.884C967.241 390.884 966.557 390.08 966.449 388.868L971.669 388.868ZM973.702 383.42L973.702 385.088L972.418 385.088L972.418 386.3L973.702 386.3L973.702 390.056C973.702 391.328 974.338 392.12 975.718 392.12C976.138 392.12 976.63 392.012 976.99 391.904L976.75 390.692C976.474 390.764 976.306 390.8 976.03 390.8C975.418 390.8 975.202 390.524 975.202 389.984L975.202 386.3L976.93 386.3L976.93 385.088L975.202 385.088L975.202 383.18L973.702 383.42ZM981.683 385.088L981.683 392L983.183 392L983.183 385.088L981.683 385.088ZM982.427 382.1C981.923 382.1 981.527 382.508 981.527 383C981.527 383.492 981.923 383.9 982.427 383.9C982.931 383.9 983.327 383.492 983.327 383C983.327 382.508 982.931 382.1 982.427 382.1ZM988.333 386.252C989.149 386.252 989.797 386.732 989.797 388.016L989.797 392L991.297 392L991.297 387.368C991.297 385.508 990.121 384.896 988.885 384.896C988.069 384.896 987.121 385.232 986.629 386.108L986.629 385.088L985.129 385.088L985.129 392L986.629 392L986.629 388.052C986.629 386.816 987.337 386.252 988.333 386.252ZM993.576 392L995.076 392L995.076 386.3L996.792 386.3L996.792 385.088L995.076 385.088L995.076 384.812C995.076 384.104 995.412 383.732 996.024 383.732C996.348 383.732 996.624 383.78 996.912 383.864L997.116 382.7C996.78 382.58 996.372 382.472 995.868 382.472C994.488 382.472 993.576 383.36 993.576 384.824L993.576 385.088L992.628 385.088L992.628 386.3L993.576 386.3L993.576 392ZM1000.87 384.896C998.996 384.896 997.448 386.264 997.448 388.532C997.448 390.8 998.996 392.18 1000.87 392.18C1002.74 392.18 1004.29 390.8 1004.29 388.532C1004.29 386.264 1002.74 384.896 1000.87 384.896ZM1000.87 386.192C1001.9 386.192 1002.78 386.948 1002.78 388.532C1002.78 390.116 1001.9 390.884 1000.87 390.884C999.836 390.884 998.96 390.116 998.96 388.532C998.96 386.948 999.836 386.192 1000.87 386.192ZM1009.11 386.516C1009.49 386.516 1009.75 386.564 1010.01 386.672L1010.16 384.992C1010.01 384.92 1009.81 384.896 1009.63 384.896C1008.95 384.896 1007.87 385.292 1007.3 386.744L1007.3 385.088L1005.8 385.088L1005.8 392L1007.3 392L1007.3 388.976C1007.3 387.056 1008.14 386.516 1009.11 386.516ZM1018.96 386.252C1019.81 386.252 1020.46 386.732 1020.46 388.016L1020.46 392L1021.96 392L1021.96 387.368C1021.96 385.508 1020.82 384.896 1019.56 384.896C1018.79 384.896 1017.82 385.208 1017.3 386.24C1016.93 385.256 1016.05 384.896 1015.13 384.896C1014.3 384.896 1013.3 385.22 1012.81 386.108L1012.81 385.088L1011.31 385.088L1011.31 392L1012.81 392L1012.81 388.052C1012.81 386.816 1013.52 386.252 1014.48 386.252C1015.33 386.252 1015.98 386.732 1015.98 388.016L1015.98 392L1017.48 392L1017.48 388.052C1017.48 386.816 1018.1 386.252 1018.96 386.252ZM1026.49 392.18C1027.73 392.18 1028.48 391.424 1028.83 390.572L1028.83 392L1030.33 392L1030.33 385.088L1028.83 385.088L1028.83 386.444C1028.34 385.352 1027.58 384.896 1026.5 384.896C1025.05 384.896 1023.45 386.06 1023.45 388.472C1023.45 391.004 1025.06 392.18 1026.49 392.18ZM1026.91 386.192C1027.92 386.192 1028.83 386.96 1028.83 388.556C1028.83 390.2 1027.92 390.872 1026.9 390.872C1025.95 390.872 1024.97 390.164 1024.97 388.556C1024.97 386.924 1025.96 386.192 1026.91 386.192ZM1032.8 383.42L1032.8 385.088L1031.52 385.088L1031.52 386.3L1032.8 386.3L1032.8 390.056C1032.8 391.328 1033.44 392.12 1034.82 392.12C1035.24 392.12 1035.73 392.012 1036.09 391.904L1035.85 390.692C1035.58 390.764 1035.41 390.8 1035.13 390.8C1034.52 390.8 1034.3 390.524 1034.3 389.984L1034.3 386.3L1036.03 386.3L1036.03 385.088L1034.3 385.088L1034.3 383.18L1032.8 383.42ZM1037.53 385.088L1037.53 392L1039.03 392L1039.03 385.088L1037.53 385.088ZM1038.27 382.1C1037.77 382.1 1037.37 382.508 1037.37 383C1037.37 383.492 1037.77 383.9 1038.27 383.9C1038.78 383.9 1039.17 383.492 1039.17 383C1039.17 382.508 1038.78 382.1 1038.27 382.1ZM1043.96 384.896C1042.09 384.896 1040.54 386.264 1040.54 388.532C1040.54 390.8 1042.09 392.18 1043.96 392.18C1045.83 392.18 1047.38 390.8 1047.38 388.532C1047.38 386.264 1045.83 384.896 1043.96 384.896ZM1043.96 386.192C1044.99 386.192 1045.87 386.948 1045.87 388.532C1045.87 390.116 1044.99 390.884 1043.96 390.884C1042.93 390.884 1042.05 390.116 1042.05 388.532C1042.05 386.948 1042.93 386.192 1043.96 386.192ZM1052.1 386.252C1052.92 386.252 1053.56 386.732 1053.56 388.016L1053.56 392L1055.06 392L1055.06 387.368C1055.06 385.508 1053.89 384.896 1052.65 384.896C1051.84 384.896 1050.89 385.232 1050.4 386.108L1050.4 385.088L1048.9 385.088L1048.9 392L1050.4 392L1050.4 388.052C1050.4 386.816 1051.1 386.252 1052.1 386.252Z" fill="#49367E"/>
<defs>
<filter id="filter0_d" x="387.63" y="153.101" width="50.932" height="17.102" filterUnits="userSpaceOnUse" color-interpolation-filters="sRGB">
<feFlood flood-opacity="0" result="BackgroundImageFix"/>
<feColorMatrix in="SourceAlpha" type="matrix" values="0 0 0 0 0 0 0 0 0 0 0 0 0 0 0 0 0 0 127 0"/>
<feOffset dy="0.238"/>
<feGaussianBlur stdDeviation="0.238"/>
<feColorMatrix type="matrix" values="0 0 0 0 0.0862745 0 0 0 0 0.0705882 0 0 0 0 0.145098 0 0 0 0.07 0"/>
<feBlend mode="normal" in2="BackgroundImageFix" result="effect1_dropShadow"/>
<feBlend mode="normal" in="SourceGraphic" in2="effect1_dropShadow" result="shape"/>
</filter>
<clipPath id="clip0">
<rect width="170" height="170" fill="white" transform="translate(893 212)"/>
</clipPath>
<clipPath id="clip1">
<rect width="170" height="170" fill="white" transform="matrix(-1 0 0 1 885 88)"/>
</clipPath>
</defs>
</svg>
