<svg width="170" height="170" viewBox="0 0 170 170" fill="none" xmlns="http://www.w3.org/2000/svg">
<path d="M140.817 85.0573C140.817 115.884 115.827 140.874 85 140.874C54.1732 140.874 29.1829 115.884 29.1829 85.0573C29.1829 54.2306 54.1732 29.2402 85 29.2402C115.827 29.2402 140.817 54.2306 140.817 85.0573Z" fill="#EEEDF3"/>
<path d="M60.4155 65.1254C61.5876 66.1427 62.7627 67.1599 63.9349 68.1772C66.9866 70.8251 70.1386 73.3636 73.0992 76.1148C77.8241 80.5056 80.7666 85.9199 81.9326 92.2693C83.1108 98.7008 82.2818 104.886 79.394 110.753C76.6247 116.377 72.3917 120.601 66.8409 123.5C62.8903 125.565 58.6755 126.677 54.2209 126.85C45.8642 127.175 38.5097 124.648 32.3211 118.988C27.9242 114.965 25.1579 109.963 23.8461 104.157C23.1416 101.042 22.9442 97.89 23.2782 94.7168C23.9554 88.2671 26.4484 82.6161 30.7937 77.7879C32.3363 76.0753 34.1279 74.639 35.8618 73.1389C38.8862 70.5305 41.9167 67.9312 44.9441 65.3289C45.017 65.2651 45.0778 65.1922 45.1446 65.1224C45.5575 65.1194 45.9705 65.1285 46.3835 65.1072C46.6355 65.0951 46.6902 65.2044 46.6841 65.4291C46.672 65.8542 46.6811 66.2793 46.6811 66.7044C46.6811 70.9313 46.6811 75.1583 46.6811 79.3852C46.6811 80.1534 46.9635 80.7638 47.6497 81.1342C48.9008 81.8114 50.3401 80.9095 50.3432 79.4459C50.3492 76.1178 50.3462 72.7897 50.3462 69.4616C50.3462 68.1256 50.3523 66.7895 50.3401 65.4534C50.3371 65.1801 50.413 65.0951 50.6863 65.1042C51.2815 65.1254 51.8766 65.1102 52.4718 65.1102C55.1197 65.1194 57.7676 65.1224 60.4155 65.1254ZM53.3949 109.207C53.9415 109.207 54.4881 109.195 55.0347 109.213C55.2806 109.222 55.3353 109.137 55.3323 108.907C55.3201 108.117 55.3505 107.328 55.3171 106.538C55.3019 106.168 55.4051 106.022 55.7695 105.928C57.0722 105.6 58.2413 104.999 59.2191 104.063C60.7434 102.6 61.2961 100.787 61.1716 98.716C61.0349 96.4507 60.0146 94.7563 58.0105 93.6601C56.6349 92.907 55.1288 92.5305 53.647 92.0811C52.7755 91.8169 51.9009 91.5618 51.1327 91.0517C50.3796 90.5537 50.0031 89.8613 50.0881 88.9534C50.1731 88.0515 50.6559 87.426 51.4788 87.0586C52.1378 86.7671 52.8362 86.6942 53.5437 86.7428C55.147 86.8521 56.0246 87.5383 56.5226 89.0657C56.6167 89.3512 56.6835 89.6488 56.7382 89.9463C56.7746 90.1559 56.8202 90.2439 57.0752 90.2045C58.2504 90.0223 59.4286 89.8735 60.6068 89.7034C61.4418 89.582 61.4418 89.5728 61.2475 88.7348C60.5218 85.598 58.8243 83.3782 55.5266 82.6677C55.3292 82.6252 55.3231 82.5128 55.3262 82.3549C55.3323 81.5533 55.311 80.7516 55.3353 79.95C55.3444 79.6342 55.2412 79.5704 54.9466 79.5765C53.902 79.5947 52.8575 79.5916 51.8129 79.5765C51.5396 79.5734 51.4333 79.6311 51.4424 79.9317C51.4637 80.7334 51.4424 81.535 51.4546 82.3367C51.4576 82.5493 51.3908 82.6373 51.1843 82.6798C50.8867 82.7406 50.5922 82.8134 50.3067 82.9076C48.4514 83.5179 46.9574 84.5655 46.1983 86.4361C45.5727 87.9726 45.5545 89.5577 45.9796 91.1488C46.5049 93.1074 47.8805 94.3038 49.6357 95.148C50.9748 95.7917 52.408 96.1743 53.7988 96.6693C54.564 96.9426 55.3262 97.228 55.9639 97.7564C56.3586 98.0844 56.641 98.4821 56.72 99.0014C56.887 100.079 56.3981 101.033 55.3869 101.552C54.1541 102.184 52.8575 102.141 51.5548 101.85C50.1822 101.543 49.332 100.684 48.9767 99.3233C48.8583 98.8739 48.8097 98.4153 48.7945 97.9568C48.7854 97.6926 48.6822 97.6653 48.4635 97.6987C47.1821 97.893 45.8976 98.0874 44.6132 98.2635C44.3976 98.2939 44.3611 98.3759 44.3793 98.5672C44.4492 99.3081 44.6071 100.031 44.8865 100.717C46.0404 103.559 48.1902 105.257 51.0962 106.061C51.3635 106.137 51.4667 106.222 51.4606 106.511C51.4394 107.3 51.4667 108.09 51.4454 108.879C51.4363 109.162 51.5305 109.222 51.7947 109.213C52.3261 109.192 52.8605 109.207 53.3949 109.207Z" fill="#FF985F"/>
<path d="M45.6881 61.4594C44.012 58.5504 42.3267 55.6444 40.6596 52.7293C38.4945 48.9366 40.6292 44.318 44.9169 43.5042C45.2873 43.4343 45.6639 43.407 46.0404 43.407C50.5345 43.41 55.0256 43.407 59.5197 43.407C64.3145 43.407 67.2994 48.4841 64.937 52.6594C63.3215 55.5199 61.6575 58.353 60.0147 61.1982C59.9661 61.2802 59.9266 61.3713 59.8841 61.4564C56.0246 61.4594 52.1652 61.4624 48.3087 61.4655C47.4342 61.4685 46.5627 61.4624 45.6881 61.4594Z" fill="#FF985F"/>
<path d="M45.6879 61.4592C46.5624 61.4623 47.4339 61.4714 48.3085 61.4714C52.1679 61.4683 56.0274 61.4653 59.8839 61.4623C60.1147 61.4653 60.3454 61.4714 60.5762 61.4714C61.639 61.4774 62.4467 62.2518 62.4558 63.2812C62.468 64.2832 61.6694 65.0849 60.6309 65.1153C60.558 65.1183 60.4851 65.1213 60.4122 65.1274C57.7643 65.1244 55.1165 65.1183 52.4686 65.1153C51.8734 65.1153 51.2782 65.1304 50.6831 65.1092C50.4067 65.1001 50.3339 65.1851 50.3369 65.4584C50.349 66.7945 50.343 68.1306 50.343 69.4667C50.343 72.7947 50.346 76.1228 50.3399 79.4509C50.3369 80.9145 48.8976 81.8164 47.6465 81.1392C46.9602 80.7688 46.6778 80.1554 46.6778 79.3902C46.6809 75.1633 46.6778 70.9364 46.6778 66.7095C46.6778 66.2843 46.6687 65.8592 46.6809 65.4341C46.6869 65.2094 46.6323 65.1001 46.3802 65.1122C45.9673 65.1335 45.5543 65.1244 45.1413 65.1274C43.9814 65.0819 43.2556 64.5049 43.125 63.5302C42.9823 62.4552 43.7992 61.4987 44.8832 61.4744C45.1535 61.4653 45.4207 61.4623 45.6879 61.4592Z" fill="#FD5B24"/>
<path d="M53.3944 109.207C52.8599 109.207 52.3255 109.192 51.791 109.213C51.5269 109.222 51.4358 109.162 51.4418 108.879C51.4631 108.09 51.4358 107.3 51.457 106.511C51.4661 106.222 51.3629 106.134 51.0926 106.061C48.1866 105.257 46.0367 103.559 44.8828 100.717C44.6035 100.028 44.4456 99.308 44.3757 98.567C44.3575 98.3757 44.394 98.2937 44.6096 98.2634C45.894 98.0842 47.1785 97.8929 48.4599 97.6986C48.6786 97.6652 48.7818 97.6925 48.7909 97.9567C48.8061 98.4152 48.8547 98.8737 48.9731 99.3231C49.3284 100.684 50.1786 101.543 51.5512 101.85C52.8538 102.141 54.1505 102.184 55.3833 101.552C56.3945 101.033 56.8834 100.076 56.7164 99.0013C56.6344 98.482 56.355 98.0842 55.9603 97.7563C55.3226 97.2279 54.5604 96.9425 53.7952 96.6692C52.4044 96.1742 50.9681 95.7916 49.632 95.1479C47.8799 94.3037 46.5013 93.1073 45.976 91.1487C45.5509 89.5606 45.5691 87.9724 46.1946 86.4359C46.9568 84.5654 48.4508 83.5178 50.3031 82.9074C50.5916 82.8133 50.8861 82.7374 51.1807 82.6797C51.3841 82.6402 51.454 82.5522 51.4509 82.3366C51.4388 81.5349 51.4601 80.7333 51.4388 79.9316C51.4297 79.631 51.5329 79.5703 51.8093 79.5763C52.8538 79.5915 53.8984 79.5915 54.943 79.5763C55.2376 79.5703 55.3408 79.634 55.3317 79.9498C55.3074 80.7515 55.3256 81.5531 55.3226 82.3548C55.3226 82.5127 55.3287 82.6281 55.523 82.6676C58.8177 83.3781 60.5181 85.5978 61.2439 88.7346C61.4382 89.5758 61.4382 89.5818 60.6032 89.7033C59.428 89.8733 58.2468 90.0221 57.0716 90.2043C56.8166 90.2438 56.771 90.1557 56.7346 89.9462C56.6799 89.6486 56.6131 89.351 56.519 89.0656C56.018 87.5382 55.1434 86.8519 53.5401 86.7426C52.8296 86.694 52.1342 86.7669 51.4752 87.0584C50.6523 87.4228 50.1695 88.0514 50.0845 88.9533C49.9995 89.8612 50.376 90.5535 51.1291 91.0515C51.9004 91.5617 52.7749 91.8167 53.6434 92.0809C55.1252 92.5303 56.6313 92.9099 58.0069 93.6599C60.011 94.7561 61.0313 96.4505 61.168 98.7158C61.2925 100.787 60.7398 102.603 59.2155 104.063C58.2377 105.002 57.0686 105.6 55.7659 105.928C55.3985 106.019 55.2952 106.168 55.3135 106.538C55.3469 107.328 55.3165 108.117 55.3287 108.907C55.3317 109.137 55.277 109.222 55.0311 109.213C54.4875 109.192 53.9409 109.207 53.3944 109.207Z" fill="#FF985F"/>
<path d="M46.2418 101.812H48.3672V99.6567L49.5665 98.2145L51.9652 101.812H54.3335L50.8417 96.6963L53.8628 93.068H51.4642L48.3672 97.1062V90.0469H46.2418V101.812Z" fill="#FFF4EC"/>
<path d="M59.2834 95.2086C59.5871 95.2086 59.9514 95.2845 60.2854 95.4059L60.422 92.9465C60.2247 92.8706 59.9818 92.8251 59.7541 92.8251C58.9191 92.8251 57.8867 93.2502 57.2036 94.9201V93.068H55.063V101.812H57.2036V97.5313C57.2036 95.664 58.2663 95.2086 59.2834 95.2086Z" fill="#FFF4EC"/>
<path fill-rule="evenodd" clip-rule="evenodd" d="M85 140.876C115.827 140.876 140.817 115.885 140.817 85.0585C140.817 83.6284 140.763 82.2107 140.658 80.8076H66.9024C64.3161 80.8076 62.22 82.9038 62.22 85.49V136.031C69.1761 139.144 76.8858 140.876 85 140.876Z" fill="#C8C5D6"/>
<path fill-rule="evenodd" clip-rule="evenodd" d="M140.327 92.4855C140.65 90.0557 140.817 87.5766 140.817 85.0585C140.817 83.6284 140.763 82.2107 140.658 80.8076H67.0701C64.391 80.8076 62.22 82.9787 62.22 85.657V92.4855H140.327Z" fill="#48367D"/>
<path d="M74.3538 86.6928C74.3538 88.0319 73.2691 89.1175 71.9299 89.1175C70.5908 89.1175 69.5045 88.0319 69.5045 86.6928C69.5045 85.3536 70.5908 84.2681 71.9299 84.2681C73.2691 84.2681 74.3538 85.3536 74.3538 86.6928Z" fill="white"/>
<path d="M82.3116 86.6471C82.3116 87.9863 81.226 89.0718 79.8876 89.0718C78.5477 89.0718 77.4622 87.9863 77.4622 86.6471C77.4622 85.3079 78.5477 84.2224 79.8876 84.2224C81.226 84.2224 82.3116 85.3079 82.3116 86.6471Z" fill="white"/>
<path d="M90.3963 86.6471C90.3963 87.9863 89.3108 89.0718 87.9724 89.0718C86.6332 89.0718 85.5469 87.9863 85.5469 86.6471C85.5469 85.3079 86.6332 84.2224 87.9724 84.2224C89.3108 84.2224 90.3963 85.3079 90.3963 86.6471Z" fill="white"/>
</svg>
