<svg width="1000" height="1000" viewBox="0 0 1000 1000" fill="none" xmlns="http://www.w3.org/2000/svg">
<path d="M172 500.336C172 681.67 318.998 828.665 500.336 828.665C681.67 828.665 828.672 681.67 828.672 500.336C828.672 318.998 681.67 172 500.336 172C318.998 172 172 318.998 172 500.336Z" fill="#EEEDF3"/>
<path d="M615.099 597.042C615.099 597.042 576.288 698.292 429.864 704.662L353.879 578.71" fill="#FFD3BA"/>
<path d="M395.393 502.766C395.393 502.766 484.182 561.578 452.438 704.658L395.311 719.468" fill="#FFD3BA"/>
<path fill-rule="evenodd" clip-rule="evenodd" d="M320.927 775.363L472.854 694.221L372.051 557.72L206.409 646.824C232.547 699.168 272.256 743.551 320.927 775.363Z" fill="#FFD3BA"/>
<path d="M334.144 653.471C325.083 653.445 316.032 649.956 309.136 643.019C295.352 629.149 295.416 606.724 309.289 592.936C373.928 528.693 333.44 418.344 333.019 417.24C326.018 398.979 335.162 378.549 353.427 371.549C371.684 364.541 392.185 373.725 399.189 391.99C401.586 398.241 456.775 546.208 359.219 643.175C352.282 650.067 343.21 653.497 334.144 653.471Z" fill="#FFD3BA"/>
<path d="M450.643 396.89C445.702 401.179 440.748 405.467 435.807 409.755C422.942 420.918 409.654 431.62 397.173 443.218C377.254 461.728 364.85 484.553 359.934 511.32C354.967 538.433 358.462 564.509 370.636 589.241C382.311 612.949 400.155 630.755 423.556 642.981C440.21 651.685 457.978 656.371 476.758 657.1C511.987 658.47 542.991 647.819 569.08 623.958C587.616 606.996 599.278 585.913 604.808 561.437C607.778 548.303 608.61 535.015 607.202 521.638C604.347 494.448 593.838 470.625 575.519 450.271C569.016 443.051 561.463 436.996 554.154 430.673C541.404 419.676 528.628 408.719 515.866 397.748C515.558 397.479 515.302 397.172 515.021 396.877C513.28 396.865 511.539 396.903 509.798 396.813C508.735 396.762 508.505 397.223 508.53 398.17C508.582 399.962 508.543 401.755 508.543 403.547C508.543 421.366 508.543 439.185 508.543 457.005C508.543 460.243 507.353 462.816 504.46 464.378C499.186 467.233 493.118 463.431 493.105 457.261C493.079 443.231 493.092 429.2 493.092 415.17C493.092 409.538 493.067 403.905 493.118 398.273C493.131 397.121 492.811 396.762 491.658 396.801C489.149 396.89 486.64 396.826 484.131 396.826C472.969 396.865 461.806 396.877 450.643 396.89ZM480.24 582.725C477.936 582.725 475.631 582.674 473.327 582.751C472.29 582.789 472.06 582.431 472.073 581.458C472.124 578.13 471.996 574.801 472.137 571.473C472.201 569.911 471.765 569.297 470.229 568.9C464.737 567.517 459.809 564.983 455.687 561.04C449.261 554.87 446.931 547.228 447.456 538.497C448.032 528.947 452.333 521.804 460.782 517.183C466.581 514.008 472.93 512.421 479.177 510.527C482.851 509.413 486.538 508.337 489.777 506.187C492.951 504.087 494.539 501.169 494.18 497.341C493.822 493.539 491.786 490.902 488.317 489.353C485.539 488.124 482.595 487.817 479.612 488.022C472.853 488.483 469.154 491.376 467.055 497.815C466.658 499.018 466.376 500.273 466.146 501.527C465.992 502.411 465.8 502.782 464.725 502.615C459.771 501.847 454.804 501.22 449.837 500.503C446.317 499.991 446.317 499.953 447.136 496.42C450.195 483.196 457.351 473.838 471.253 470.843C472.085 470.664 472.111 470.19 472.098 469.524C472.073 466.145 472.162 462.765 472.06 459.386C472.021 458.054 472.457 457.786 473.698 457.811C478.102 457.888 482.506 457.875 486.909 457.811C488.061 457.798 488.509 458.042 488.471 459.309C488.381 462.688 488.471 466.068 488.42 469.447C488.407 470.344 488.689 470.715 489.559 470.894C490.814 471.15 492.055 471.457 493.259 471.854C501.08 474.427 507.378 478.844 510.579 486.729C513.216 493.206 513.292 499.889 511.5 506.597C509.286 514.853 503.487 519.897 496.088 523.456C490.442 526.17 484.4 527.783 478.537 529.869C475.311 531.021 472.098 532.225 469.41 534.452C467.746 535.834 466.555 537.511 466.222 539.7C465.518 544.245 467.579 548.264 471.842 550.453C477.039 553.116 482.506 552.937 487.997 551.708C493.783 550.415 497.368 546.792 498.865 541.057C499.365 539.163 499.57 537.23 499.634 535.297C499.672 534.183 500.107 534.068 501.029 534.209C506.431 535.028 511.846 535.847 517.261 536.59C518.17 536.718 518.323 537.063 518.247 537.87C517.952 540.993 517.286 544.04 516.109 546.933C511.244 558.915 502.181 566.071 489.93 569.463C488.804 569.783 488.369 570.142 488.394 571.358C488.484 574.686 488.369 578.014 488.458 581.343C488.497 582.533 488.1 582.789 486.986 582.751C484.746 582.661 482.493 582.725 480.24 582.725Z" fill="#FF985F"/>
<path d="M512.729 381.437C519.796 369.174 526.9 356.923 533.928 344.634C543.055 328.645 534.056 309.174 515.981 305.744C514.419 305.449 512.832 305.334 511.244 305.334C492.299 305.347 473.366 305.334 454.42 305.334C434.207 305.334 421.623 326.738 431.583 344.339C438.393 356.398 445.408 368.342 452.333 380.336C452.538 380.682 452.705 381.066 452.884 381.424C469.154 381.437 485.424 381.45 501.682 381.463C505.369 381.476 509.043 381.45 512.729 381.437Z" fill="#FF985F"/>
<path d="M512.729 381.437C509.042 381.449 505.368 381.488 501.682 381.488C485.411 381.475 469.141 381.462 452.883 381.449C451.91 381.462 450.938 381.488 449.965 381.488C445.484 381.513 442.079 384.778 442.041 389.117C441.99 393.342 445.356 396.721 449.734 396.849C450.041 396.862 450.349 396.875 450.656 396.9C461.819 396.888 472.981 396.862 484.144 396.849C486.653 396.849 489.162 396.913 491.671 396.824C492.836 396.785 493.143 397.144 493.13 398.296C493.079 403.928 493.105 409.561 493.105 415.193C493.105 429.223 493.092 443.254 493.118 457.284C493.13 463.454 499.198 467.256 504.472 464.401C507.365 462.839 508.556 460.254 508.556 457.028C508.543 439.208 508.556 421.389 508.556 403.57C508.556 401.778 508.594 399.985 508.543 398.193C508.517 397.246 508.748 396.785 509.81 396.836C511.551 396.926 513.292 396.888 515.033 396.9C519.923 396.708 522.983 394.276 523.533 390.167C524.135 385.635 520.691 381.603 516.121 381.501C514.982 381.462 513.855 381.449 512.729 381.437Z" fill="#FD5B24"/>
<path d="M480.24 582.724C482.493 582.724 484.746 582.66 486.999 582.75C488.112 582.788 488.496 582.532 488.471 581.342C488.381 578.014 488.496 574.685 488.407 571.357C488.368 570.141 488.804 569.77 489.943 569.462C502.194 566.07 511.257 558.914 516.121 546.932C517.299 544.026 517.965 540.992 518.259 537.869C518.336 537.063 518.182 536.717 517.273 536.589C511.858 535.834 506.444 535.027 501.041 534.208C500.12 534.067 499.685 534.182 499.646 535.296C499.582 537.229 499.377 539.162 498.878 541.057C497.38 546.791 493.796 550.414 488.01 551.707C482.518 552.936 477.052 553.115 471.855 550.453C467.592 548.264 465.531 544.231 466.235 539.7C466.581 537.511 467.758 535.834 469.422 534.451C472.111 532.224 475.324 531.02 478.55 529.868C484.413 527.782 490.468 526.169 496.1 523.455C503.486 519.896 509.298 514.852 511.513 506.596C513.305 499.901 513.228 493.206 510.591 486.728C507.378 478.843 501.08 474.426 493.271 471.853C492.055 471.456 490.813 471.136 489.572 470.893C488.714 470.727 488.419 470.355 488.432 469.447C488.483 466.067 488.394 462.688 488.483 459.308C488.522 458.041 488.087 457.785 486.922 457.81C482.518 457.874 478.115 457.874 473.711 457.81C472.469 457.785 472.034 458.053 472.072 459.385C472.175 462.764 472.098 466.144 472.111 469.523C472.111 470.189 472.085 470.675 471.266 470.842C457.377 473.837 450.208 483.195 447.148 496.419C446.329 499.965 446.329 499.99 449.849 500.502C454.804 501.219 459.783 501.846 464.737 502.614C465.813 502.781 466.005 502.41 466.158 501.526C466.389 500.272 466.67 499.017 467.067 497.814C469.179 491.375 472.866 488.482 479.625 488.021C482.621 487.816 485.552 488.124 488.33 489.352C491.799 490.889 493.834 493.538 494.193 497.34C494.551 501.168 492.964 504.087 489.789 506.186C486.538 508.337 482.851 509.412 479.19 510.526C472.943 512.42 466.593 514.02 460.794 517.182C452.346 521.804 448.044 528.947 447.468 538.496C446.944 547.227 449.273 554.882 455.7 561.039C459.822 564.995 464.75 567.517 470.242 568.899C471.791 569.283 472.226 569.91 472.149 571.472C472.008 574.8 472.136 578.129 472.085 581.457C472.072 582.43 472.303 582.788 473.34 582.75C475.631 582.66 477.935 582.724 480.24 582.724Z" fill="#FF985F"/>
<path d="M454.346 551.334H463.306V542.246L468.362 536.166L478.474 551.334H488.458L473.738 529.766L486.474 514.47H476.362L463.306 531.494V501.734H454.346V551.334Z" fill="#FFF4EC"/>
<path d="M509.325 523.494C510.605 523.494 512.141 523.814 513.549 524.326L514.125 513.958C513.293 513.638 512.269 513.446 511.309 513.446C507.789 513.446 503.437 515.238 500.557 522.278V514.47H491.533V551.334H500.557V533.286C500.557 525.414 505.037 523.494 509.325 523.494Z" fill="#FFF4EC"/>
<path d="M633.65 511.353L584.383 516.361C566.63 517.834 551.049 504.637 549.576 486.888C548.103 469.139 561.297 453.554 579.049 452.081L628.316 447.073C646.065 445.601 661.654 458.797 663.127 476.546C664.599 494.295 651.399 509.88 633.65 511.353Z" fill="#FFD3BA"/>
<path d="M623.898 584.759L574.386 585.693C556.572 585.699 542.131 571.263 542.125 553.453C542.119 535.643 556.551 521.198 574.365 521.192L623.877 520.259C641.687 520.253 656.136 534.688 656.142 552.498C656.147 570.308 641.708 584.753 623.898 584.759Z" fill="#FFD3BA"/>
<path d="M612.764 650.627L563.38 646.94C545.644 645.285 532.611 629.566 534.266 611.833C535.921 594.096 551.636 581.063 569.373 582.718L618.757 586.406C636.49 588.06 649.53 603.777 647.875 621.513C646.22 639.246 630.497 652.282 612.764 650.627Z" fill="#FFD3BA"/>
</svg>
