<svg width="142" height="142" viewBox="0 0 142 142" fill="none" xmlns="http://www.w3.org/2000/svg">
<path d="M141.002 71.0281C141.002 109.964 109.438 141.527 70.5008 141.527C31.5645 141.527 0 109.964 0 71.0281C0 32.091 31.5645 0.527344 70.5008 0.527344C109.438 0.527344 141.002 32.091 141.002 71.0281Z" fill="#EEEDF3"/>
<path d="M45.8589 91.7929C45.8589 91.7929 54.1924 113.533 85.6327 114.901L101.948 87.8567" fill="#FFD3BA"/>
<path d="M93.0345 71.5479C93.0345 71.5479 73.9696 84.1762 80.7856 114.899L93.0521 118.078" fill="#FFD3BA"/>
<path fill-rule="evenodd" clip-rule="evenodd" d="M109.022 130.081L76.4019 112.659L98.0464 83.3489L133.612 102.481C128 113.72 119.473 123.25 109.022 130.081Z" fill="#FFD3BA"/>
<path d="M106.186 103.908C108.131 103.902 110.075 103.153 111.555 101.664C114.515 98.6855 114.501 93.8705 111.522 90.9099C97.6431 77.1154 106.337 53.4212 106.427 53.1843C107.93 49.2632 105.967 44.8764 102.045 43.3733C98.125 41.8686 93.7229 43.8407 92.219 47.7625C91.7044 49.1047 79.854 80.8764 100.801 101.697C102.291 103.177 104.239 103.914 106.186 103.908Z" fill="#FFD3BA"/>
<path d="M81.1709 48.8177C82.2319 49.7385 83.2956 50.6593 84.3566 51.5801C87.1191 53.977 89.9722 56.2749 92.6522 58.7652C96.9291 62.7398 99.5926 67.6407 100.648 73.3883C101.715 79.21 100.964 84.8091 98.3502 90.1195C95.8434 95.2101 92.0117 99.0336 86.9871 101.659C83.4111 103.528 79.5959 104.534 75.5635 104.69C67.9991 104.984 61.3418 102.698 55.74 97.574C51.7599 93.932 49.2558 89.4049 48.0684 84.1494C47.4307 81.3292 47.252 78.4761 47.5544 75.6037C48.1673 69.7655 50.424 64.6502 54.3574 60.2797C55.7537 58.7295 57.3754 57.4293 58.9449 56.0715C61.6826 53.7104 64.4258 51.3575 67.1663 49.0018C67.2323 48.9441 67.2872 48.8782 67.3477 48.8149C67.7215 48.8122 68.0953 48.8204 68.4692 48.8012C68.6973 48.7902 68.7468 48.8891 68.7413 49.0926C68.7303 49.4774 68.7385 49.8622 68.7385 50.247C68.7385 54.0732 68.7385 57.8994 68.7385 61.7255C68.7385 62.421 68.9942 62.9735 69.6154 63.3088C70.7478 63.9218 72.0507 63.1054 72.0535 61.7805C72.059 58.768 72.0562 55.7554 72.0562 52.7428C72.0562 51.5334 72.0617 50.324 72.0507 49.1145C72.048 48.8672 72.1167 48.7902 72.3641 48.7984C72.9028 48.8177 73.4416 48.8039 73.9803 48.8039C76.3772 48.8122 78.774 48.8149 81.1709 48.8177ZM74.8159 88.7205C75.3107 88.7205 75.8054 88.7095 76.3002 88.726C76.5228 88.7342 76.5723 88.6572 76.5696 88.4483C76.5586 87.7337 76.5861 87.019 76.5558 86.3044C76.5421 85.969 76.6355 85.8371 76.9654 85.7519C78.1446 85.455 79.2028 84.9108 80.0879 84.0642C81.4677 82.7393 81.968 81.0983 81.8553 79.2237C81.7316 77.1732 80.8081 75.6394 78.9939 74.6472C77.7488 73.9655 76.3854 73.6246 75.044 73.2178C74.2552 72.9787 73.4635 72.7478 72.7681 72.286C72.0864 71.8352 71.7456 71.2085 71.8226 70.3867C71.8995 69.5703 72.3366 69.0041 73.0815 68.6715C73.6779 68.4076 74.3101 68.3417 74.9506 68.3856C76.4019 68.4846 77.1963 69.1058 77.6471 70.4884C77.7323 70.7468 77.7927 71.0161 77.8422 71.2855C77.8752 71.4752 77.9164 71.5549 78.1473 71.5191C79.2111 71.3542 80.2776 71.2195 81.344 71.0656C82.0999 70.9557 82.0999 70.9474 81.924 70.1888C81.2671 67.3494 79.7306 65.3401 76.7455 64.6969C76.5668 64.6584 76.5613 64.5567 76.5641 64.4138C76.5696 63.6881 76.5503 62.9625 76.5723 62.2368C76.5806 61.9509 76.4871 61.8932 76.2205 61.8987C75.2749 61.9152 74.3294 61.9125 73.3838 61.8987C73.1364 61.896 73.0402 61.9482 73.0485 62.2203C73.0677 62.946 73.0485 63.6716 73.0595 64.3973C73.0622 64.5897 73.0018 64.6694 72.8149 64.7079C72.5455 64.7629 72.2789 64.8288 72.0205 64.914C70.341 65.4665 68.9887 66.4148 68.3015 68.108C67.7353 69.4988 67.7188 70.9337 68.1036 72.374C68.5791 74.1469 69.8243 75.2299 71.413 75.994C72.6252 76.5767 73.9226 76.9231 75.1815 77.3711C75.8741 77.6185 76.5641 77.8769 77.1413 78.3551C77.4986 78.652 77.7543 79.0121 77.8257 79.4821C77.9769 80.4579 77.5344 81.321 76.619 81.791C75.5031 82.3627 74.3294 82.3243 73.1502 82.0604C71.9078 81.7828 71.1382 81.0049 70.8166 79.7735C70.7094 79.3667 70.6654 78.9516 70.6516 78.5366C70.6434 78.2974 70.5499 78.2727 70.352 78.3029C69.1921 78.4788 68.0294 78.6547 66.8667 78.8142C66.6715 78.8417 66.6385 78.9159 66.655 79.089C66.7183 79.7597 66.8612 80.4139 67.1141 81.0351C68.1586 83.6079 70.1046 85.1444 72.7351 85.8728C72.977 85.9415 73.0705 86.0185 73.065 86.2796C73.0457 86.9943 73.0705 87.7089 73.0512 88.4236C73.043 88.6792 73.1282 88.7342 73.3673 88.726C73.8484 88.7067 74.3321 88.7205 74.8159 88.7205Z" fill="#FF985F"/>
<path d="M67.8395 45.498C66.3222 42.8647 64.7967 40.2342 63.2877 37.5955C61.3279 34.1624 63.2602 29.9816 67.1413 29.2449C67.4767 29.1817 67.8175 29.157 68.1584 29.157C72.2264 29.1597 76.2917 29.157 80.3598 29.157C84.7 29.157 87.402 33.7528 85.2635 37.5323C83.8012 40.1215 82.2949 42.6861 80.8078 45.2616C80.7639 45.3358 80.7281 45.4183 80.6897 45.4952C77.1961 45.498 73.7025 45.5007 70.2116 45.5035C69.42 45.5062 68.6311 45.5007 67.8395 45.498Z" fill="#FF985F"/>
<path d="M67.8395 45.4971C68.6311 45.4998 69.42 45.5081 70.2116 45.5081C73.7052 45.5053 77.1988 45.5026 80.6896 45.4998C80.8985 45.5026 81.1074 45.5081 81.3163 45.5081C82.2783 45.5136 83.0095 46.2145 83.0177 47.1463C83.0287 48.0534 82.3058 48.779 81.3658 48.8065C81.2998 48.8092 81.2338 48.812 81.1679 48.8175C78.771 48.8147 76.3742 48.8092 73.9773 48.8065C73.4385 48.8065 72.8998 48.8202 72.3611 48.801C72.1109 48.7928 72.045 48.8697 72.0477 49.1171C72.0587 50.3265 72.0532 51.5359 72.0532 52.7454C72.0532 55.7579 72.056 58.7705 72.0505 61.7831C72.0477 63.1079 70.7448 63.9243 69.6124 63.3114C68.9912 62.976 68.7355 62.4208 68.7355 61.7281C68.7383 57.9019 68.7355 54.0757 68.7355 50.2496C68.7355 49.8647 68.7273 49.4799 68.7383 49.0951C68.7438 48.8917 68.6943 48.7928 68.4662 48.8037C68.0923 48.823 67.7185 48.8147 67.3447 48.8175C66.2947 48.7763 65.6378 48.254 65.5196 47.3717C65.3904 46.3986 66.1298 45.5328 67.1111 45.5108C67.3557 45.5026 67.5976 45.4998 67.8395 45.4971Z" fill="#FD5B24"/>
<path d="M74.8158 88.7176C74.332 88.7176 73.8482 88.7039 73.3645 88.7231C73.1253 88.7314 73.0429 88.6764 73.0484 88.4208C73.0676 87.7061 73.0429 86.9914 73.0621 86.2768C73.0703 86.0157 72.9769 85.9359 72.7323 85.87C70.1018 85.1416 68.1557 83.605 67.1112 81.0323C66.8583 80.4083 66.7154 79.7569 66.6521 79.0862C66.6357 78.913 66.6686 78.8388 66.8638 78.8113C68.0265 78.6492 69.1892 78.476 70.3491 78.3001C70.547 78.2698 70.6405 78.2946 70.6487 78.5337C70.6625 78.9488 70.7065 79.3638 70.8137 79.7706C71.1353 81.002 71.9049 81.7799 73.1473 82.0575C74.3265 82.3214 75.5002 82.3599 76.6162 81.7882C77.5315 81.3181 77.974 80.4523 77.8228 79.4793C77.7486 79.0092 77.4957 78.6492 77.1384 78.3523C76.5612 77.874 75.8713 77.6156 75.1786 77.3683C73.9197 76.9202 72.6196 76.5739 71.4101 75.9912C69.8241 75.227 68.5762 74.144 68.1007 72.3711C67.7159 70.9336 67.7324 69.496 68.2986 68.1052C68.9885 66.412 70.3409 65.4637 72.0176 64.9112C72.2787 64.826 72.5453 64.7573 72.812 64.705C72.9961 64.6693 73.0593 64.5896 73.0566 64.3944C73.0456 63.6688 73.0648 62.9431 73.0456 62.2175C73.0374 61.9453 73.1308 61.8904 73.3809 61.8959C74.3265 61.9096 75.272 61.9096 76.2176 61.8959C76.4842 61.8904 76.5777 61.9481 76.5694 62.234C76.5474 62.9596 76.5639 63.6853 76.5612 64.4109C76.5612 64.5539 76.5667 64.6583 76.7426 64.694C79.7249 65.3372 81.2642 67.3465 81.9211 70.1859C82.0971 70.9473 82.0971 70.9528 81.3412 71.0628C80.2774 71.2167 79.2082 71.3514 78.1444 71.5163C77.9135 71.552 77.8723 71.4723 77.8393 71.2827C77.7899 71.0133 77.7294 70.7439 77.6442 70.4855C77.1906 69.1029 76.399 68.4817 74.9477 68.3828C74.3045 68.3388 73.6751 68.4048 73.0786 68.6686C72.3337 68.9985 71.8967 69.5675 71.8197 70.3838C71.7427 71.2057 72.0836 71.8324 72.7652 72.2832C73.4634 72.745 74.255 72.9758 75.0412 73.215C76.3825 73.6218 77.7459 73.9654 78.991 74.6443C80.8052 75.6366 81.7287 77.1704 81.8524 79.2209C81.9651 81.0955 81.4649 82.7392 80.085 84.0613C79.1999 84.9107 78.1417 85.4522 76.9625 85.749C76.6299 85.8315 76.5364 85.9662 76.5529 86.3015C76.5832 87.0162 76.5557 87.7308 76.5667 88.4455C76.5694 88.6544 76.52 88.7314 76.2973 88.7231C75.8053 88.7039 75.3105 88.7176 74.8158 88.7176Z" fill="#FDF2EB"/>
<path d="M41.8754 73.3944L52.4541 74.4697C56.266 74.786 59.6116 71.9523 59.9278 68.1412C60.244 64.3301 57.4111 60.9838 53.5993 60.6675L43.0206 59.5922C39.2095 59.276 35.8623 62.1096 35.5461 65.9207C35.2299 69.7317 38.0643 73.0782 41.8754 73.3944Z" fill="#FFD3BA"/>
<path d="M43.9689 89.1569L54.6002 89.3573C58.4252 89.3586 61.5261 86.259 61.5273 82.4348C61.5286 78.6106 58.4298 75.5089 54.6048 75.5076L43.9735 75.3072C40.1493 75.306 37.0468 78.4056 37.0456 82.2298C37.0443 86.054 40.1447 89.1556 43.9689 89.1569Z" fill="#FFD3BA"/>
<path d="M46.3597 103.299L56.9634 102.507C60.7718 102.152 63.5702 98.7766 63.2149 94.9689C62.8595 91.1605 59.485 88.362 55.6766 88.7174L45.0729 89.5091C41.2653 89.8644 38.4653 93.239 38.8206 97.0475C39.1759 100.855 42.552 103.654 46.3597 103.299Z" fill="#FFD3BA"/>
</svg>
