<svg width="1000" height="1000" viewBox="0 0 1000 1000" fill="none" xmlns="http://www.w3.org/2000/svg">
<path d="M172 500.336C172 681.67 318.998 828.665 500.336 828.665C681.67 828.665 828.672 681.67 828.672 500.336C828.672 318.998 681.67 172 500.336 172C318.998 172 172 318.998 172 500.336Z" fill="#EEEDF3"/>
<path d="M615.099 597.042C615.099 597.042 576.288 698.292 429.864 704.662L353.879 578.71" fill="#FFD3BA"/>
<path d="M395.392 502.766C395.392 502.766 484.181 561.578 452.438 704.658L395.31 719.468" fill="#FFD3BA"/>
<path fill-rule="evenodd" clip-rule="evenodd" d="M320.927 775.363L472.853 694.221L372.051 557.72L206.409 646.824C232.547 699.168 272.256 743.551 320.927 775.363Z" fill="#FFD3BA"/>
<path d="M334.144 653.471C325.083 653.445 316.033 649.956 309.137 643.019C295.352 629.149 295.416 606.724 309.29 592.936C373.928 528.693 333.44 418.344 333.019 417.24C326.019 398.979 335.162 378.549 353.427 371.549C371.684 364.541 392.185 373.725 399.189 391.99C401.586 398.241 456.776 546.208 359.219 643.175C352.283 650.067 343.21 653.497 334.144 653.471Z" fill="#FFD3BA"/>
<path d="M450.644 396.89C445.703 401.179 440.749 405.467 435.807 409.755C422.942 420.918 409.654 431.62 397.173 443.218C377.255 461.728 364.85 484.553 359.934 511.32C354.968 538.433 358.462 564.509 370.636 589.241C382.311 612.949 400.156 630.755 423.556 642.981C440.211 651.685 457.979 656.371 476.758 657.1C511.987 658.47 542.992 647.819 569.081 623.958C587.617 606.996 599.279 585.913 604.809 561.437C607.779 548.303 608.611 535.015 607.203 521.638C604.348 494.448 593.838 470.625 575.52 450.271C569.017 443.051 561.464 436.996 554.154 430.673C541.404 419.676 528.629 408.719 515.866 397.748C515.559 397.479 515.303 397.172 515.021 396.877C513.28 396.865 511.539 396.903 509.798 396.813C508.736 396.762 508.505 397.223 508.531 398.17C508.582 399.962 508.544 401.755 508.544 403.547C508.544 421.366 508.544 439.185 508.544 457.005C508.544 460.243 507.353 462.816 504.46 464.378C499.186 467.233 493.118 463.431 493.105 457.261C493.08 443.231 493.093 429.2 493.093 415.17C493.093 409.538 493.067 403.905 493.118 398.273C493.131 397.121 492.811 396.762 491.659 396.801C489.15 396.89 486.641 396.826 484.132 396.826C472.969 396.865 461.806 396.877 450.644 396.89ZM480.24 582.725C477.936 582.725 475.632 582.674 473.328 582.751C472.291 582.789 472.06 582.431 472.073 581.458C472.124 578.13 471.996 574.801 472.137 571.473C472.201 569.911 471.766 569.297 470.23 568.9C464.738 567.517 459.81 564.983 455.688 561.04C449.261 554.87 446.931 547.228 447.456 538.497C448.032 528.947 452.334 521.804 460.782 517.183C466.581 514.008 472.931 512.421 479.178 510.527C482.852 509.413 486.538 508.338 489.777 506.187C492.952 504.088 494.539 501.169 494.181 497.341C493.822 493.539 491.787 490.902 488.318 489.353C485.54 488.124 482.596 487.817 479.613 488.022C472.854 488.483 469.154 491.376 467.055 497.815C466.658 499.018 466.377 500.273 466.146 501.527C465.992 502.411 465.8 502.782 464.725 502.615C459.771 501.847 454.804 501.22 449.837 500.503C446.317 499.991 446.317 499.953 447.136 496.42C450.196 483.196 457.352 473.838 471.254 470.843C472.086 470.664 472.111 470.19 472.099 469.524C472.073 466.145 472.163 462.765 472.06 459.386C472.022 458.054 472.457 457.786 473.699 457.811C478.102 457.888 482.506 457.875 486.91 457.811C488.062 457.798 488.51 458.042 488.471 459.309C488.382 462.688 488.471 466.068 488.42 469.447C488.407 470.344 488.689 470.715 489.56 470.894C490.814 471.15 492.056 471.457 493.259 471.854C501.081 474.427 507.379 478.844 510.579 486.729C513.216 493.206 513.293 499.889 511.501 506.597C509.286 514.853 503.487 519.897 496.088 523.456C490.443 526.17 484.401 527.783 478.538 529.869C475.312 531.021 472.099 532.225 469.41 534.452C467.746 535.834 466.556 537.511 466.223 539.7C465.519 544.245 467.58 548.264 471.843 550.453C477.04 553.116 482.506 552.937 487.998 551.708C493.784 550.415 497.368 546.792 498.866 541.057C499.365 539.163 499.57 537.23 499.634 535.297C499.672 534.183 500.108 534.068 501.029 534.209C506.431 535.028 511.846 535.847 517.261 536.59C518.17 536.718 518.324 537.063 518.247 537.87C517.953 540.993 517.287 544.04 516.109 546.933C511.245 558.915 502.181 566.071 489.931 569.463C488.804 569.783 488.369 570.142 488.395 571.358C488.484 574.686 488.369 578.014 488.459 581.343C488.497 582.533 488.1 582.789 486.986 582.751C484.746 582.661 482.493 582.725 480.24 582.725Z" fill="#FF985F"/>
<path d="M512.73 381.437C519.796 369.174 526.901 356.923 533.929 344.634C543.056 328.645 534.057 309.174 515.981 305.744C514.42 305.449 512.832 305.334 511.245 305.334C492.299 305.347 473.366 305.334 454.42 305.334C434.207 305.334 421.624 326.738 431.583 344.339C438.393 356.398 445.408 368.342 452.334 380.336C452.538 380.682 452.705 381.066 452.884 381.424C469.154 381.437 485.425 381.45 501.682 381.463C505.369 381.476 509.043 381.45 512.73 381.437Z" fill="#FF985F"/>
<path d="M512.73 381.437C509.043 381.449 505.369 381.488 501.682 381.488C485.412 381.475 469.142 381.462 452.884 381.449C451.911 381.462 450.938 381.488 449.965 381.488C445.485 381.513 442.08 384.778 442.041 389.117C441.99 393.342 445.357 396.721 449.735 396.849C450.042 396.862 450.349 396.875 450.657 396.9C461.819 396.888 472.982 396.862 484.145 396.849C486.654 396.849 489.163 396.913 491.672 396.824C492.837 396.785 493.144 397.144 493.131 398.296C493.08 403.928 493.105 409.561 493.105 415.193C493.105 429.223 493.093 443.254 493.118 457.284C493.131 463.454 499.199 467.256 504.473 464.401C507.366 462.839 508.557 460.254 508.557 457.028C508.544 439.208 508.557 421.389 508.557 403.57C508.557 401.778 508.595 399.985 508.544 398.193C508.518 397.246 508.749 396.785 509.811 396.836C511.552 396.926 513.293 396.888 515.034 396.9C519.924 396.708 522.984 394.276 523.534 390.167C524.136 385.635 520.692 381.603 516.122 381.501C514.983 381.462 513.856 381.449 512.73 381.437Z" fill="#FD5B24"/>
<path d="M480.24 582.724C482.493 582.724 484.746 582.66 486.999 582.75C488.113 582.788 488.497 582.532 488.471 581.342C488.382 578.014 488.497 574.685 488.407 571.357C488.369 570.141 488.804 569.77 489.944 569.462C502.194 566.07 511.258 558.914 516.122 546.932C517.3 544.026 517.965 540.992 518.26 537.869C518.337 537.063 518.183 536.717 517.274 536.589C511.859 535.834 506.444 535.027 501.042 534.208C500.121 534.067 499.685 534.182 499.647 535.296C499.583 537.229 499.378 539.162 498.879 541.057C497.381 546.791 493.797 550.414 488.011 551.707C482.519 552.936 477.053 553.115 471.855 550.453C467.593 548.264 465.532 544.231 466.236 539.7C466.581 537.511 467.759 535.834 469.423 534.451C472.112 532.224 475.325 531.02 478.551 529.868C484.413 527.782 490.468 526.169 496.101 523.455C503.487 519.896 509.299 514.852 511.514 506.596C513.306 499.901 513.229 493.206 510.592 486.728C507.379 478.843 501.081 474.426 493.272 471.853C492.056 471.456 490.814 471.136 489.572 470.893C488.715 470.727 488.42 470.355 488.433 469.447C488.484 466.067 488.395 462.688 488.484 459.308C488.523 458.041 488.087 457.785 486.923 457.81C482.519 457.874 478.115 457.874 473.712 457.81C472.47 457.785 472.035 458.053 472.073 459.385C472.176 462.764 472.099 466.144 472.112 469.523C472.112 470.189 472.086 470.675 471.267 470.842C457.377 473.837 450.209 483.195 447.149 496.419C446.33 499.965 446.33 499.99 449.85 500.502C454.804 501.219 459.784 501.846 464.738 502.614C465.813 502.781 466.005 502.41 466.159 501.526C466.389 500.272 466.671 499.017 467.068 497.814C469.18 491.375 472.867 488.482 479.626 488.021C482.621 487.816 485.553 488.124 488.331 489.352C491.8 490.889 493.835 493.538 494.194 497.34C494.552 501.168 492.965 504.087 489.79 506.186C486.538 508.337 482.852 509.412 479.191 510.526C472.944 512.42 466.594 514.02 460.795 517.182C452.346 521.804 448.045 528.947 447.469 538.496C446.944 547.227 449.274 554.882 455.7 561.039C459.822 564.995 464.751 567.517 470.243 568.899C471.791 569.283 472.227 569.91 472.15 571.472C472.009 574.8 472.137 578.129 472.086 581.457C472.073 582.43 472.304 582.788 473.34 582.75C475.632 582.66 477.936 582.724 480.24 582.724Z" fill="#FF985F"/>
<path d="M454.347 551.334H463.307V542.246L468.363 536.166L478.475 551.334H488.459L473.739 529.766L486.475 514.47H476.363L463.307 531.494V501.734H454.347V551.334ZM509.326 523.494C510.606 523.494 512.142 523.814 513.55 524.326L514.126 513.958C513.294 513.638 512.27 513.446 511.31 513.446C507.79 513.446 503.438 515.238 500.558 522.278V514.47H491.534V551.334H500.558V533.286C500.558 525.414 505.038 523.494 509.326 523.494Z" fill="#FFF4EC"/>
<path d="M633.65 511.353L584.383 516.361C566.63 517.834 551.049 504.637 549.577 486.888C548.104 469.139 561.297 453.554 579.05 452.081L628.317 447.073C646.066 445.601 661.654 458.797 663.127 476.546C664.6 494.295 651.399 509.88 633.65 511.353Z" fill="#FFD3BA"/>
<path d="M623.899 584.759L574.387 585.693C556.573 585.699 542.132 571.263 542.126 553.453C542.12 535.643 556.552 521.198 574.365 521.192L623.877 520.259C641.687 520.253 656.136 534.688 656.142 552.498C656.148 570.308 641.709 584.753 623.899 584.759Z" fill="#FFD3BA"/>
<path d="M612.764 650.627L563.381 646.94C545.644 645.285 532.611 629.566 534.266 611.833C535.921 594.096 551.637 581.063 569.373 582.718L618.757 586.406C636.49 588.06 649.53 603.777 647.875 621.513C646.22 639.246 630.497 652.282 612.764 650.627Z" fill="#FFD3BA"/>
</svg>
