<svg width="170" height="170" viewBox="0 0 170 170" fill="none" xmlns="http://www.w3.org/2000/svg">
<path d="M140.704 84.8877C140.704 115.714 115.714 140.705 84.8871 140.705C54.0603 140.705 29.07 115.714 29.07 84.8877C29.07 54.0609 54.0603 29.0706 84.8871 29.0706C115.714 29.0706 140.704 54.0609 140.704 84.8877Z" fill="#EEEDF3"/>
<path fill-rule="evenodd" clip-rule="evenodd" d="M88.7377 140.637C88.7367 125.61 88.7542 111.432 88.8183 107.688C89.1306 89.4253 107.138 93.3164 107.138 93.3164L128.979 107.688L128.973 119.259C119.486 131.415 105.074 139.541 88.7377 140.637Z" fill="#FFD3BB"/>
<path d="M124.381 119.405L92.0988 119.264C88.9916 119.251 86.4829 116.72 86.4965 113.613L86.7804 48.5354C86.794 45.4276 89.3247 42.9194 92.4319 42.933L124.714 43.0739C127.821 43.0874 130.33 45.6176 130.316 48.7253L130.032 113.803C130.019 116.91 127.488 119.419 124.381 119.405Z" fill="#FF5A23"/>
<path d="M130.128 109.538L86.5922 109.348L86.8373 53.1616L130.373 53.3516L130.128 109.538Z" fill="#FF985F"/>
<path fill-rule="evenodd" clip-rule="evenodd" d="M110.53 73.5329C109.726 73.2717 109.287 72.4086 109.548 71.6049L110.881 67.5026C111.142 66.699 112.005 66.2592 112.809 66.5203C113.612 66.7814 114.052 67.6446 113.791 68.4482L112.458 72.5505C112.197 73.3542 111.334 73.794 110.53 73.5329Z" fill="#FFF4EC"/>
<path fill-rule="evenodd" clip-rule="evenodd" d="M105.82 76.7444C105.323 77.428 104.367 77.5795 103.683 77.0829L100.193 74.5475C99.5098 74.0508 99.3583 73.094 99.8549 72.4104C100.352 71.7268 101.308 71.5752 101.992 72.0719L105.482 74.6073C106.165 75.104 106.317 76.0608 105.82 76.7444Z" fill="#FFF4EC"/>
<path fill-rule="evenodd" clip-rule="evenodd" d="M112.732 81.6571C112.134 82.2546 112.134 83.2234 112.732 83.8209L115.782 86.8709C116.379 87.4684 117.348 87.4684 117.945 86.8709C118.543 86.2734 118.543 85.3047 117.945 84.7072L114.895 81.6571C114.298 81.0596 113.329 81.0596 112.732 81.6571Z" fill="#FFF4EC"/>
<path fill-rule="evenodd" clip-rule="evenodd" d="M107.648 80.9053C107.152 80.2217 106.195 80.0701 105.511 80.5668L102.022 83.1022C101.338 83.5988 101.187 84.5556 101.683 85.2393C102.18 85.9229 103.137 86.0744 103.82 85.5777L107.31 83.0424C107.994 82.5457 108.145 81.5889 107.648 80.9053Z" fill="#FFF4EC"/>
<path fill-rule="evenodd" clip-rule="evenodd" d="M114.597 78.188C114.597 79.033 115.282 79.718 116.127 79.718L120.44 79.718C121.285 79.718 121.97 79.033 121.97 78.188C121.97 77.343 121.285 76.658 120.44 76.658L116.127 76.658C115.282 76.658 114.597 77.343 114.597 78.188Z" fill="#FFF4EC"/>
<path d="M93.0362 88.9051L81.7829 87.2939C78.7603 86.8615 76.6612 84.0608 77.0936 81.0381C77.526 78.0155 80.3279 75.9165 83.3494 76.3494L94.6032 77.96C97.6253 78.3919 99.7244 81.1932 99.292 84.2152C98.8596 87.2385 96.0588 89.3375 93.0362 88.9051Z" fill="#FFD3BB"/>
<path d="M91.6992 99.2198L80.446 97.6086C77.4233 97.1762 75.3243 94.3754 75.7567 91.3528C76.1891 88.3296 78.9898 86.2311 82.0125 86.6635L93.2657 88.2747C96.2884 88.7065 98.3874 91.5078 97.955 94.5299C97.5226 97.5526 94.7219 99.6522 91.6992 99.2198Z" fill="#FFD3BB"/>
<path d="M91.3447 109.542L80.0909 107.931C77.0693 107.498 74.9686 104.697 75.4016 101.675C75.8345 98.6526 78.6353 96.5536 81.6574 96.986L92.9112 98.5972C95.9333 99.029 98.0329 101.83 97.6005 104.852C97.1681 107.875 94.3668 109.975 91.3447 109.542Z" fill="#FFD3BB"/>
<path fill-rule="evenodd" clip-rule="evenodd" d="M136.787 105.468C134.745 110.611 131.961 115.379 128.568 119.639L120.383 124.238L116.654 127.593C116.265 126.992 115.927 126.508 115.634 126.09C114.41 124.34 113.988 123.736 114.002 120.519C114.049 109.606 122.935 100.797 133.848 100.845L136.787 105.468Z" fill="#FFD3BB"/>
<path fill-rule="evenodd" clip-rule="evenodd" d="M120.58 127.738C118.942 126.538 118.291 124.363 119.227 121.013C121.437 113.108 124.157 110.133 127.387 108.178C130.617 106.223 130.107 101.038 130.107 101.038C130.107 101.038 126.282 95.9379 126.367 90.6679C126.38 89.9006 126.384 89.1247 126.388 88.3519C126.411 83.8163 126.433 79.3845 128.152 77.4078C129.852 75.4528 132.487 74.0928 135.292 74.8578C138.097 75.6228 139.569 78.3372 139.372 80.6378C139.292 81.5765 139.135 82.4643 138.977 83.3601C138.634 85.3036 138.285 87.2846 138.692 89.9029C138.978 91.741 139.447 92.8764 140.011 93.9475C137.776 107.469 130.68 119.35 120.58 127.738Z" fill="#FFD3BB"/>
</svg>
