<svg width="170" height="170" viewBox="0 0 170 170" fill="none" xmlns="http://www.w3.org/2000/svg">
<path d="M140.704 84.8874C140.704 115.714 115.714 140.705 84.8871 140.705C54.0603 140.705 29.07 115.714 29.07 84.8874C29.07 54.0606 54.0603 29.0703 84.8871 29.0703C115.714 29.0703 140.704 54.0606 140.704 84.8874Z" fill="#EEEDF3"/>
<path fill-rule="evenodd" clip-rule="evenodd" d="M88.7377 140.637C88.7367 125.61 88.7542 111.432 88.8183 107.688C89.1306 89.4251 107.138 93.3161 107.138 93.3161L128.979 107.688L128.973 119.259C119.486 131.415 105.074 139.54 88.7377 140.637Z" fill="#FFD3BB"/>
<path d="M124.381 119.403L92.0988 119.262C88.9916 119.248 86.4829 116.718 86.4965 113.61L86.7804 48.5332C86.794 45.4254 89.3247 42.9172 92.4319 42.9308L124.714 43.0717C127.821 43.0852 130.33 45.6154 130.316 48.7231L130.032 113.8C130.019 116.908 127.488 119.416 124.381 119.403Z" fill="#FF5A23"/>
<path d="M130.128 109.536L86.5922 109.346L86.8373 53.1602L130.373 53.3501L130.128 109.536Z" fill="#FF985F"/>
<line x1="111.003" y1="72.076" x2="112.336" y2="67.9737" stroke="#FFF4EC" stroke-width="3.06" stroke-linecap="round" stroke-linejoin="round"/>
<line x1="104.582" y1="75.8424" x2="101.093" y2="73.307" stroke="#FFF4EC" stroke-width="3.06" stroke-linecap="round" stroke-linejoin="round"/>
<line x1="1.53" y1="-1.53" x2="5.84342" y2="-1.53" transform="matrix(0.707107 0.707107 0.707107 -0.707107 113.813 80.5742)" stroke="#FFF4EC" stroke-width="3.06" stroke-linecap="round" stroke-linejoin="round"/>
<line x1="1.53" y1="-1.53" x2="5.84342" y2="-1.53" transform="matrix(-0.809017 0.587785 0.587785 0.809017 108.548 82.1406)" stroke="#FFF4EC" stroke-width="3.06" stroke-linecap="round" stroke-linejoin="round"/>
<line x1="1.53" y1="-1.53" x2="5.84342" y2="-1.53" transform="matrix(1 0 0 -1 114.597 76.6562)" stroke="#FFF4EC" stroke-width="3.06" stroke-linecap="round" stroke-linejoin="round"/>
<path d="M93.0362 88.9058L81.7829 87.2947C78.7603 86.8623 76.6612 84.0615 77.0936 81.0389C77.526 78.0162 80.3279 75.9172 83.3494 76.3501L94.6032 77.9608C97.6253 78.3926 99.7244 81.1939 99.292 84.216C98.8596 87.2392 96.0588 89.3382 93.0362 88.9058Z" fill="#FFD3BB"/>
<path d="M91.6992 99.2188L80.4459 97.6076C77.4233 97.1752 75.3242 94.3745 75.7566 91.3518C76.1891 88.3286 78.9898 86.2301 82.0124 86.6625L93.2657 88.2737C96.2883 88.7055 98.3874 91.5068 97.955 94.5289C97.5226 97.5516 94.7218 99.6512 91.6992 99.2188Z" fill="#FFD3BB"/>
<path d="M91.3447 109.542L80.0909 107.932C77.0693 107.499 74.9686 104.698 75.4016 101.676C75.8345 98.6534 78.6353 96.5543 81.6574 96.9867L92.9112 98.5979C95.9333 99.0297 98.0329 101.831 97.6005 104.853C97.1681 107.876 94.3668 109.975 91.3447 109.542Z" fill="#FFD3BB"/>
<path fill-rule="evenodd" clip-rule="evenodd" d="M136.787 105.467C134.745 110.61 131.961 115.378 128.568 119.638L120.383 124.237L116.654 127.592C116.265 126.991 115.926 126.507 115.634 126.089C114.41 124.34 113.988 123.735 114.002 120.518C114.049 109.606 122.935 100.796 133.848 100.844L136.787 105.467Z" fill="#FFD3BB"/>
<path fill-rule="evenodd" clip-rule="evenodd" d="M120.58 127.737C118.942 126.537 118.291 124.363 119.227 121.012C121.437 113.107 124.157 110.132 127.387 108.177C130.617 106.222 130.107 101.037 130.107 101.037C130.107 101.037 126.282 95.9371 126.367 90.6671C126.38 89.8999 126.384 89.124 126.388 88.3511C126.411 83.8155 126.433 79.3838 128.152 77.4071C129.852 75.4521 132.487 74.0921 135.292 74.8571C138.097 75.6221 139.569 78.3365 139.372 80.6371C139.292 81.5757 139.135 82.4636 138.977 83.3594C138.634 85.3029 138.285 87.2839 138.692 89.9021C138.978 91.7403 139.447 92.8757 140.011 93.9468C137.776 107.468 130.68 119.35 120.58 127.737Z" fill="#FFD3BB"/>
</svg>
