<svg width="170" height="170" viewBox="0 0 170 170" fill="none" xmlns="http://www.w3.org/2000/svg">
<path d="M140.817 85.0573C140.817 115.884 115.827 140.873 84.9998 140.873C54.173 140.873 29.1826 115.884 29.1826 85.0573C29.1826 54.23 54.173 29.2402 84.9998 29.2402C115.827 29.2402 140.817 54.23 140.817 85.0573Z" fill="#EEEDF3"/>
<path d="M111.733 114.251H85.5306C82.1975 114.251 79.4956 111.548 79.4956 108.216V53.1815C79.4956 49.8484 82.1975 47.1465 85.5306 47.1465H111.733C115.065 47.1465 117.768 49.8484 117.768 53.1815V108.216C117.768 111.548 115.065 114.251 111.733 114.251Z" fill="#FF5B23"/>
<path d="M117.768 105.426H79.4956V56.0312H117.768V105.426Z" fill="#FF975E"/>
<path d="M97.0313 88.4221L36.0933 115.856L48.0458 140.844L75.6064 116.477C75.7522 116.342 97.2121 88.3393 97.0313 88.4221Z" fill="#48367D"/>
<path d="M98.0162 87.658L52.0105 122.092L78.0987 131.073C79.3448 131.502 80.7253 131.078 81.5166 130.024L98.5106 88.3475C98.9571 87.7893 98.298 87.4742 98.0162 87.658Z" fill="#C8C5D6"/>
<path d="M52.0096 122.094L48.0449 140.846L67.358 127.377L52.0096 122.094Z" fill="white"/>
<path d="M98.0907 87.6303L18.4303 107.228C16.9974 107.649 16.9693 109.67 18.3908 110.13L36.0941 115.858L98.3345 88.0032C98.4856 87.9341 98.5327 87.5491 98.0907 87.6303Z" fill="#C8C5D6"/>
</svg>
