<svg width="300" height="300" viewBox="0 0 300 300" fill="none" xmlns="http://www.w3.org/2000/svg">
<path d="M17.6458 37.0587C15.4761 29.4452 21.6156 22.1479 29.5194 22.5995C34.0865 22.8604 38.1308 25.7385 39.6904 30.0389C49.9451 58.3142 44.3056 62.3595 87.1019 92.7342C133.205 125.456 98.449 129.755 67.0581 108.212C39.5906 89.3622 27.2269 70.678 17.6458 37.0587Z" fill="#F6C8B8"/>
<path d="M202.9 26.935C204.507 19.5062 198.513 12.6822 190.923 13.0823C184.474 13.4222 179.603 18.9094 179.062 25.3443C176.047 61.2545 151.697 76.2412 139.298 88.336C125.635 101.663 136.733 129.288 159.342 103.814C180.075 80.4539 192.163 76.5544 202.9 26.935Z" fill="#F6C8B8"/>
<path fill-rule="evenodd" clip-rule="evenodd" d="M151.69 81.1446C147.883 76.6518 141.155 76.096 136.662 79.9032L128.981 86.4116C125.114 85.0704 120.961 84.3417 116.638 84.3417C109.619 84.3417 103.048 86.2623 97.4228 89.6067L87.7091 83.0026C82.839 79.6917 76.207 80.9556 72.896 85.8256L64.5339 98.1252C61.223 102.995 62.4869 109.627 67.3569 112.938L78.9844 120.843C78.9848 121.05 78.986 121.257 78.9879 121.464C78.9854 121.641 78.9842 121.818 78.9842 121.995C78.9842 122.807 79.0099 123.613 79.0606 124.413C79.7801 142.63 85.4065 164.047 88.3143 172.978L124.635 170.312L141.929 149.891C144.382 147.665 146.541 145.12 148.34 142.32L155.957 133.325L154.291 121.94C154.287 118.957 153.936 116.055 153.276 113.273L160.064 107.52C164.557 103.713 165.113 96.9842 161.306 92.4914L151.69 81.1446Z" fill="#FF985F"/>
<path fill-rule="evenodd" clip-rule="evenodd" d="M247.255 165.978L247.38 166.212C242.603 139.004 218.854 118.328 190.277 118.328C176.67 118.328 164.158 123.015 154.268 130.862L88.3164 173.306C93.9586 181.247 100.652 185.885 104.993 188.053C104.982 188.578 104.977 189.105 104.977 189.633C104.977 229.752 137.499 262.275 177.618 262.275C190.263 262.275 202.153 259.044 212.509 253.362L204.428 232.548C206.883 231.932 209.276 231.16 211.596 230.242L206.22 219.094L201.609 222.288V222.287L201.608 222.288C186.613 233.617 165.621 232.618 151.959 219.955C141.032 209.828 138.298 198.635 138.297 194.301C142.296 193.633 148.625 190.635 156.287 185.305C157.9 184.182 159.381 182.912 160.729 181.566C165.784 176.516 168.97 170.395 170.286 166.974C171.096 164.867 172.538 161.34 175.607 158.274C178.848 155.038 183.902 152.316 191.941 152.316C207.602 152.316 215.266 167.311 215.266 173.975C215.266 179.307 213.711 183.75 212.933 185.305L247.255 165.978Z" fill="#64558F"/>
<circle cx="107.309" cy="49.3515" r="7.66398" fill="#FF985F"/>
<circle cx="116.304" cy="55.0151" r="5.33146" fill="#FF985F"/>
<rect x="100.312" y="51.0156" width="24.658" height="30.6559" rx="11.9958" fill="#F6C8B8"/>
<rect x="98.3125" y="51.6836" width="8.66363" height="13.9951" rx="4.33181" fill="#FF985F"/>
<circle cx="100.646" cy="65.3451" r="3.66538" fill="#F6C8B8"/>
<rect x="195.609" y="223.078" width="18.1704" height="62.7429" rx="9.08519" transform="rotate(-28.9145 195.609 223.078)" fill="#252231"/>
<rect x="261.199" y="156.98" width="18.1704" height="62.7429" rx="9.08519" transform="rotate(61.0948 261.199 156.98)" fill="#252231"/>
<ellipse cx="176.5" cy="322.5" rx="62.5" ry="17.5" fill="#402E71"/>
</svg>
