<svg width="454" height="446" viewBox="0 0 454 446" fill="none" xmlns="http://www.w3.org/2000/svg">
<path d="M373.142 222.55C373.142 303.261 307.711 368.691 227 368.691C146.289 368.691 80.8584 303.261 80.8584 222.55C80.8584 141.838 146.289 76.408 227 76.408C307.711 76.408 373.142 141.838 373.142 222.55Z" fill="#EEEDF3"/>
<path d="M325.43 296.03L242.485 312.276C234.501 313.84 226.759 308.634 225.195 300.65L192.443 133.439C190.879 125.454 196.086 117.713 204.07 116.149L287.015 99.9026C295 98.3385 302.741 103.544 304.305 111.529L337.057 278.74C338.62 286.723 333.416 294.466 325.43 296.03Z" fill="#FF5A23"/>
<path d="M335.108 267.739L223.246 289.649L194.969 145.283L306.831 123.373L335.108 267.739Z" fill="#FF985F"/>
<path d="M291.52 245.906L257.135 252.64C248.414 254.348 239.882 248.61 238.174 239.889L231.44 205.504C229.732 196.783 235.47 188.251 244.191 186.543L278.576 179.81C287.297 178.102 295.829 183.84 297.537 192.56L304.271 226.946C305.979 235.666 300.241 244.199 291.52 245.906Z" fill="white"/>
<path d="M253.536 222.406L268.259 229.298L284.517 194.101" stroke="#48367D" stroke-width="1.33529" stroke-linecap="round" stroke-linejoin="round"/>
<path fill-rule="evenodd" clip-rule="evenodd" d="M229.489 174.522C230.421 175.148 231.684 174.901 232.31 173.97C232.936 173.038 232.689 171.775 231.758 171.149L220.402 163.513L228.039 152.157C228.665 151.226 228.418 149.963 227.486 149.337C226.555 148.71 225.292 148.958 224.666 149.889L217.029 161.245L205.674 153.608C204.743 152.982 203.48 153.229 202.853 154.161C202.227 155.092 202.474 156.355 203.406 156.981L214.761 164.618L207.125 175.973C206.499 176.904 206.746 178.167 207.678 178.793C208.609 179.42 209.872 179.172 210.498 178.241L218.134 166.886L229.489 174.522Z" fill="white"/>
<path d="M350.487 291.999L351.133 288.196L358.64 229.26L323.107 202.676L273.084 216.889L277.729 294.042C301.261 299.693 324.588 298.86 350.487 291.999Z" fill="#FFD3BA"/>
<path d="M285.407 247.413C281.36 244.086 279.585 238.48 281.376 233.231C287.133 216.373 287.906 206.719 288.205 198.275C288.459 191.133 294.454 185.548 301.596 185.802C308.737 186.056 314.322 192.05 314.069 199.192C313.634 211.503 312.073 223.425 305.869 241.592C303.56 248.355 296.206 251.966 289.442 249.658C287.931 249.141 286.574 248.371 285.407 247.413Z" fill="#FFD3BA"/>
<path d="M310.508 243.814C306.343 240.391 304.612 234.574 306.618 229.25C310.078 220.073 311.611 211.602 311.174 204.066C310.764 196.931 316.214 190.814 323.348 190.402C330.482 189.99 336.601 195.437 337.013 202.573C337.658 213.744 335.58 225.793 330.834 238.38C328.314 245.067 320.85 248.445 314.162 245.925C312.801 245.411 311.574 244.689 310.508 243.814Z" fill="#FFD3BA"/>
<path d="M337.483 249.838C332.85 247.082 330.261 241.594 331.442 236.026C333.481 226.434 333.723 217.827 332.158 210.442C330.677 203.452 335.143 196.581 342.135 195.1C349.125 193.618 355.995 198.084 357.475 205.076C359.797 216.024 359.557 228.247 356.76 241.404C355.275 248.394 348.404 252.857 341.414 251.372C339.99 251.069 338.67 250.543 337.483 249.838Z" fill="#FFD3BA"/>
<path d="M275.372 329.287C271.881 303.39 263.188 294.882 261.912 293.172C260.701 291.551 249.369 278.787 245.189 271.188C240.01 261.772 233.907 248.342 239.197 237.362C244.38 226.61 257.331 228.766 267.391 220.733L288.945 212.858C297.508 211.391 305.64 217.142 307.11 225.704C308.577 234.269 302.825 242.4 294.262 243.869L290.014 248.435C288.459 249.07 289.782 253.456 290.187 255.293C292.648 259.685 283.979 267.864 287.996 273.249C293.192 280.211 291.759 290.068 284.795 295.264C279.542 299.185 276.196 335.403 275.372 329.287Z" fill="#FFD3BA"/>
<path fill-rule="evenodd" clip-rule="evenodd" d="M273.03 361.293C272.646 319.125 271.193 274.866 266.932 265.502C258.358 246.656 339.824 272.116 339.824 272.116C339.824 272.116 353.343 239.441 351.861 298.582C333.998 327.839 306.138 350.325 273.03 361.293Z" fill="#FFD3BA"/>
<path d="M241.789 163.311C241.789 163.311 263.34 169.966 271.244 180.789C282.938 196.802 279.337 221.346 268.919 239.653" stroke="#FFD2BA" stroke-width="34.2725" stroke-linecap="round" stroke-linejoin="round"/>
</svg>
