<svg width="447" height="438" viewBox="0 0 447 438" fill="none" xmlns="http://www.w3.org/2000/svg">
<path d="M367.193 219.001C367.193 298.425 302.806 362.812 223.381 362.812C143.957 362.812 79.5703 298.425 79.5703 219.001C79.5703 139.576 143.957 75.1895 223.381 75.1895C302.806 75.1895 367.193 139.576 367.193 219.001Z" fill="#EEEDF3"/>
<path d="M306.552 284.519H128.329C123.176 284.519 119 280.342 119 275.19V135.329C119 130.176 123.176 126 128.329 126H306.552C311.703 126 315.881 130.176 315.881 135.329V275.19C315.881 280.342 311.703 284.519 306.552 284.519Z" fill="#C8C5D6"/>
<path d="M306.218 126H128.664C123.326 126 119 130.326 119 135.662V149.268H315.881V135.662C315.881 130.326 311.556 126 306.218 126Z" fill="#48367D"/>
<path d="M143.176 137.725C143.176 140.394 141.014 142.556 138.346 142.556C135.678 142.556 133.513 140.394 133.513 137.725C133.513 135.057 135.678 132.894 138.346 132.894C141.014 132.894 143.176 135.057 143.176 137.725Z" fill="white"/>
<path d="M159.031 137.634C159.031 140.302 156.868 142.465 154.201 142.465C151.532 142.465 149.369 140.302 149.369 137.634C149.369 134.965 151.532 132.803 154.201 132.803C156.868 132.803 159.031 134.965 159.031 137.634Z" fill="white"/>
<path d="M175.14 137.634C175.14 140.302 172.977 142.465 170.31 142.465C167.642 142.465 165.478 140.302 165.478 137.634C165.478 134.965 167.642 132.803 170.31 132.803C172.977 132.803 175.14 134.965 175.14 137.634Z" fill="white"/>
<path d="M290.71 212.721C292.596 214.358 294.487 215.995 296.374 217.632C301.285 221.894 306.357 225.979 311.122 230.406C318.726 237.472 323.461 246.186 325.337 256.404C327.233 266.754 325.899 276.708 321.252 286.149C316.795 295.2 309.983 301.997 301.05 306.664C294.693 309.987 287.91 311.775 280.741 312.054C267.293 312.577 255.457 308.511 245.498 299.402C238.422 292.927 233.97 284.879 231.859 275.535C230.725 270.521 230.408 265.449 230.945 260.342C232.035 249.963 236.047 240.869 243.04 233.099C245.522 230.343 248.405 228.031 251.196 225.617C256.063 221.42 260.94 217.237 265.812 213.049C265.929 212.946 266.027 212.829 266.135 212.716C266.799 212.711 267.464 212.726 268.128 212.692C268.534 212.672 268.622 212.848 268.612 213.21C268.593 213.894 268.607 214.578 268.607 215.262C268.607 222.065 268.607 228.867 268.607 235.669C268.607 236.906 269.062 237.888 270.166 238.484C272.179 239.574 274.496 238.122 274.501 235.767C274.51 230.411 274.506 225.055 274.506 219.699C274.506 217.549 274.515 215.399 274.496 213.249C274.491 212.809 274.613 212.672 275.053 212.687C276.011 212.721 276.968 212.697 277.926 212.697C282.187 212.711 286.449 212.716 290.71 212.721ZM279.412 283.662C280.291 283.662 281.171 283.642 282.051 283.672C282.446 283.686 282.534 283.55 282.53 283.178C282.51 281.908 282.559 280.637 282.505 279.366C282.481 278.77 282.647 278.536 283.233 278.384C285.33 277.856 287.211 276.889 288.785 275.384C291.238 273.028 292.127 270.111 291.927 266.778C291.707 263.133 290.065 260.406 286.84 258.642C284.626 257.43 282.202 256.824 279.817 256.101C278.415 255.676 277.008 255.265 275.771 254.444C274.559 253.643 273.953 252.529 274.09 251.067C274.227 249.616 275.004 248.609 276.328 248.018C277.389 247.549 278.513 247.432 279.651 247.51C282.231 247.686 283.644 248.79 284.445 251.248C284.597 251.708 284.704 252.186 284.792 252.665C284.851 253.003 284.924 253.144 285.335 253.081C287.226 252.788 289.122 252.548 291.018 252.274C292.362 252.079 292.362 252.064 292.049 250.716C290.881 245.668 288.149 242.095 282.842 240.952C282.525 240.883 282.515 240.703 282.52 240.449C282.53 239.158 282.495 237.868 282.534 236.578C282.549 236.07 282.383 235.967 281.909 235.977C280.228 236.006 278.547 236.002 276.866 235.977C276.426 235.972 276.255 236.065 276.27 236.549C276.304 237.839 276.27 239.129 276.289 240.419C276.294 240.761 276.187 240.903 275.854 240.971C275.375 241.069 274.901 241.186 274.442 241.338C271.456 242.32 269.052 244.006 267.83 247.016C266.824 249.489 266.794 252.04 267.478 254.601C268.324 257.752 270.537 259.678 273.362 261.036C275.517 262.072 277.824 262.688 280.062 263.485C281.293 263.924 282.52 264.384 283.546 265.234C284.181 265.762 284.636 266.402 284.763 267.238C285.032 268.972 284.245 270.507 282.617 271.342C280.633 272.359 278.547 272.291 276.45 271.821C274.242 271.328 272.873 269.945 272.302 267.756C272.111 267.032 272.033 266.294 272.008 265.557C271.994 265.131 271.828 265.087 271.476 265.141C269.414 265.454 267.346 265.767 265.279 266.05C264.932 266.099 264.874 266.231 264.903 266.539C265.015 267.731 265.27 268.894 265.719 269.999C267.576 274.573 271.036 277.304 275.713 278.599C276.143 278.721 276.309 278.858 276.299 279.323C276.265 280.593 276.309 281.864 276.275 283.134C276.26 283.589 276.411 283.686 276.836 283.672C277.692 283.638 278.552 283.662 279.412 283.662Z" fill="#FF985F"/>
<path d="M267.011 206.823C264.314 202.141 261.602 197.465 258.919 192.773C255.435 186.67 258.87 179.237 265.77 177.927C266.366 177.815 266.972 177.771 267.578 177.771C274.811 177.776 282.038 177.771 289.27 177.771C296.987 177.771 301.79 185.942 297.988 192.661C295.389 197.264 292.711 201.824 290.067 206.402C289.989 206.534 289.925 206.681 289.857 206.818C283.646 206.823 277.435 206.828 271.229 206.832C269.821 206.837 268.419 206.828 267.011 206.823Z" fill="#FF985F"/>
<path d="M267.01 206.823C268.417 206.827 269.82 206.842 271.227 206.842C277.438 206.837 283.649 206.832 289.855 206.827C290.227 206.832 290.598 206.842 290.969 206.842C292.68 206.852 293.98 208.098 293.994 209.755C294.014 211.367 292.729 212.657 291.057 212.706C290.94 212.711 290.823 212.716 290.706 212.726C286.444 212.721 282.183 212.711 277.922 212.706C276.964 212.706 276.006 212.731 275.049 212.696C274.604 212.682 274.487 212.819 274.491 213.258C274.511 215.409 274.501 217.559 274.501 219.709C274.501 225.065 274.506 230.421 274.496 235.776C274.491 238.132 272.175 239.583 270.162 238.493C269.057 237.897 268.603 236.91 268.603 235.679C268.608 228.876 268.603 222.074 268.603 215.272C268.603 214.588 268.588 213.903 268.608 213.219C268.618 212.858 268.53 212.682 268.124 212.701C267.459 212.735 266.795 212.721 266.13 212.726C264.263 212.652 263.096 211.724 262.885 210.155C262.656 208.425 263.97 206.886 265.715 206.847C266.15 206.832 266.58 206.827 267.01 206.823Z" fill="#FD5B24"/>
<path d="M279.41 283.661C278.55 283.661 277.69 283.637 276.83 283.671C276.405 283.686 276.258 283.588 276.268 283.134C276.302 281.863 276.258 280.593 276.292 279.322C276.307 278.858 276.141 278.716 275.706 278.599C271.029 277.304 267.569 274.572 265.712 269.998C265.263 268.889 265.009 267.731 264.896 266.538C264.867 266.231 264.926 266.099 265.273 266.05C267.34 265.761 269.407 265.454 271.469 265.141C271.821 265.087 271.987 265.131 272.002 265.556C272.026 266.294 272.104 267.032 272.295 267.755C272.867 269.944 274.235 271.327 276.444 271.821C278.54 272.29 280.627 272.358 282.611 271.342C284.238 270.506 285.025 268.967 284.756 267.237C284.624 266.402 284.174 265.761 283.539 265.234C282.513 264.383 281.286 263.924 280.055 263.484C277.817 262.688 275.505 262.072 273.355 261.036C270.536 259.677 268.317 257.752 267.472 254.6C266.787 252.044 266.817 249.489 267.823 247.016C269.05 244.006 271.454 242.32 274.435 241.337C274.899 241.186 275.373 241.064 275.847 240.971C276.175 240.907 276.287 240.766 276.282 240.419C276.263 239.129 276.297 237.839 276.263 236.548C276.248 236.065 276.414 235.967 276.859 235.977C278.54 236.001 280.221 236.001 281.902 235.977C282.376 235.967 282.542 236.07 282.528 236.578C282.489 237.868 282.518 239.158 282.513 240.448C282.513 240.702 282.523 240.888 282.836 240.951C288.138 242.095 290.874 245.667 292.042 250.715C292.355 252.069 292.355 252.079 291.011 252.274C289.12 252.548 287.219 252.787 285.328 253.08C284.917 253.144 284.844 253.002 284.785 252.665C284.697 252.186 284.59 251.707 284.438 251.248C283.632 248.79 282.225 247.685 279.644 247.509C278.501 247.431 277.382 247.549 276.321 248.018C274.997 248.604 274.22 249.616 274.083 251.067C273.947 252.528 274.552 253.642 275.764 254.444C277.006 255.265 278.413 255.675 279.811 256.1C282.195 256.824 284.619 257.434 286.833 258.641C290.058 260.406 291.7 263.132 291.92 266.778C292.12 270.111 291.231 273.033 288.778 275.383C287.204 276.893 285.323 277.856 283.226 278.384C282.635 278.53 282.469 278.77 282.498 279.366C282.552 280.637 282.503 281.907 282.523 283.178C282.528 283.549 282.44 283.686 282.044 283.671C281.169 283.637 280.29 283.661 279.41 283.661Z" fill="#FDF2EB"/>
</svg>
