<svg width="455" height="446" viewBox="0 0 455 446" fill="none" xmlns="http://www.w3.org/2000/svg">
<path d="M373.899 223C373.899 303.875 308.336 369.438 227.461 369.438C146.586 369.438 81.0234 303.875 81.0234 223C81.0234 142.125 146.586 76.5625 227.461 76.5625C308.336 76.5625 373.899 142.125 373.899 223Z" fill="#EEEDF3"/>
<path fill-rule="evenodd" clip-rule="evenodd" d="M237.563 369.095C237.561 329.732 237.607 292.624 237.775 282.816C238.594 234.902 285.837 245.111 285.837 245.111L343.138 282.816L343.121 312.828C318.262 344.789 280.447 366.174 237.563 369.095Z" fill="#FFD3BB"/>
<path d="M326.091 296.629L242.977 312.908C234.978 314.475 227.219 309.259 225.653 301.259L192.835 133.709C191.267 125.707 196.484 117.951 204.484 116.384L287.598 100.104C295.599 98.5372 303.356 103.753 304.923 111.754L337.741 279.304C339.308 287.304 334.092 295.062 326.091 296.629Z" fill="#FF5A23"/>
<path d="M335.787 268.281L223.699 290.235L195.365 145.577L307.453 123.622L335.787 268.281Z" fill="#FF985F"/>
<path d="M223.947 240.893L194.213 243.205C186.226 243.827 179.25 237.857 178.628 229.87C178.006 221.884 183.979 214.907 191.963 214.287L221.699 211.973C229.683 211.35 236.66 217.322 237.282 225.307C237.904 233.295 231.934 240.271 223.947 240.893Z" fill="#FFD3BB"/>
<path d="M226.425 268.066L196.69 270.378C188.703 271 181.727 265.03 181.105 257.044C180.483 249.056 186.453 242.08 194.44 241.458L224.174 239.146C232.161 238.523 239.137 244.495 239.759 252.48C240.381 260.466 234.411 267.444 226.425 268.066Z" fill="#FFD3BB"/>
<path d="M231.421 294.696L201.685 297.01C193.701 297.63 186.72 291.66 186.1 283.675C185.479 275.688 191.45 268.711 199.435 268.09L229.171 265.777C237.156 265.154 244.134 271.126 244.756 279.111C245.378 287.097 239.406 294.076 231.421 294.696Z" fill="#FFD3BB"/>
<path d="M288.934 223.6L254.479 230.347C245.741 232.058 237.191 226.309 235.48 217.57L228.732 183.116C227.021 174.377 232.771 165.827 241.509 164.116L275.964 157.369C284.702 155.658 293.252 161.407 294.963 170.146L301.711 204.6C303.422 213.339 297.672 221.888 288.934 223.6Z" fill="white"/>
<path d="M250.873 200.051L265.626 206.957L281.916 171.689" stroke="#48367D" stroke-width="1.338" stroke-linecap="round" stroke-linejoin="round"/>
<path fill-rule="evenodd" clip-rule="evenodd" d="M324.191 332.942C309.025 332.262 290.792 316.437 290.792 316.437C290.792 316.437 291.461 307.963 292.576 298.82C293.691 289.677 299.489 281.426 302.388 278.75C290.792 276.297 282.541 272.283 276.52 264.255C270.273 255.925 265.816 248.645 264.701 235.711C263.586 222.777 268.269 218.094 273.844 215.418C279.419 212.742 284.325 214.08 289.677 216.756C293.841 218.838 296.303 226.809 296.813 232.589C297.482 240.171 299.192 242.024 302.611 245.3C305.242 247.821 310.862 247.753 314.653 247.307C318.444 246.861 321.884 247.062 328.479 248.645C334.054 249.983 339.629 253.774 344.312 260.018C349.584 267.048 351.225 275.628 352.34 286.109C352.678 289.291 352.935 293.667 353.127 298.217C345.313 311.245 335.53 322.957 324.191 332.942Z" fill="#FFD3BB"/>
</svg>
