<svg width="454" height="446" viewBox="0 0 454 446" fill="none" xmlns="http://www.w3.org/2000/svg">
<path d="M373.143 222.551C373.143 303.263 307.714 368.69 227.001 368.69C146.29 368.69 80.8594 303.263 80.8594 222.551C80.8594 141.838 146.29 76.4097 227.001 76.4097C307.714 76.4097 373.143 141.838 373.143 222.551Z" fill="#EEEDF3"/>
<path d="M239.013 259.478H57.9025C52.666 259.478 48.4219 255.234 48.4219 249.997V107.871C48.4219 102.634 52.666 98.3901 57.9025 98.3901H239.013C244.248 98.3901 248.494 102.634 248.494 107.871V249.997C248.494 255.234 244.248 259.478 239.013 259.478Z" fill="#C8C5D6"/>
<path d="M238.674 98.3901H58.2422C52.8177 98.3901 48.4219 102.786 48.4219 108.209V122.035H248.494V108.209C248.494 102.786 244.098 98.3901 238.674 98.3901Z" fill="#48367D"/>
<path d="M72.9894 110.306C72.9894 113.017 70.793 115.215 68.0816 115.215C65.3702 115.215 63.1707 113.017 63.1707 110.306C63.1707 107.594 65.3702 105.396 68.0816 105.396C70.793 105.396 72.9894 107.594 72.9894 110.306Z" fill="white"/>
<path d="M89.1016 110.213C89.1016 112.924 86.9036 115.122 84.1938 115.122C81.4808 115.122 79.2828 112.924 79.2828 110.213C79.2828 107.501 81.4808 105.303 84.1938 105.303C86.9036 105.303 89.1016 107.501 89.1016 110.213Z" fill="white"/>
<path d="M105.472 110.213C105.472 112.924 103.274 115.122 100.564 115.122C97.8523 115.122 95.6528 112.924 95.6528 110.213C95.6528 107.501 97.8523 105.303 100.564 105.303C103.274 105.303 105.472 107.501 105.472 110.213Z" fill="white"/>
<g filter="url(#filter0_d)">
<rect x="83.1836" y="176.754" width="130.859" height="24.9255" rx="3.11569" fill="#FF5B24"/>
</g>
<path d="M99.6578 184.11H102.956C103.609 184.11 104.095 184.138 104.414 184.194C104.737 184.247 105.024 184.36 105.275 184.532C105.531 184.705 105.743 184.936 105.911 185.225C106.08 185.51 106.165 185.831 106.165 186.187C106.165 186.574 106.06 186.928 105.85 187.251C105.643 187.574 105.362 187.816 105.005 187.977C105.508 188.123 105.895 188.373 106.165 188.726C106.435 189.079 106.57 189.493 106.57 189.97C106.57 190.345 106.482 190.711 106.306 191.067C106.133 191.42 105.895 191.703 105.591 191.917C105.29 192.128 104.919 192.257 104.476 192.306C104.198 192.336 103.529 192.355 102.467 192.362H99.6578V184.11ZM101.324 185.484V187.392H102.416C103.065 187.392 103.469 187.382 103.626 187.364C103.911 187.33 104.135 187.232 104.296 187.071C104.461 186.906 104.544 186.69 104.544 186.424C104.544 186.168 104.472 185.962 104.33 185.804C104.191 185.643 103.983 185.545 103.705 185.512C103.54 185.493 103.065 185.484 102.281 185.484H101.324ZM101.324 188.765V190.972H102.866C103.467 190.972 103.848 190.955 104.009 190.921C104.257 190.876 104.457 190.767 104.611 190.595C104.769 190.418 104.848 190.184 104.848 189.891C104.848 189.643 104.788 189.433 104.667 189.261C104.547 189.088 104.373 188.962 104.144 188.883C103.919 188.805 103.427 188.765 102.669 188.765H101.324ZM111.433 190.459L113.01 190.724C112.807 191.302 112.486 191.743 112.047 192.047C111.612 192.347 111.066 192.497 110.409 192.497C109.37 192.497 108.6 192.158 108.101 191.478C107.707 190.934 107.51 190.247 107.51 189.418C107.51 188.427 107.769 187.653 108.287 187.093C108.805 186.53 109.46 186.249 110.251 186.249C111.141 186.249 111.842 186.544 112.357 187.133C112.871 187.718 113.117 188.617 113.094 189.829H109.131C109.142 190.298 109.27 190.664 109.514 190.927C109.758 191.186 110.062 191.315 110.426 191.315C110.674 191.315 110.882 191.248 111.051 191.112C111.22 190.977 111.347 190.76 111.433 190.459ZM111.524 188.861C111.512 188.403 111.394 188.056 111.169 187.82C110.944 187.579 110.67 187.459 110.347 187.459C110.002 187.459 109.717 187.585 109.491 187.836C109.266 188.088 109.156 188.429 109.159 188.861H111.524ZM117.13 186.384V187.645H116.049V190.054C116.049 190.542 116.059 190.827 116.077 190.91C116.1 190.989 116.147 191.054 116.218 191.107C116.293 191.159 116.383 191.186 116.488 191.186C116.635 191.186 116.847 191.135 117.124 191.034L117.259 192.261C116.892 192.418 116.475 192.497 116.01 192.497C115.725 192.497 115.468 192.45 115.239 192.356C115.01 192.259 114.841 192.135 114.732 191.985C114.627 191.831 114.554 191.625 114.512 191.366C114.479 191.182 114.462 190.81 114.462 190.251V187.645H113.736V186.384H114.462V185.196L116.049 184.273V186.384H117.13ZM119.41 188.208L117.974 187.949C118.136 187.371 118.413 186.943 118.807 186.666C119.201 186.388 119.787 186.249 120.564 186.249C121.269 186.249 121.794 186.333 122.14 186.502C122.485 186.667 122.727 186.879 122.866 187.138C123.008 187.394 123.08 187.865 123.08 188.551L123.063 190.398C123.063 190.923 123.087 191.311 123.136 191.563C123.189 191.81 123.284 192.077 123.423 192.362H121.858C121.817 192.257 121.766 192.101 121.706 191.895C121.68 191.801 121.661 191.739 121.65 191.709C121.38 191.972 121.091 192.169 120.783 192.3C120.475 192.431 120.147 192.497 119.798 192.497C119.183 192.497 118.697 192.33 118.34 191.996C117.987 191.662 117.811 191.24 117.811 190.73C117.811 190.392 117.892 190.092 118.053 189.829C118.214 189.563 118.44 189.36 118.729 189.221C119.021 189.079 119.442 188.955 119.989 188.85C120.729 188.711 121.241 188.581 121.526 188.461V188.304C121.526 188 121.451 187.784 121.301 187.656C121.151 187.525 120.868 187.459 120.451 187.459C120.17 187.459 119.95 187.516 119.792 187.628C119.635 187.737 119.507 187.93 119.41 188.208ZM121.526 189.491C121.323 189.559 121.003 189.64 120.564 189.733C120.125 189.827 119.837 189.919 119.702 190.009C119.496 190.156 119.393 190.341 119.393 190.566C119.393 190.788 119.475 190.979 119.64 191.141C119.806 191.302 120.016 191.383 120.271 191.383C120.556 191.383 120.828 191.289 121.087 191.101C121.278 190.959 121.404 190.784 121.464 190.578C121.505 190.443 121.526 190.186 121.526 189.807V189.491ZM124.645 192.362V184.11H126.226V192.362H124.645ZM130.943 186.384H132.401V187.2C132.923 186.566 133.544 186.249 134.264 186.249C134.647 186.249 134.979 186.328 135.261 186.485C135.542 186.643 135.773 186.881 135.953 187.2C136.216 186.881 136.499 186.643 136.803 186.485C137.107 186.328 137.432 186.249 137.777 186.249C138.216 186.249 138.587 186.339 138.891 186.519C139.195 186.696 139.422 186.956 139.572 187.302C139.681 187.557 139.736 187.97 139.736 188.54V192.362H138.154V188.945C138.154 188.352 138.1 187.97 137.991 187.797C137.844 187.572 137.619 187.459 137.315 187.459C137.094 187.459 136.886 187.527 136.69 187.662C136.495 187.797 136.355 187.996 136.268 188.259C136.182 188.518 136.139 188.928 136.139 189.491V192.362H134.557V189.086C134.557 188.504 134.529 188.129 134.473 187.96C134.416 187.791 134.328 187.666 134.208 187.583C134.092 187.501 133.932 187.459 133.73 187.459C133.486 187.459 133.266 187.525 133.071 187.656C132.876 187.788 132.735 187.977 132.649 188.225C132.566 188.472 132.525 188.883 132.525 189.458V192.362H130.943V186.384ZM144.779 190.459L146.355 190.724C146.153 191.302 145.832 191.743 145.393 192.047C144.957 192.347 144.411 192.497 143.755 192.497C142.715 192.497 141.946 192.158 141.447 191.478C141.053 190.934 140.856 190.247 140.856 189.418C140.856 188.427 141.115 187.653 141.633 187.093C142.151 186.53 142.805 186.249 143.597 186.249C144.487 186.249 145.188 186.544 145.702 187.133C146.216 187.718 146.462 188.617 146.44 189.829H142.477C142.488 190.298 142.616 190.664 142.86 190.927C143.104 191.186 143.408 191.315 143.772 191.315C144.019 191.315 144.228 191.248 144.396 191.112C144.565 190.977 144.693 190.76 144.779 190.459ZM144.869 188.861C144.858 188.403 144.74 188.056 144.515 187.82C144.289 187.579 144.016 187.459 143.693 187.459C143.348 187.459 143.062 187.585 142.837 187.836C142.612 188.088 142.501 188.429 142.505 188.861H144.869ZM153.217 192.362H151.748V191.484C151.504 191.825 151.215 192.081 150.881 192.249C150.551 192.415 150.217 192.497 149.879 192.497C149.192 192.497 148.603 192.221 148.112 191.67C147.624 191.114 147.38 190.341 147.38 189.351C147.38 188.337 147.618 187.568 148.095 187.043C148.571 186.514 149.174 186.249 149.902 186.249C150.57 186.249 151.147 186.527 151.635 187.082V184.11H153.217V192.362ZM148.995 189.244C148.995 189.882 149.083 190.343 149.26 190.628C149.515 191.041 149.872 191.248 150.329 191.248C150.693 191.248 151.003 191.094 151.258 190.786C151.513 190.474 151.641 190.011 151.641 189.396C151.641 188.709 151.517 188.215 151.269 187.915C151.022 187.611 150.705 187.459 150.318 187.459C149.943 187.459 149.628 187.609 149.372 187.91C149.121 188.206 148.995 188.651 148.995 189.244Z" fill="white"/>
<path fill-rule="evenodd" clip-rule="evenodd" d="M197.842 187.87C197.393 186.157 196.304 185.478 194.817 185.478C193.612 185.478 192.1 186.157 192.1 187.794C192.1 188.851 192.83 189.682 194.022 189.897L195.15 190.098C195.919 190.236 196.137 190.526 196.137 190.916C196.137 191.357 195.663 191.608 194.958 191.608C194.035 191.608 193.458 191.281 193.368 190.362L191.741 190.614C191.997 192.389 193.586 193.119 195.022 193.119C196.381 193.119 197.829 192.339 197.829 190.765C197.829 189.695 197.175 188.915 195.958 188.688L194.714 188.461C194.022 188.335 193.791 187.995 193.791 187.668C193.791 187.253 194.24 186.989 194.855 186.989C195.637 186.989 196.189 187.253 196.214 188.121L197.842 187.87ZM161.654 190.563L163.345 185.667H165.332L162.384 192.93H160.91L157.962 185.667H159.948L161.654 190.563ZM172.05 187.744C172.05 188.323 171.588 188.726 171.05 188.726C170.511 188.726 170.05 188.323 170.05 187.744C170.05 187.165 170.511 186.762 171.05 186.762C171.588 186.762 172.05 187.165 172.05 187.744H172.05ZM172.357 190.312C171.69 191.168 170.985 191.759 169.742 191.759C168.473 191.759 167.486 191.004 166.717 189.896C166.409 189.443 165.935 189.342 165.589 189.582C165.268 189.808 165.192 190.287 165.486 190.702C166.55 192.301 168.024 193.232 169.742 193.232C171.319 193.232 172.549 192.477 173.511 191.218C173.87 190.752 173.857 190.274 173.511 190.01C173.19 189.758 172.716 189.846 172.357 190.312ZM176.78 189.28C176.78 190.765 177.652 191.546 178.626 191.546C179.549 191.546 180.498 190.815 180.498 189.28C180.498 187.769 179.549 187.039 178.639 187.039C177.652 187.039 176.78 187.731 176.78 189.28ZM176.78 186.674V185.679H174.973V195.448H176.78V191.973C177.383 192.779 178.165 193.119 179.049 193.119C180.703 193.119 182.318 191.835 182.318 189.192C182.318 186.661 180.639 185.478 179.203 185.478C178.062 185.478 177.28 185.994 176.78 186.674ZM185.459 189.28C185.459 190.765 186.331 191.546 187.305 191.546C188.228 191.546 189.176 190.815 189.176 189.28C189.176 187.769 188.228 187.039 187.318 187.039C186.331 187.039 185.459 187.731 185.459 189.28H185.459ZM185.459 186.674V185.679H185.459H183.652V195.448H185.459V191.973C186.062 192.779 186.843 193.119 187.728 193.119C189.382 193.119 190.997 191.835 190.997 189.192C190.997 186.661 189.317 185.478 187.882 185.478C186.741 185.478 185.959 185.994 185.459 186.674Z" fill="white"/>
<path d="M325.598 327.177L326.245 323.373L333.751 264.438L298.218 237.854L248.196 252.067L252.84 329.219C276.372 334.87 299.7 334.037 325.598 327.177Z" fill="#FFD3BA"/>
<path d="M260.519 282.59C256.473 279.263 254.697 273.657 256.488 268.408C262.245 251.55 263.018 241.896 263.317 233.452C263.571 226.31 269.566 220.725 276.709 220.98C283.849 221.233 289.434 227.227 289.182 234.369C288.746 246.68 287.185 258.602 280.981 276.769C278.673 283.532 271.318 287.143 264.554 284.835C263.043 284.318 261.686 283.548 260.519 282.59Z" fill="#FFD3BA"/>
<path d="M285.62 278.991C281.455 275.568 279.724 269.752 281.73 264.427C285.19 255.25 286.723 246.779 286.286 239.244C285.876 232.108 291.326 225.992 298.46 225.579C305.594 225.167 311.713 230.615 312.125 237.75C312.77 248.921 310.692 260.97 305.946 273.557C303.426 280.244 295.962 283.622 289.275 281.102C287.913 280.588 286.686 279.866 285.62 278.991Z" fill="#FFD3BA"/>
<path d="M312.595 285.016C307.962 282.259 305.373 276.771 306.554 271.204C308.593 261.612 308.835 253.005 307.269 245.62C305.789 238.629 310.255 231.758 317.247 230.278C324.237 228.796 331.106 233.262 332.587 240.254C334.909 251.202 334.668 263.425 331.872 276.581C330.386 283.572 323.516 288.035 316.525 286.549C315.102 286.246 313.782 285.721 312.595 285.016Z" fill="#FFD3BA"/>
<path d="M250.484 364.464C246.993 338.568 238.299 330.059 237.024 328.349C235.813 326.728 224.48 313.964 220.3 306.365C215.121 296.949 209.019 283.519 214.309 272.539C219.492 261.787 232.443 263.943 242.503 255.91L264.057 248.035C272.62 246.568 280.751 252.319 282.222 260.881C283.689 269.446 277.937 277.577 269.374 279.046L265.125 283.612C263.57 284.247 264.894 288.633 265.298 290.47C267.759 294.862 259.091 303.041 263.107 308.426C268.304 315.388 266.87 325.245 259.907 330.441C254.653 334.362 251.308 370.58 250.484 364.464Z" fill="#FFD3BA"/>
<path fill-rule="evenodd" clip-rule="evenodd" d="M327.061 329.136C305.647 349.231 278.176 362.947 247.68 367.25C246.932 335.647 245.316 307.871 242.044 300.679C233.469 281.833 314.935 307.293 314.935 307.293C314.935 307.293 327.729 276.371 327.061 329.136Z" fill="#FFD3BA"/>
<path d="M216.864 198.474C216.864 198.474 238.415 205.129 246.319 215.953C258.012 231.965 254.411 256.509 243.993 274.816" stroke="#FFD2BA" stroke-width="34.2725" stroke-linecap="round" stroke-linejoin="round"/>
<defs>
<filter id="filter0_d" x="81.9373" y="176.131" width="133.351" height="27.418" filterUnits="userSpaceOnUse" color-interpolation-filters="sRGB">
<feFlood flood-opacity="0" result="BackgroundImageFix"/>
<feColorMatrix in="SourceAlpha" type="matrix" values="0 0 0 0 0 0 0 0 0 0 0 0 0 0 0 0 0 0 127 0"/>
<feOffset dy="0.623137"/>
<feGaussianBlur stdDeviation="0.623137"/>
<feColorMatrix type="matrix" values="0 0 0 0 0.0862745 0 0 0 0 0.0705882 0 0 0 0 0.145098 0 0 0 0.07 0"/>
<feBlend mode="normal" in2="BackgroundImageFix" result="effect1_dropShadow"/>
<feBlend mode="normal" in="SourceGraphic" in2="effect1_dropShadow" result="shape"/>
</filter>
</defs>
</svg>
