<svg width="445" height="445" viewBox="0 0 445 445" fill="none" xmlns="http://www.w3.org/2000/svg">
<path d="M367.957 213.601C367.957 294.294 302.543 359.707 221.848 359.707C141.154 359.707 75.738 294.294 75.738 213.601C75.738 132.906 141.154 67.4913 221.848 67.4913C302.543 67.4913 367.957 132.906 367.957 213.601Z" fill="#EEEDF3"/>
<path d="M170.778 256.635C170.778 256.635 188.049 301.691 253.207 304.526L287.021 248.477" fill="#FFD3BA"/>
<path d="M268.547 214.682C268.547 214.682 229.036 240.854 243.162 304.524L268.584 311.115" fill="#FFD3BA"/>
<path fill-rule="evenodd" clip-rule="evenodd" d="M301.684 335.988L234.077 299.88L278.934 239.137L352.645 278.789C341.013 302.081 323.343 321.832 301.684 335.988Z" fill="#FFD3BA"/>
<path d="M295.801 281.746C299.833 281.734 303.861 280.182 306.929 277.095C313.063 270.923 313.035 260.944 306.861 254.808C278.097 226.22 296.114 177.114 296.302 176.623C299.417 168.497 295.348 159.406 287.22 156.291C279.096 153.172 269.973 157.259 266.856 165.387C265.789 168.169 241.23 234.014 284.642 277.164C287.729 280.231 291.767 281.757 295.801 281.746Z" fill="#FFD3BA"/>
<path d="M243.962 167.568C246.16 169.476 248.365 171.384 250.564 173.293C256.289 178.26 262.202 183.022 267.756 188.183C276.62 196.421 282.14 206.578 284.327 218.489C286.537 230.554 284.982 242.158 279.565 253.164C274.37 263.714 266.429 271.638 256.015 277.078C248.604 280.952 240.697 283.037 232.341 283.361C216.664 283.971 202.867 279.231 191.257 268.613C183.009 261.065 177.819 251.683 175.358 240.791C174.037 234.946 173.666 229.033 174.293 223.08C175.563 210.981 180.24 200.38 188.392 191.322C191.286 188.109 194.647 185.415 197.899 182.601C203.573 177.708 209.258 172.831 214.938 167.949C215.074 167.83 215.188 167.693 215.314 167.562C216.088 167.556 216.863 167.573 217.638 167.534C218.111 167.511 218.213 167.716 218.202 168.137C218.179 168.935 218.196 169.732 218.196 170.53C218.196 178.459 218.196 186.389 218.196 194.319C218.196 195.76 218.726 196.905 220.013 197.6C222.36 198.87 225.06 197.178 225.066 194.433C225.078 188.189 225.072 181.946 225.072 175.702C225.072 173.196 225.083 170.689 225.06 168.183C225.055 167.67 225.197 167.511 225.71 167.528C226.826 167.568 227.943 167.539 229.059 167.539C234.027 167.556 238.994 167.562 243.962 167.568ZM230.791 250.264C231.817 250.264 232.842 250.242 233.867 250.276C234.329 250.293 234.431 250.133 234.426 249.7C234.403 248.219 234.46 246.738 234.397 245.257C234.369 244.562 234.562 244.289 235.246 244.112C237.69 243.497 239.883 242.369 241.717 240.614C244.577 237.869 245.614 234.468 245.38 230.583C245.124 226.333 243.21 223.155 239.45 221.098C236.869 219.685 234.044 218.979 231.264 218.136C229.629 217.64 227.988 217.162 226.547 216.205C225.135 215.271 224.428 213.972 224.588 212.268C224.747 210.577 225.653 209.403 227.197 208.714C228.433 208.167 229.743 208.03 231.07 208.121C234.078 208.326 235.724 209.614 236.659 212.479C236.835 213.015 236.961 213.573 237.063 214.131C237.131 214.524 237.217 214.689 237.695 214.615C239.9 214.274 242.11 213.994 244.32 213.675C245.887 213.448 245.887 213.431 245.522 211.858C244.161 205.974 240.977 201.81 234.79 200.477C234.42 200.397 234.408 200.186 234.414 199.89C234.426 198.386 234.386 196.882 234.431 195.378C234.448 194.786 234.255 194.666 233.702 194.678C231.742 194.712 229.783 194.706 227.823 194.678C227.311 194.672 227.111 194.78 227.128 195.344C227.168 196.848 227.128 198.352 227.151 199.856C227.157 200.254 227.031 200.42 226.644 200.499C226.086 200.613 225.533 200.75 224.998 200.927C221.517 202.072 218.715 204.037 217.29 207.546C216.117 210.428 216.083 213.402 216.88 216.387C217.866 220.061 220.446 222.306 223.739 223.889C226.251 225.097 228.94 225.815 231.549 226.743C232.984 227.256 234.414 227.791 235.61 228.783C236.351 229.398 236.881 230.144 237.029 231.118C237.342 233.141 236.425 234.929 234.528 235.903C232.215 237.088 229.783 237.008 227.339 236.462C224.764 235.886 223.169 234.274 222.503 231.722C222.281 230.879 222.189 230.019 222.161 229.159C222.144 228.663 221.95 228.612 221.54 228.674C219.136 229.039 216.726 229.404 214.317 229.734C213.912 229.791 213.844 229.945 213.878 230.304C214.009 231.694 214.305 233.049 214.829 234.337C216.994 239.669 221.027 242.853 226.479 244.363C226.98 244.505 227.174 244.665 227.162 245.206C227.123 246.687 227.174 248.168 227.134 249.649C227.117 250.179 227.294 250.293 227.789 250.276C228.786 250.236 229.789 250.264 230.791 250.264Z" fill="#FF985F"/>
<path d="M216.332 160.691C213.187 155.234 210.025 149.782 206.898 144.314C202.836 137.199 206.841 128.534 214.885 127.007C215.58 126.876 216.286 126.825 216.992 126.825C225.423 126.831 233.848 126.825 242.279 126.825C251.274 126.825 256.874 136.35 252.442 144.183C249.411 149.549 246.29 154.864 243.208 160.201C243.117 160.355 243.043 160.526 242.963 160.685C235.723 160.691 228.482 160.697 221.248 160.702C219.607 160.708 217.972 160.697 216.332 160.691Z" fill="#FF985F"/>
<path d="M216.334 160.69C217.975 160.696 219.61 160.713 221.251 160.713C228.491 160.708 235.731 160.702 242.966 160.696C243.399 160.702 243.832 160.713 244.265 160.713C246.258 160.725 247.774 162.177 247.791 164.108C247.813 165.988 246.315 167.492 244.367 167.549C244.23 167.555 244.094 167.56 243.957 167.572C238.99 167.566 234.022 167.555 229.055 167.549C227.938 167.549 226.822 167.578 225.705 167.538C225.187 167.521 225.05 167.68 225.056 168.193C225.079 170.699 225.067 173.206 225.067 175.712C225.067 181.956 225.073 188.199 225.061 194.442C225.056 197.188 222.356 198.88 220.009 197.61C218.721 196.915 218.191 195.764 218.191 194.328C218.197 186.399 218.191 178.469 218.191 170.54C218.191 169.742 218.174 168.945 218.197 168.147C218.209 167.726 218.106 167.521 217.633 167.543C216.858 167.583 216.084 167.566 215.309 167.572C213.133 167.486 211.771 166.404 211.527 164.575C211.259 162.559 212.791 160.764 214.825 160.719C215.332 160.702 215.833 160.696 216.334 160.69Z" fill="#FD5B24"/>
<path d="M230.79 250.264C229.787 250.264 228.785 250.236 227.782 250.276C227.286 250.293 227.115 250.179 227.127 249.649C227.167 248.168 227.115 246.687 227.155 245.206C227.172 244.665 226.979 244.499 226.472 244.363C221.02 242.853 216.987 239.669 214.822 234.337C214.298 233.044 214.002 231.694 213.871 230.304C213.837 229.945 213.905 229.791 214.31 229.734C216.719 229.398 219.129 229.039 221.533 228.674C221.943 228.612 222.137 228.663 222.154 229.159C222.182 230.019 222.273 230.879 222.496 231.722C223.162 234.274 224.757 235.886 227.332 236.462C229.776 237.008 232.208 237.088 234.521 235.903C236.418 234.929 237.335 233.135 237.022 231.118C236.868 230.144 236.344 229.398 235.603 228.783C234.407 227.791 232.977 227.256 231.542 226.743C228.933 225.815 226.238 225.097 223.732 223.889C220.445 222.306 217.859 220.061 216.873 216.387C216.076 213.408 216.11 210.428 217.283 207.546C218.713 204.037 221.516 202.072 224.991 200.927C225.532 200.75 226.084 200.608 226.637 200.499C227.019 200.425 227.15 200.26 227.144 199.856C227.121 198.352 227.161 196.848 227.121 195.344C227.104 194.78 227.298 194.666 227.816 194.678C229.776 194.706 231.735 194.706 233.695 194.678C234.247 194.666 234.441 194.786 234.424 195.378C234.378 196.882 234.413 198.386 234.407 199.89C234.407 200.186 234.418 200.403 234.783 200.477C240.964 201.81 244.154 205.974 245.515 211.858C245.88 213.436 245.88 213.448 244.313 213.675C242.109 213.994 239.893 214.274 237.688 214.615C237.21 214.689 237.124 214.524 237.056 214.131C236.953 213.573 236.828 213.015 236.651 212.479C235.711 209.614 234.071 208.326 231.063 208.121C229.73 208.03 228.426 208.167 227.189 208.714C225.646 209.397 224.74 210.577 224.58 212.268C224.421 213.972 225.127 215.27 226.54 216.205C227.987 217.162 229.628 217.64 231.257 218.136C234.037 218.979 236.862 219.691 239.443 221.098C243.202 223.154 245.116 226.333 245.373 230.583C245.606 234.468 244.57 237.874 241.71 240.614C239.876 242.375 237.682 243.497 235.239 244.112C234.549 244.283 234.356 244.562 234.39 245.257C234.453 246.738 234.396 248.219 234.418 249.7C234.424 250.133 234.322 250.293 233.86 250.276C232.84 250.236 231.815 250.264 230.79 250.264Z" fill="#FDF2EB"/>
<path d="M162.521 218.503L184.445 220.732C192.345 221.387 199.279 215.514 199.934 207.616C200.589 199.718 194.718 192.783 186.818 192.127L164.895 189.899C156.996 189.243 150.059 195.116 149.404 203.014C148.749 210.912 154.623 217.848 162.521 218.503Z" fill="#FFD3BA"/>
<path d="M166.861 251.169L188.894 251.584C196.821 251.587 203.247 245.163 203.25 237.238C203.252 229.312 196.83 222.884 188.903 222.882L166.87 222.466C158.945 222.464 152.515 228.887 152.512 236.813C152.51 244.738 158.935 251.166 166.861 251.169Z" fill="#FFD3BA"/>
<path d="M171.816 280.48L193.791 278.84C201.684 278.103 207.483 271.108 206.747 263.217C206.011 255.324 199.017 249.525 191.124 250.261L169.149 251.902C161.258 252.638 155.455 259.632 156.191 267.525C156.928 275.416 163.924 281.217 171.816 280.48Z" fill="#FFD3BA"/>
</svg>
