<svg width="451" height="443" viewBox="0 0 451 443" fill="none" xmlns="http://www.w3.org/2000/svg">
<g clip-path="url(#clip0)">
<path d="M370.676 221.079C370.676 301.258 305.678 366.255 225.5 366.255C145.322 366.255 80.3242 301.258 80.3242 221.079C80.3242 140.901 145.322 75.9034 225.5 75.9034C305.678 75.9034 370.676 140.901 370.676 221.079Z" fill="#EEEDF3"/>
<path d="M254.815 286.359H73.3054C68.0574 286.359 63.804 282.106 63.804 276.858V134.418C63.804 129.17 68.0574 124.917 73.3054 124.917H254.815C260.062 124.917 264.317 129.17 264.317 134.418V276.858C264.317 282.106 260.062 286.359 254.815 286.359Z" fill="#C8C5D6"/>
<path d="M254.475 124.917H73.6459C68.2095 124.917 63.804 129.322 63.804 134.757V148.613H264.317V134.757C264.317 129.322 259.911 124.917 254.475 124.917Z" fill="#48367D"/>
<path d="M88.4254 136.858C88.4254 139.576 86.2243 141.779 83.5068 141.779C80.7894 141.779 78.5851 139.576 78.5851 136.858C78.5851 134.141 80.7894 131.938 83.5068 131.938C86.2243 131.938 88.4254 134.141 88.4254 136.858Z" fill="white"/>
<path d="M104.573 136.765C104.573 139.482 102.37 141.685 99.6545 141.685C96.9355 141.685 94.7328 139.482 94.7328 136.765C94.7328 134.048 96.9355 131.845 99.6545 131.845C102.37 131.845 104.573 134.048 104.573 136.765Z" fill="white"/>
<path d="M120.979 136.765C120.979 139.482 118.776 141.685 116.06 141.685C113.343 141.685 111.139 139.482 111.139 136.765C111.139 134.048 113.343 131.845 116.06 131.845C118.776 131.845 120.979 134.048 120.979 136.765Z" fill="white"/>
<path d="M183.828 238.668H148.712C139.806 238.668 132.52 231.381 132.52 222.475V187.36C132.52 178.454 139.806 171.167 148.712 171.167H183.828C192.733 171.167 200.02 178.454 200.02 187.36V222.475C200.02 231.381 192.733 238.668 183.828 238.668Z" fill="white"/>
<path d="M150.995 208.239L164.149 217.852L186.917 186.367" stroke="#48367D" stroke-width="1.33824" stroke-linecap="round" stroke-linejoin="round"/>
<path d="M303.599 226.286C303.599 236.752 300.929 246.069 296.788 252.664C292.619 259.304 287.282 262.763 281.935 262.763C276.589 262.763 271.251 259.304 267.082 252.664C262.941 246.069 260.271 236.752 260.271 226.286C260.271 215.82 262.941 206.503 267.082 199.908C271.251 193.268 276.589 189.808 281.935 189.808C287.282 189.808 292.619 193.268 296.788 199.908C300.929 206.503 303.599 215.82 303.599 226.286Z" stroke="#FF5A23" stroke-width="6.66593"/>
<rect x="232.868" y="218.694" width="98.1373" height="94.434" rx="11.1099" fill="#FF985F"/>
</g>
<defs>
<clipPath id="clip0">
<rect width="451" height="442.157" fill="white"/>
</clipPath>
</defs>
</svg>
