<svg width="303" height="305" viewBox="0 0 303 305" fill="none" xmlns="http://www.w3.org/2000/svg">
<g clip-path="url(#clip0)">
<path d="M302.979 157.648C302.979 238.757 237.226 304.511 156.117 304.511C75.007 304.511 9.25391 238.757 9.25391 157.648C9.25391 76.5382 75.007 10.7852 156.117 10.7852C237.226 10.7852 302.979 76.5382 302.979 157.648Z" fill="#EEEDF3"/>
<path d="M204.735 132.471C207.36 134.749 209.991 137.027 212.615 139.305C219.449 145.234 226.506 150.918 233.135 157.078C243.715 166.909 250.303 179.032 252.914 193.25C255.552 207.65 253.696 221.5 247.23 234.636C241.029 247.228 231.551 256.686 219.122 263.179C210.277 267.803 200.839 270.291 190.865 270.679C172.153 271.406 155.686 265.749 141.829 253.076C131.984 244.067 125.79 232.869 122.852 219.868C121.275 212.892 120.833 205.835 121.581 198.73C123.097 184.288 128.679 171.635 138.409 160.824C141.863 156.989 145.874 153.773 149.757 150.415C156.529 144.574 163.314 138.754 170.093 132.927C170.256 132.784 170.392 132.621 170.542 132.465C171.467 132.458 172.391 132.478 173.316 132.431C173.88 132.403 174.003 132.648 173.989 133.151C173.962 134.103 173.982 135.055 173.982 136.007C173.982 145.472 173.982 154.936 173.982 164.4C173.982 166.121 174.615 167.487 176.151 168.317C178.953 169.833 182.175 167.814 182.182 164.536C182.196 157.085 182.189 149.633 182.189 142.181C182.189 139.189 182.203 136.197 182.175 133.206C182.169 132.594 182.339 132.403 182.951 132.424C184.283 132.471 185.616 132.437 186.948 132.437C192.877 132.458 198.806 132.465 204.735 132.471ZM189.015 231.176C190.239 231.176 191.463 231.148 192.687 231.189C193.238 231.21 193.36 231.019 193.353 230.502C193.326 228.735 193.394 226.967 193.319 225.199C193.285 224.369 193.516 224.043 194.332 223.832C197.249 223.098 199.867 221.752 202.056 219.658C205.469 216.38 206.707 212.321 206.428 207.684C206.122 202.612 203.838 198.818 199.35 196.364C196.27 194.677 192.898 193.834 189.58 192.828C187.628 192.236 185.67 191.665 183.95 190.523C182.264 189.408 181.421 187.858 181.611 185.825C181.801 183.805 182.883 182.405 184.725 181.582C186.201 180.929 187.764 180.766 189.349 180.875C192.939 181.12 194.904 182.656 196.019 186.076C196.229 186.715 196.379 187.382 196.501 188.048C196.583 188.517 196.685 188.714 197.256 188.626C199.887 188.218 202.525 187.885 205.164 187.504C207.033 187.232 207.033 187.212 206.598 185.335C204.973 178.312 201.172 173.341 193.788 171.75C193.347 171.655 193.333 171.404 193.34 171.05C193.353 169.255 193.306 167.46 193.36 165.665C193.381 164.958 193.149 164.815 192.49 164.829C190.151 164.87 187.812 164.863 185.473 164.829C184.861 164.822 184.623 164.951 184.644 165.624C184.691 167.419 184.644 169.214 184.671 171.009C184.678 171.485 184.528 171.682 184.066 171.778C183.399 171.914 182.74 172.077 182.101 172.288C177.946 173.654 174.601 176 172.901 180.188C171.501 183.629 171.46 187.178 172.412 190.741C173.588 195.126 176.668 197.805 180.598 199.695C183.596 201.137 186.806 201.993 189.92 203.102C191.633 203.714 193.34 204.353 194.768 205.536C195.651 206.27 196.284 207.161 196.461 208.323C196.834 210.737 195.74 212.872 193.476 214.035C190.715 215.449 187.812 215.354 184.895 214.701C181.822 214.014 179.918 212.09 179.123 209.044C178.857 208.038 178.749 207.011 178.715 205.984C178.694 205.393 178.463 205.332 177.973 205.407C175.104 205.842 172.228 206.277 169.352 206.671C168.869 206.739 168.788 206.923 168.829 207.351C168.985 209.01 169.338 210.628 169.964 212.165C172.548 218.529 177.362 222.33 183.868 224.132C184.467 224.302 184.698 224.492 184.684 225.138C184.637 226.906 184.698 228.673 184.65 230.441C184.63 231.074 184.841 231.21 185.432 231.189C186.622 231.142 187.819 231.176 189.015 231.176Z" fill="#FF985F"/>
<path d="M171.761 124.265C168.008 117.751 164.234 111.245 160.502 104.717C155.654 96.2251 160.434 85.8835 170.034 84.0613C170.864 83.9049 171.707 83.8438 172.55 83.8438C182.613 83.8505 192.669 83.8438 202.732 83.8438C213.468 83.8438 220.151 95.212 214.861 104.561C211.244 110.966 207.518 117.309 203.84 123.68C203.731 123.864 203.643 124.068 203.548 124.258C194.906 124.265 186.264 124.272 177.629 124.279C175.671 124.285 173.719 124.272 171.761 124.265Z" fill="#FF985F"/>
<path d="M171.759 124.265C173.717 124.271 175.669 124.292 177.627 124.292C186.269 124.285 194.911 124.278 203.546 124.271C204.062 124.278 204.579 124.292 205.096 124.292C207.475 124.305 209.284 126.039 209.304 128.344C209.332 130.588 207.543 132.383 205.218 132.451C205.055 132.458 204.892 132.464 204.729 132.478C198.8 132.471 192.871 132.458 186.942 132.451C185.609 132.451 184.277 132.485 182.944 132.437C182.325 132.417 182.162 132.607 182.169 133.219C182.196 136.211 182.182 139.203 182.182 142.194C182.182 149.646 182.189 157.098 182.176 164.55C182.169 167.827 178.946 169.847 176.145 168.33C174.608 167.501 173.976 166.127 173.976 164.414C173.983 154.949 173.976 145.485 173.976 136.02C173.976 135.069 173.955 134.117 173.983 133.165C173.996 132.662 173.874 132.417 173.309 132.444C172.385 132.492 171.46 132.471 170.535 132.478C167.938 132.376 166.313 131.084 166.021 128.902C165.701 126.495 167.53 124.353 169.957 124.299C170.563 124.278 171.161 124.271 171.759 124.265Z" fill="#FD5B24"/>
<path d="M189.016 231.175C187.819 231.175 186.622 231.141 185.426 231.189C184.834 231.209 184.63 231.073 184.644 230.441C184.692 228.673 184.63 226.905 184.678 225.137C184.698 224.491 184.467 224.294 183.862 224.131C177.355 222.329 172.541 218.529 169.958 212.164C169.332 210.621 168.979 209.01 168.822 207.351C168.781 206.922 168.863 206.739 169.346 206.671C172.222 206.27 175.098 205.841 177.967 205.406C178.457 205.331 178.688 205.392 178.708 205.984C178.742 207.011 178.851 208.037 179.116 209.044C179.912 212.09 181.815 214.014 184.889 214.701C187.806 215.353 190.709 215.449 193.469 214.034C195.733 212.872 196.828 210.73 196.454 208.323C196.271 207.16 195.645 206.27 194.761 205.535C193.333 204.352 191.627 203.713 189.913 203.101C186.799 201.993 183.583 201.136 180.592 199.695C176.668 197.805 173.582 195.126 172.405 190.74C171.453 187.184 171.494 183.628 172.895 180.188C174.601 176 177.947 173.654 182.094 172.287C182.74 172.076 183.4 171.906 184.059 171.777C184.515 171.689 184.671 171.492 184.664 171.009C184.637 169.214 184.685 167.419 184.637 165.624C184.617 164.951 184.848 164.815 185.467 164.828C187.806 164.862 190.144 164.862 192.483 164.828C193.143 164.815 193.374 164.958 193.354 165.665C193.299 167.46 193.34 169.255 193.333 171.05C193.333 171.403 193.347 171.662 193.782 171.75C201.159 173.341 204.967 178.311 206.592 185.335C207.027 187.218 207.027 187.232 205.157 187.504C202.526 187.885 199.881 188.218 197.25 188.626C196.679 188.714 196.577 188.517 196.495 188.048C196.373 187.381 196.223 186.715 196.012 186.076C194.89 182.656 192.932 181.119 189.342 180.875C187.751 180.766 186.194 180.929 184.719 181.582C182.876 182.398 181.795 183.805 181.605 185.824C181.414 187.857 182.257 189.408 183.944 190.523C185.671 191.665 187.629 192.236 189.573 192.828C192.891 193.834 196.264 194.684 199.344 196.363C203.831 198.818 206.116 202.612 206.422 207.684C206.701 212.321 205.463 216.387 202.05 219.657C199.861 221.758 197.243 223.098 194.326 223.832C193.503 224.036 193.272 224.369 193.313 225.199C193.388 226.966 193.32 228.734 193.347 230.502C193.354 231.019 193.231 231.209 192.681 231.189C191.464 231.141 190.24 231.175 189.016 231.175Z" fill="#FDF2EB"/>
<g clip-path="url(#clip1)">
<path d="M182.62 122.996C183.081 118.309 179.142 114.371 174.456 114.832L149.172 117.32C147.452 117.489 145.844 118.249 144.622 119.471L94.3065 169.787C91.3899 172.703 91.3899 177.432 94.3065 180.349L117.103 203.145C120.019 206.061 124.748 206.061 127.664 203.145L177.98 152.829C179.202 151.607 179.962 149.999 180.132 148.28L182.62 122.996ZM167.131 130.783C165.723 129.375 165.724 127.095 167.133 125.685C168.542 124.276 170.823 124.275 172.231 125.684C173.639 127.092 173.639 129.372 172.229 130.782C170.82 132.191 168.54 132.192 167.131 130.783Z" fill="#48367D"/>
</g>
</g>
<defs>
<clipPath id="clip0">
<rect width="303" height="305" fill="white"/>
</clipPath>
<clipPath id="clip1">
<rect width="47.1753" height="110.034" fill="white" transform="translate(166.832 97.2617) rotate(45)"/>
</clipPath>
</defs>
</svg>
