<svg width="465" height="455" viewBox="0 0 465 455" fill="none" xmlns="http://www.w3.org/2000/svg">
<path d="M381.442 227.502C381.442 310.009 314.558 376.892 232.049 376.892C149.542 376.892 82.6562 310.009 82.6562 227.502C82.6562 144.994 149.542 78.1094 232.049 78.1094C314.558 78.1094 381.442 144.994 381.442 227.502Z" fill="#EEEDF3"/>
<path d="M109.324 253.658L184.296 255.698" stroke="#7F2D11" stroke-width="8.19" stroke-linecap="round" stroke-linejoin="round"/>
<path d="M116.667 219.5L178.885 251.616" stroke="#9B3716" stroke-width="8.19" stroke-miterlimit="10" stroke-linecap="round"/>
<path d="M206.781 260.471C186.996 262.285 169.487 247.717 167.673 227.932C165.859 208.147 180.428 190.639 200.214 188.825C204.326 188.447 208.343 188.778 212.139 189.718" stroke="#9B3716" stroke-width="8.19" stroke-miterlimit="10" stroke-linecap="round"/>
<path d="M238.557 216.57C238.914 218.127 239.171 219.728 239.321 221.364C241.135 241.147 226.565 258.657 206.782 260.471" stroke="#9B3716" stroke-width="8.19" stroke-miterlimit="10" stroke-linecap="round"/>
<path d="M175.91 304.085L167.7 249.617L244.153 244.501L253.71 313.66C251.081 314.048 248.429 314.371 245.75 314.618C222.877 316.714 195.962 311.867 175.91 304.085Z" fill="#9B3715"/>
<path d="M298.245 123.007L184.69 174.129L206.963 220.692L258.32 175.286C258.592 175.034 298.581 122.853 298.245 123.007Z" fill="#48367D"/>
<path d="M300.079 121.582L214.35 185.749L262.964 202.484C265.286 203.283 267.859 202.494 269.333 200.529L301.001 122.867C301.833 121.827 300.604 121.24 300.079 121.582Z" fill="#C8C5D6"/>
<path d="M214.349 185.749L206.961 220.692L242.95 195.595L214.349 185.749Z" fill="white"/>
<path d="M300.217 121.528L151.775 158.048C149.104 158.832 149.052 162.597 151.701 163.455L184.69 174.129L300.672 122.223C300.953 122.094 301.041 121.377 300.217 121.528Z" fill="#C8C5D6"/>
<path fill-rule="evenodd" clip-rule="evenodd" d="M120.574 326.959V300.058C120.574 294.706 124.913 290.367 130.266 290.367H315.406C320.757 290.367 325.097 294.706 325.097 300.058V344.385C299.571 364.731 267.23 376.892 232.049 376.892C187.738 376.892 147.933 357.601 120.574 326.959Z" fill="#C8C5D6"/>
<path d="M315.058 290.367H130.613C125.068 290.367 120.574 294.861 120.574 300.404V314.538H325.097V300.404C325.097 294.861 320.604 290.367 315.058 290.367Z" fill="#48367D"/>
<path d="M145.69 302.548C145.69 305.319 143.444 307.566 140.673 307.566C137.901 307.566 135.652 305.319 135.652 302.548C135.652 299.776 137.901 297.529 140.673 297.529C143.444 297.529 145.69 299.776 145.69 302.548Z" fill="white"/>
<path d="M162.159 302.452C162.159 305.224 159.912 307.471 157.142 307.471C154.369 307.471 152.122 305.224 152.122 302.452C152.122 299.68 154.369 297.434 157.142 297.434C159.912 297.434 162.159 299.68 162.159 302.452Z" fill="white"/>
<path d="M178.894 302.452C178.894 305.224 176.647 307.471 173.877 307.471C171.105 307.471 168.856 305.224 168.856 302.452C168.856 299.68 171.105 297.434 173.877 297.434C176.647 297.434 178.894 299.68 178.894 302.452Z" fill="white"/>
</svg>
