<svg width="20" height="18" viewBox="0 0 20 18" fill="none" xmlns="http://www.w3.org/2000/svg">
<path d="M0.649004 8.75649C1.43602 8.21002 2.61653 8.44422 3.32484 9.53716C5.13497 12.1914 7.496 13.987 10.4866 13.987C13.3986 13.987 15.0513 12.5818 16.6253 10.552C17.4911 9.4591 18.5929 9.22489 19.3799 9.84943C20.1669 10.474 20.2456 11.645 19.3799 12.7379C17.0975 15.7045 14.4217 17.5 10.4866 17.5C6.47289 17.5 2.93134 15.3141 0.491601 11.4888C-0.29541 10.3959 -0.0593064 9.30296 0.649004 8.75649ZM14.343 3.526C14.1069 3.60407 14.1069 3.83827 14.343 3.91633L16.3105 4.15054C17.4911 4.30667 17.9633 5.16541 17.8059 6.02415C17.5698 6.96095 16.7827 7.42935 15.5235 7.11708L11.1163 6.02415C9.77834 5.71188 9.38483 5.00927 9.38483 4.2286C9.38483 3.60407 9.69964 3.0576 10.7228 2.51113L14.5004 0.481385C15.917 -0.299285 17.0188 -0.0650848 17.4911 0.715586C17.9633 1.65239 17.4911 2.5892 16.4679 2.90146L14.343 3.526Z" fill="#FF5B24"/>
</svg>
