<svg width="829" height="15887" viewBox="0 0 829 15887" fill="none" xmlns="http://www.w3.org/2000/svg">
<line x1="829" y1="15886.1" x2="824" y2="15886.1" stroke="white" stroke-width="0.1"/>
<path fill-rule="evenodd" clip-rule="evenodd" d="M980.913 5347.4C980.913 5435.83 912.595 5494.79 834.517 5494.79C756.39 5494.79 688.12 5435.83 688.12 5347.4C688.12 5258.96 756.39 5200 834.517 5200C912.595 5200 980.913 5263.87 980.913 5347.4V5347.4ZM590.506 6226.86C853.971 6226.86 961.377 6099.12 961.377 5971.38V5966.46H219.587V5971.38C214.756 6099.12 326.993 6226.86 590.506 6226.86V6226.86ZM1049.17 5760.11C1132.18 5760.11 1171.17 5814.16 1171.17 5873.12V5951.73C1171.17 6192.48 932.105 6443.05 585.585 6443.05C239.163 6443.05 0 6192.48 0 5951.73V5873.12C0 5814.16 39.0878 5760.11 121.997 5760.11H1049.17Z" fill="#FFF4EC"/>
<path fill-rule="evenodd" clip-rule="evenodd" d="M955.518 2567.94C955.518 2658.51 884.606 2718.89 803.456 2718.89C722.356 2718.89 651.393 2658.51 651.393 2567.94C651.393 2477.38 722.356 2417 803.456 2417C884.606 2417 955.518 2477.38 955.518 2567.94M403.07 3297.49C403.07 3403.15 484.119 3478.62 585.494 3478.62C686.869 3478.62 767.969 3398.12 767.969 3297.49C767.969 3196.86 686.869 3116.36 585.494 3116.36C489.188 3116.36 403.07 3191.83 403.07 3297.49M991 3297.49C991 3518.87 808.576 3700 585.5 3700C362.475 3700 180 3518.87 180 3297.49C180 3076.1 362.475 2894.97 585.5 2894.97C808.576 2894.97 991 3076.1 991 3297.49" fill="#FFF4EC"/>
<path fill-rule="evenodd" clip-rule="evenodd" d="M793.086 277.888C866.969 277.888 931.617 222.31 931.617 138.944C931.617 60.209 866.969 0 793.086 0C719.203 0 654.556 55.5776 654.556 138.944C654.556 222.31 719.203 277.888 793.086 277.888ZM973.165 504.799C880.811 625.218 783.84 708.584 612.986 708.584C437.514 708.584 298.983 602.06 197.394 449.222C155.835 384.381 86.5701 370.487 40.3932 402.907C-5.78358 435.328 -15.0189 500.168 26.5402 560.377C169.688 787.319 377.484 917 612.986 917C830.017 917 1000.87 810.476 1134.78 634.481C1185.58 569.64 1180.96 500.168 1134.78 463.116C1088.61 426.065 1023.96 439.959 973.165 504.799Z" fill="#FFF4EC"/>
<path fill-rule="evenodd" clip-rule="evenodd" d="M980.913 13290.4C980.913 13378.9 912.595 13437.8 834.517 13437.8C756.39 13437.8 688.12 13378.9 688.12 13290.4C688.12 13202 756.39 13143 834.517 13143C912.595 13143 980.913 13206.9 980.913 13290.4V13290.4ZM590.506 14169.9C853.971 14169.9 961.377 14042.2 961.377 13914.4V13909.5H219.587V13914.4C214.756 14042.2 326.993 14169.9 590.506 14169.9V14169.9ZM1049.17 13703.2C1132.18 13703.2 1171.17 13757.2 1171.17 13816.2V13894.8C1171.17 14135.5 932.105 14386.1 585.585 14386.1C239.163 14386.1 0 14135.5 0 13894.8V13816.2C0 13757.2 39.0878 13703.2 121.997 13703.2H1049.17Z" fill="#FFF4EC"/>
<path fill-rule="evenodd" clip-rule="evenodd" d="M955.518 10511C955.518 10601.6 884.606 10661.9 803.456 10661.9C722.356 10661.9 651.393 10601.6 651.393 10511C651.393 10420.4 722.356 10360 803.456 10360C884.606 10360 955.518 10420.4 955.518 10511M403.07 11240.5C403.07 11346.2 484.119 11421.7 585.494 11421.7C686.869 11421.7 767.969 11341.2 767.969 11240.5C767.969 11139.9 686.869 11059.4 585.494 11059.4C489.188 11059.4 403.07 11134.9 403.07 11240.5M991 11240.5C991 11461.9 808.576 11643 585.5 11643C362.475 11643 180 11461.9 180 11240.5C180 11019.2 362.475 10838 585.5 10838C808.576 10838 991 11019.2 991 11240.5" fill="#FFF4EC"/>
<path fill-rule="evenodd" clip-rule="evenodd" d="M793.086 8220.94C866.969 8220.94 931.617 8165.36 931.617 8081.99C931.617 8003.26 866.969 7943.05 793.086 7943.05C719.203 7943.05 654.556 7998.63 654.556 8081.99C654.556 8165.36 719.203 8220.94 793.086 8220.94ZM973.165 8447.85C880.811 8568.27 783.84 8651.63 612.986 8651.63C437.514 8651.63 298.983 8545.11 197.394 8392.27C155.835 8327.43 86.5701 8313.54 40.3932 8345.96C-5.78358 8378.38 -15.0189 8443.22 26.5402 8503.43C169.688 8730.37 377.484 8860.05 612.986 8860.05C830.017 8860.05 1000.87 8753.53 1134.78 8577.53C1185.58 8512.69 1180.96 8443.22 1134.78 8406.17C1088.61 8369.11 1023.96 8383.01 973.165 8447.85Z" fill="#FFF4EC"/>
</svg>
