<svg width="156" height="24" viewBox="0 0 156 24" fill="none" xmlns="http://www.w3.org/2000/svg">
<path fill-rule="evenodd" clip-rule="evenodd" d="M64.782 11.3008C64.0582 8.54086 62.3012 7.44531 59.9028 7.44531C57.9595 7.44531 55.5207 8.54086 55.5207 11.1791C55.5207 12.8835 56.6988 14.223 58.6211 14.5681L60.4404 14.8926C61.6809 15.1157 62.0324 15.5826 62.0324 16.2117C62.0324 16.9219 61.2675 17.3277 60.1305 17.3277C58.6422 17.3277 57.7118 16.8001 57.567 15.3186L54.9417 15.7246C55.3549 18.5857 57.9182 19.763 60.2335 19.763C62.4252 19.763 64.7612 18.5046 64.7612 15.9681C64.7612 14.243 63.7066 12.9853 61.7427 12.6195L59.7377 12.2546C58.6211 12.0517 58.2492 11.5037 58.2492 10.9762C58.2492 10.3064 58.9726 9.88062 59.965 9.88062C61.2262 9.88062 62.115 10.3064 62.1563 11.7066L64.782 11.3008ZM6.41965 15.643L9.14799 7.74951H12.3522L7.59732 19.4581H5.22021L0.465332 7.74973H3.66954L6.41965 15.643ZM23.1856 11.098C23.1856 12.0314 22.4413 12.6807 21.5729 12.6807C20.7047 12.6807 19.9607 12.0314 19.9607 11.098C19.9607 10.1645 20.7047 9.51539 21.5729 9.51539C22.4413 9.51539 23.1858 10.1645 23.1858 11.098H23.1856ZM23.6816 15.2377C22.6064 16.6172 21.4694 17.571 19.4639 17.571C17.4178 17.571 15.8258 16.3534 14.5855 14.5679C14.0892 13.8372 13.3243 13.675 12.766 14.0606C12.2493 14.4259 12.1256 15.197 12.6008 15.8668C14.3165 18.4439 16.6938 19.9452 19.4639 19.9452C22.007 19.9452 23.9918 18.7279 25.542 16.6985C26.1207 15.9479 26.1001 15.1768 25.542 14.7506C25.025 14.3443 24.2601 14.487 23.6816 15.2377ZM30.8148 13.5734C30.8148 15.9681 32.2206 17.2263 33.7919 17.2263C35.2802 17.2263 36.8102 16.0492 36.8102 13.5734C36.8102 11.1381 35.2802 9.96147 33.8124 9.96147C32.2206 9.96147 30.8148 11.0775 30.8148 13.5734ZM30.8148 9.37323V7.76969H27.9001V23.5167H30.8148V17.9158C31.7865 19.2147 33.0475 19.7629 34.4738 19.7629C37.141 19.7629 39.7456 17.6929 39.7456 13.4316C39.7456 9.35257 37.0375 7.44547 34.7219 7.44547C32.882 7.44547 31.6212 8.27724 30.8148 9.37323ZM44.8113 13.5734C44.8113 15.9681 46.2169 17.2263 47.7882 17.2263C49.2765 17.2263 50.8063 16.0492 50.8063 13.5734C50.8063 11.1381 49.2765 9.96147 47.8087 9.96147C46.2169 9.96147 44.8111 11.0775 44.8111 13.5734H44.8113ZM44.8113 9.37323V7.76969H44.8111H41.8964V23.5167H44.8111V17.9158C45.7828 19.2147 47.0438 19.7629 48.4701 19.7629C51.1371 19.7629 53.7419 17.6929 53.7419 13.4316C53.7419 9.35257 51.0338 7.44547 48.7182 7.44547C46.8783 7.44547 45.6175 8.27724 44.8113 9.37323Z" fill="#FF5B24"/>
<path d="M78.4798 4.19922H75.6598V9.65922C74.7198 8.37922 73.5398 7.85922 72.1598 7.85922C69.5798 7.85922 67.0198 9.79922 67.0198 13.8192C67.0198 18.0392 69.5998 19.9992 71.8398 19.9992C73.6398 19.9992 74.8598 19.2792 75.6598 18.2592V19.6992H78.4798V4.19922ZM72.7798 10.3392C74.2998 10.3392 75.6598 11.5792 75.6598 13.9592C75.6598 16.4192 74.2998 17.4992 72.7598 17.4992C71.3398 17.4992 69.8598 16.3592 69.8598 13.9592C69.8598 11.5192 71.3598 10.3392 72.7798 10.3392ZM86.175 7.85922C83.055 7.85922 80.475 10.1392 80.475 13.9192C80.475 17.6992 83.055 19.9992 86.175 19.9992C89.295 19.9992 91.875 17.6992 91.875 13.9192C91.875 10.1392 89.295 7.85922 86.175 7.85922ZM86.175 10.3392C87.735 10.3392 89.035 11.4992 89.035 13.9192C89.035 16.3392 87.735 17.5192 86.175 17.5192C84.615 17.5192 83.315 16.3392 83.315 13.9192C83.315 11.4992 84.615 10.3392 86.175 10.3392ZM104.511 12.6592C104.091 9.55922 101.651 7.85922 98.9907 7.85922C95.6707 7.85922 93.1507 10.1992 93.1507 13.9192C93.1507 17.4792 95.6307 19.9992 99.1707 19.9992C101.371 19.9992 103.951 18.7792 104.491 15.2592L101.971 14.8592C101.711 16.5992 100.731 17.4992 99.1107 17.4992C96.9907 17.4992 95.9907 15.8792 95.9907 13.9192C95.9907 11.5792 97.2507 10.3392 98.8307 10.3392C100.311 10.3392 101.391 11.0992 101.811 13.0592L104.511 12.6592ZM106.011 11.5392C106.011 13.2192 107.151 14.5392 109.011 14.8792L110.771 15.1992C111.971 15.4192 112.311 15.8792 112.311 16.4992C112.311 17.1992 111.571 17.5992 110.471 17.5992C109.031 17.5992 108.131 17.0792 107.991 15.6192L105.451 16.0192C105.851 18.8392 108.331 19.9992 110.571 19.9992C112.691 19.9992 114.951 18.7592 114.951 16.2592C114.951 14.5592 113.931 13.3192 112.031 12.9592L110.091 12.5992C109.011 12.3992 108.651 11.8592 108.651 11.3392C108.651 10.6792 109.351 10.2592 110.311 10.2592C111.531 10.2592 112.391 10.6792 112.431 12.0592L114.971 11.6592C114.271 8.93922 112.571 7.85922 110.251 7.85922C108.371 7.85922 106.011 8.93922 106.011 11.5392Z" fill="#9B3716"/>
</svg>
